<svg width="1433" height="1389" xmlns="http://www.w3.org/2000/svg" xmlns:xlink="http://www.w3.org/1999/xlink" xml:space="preserve" overflow="hidden"><g transform="translate(-2631 -483)"><path d="M2633.5 1260.5C2633.5 935.204 2894.74 671.5 3217 671.5 3539.26 671.5 3800.5 935.204 3800.5 1260.5 3800.5 1585.8 3539.26 1849.5 3217 1849.5 2894.74 1849.5 2633.5 1585.8 2633.5 1260.5Z" stroke="#172C51" stroke-width="4.58333" stroke-miterlimit="8" fill="none" fill-rule="evenodd"/><path d="M2633.5 1258.21 3980.42 1258.21 3980.42 1262.79 2633.5 1262.79ZM3980.42 1260.5 3971.25 1246.75 3998.75 1260.5 3971.25 1274.25Z" fill="#4472C4"/><path d="M3214.85 1849.3 3214.22 548.415 3218.8 548.413 3219.44 1849.3ZM3202.76 553.007 3216.5 525.5 3230.26 552.994Z" fill="#4472C4"/><path d="M3112.29 536.872C3114 536.872 3115.34 537.433 3116.33 538.554 3117.31 539.675 3117.81 541.141 3117.81 542.951 3117.81 544.437 3117.49 546.018 3116.87 547.693L3117.36 547.855C3119.85 544.154 3122.32 541.405 3124.78 539.608 3127.24 537.811 3129.72 536.913 3132.23 536.913 3134.83 536.913 3136.8 537.649 3138.15 539.122 3139.5 540.594 3140.18 542.722 3140.18 545.505L3140.18 546.072C3140.18 546.261 3140.16 546.464 3140.14 546.68 3142.46 543.384 3144.78 540.932 3147.09 539.324 3149.4 537.717 3151.79 536.913 3154.28 536.913 3156.77 536.913 3158.68 537.629 3160.04 539.061 3161.39 540.493 3162.06 542.506 3162.06 545.099 3162.06 546.802 3161.67 549.22 3160.89 552.354L3158.25 562.972C3157.52 565.917 3157.16 567.997 3157.16 569.213 3157.16 570.294 3157.33 571.077 3157.68 571.564 3158.04 572.05 3158.59 572.293 3159.35 572.293 3160.16 572.293 3161.02 571.962 3161.94 571.3 3162.86 570.638 3164.16 569.375 3165.83 567.511L3168.14 569.781C3165.82 572.239 3163.79 574.049 3162.06 575.211 3160.33 576.373 3158.36 576.954 3156.14 576.954 3154.39 576.954 3152.98 576.326 3151.93 575.069 3150.88 573.813 3150.35 572.212 3150.35 570.267 3150.35 568.511 3150.79 565.93 3151.69 562.526L3153.47 555.515C3154.12 552.975 3154.54 551.097 3154.75 549.882 3154.95 548.666 3155.05 547.68 3155.05 546.923 3155.05 545.059 3154.74 543.715 3154.12 542.891 3153.5 542.067 3152.48 541.655 3151.08 541.655 3149.94 541.655 3148.73 542.08 3147.43 542.931 3146.13 543.782 3144.77 545.106 3143.34 546.903 3141.91 548.7 3140.74 550.469 3139.83 552.212 3138.93 553.955 3138.2 556.082 3137.66 558.595L3133.98 576.305 3126.96 576.305 3131.63 555.718C3132.19 553.205 3132.58 551.347 3132.78 550.145 3132.98 548.943 3133.08 547.909 3133.08 547.045 3133.08 545.099 3132.74 543.715 3132.05 542.891 3131.36 542.067 3130.29 541.655 3128.83 541.655 3127.8 541.655 3126.63 542.08 3125.32 542.931 3124.01 543.782 3122.61 545.147 3121.13 547.024 3119.64 548.902 3118.48 550.706 3117.64 552.435 3116.81 554.164 3116.1 556.271 3115.54 558.757L3111.69 576.305 3104.67 576.305 3110.59 550.611C3111.19 548.017 3111.48 546.018 3111.48 544.613 3111.48 543.532 3111.31 542.749 3110.96 542.262 3110.61 541.776 3110.05 541.533 3109.29 541.533 3108.46 541.533 3107.57 541.877 3106.64 542.566 3105.71 543.255 3104.43 544.505 3102.81 546.315L3100.5 544.046C3102.88 541.56 3104.92 539.743 3106.64 538.595 3108.36 537.446 3110.24 536.872 3112.29 536.872ZM3094.4 518.351 3096.79 518.351 3086.82 563.215C3086.23 565.89 3085.93 567.889 3085.93 569.213 3085.93 570.294 3086.1 571.077 3086.46 571.564 3086.81 572.05 3087.36 572.293 3088.12 572.293 3088.93 572.293 3089.79 571.962 3090.71 571.3 3091.63 570.638 3092.93 569.375 3094.6 567.511L3096.91 569.781C3094.29 572.536 3092.15 574.421 3090.49 575.434 3088.83 576.447 3086.97 576.954 3084.92 576.954 3083.16 576.954 3081.75 576.312 3080.7 575.029 3079.65 573.745 3079.12 572.104 3079.12 570.105 3079.12 568.294 3079.5 565.674 3080.26 562.242L3087.51 529.78C3087.83 528.348 3088.06 527.207 3088.2 526.355 3088.33 525.504 3088.4 524.714 3088.4 523.985 3088.4 523.174 3088.25 522.559 3087.96 522.141 3087.66 521.722 3087.23 521.418 3086.68 521.229 3086.12 521.04 3085.13 520.905 3083.7 520.823L3084.19 518.716Z" fill-rule="evenodd"/><text fill="#000000" fill-opacity="0" font-family="Arial,Arial_MSFontService,sans-serif" font-size="58.6025" x="3079.12" y="569.629">𝑙𝑚</text><path d="M3934.99 1320.82C3932.26 1320.82 3929.63 1322.2 3927.11 1324.96 3924.58 1327.71 3922.64 1331.44 3921.29 1336.14 3925.1 1336.12 3928.37 1335.77 3931.1 1335.11 3933.83 1334.45 3935.92 1333.39 3937.38 1331.95 3938.84 1330.5 3939.57 1328.55 3939.57 1326.09 3939.57 1324.45 3939.18 1323.15 3938.41 1322.22 3937.64 1321.29 3936.5 1320.82 3934.99 1320.82ZM3936.45 1317.62C3939.72 1317.62 3942.17 1318.28 3943.8 1319.61 3945.44 1320.93 3946.26 1323 3946.26 1325.81 3946.26 1330.4 3944.1 1333.85 3939.79 1336.14 3935.48 1338.44 3929.09 1339.59 3920.6 1339.59 3920.28 1341.21 3920.12 1342.97 3920.12 1344.86 3920.12 1347.69 3920.67 1349.75 3921.78 1351.04 3922.88 1352.32 3924.69 1352.96 3927.21 1352.96 3929.69 1352.96 3931.94 1352.42 3933.96 1351.34 3935.97 1350.26 3938.1 1348.6 3940.34 1346.36L3942.85 1348.99C3940.23 1351.88 3937.58 1354.06 3934.89 1355.52 3932.2 1356.97 3929.07 1357.7 3925.51 1357.7 3921.59 1357.7 3918.55 1356.51 3916.41 1354.12 3914.26 1351.73 3913.19 1348.4 3913.19 1344.13 3913.19 1341.24 3913.71 1338.14 3914.75 1334.83 3915.79 1331.52 3917.36 1328.55 3919.47 1325.91 3921.57 1323.28 3924.1 1321.24 3927.05 1319.79 3929.99 1318.35 3933.12 1317.62 3936.45 1317.62ZM3885.11 1305.3C3883.68 1305.3 3882.16 1305.36 3880.57 1305.46L3875.38 1328.93 3880.17 1328.93C3884.08 1328.93 3887.18 1328.4 3889.45 1327.35 3891.72 1326.3 3893.51 1324.57 3894.84 1322.16 3896.16 1319.76 3896.82 1317.16 3896.82 1314.38 3896.82 1313.22 3896.71 1312.19 3896.5 1311.28 3896.28 1310.38 3896 1309.63 3895.65 1309.03 3895.3 1308.44 3894.85 1307.91 3894.31 1307.45 3893.77 1306.99 3893.09 1306.59 3892.28 1306.26 3891.47 1305.92 3890.53 1305.67 3889.47 1305.53 3888.4 1305.38 3886.95 1305.3 3885.11 1305.3ZM3868.86 1301.74 3886.89 1301.74C3889.76 1301.74 3892.09 1301.91 3893.9 1302.24 3895.71 1302.58 3897.26 1303.09 3898.54 1303.76 3899.83 1304.44 3900.9 1305.31 3901.77 1306.38 3902.63 1307.44 3903.28 1308.65 3903.71 1309.98 3904.14 1311.32 3904.36 1312.75 3904.36 1314.26 3904.36 1318.42 3903.09 1321.96 3900.55 1324.88 3898.01 1327.8 3894.27 1330.01 3889.32 1331.52L3889.32 1331.97C3890.62 1332.94 3891.67 1334.1 3892.47 1335.45 3893.26 1336.81 3893.9 1338.68 3894.39 1341.09L3895.32 1345.79C3895.62 1347.28 3895.96 1348.61 3896.34 1349.8 3896.71 1350.99 3897.17 1351.94 3897.69 1352.64 3898.22 1353.34 3898.81 1353.87 3899.48 1354.22 3900.14 1354.57 3901.1 1354.85 3902.37 1355.07L3901.97 1357.06 3890.74 1357.06C3889.88 1354.65 3889.11 1351.79 3888.43 1348.46L3886.65 1339.87C3886.35 1338.39 3885.99 1337.14 3885.58 1336.12 3885.16 1335.11 3884.66 1334.33 3884.08 1333.77 3883.5 1333.22 3882.82 1332.85 3882.05 1332.68 3881.28 1332.5 3880.34 1332.42 3879.23 1332.42L3874.61 1332.42 3871.78 1345.26C3871.53 1346.32 3871.36 1347.15 3871.27 1347.78 3871.17 1348.4 3871.09 1349.05 3871.03 1349.74 3870.96 1350.43 3870.92 1351.04 3870.92 1351.58 3870.92 1352.42 3871.06 1353.08 3871.33 1353.55 3871.6 1354.02 3872.01 1354.37 3872.55 1354.58 3873.09 1354.8 3874.02 1354.96 3875.34 1355.07L3874.9 1357.06 3858.24 1357.06 3858.69 1355.07C3859.71 1354.91 3860.48 1354.64 3861 1354.28 3861.51 1353.92 3861.94 1353.41 3862.29 1352.76 3862.64 1352.11 3862.97 1351.32 3863.27 1350.39 3863.56 1349.46 3864.01 1347.65 3864.6 1344.98L3871.49 1313.77C3872.09 1311.07 3872.38 1308.94 3872.38 1307.37 3872.38 1306.05 3872.07 1305.13 3871.45 1304.61 3870.83 1304.1 3869.82 1303.8 3868.41 1303.72Z" fill-rule="evenodd"/><text fill="#000000" fill-opacity="0" font-family="Arial,Arial_MSFontService,sans-serif" font-size="55.9683" x="3858.24" y="1350.71">𝑅𝑒</text><path d="M3.58579-2.85465 354.909 438.45 347.737 444.16-3.58579 2.85465ZM351.324 441.306 356.372 425.571 362.742 455.649 334.857 442.699Z" fill="#385723" transform="matrix(1 0 0 -1 3216.5 1261.15)"/><rect x="3216.5" y="805.5" width="362" height="455" stroke="#C00000" stroke-width="4.58333" stroke-miterlimit="8" fill="none"/><path d="M3274.26 1190.52C3305.35 1191.4 3330.04 1224.14 3329.49 1263.77" stroke="#C00000" stroke-width="4.58333" stroke-miterlimit="8" fill="none" fill-rule="evenodd"/><path d="M3368.47 1180.98C3363.68 1181.22 3359.54 1183.29 3356.04 1187.18 3352.54 1191.07 3350.8 1195.87 3350.8 1201.57 3350.8 1205.08 3351.73 1208.03 3353.59 1210.4 3355.46 1212.78 3357.96 1214.12 3361.09 1214.42ZM3374.87 1180.9 3367.49 1214.37C3370.79 1214.24 3373.79 1213.25 3376.49 1211.42 3379.19 1209.58 3381.31 1207.09 3382.85 1203.96 3384.39 1200.82 3385.16 1197.42 3385.16 1193.75 3385.16 1191.58 3384.78 1189.57 3384.03 1187.71 3383.27 1185.84 3382.1 1184.3 3380.52 1183.07 3378.94 1181.84 3377.06 1181.12 3374.87 1180.9ZM3373 1160.27 3379.41 1160.27 3375.6 1177.66C3381.06 1178.06 3385.21 1179.66 3388.06 1182.44 3390.91 1185.22 3392.34 1188.99 3392.34 1193.75 3392.34 1197.34 3391.7 1200.6 3390.43 1203.53 3389.16 1206.47 3387.3 1209.03 3384.84 1211.23 3382.38 1213.44 3379.75 1215.06 3376.96 1216.1 3374.16 1217.14 3370.75 1217.66 3366.72 1217.66L3363.03 1234.52 3356.63 1234.52 3360.32 1217.66C3354.97 1217.25 3350.86 1215.65 3347.98 1212.85 3345.1 1210.06 3343.66 1206.27 3343.66 1201.49 3343.66 1197.41 3344.72 1193.55 3346.84 1189.92 3348.96 1186.28 3351.91 1183.35 3355.68 1181.12 3359.45 1178.89 3363.97 1177.74 3369.24 1177.66Z" fill-rule="evenodd"/><text fill="#000000" fill-opacity="0" font-family="Arial,Arial_MSFontService,sans-serif" font-size="74.2461" x="3343.66" y="1225.24">𝜙</text><path d="M3635.03 1078.12 3637.5 1078.12 3637.5 1107.1C3637.5 1109.42 3637.61 1111.03 3637.83 1111.94 3638.04 1112.84 3638.46 1113.53 3639.06 1114.01 3639.67 1114.48 3640.67 1114.89 3642.04 1115.24L3642.04 1117.23 3626.16 1117.23 3626.16 1115.24C3627.21 1114.92 3627.96 1114.63 3628.41 1114.39 3628.85 1114.15 3629.23 1113.81 3629.54 1113.38 3629.85 1112.94 3630.09 1112.28 3630.27 1111.39 3630.45 1110.5 3630.53 1109.11 3630.53 1107.22L3630.53 1089.55C3630.53 1087.82 3630.51 1086.43 3630.45 1085.37 3630.4 1084.32 3630.21 1083.47 3629.88 1082.84 3629.56 1082.2 3629.07 1081.73 3628.41 1081.42 3627.74 1081.11 3626.8 1080.85 3625.59 1080.63L3625.59 1078.48ZM3672.23 1077.83C3673.69 1077.83 3674.99 1078 3676.14 1078.34 3677.29 1078.68 3678.3 1079.2 3679.18 1079.9 3680.06 1080.6 3680.78 1081.48 3681.35 1082.52 3681.92 1083.56 3682.34 1084.81 3682.62 1086.26 3682.91 1087.72 3683.05 1089.57 3683.05 1091.82L3683.05 1107.1C3683.05 1108.96 3683.1 1110.31 3683.21 1111.15 3683.32 1111.99 3683.51 1112.63 3683.78 1113.09 3684.05 1113.55 3684.44 1113.94 3684.96 1114.25 3685.47 1114.56 3686.36 1114.89 3687.63 1115.24L3687.63 1117.23 3671.66 1117.23 3671.66 1115.24C3672.72 1114.92 3673.47 1114.63 3673.93 1114.39 3674.39 1114.15 3674.78 1113.81 3675.09 1113.38 3675.4 1112.94 3675.64 1112.28 3675.82 1111.37 3675.99 1110.47 3676.08 1109.09 3676.08 1107.26L3676.08 1096.64C3676.08 1094.75 3676.03 1093.03 3675.92 1091.49 3675.81 1089.95 3675.63 1088.69 3675.37 1087.7 3675.11 1086.72 3674.8 1085.95 3674.44 1085.39 3674.07 1084.84 3673.64 1084.37 3673.14 1083.97 3672.64 1083.58 3672.07 1083.27 3671.42 1083.04 3670.77 1082.81 3669.92 1082.7 3668.87 1082.7 3667.81 1082.7 3666.81 1082.91 3665.87 1083.33 3664.92 1083.74 3663.88 1084.47 3662.75 1085.49 3661.61 1086.52 3660.79 1087.53 3660.27 1088.53 3659.76 1089.53 3659.5 1090.68 3659.5 1091.98L3659.5 1107.1C3659.5 1109.42 3659.61 1111.03 3659.83 1111.94 3660.04 1112.84 3660.46 1113.53 3661.06 1114.01 3661.67 1114.48 3662.67 1114.89 3664.04 1115.24L3664.04 1117.23 3648.16 1117.23 3648.16 1115.24C3649.21 1114.92 3649.96 1114.63 3650.41 1114.39 3650.85 1114.15 3651.23 1113.81 3651.54 1113.38 3651.85 1112.94 3652.09 1112.28 3652.27 1111.39 3652.45 1110.5 3652.53 1109.11 3652.53 1107.22L3652.53 1089.55C3652.53 1087.82 3652.51 1086.43 3652.45 1085.37 3652.4 1084.32 3652.21 1083.47 3651.88 1082.84 3651.56 1082.2 3651.07 1081.73 3650.41 1081.42 3649.74 1081.11 3648.8 1080.85 3647.59 1080.63L3647.59 1078.48 3657.07 1078.12 3659.54 1078.12 3659.1 1084.72 3659.67 1084.89C3661.67 1082.86 3663.28 1081.41 3664.51 1080.55 3665.74 1079.69 3666.98 1079.02 3668.24 1078.54 3669.49 1078.07 3670.82 1077.83 3672.23 1077.83ZM3605.88 1077.79C3607.66 1077.79 3609.39 1077.88 3611.05 1078.06 3612.71 1078.23 3614.8 1078.58 3617.31 1079.09L3617.31 1087.36 3613.42 1087.36C3612.82 1085.74 3612.12 1084.46 3611.31 1083.53 3610.5 1082.6 3609.58 1081.94 3608.56 1081.56 3607.53 1081.18 3606.27 1081 3604.79 1081 3602.63 1081 3600.9 1081.5 3599.62 1082.52 3598.34 1083.53 3597.69 1084.91 3597.69 1086.67 3597.69 1087.91 3597.95 1088.94 3598.46 1089.75 3598.98 1090.56 3599.77 1091.32 3600.86 1092.02 3601.94 1092.72 3603.84 1093.65 3606.57 1094.82 3609.33 1096 3611.45 1097.1 3612.95 1098.1 3614.45 1099.1 3615.63 1100.26 3616.48 1101.58 3617.33 1102.91 3617.76 1104.49 3617.76 1106.33 3617.76 1108.46 3617.39 1110.26 3616.66 1111.72 3615.93 1113.17 3614.91 1114.36 3613.58 1115.28 3612.26 1116.2 3610.68 1116.86 3608.86 1117.27 3607.04 1117.67 3605.04 1117.88 3602.88 1117.88 3600.61 1117.88 3598.41 1117.71 3596.28 1117.37 3594.14 1117.03 3592.06 1116.59 3590.03 1116.05L3590.03 1107.58 3594.01 1107.58C3594.74 1110.07 3595.82 1111.87 3597.25 1112.99 3598.68 1114.11 3600.65 1114.67 3603.17 1114.67 3604.14 1114.67 3605.09 1114.57 3606.02 1114.37 3606.95 1114.17 3607.79 1113.83 3608.52 1113.36 3609.24 1112.88 3609.83 1112.24 3610.26 1111.43 3610.69 1110.62 3610.91 1109.61 3610.91 1108.39 3610.91 1107.01 3610.64 1105.89 3610.1 1105.03 3609.56 1104.16 3608.72 1103.37 3607.58 1102.66 3606.45 1101.94 3604.45 1100.98 3601.58 1099.76 3599.13 1098.73 3597.15 1097.73 3595.67 1096.76 3594.18 1095.79 3593.01 1094.64 3592.16 1093.32 3591.31 1091.99 3590.89 1090.43 3590.89 1088.61 3590.89 1086.4 3591.49 1084.47 3592.69 1082.84 3593.89 1081.21 3595.63 1079.96 3597.9 1079.09 3600.17 1078.23 3602.83 1077.79 3605.88 1077.79ZM3630.29 1062.6 3637.75 1062.6 3637.75 1070.46 3630.29 1070.46Z" fill-rule="evenodd"/><text fill="#000000" fill-opacity="0" font-family="Arial,Arial_MSFontService,sans-serif" font-size="55.2793" x="3590.03" y="1110.97">sin</text><path d="M3733.06 1081.12C3728.28 1081.36 3724.14 1083.43 3720.64 1087.32 3717.14 1091.21 3715.39 1096 3715.39 1101.71 3715.39 1105.22 3716.32 1108.16 3718.19 1110.54 3720.05 1112.92 3722.55 1114.26 3725.68 1114.55ZM3739.46 1081.04 3732.09 1114.51C3735.38 1114.38 3738.38 1113.39 3741.09 1111.55 3743.79 1109.72 3745.91 1107.23 3747.45 1104.1 3748.99 1100.96 3749.76 1097.56 3749.76 1093.88 3749.76 1091.72 3749.38 1089.71 3748.62 1087.84 3747.87 1085.98 3746.7 1084.43 3745.12 1083.2 3743.54 1081.98 3741.65 1081.25 3739.46 1081.04ZM3737.6 1060.41 3744 1060.41 3740.19 1077.79C3745.65 1078.2 3749.81 1079.79 3752.66 1082.58 3755.51 1085.36 3756.93 1089.13 3756.93 1093.88 3756.93 1097.48 3756.3 1100.74 3755.03 1103.67 3753.76 1106.6 3751.89 1109.17 3749.43 1111.37 3746.98 1113.57 3744.35 1115.19 3741.55 1116.23 3738.75 1117.27 3735.34 1117.79 3731.32 1117.79L3727.63 1134.65 3721.23 1134.65 3724.91 1117.79C3719.57 1117.39 3715.45 1115.79 3712.57 1112.99 3709.7 1110.2 3708.26 1106.41 3708.26 1101.62 3708.26 1097.54 3709.32 1093.69 3711.44 1090.05 3713.56 1086.42 3716.51 1083.49 3720.27 1081.26 3724.04 1079.03 3728.56 1077.88 3733.83 1077.79Z" fill-rule="evenodd"/><text fill="#000000" fill-opacity="0" font-family="Arial,Arial_MSFontService,sans-serif" font-size="74.2461" x="3708.26" y="1125.37">𝜙</text><path d="M3342.32 739.428C3339.05 739.428 3336.54 740.847 3334.8 743.684 3333.05 746.521 3332.18 750.56 3332.18 755.801 3332.18 761.367 3333.07 765.643 3334.84 768.628 3336.61 771.614 3339.14 773.107 3342.44 773.107 3344.25 773.107 3345.79 772.668 3347.06 771.789 3348.33 770.911 3349.36 769.729 3350.16 768.243 3350.95 766.757 3351.53 765.035 3351.88 763.076 3352.23 761.117 3352.41 759.071 3352.41 756.936 3352.41 752.965 3351.97 749.668 3351.09 747.048 3350.21 744.427 3349.02 742.502 3347.5 741.272 3345.99 740.043 3344.26 739.428 3342.32 739.428ZM3383.92 736.227C3385.71 736.227 3387.43 736.315 3389.09 736.49 3390.75 736.666 3392.84 737.01 3395.35 737.524L3395.35 745.791 3391.46 745.791C3390.87 744.17 3390.17 742.893 3389.35 741.961 3388.54 741.029 3387.63 740.374 3386.6 739.996 3385.57 739.618 3384.32 739.428 3382.83 739.428 3380.67 739.428 3378.95 739.935 3377.66 740.948 3376.38 741.961 3375.74 743.346 3375.74 745.102 3375.74 746.345 3375.99 747.372 3376.51 748.182 3377.02 748.993 3377.82 749.749 3378.9 750.452 3379.98 751.154 3381.88 752.086 3384.61 753.248 3387.37 754.437 3389.5 755.531 3391 756.531 3392.5 757.531 3393.67 758.692 3394.52 760.016 3395.37 761.34 3395.8 762.921 3395.8 764.758 3395.8 766.892 3395.43 768.689 3394.7 770.148 3393.98 771.607 3392.95 772.796 3391.62 773.715 3390.3 774.633 3388.73 775.295 3386.9 775.7 3385.08 776.106 3383.09 776.308 3380.93 776.308 3378.66 776.308 3376.45 776.139 3374.32 775.802 3372.18 775.464 3370.1 775.025 3368.08 774.485L3368.08 766.014 3372.05 766.014C3372.78 768.5 3373.86 770.303 3375.29 771.425 3376.72 772.546 3378.7 773.107 3381.21 773.107 3382.18 773.107 3383.13 773.005 3384.07 772.803 3385 772.6 3385.83 772.262 3386.56 771.789 3387.29 771.317 3387.87 770.675 3388.3 769.864 3388.73 769.054 3388.95 768.041 3388.95 766.825 3388.95 765.447 3388.68 764.326 3388.14 763.461 3387.6 762.597 3386.76 761.806 3385.63 761.09 3384.49 760.374 3382.49 759.408 3379.63 758.193 3377.17 757.166 3375.2 756.166 3373.71 755.194 3372.23 754.221 3371.06 753.073 3370.21 751.749 3369.35 750.425 3368.93 748.858 3368.93 747.048 3368.93 744.832 3369.53 742.907 3370.73 741.272 3371.94 739.638 3373.67 738.388 3375.94 737.524 3378.21 736.659 3380.87 736.227 3383.92 736.227ZM3342.48 736.227C3348.26 736.227 3352.64 737.909 3355.61 741.272 3358.58 744.636 3360.07 749.466 3360.07 755.761 3360.07 760.246 3359.32 764.029 3357.84 767.109 3356.35 770.189 3354.24 772.492 3351.52 774.018 3348.79 775.545 3345.56 776.308 3341.83 776.308 3336.21 776.308 3331.92 774.653 3328.96 771.344 3326 768.034 3324.52 763.137 3324.52 756.653 3324.52 752.195 3325.3 748.425 3326.85 745.345 3328.41 742.265 3330.54 739.976 3333.24 738.476 3335.94 736.977 3339.02 736.227 3342.48 736.227ZM3306.6 736.227C3308.81 736.227 3310.86 736.355 3312.74 736.612 3314.62 736.868 3316.5 737.28 3318.39 737.848L3318.39 746.318 3313.25 746.318C3312.79 744.562 3312.22 743.177 3311.54 742.164 3310.87 741.151 3310.08 740.442 3309.19 740.036 3308.3 739.631 3307.19 739.428 3305.87 739.428 3303.98 739.428 3302.3 740.036 3300.84 741.252 3299.39 742.468 3298.23 744.319 3297.38 746.804 3296.53 749.29 3296.1 752.33 3296.1 755.923 3296.1 758.22 3296.26 760.32 3296.59 762.225 3296.91 764.13 3297.47 765.758 3298.25 767.109 3299.03 768.459 3300.07 769.513 3301.37 770.27 3302.67 771.026 3304.28 771.404 3306.19 771.404 3308.06 771.404 3309.79 771.04 3311.4 770.31 3313.01 769.581 3314.68 768.297 3316.41 766.46L3318.72 769.135C3317.34 770.648 3316.12 771.817 3315.07 772.641 3314.02 773.465 3312.89 774.154 3311.69 774.707 3310.48 775.261 3309.29 775.667 3308.12 775.923 3306.94 776.18 3305.67 776.308 3304.29 776.308 3299.18 776.308 3295.28 774.613 3292.58 771.222 3289.87 767.831 3288.52 762.934 3288.52 756.531 3288.52 752.532 3289.28 748.986 3290.79 745.893 3292.31 742.799 3294.43 740.415 3297.16 738.739 3299.89 737.064 3303.03 736.227 3306.6 736.227Z" fill-rule="evenodd"/><text fill="#000000" fill-opacity="0" font-family="Arial,Arial_MSFontService,sans-serif" font-size="40.0815" x="3288.52" y="771.298">cos</text><path d="M3441.99 739.55C3437.21 739.793 3433.07 741.86 3429.57 745.751 3426.07 749.641 3424.32 754.437 3424.32 760.138 3424.32 763.65 3425.25 766.595 3427.12 768.973 3428.98 771.35 3431.48 772.688 3434.61 772.985ZM3448.39 739.469 3441.02 772.945C3444.31 772.809 3447.31 771.823 3450.01 769.986 3452.72 768.149 3454.84 765.663 3456.38 762.529 3457.92 759.395 3458.69 755.991 3458.69 752.316 3458.69 750.155 3458.31 748.142 3457.55 746.278 3456.8 744.413 3455.63 742.866 3454.05 741.637 3452.47 740.408 3450.58 739.685 3448.39 739.469ZM3446.53 718.841 3452.93 718.841 3449.12 736.227C3454.58 736.632 3458.73 738.226 3461.58 741.009 3464.44 743.792 3465.86 747.561 3465.86 752.316 3465.86 755.91 3465.23 759.172 3463.96 762.103 3462.69 765.035 3460.82 767.602 3458.36 769.804 3455.9 772.006 3453.28 773.627 3450.48 774.667 3447.68 775.707 3444.27 776.227 3440.25 776.227L3436.56 793.087 3430.16 793.087 3433.84 776.227C3428.49 775.822 3424.38 774.221 3421.5 771.425 3418.63 768.628 3417.19 764.839 3417.19 760.057 3417.19 755.977 3418.25 752.12 3420.37 748.486 3422.49 744.852 3425.43 741.921 3429.2 739.692 3432.97 737.463 3437.49 736.308 3442.76 736.227Z" fill-rule="evenodd"/><text fill="#000000" fill-opacity="0" font-family="Arial,Arial_MSFontService,sans-serif" font-size="74.2461" x="3417.19" y="783.806">𝜙</text><path d="M3313.03 620.747C3310.3 620.747 3307.68 622.125 3305.15 624.881 3302.62 627.637 3300.68 631.365 3299.33 636.066 3303.14 636.039 3306.41 635.695 3309.14 635.033 3311.87 634.371 3313.96 633.317 3315.42 631.872 3316.88 630.426 3317.61 628.474 3317.61 626.016 3317.61 624.368 3317.23 623.077 3316.46 622.145 3315.69 621.213 3314.54 620.747 3313.03 620.747ZM3314.49 617.545C3317.76 617.545 3320.21 618.207 3321.85 619.531 3323.48 620.855 3324.3 622.922 3324.3 625.732 3324.3 630.325 3322.14 633.77 3317.83 636.066 3313.52 638.363 3307.13 639.511 3298.64 639.511 3298.32 641.132 3298.16 642.889 3298.16 644.78 3298.16 647.617 3298.71 649.677 3299.82 650.96 3300.93 652.244 3302.74 652.885 3305.25 652.885 3307.74 652.885 3309.99 652.345 3312 651.264 3314.01 650.183 3316.14 648.522 3318.38 646.279L3320.89 648.914C3318.27 651.805 3315.62 653.98 3312.93 655.439 3310.24 656.898 3307.11 657.627 3303.55 657.627 3299.63 657.627 3296.6 656.431 3294.45 654.04 3292.3 651.649 3291.23 648.319 3291.23 644.05 3291.23 641.159 3291.75 638.059 3292.79 634.749 3293.83 631.44 3295.4 628.468 3297.51 625.833 3299.62 623.199 3302.14 621.159 3305.09 619.714 3308.03 618.268 3311.17 617.545 3314.49 617.545Z" fill-rule="evenodd"/><text fill="#000000" fill-opacity="0" font-family="Arial,Arial_MSFontService,sans-serif" font-size="40.0815" x="3291.23" y="652.617">𝑒</text><path d="M3346.37 596.662 3347.83 596.662 3343.42 616.499C3343.14 617.67 3342.95 618.603 3342.84 619.298 3342.73 619.993 3342.68 620.619 3342.68 621.175 3342.68 621.929 3342.83 622.475 3343.14 622.813 3343.45 623.151 3343.91 623.319 3344.52 623.319 3344.88 623.319 3345.24 623.25 3345.59 623.111 3345.95 622.972 3346.33 622.753 3346.74 622.456 3347.15 622.158 3347.6 621.775 3348.08 621.309 3348.57 620.842 3349.11 620.281 3349.71 619.626L3351.73 621.592C3350.7 622.644 3349.76 623.533 3348.92 624.258 3348.07 624.982 3347.27 625.573 3346.52 626.03 3345.76 626.487 3345.02 626.814 3344.3 627.013 3343.57 627.211 3342.8 627.311 3341.99 627.311 3341.24 627.311 3340.56 627.172 3339.95 626.894 3339.34 626.616 3338.82 626.233 3338.39 625.747 3337.95 625.26 3337.61 624.68 3337.37 624.004 3337.14 623.329 3337.02 622.585 3337.02 621.771 3337.02 621.115 3337.1 620.301 3337.25 619.328 3337.41 618.355 3337.62 617.298 3337.87 616.156 3338.11 615.014 3338.39 613.818 3338.68 612.567 3338.98 611.316 3339.28 610.075 3339.56 608.844 3339.85 607.613 3340.11 606.426 3340.34 605.284 3340.57 604.143 3340.73 603.105 3340.83 602.172 3340.87 602.013 3340.89 601.859 3340.89 601.71 3340.89 601.561 3340.89 601.427 3340.89 601.308 3340.85 600.534 3340.58 599.968 3340.07 599.61 3339.56 599.253 3338.66 599.054 3337.37 599.015L3337.73 596.989ZM3344.64 584.658 3350.6 584.658 3349.14 591.062 3343.24 591.062Z" fill-rule="evenodd"/><text fill="#000000" fill-opacity="0" font-family="Arial,Arial_MSFontService,sans-serif" font-size="42.6523" x="3337.02" y="621.979">𝑖</text><path d="M3381.98 599.64 3376.56 624.243C3378.65 624.064 3380.52 623.582 3382.19 622.798 3383.86 622.014 3385.27 620.966 3386.44 619.656 3387.6 618.345 3388.49 616.796 3389.12 615.009 3389.74 613.222 3390.05 611.237 3390.05 609.052 3390.05 607.762 3389.89 606.565 3389.55 605.463 3389.21 604.361 3388.7 603.398 3388.03 602.574 3387.35 601.75 3386.51 601.085 3385.5 600.578 3384.49 600.072 3383.31 599.759 3381.98 599.64ZM3376.62 599.491C3374.66 599.67 3372.84 600.161 3371.19 600.966 3369.53 601.77 3368.1 602.837 3366.9 604.167 3365.7 605.498 3364.76 607.062 3364.08 608.859 3363.41 610.656 3363.07 612.626 3363.07 614.771 3363.07 616.121 3363.25 617.342 3363.62 618.435 3363.99 619.527 3364.52 620.475 3365.23 621.279 3365.93 622.083 3366.78 622.734 3367.78 623.23 3368.77 623.726 3369.89 624.044 3371.14 624.183ZM3380.08 584.033 3385.5 584.033 3382.67 596.662C3384.91 596.82 3386.88 597.237 3388.57 597.913 3390.25 598.588 3391.66 599.471 3392.8 600.563 3393.93 601.656 3394.78 602.931 3395.34 604.391 3395.91 605.85 3396.19 607.444 3396.19 609.171 3396.19 611.792 3395.67 614.205 3394.64 616.409 3393.61 618.613 3392.18 620.52 3390.37 622.128 3388.55 623.736 3386.41 624.987 3383.95 625.881 3381.49 626.774 3378.83 627.211 3375.97 627.191L3373.26 639.522 3367.75 639.522 3370.52 627.132C3368.37 626.993 3366.46 626.596 3364.78 625.94 3363.1 625.285 3361.68 624.416 3360.52 623.334 3359.36 622.252 3358.48 620.971 3357.87 619.492 3357.27 618.013 3356.96 616.369 3356.96 614.562 3356.96 612.974 3357.19 611.43 3357.65 609.931 3358.11 608.432 3358.76 607.022 3359.6 605.701 3360.44 604.381 3361.47 603.165 3362.67 602.053 3363.87 600.941 3365.22 599.983 3366.72 599.178 3368.22 598.374 3369.86 597.744 3371.63 597.287 3373.41 596.83 3375.28 596.582 3377.25 596.542Z" fill-rule="evenodd"/><text fill="#000000" fill-opacity="0" font-family="Arial,Arial_MSFontService,sans-serif" font-size="55.4897" x="3356.96" y="632.586">𝜙</text><path d="M3432.76 638.984 3482.69 638.984 3482.69 644.375 3432.76 644.375ZM3432.76 622.166 3482.69 622.166 3482.69 627.556 3432.76 627.556Z" fill-rule="evenodd"/><text fill="#000000" fill-opacity="0" font-family="Arial,Arial_MSFontService,sans-serif" font-size="22.209" x="3432.76" y="641.598">=</text><path d="M3569.56 620.747C3566.29 620.747 3563.78 622.166 3562.04 625.003 3560.3 627.839 3559.42 631.879 3559.42 637.12 3559.42 642.686 3560.31 646.962 3562.08 649.947 3563.85 652.933 3566.38 654.425 3569.68 654.425 3571.49 654.425 3573.03 653.986 3574.3 653.108 3575.57 652.23 3576.6 651.048 3577.4 649.562 3578.2 648.076 3578.77 646.354 3579.12 644.395 3579.47 642.436 3579.65 640.389 3579.65 638.255 3579.65 634.283 3579.21 630.987 3578.33 628.366 3577.45 625.745 3576.26 623.82 3574.74 622.591 3573.23 621.362 3571.5 620.747 3569.56 620.747ZM3611.17 617.545C3612.95 617.545 3614.67 617.633 3616.33 617.809 3617.99 617.984 3620.08 618.329 3622.59 618.842L3622.59 627.11 3618.7 627.11C3618.11 625.489 3617.41 624.212 3616.6 623.28 3615.79 622.348 3614.87 621.693 3613.84 621.315 3612.81 620.936 3611.56 620.747 3610.07 620.747 3607.91 620.747 3606.19 621.254 3604.9 622.267 3603.62 623.28 3602.98 624.665 3602.98 626.421 3602.98 627.664 3603.24 628.69 3603.75 629.501 3604.26 630.312 3605.06 631.068 3606.14 631.771 3607.22 632.473 3609.13 633.405 3611.85 634.567 3614.61 635.756 3616.74 636.85 3618.24 637.85 3619.74 638.849 3620.91 640.011 3621.76 641.335 3622.61 642.659 3623.04 644.24 3623.04 646.077 3623.04 648.211 3622.68 650.008 3621.95 651.467 3621.22 652.926 3620.19 654.115 3618.87 655.033 3617.54 655.952 3615.97 656.614 3614.14 657.019 3612.32 657.424 3610.33 657.627 3608.17 657.627 3605.9 657.627 3603.7 657.458 3601.56 657.12 3599.43 656.783 3597.35 656.344 3595.32 655.803L3595.32 647.333 3599.29 647.333C3600.02 649.819 3601.1 651.622 3602.53 652.743 3603.97 653.865 3605.94 654.425 3608.45 654.425 3609.42 654.425 3610.38 654.324 3611.31 654.121 3612.24 653.919 3613.07 653.581 3613.8 653.108 3614.53 652.635 3615.11 651.994 3615.54 651.183 3615.97 650.373 3616.19 649.359 3616.19 648.144 3616.19 646.766 3615.92 645.644 3615.38 644.78 3614.84 643.915 3614 643.125 3612.87 642.409 3611.73 641.693 3609.73 640.727 3606.87 639.511 3604.41 638.485 3602.44 637.485 3600.95 636.512 3599.47 635.54 3598.3 634.391 3597.45 633.067 3596.6 631.744 3596.17 630.177 3596.17 628.366 3596.17 626.151 3596.77 624.226 3597.97 622.591 3599.18 620.957 3600.91 619.707 3603.18 618.842 3605.45 617.978 3608.11 617.545 3611.17 617.545ZM3569.72 617.545C3575.5 617.545 3579.88 619.227 3582.85 622.591 3585.82 625.955 3587.31 630.784 3587.31 637.08 3587.31 641.565 3586.56 645.347 3585.08 648.427 3583.59 651.507 3581.49 653.811 3578.76 655.337 3576.03 656.864 3572.8 657.627 3569.07 657.627 3563.45 657.627 3559.16 655.972 3556.2 652.662 3553.24 649.353 3551.77 644.456 3551.77 637.971 3551.77 633.513 3552.54 629.744 3554.1 626.664 3555.65 623.584 3557.78 621.294 3560.48 619.795 3563.18 618.295 3566.26 617.545 3569.72 617.545ZM3533.84 617.545C3536.06 617.545 3538.1 617.674 3539.98 617.93 3541.86 618.187 3543.74 618.599 3545.63 619.167L3545.63 627.637 3540.49 627.637C3540.03 625.881 3539.46 624.496 3538.78 623.483 3538.11 622.47 3537.33 621.76 3536.43 621.355 3535.54 620.95 3534.43 620.747 3533.11 620.747 3531.22 620.747 3529.54 621.355 3528.09 622.571 3526.63 623.787 3525.47 625.637 3524.62 628.123 3523.77 630.609 3523.34 633.648 3523.34 637.242 3523.34 639.538 3523.51 641.639 3523.83 643.544 3524.15 645.449 3524.71 647.076 3525.49 648.427 3526.28 649.778 3527.32 650.832 3528.61 651.588 3529.91 652.345 3531.52 652.723 3533.44 652.723 3535.3 652.723 3537.04 652.358 3538.64 651.629 3540.25 650.899 3541.92 649.616 3543.65 647.779L3545.96 650.454C3544.58 651.967 3543.36 653.135 3542.31 653.959 3541.26 654.783 3540.13 655.472 3538.93 656.026 3537.72 656.58 3536.54 656.985 3535.36 657.242 3534.18 657.499 3532.91 657.627 3531.53 657.627 3526.42 657.627 3522.52 655.932 3519.82 652.541 3517.12 649.15 3515.77 644.253 3515.77 637.85 3515.77 633.851 3516.52 630.305 3518.03 627.211 3519.55 624.118 3521.67 621.733 3524.4 620.058 3527.13 618.383 3530.27 617.545 3533.84 617.545Z" fill-rule="evenodd"/><text fill="#000000" fill-opacity="0" font-family="Arial,Arial_MSFontService,sans-serif" font-size="40.0815" x="3515.77" y="652.617">cos</text><path d="M3669.23 620.869C3664.45 621.112 3660.31 623.179 3656.81 627.069 3653.31 630.96 3651.56 635.756 3651.56 641.457 3651.56 644.969 3652.49 647.914 3654.36 650.292 3656.22 652.669 3658.72 654.007 3661.85 654.304ZM3675.63 620.788 3668.26 654.263C3671.55 654.128 3674.55 653.142 3677.26 651.305 3679.96 649.468 3682.08 646.982 3683.62 643.848 3685.16 640.714 3685.93 637.309 3685.93 633.635 3685.93 631.473 3685.55 629.461 3684.79 627.596 3684.04 625.732 3682.87 624.185 3681.29 622.956 3679.71 621.727 3677.82 621.004 3675.63 620.788ZM3673.77 600.159 3680.17 600.159 3676.36 617.545C3681.82 617.951 3685.98 619.545 3688.83 622.328 3691.68 625.111 3693.1 628.88 3693.1 633.635 3693.1 637.228 3692.47 640.491 3691.2 643.422 3689.93 646.354 3688.06 648.92 3685.6 651.122 3683.15 653.324 3680.52 654.945 3677.72 655.986 3674.93 657.026 3671.51 657.546 3667.49 657.546L3663.8 674.405 3657.4 674.405 3661.08 657.546C3655.74 657.141 3651.62 655.54 3648.74 652.743 3645.87 649.947 3644.43 646.158 3644.43 641.376 3644.43 637.296 3645.49 633.439 3647.61 629.805 3649.73 626.171 3652.68 623.24 3656.44 621.011 3660.21 618.782 3664.73 617.627 3670 617.545Z" fill-rule="evenodd"/><text fill="#000000" fill-opacity="0" font-family="Arial,Arial_MSFontService,sans-serif" font-size="74.2461" x="3644.43" y="665.125">𝜙</text><path d="M3744.79 607.211 3750.54 607.211 3750.54 630.555 3772.63 630.555 3772.63 635.945 3750.54 635.945 3750.54 659.289 3744.79 659.289 3744.79 635.945 3722.7 635.945 3722.7 630.555 3744.79 630.555Z" fill-rule="evenodd"/><text fill="#000000" fill-opacity="0" font-family="Arial,Arial_MSFontService,sans-serif" font-size="52.0776" x="3722.7" y="652.779">+</text><path d="M3813.69 617.87 3816.08 617.87 3810.24 643.888C3809.65 646.536 3809.35 648.535 3809.35 649.886 3809.35 650.967 3809.53 651.751 3809.88 652.237 3810.23 652.723 3810.78 652.966 3811.54 652.966 3812.35 652.966 3813.21 652.635 3814.13 651.973 3815.05 651.312 3816.35 650.048 3818.02 648.184L3820.33 650.454C3817.69 653.237 3815.54 655.128 3813.89 656.128 3812.24 657.127 3810.39 657.627 3808.34 657.627 3806.58 657.627 3805.18 656.985 3804.12 655.702 3803.07 654.419 3802.54 652.777 3802.54 650.778 3802.54 648.724 3802.92 646.104 3803.68 642.916L3806.72 629.663C3807.34 626.961 3807.65 624.935 3807.65 623.584 3807.65 622.368 3807.36 621.544 3806.78 621.112 3806.2 620.68 3805.05 620.436 3803.35 620.382L3803.8 618.234ZM3812.59 602.348 3819.77 602.348 3817.9 610.21 3810.73 610.21Z" fill-rule="evenodd"/><text fill="#000000" fill-opacity="0" font-family="Arial,Arial_MSFontService,sans-serif" font-size="55.2793" x="3802.54" y="650.717">𝑖</text><path d="M3888.39 617.87 3890.86 617.87 3890.86 646.847C3890.86 649.17 3890.97 650.785 3891.19 651.69 3891.4 652.595 3891.82 653.284 3892.42 653.757 3893.03 654.229 3894.02 654.641 3895.4 654.993L3895.4 656.979 3879.52 656.979 3879.52 654.993C3880.57 654.669 3881.32 654.385 3881.77 654.142 3882.21 653.898 3882.59 653.561 3882.9 653.128 3883.21 652.696 3883.45 652.034 3883.63 651.143 3883.8 650.251 3883.89 648.86 3883.89 646.968L3883.89 629.298C3883.89 627.569 3883.87 626.178 3883.81 625.124 3883.76 624.07 3883.57 623.226 3883.24 622.591 3882.92 621.956 3882.43 621.483 3881.77 621.173 3881.1 620.862 3880.16 620.599 3878.95 620.382L3878.95 618.234ZM3925.59 617.586C3927.05 617.586 3928.35 617.755 3929.5 618.093 3930.65 618.43 3931.66 618.95 3932.54 619.653 3933.42 620.355 3934.14 621.227 3934.71 622.267 3935.28 623.307 3935.7 624.557 3935.98 626.016 3936.27 627.475 3936.41 629.325 3936.41 631.568L3936.41 646.847C3936.41 648.711 3936.46 650.062 3936.57 650.899 3936.68 651.737 3936.87 652.385 3937.14 652.845 3937.41 653.304 3937.8 653.689 3938.31 654 3938.83 654.311 3939.72 654.641 3940.99 654.993L3940.99 656.979 3925.02 656.979 3925.02 654.993C3926.08 654.669 3926.83 654.385 3927.29 654.142 3927.75 653.898 3928.14 653.561 3928.45 653.128 3928.76 652.696 3929 652.027 3929.18 651.122 3929.35 650.217 3929.44 648.846 3929.44 647.009L3929.44 636.391C3929.44 634.499 3929.39 632.784 3929.28 631.244 3929.17 629.704 3928.99 628.441 3928.73 627.454 3928.47 626.468 3928.16 625.698 3927.8 625.144 3927.43 624.59 3927 624.118 3926.5 623.726 3926 623.334 3925.43 623.023 3924.78 622.794 3924.13 622.564 3923.28 622.449 3922.23 622.449 3921.17 622.449 3920.17 622.659 3919.23 623.077 3918.28 623.496 3917.24 624.219 3916.11 625.246 3914.97 626.272 3914.15 627.286 3913.63 628.285 3913.12 629.285 3912.86 630.433 3912.86 631.73L3912.86 646.847C3912.86 649.17 3912.97 650.785 3913.19 651.69 3913.4 652.595 3913.82 653.284 3914.42 653.757 3915.03 654.229 3916.02 654.641 3917.4 654.993L3917.4 656.979 3901.52 656.979 3901.52 654.993C3902.57 654.669 3903.32 654.385 3903.77 654.142 3904.21 653.898 3904.59 653.561 3904.9 653.128 3905.21 652.696 3905.45 652.034 3905.63 651.143 3905.8 650.251 3905.89 648.86 3905.89 646.968L3905.89 629.298C3905.89 627.569 3905.87 626.178 3905.81 625.124 3905.76 624.07 3905.57 623.226 3905.24 622.591 3904.92 621.956 3904.43 621.483 3903.77 621.173 3903.1 620.862 3902.16 620.599 3900.95 620.382L3900.95 618.234 3910.43 617.87 3912.9 617.87 3912.46 624.476 3913.03 624.638C3915.02 622.611 3916.64 621.166 3917.87 620.301 3919.1 619.437 3920.34 618.768 3921.6 618.295 3922.85 617.822 3924.18 617.586 3925.59 617.586ZM3859.24 617.545C3861.02 617.545 3862.75 617.633 3864.41 617.809 3866.07 617.984 3868.16 618.329 3870.67 618.842L3870.67 627.11 3866.78 627.11C3866.18 625.489 3865.48 624.212 3864.67 623.28 3863.86 622.348 3862.94 621.693 3861.92 621.315 3860.89 620.936 3859.63 620.747 3858.15 620.747 3855.98 620.747 3854.26 621.254 3852.98 622.267 3851.7 623.28 3851.05 624.665 3851.05 626.421 3851.05 627.664 3851.31 628.69 3851.82 629.501 3852.34 630.312 3853.13 631.068 3854.22 631.771 3855.3 632.473 3857.2 633.405 3859.93 634.567 3862.69 635.756 3864.81 636.85 3866.31 637.85 3867.81 638.849 3868.99 640.011 3869.84 641.335 3870.69 642.659 3871.11 644.24 3871.11 646.077 3871.11 648.211 3870.75 650.008 3870.02 651.467 3869.29 652.926 3868.26 654.115 3866.94 655.033 3865.62 655.952 3864.04 656.614 3862.22 657.019 3860.4 657.424 3858.4 657.627 3856.24 657.627 3853.97 657.627 3851.77 657.458 3849.64 657.12 3847.5 656.783 3845.42 656.344 3843.39 655.803L3843.39 647.333 3847.37 647.333C3848.1 649.819 3849.18 651.622 3850.61 652.743 3852.04 653.865 3854.01 654.425 3856.53 654.425 3857.5 654.425 3858.45 654.324 3859.38 654.121 3860.31 653.919 3861.15 653.581 3861.87 653.108 3862.6 652.635 3863.19 651.994 3863.62 651.183 3864.05 650.373 3864.27 649.359 3864.27 648.144 3864.27 646.766 3864 645.644 3863.46 644.78 3862.92 643.915 3862.08 643.125 3860.94 642.409 3859.81 641.693 3857.81 640.727 3854.94 639.511 3852.49 638.485 3850.51 637.485 3849.03 636.512 3847.54 635.54 3846.37 634.391 3845.52 633.067 3844.67 631.744 3844.25 630.177 3844.25 628.366 3844.25 626.151 3844.85 624.226 3846.05 622.591 3847.25 620.957 3848.99 619.707 3851.26 618.842 3853.53 617.978 3856.19 617.545 3859.24 617.545ZM3883.65 602.348 3891.11 602.348 3891.11 610.21 3883.65 610.21Z" fill-rule="evenodd"/><text fill="#000000" fill-opacity="0" font-family="Arial,Arial_MSFontService,sans-serif" font-size="55.2793" x="3843.39" y="650.717">sin</text><path d="M3986.42 620.869C3981.64 621.112 3977.5 623.179 3974 627.069 3970.5 630.96 3968.75 635.756 3968.75 641.457 3968.75 644.969 3969.68 647.914 3971.55 650.292 3973.41 652.669 3975.91 654.007 3979.04 654.304ZM3992.82 620.788 3985.45 654.263C3988.74 654.128 3991.74 653.142 3994.45 651.305 3997.15 649.468 3999.27 646.982 4000.81 643.848 4002.35 640.714 4003.12 637.309 4003.12 633.635 4003.12 631.473 4002.74 629.461 4001.98 627.596 4001.23 625.732 4000.06 624.185 3998.48 622.956 3996.9 621.727 3995.01 621.004 3992.82 620.788ZM3990.96 600.159 3997.36 600.159 3993.55 617.545C3999.01 617.951 4003.17 619.545 4006.02 622.328 4008.87 625.111 4010.29 628.88 4010.29 633.635 4010.29 637.228 4009.66 640.491 4008.39 643.422 4007.12 646.354 4005.25 648.92 4002.79 651.122 4000.33 653.324 3997.71 654.945 3994.91 655.986 3992.11 657.026 3988.7 657.546 3984.68 657.546L3980.99 674.405 3974.59 674.405 3978.27 657.546C3972.93 657.141 3968.81 655.54 3965.93 652.743 3963.06 649.947 3961.62 646.158 3961.62 641.376 3961.62 637.296 3962.68 633.439 3964.8 629.805 3966.92 626.171 3969.87 623.24 3973.63 621.011 3977.4 618.782 3981.92 617.627 3987.19 617.545Z" fill-rule="evenodd"/><text fill="#000000" fill-opacity="0" font-family="Arial,Arial_MSFontService,sans-serif" font-size="74.2461" x="3961.62" y="665.125">𝜙</text><path d="M3210.95 1264.92 3206.75 1237.74 3215.81 1236.34 3220 1263.52ZM3205.35 1228.68 3201.15 1201.51 3210.21 1200.11 3214.41 1227.29ZM3199.76 1192.45 3195.56 1165.27 3204.62 1163.87 3208.81 1191.05ZM3194.16 1156.21 3189.96 1129.03 3199.02 1127.63 3203.22 1154.81ZM3188.56 1119.97 3184.37 1092.79 3193.43 1091.4 3197.62 1118.57ZM3182.97 1083.74 3178.77 1056.56 3187.83 1055.16 3192.03 1082.34ZM3177.37 1047.5 3173.18 1020.32 3182.24 1018.92 3186.43 1046.1ZM3171.78 1011.26 3167.58 984.083 3176.64 982.684 3180.84 1009.86ZM3166.18 975.024 3161.99 947.846 3171.05 946.447 3175.24 973.625ZM3160.59 938.786 3156.39 911.609 3165.45 910.21 3169.65 937.388ZM3154.99 902.549 3150.8 875.371 3159.86 873.973 3164.05 901.151ZM3149.4 866.312 3145.2 839.134 3154.26 837.735 3158.46 864.913ZM3143.8 830.075 3139.61 802.897 3148.67 801.498 3152.86 828.676ZM3138.21 793.838 3134.01 766.66 3143.07 765.261 3147.27 792.439ZM3132.61 757.6 3128.42 730.422 3137.48 729.023 3141.67 756.201ZM3127.02 721.363 3123.77 700.318 3132.83 698.919 3136.08 719.964ZM3128.3 699.619 3116.11 710.776 3125.5 681.5 3143.29 706.58Z" fill="#385723"/><path d="M3214.13 1261.69 3189.31 1249.84 3193.26 1241.57 3218.08 1253.42ZM3181.04 1245.89 3156.23 1234.05 3160.17 1225.78 3184.99 1237.62ZM3147.95 1230.1 3123.14 1218.25 3127.09 1209.98 3151.9 1221.83ZM3114.86 1214.3 3090.05 1202.45 3094 1194.18 3118.81 1206.03ZM3081.77 1198.51 3056.96 1186.66 3060.91 1178.39 3085.72 1190.23ZM3048.68 1182.71 3023.87 1170.86 3027.82 1162.59 3052.63 1174.44ZM3015.6 1166.91 2990.78 1155.06 2994.73 1146.79 3019.54 1158.64ZM2982.51 1151.12 2957.69 1139.27 2961.64 1131 2986.46 1142.84ZM2949.42 1135.32 2924.6 1123.47 2928.55 1115.2 2953.37 1127.05ZM2916.33 1119.52 2891.51 1107.67 2895.46 1099.4 2920.28 1111.25ZM2883.24 1103.73 2858.42 1091.88 2862.37 1083.61 2887.19 1095.45ZM2850.15 1087.93 2825.33 1076.08 2829.28 1067.81 2854.1 1079.66ZM2817.06 1072.13 2792.24 1060.29 2796.19 1052.01 2821.01 1063.86ZM2783.97 1056.34 2759.15 1044.49 2763.1 1036.22 2787.92 1048.06ZM2750.88 1040.54 2726.06 1028.69 2730.01 1020.42 2754.83 1032.27ZM2717.79 1024.74 2711.07 1021.53 2715.02 1013.26 2721.74 1016.47ZM2713.04 1017.4 2715.39 1033.76 2696.5 1009.5 2727.24 1008.94Z" fill="#385723"/><path d="M2.26959-3.98195 26.1613 9.63559 21.6221 17.5995-2.26959 3.98195ZM34.1252 14.1748 58.0169 27.7923 53.4777 35.7562 29.586 22.1387ZM65.9808 32.3315 89.8724 45.949 85.3333 53.9129 61.4416 40.2954ZM97.8363 50.4882 121.728 64.1058 117.189 72.0696 93.2971 58.4521ZM129.692 68.6449 153.584 82.2625 149.044 90.2264 125.153 76.6088ZM161.547 86.8017 185.439 100.419 180.9 108.383 157.008 94.7655ZM193.403 104.958 217.295 118.576 212.756 126.54 188.864 112.922ZM225.259 123.115 249.15 136.733 244.611 144.697 220.719 131.079ZM257.114 141.272 281.006 154.889 276.467 162.853 252.575 149.236ZM288.97 159.429 312.862 173.046 308.322 181.01 284.431 167.392ZM320.825 177.585 344.717 191.203 340.178 199.167 316.286 185.549ZM352.681 195.742 376.573 209.359 372.034 217.323 348.142 203.706ZM384.537 213.899 408.428 227.516 403.889 235.48 379.997 221.863ZM416.392 232.055 440.284 245.673 435.745 253.637 411.853 240.019ZM448.248 250.212 472.139 263.83 467.6 271.794 443.709 258.176ZM480.103 268.369 492.9 275.662 488.36 283.626 475.564 276.333ZM490.63 279.645 489.475 263.16 506.558 288.723 475.858 287.051Z" fill="#385723" transform="matrix(-1 0 0 1 3216.06 1264.5)"/><path d="M4.52858-0.706317 8.76648 26.4652-0.290681 27.8778-4.52858 0.706317ZM10.1791 35.5223 14.417 62.6938 5.35986 64.1065 1.12195 36.935ZM15.8297 71.751 20.0676 98.9225 11.0104 100.335 6.77249 73.1636ZM21.4802 107.98 25.7181 135.151 16.6609 136.564 12.423 109.392ZM27.1307 144.208 31.3686 171.38 22.3115 172.792 18.0736 145.621ZM32.7813 180.437 37.0192 207.608 27.962 209.021 23.7241 181.85ZM38.4318 216.666 42.6697 243.837 33.6125 245.25 29.3746 218.078ZM44.0823 252.894 48.3202 280.066 39.2631 281.478 35.0252 254.307ZM49.7329 289.123 53.9708 316.294 44.9136 317.707 40.6757 290.536ZM55.3834 325.352 59.6213 352.523 50.5641 353.936 46.3262 326.764ZM61.0339 361.58 65.2719 388.752 56.2147 390.164 51.9768 362.993ZM66.6845 397.809 70.9224 424.98 61.8652 426.393 57.6273 399.222ZM72.335 434.038 76.5729 461.209 67.5157 462.622 63.2779 435.45ZM77.9855 470.266 82.2234 497.438 73.1663 498.85 68.9284 471.679ZM83.6361 506.495 87.874 533.666 78.8168 535.079 74.5789 507.908ZM89.2866 542.724 92.064 560.531 83.0068 561.943 80.2294 544.136ZM87.5353 561.237 99.7084 550.061 90.3606 579.351 72.5369 554.298Z" fill="#385723" transform="matrix(-1 0 0 1 3215.86 1264.5)"/><path d="M3224.05 1253.6 3241.44 1274.9 3234.34 1280.7 3216.95 1259.4ZM3247.24 1282 3264.64 1303.3 3257.54 1309.1 3240.14 1287.8ZM3270.44 1310.4 3287.83 1331.7 3280.73 1337.5 3263.34 1316.2ZM3293.63 1338.8 3311.02 1360.1 3303.92 1365.9 3286.53 1344.6ZM3316.82 1367.2 3334.22 1388.5 3327.11 1394.3 3309.72 1373ZM3340.01 1395.6 3357.41 1416.9 3350.31 1422.7 3332.91 1401.4ZM3363.21 1424 3380.6 1445.3 3373.5 1451.1 3356.11 1429.8ZM3386.4 1452.4 3403.79 1473.7 3396.69 1479.5 3379.3 1458.2ZM3409.59 1480.8 3426.99 1502.1 3419.89 1507.9 3402.49 1486.6ZM3432.78 1509.2 3450.18 1530.5 3443.08 1536.3 3425.68 1515ZM3455.98 1537.6 3473.37 1558.9 3466.27 1564.7 3448.88 1543.4ZM3479.17 1566 3496.56 1587.3 3489.46 1593.1 3472.07 1571.8ZM3502.36 1594.4 3519.76 1615.7 3512.66 1621.5 3495.26 1600.2ZM3525.55 1622.8 3542.95 1644.1 3535.85 1649.9 3518.45 1628.6ZM3548.75 1651.2 3566.14 1672.5 3559.04 1678.3 3541.65 1657ZM3571.94 1679.6 3582.03 1691.96 3574.93 1697.75 3564.84 1685.4ZM3578.48 1694.85 3583.33 1679.05 3590.08 1709.05 3562.03 1696.45Z" fill="#385723"/><path d="M3124.02 1112.26C3119.23 1112.51 3115.09 1114.57 3111.59 1118.46 3108.1 1122.36 3106.35 1127.15 3106.35 1132.85 3106.35 1136.36 3107.28 1139.31 3109.14 1141.69 3111.01 1144.06 3113.51 1145.4 3116.64 1145.7ZM3130.42 1112.18 3123.04 1145.66C3126.34 1145.52 3129.34 1144.54 3132.04 1142.7 3134.74 1140.86 3136.86 1138.38 3138.4 1135.24 3139.94 1132.11 3140.71 1128.7 3140.71 1125.03 3140.71 1122.87 3140.34 1120.86 3139.58 1118.99 3138.82 1117.13 3137.65 1115.58 3136.07 1114.35 3134.49 1113.12 3132.61 1112.4 3130.42 1112.18ZM3128.56 1091.55 3134.96 1091.55 3131.15 1108.94C3136.61 1109.35 3140.76 1110.94 3143.61 1113.72 3146.46 1116.51 3147.89 1120.27 3147.89 1125.03 3147.89 1128.62 3147.25 1131.89 3145.98 1134.82 3144.71 1137.75 3142.85 1140.32 3140.39 1142.52 3137.93 1144.72 3135.3 1146.34 3132.51 1147.38 3129.71 1148.42 3126.3 1148.94 3122.27 1148.94L3118.59 1165.8 3112.18 1165.8 3115.87 1148.94C3110.52 1148.54 3106.41 1146.94 3103.53 1144.14 3100.65 1141.34 3099.21 1137.55 3099.21 1132.77 3099.21 1128.69 3100.27 1124.83 3102.39 1121.2 3104.52 1117.57 3107.46 1114.63 3111.23 1112.41 3115 1110.18 3119.52 1109.02 3124.79 1108.94Z" fill-rule="evenodd"/><text fill="#000000" fill-opacity="0" font-family="Arial,Arial_MSFontService,sans-serif" font-size="74.2461" x="3099.21" y="1156.52">𝜙</text><path d="M3068.26 1247.48C3063.48 1247.72 3059.34 1249.79 3055.84 1253.68 3052.34 1257.57 3050.59 1262.37 3050.59 1268.07 3050.59 1271.58 3051.52 1274.53 3053.39 1276.9 3055.25 1279.28 3057.75 1280.62 3060.89 1280.92ZM3074.67 1247.4 3067.29 1280.88C3070.59 1280.74 3073.58 1279.75 3076.29 1277.92 3078.99 1276.08 3081.11 1273.59 3082.65 1270.46 3084.19 1267.33 3084.96 1263.92 3084.96 1260.25 3084.96 1258.09 3084.58 1256.07 3083.82 1254.21 3083.07 1252.34 3081.9 1250.8 3080.32 1249.57 3078.74 1248.34 3076.85 1247.62 3074.67 1247.4ZM3072.8 1226.77 3079.2 1226.77 3075.4 1244.16C3080.85 1244.56 3085.01 1246.16 3087.86 1248.94 3090.71 1251.72 3092.13 1255.49 3092.13 1260.25 3092.13 1263.84 3091.5 1267.1 3090.23 1270.03 3088.96 1272.97 3087.09 1275.53 3084.64 1277.73 3082.18 1279.94 3079.55 1281.56 3076.75 1282.6 3073.96 1283.64 3070.55 1284.16 3066.52 1284.16L3062.83 1301.02 3056.43 1301.02 3060.12 1284.16C3054.77 1283.75 3050.65 1282.15 3047.78 1279.36 3044.9 1276.56 3043.46 1272.77 3043.46 1267.99 3043.46 1263.91 3044.52 1260.05 3046.64 1256.42 3048.76 1252.78 3051.71 1249.85 3055.48 1247.62 3059.25 1245.39 3063.76 1244.24 3069.03 1244.16Z" fill-rule="evenodd"/><text fill="#000000" fill-opacity="0" font-family="Arial,Arial_MSFontService,sans-serif" font-size="74.2461" x="3043.46" y="1291.74">𝜙</text><path d="M3132.38 1346.25C3127.6 1346.49 3123.46 1348.56 3119.96 1352.45 3116.46 1356.34 3114.71 1361.13 3114.71 1366.83 3114.71 1370.35 3115.64 1373.29 3117.51 1375.67 3119.37 1378.05 3121.87 1379.38 3125 1379.68ZM3138.78 1346.16 3131.41 1379.64C3134.7 1379.5 3137.7 1378.52 3140.4 1376.68 3143.11 1374.84 3145.23 1372.36 3146.77 1369.22 3148.31 1366.09 3149.08 1362.69 3149.08 1359.01 3149.08 1356.85 3148.7 1354.84 3147.94 1352.97 3147.19 1351.11 3146.02 1349.56 3144.44 1348.33 3142.86 1347.1 3140.97 1346.38 3138.78 1346.16ZM3136.92 1325.54 3143.32 1325.54 3139.51 1342.92C3144.97 1343.33 3149.12 1344.92 3151.98 1347.7 3154.83 1350.49 3156.25 1354.26 3156.25 1359.01 3156.25 1362.6 3155.62 1365.87 3154.35 1368.8 3153.08 1371.73 3151.21 1374.3 3148.75 1376.5 3146.29 1378.7 3143.67 1380.32 3140.87 1381.36 3138.07 1382.4 3134.66 1382.92 3130.64 1382.92L3126.95 1399.78 3120.55 1399.78 3124.23 1382.92C3118.88 1382.52 3114.77 1380.92 3111.89 1378.12 3109.02 1375.32 3107.58 1371.53 3107.58 1366.75 3107.58 1362.67 3108.64 1358.82 3110.76 1355.18 3112.88 1351.55 3115.82 1348.62 3119.59 1346.39 3123.36 1344.16 3127.88 1343 3133.15 1342.92Z" fill-rule="evenodd"/><text fill="#000000" fill-opacity="0" font-family="Arial,Arial_MSFontService,sans-serif" font-size="74.2461" x="3107.58" y="1390.5">𝜙</text><path d="M3237.96 1356.85C3233.18 1357.1 3229.04 1359.16 3225.54 1363.05 3222.04 1366.94 3220.29 1371.74 3220.29 1377.44 3220.29 1380.95 3221.22 1383.9 3223.09 1386.28 3224.95 1388.65 3227.45 1389.99 3230.58 1390.29ZM3244.36 1356.77 3236.99 1390.25C3240.28 1390.11 3243.28 1389.13 3245.98 1387.29 3248.69 1385.45 3250.81 1382.97 3252.35 1379.83 3253.89 1376.7 3254.66 1373.29 3254.66 1369.62 3254.66 1367.46 3254.28 1365.44 3253.52 1363.58 3252.77 1361.72 3251.6 1360.17 3250.02 1358.94 3248.44 1357.71 3246.55 1356.99 3244.36 1356.77ZM3242.5 1336.14 3248.9 1336.14 3245.09 1353.53C3250.55 1353.93 3254.7 1355.53 3257.55 1358.31 3260.4 1361.09 3261.83 1364.86 3261.83 1369.62 3261.83 1373.21 3261.19 1376.47 3259.93 1379.41 3258.66 1382.34 3256.79 1384.9 3254.33 1387.11 3251.87 1389.31 3249.25 1390.93 3246.45 1391.97 3243.65 1393.01 3240.24 1393.53 3236.22 1393.53L3232.53 1410.39 3226.13 1410.39 3229.81 1393.53C3224.46 1393.12 3220.35 1391.52 3217.47 1388.73 3214.6 1385.93 3213.16 1382.14 3213.16 1377.36 3213.16 1373.28 3214.22 1369.42 3216.34 1365.79 3218.46 1362.16 3221.4 1359.22 3225.17 1356.99 3228.94 1354.77 3233.46 1353.61 3238.73 1353.53Z" fill-rule="evenodd"/><text fill="#000000" fill-opacity="0" font-family="Arial,Arial_MSFontService,sans-serif" font-size="74.2461" x="3213.16" y="1401.11">𝜙</text><path d="M3224.63 1087.77C3219.84 1088.02 3215.7 1090.08 3212.2 1093.97 3208.71 1097.86 3206.96 1102.66 3206.96 1108.36 3206.96 1111.87 3207.89 1114.82 3209.75 1117.2 3211.62 1119.57 3214.12 1120.91 3217.25 1121.21ZM3231.03 1087.69 3223.65 1121.17C3226.95 1121.03 3229.95 1120.05 3232.65 1118.21 3235.35 1116.37 3237.47 1113.89 3239.01 1110.75 3240.55 1107.62 3241.32 1104.21 3241.32 1100.54 3241.32 1098.38 3240.95 1096.37 3240.19 1094.5 3239.43 1092.64 3238.26 1091.09 3236.68 1089.86 3235.1 1088.63 3233.22 1087.91 3231.03 1087.69ZM3229.17 1067.06 3235.57 1067.06 3231.76 1084.45C3237.22 1084.86 3241.37 1086.45 3244.22 1089.23 3247.07 1092.02 3248.5 1095.78 3248.5 1100.54 3248.5 1104.13 3247.86 1107.4 3246.59 1110.33 3245.32 1113.26 3243.46 1115.83 3241 1118.03 3238.54 1120.23 3235.91 1121.85 3233.12 1122.89 3230.32 1123.93 3226.91 1124.45 3222.88 1124.45L3219.2 1141.31 3212.79 1141.31 3216.48 1124.45C3211.13 1124.05 3207.02 1122.44 3204.14 1119.65 3201.26 1116.85 3199.82 1113.06 3199.82 1108.28 3199.82 1104.2 3200.88 1100.34 3203.01 1096.71 3205.13 1093.08 3208.07 1090.14 3211.84 1087.92 3215.61 1085.69 3220.13 1084.53 3225.4 1084.45Z" fill-rule="evenodd"/><text fill="#000000" fill-opacity="0" font-family="Arial,Arial_MSFontService,sans-serif" font-size="74.2461" x="3199.82" y="1132.03">𝜙</text><path d="M3342.94 1289.97C3338.16 1290.22 3334.02 1292.28 3330.52 1296.17 3327.02 1300.06 3325.27 1304.86 3325.27 1310.56 3325.27 1314.07 3326.2 1317.02 3328.06 1319.4 3329.93 1321.77 3332.43 1323.11 3335.56 1323.41ZM3349.34 1289.89 3341.97 1323.37C3345.26 1323.23 3348.26 1322.25 3350.96 1320.41 3353.66 1318.57 3355.79 1316.09 3357.33 1312.95 3358.87 1309.82 3359.64 1306.41 3359.64 1302.74 3359.64 1300.58 3359.26 1298.57 3358.5 1296.7 3357.74 1294.84 3356.58 1293.29 3354.99 1292.06 3353.41 1290.83 3351.53 1290.11 3349.34 1289.89ZM3347.48 1269.26 3353.88 1269.26 3350.07 1286.65C3355.53 1287.06 3359.68 1288.65 3362.53 1291.43 3365.38 1294.22 3366.81 1297.98 3366.81 1302.74 3366.81 1306.33 3366.17 1309.6 3364.9 1312.53 3363.63 1315.46 3361.77 1318.02 3359.31 1320.23 3356.85 1322.43 3354.22 1324.05 3351.43 1325.09 3348.63 1326.13 3345.22 1326.65 3341.2 1326.65L3337.51 1343.51 3331.1 1343.51 3334.79 1326.65C3329.44 1326.25 3325.33 1324.64 3322.45 1321.85 3319.57 1319.05 3318.14 1315.26 3318.14 1310.48 3318.14 1306.4 3319.2 1302.54 3321.32 1298.91 3323.44 1295.28 3326.38 1292.34 3330.15 1290.12 3333.92 1287.89 3338.44 1286.73 3343.71 1286.65Z" fill-rule="evenodd"/><text fill="#000000" fill-opacity="0" font-family="Arial,Arial_MSFontService,sans-serif" font-size="74.2461" x="3318.14" y="1334.23">𝜙</text></g></svg>