<svg width="2085" height="717" xmlns="http://www.w3.org/2000/svg" xmlns:xlink="http://www.w3.org/1999/xlink" xml:space="preserve" overflow="hidden"><g transform="translate(-793 -995)"><path d="M793.5 1170.5 1829.82 1170.5" stroke="#0070C0" stroke-width="22.9167" stroke-miterlimit="8" fill="none" fill-rule="evenodd"/><path d="M1829.5 1170.5 2865.82 1170.5" stroke="#548235" stroke-width="22.9167" stroke-miterlimit="8" fill="none" fill-rule="evenodd"/><path d="M1588.67 1216.5C1568.69 1216.5 1552.5 1200.31 1552.5 1180.33L1552.5 1035.67C1552.5 1015.69 1568.69 999.5 1588.67 999.5M2193.33 999.5C2213.31 999.5 2229.5 1015.69 2229.5 1035.67L2229.5 1180.33C2229.5 1200.31 2213.31 1216.5 2193.33 1216.5" stroke="#C55A11" stroke-width="9.16667" stroke-miterlimit="8" fill="none" fill-rule="evenodd"/><path d="M1829.5 999.5 1829.5 1216.6" stroke="#C55A11" stroke-width="9.16667" stroke-miterlimit="8" fill="none" fill-rule="evenodd"/><path d="M2206.94 1112.48 1575.41 1111.13 1575.43 1101.97 2206.96 1103.31ZM2202.4 1094.14 2229.87 1107.95 2202.34 1121.64ZM1579.97 1120.31 1552.5 1106.5 1580.03 1092.81Z" fill="#C55A11"/><path d="M793.5 1452.5 1292.84 1452.5" stroke="#0070C0" stroke-width="22.9167" stroke-miterlimit="8" fill="none" fill-rule="evenodd"/><path d="M1293.5 1452.5 1830.47 1452.5" stroke="#9DC3E6" stroke-width="22.9167" stroke-miterlimit="8" fill="none" fill-rule="evenodd"/><path d="M1045.67 1500.5C1030.66 1500.5 1018.5 1488.34 1018.5 1473.33L1018.5 1364.67C1018.5 1349.66 1030.66 1337.5 1045.67 1337.5M1490.33 1337.5C1505.34 1337.5 1517.5 1349.66 1517.5 1364.67L1517.5 1473.33C1517.5 1488.34 1505.34 1500.5 1490.33 1500.5" stroke="#A6A6A6" stroke-width="9.16667" stroke-miterlimit="8" fill="none" fill-rule="evenodd"/><path d="M1296.5 1337.5 1296.5 1500.67" stroke="#A6A6A6" stroke-width="9.16667" stroke-miterlimit="8" fill="none" fill-rule="evenodd"/><path d="M22.9168-4.58332 476.426-4.58299 476.426 4.58368 22.9168 4.58335ZM27.5 13.75 0 0 27.5-13.75ZM471.842-13.7497 499.342 0.000360892 471.842 13.7503Z" fill="#A6A6A6" transform="matrix(-1 0 0 1 1517.84 1418.5)"/><path d="M1844.5 1452.5 2329.09 1452.5" stroke="#A9D18E" stroke-width="22.9167" stroke-miterlimit="8" fill="none" fill-rule="evenodd"/><path d="M2329.5 1452.5 2866.47 1452.5" stroke="#548235" stroke-width="22.9167" stroke-miterlimit="8" fill="none" fill-rule="evenodd"/><text font-family="DengXian,DengXian_MSFontService,sans-serif" font-weight="400" font-size="83" transform="matrix(1 0 0 1 1050.93 1640)">左半边子问题</text><text font-family="DengXian,DengXian_MSFontService,sans-serif" font-weight="400" font-size="83" transform="matrix(1 0 0 1 2131.33 1640)">右半边子问题</text><path d="M2098.67 1498.5C2083.66 1498.5 2071.5 1486.34 2071.5 1471.33L2071.5 1362.67C2071.5 1347.66 2083.66 1335.5 2098.67 1335.5M2543.33 1335.5C2558.34 1335.5 2570.5 1347.66 2570.5 1362.67L2570.5 1471.33C2570.5 1486.34 2558.34 1498.5 2543.33 1498.5" stroke="#A6A6A6" stroke-width="9.16667" stroke-miterlimit="8" fill="none" fill-rule="evenodd"/><path d="M2334.5 1335.5 2334.5 1498.67" stroke="#A6A6A6" stroke-width="9.16667" stroke-miterlimit="8" fill="none" fill-rule="evenodd"/><path d="M22.9168-4.58332 476.426-4.58299 476.426 4.58368 22.9168 4.58335ZM27.5 13.75 0 0 27.5-13.75ZM471.842-13.7497 499.342 0.000360892 471.842 13.7503Z" fill="#A6A6A6" transform="matrix(-1 0 0 1 2570.84 1416.5)"/><path d="M1201.5 1249 1249 1201.5 1296.5 1249 1272.75 1249 1272.75 1309.5 1225.25 1309.5 1225.25 1249Z" stroke="#2F528F" stroke-width="4.58333" stroke-miterlimit="8" fill="#4472C4" fill-rule="evenodd"/><path d="M2300.5 1249 2348 1201.5 2395.5 1249 2371.75 1249 2371.75 1309.5 2324.25 1309.5 2324.25 1249Z" stroke="#2F528F" stroke-width="4.58333" stroke-miterlimit="8" fill="#4472C4" fill-rule="evenodd"/><path d="M1829.5 1493.5C1829.5 1510.9 1827.15 1525 1824.25 1525L1318.25 1525C1315.35 1525 1313 1539.1 1313 1556.5 1313 1539.1 1310.65 1525 1307.75 1525L801.75 1525C798.85 1525 796.5 1510.9 796.5 1493.5" stroke="#4472C4" stroke-width="4.58333" stroke-miterlimit="8" fill="none" fill-rule="evenodd"/><path d="M2866.5 1493.5C2866.5 1510.9 2864.15 1525 2861.25 1525L2360.75 1525C2357.85 1525 2355.5 1539.1 2355.5 1556.5 2355.5 1539.1 2353.15 1525 2350.25 1525L1849.75 1525C1846.85 1525 1844.5 1510.9 1844.5 1493.5" stroke="#4472C4" stroke-width="4.58333" stroke-miterlimit="8" fill="none" fill-rule="evenodd"/></g></svg>