<svg width="1640" height="637" xmlns="http://www.w3.org/2000/svg" xmlns:xlink="http://www.w3.org/1999/xlink" xml:space="preserve" overflow="hidden"><g transform="translate(-303 -1567)"><path d="M353.797 1605.06 396.108 1605.06 392.947 1619.33 389.056 1619.33C389.056 1616.71 388.989 1614.74 388.853 1613.43 388.718 1612.12 388.462 1611.12 388.083 1610.43 387.705 1609.74 387.239 1609.27 386.685 1609.01 386.131 1608.76 385.152 1608.63 383.747 1608.63L377.749 1608.63 368.954 1648.59C368.711 1649.64 368.542 1650.48 368.448 1651.1 368.353 1651.72 368.272 1652.38 368.205 1653.07 368.137 1653.75 368.103 1654.37 368.103 1654.91 368.103 1655.75 368.239 1656.4 368.509 1656.88 368.779 1657.35 369.184 1657.69 369.725 1657.91 370.265 1658.12 371.197 1658.29 372.521 1658.39L372.075 1660.38 355.013 1660.38 355.459 1658.39C356.54 1658.23 357.337 1658.02 357.85 1657.75 358.363 1657.48 358.816 1657.06 359.208 1656.49 359.599 1655.92 359.991 1655.03 360.383 1653.82 360.775 1652.6 361.241 1650.76 361.781 1648.3L370.454 1608.63 365.307 1608.63C363.632 1608.63 362.294 1608.87 361.295 1609.36 360.295 1609.84 359.295 1610.75 358.296 1612.07 357.296 1613.4 356.08 1615.61 354.648 1618.72L350.758 1618.72Z" fill-rule="evenodd"/><text fill="#000000" fill-opacity="0" font-family="Arial,Arial_MSFontService,sans-serif" font-size="55.3198" x="350.758" y="1653.47">𝑇</text><path d="M430.816 1601.82 431.91 1604.94C425.588 1607.02 420.907 1611.08 417.868 1617.12 414.828 1623.16 413.308 1630.74 413.308 1639.87 413.308 1649.33 414.828 1657.12 417.868 1663.26 420.907 1669.39 425.547 1673.5 431.789 1675.58L430.816 1678.7C422.9 1676.62 416.834 1672.14 412.619 1665.26 408.404 1658.39 406.297 1650.06 406.297 1640.28 406.297 1630.53 408.411 1622.2 412.64 1615.29 416.868 1608.39 422.927 1603.9 430.816 1601.82Z" fill-rule="evenodd"/><text fill="#000000" fill-opacity="0" font-family="Arial,Arial_MSFontService,sans-serif" font-size="76.8804" x="406.297" y="1669.09">(</text><path d="M446.143 1620.95C447.845 1620.95 449.189 1621.51 450.176 1622.63 451.162 1623.75 451.655 1625.22 451.655 1627.03 451.655 1628.46 451.331 1630.05 450.682 1631.81L451.169 1631.97C453.816 1628.24 456.336 1625.48 458.727 1623.68 461.118 1621.89 463.583 1620.99 466.123 1620.99 468.636 1620.99 470.568 1621.71 471.919 1623.16 473.269 1624.6 473.945 1626.61 473.945 1629.17 473.945 1630.88 473.553 1633.29 472.77 1636.43L470.135 1647.05C469.406 1649.99 469.041 1652.07 469.041 1653.29 469.041 1654.37 469.217 1655.15 469.568 1655.64 469.919 1656.13 470.473 1656.37 471.23 1656.37 472.04 1656.37 472.905 1656.04 473.823 1655.38 474.742 1654.71 476.039 1653.45 477.714 1651.59L480.024 1653.86C477.7 1656.34 475.674 1658.16 473.945 1659.31 472.216 1660.45 470.243 1661.03 468.028 1661.03 466.272 1661.03 464.867 1660.4 463.813 1659.14 462.759 1657.89 462.233 1656.29 462.233 1654.34 462.233 1652.59 462.678 1650.01 463.57 1646.6L465.353 1639.59C466.002 1637.05 466.427 1635.17 466.63 1633.96 466.832 1632.74 466.934 1631.75 466.934 1631 466.934 1629.13 466.623 1627.79 466.002 1626.97 465.38 1626.14 464.367 1625.73 462.962 1625.73 461.827 1625.73 460.605 1626.18 459.294 1627.09 457.984 1627.99 456.592 1629.36 455.12 1631.18 453.647 1633 452.465 1634.77 451.574 1636.49 450.682 1638.21 449.953 1640.32 449.385 1642.83L445.535 1660.38 438.524 1660.38 444.441 1634.69C445.035 1632.09 445.333 1630.09 445.333 1628.69 445.333 1627.61 445.157 1626.82 444.806 1626.34 444.455 1625.85 443.901 1625.61 443.144 1625.61 442.307 1625.61 441.422 1625.95 440.49 1626.64 439.557 1627.33 438.281 1628.58 436.66 1630.39L434.35 1628.12C436.835 1625.53 438.902 1623.68 440.55 1622.59 442.199 1621.49 444.063 1620.95 446.143 1620.95Z" fill-rule="evenodd"/><text fill="#000000" fill-opacity="0" font-family="Arial,Arial_MSFontService,sans-serif" font-size="40.0815" x="434.35" y="1656.02">𝑛</text><path d="M484.984 1601.82C492.874 1603.9 498.932 1608.39 503.161 1615.29 507.389 1622.2 509.503 1630.53 509.503 1640.28 509.503 1650.06 507.396 1658.39 503.181 1665.26 498.966 1672.14 492.901 1676.62 484.984 1678.7L484.012 1675.58C490.253 1673.5 494.893 1669.39 497.933 1663.26 500.972 1657.12 502.492 1649.33 502.492 1639.87 502.492 1630.74 500.979 1623.16 497.953 1617.12 494.927 1611.08 490.239 1607.02 483.89 1604.94Z" fill-rule="evenodd"/><text fill="#000000" fill-opacity="0" font-family="Arial,Arial_MSFontService,sans-serif" font-size="76.8804" x="483.89" y="1669.09">)</text><path d="M838.804 1620.95C840.506 1620.95 841.85 1621.51 842.836 1622.63 843.822 1623.75 844.315 1625.22 844.315 1627.03 844.315 1628.46 843.991 1630.05 843.343 1631.81L843.829 1631.97C846.477 1628.24 848.996 1625.48 851.387 1623.68 853.779 1621.89 856.244 1620.99 858.784 1620.99 861.296 1620.99 863.228 1621.71 864.579 1623.16 865.93 1624.6 866.605 1626.61 866.605 1629.17 866.605 1630.88 866.214 1633.29 865.43 1636.43L862.796 1647.05C862.066 1649.99 861.702 1652.07 861.702 1653.29 861.702 1654.37 861.877 1655.15 862.228 1655.64 862.58 1656.13 863.134 1656.37 863.89 1656.37 864.701 1656.37 865.565 1656.04 866.484 1655.38 867.402 1654.71 868.699 1653.45 870.374 1651.59L872.685 1653.86C870.361 1656.34 868.335 1658.16 866.605 1659.31 864.876 1660.45 862.904 1661.03 860.688 1661.03 858.932 1661.03 857.527 1660.4 856.474 1659.14 855.42 1657.89 854.893 1656.29 854.893 1654.34 854.893 1652.59 855.339 1650.01 856.23 1646.6L858.014 1639.59C858.662 1637.05 859.088 1635.17 859.29 1633.96 859.493 1632.74 859.594 1631.75 859.594 1631 859.594 1629.13 859.283 1627.79 858.662 1626.97 858.041 1626.14 857.027 1625.73 855.622 1625.73 854.488 1625.73 853.265 1626.18 851.955 1627.09 850.644 1627.99 849.253 1629.36 847.78 1631.18 846.308 1633 845.126 1634.77 844.234 1636.49 843.343 1638.21 842.613 1640.32 842.046 1642.83L838.196 1660.38 831.185 1660.38 837.102 1634.69C837.696 1632.09 837.993 1630.09 837.993 1628.69 837.993 1627.61 837.818 1626.82 837.466 1626.34 837.115 1625.85 836.561 1625.61 835.805 1625.61 834.967 1625.61 834.082 1625.95 833.15 1626.64 832.218 1627.33 830.941 1628.58 829.32 1630.39L827.01 1628.12C829.496 1625.53 831.563 1623.68 833.211 1622.59 834.859 1621.49 836.723 1620.95 838.804 1620.95Z" fill-rule="evenodd"/><text fill="#000000" fill-opacity="0" font-family="Arial,Arial_MSFontService,sans-serif" font-size="40.0815" x="827.01" y="1656.02">𝑛</text><path d="M642.571 1831.4 684.881 1831.4 681.72 1845.66 677.83 1845.66C677.83 1843.04 677.762 1841.07 677.627 1839.76 677.492 1838.45 677.235 1837.45 676.857 1836.77 676.479 1836.08 676.013 1835.6 675.459 1835.35 674.905 1835.09 673.925 1834.96 672.52 1834.96L666.522 1834.96 657.728 1874.92C657.485 1875.98 657.316 1876.81 657.221 1877.43 657.127 1878.06 657.046 1878.71 656.978 1879.4 656.911 1880.09 656.877 1880.7 656.877 1881.24 656.877 1882.08 657.012 1882.74 657.282 1883.21 657.552 1883.68 657.958 1884.03 658.498 1884.24 659.038 1884.46 659.97 1884.62 661.294 1884.73L660.849 1886.72 643.787 1886.72 644.232 1884.73C645.313 1884.57 646.11 1884.35 646.623 1884.08 647.137 1883.81 647.589 1883.39 647.981 1882.82 648.373 1882.26 648.765 1881.37 649.156 1880.15 649.548 1878.93 650.014 1877.1 650.555 1874.64L659.227 1834.96 654.081 1834.96C652.405 1834.96 651.068 1835.2 650.068 1835.69 649.069 1836.18 648.069 1837.08 647.069 1838.41 646.07 1839.73 644.854 1841.95 643.422 1845.05L639.531 1845.05Z" fill-rule="evenodd"/><text fill="#000000" fill-opacity="0" font-family="Arial,Arial_MSFontService,sans-serif" font-size="55.3198" x="639.531" y="1879.8">𝑇</text><path d="M719.589 1828.15 720.684 1831.27C714.361 1833.35 709.681 1837.41 706.641 1843.45 703.601 1849.49 702.082 1857.08 702.082 1866.21 702.082 1875.66 703.601 1883.46 706.641 1889.59 709.681 1895.73 714.321 1899.83 720.562 1901.91L719.589 1905.03C711.673 1902.95 705.608 1898.47 701.393 1891.6 697.178 1884.72 695.07 1876.39 695.07 1866.61 695.07 1856.86 697.185 1848.53 701.413 1841.63 705.641 1834.73 711.7 1830.23 719.589 1828.15Z" fill-rule="evenodd"/><text fill="#000000" fill-opacity="0" font-family="Arial,Arial_MSFontService,sans-serif" font-size="76.8804" x="695.07" y="1895.42">(</text><path d="M734.917 1784.83C736.619 1784.83 737.963 1785.39 738.949 1786.52 739.935 1787.64 740.428 1789.1 740.428 1790.91 740.428 1792.35 740.104 1793.94 739.456 1795.7L739.942 1795.86C742.59 1792.13 745.109 1789.37 747.5 1787.57 749.891 1785.77 752.357 1784.87 754.897 1784.87 757.409 1784.87 759.341 1785.6 760.692 1787.04 762.043 1788.49 762.718 1790.49 762.718 1793.06 762.718 1794.76 762.327 1797.18 761.543 1800.32L758.909 1810.93C758.179 1813.88 757.815 1815.96 757.815 1817.17 757.815 1818.26 757.99 1819.04 758.341 1819.53 758.693 1820.01 759.247 1820.26 760.003 1820.26 760.814 1820.26 761.678 1819.92 762.597 1819.26 763.515 1818.6 764.812 1817.34 766.487 1815.47L768.797 1817.74C766.474 1820.23 764.448 1822.04 762.718 1823.19 760.989 1824.34 759.017 1824.92 756.801 1824.92 755.045 1824.92 753.64 1824.29 752.587 1823.03 751.533 1821.77 751.006 1820.17 751.006 1818.23 751.006 1816.47 751.452 1813.89 752.343 1810.49L754.127 1803.48C754.775 1800.94 755.201 1799.06 755.403 1797.84 755.606 1796.63 755.707 1795.64 755.707 1794.88 755.707 1793.02 755.396 1791.68 754.775 1790.85 754.154 1790.03 753.14 1789.62 751.735 1789.62 750.601 1789.62 749.378 1790.07 748.068 1790.97 746.757 1791.88 745.366 1793.24 743.893 1795.07 742.421 1796.89 741.239 1798.66 740.347 1800.38 739.456 1802.09 738.726 1804.21 738.159 1806.72L734.309 1824.27 727.297 1824.27 733.214 1798.57C733.809 1795.98 734.106 1793.98 734.106 1792.57 734.106 1791.49 733.93 1790.71 733.579 1790.22 733.228 1789.74 732.674 1789.49 731.918 1789.49 731.08 1789.49 730.195 1789.84 729.263 1790.53 728.331 1791.22 727.054 1792.47 725.433 1794.28L723.123 1792.01C725.609 1789.41 727.676 1787.57 729.324 1786.48 730.972 1785.38 732.836 1784.83 734.917 1784.83Z" fill-rule="evenodd"/><text fill="#000000" fill-opacity="0" font-family="Arial,Arial_MSFontService,sans-serif" font-size="40.0815" x="723.123" y="1819.91">𝑛</text><path d="M747.012 1885.93C752.037 1885.93 755.834 1887.03 758.4 1889.23 760.967 1891.44 762.25 1894.63 762.25 1898.82 762.25 1900.25 762.109 1901.57 761.825 1902.77 761.541 1903.97 761.095 1905.16 760.487 1906.34 759.88 1907.51 759.062 1908.77 758.036 1910.13 757.009 1911.48 755.874 1912.85 754.631 1914.24 753.388 1915.63 751.24 1917.95 748.187 1921.19 743.054 1926.62 739.285 1931.36 736.88 1935.41L752.159 1935.41C753.483 1935.41 754.55 1935.33 755.361 1935.17 756.171 1935.01 756.82 1934.74 757.306 1934.36 757.792 1933.98 758.177 1933.49 758.461 1932.88 758.745 1932.27 759.103 1931.33 759.535 1930.06L762.98 1930.06 762.291 1941.9 728.937 1941.9 728.937 1939.95C730.099 1937.12 731.666 1934.21 733.638 1931.24 735.61 1928.27 738.407 1924.77 742.027 1920.74 745.161 1917.28 747.417 1914.66 748.795 1912.88 750.308 1910.94 751.436 1909.25 752.179 1907.84 752.922 1906.42 753.456 1905.08 753.78 1903.82 754.104 1902.57 754.266 1901.3 754.266 1900.03 754.266 1898.01 753.942 1896.22 753.294 1894.66 752.645 1893.11 751.652 1891.89 750.315 1891 748.978 1890.1 747.296 1889.66 745.269 1889.66 740.217 1889.66 736.813 1892.47 735.057 1898.09L730.153 1898.09 730.153 1890.31C733.422 1888.77 736.482 1887.65 739.332 1886.96 742.183 1886.27 744.743 1885.93 747.012 1885.93Z" fill-rule="evenodd"/><text fill="#000000" fill-opacity="0" font-family="Arial,Arial_MSFontService,sans-serif" font-size="55.9683" x="728.937" y="1934.9">2</text><path d="M722.273 1860.7 746.773 1860.7 771.273 1860.7 771.273 1865.7 746.773 1865.7 722.273 1865.7Z" fill-rule="evenodd"/><path d="M773.758 1828.15C781.647 1830.23 787.706 1834.73 791.934 1841.63 796.163 1848.53 798.277 1856.86 798.277 1866.61 798.277 1876.39 796.169 1884.72 791.954 1891.6 787.74 1898.47 781.674 1902.95 773.758 1905.03L772.785 1901.91C779.026 1899.83 783.667 1895.73 786.706 1889.59 789.746 1883.46 791.266 1875.66 791.266 1866.21 791.266 1857.08 789.753 1849.49 786.726 1843.45 783.7 1837.41 779.013 1833.35 772.663 1831.27Z" fill-rule="evenodd"/><text fill="#000000" fill-opacity="0" font-family="Arial,Arial_MSFontService,sans-serif" font-size="76.8804" x="772.663" y="1895.42">)</text><path d="M902.068 1832.31 944.378 1832.31 941.217 1846.58 937.327 1846.58C937.327 1843.96 937.259 1841.99 937.124 1840.68 936.989 1839.37 936.732 1838.37 936.354 1837.68 935.976 1836.99 935.51 1836.52 934.956 1836.27 934.402 1836.01 933.423 1835.88 932.018 1835.88L926.02 1835.88 917.225 1875.84C916.982 1876.89 916.813 1877.73 916.719 1878.35 916.624 1878.97 916.543 1879.63 916.475 1880.32 916.408 1881.01 916.374 1881.62 916.374 1882.16 916.374 1883 916.509 1883.66 916.779 1884.13 917.049 1884.6 917.455 1884.95 917.995 1885.16 918.535 1885.38 919.468 1885.54 920.792 1885.65L920.346 1887.63 903.284 1887.63 903.729 1885.65C904.81 1885.49 905.607 1885.27 906.121 1885 906.634 1884.73 907.086 1884.31 907.478 1883.74 907.87 1883.18 908.262 1882.28 908.654 1881.07 909.045 1879.85 909.511 1878.02 910.052 1875.56L918.725 1835.88 913.578 1835.88C911.903 1835.88 910.565 1836.12 909.565 1836.61 908.566 1837.1 907.566 1838 906.566 1839.33 905.567 1840.65 904.351 1842.86 902.919 1845.97L899.028 1845.97Z" fill-rule="evenodd"/><text fill="#000000" fill-opacity="0" font-family="Arial,Arial_MSFontService,sans-serif" font-size="55.3198" x="899.028" y="1880.72">𝑇</text><path d="M979.087 1829.07 980.181 1832.19C973.859 1834.27 969.178 1838.33 966.138 1844.37 963.099 1850.41 961.579 1857.99 961.579 1867.13 961.579 1876.58 963.099 1884.38 966.138 1890.51 969.178 1896.64 973.818 1900.75 980.059 1902.83L979.087 1905.95C971.17 1903.87 965.105 1899.39 960.89 1892.52 956.675 1885.64 954.568 1877.31 954.568 1867.53 954.568 1857.78 956.682 1849.45 960.91 1842.55 965.138 1835.64 971.197 1831.15 979.087 1829.07Z" fill-rule="evenodd"/><text fill="#000000" fill-opacity="0" font-family="Arial,Arial_MSFontService,sans-serif" font-size="76.8804" x="954.568" y="1896.34">(</text><path d="M994.414 1785.75C996.116 1785.75 997.46 1786.31 998.446 1787.43 999.432 1788.56 999.925 1790.02 999.925 1791.83 999.925 1793.26 999.601 1794.86 998.953 1796.61L999.439 1796.78C1002.09 1793.05 1004.61 1790.28 1007 1788.49 1009.39 1786.69 1011.85 1785.79 1014.39 1785.79 1016.91 1785.79 1018.84 1786.52 1020.19 1787.96 1021.54 1789.41 1022.22 1791.41 1022.22 1793.98 1022.22 1795.68 1021.82 1798.1 1021.04 1801.23L1018.41 1811.85C1017.68 1814.8 1017.31 1816.88 1017.31 1818.09 1017.31 1819.17 1017.49 1819.96 1017.84 1820.44 1018.19 1820.93 1018.74 1821.17 1019.5 1821.17 1020.31 1821.17 1021.18 1820.84 1022.09 1820.18 1023.01 1819.52 1024.31 1818.26 1025.98 1816.39L1028.29 1818.66C1025.97 1821.15 1023.94 1822.96 1022.22 1824.11 1020.49 1825.26 1018.51 1825.83 1016.3 1825.83 1014.54 1825.83 1013.14 1825.21 1012.08 1823.95 1011.03 1822.69 1010.5 1821.09 1010.5 1819.15 1010.5 1817.39 1010.95 1814.81 1011.84 1811.41L1013.62 1804.4C1014.27 1801.86 1014.7 1799.98 1014.9 1798.76 1015.1 1797.55 1015.2 1796.56 1015.2 1795.8 1015.2 1793.94 1014.89 1792.59 1014.27 1791.77 1013.65 1790.95 1012.64 1790.53 1011.23 1790.53 1010.1 1790.53 1008.88 1790.99 1007.56 1791.89 1006.25 1792.8 1004.86 1794.16 1003.39 1795.99 1001.92 1797.81 1000.74 1799.58 999.844 1801.29 998.953 1803.01 998.223 1805.12 997.656 1807.64L993.806 1825.19 986.795 1825.19 992.712 1799.49C993.306 1796.9 993.603 1794.9 993.603 1793.49 993.603 1792.41 993.428 1791.63 993.076 1791.14 992.725 1790.66 992.171 1790.41 991.415 1790.41 990.577 1790.41 989.692 1790.76 988.76 1791.45 987.828 1792.14 986.551 1793.39 984.93 1795.2L982.62 1792.93C985.106 1790.33 987.173 1788.49 988.821 1787.39 990.469 1786.3 992.333 1785.75 994.414 1785.75Z" fill-rule="evenodd"/><text fill="#000000" fill-opacity="0" font-family="Arial,Arial_MSFontService,sans-serif" font-size="40.0815" x="982.62" y="1820.82">𝑛</text><path d="M1006.51 1886.85C1011.53 1886.85 1015.33 1887.95 1017.9 1890.15 1020.46 1892.35 1021.75 1895.55 1021.75 1899.74 1021.75 1901.17 1021.61 1902.49 1021.32 1903.69 1021.04 1904.89 1020.59 1906.08 1019.98 1907.25 1019.38 1908.43 1018.56 1909.69 1017.53 1911.04 1016.51 1912.39 1015.37 1913.77 1014.13 1915.16 1012.89 1916.55 1010.74 1918.87 1007.68 1922.11 1002.55 1927.54 998.782 1932.28 996.377 1936.33L1011.66 1936.33C1012.98 1936.33 1014.05 1936.25 1014.86 1936.09 1015.67 1935.93 1016.32 1935.66 1016.8 1935.28 1017.29 1934.9 1017.67 1934.41 1017.96 1933.8 1018.24 1933.19 1018.6 1932.25 1019.03 1930.98L1022.48 1930.98 1021.79 1942.82 988.434 1942.82 988.434 1940.87C989.596 1938.03 991.163 1935.13 993.135 1932.16 995.108 1929.19 997.904 1925.69 1001.52 1921.66 1004.66 1918.2 1006.91 1915.58 1008.29 1913.8 1009.81 1911.85 1010.93 1910.17 1011.68 1908.75 1012.42 1907.34 1012.95 1906 1013.28 1904.74 1013.6 1903.49 1013.76 1902.22 1013.76 1900.95 1013.76 1898.93 1013.44 1897.14 1012.79 1895.58 1012.14 1894.03 1011.15 1892.81 1009.81 1891.91 1008.47 1891.02 1006.79 1890.58 1004.77 1890.58 999.714 1890.58 996.31 1893.39 994.554 1899.01L989.65 1899.01 989.65 1891.23C992.919 1889.69 995.979 1888.57 998.829 1887.88 1001.68 1887.19 1004.24 1886.85 1006.51 1886.85Z" fill-rule="evenodd"/><text fill="#000000" fill-opacity="0" font-family="Arial,Arial_MSFontService,sans-serif" font-size="55.9683" x="988.434" y="1935.82">2</text><path d="M981.771 1861.62 1006.27 1861.62 1030.77 1861.62 1030.77 1866.62 1006.27 1866.62 981.771 1866.62Z" fill-rule="evenodd"/><path d="M1033.25 1829.07C1041.14 1831.15 1047.2 1835.64 1051.43 1842.55 1055.66 1849.45 1057.77 1857.78 1057.77 1867.53 1057.77 1877.31 1055.67 1885.64 1051.45 1892.52 1047.24 1899.39 1041.17 1903.87 1033.25 1905.95L1032.28 1902.83C1038.52 1900.75 1043.16 1896.64 1046.2 1890.51 1049.24 1884.38 1050.76 1876.58 1050.76 1867.13 1050.76 1857.99 1049.25 1850.41 1046.22 1844.37 1043.2 1838.33 1038.51 1834.27 1032.16 1832.19Z" fill-rule="evenodd"/><text fill="#000000" fill-opacity="0" font-family="Arial,Arial_MSFontService,sans-serif" font-size="76.8804" x="1032.16" y="1896.34">)</text><path d="M0 0 129.668 56.035" stroke="#000000" stroke-width="4.58333" stroke-miterlimit="8" fill="none" fill-rule="evenodd" transform="matrix(-1 0 0 1 851.168 1700.5)"/><path d="M851.5 1700.5 981.33 1757.45" stroke="#000000" stroke-width="4.58333" stroke-miterlimit="8" fill="none" fill-rule="evenodd"/><path d="M1456.4 1620.95C1458.11 1620.95 1459.45 1621.51 1460.44 1622.63 1461.42 1623.75 1461.91 1625.22 1461.91 1627.03 1461.91 1628.46 1461.59 1630.05 1460.94 1631.81L1461.43 1631.97C1464.08 1628.24 1466.6 1625.48 1468.99 1623.68 1471.38 1621.89 1473.84 1620.99 1476.38 1620.99 1478.9 1620.99 1480.83 1621.71 1482.18 1623.16 1483.53 1624.6 1484.2 1626.61 1484.2 1629.17 1484.2 1630.88 1483.81 1633.29 1483.03 1636.43L1480.4 1647.05C1479.67 1649.99 1479.3 1652.07 1479.3 1653.29 1479.3 1654.37 1479.48 1655.15 1479.83 1655.64 1480.18 1656.13 1480.73 1656.37 1481.49 1656.37 1482.3 1656.37 1483.16 1656.04 1484.08 1655.38 1485 1654.71 1486.3 1653.45 1487.97 1651.59L1490.28 1653.86C1487.96 1656.34 1485.93 1658.16 1484.2 1659.31 1482.48 1660.45 1480.5 1661.03 1478.29 1661.03 1476.53 1661.03 1475.13 1660.4 1474.07 1659.14 1473.02 1657.89 1472.49 1656.29 1472.49 1654.34 1472.49 1652.59 1472.94 1650.01 1473.83 1646.6L1475.61 1639.59C1476.26 1637.05 1476.69 1635.17 1476.89 1633.96 1477.09 1632.74 1477.19 1631.75 1477.19 1631 1477.19 1629.13 1476.88 1627.79 1476.26 1626.97 1475.64 1626.14 1474.63 1625.73 1473.22 1625.73 1472.09 1625.73 1470.86 1626.18 1469.55 1627.09 1468.24 1627.99 1466.85 1629.36 1465.38 1631.18 1463.91 1633 1462.73 1634.77 1461.83 1636.49 1460.94 1638.21 1460.21 1640.32 1459.65 1642.83L1455.8 1660.38 1448.78 1660.38 1454.7 1634.69C1455.3 1632.09 1455.59 1630.09 1455.59 1628.69 1455.59 1627.61 1455.42 1626.82 1455.07 1626.34 1454.71 1625.85 1454.16 1625.61 1453.4 1625.61 1452.57 1625.61 1451.68 1625.95 1450.75 1626.64 1449.82 1627.33 1448.54 1628.58 1446.92 1630.39L1444.61 1628.12C1447.1 1625.53 1449.16 1623.68 1450.81 1622.59 1452.46 1621.49 1454.32 1620.95 1456.4 1620.95Z" fill-rule="evenodd"/><text fill="#000000" fill-opacity="0" font-family="Arial,Arial_MSFontService,sans-serif" font-size="40.0815" x="1444.61" y="1656.02">𝑛</text><path d="M1252.35 1767.98C1254.05 1767.98 1255.39 1768.54 1256.38 1769.66 1257.37 1770.78 1257.86 1772.25 1257.86 1774.06 1257.86 1775.49 1257.54 1777.08 1256.89 1778.84L1257.37 1779C1260.02 1775.27 1262.54 1772.51 1264.93 1770.71 1267.32 1768.92 1269.79 1768.02 1272.33 1768.02 1274.84 1768.02 1276.77 1768.74 1278.12 1770.19 1279.47 1771.63 1280.15 1773.64 1280.15 1776.2 1280.15 1777.91 1279.76 1780.32 1278.97 1783.46L1276.34 1794.08C1275.61 1797.02 1275.25 1799.1 1275.25 1800.32 1275.25 1801.4 1275.42 1802.18 1275.77 1802.67 1276.12 1803.15 1276.68 1803.4 1277.43 1803.4 1278.24 1803.4 1279.11 1803.07 1280.03 1802.4 1280.95 1801.74 1282.24 1800.48 1283.92 1798.62L1286.23 1800.89C1283.91 1803.37 1281.88 1805.19 1280.15 1806.34 1278.42 1807.48 1276.45 1808.06 1274.23 1808.06 1272.48 1808.06 1271.07 1807.43 1270.02 1806.17 1268.96 1804.92 1268.44 1803.32 1268.44 1801.37 1268.44 1799.62 1268.88 1797.03 1269.77 1793.63L1271.56 1786.62C1272.21 1784.08 1272.63 1782.2 1272.83 1780.99 1273.04 1779.77 1273.14 1778.78 1273.14 1778.03 1273.14 1776.16 1272.83 1774.82 1272.21 1774 1271.58 1773.17 1270.57 1772.76 1269.17 1772.76 1268.03 1772.76 1266.81 1773.21 1265.5 1774.12 1264.19 1775.02 1262.8 1776.39 1261.32 1778.21 1259.85 1780.03 1258.67 1781.8 1257.78 1783.52 1256.89 1785.23 1256.16 1787.35 1255.59 1789.86L1251.74 1807.41 1244.73 1807.41 1250.65 1781.72C1251.24 1779.12 1251.54 1777.12 1251.54 1775.72 1251.54 1774.64 1251.36 1773.85 1251.01 1773.37 1250.66 1772.88 1250.11 1772.64 1249.35 1772.64 1248.51 1772.64 1247.63 1772.98 1246.69 1773.67 1245.76 1774.36 1244.49 1775.61 1242.86 1777.42L1240.55 1775.15C1243.04 1772.56 1245.11 1770.71 1246.76 1769.62 1248.4 1768.52 1250.27 1767.98 1252.35 1767.98Z" fill-rule="evenodd"/><text fill="#000000" fill-opacity="0" font-family="Arial,Arial_MSFontService,sans-serif" font-size="40.0815" x="1240.55" y="1803.05">𝑛</text><path d="M1264.44 1869.07C1269.47 1869.07 1273.26 1870.17 1275.83 1872.38 1278.4 1874.58 1279.68 1877.77 1279.68 1881.96 1279.68 1883.39 1279.54 1884.71 1279.26 1885.91 1278.97 1887.11 1278.53 1888.3 1277.92 1889.48 1277.31 1890.65 1276.49 1891.92 1275.47 1893.27 1274.44 1894.62 1273.31 1895.99 1272.06 1897.38 1270.82 1898.77 1268.67 1901.09 1265.62 1904.33 1260.49 1909.76 1256.72 1914.5 1254.31 1918.56L1269.59 1918.56C1270.91 1918.56 1271.98 1918.48 1272.79 1918.31 1273.6 1918.15 1274.25 1917.88 1274.74 1917.5 1275.22 1917.12 1275.61 1916.63 1275.89 1916.02 1276.18 1915.42 1276.53 1914.48 1276.97 1913.21L1280.41 1913.21 1279.72 1925.04 1246.37 1925.04 1246.37 1923.1C1247.53 1920.26 1249.1 1917.35 1251.07 1914.38 1253.04 1911.41 1255.84 1907.91 1259.46 1903.89 1262.59 1900.43 1264.85 1897.81 1266.23 1896.02 1267.74 1894.08 1268.87 1892.4 1269.61 1890.98 1270.35 1889.56 1270.89 1888.22 1271.21 1886.97 1271.54 1885.71 1271.7 1884.45 1271.7 1883.18 1271.7 1881.15 1271.37 1879.36 1270.73 1877.81 1270.08 1876.25 1269.08 1875.03 1267.75 1874.14 1266.41 1873.25 1264.73 1872.8 1262.7 1872.8 1257.65 1872.8 1254.24 1875.61 1252.49 1881.23L1247.58 1881.23 1247.58 1873.45C1250.85 1871.91 1253.91 1870.8 1256.76 1870.11 1259.61 1869.42 1262.17 1869.07 1264.44 1869.07Z" fill-rule="evenodd"/><text fill="#000000" fill-opacity="0" font-family="Arial,Arial_MSFontService,sans-serif" font-size="55.9683" x="1246.37" y="1918.05">2</text><path d="M1239.99 1843.85 1256.32 1843.85 1272.65 1843.85 1288.99 1843.85 1288.99 1848.85 1272.65 1848.85 1256.32 1848.85 1239.99 1848.85Z" fill-rule="evenodd"/><path d="M1675.64 1767.98C1677.34 1767.98 1678.68 1768.54 1679.67 1769.66 1680.66 1770.78 1681.15 1772.25 1681.15 1774.06 1681.15 1775.49 1680.83 1777.08 1680.18 1778.84L1680.66 1779C1683.31 1775.27 1685.83 1772.51 1688.22 1770.71 1690.61 1768.92 1693.08 1768.02 1695.62 1768.02 1698.13 1768.02 1700.06 1768.74 1701.41 1770.19 1702.76 1771.63 1703.44 1773.64 1703.44 1776.2 1703.44 1777.91 1703.05 1780.32 1702.26 1783.46L1699.63 1794.08C1698.9 1797.02 1698.54 1799.1 1698.54 1800.32 1698.54 1801.4 1698.71 1802.18 1699.06 1802.67 1699.41 1803.15 1699.97 1803.4 1700.72 1803.4 1701.53 1803.4 1702.4 1803.07 1703.32 1802.4 1704.24 1801.74 1705.53 1800.48 1707.21 1798.62L1709.52 1800.89C1707.2 1803.37 1705.17 1805.19 1703.44 1806.34 1701.71 1807.48 1699.74 1808.06 1697.52 1808.06 1695.77 1808.06 1694.36 1807.43 1693.31 1806.17 1692.25 1804.92 1691.73 1803.32 1691.73 1801.37 1691.73 1799.62 1692.17 1797.03 1693.06 1793.63L1694.85 1786.62C1695.5 1784.08 1695.92 1782.2 1696.12 1780.99 1696.33 1779.77 1696.43 1778.78 1696.43 1778.03 1696.43 1776.16 1696.12 1774.82 1695.5 1774 1694.87 1773.17 1693.86 1772.76 1692.46 1772.76 1691.32 1772.76 1690.1 1773.21 1688.79 1774.12 1687.48 1775.02 1686.09 1776.39 1684.61 1778.21 1683.14 1780.03 1681.96 1781.8 1681.07 1783.52 1680.18 1785.23 1679.45 1787.35 1678.88 1789.86L1675.03 1807.41 1668.02 1807.41 1673.94 1781.72C1674.53 1779.12 1674.83 1777.12 1674.83 1775.72 1674.83 1774.64 1674.65 1773.85 1674.3 1773.37 1673.95 1772.88 1673.4 1772.64 1672.64 1772.64 1671.8 1772.64 1670.92 1772.98 1669.98 1773.67 1669.05 1774.36 1667.78 1775.61 1666.15 1777.42L1663.84 1775.15C1666.33 1772.56 1668.4 1770.71 1670.05 1769.62 1671.69 1768.52 1673.56 1767.98 1675.64 1767.98Z" fill-rule="evenodd"/><text fill="#000000" fill-opacity="0" font-family="Arial,Arial_MSFontService,sans-serif" font-size="40.0815" x="1663.84" y="1803.05">𝑛</text><path d="M1687.73 1869.07C1692.76 1869.07 1696.55 1870.17 1699.12 1872.38 1701.69 1874.58 1702.97 1877.77 1702.97 1881.96 1702.97 1883.39 1702.83 1884.71 1702.55 1885.91 1702.26 1887.11 1701.82 1888.3 1701.21 1889.48 1700.6 1890.65 1699.78 1891.92 1698.76 1893.27 1697.73 1894.62 1696.6 1895.99 1695.35 1897.38 1694.11 1898.77 1691.96 1901.09 1688.91 1904.33 1683.78 1909.76 1680.01 1914.5 1677.6 1918.56L1692.88 1918.56C1694.2 1918.56 1695.27 1918.48 1696.08 1918.31 1696.89 1918.15 1697.54 1917.88 1698.03 1917.5 1698.51 1917.12 1698.9 1916.63 1699.18 1916.02 1699.47 1915.42 1699.82 1914.48 1700.26 1913.21L1703.7 1913.21 1703.01 1925.04 1669.66 1925.04 1669.66 1923.1C1670.82 1920.26 1672.39 1917.35 1674.36 1914.38 1676.33 1911.41 1679.13 1907.91 1682.75 1903.89 1685.88 1900.43 1688.14 1897.81 1689.52 1896.02 1691.03 1894.08 1692.16 1892.4 1692.9 1890.98 1693.64 1889.56 1694.18 1888.22 1694.5 1886.97 1694.83 1885.71 1694.99 1884.45 1694.99 1883.18 1694.99 1881.15 1694.66 1879.36 1694.02 1877.81 1693.37 1876.25 1692.37 1875.03 1691.04 1874.14 1689.7 1873.25 1688.02 1872.8 1685.99 1872.8 1680.94 1872.8 1677.53 1875.61 1675.78 1881.23L1670.87 1881.23 1670.87 1873.45C1674.14 1871.91 1677.2 1870.8 1680.05 1870.11 1682.9 1869.42 1685.46 1869.07 1687.73 1869.07Z" fill-rule="evenodd"/><text fill="#000000" fill-opacity="0" font-family="Arial,Arial_MSFontService,sans-serif" font-size="55.9683" x="1669.66" y="1918.05">2</text><path d="M1663.28 1843.85 1679.61 1843.85 1695.94 1843.85 1712.28 1843.85 1712.28 1848.85 1695.94 1848.85 1679.61 1848.85 1663.28 1848.85Z" fill-rule="evenodd"/><path d="M0 0 204.055 39.1778" stroke="#000000" stroke-width="4.58333" stroke-miterlimit="8" fill="none" fill-rule="evenodd" transform="matrix(-1 0 0 1 1468.56 1700.5)"/><path d="M1468.5 1700.5 1687.73 1739.68" stroke="#000000" stroke-width="4.58333" stroke-miterlimit="8" fill="none" fill-rule="evenodd"/><path d="M0 0 124.954 55.1411" stroke="#000000" stroke-width="4.58333" stroke-miterlimit="8" fill="none" fill-rule="evenodd" transform="matrix(-1 0 0 1 1264.45 1943.5)"/><path d="M1060.83 2073.55 1103.14 2073.55 1099.98 2087.81 1096.09 2087.81C1096.09 2085.19 1096.02 2083.23 1095.88 2081.92 1095.75 2080.61 1095.49 2079.61 1095.11 2078.92 1094.74 2078.23 1094.27 2077.75 1093.72 2077.5 1093.16 2077.24 1092.18 2077.11 1090.78 2077.11L1084.78 2077.11 1075.99 2117.07C1075.74 2118.13 1075.57 2118.96 1075.48 2119.59 1075.38 2120.21 1075.3 2120.86 1075.24 2121.55 1075.17 2122.24 1075.13 2122.85 1075.13 2123.4 1075.13 2124.23 1075.27 2124.89 1075.54 2125.36 1075.81 2125.83 1076.22 2126.18 1076.76 2126.39 1077.3 2126.61 1078.23 2126.77 1079.55 2126.88L1079.11 2128.87 1062.04 2128.87 1062.49 2126.88C1063.57 2126.72 1064.37 2126.5 1064.88 2126.23 1065.39 2125.96 1065.85 2125.54 1066.24 2124.98 1066.63 2124.41 1067.02 2123.52 1067.41 2122.3 1067.81 2121.09 1068.27 2119.25 1068.81 2116.79L1077.49 2077.11 1072.34 2077.11C1070.66 2077.11 1069.33 2077.36 1068.33 2077.84 1067.33 2078.33 1066.33 2079.23 1065.33 2080.56 1064.33 2081.88 1063.11 2084.1 1061.68 2087.2L1057.79 2087.2Z" fill-rule="evenodd"/><text fill="#000000" fill-opacity="0" font-family="Arial,Arial_MSFontService,sans-serif" font-size="55.3198" x="1057.79" y="2121.95">𝑇</text><path d="M1137.85 2070.3 1138.94 2073.43C1132.62 2075.51 1127.94 2079.56 1124.9 2085.6 1121.86 2091.64 1120.34 2099.23 1120.34 2108.36 1120.34 2117.82 1121.86 2125.61 1124.9 2131.74 1127.94 2137.88 1132.58 2141.98 1138.82 2144.06L1137.85 2147.18C1129.93 2145.1 1123.87 2140.63 1119.65 2133.75 1115.44 2126.87 1113.33 2118.55 1113.33 2108.76 1113.33 2099.01 1115.44 2090.68 1119.67 2083.78 1123.9 2076.88 1129.96 2072.38 1137.85 2070.3Z" fill-rule="evenodd"/><text fill="#000000" fill-opacity="0" font-family="Arial,Arial_MSFontService,sans-serif" font-size="76.8804" x="1113.33" y="2137.57">(</text><path d="M1153.17 2026.99C1154.88 2026.99 1156.22 2027.55 1157.21 2028.67 1158.19 2029.79 1158.69 2031.25 1158.69 2033.06 1158.69 2034.5 1158.36 2036.09 1157.71 2037.85L1158.2 2038.01C1160.85 2034.28 1163.37 2031.52 1165.76 2029.72 1168.15 2027.92 1170.61 2027.03 1173.15 2027.03 1175.67 2027.03 1177.6 2027.75 1178.95 2029.19 1180.3 2030.64 1180.98 2032.65 1180.98 2035.21 1180.98 2036.91 1180.58 2039.33 1179.8 2042.47L1177.17 2053.08C1176.44 2056.03 1176.07 2058.11 1176.07 2059.33 1176.07 2060.41 1176.25 2061.19 1176.6 2061.68 1176.95 2062.16 1177.5 2062.41 1178.26 2062.41 1179.07 2062.41 1179.94 2062.08 1180.85 2061.41 1181.77 2060.75 1183.07 2059.49 1184.75 2057.62L1187.06 2059.89C1184.73 2062.38 1182.71 2064.2 1180.98 2065.34 1179.25 2066.49 1177.27 2067.07 1175.06 2067.07 1173.3 2067.07 1171.9 2066.44 1170.84 2065.18 1169.79 2063.93 1169.26 2062.33 1169.26 2060.38 1169.26 2058.62 1169.71 2056.04 1170.6 2052.64L1172.38 2045.63C1173.03 2043.09 1173.46 2041.21 1173.66 2039.99 1173.86 2038.78 1173.96 2037.79 1173.96 2037.04 1173.96 2035.17 1173.65 2033.83 1173.03 2033 1172.41 2032.18 1171.4 2031.77 1169.99 2031.77 1168.86 2031.77 1167.64 2032.22 1166.33 2033.13 1165.02 2034.03 1163.62 2035.39 1162.15 2037.22 1160.68 2039.04 1159.5 2040.81 1158.6 2042.53 1157.71 2044.24 1156.98 2046.36 1156.42 2048.87L1152.57 2066.42 1145.56 2066.42 1151.47 2040.72C1152.07 2038.13 1152.36 2036.13 1152.36 2034.73 1152.36 2033.65 1152.19 2032.86 1151.84 2032.38 1151.49 2031.89 1150.93 2031.65 1150.18 2031.65 1149.34 2031.65 1148.45 2031.99 1147.52 2032.68 1146.59 2033.37 1145.31 2034.62 1143.69 2036.43L1141.38 2034.16C1143.87 2031.56 1145.93 2029.72 1147.58 2028.63 1149.23 2027.53 1151.09 2026.99 1153.17 2026.99Z" fill-rule="evenodd"/><text fill="#000000" fill-opacity="0" font-family="Arial,Arial_MSFontService,sans-serif" font-size="40.0815" x="1141.38" y="2062.06">𝑛</text><path d="M1167.62 2137.61 1151.77 2162.77 1151.77 2163.34 1167.62 2163.34 1167.62 2153.25C1167.62 2150.71 1167.66 2147.87 1167.74 2144.72 1167.82 2141.57 1167.92 2139.2 1168.03 2137.61ZM1168.8 2128.45 1174.59 2128.45 1174.59 2163.34 1175.44 2163.34C1177.01 2163.34 1178.13 2163.23 1178.81 2163 1179.48 2162.77 1180.04 2162.36 1180.49 2161.78 1180.93 2161.2 1181.35 2160.25 1181.72 2158.92L1184.8 2158.92 1184.32 2167.27 1174.59 2167.27 1174.59 2173.92C1174.59 2175.73 1174.65 2177.05 1174.77 2177.89 1174.89 2178.73 1175.1 2179.39 1175.38 2179.88 1175.66 2180.36 1176.08 2180.77 1176.64 2181.09 1177.19 2181.42 1178.09 2181.74 1179.33 2182.06L1179.33 2184.05 1162.88 2184.05 1162.88 2182.06C1164.55 2181.63 1165.67 2181.15 1166.24 2180.63 1166.81 2180.1 1167.18 2179.35 1167.36 2178.38 1167.53 2177.4 1167.62 2175.92 1167.62 2173.92L1167.62 2167.27 1145.09 2167.27 1145.09 2164.23Z" fill-rule="evenodd"/><text fill="#000000" fill-opacity="0" font-family="Arial,Arial_MSFontService,sans-serif" font-size="55.6035" x="1145.09" y="2177.1">4</text><path d="M1140.53 2102.86 1165.03 2102.86 1189.53 2102.86 1189.53 2107.86 1165.03 2107.86 1140.53 2107.86Z" fill-rule="evenodd"/><path d="M1192.02 2070.3C1199.9 2072.38 1205.96 2076.88 1210.19 2083.78 1214.42 2090.68 1216.53 2099.01 1216.53 2108.76 1216.53 2118.55 1214.43 2126.87 1210.21 2133.75 1206 2140.63 1199.93 2145.1 1192.02 2147.18L1191.04 2144.06C1197.28 2141.98 1201.92 2137.88 1204.96 2131.74 1208 2125.61 1209.52 2117.82 1209.52 2108.36 1209.52 2099.23 1208.01 2091.64 1204.98 2085.6 1201.96 2079.56 1197.27 2075.51 1190.92 2073.43Z" fill-rule="evenodd"/><text fill="#000000" fill-opacity="0" font-family="Arial,Arial_MSFontService,sans-serif" font-size="76.8804" x="1190.92" y="2137.57">)</text><path d="M1298.75 2072.23 1341.06 2072.23 1337.9 2086.5 1334.01 2086.5C1334.01 2083.88 1333.94 2081.91 1333.81 2080.6 1333.67 2079.29 1333.42 2078.29 1333.04 2077.6 1332.66 2076.91 1332.19 2076.44 1331.64 2076.18 1331.09 2075.93 1330.11 2075.8 1328.7 2075.8L1322.7 2075.8 1313.91 2115.76C1313.67 2116.81 1313.5 2117.65 1313.4 2118.27 1313.31 2118.89 1313.23 2119.55 1313.16 2120.24 1313.09 2120.92 1313.06 2121.54 1313.06 2122.08 1313.06 2122.92 1313.19 2123.57 1313.46 2124.04 1313.73 2124.52 1314.14 2124.86 1314.68 2125.08 1315.22 2125.29 1316.15 2125.46 1317.47 2125.56L1317.03 2127.55 1299.97 2127.55 1300.41 2125.56C1301.49 2125.4 1302.29 2125.19 1302.8 2124.92 1303.32 2124.65 1303.77 2124.23 1304.16 2123.66 1304.55 2123.09 1304.94 2122.2 1305.34 2120.99 1305.73 2119.77 1306.19 2117.93 1306.73 2115.47L1315.41 2075.8 1310.26 2075.8C1308.59 2075.8 1307.25 2076.04 1306.25 2076.53 1305.25 2077.01 1304.25 2077.92 1303.25 2079.24 1302.25 2080.57 1301.03 2082.78 1299.6 2085.89L1295.71 2085.89Z" fill-rule="evenodd"/><text fill="#000000" fill-opacity="0" font-family="Arial,Arial_MSFontService,sans-serif" font-size="55.3198" x="1295.71" y="2120.64">𝑇</text><path d="M1375.77 2068.99 1376.86 2072.11C1370.54 2074.19 1365.86 2078.25 1362.82 2084.29 1359.78 2090.33 1358.26 2097.91 1358.26 2107.04 1358.26 2116.5 1359.78 2124.29 1362.82 2130.43 1365.86 2136.56 1370.5 2140.67 1376.74 2142.75L1375.77 2145.87C1367.85 2143.79 1361.79 2139.31 1357.57 2132.43 1353.36 2125.56 1351.25 2117.23 1351.25 2107.45 1351.25 2097.7 1353.36 2089.37 1357.59 2082.46 1361.82 2075.56 1367.88 2071.07 1375.77 2068.99Z" fill-rule="evenodd"/><text fill="#000000" fill-opacity="0" font-family="Arial,Arial_MSFontService,sans-serif" font-size="76.8804" x="1351.25" y="2136.26">(</text><path d="M1391.1 2025.67C1392.8 2025.67 1394.14 2026.23 1395.13 2027.35 1396.12 2028.47 1396.61 2029.94 1396.61 2031.75 1396.61 2033.18 1396.28 2034.77 1395.64 2036.53L1396.12 2036.69C1398.77 2032.96 1401.29 2030.2 1403.68 2028.41 1406.07 2026.61 1408.54 2025.71 1411.08 2025.71 1413.59 2025.71 1415.52 2026.43 1416.87 2027.88 1418.22 2029.32 1418.9 2031.33 1418.9 2033.9 1418.9 2035.6 1418.51 2038.02 1417.72 2041.15L1415.09 2051.77C1414.36 2054.71 1413.99 2056.79 1413.99 2058.01 1413.99 2059.09 1414.17 2059.87 1414.52 2060.36 1414.87 2060.85 1415.43 2061.09 1416.18 2061.09 1416.99 2061.09 1417.86 2060.76 1418.78 2060.1 1419.7 2059.44 1420.99 2058.17 1422.67 2056.31L1424.98 2058.58C1422.65 2061.06 1420.63 2062.88 1418.9 2064.03 1417.17 2065.18 1415.2 2065.75 1412.98 2065.75 1411.23 2065.75 1409.82 2065.12 1408.77 2063.87 1407.71 2062.61 1407.19 2061.01 1407.19 2059.06 1407.19 2057.31 1407.63 2054.73 1408.52 2051.32L1410.31 2044.31C1410.96 2041.77 1411.38 2039.89 1411.58 2038.68 1411.79 2037.46 1411.89 2036.48 1411.89 2035.72 1411.89 2033.86 1411.58 2032.51 1410.96 2031.69 1410.33 2030.86 1409.32 2030.45 1407.92 2030.45 1406.78 2030.45 1405.56 2030.9 1404.25 2031.81 1402.94 2032.71 1401.55 2034.08 1400.07 2035.9 1398.6 2037.73 1397.42 2039.5 1396.53 2041.21 1395.64 2042.93 1394.91 2045.04 1394.34 2047.55L1390.49 2065.1 1383.48 2065.1 1389.39 2039.41C1389.99 2036.81 1390.29 2034.82 1390.29 2033.41 1390.29 2032.33 1390.11 2031.55 1389.76 2031.06 1389.41 2030.57 1388.85 2030.33 1388.1 2030.33 1387.26 2030.33 1386.38 2030.67 1385.44 2031.36 1384.51 2032.05 1383.23 2033.3 1381.61 2035.11L1379.3 2032.84C1381.79 2030.25 1383.86 2028.41 1385.5 2027.31 1387.15 2026.22 1389.02 2025.67 1391.1 2025.67Z" fill-rule="evenodd"/><text fill="#000000" fill-opacity="0" font-family="Arial,Arial_MSFontService,sans-serif" font-size="40.0815" x="1379.3" y="2060.74">𝑛</text><path d="M1405.54 2136.29 1389.7 2161.46 1389.7 2162.02 1405.54 2162.02 1405.54 2151.93C1405.54 2149.39 1405.58 2146.55 1405.66 2143.4 1405.75 2140.25 1405.84 2137.88 1405.95 2136.29ZM1406.72 2127.13 1412.51 2127.13 1412.51 2162.02 1413.36 2162.02C1414.93 2162.02 1416.05 2161.91 1416.73 2161.68 1417.4 2161.45 1417.96 2161.04 1418.41 2160.46 1418.86 2159.88 1419.27 2158.93 1419.65 2157.61L1422.73 2157.61 1422.24 2165.96 1412.51 2165.96 1412.51 2172.6C1412.51 2174.41 1412.57 2175.74 1412.7 2176.57 1412.82 2177.41 1413.02 2178.07 1413.3 2178.56 1413.59 2179.05 1414.01 2179.45 1414.56 2179.78 1415.11 2180.1 1416.01 2180.42 1417.26 2180.75L1417.26 2182.73 1400.8 2182.73 1400.8 2180.75C1402.48 2180.32 1403.6 2179.84 1404.17 2179.31 1404.73 2178.78 1405.1 2178.03 1405.28 2177.06 1405.46 2176.09 1405.54 2174.6 1405.54 2172.6L1405.54 2165.96 1383.01 2165.96 1383.01 2162.92Z" fill-rule="evenodd"/><text fill="#000000" fill-opacity="0" font-family="Arial,Arial_MSFontService,sans-serif" font-size="55.6035" x="1383.01" y="2175.78">4</text><path d="M1378.45 2101.54 1402.95 2101.54 1427.45 2101.54 1427.45 2106.54 1402.95 2106.54 1378.45 2106.54Z" fill-rule="evenodd"/><path d="M1429.94 2068.99C1437.83 2071.07 1443.89 2075.56 1448.11 2082.46 1452.34 2089.37 1454.46 2097.7 1454.46 2107.45 1454.46 2117.23 1452.35 2125.56 1448.13 2132.43 1443.92 2139.31 1437.85 2143.79 1429.94 2145.87L1428.97 2142.75C1435.21 2140.67 1439.85 2136.56 1442.89 2130.43 1445.93 2124.29 1447.45 2116.5 1447.45 2107.04 1447.45 2097.91 1445.93 2090.33 1442.91 2084.29 1439.88 2078.25 1435.19 2074.19 1428.84 2072.11Z" fill-rule="evenodd"/><text fill="#000000" fill-opacity="0" font-family="Arial,Arial_MSFontService,sans-serif" font-size="76.8804" x="1428.84" y="2136.26">)</text><path d="M1264.5 1943.5 1377.47 1997.33" stroke="#000000" stroke-width="4.58333" stroke-miterlimit="8" fill="none" fill-rule="evenodd"/><path d="M1496.94 2074.86 1539.25 2074.86 1536.09 2089.13 1532.2 2089.13C1532.2 2086.51 1532.13 2084.54 1531.99 2083.23 1531.86 2081.92 1531.6 2080.92 1531.22 2080.23 1530.84 2079.54 1530.38 2079.07 1529.82 2078.81 1529.27 2078.56 1528.29 2078.43 1526.89 2078.43L1520.89 2078.43 1512.09 2118.39C1511.85 2119.44 1511.68 2120.28 1511.59 2120.9 1511.49 2121.52 1511.41 2122.18 1511.34 2122.87 1511.28 2123.56 1511.24 2124.17 1511.24 2124.71 1511.24 2125.55 1511.38 2126.2 1511.65 2126.68 1511.92 2127.15 1512.32 2127.49 1512.86 2127.71 1513.4 2127.93 1514.34 2128.09 1515.66 2128.2L1515.21 2130.18 1498.15 2130.18 1498.6 2128.2C1499.68 2128.03 1500.48 2127.82 1500.99 2127.55 1501.5 2127.28 1501.96 2126.86 1502.35 2126.29 1502.74 2125.72 1503.13 2124.83 1503.52 2123.62 1503.91 2122.4 1504.38 2120.56 1504.92 2118.1L1513.59 2078.43 1508.45 2078.43C1506.77 2078.43 1505.43 2078.67 1504.43 2079.16 1503.43 2079.64 1502.43 2080.55 1501.44 2081.87 1500.44 2083.2 1499.22 2085.41 1497.79 2088.52L1493.9 2088.52Z" fill-rule="evenodd"/><text fill="#000000" fill-opacity="0" font-family="Arial,Arial_MSFontService,sans-serif" font-size="55.3198" x="1493.9" y="2123.27">𝑇</text><path d="M1573.96 2071.62 1575.05 2074.74C1568.73 2076.82 1564.05 2080.88 1561.01 2086.92 1557.97 2092.96 1556.45 2100.54 1556.45 2109.68 1556.45 2119.13 1557.97 2126.93 1561.01 2133.06 1564.05 2139.19 1568.69 2143.3 1574.93 2145.38L1573.96 2148.5C1566.04 2146.42 1559.97 2141.94 1555.76 2135.07 1551.54 2128.19 1549.44 2119.86 1549.44 2110.08 1549.44 2100.33 1551.55 2092 1555.78 2085.1 1560.01 2078.19 1566.07 2073.7 1573.96 2071.62Z" fill-rule="evenodd"/><text fill="#000000" fill-opacity="0" font-family="Arial,Arial_MSFontService,sans-serif" font-size="76.8804" x="1549.44" y="2138.89">(</text><path d="M1589.28 2028.3C1590.98 2028.3 1592.33 2028.86 1593.31 2029.98 1594.3 2031.1 1594.79 2032.57 1594.79 2034.38 1594.79 2035.81 1594.47 2037.41 1593.82 2039.16L1594.31 2039.32C1596.96 2035.6 1599.47 2032.83 1601.87 2031.04 1604.26 2029.24 1606.72 2028.34 1609.26 2028.34 1611.78 2028.34 1613.71 2029.06 1615.06 2030.51 1616.41 2031.96 1617.08 2033.96 1617.08 2036.53 1617.08 2038.23 1616.69 2040.65 1615.91 2043.78L1613.27 2054.4C1612.55 2057.35 1612.18 2059.43 1612.18 2060.64 1612.18 2061.72 1612.36 2062.51 1612.71 2062.99 1613.06 2063.48 1613.61 2063.72 1614.37 2063.72 1615.18 2063.72 1616.04 2063.39 1616.96 2062.73 1617.88 2062.07 1619.18 2060.8 1620.85 2058.94L1623.16 2061.21C1620.84 2063.7 1618.81 2065.51 1617.08 2066.66 1615.35 2067.81 1613.38 2068.38 1611.17 2068.38 1609.41 2068.38 1608.01 2067.75 1606.95 2066.5 1605.9 2065.24 1605.37 2063.64 1605.37 2061.7 1605.37 2059.94 1605.82 2057.36 1606.71 2053.96L1608.49 2046.94C1609.14 2044.4 1609.57 2042.53 1609.77 2041.31 1609.97 2040.09 1610.07 2039.11 1610.07 2038.35 1610.07 2036.49 1609.76 2035.14 1609.14 2034.32 1608.52 2033.5 1607.51 2033.08 1606.1 2033.08 1604.97 2033.08 1603.74 2033.54 1602.43 2034.44 1601.12 2035.35 1599.73 2036.71 1598.26 2038.53 1596.79 2040.36 1595.6 2042.13 1594.71 2043.84 1593.82 2045.56 1593.09 2047.67 1592.52 2050.19L1588.67 2067.73 1581.66 2067.73 1587.58 2042.04C1588.17 2039.45 1588.47 2037.45 1588.47 2036.04 1588.47 2034.96 1588.3 2034.18 1587.94 2033.69 1587.59 2033.21 1587.04 2032.96 1586.28 2032.96 1585.45 2032.96 1584.56 2033.31 1583.63 2034 1582.7 2034.68 1581.42 2035.93 1579.8 2037.74L1577.49 2035.47C1579.97 2032.88 1582.04 2031.04 1583.69 2029.94 1585.34 2028.85 1587.2 2028.3 1589.28 2028.3Z" fill-rule="evenodd"/><text fill="#000000" fill-opacity="0" font-family="Arial,Arial_MSFontService,sans-serif" font-size="40.0815" x="1577.49" y="2063.37">𝑛</text><path d="M1603.73 2138.92 1587.88 2164.09 1587.88 2164.66 1603.73 2164.66 1603.73 2154.56C1603.73 2152.02 1603.77 2149.18 1603.85 2146.03 1603.93 2142.89 1604.03 2140.52 1604.13 2138.92ZM1604.9 2129.76 1610.7 2129.76 1610.7 2164.66 1611.55 2164.66C1613.12 2164.66 1614.24 2164.54 1614.91 2164.31 1615.59 2164.08 1616.15 2163.68 1616.6 2163.1 1617.04 2162.51 1617.45 2161.56 1617.83 2160.24L1620.91 2160.24 1620.43 2168.59 1610.7 2168.59 1610.7 2175.23C1610.7 2177.04 1610.76 2178.37 1610.88 2179.21 1611 2180.04 1611.21 2180.7 1611.49 2181.19 1611.77 2181.68 1612.19 2182.08 1612.75 2182.41 1613.3 2182.73 1614.2 2183.06 1615.44 2183.38L1615.44 2185.37 1598.99 2185.37 1598.99 2183.38C1600.66 2182.95 1601.78 2182.47 1602.35 2181.94 1602.92 2181.41 1603.29 2180.66 1603.46 2179.69 1603.64 2178.72 1603.73 2177.23 1603.73 2175.23L1603.73 2168.59 1581.2 2168.59 1581.2 2165.55Z" fill-rule="evenodd"/><text fill="#000000" fill-opacity="0" font-family="Arial,Arial_MSFontService,sans-serif" font-size="55.6035" x="1581.2" y="2178.42">4</text><path d="M1576.64 2104.17 1601.14 2104.17 1625.64 2104.17 1625.64 2109.17 1601.14 2109.17 1576.64 2109.17Z" fill-rule="evenodd"/><path d="M1628.12 2071.62C1636.01 2073.7 1642.07 2078.19 1646.3 2085.1 1650.53 2092 1652.64 2100.33 1652.64 2110.08 1652.64 2119.86 1650.54 2128.19 1646.32 2135.07 1642.11 2141.94 1636.04 2146.42 1628.12 2148.5L1627.15 2145.38C1633.39 2143.3 1638.03 2139.19 1641.07 2133.06 1644.11 2126.93 1645.63 2119.13 1645.63 2109.68 1645.63 2100.54 1644.12 2092.96 1641.09 2086.92 1638.07 2080.88 1633.38 2076.82 1627.03 2074.74Z" fill-rule="evenodd"/><text fill="#000000" fill-opacity="0" font-family="Arial,Arial_MSFontService,sans-serif" font-size="76.8804" x="1627.03" y="2138.89">)</text><path d="M1734.86 2073.55 1777.17 2073.55 1774.01 2087.81 1770.12 2087.81C1770.12 2085.19 1770.05 2083.23 1769.92 2081.92 1769.78 2080.61 1769.52 2079.61 1769.15 2078.92 1768.77 2078.23 1768.3 2077.75 1767.75 2077.5 1767.19 2077.24 1766.21 2077.11 1764.81 2077.11L1758.81 2077.11 1750.02 2117.07C1749.77 2118.13 1749.6 2118.96 1749.51 2119.59 1749.42 2120.21 1749.33 2120.86 1749.27 2121.55 1749.2 2122.24 1749.17 2122.85 1749.17 2123.4 1749.17 2124.23 1749.3 2124.89 1749.57 2125.36 1749.84 2125.83 1750.25 2126.18 1750.79 2126.39 1751.33 2126.61 1752.26 2126.77 1753.58 2126.88L1753.14 2128.87 1736.07 2128.87 1736.52 2126.88C1737.6 2126.72 1738.4 2126.5 1738.91 2126.23 1739.43 2125.96 1739.88 2125.54 1740.27 2124.98 1740.66 2124.41 1741.05 2123.52 1741.44 2122.3 1741.84 2121.09 1742.3 2119.25 1742.84 2116.79L1751.52 2077.11 1746.37 2077.11C1744.69 2077.11 1743.36 2077.36 1742.36 2077.84 1741.36 2078.33 1740.36 2079.23 1739.36 2080.56 1738.36 2081.88 1737.14 2084.1 1735.71 2087.2L1731.82 2087.2Z" fill-rule="evenodd"/><text fill="#000000" fill-opacity="0" font-family="Arial,Arial_MSFontService,sans-serif" font-size="55.3198" x="1731.82" y="2121.95">𝑇</text><path d="M1811.88 2070.3 1812.97 2073.43C1806.65 2075.51 1801.97 2079.56 1798.93 2085.6 1795.89 2091.64 1794.37 2099.23 1794.37 2108.36 1794.37 2117.82 1795.89 2125.61 1798.93 2131.74 1801.97 2137.88 1806.61 2141.98 1812.85 2144.06L1811.88 2147.18C1803.96 2145.1 1797.9 2140.63 1793.68 2133.75 1789.47 2126.87 1787.36 2118.55 1787.36 2108.76 1787.36 2099.01 1789.47 2090.68 1793.7 2083.78 1797.93 2076.88 1803.99 2072.38 1811.88 2070.3Z" fill-rule="evenodd"/><text fill="#000000" fill-opacity="0" font-family="Arial,Arial_MSFontService,sans-serif" font-size="76.8804" x="1787.36" y="2137.57">(</text><path d="M1827.2 2026.99C1828.91 2026.99 1830.25 2027.55 1831.24 2028.67 1832.22 2029.79 1832.72 2031.25 1832.72 2033.06 1832.72 2034.5 1832.39 2036.09 1831.74 2037.85L1832.23 2038.01C1834.88 2034.28 1837.4 2031.52 1839.79 2029.72 1842.18 2027.92 1844.65 2027.03 1847.18 2027.03 1849.7 2027.03 1851.63 2027.75 1852.98 2029.19 1854.33 2030.64 1855.01 2032.65 1855.01 2035.21 1855.01 2036.91 1854.61 2039.33 1853.83 2042.47L1851.2 2053.08C1850.47 2056.03 1850.1 2058.11 1850.1 2059.33 1850.1 2060.41 1850.28 2061.19 1850.63 2061.68 1850.98 2062.16 1851.53 2062.41 1852.29 2062.41 1853.1 2062.41 1853.97 2062.08 1854.89 2061.41 1855.8 2060.75 1857.1 2059.49 1858.78 2057.62L1861.09 2059.89C1858.76 2062.38 1856.74 2064.2 1855.01 2065.34 1853.28 2066.49 1851.31 2067.07 1849.09 2067.07 1847.33 2067.07 1845.93 2066.44 1844.87 2065.18 1843.82 2063.93 1843.29 2062.33 1843.29 2060.38 1843.29 2058.62 1843.74 2056.04 1844.63 2052.64L1846.41 2045.63C1847.06 2043.09 1847.49 2041.21 1847.69 2039.99 1847.89 2038.78 1848 2037.79 1848 2037.04 1848 2035.17 1847.68 2033.83 1847.06 2033 1846.44 2032.18 1845.43 2031.77 1844.02 2031.77 1842.89 2031.77 1841.67 2032.22 1840.36 2033.13 1839.05 2034.03 1837.65 2035.39 1836.18 2037.22 1834.71 2039.04 1833.53 2040.81 1832.64 2042.53 1831.74 2044.24 1831.01 2046.36 1830.45 2048.87L1826.6 2066.42 1819.59 2066.42 1825.5 2040.72C1826.1 2038.13 1826.39 2036.13 1826.39 2034.73 1826.39 2033.65 1826.22 2032.86 1825.87 2032.38 1825.52 2031.89 1824.96 2031.65 1824.21 2031.65 1823.37 2031.65 1822.48 2031.99 1821.55 2032.68 1820.62 2033.37 1819.34 2034.62 1817.72 2036.43L1815.41 2034.16C1817.9 2031.56 1819.96 2029.72 1821.61 2028.63 1823.26 2027.53 1825.12 2026.99 1827.2 2026.99Z" fill-rule="evenodd"/><text fill="#000000" fill-opacity="0" font-family="Arial,Arial_MSFontService,sans-serif" font-size="40.0815" x="1815.41" y="2062.06">𝑛</text><path d="M1841.65 2137.61 1825.8 2162.77 1825.8 2163.34 1841.65 2163.34 1841.65 2153.25C1841.65 2150.71 1841.69 2147.87 1841.77 2144.72 1841.85 2141.57 1841.95 2139.2 1842.06 2137.61ZM1842.83 2128.45 1848.62 2128.45 1848.62 2163.34 1849.47 2163.34C1851.04 2163.34 1852.16 2163.23 1852.84 2163 1853.51 2162.77 1854.07 2162.36 1854.52 2161.78 1854.96 2161.2 1855.38 2160.25 1855.75 2158.92L1858.83 2158.92 1858.35 2167.27 1848.62 2167.27 1848.62 2173.92C1848.62 2175.73 1848.68 2177.05 1848.8 2177.89 1848.93 2178.73 1849.13 2179.39 1849.41 2179.88 1849.7 2180.36 1850.11 2180.77 1850.67 2181.09 1851.22 2181.42 1852.12 2181.74 1853.36 2182.06L1853.36 2184.05 1836.91 2184.05 1836.91 2182.06C1838.58 2181.63 1839.71 2181.15 1840.27 2180.63 1840.84 2180.1 1841.21 2179.35 1841.39 2178.38 1841.56 2177.4 1841.65 2175.92 1841.65 2173.92L1841.65 2167.27 1819.12 2167.27 1819.12 2164.23Z" fill-rule="evenodd"/><text fill="#000000" fill-opacity="0" font-family="Arial,Arial_MSFontService,sans-serif" font-size="55.6035" x="1819.12" y="2177.1">4</text><path d="M1814.56 2102.86 1839.06 2102.86 1863.56 2102.86 1863.56 2107.86 1839.06 2107.86 1814.56 2107.86Z" fill-rule="evenodd"/><path d="M1866.05 2070.3C1873.94 2072.38 1879.99 2076.88 1884.22 2083.78 1888.45 2090.68 1890.57 2099.01 1890.57 2108.76 1890.57 2118.55 1888.46 2126.87 1884.24 2133.75 1880.03 2140.63 1873.96 2145.1 1866.05 2147.18L1865.07 2144.06C1871.31 2141.98 1875.96 2137.88 1878.99 2131.74 1882.03 2125.61 1883.55 2117.82 1883.55 2108.36 1883.55 2099.23 1882.04 2091.64 1879.01 2085.6 1875.99 2079.56 1871.3 2075.51 1864.95 2073.43Z" fill-rule="evenodd"/><text fill="#000000" fill-opacity="0" font-family="Arial,Arial_MSFontService,sans-serif" font-size="76.8804" x="1864.95" y="2137.57">)</text><path d="M0 0 112.136 56.4569" stroke="#000000" stroke-width="4.58333" stroke-miterlimit="8" fill="none" fill-rule="evenodd" transform="matrix(-1 0 0 1 1687.64 1943.5)"/><path d="M1688.5 1943.5 1814.29 1998.64" stroke="#000000" stroke-width="4.58333" stroke-miterlimit="8" fill="none" fill-rule="evenodd"/></g></svg>