<svg width="2003" height="884" xmlns="http://www.w3.org/2000/svg" xmlns:xlink="http://www.w3.org/1999/xlink" xml:space="preserve" overflow="hidden"><g transform="translate(-321 -1529)"><path d="M782.5 1611C782.5 1567.09 817.869 1531.5 861.5 1531.5 905.13 1531.5 940.5 1567.09 940.5 1611 940.5 1654.91 905.13 1690.5 861.5 1690.5 817.869 1690.5 782.5 1654.91 782.5 1611Z" stroke="#5C5C5C" stroke-width="4.58333" stroke-linejoin="round" stroke-miterlimit="10" fill="none" fill-rule="evenodd"/><text font-family="Calibri,Calibri_MSFontService,sans-serif" font-weight="400" font-size="83" transform="matrix(1 0 0 1 819.477 1647)">40</text><path d="M998.5 1840.5C998.5 1796.87 1033.87 1761.5 1077.5 1761.5 1121.13 1761.5 1156.5 1796.87 1156.5 1840.5 1156.5 1884.13 1121.13 1919.5 1077.5 1919.5 1033.87 1919.5 998.5 1884.13 998.5 1840.5Z" stroke="#5C5C5C" stroke-width="4.58333" stroke-linejoin="round" stroke-miterlimit="10" fill="none" fill-rule="evenodd"/><text font-family="Calibri,Calibri_MSFontService,sans-serif" font-weight="400" font-size="83" transform="matrix(1 0 0 1 1035.44 1877)">55</text><path d="M566.5 1840.5C566.5 1796.87 602.093 1761.5 646 1761.5 689.907 1761.5 725.5 1796.87 725.5 1840.5 725.5 1884.13 689.907 1919.5 646 1919.5 602.093 1919.5 566.5 1884.13 566.5 1840.5Z" stroke="#5C5C5C" stroke-width="4.58333" stroke-linejoin="round" stroke-miterlimit="10" fill="none" fill-rule="evenodd"/><text font-family="Calibri,Calibri_MSFontService,sans-serif" font-weight="400" font-size="83" transform="matrix(1 0 0 1 603.51 1877)">24</text><path d="M787.5 2105C787.5 2061.09 822.87 2025.5 866.5 2025.5 910.131 2025.5 945.5 2061.09 945.5 2105 945.5 2148.91 910.131 2184.5 866.5 2184.5 822.87 2184.5 787.5 2148.91 787.5 2105Z" stroke="#5C5C5C" stroke-width="4.58333" stroke-linejoin="round" stroke-miterlimit="10" fill="none" fill-rule="evenodd"/><text font-family="Calibri,Calibri_MSFontService,sans-serif" font-weight="400" font-size="83" transform="matrix(1 0 0 1 824.06 2141)">37</text><path d="M350.5 2105C350.5 2061.09 386.093 2025.5 430 2025.5 473.907 2025.5 509.5 2061.09 509.5 2105 509.5 2148.91 473.907 2184.5 430 2184.5 386.093 2184.5 350.5 2148.91 350.5 2105Z" stroke="#5C5C5C" stroke-width="4.58333" stroke-linejoin="round" stroke-miterlimit="10" fill="none" fill-rule="evenodd"/><text font-family="Calibri,Calibri_MSFontService,sans-serif" font-weight="400" font-size="83" transform="matrix(1 0 0 1 387.543 2141)">12</text><path d="M0 0 122.1 105.6" stroke="#000000" stroke-width="9.16667" stroke-linejoin="round" stroke-miterlimit="10" fill="none" fill-rule="evenodd" transform="matrix(-1 0 0 1 812.6 1673.5)"/><path d="M1037 1782.2 921.5 1653.5" stroke="#000000" stroke-width="9.16667" stroke-linejoin="round" stroke-miterlimit="10" fill="none" fill-rule="evenodd"/><path d="M0 0 128.7 122.1" stroke="#000000" stroke-width="9.16667" stroke-linejoin="round" stroke-miterlimit="10" fill="none" fill-rule="evenodd" transform="matrix(1 0 0 -1 472.5 2029.6)"/><path d="M828.5 2033.1 696.5 1894.5" stroke="#000000" stroke-width="9.16667" stroke-linejoin="round" stroke-miterlimit="10" fill="none" fill-rule="evenodd"/><path d="M1920.5 1611C1920.5 1567.09 1956.09 1531.5 2000 1531.5 2043.91 1531.5 2079.5 1567.09 2079.5 1611 2079.5 1654.91 2043.91 1690.5 2000 1690.5 1956.09 1690.5 1920.5 1654.91 1920.5 1611Z" stroke="#5C5C5C" stroke-width="4.58333" stroke-linejoin="round" stroke-miterlimit="10" fill="none" fill-rule="evenodd"/><text font-family="Calibri,Calibri_MSFontService,sans-serif" font-weight="400" font-size="83" transform="matrix(1 0 0 1 1957.77 1647)">40</text><path d="M2136.5 1840.5C2136.5 1796.87 2172.09 1761.5 2216 1761.5 2259.91 1761.5 2295.5 1796.87 2295.5 1840.5 2295.5 1884.13 2259.91 1919.5 2216 1919.5 2172.09 1919.5 2136.5 1884.13 2136.5 1840.5Z" stroke="#5C5C5C" stroke-width="4.58333" stroke-linejoin="round" stroke-miterlimit="10" fill="none" fill-rule="evenodd"/><text font-family="Calibri,Calibri_MSFontService,sans-serif" font-weight="400" font-size="83" transform="matrix(1 0 0 1 2173.73 1877)">55</text><path d="M1704.5 1840.5C1704.5 1796.87 1740.09 1761.5 1784 1761.5 1827.91 1761.5 1863.5 1796.87 1863.5 1840.5 1863.5 1884.13 1827.91 1919.5 1784 1919.5 1740.09 1919.5 1704.5 1884.13 1704.5 1840.5Z" stroke="#5C5C5C" stroke-width="4.58333" stroke-linejoin="round" stroke-miterlimit="10" fill="none" fill-rule="evenodd"/><text font-family="Calibri,Calibri_MSFontService,sans-serif" font-weight="400" font-size="83" transform="matrix(1 0 0 1 1741.8 1877)">37</text><path d="M1925.5 2105C1925.5 2061.09 1960.87 2025.5 2004.5 2025.5 2048.13 2025.5 2083.5 2061.09 2083.5 2105 2083.5 2148.91 2048.13 2184.5 2004.5 2184.5 1960.87 2184.5 1925.5 2148.91 1925.5 2105Z" stroke="#5C5C5C" stroke-width="4.58333" stroke-linejoin="round" stroke-miterlimit="10" fill="none" fill-rule="evenodd"/><text font-family="Calibri,Calibri_MSFontService,sans-serif" font-weight="400" font-size="83" transform="matrix(1 0 0 1 1962.35 2141)">24</text><path d="M1488.5 2105C1488.5 2061.09 1524.09 2025.5 1568 2025.5 1611.91 2025.5 1647.5 2061.09 1647.5 2105 1647.5 2148.91 1611.91 2184.5 1568 2184.5 1524.09 2184.5 1488.5 2148.91 1488.5 2105Z" stroke="#5C5C5C" stroke-width="4.58333" stroke-linejoin="round" stroke-miterlimit="10" fill="none" fill-rule="evenodd"/><text font-family="Calibri,Calibri_MSFontService,sans-serif" font-weight="400" font-size="83" transform="matrix(1 0 0 1 1525.83 2141)">12</text><path d="M0 0 122.1 105.6" stroke="#000000" stroke-width="9.16667" stroke-linejoin="round" stroke-miterlimit="10" fill="none" fill-rule="evenodd" transform="matrix(-1 0 0 1 1950.6 1673.5)"/><path d="M2175 1782.2 2059.5 1653.5" stroke="#000000" stroke-width="9.16667" stroke-linejoin="round" stroke-miterlimit="10" fill="none" fill-rule="evenodd"/><path d="M0 0 128.7 122.1" stroke="#000000" stroke-width="9.16667" stroke-linejoin="round" stroke-miterlimit="10" fill="none" fill-rule="evenodd" transform="matrix(1 0 0 -1 1610.5 2029.6)"/><path d="M1967.5 2033.1 1835.5 1894.5" stroke="#000000" stroke-width="9.16667" stroke-linejoin="round" stroke-miterlimit="10" fill="none" fill-rule="evenodd"/><text fill="#0188FB" font-family="Microsoft YaHei,Microsoft YaHei_MSFontService,sans-serif" font-weight="400" font-size="110" transform="matrix(1 0 0 1 421.978 2321)">认知：这两个树都是二叉排序树吗？</text></g></svg>