<svg width="2789" height="1165" xmlns="http://www.w3.org/2000/svg" xmlns:xlink="http://www.w3.org/1999/xlink" xml:space="preserve" overflow="hidden"><defs><clipPath id="clip0"><rect x="303" y="905" width="2789" height="1165"/></clipPath><clipPath id="clip1"><rect x="302" y="1822" width="1864" height="249"/></clipPath><clipPath id="clip2"><rect x="302" y="1822" width="1864" height="249"/></clipPath><clipPath id="clip3"><rect x="302" y="1822" width="1864" height="249"/></clipPath></defs><g clip-path="url(#clip0)" transform="translate(-303 -905)"><path d="M818.5 1089.5C818.5 1045.87 854.093 1010.5 898 1010.5 941.907 1010.5 977.5 1045.87 977.5 1089.5 977.5 1133.13 941.907 1168.5 898 1168.5 854.093 1168.5 818.5 1133.13 818.5 1089.5Z" stroke="#5C5C5C" stroke-width="4.58333" stroke-linejoin="round" stroke-miterlimit="10" fill="none" fill-rule="evenodd"/><text font-family="Calibri,Calibri_MSFontService,sans-serif" font-weight="400" font-size="83" transform="matrix(1 0 0 1 855.777 1126)">40</text><path d="M1034.5 1319.5C1034.5 1275.87 1070.09 1240.5 1114 1240.5 1157.91 1240.5 1193.5 1275.87 1193.5 1319.5 1193.5 1363.13 1157.91 1398.5 1114 1398.5 1070.09 1398.5 1034.5 1363.13 1034.5 1319.5Z" stroke="#5C5C5C" stroke-width="4.58333" stroke-linejoin="round" stroke-miterlimit="10" fill="none" fill-rule="evenodd"/><text font-family="Calibri,Calibri_MSFontService,sans-serif" font-weight="400" font-size="83" transform="matrix(1 0 0 1 1071.74 1356)">55</text><path d="M602.5 1319.5C602.5 1275.87 638.093 1240.5 682 1240.5 725.907 1240.5 761.5 1275.87 761.5 1319.5 761.5 1363.13 725.907 1398.5 682 1398.5 638.093 1398.5 602.5 1363.13 602.5 1319.5Z" stroke="#5C5C5C" stroke-width="4.58333" stroke-linejoin="round" stroke-miterlimit="10" fill="none" fill-rule="evenodd"/><text font-family="Calibri,Calibri_MSFontService,sans-serif" font-weight="400" font-size="83" transform="matrix(1 0 0 1 639.81 1356)">24</text><path d="M823.5 1583.5C823.5 1539.87 858.87 1504.5 902.5 1504.5 946.13 1504.5 981.5 1539.87 981.5 1583.5 981.5 1627.13 946.13 1662.5 902.5 1662.5 858.87 1662.5 823.5 1627.13 823.5 1583.5Z" stroke="#5C5C5C" stroke-width="4.58333" stroke-linejoin="round" stroke-miterlimit="10" fill="none" fill-rule="evenodd"/><text font-family="Calibri,Calibri_MSFontService,sans-serif" font-weight="400" font-size="83" transform="matrix(1 0 0 1 860.36 1620)">37</text><path d="M386.5 1583.5C386.5 1539.87 422.093 1504.5 466 1504.5 509.907 1504.5 545.5 1539.87 545.5 1583.5 545.5 1627.13 509.907 1662.5 466 1662.5 422.093 1662.5 386.5 1627.13 386.5 1583.5Z" stroke="#5C5C5C" stroke-width="4.58333" stroke-linejoin="round" stroke-miterlimit="10" fill="none" fill-rule="evenodd"/><text font-family="Calibri,Calibri_MSFontService,sans-serif" font-weight="400" font-size="83" transform="matrix(1 0 0 1 423.843 1620)">12</text><path d="M0 0 122.1 105.6" stroke="#000000" stroke-width="9.16667" stroke-linejoin="round" stroke-miterlimit="10" fill="none" fill-rule="evenodd" transform="matrix(-1 0 0 1 848.6 1152.5)"/><path d="M1073 1261.2 957.5 1132.5" stroke="#000000" stroke-width="9.16667" stroke-linejoin="round" stroke-miterlimit="10" fill="none" fill-rule="evenodd"/><path d="M0 0 128.7 122.1" stroke="#000000" stroke-width="9.16667" stroke-linejoin="round" stroke-miterlimit="10" fill="none" fill-rule="evenodd" transform="matrix(1 0 0 -1 508.5 1508.6)"/><path d="M865.5 1512.1 733.5 1373.5" stroke="#000000" stroke-width="9.16667" stroke-linejoin="round" stroke-miterlimit="10" fill="none" fill-rule="evenodd"/><path d="M1679.5 1246.5C1679.5 1202.87 1714.87 1167.5 1758.5 1167.5 1802.13 1167.5 1837.5 1202.87 1837.5 1246.5 1837.5 1290.13 1802.13 1325.5 1758.5 1325.5 1714.87 1325.5 1679.5 1290.13 1679.5 1246.5Z" stroke="#5C5C5C" stroke-width="4.58333" stroke-linejoin="round" stroke-miterlimit="10" fill="none" fill-rule="evenodd"/><text font-family="Calibri,Calibri_MSFontService,sans-serif" font-weight="400" font-size="83" transform="matrix(1 0 0 1 1716.04 1283)">12</text><path d="M1845.5 1414C1845.5 1370.09 1881.09 1334.5 1925 1334.5 1968.91 1334.5 2004.5 1370.09 2004.5 1414 2004.5 1457.91 1968.91 1493.5 1925 1493.5 1881.09 1493.5 1845.5 1457.91 1845.5 1414Z" stroke="#5C5C5C" stroke-width="4.58333" stroke-linejoin="round" stroke-miterlimit="10" fill="none" fill-rule="evenodd"/><text font-family="Calibri,Calibri_MSFontService,sans-serif" font-weight="400" font-size="83" transform="matrix(1 0 0 1 1882.48 1450)">24</text><path d="M2012.5 1581.5C2012.5 1537.87 2047.87 1502.5 2091.5 1502.5 2135.13 1502.5 2170.5 1537.87 2170.5 1581.5 2170.5 1625.13 2135.13 1660.5 2091.5 1660.5 2047.87 1660.5 2012.5 1625.13 2012.5 1581.5Z" stroke="#5C5C5C" stroke-width="4.58333" stroke-linejoin="round" stroke-miterlimit="10" fill="none" fill-rule="evenodd"/><text font-family="Calibri,Calibri_MSFontService,sans-serif" font-weight="400" font-size="83" transform="matrix(1 0 0 1 2048.92 1618)">37</text><path d="M2178.5 1749.5C2178.5 1705.87 2213.87 1670.5 2257.5 1670.5 2301.13 1670.5 2336.5 1705.87 2336.5 1749.5 2336.5 1793.13 2301.13 1828.5 2257.5 1828.5 2213.87 1828.5 2178.5 1793.13 2178.5 1749.5Z" stroke="#5C5C5C" stroke-width="4.58333" stroke-linejoin="round" stroke-miterlimit="10" fill="none" fill-rule="evenodd"/><text font-family="Calibri,Calibri_MSFontService,sans-serif" font-weight="400" font-size="83" transform="matrix(1 0 0 1 2215.36 1786)">40</text><path d="M2344.5 1917.5C2344.5 1873.87 2380.09 1838.5 2424 1838.5 2467.91 1838.5 2503.5 1873.87 2503.5 1917.5 2503.5 1961.13 2467.91 1996.5 2424 1996.5 2380.09 1996.5 2344.5 1961.13 2344.5 1917.5Z" stroke="#5C5C5C" stroke-width="4.58333" stroke-linejoin="round" stroke-miterlimit="10" fill="none" fill-rule="evenodd"/><text font-family="Calibri,Calibri_MSFontService,sans-serif" font-weight="400" font-size="83" transform="matrix(1 0 0 1 2381.8 1954)">55</text><path d="M1812.5 1299.5 1871.9 1362.2" stroke="#000000" stroke-width="9.16667" stroke-linejoin="round" stroke-miterlimit="10" fill="none" fill-rule="evenodd"/><path d="M1980.5 1470.5 2039.9 1533.2" stroke="#000000" stroke-width="9.16667" stroke-linejoin="round" stroke-miterlimit="10" fill="none" fill-rule="evenodd"/><path d="M2145.5 1642.5 2204.9 1705.2" stroke="#000000" stroke-width="9.16667" stroke-linejoin="round" stroke-miterlimit="10" fill="none" fill-rule="evenodd"/><path d="M2307.5 1810.5 2366.9 1873.2" stroke="#000000" stroke-width="9.16667" stroke-linejoin="round" stroke-miterlimit="10" fill="none" fill-rule="evenodd"/><g clip-path="url(#clip1)"><g clip-path="url(#clip2)"><g clip-path="url(#clip3)"><path d="M15.8048-10.1539C12.273-4.23816 8.82951-3.00203 4.94453-2.73715 3.88499-2.64886 3.09033-2.64886 3.09033-0.971246 3.09033-0.441472 3.53181 0 4.23816 0 6.62214 0 9.35928-0.264883 11.8315-0.264883 14.7453-0.264883 17.8356 0 20.6611 0 21.1908 0 22.3387 0 22.3387-1.67761 22.3387-2.64886 21.544-2.73715 20.9259-2.73715 18.8952-2.91374 16.7761-3.6201 16.7761-5.82748 16.7761-6.88702 17.3058-7.85827 18.0122-9.0944L24.7226-20.3962 46.8847-20.3962C47.0613-18.542 48.2974-6.53384 48.2974-5.65089 48.2974-3.00203 43.7061-2.73715 41.9402-2.73715 40.704-2.73715 39.8211-2.73715 39.8211-0.971246 39.8211 0 40.8806 0 41.0572 0 44.6773 0 48.474-0.264883 52.0941-0.264883 54.3015-0.264883 59.8641 0 62.0715 0 62.6012 0 63.6608 0 63.6608-1.7659 63.6608-2.73715 62.7778-2.73715 61.63-2.73715 56.1557-2.73715 56.1557-3.35521 55.8908-5.91577L50.5048-61.1002C50.3282-62.8661 50.3282-63.2193 48.8272-63.2193 47.4145-63.2193 47.0613-62.6012 46.5315-61.7183L15.8048-10.1539ZM26.4002-23.1333 43.7944-52.2707 46.6198-23.1333 26.4002-23.1333Z" transform="matrix(1.00276 0 0 1 303 1962.62)"/><path d="M56.9503-61.3651C56.9503-61.63 56.7738-62.2481 55.9791-62.2481 55.5376-62.2481 55.4493-62.1598 54.3898-60.9236L50.1516-55.8908C47.8559-60.0407 43.2646-62.2481 37.5254-62.2481 26.3119-62.2481 15.7165-52.0941 15.7165-41.4104 15.7165-34.2585 20.3962-30.1969 24.8992-28.8725L34.3468-26.4002C37.6137-25.6056 42.4699-24.2812 42.4699-17.041 42.4699-9.0944 35.2297-0.794658 26.5768-0.794658 20.9259-0.794658 11.1252-2.73715 11.1252-13.6857 11.1252-15.8048 11.5667-17.9239 11.655-18.4537 11.7433-18.8069 11.8315-18.8952 11.8315-19.0717 11.8315-19.9547 11.2135-20.043 10.772-20.043 10.3305-20.043 10.1539-19.9547 9.88905-19.6898 9.53587-19.3366 4.59135 0.794658 4.59135 1.05954 4.59135 1.58932 5.03282 1.94249 5.5626 1.94249 6.00407 1.94249 6.09236 1.8542 7.1519 0.618069L11.4784-4.41475C15.2751 0.706363 21.2791 1.94249 26.4002 1.94249 38.4084 1.94249 48.8272-9.80076 48.8272-20.7494 48.8272-26.8417 45.8252-29.8438 44.5007-31.0799 42.4699-33.1107 41.1455-33.4638 33.2873-35.4946 31.3448-36.0244 28.1661-36.9074 27.3715-37.0839 24.9875-37.8786 21.9855-40.4392 21.9855-45.1188 21.9855-52.2707 29.0491-59.7758 37.4371-59.7758 44.7656-59.7758 50.1516-55.9791 50.1516-46.09 50.1516-43.2646 49.7984-41.6753 49.7984-41.1455 49.7984-41.0572 49.7984-40.2626 50.858-40.2626 51.7409-40.2626 51.8292-40.5275 52.1824-42.0285L56.9503-61.3651Z" transform="matrix(1.00276 0 0 1 369.404 1962.62)"/><path d="M33.0224-53.4185C33.817-56.5972 34.0819-57.5684 42.3816-57.5684 45.0305-57.5684 45.7369-57.5684 45.7369-59.246 45.7369-60.3056 44.7656-60.3056 44.3241-60.3056 41.4104-60.3056 34.1702-60.0407 31.2565-60.0407 28.6076-60.0407 22.1621-60.3056 19.5132-60.3056 18.8952-60.3056 17.8356-60.3056 17.8356-58.5397 17.8356-57.5684 18.6303-57.5684 20.3079-57.5684 20.4845-57.5684 22.1621-57.5684 23.6631-57.3918 25.2524-57.2152 26.0471-57.1269 26.0471-55.9791 26.0471-55.6259 25.9588-55.361 25.6939-54.3015L13.8623-6.88702C12.9794-3.44351 12.8028-2.73715 5.82748-2.73715 4.32646-2.73715 3.44351-2.73715 3.44351-0.971246 3.44351 0 4.23816 0 5.82748 0L46.7081 0C48.8272 0 48.9155 0 49.4453-1.50101L56.4206-20.5728C56.7738-21.544 56.7738-21.7206 56.7738-21.8089 56.7738-22.1621 56.5089-22.7801 55.7142-22.7801 54.9196-22.7801 54.8313-22.3387 54.2132-20.9259 51.2112-12.8028 47.3262-2.73715 32.0511-2.73715L23.7514-2.73715C22.5152-2.73715 22.3387-2.73715 21.8089-2.82544 20.9259-2.91374 20.6611-3.00203 20.6611-3.7084 20.6611-3.97328 20.6611-4.14987 21.1025-5.73918L33.0224-53.4185Z" transform="matrix(1.00276 0 0 1 428.799 1962.62)"/><path d="M16.9011-42.8332C16.9656-42.9622 17.1591-43.8008 17.1591-43.8653 17.1591-44.1879 16.9011-44.7685 16.127-44.7685L9.61167-44.2524C7.22488-44.0589 6.70882-43.9944 6.70882-42.8332 6.70882-41.9301 7.61193-41.9301 8.38603-41.9301 11.4824-41.9301 11.4824-41.5431 11.4824-40.9625 11.4824-40.769 11.4824-40.64 11.1599-39.4788L3.16088-7.48291C2.90285-6.45078 2.90285-5.48317 2.90285-5.41866 2.90285-1.41917 6.19276 0.645078 9.41814 0.645078 12.192 0.645078 13.6757-1.54819 14.3853-2.96736 15.5464-5.09612 16.514-8.90208 16.514-9.22462 16.514-9.61167 16.3205-10.0632 15.4819-10.0632 14.9013-10.0632 14.7078-9.74069 14.7078-9.67618 14.5788-9.48265 14.2562-8.32151 14.0627-7.61193 13.0951-3.87047 11.8694-1.16114 9.54717-1.16114 7.99898-1.16114 7.54742-2.64483 7.54742-4.19301 7.54742-5.41866 7.74094-6.12825 7.93447-6.96685L16.9011-42.8332Z" transform="matrix(1.00276 0 0 1 489.055 1977.01)"/><path d="M12.9661-14.7078C14.3853-14.7078 19.2233-14.7723 22.6423-15.998 28.2544-17.9332 28.448-21.8037 28.448-22.7713 28.448-26.3837 25.029-28.448 20.836-28.448 13.5467-28.448 3.16088-22.7068 3.16088-11.2889 3.16088-4.70907 7.16037 0.645078 14.2562 0.645078 24.3195 0.645078 29.7381-5.80571 29.7381-6.70882 29.7381-7.28939 29.093-7.74094 28.706-7.74094 28.3189-7.74094 28.1254-7.54742 27.8029-7.16037 22.7068-1.16114 15.4819-1.16114 14.3853-1.16114 9.67618-1.16114 8.257-5.16063 8.257-8.77307 8.257-10.7083 8.83757-13.6112 9.09561-14.7078L12.9661-14.7078ZM9.61167-16.514C11.6759-24.384 17.5461-26.6417 20.836-26.6417 23.4164-26.6417 25.8677-25.3516 25.8677-22.7713 25.8677-16.514 15.2884-16.514 12.579-16.514L9.61167-16.514Z" transform="matrix(1.00276 0 0 1 510.336 1977.01)"/><path d="M24.7065-25.6741 30.7057-25.6741C31.9959-25.6741 32.77-25.6741 32.77-26.8998 32.77-27.8029 31.9314-27.8029 30.8348-27.8029L25.0936-27.8029C26.1257-33.6086 26.7708-37.2855 27.4158-40.1884 27.6739-41.285 27.8674-41.9946 28.835-42.7687 29.6736-43.4783 30.1897-43.6073 30.8993-43.6073 31.8669-43.6073 32.899-43.4138 33.7376-42.8977 33.4151-42.7687 33.028-42.5752 32.7055-42.3817 31.6089-41.8011 30.8348-40.64 30.8348-39.3498 30.8348-37.8661 31.9959-36.963 33.4151-36.963 35.2858-36.963 37.0275-38.5757 37.0275-40.8335 37.0275-43.8653 33.9311-45.4135 30.8348-45.4135 28.6415-45.4135 24.5775-44.3814 22.5132-38.4467 21.9327-36.963 21.9327-36.834 20.191-27.8029L15.3529-27.8029C14.0627-27.8029 13.2886-27.8029 13.2886-26.5772 13.2886-25.6741 14.1272-25.6741 15.2239-25.6741L19.8039-25.6741 15.1593-0.645078C13.9337 5.87021 12.9661 11.3534 9.54717 11.3534 9.35364 11.3534 7.99898 11.3534 6.77333 10.5793 9.74069 9.8697 9.74069 7.16037 9.74069 7.09586 9.74069 5.61219 8.57955 4.70907 7.16037 4.70907 5.41866 4.70907 3.54793 6.19276 3.54793 8.64405 3.54793 11.3534 6.32177 13.1596 9.54717 13.1596 13.4821 13.1596 16.1915 9.0311 17.0301 7.4184 19.3524 3.16088 20.836-4.9026 20.9651-5.54768L24.7065-25.6741Z" transform="matrix(1.00276 0 0 1 542.219 1977.01)"/><path d="M14.2562-25.6741 20.578-25.6741C21.8037-25.6741 22.5777-25.6741 22.5777-26.8998 22.5777-27.8029 21.7392-27.8029 20.6425-27.8029L14.7723-27.8029 17.0946-36.963C17.3526-37.9306 17.3526-38.2532 17.3526-38.3177 17.3526-39.6723 16.3205-40.3174 15.2239-40.3174 13.0306-40.3174 12.579-38.5757 11.8694-35.6728L9.8697-27.8029 3.67694-27.8029C2.4513-27.8029 1.6127-27.8029 1.6127-26.5772 1.6127-25.6741 2.4513-25.6741 3.54793-25.6741L9.35364-25.6741 5.48317-10.1922C5.09612-8.57955 4.51555-6.32177 4.51555-5.41866 4.51555-1.54819 7.67643 0.645078 11.0953 0.645078 17.9977 0.645078 21.9327-8.45053 21.9327-9.22462 21.9327-9.93421 21.3521-10.0632 20.9651-10.0632 20.2555-10.0632 20.191-9.80519 19.7394-8.83757 18.4492-5.7412 15.2239-1.16114 11.2889-1.16114 9.93421-1.16114 9.16012-2.06425 9.16012-4.19301 9.16012-5.41866 9.35364-6.12825 9.54717-6.96685L14.2562-25.6741Z" transform="matrix(1.00276 0 0 1 582.367 1977.01)"/><path d="M60.6587-28.8725C61.9832-28.8725 63.6608-28.8725 63.6608-30.6384 63.6608-32.4043 61.9832-32.4043 60.747-32.4043L7.85827-32.4043C6.62214-32.4043 4.94453-32.4043 4.94453-30.6384 4.94453-28.8725 6.62214-28.8725 7.94656-28.8725L60.6587-28.8725ZM60.747-11.7433C61.9832-11.7433 63.6608-11.7433 63.6608-13.5091 63.6608-15.275 61.9832-15.2751 60.6587-15.2751L7.94656-15.2751C6.62214-15.2751 4.94453-15.2751 4.94453-13.5091 4.94453-11.7432 6.62214-11.7433 7.85827-11.7433L60.747-11.7433Z" transform="matrix(1.00276 0 0 1 635.823 1962.62)"/><path d="M12.9016-10.5793C13.0951-11.5469 13.7402-13.9982 13.9337-14.9658 14.8368-18.4492 14.8368-18.5138 16.3205-20.6425 18.4492-23.8034 21.4811-26.6417 25.8031-26.6417 28.1254-26.6417 29.4801-25.2871 29.4801-22.2552 29.4801-18.7073 26.7708-11.3534 25.5451-8.1925 24.7065-6.06374 24.7065-5.67669 24.7065-4.83809 24.7065-1.16114 27.7384 0.645078 30.5122 0.645078 36.834 0.645078 39.4788-8.38603 39.4788-9.22462 39.4788-9.8697 38.9627-10.0632 38.5112-10.0632 37.7371-10.0632 37.6081-9.61167 37.4146-8.9666 35.8664-3.67694 33.157-1.16114 30.7057-1.16114 29.6736-1.16114 29.1576-1.80622 29.1576-3.2899 29.1576-4.77359 29.6736-6.19276 30.3187-7.80545 31.2863-10.2568 34.1247-17.6752 34.1247-21.2876 34.1247-26.1257 30.7702-28.448 26.1257-28.448 20.9005-28.448 17.5461-25.2871 15.6754-22.8358 15.2239-26.3837 12.3855-28.448 9.09561-28.448 6.77333-28.448 5.16063-26.9643 4.1285-24.9645 2.58031-21.9327 1.93523-18.7073 1.93523-18.5783 1.93523-17.9977 2.38679-17.7397 2.90285-17.7397 3.74146-17.7397 3.80597-17.9977 4.25752-19.6749 5.03162-22.8358 6.19276-26.6417 8.90208-26.6417 10.5793-26.6417 10.9663-25.029 10.9663-23.6099 10.9663-22.4487 10.6438-21.2231 10.1277-19.0943 9.99871-18.5783 9.0311-14.7723 8.77307-13.8692L6.38628-4.19301C6.12825-3.2254 5.7412-1.6127 5.7412-1.35466 5.7412 0.129014 6.96685 0.645078 7.80545 0.645078 8.9666 0.645078 9.93421-0.129014 10.3858-0.903114 10.5793-1.29016 11.0953-3.48342 11.4179-4.83809L12.9016-10.5793Z" transform="matrix(1.00276 0 0 1 772.375 1852.25)"/><path d="M111.782 123.613 122.465 95.3587 120.258 95.3587C116.814 104.541 107.455 110.545 97.3012 113.194 95.447 113.636 86.7941 115.931 69.8414 115.931L16.5995 115.931 61.5417 63.2193C62.1598 62.5129 62.3363 62.2481 62.3363 61.8066 62.3363 61.63 62.3363 61.3651 61.7183 60.4821L20.5728 4.23816 68.9585 4.23816C80.79 4.23816 88.8249 5.47429 89.6195 5.65089 94.3875 6.35724 102.069 7.85827 109.044 12.273 111.252 13.6857 117.256 17.659 120.258 24.8109L122.465 24.8109 111.782 0 7.41679 0C5.386 0 5.2977 0.0882944 5.03282 0.618069 4.94453 0.882952 4.94453 2.56056 4.94453 3.53181L51.6526 67.4575 5.91577 121.053C5.03282 122.112 5.03282 122.554 5.03282 122.642 5.03282 123.613 5.82748 123.613 7.41679 123.613L111.782 123.613Z" transform="matrix(1.00276 0 0 1 729.281 1878.74)"/><path d="M19.2233-40.2529C19.2233-41.6721 18.1912-42.7042 16.7075-42.7042 15.0303-42.7042 13.1596-41.156 13.1596-39.2208 13.1596-37.8016 14.1917-36.7695 15.6754-36.7695 17.3526-36.7695 19.2233-38.3177 19.2233-40.2529ZM9.80519-16.5785 6.32177-7.67643C5.99923-6.70882 5.67669-5.93472 5.67669-4.83809 5.67669-1.6772 8.12799 0.645078 11.5469 0.645078 17.8042 0.645078 20.449-8.38603 20.449-9.22462 20.449-9.8697 19.9329-10.0632 19.4814-10.0632 18.7073-10.0632 18.5783-9.61167 18.3847-8.9666 16.9011-3.80597 14.2562-1.16114 11.6759-1.16114 10.9018-1.16114 10.1277-1.48368 10.1277-3.2254 10.1277-4.77358 10.5793-5.93472 11.4179-7.93447 12.063-9.67618 12.708-11.4179 13.4176-13.1596L15.4174-18.3847C15.998-19.8684 16.772-21.8682 16.772-22.9648 16.772-26.1902 14.1917-28.448 10.9018-28.448 4.64457-28.448 1.93523-19.4169 1.93523-18.5783 1.93523-17.9977 2.38679-17.7397 2.90285-17.7397 3.74146-17.7397 3.80597-18.1267 3.99949-18.7718 5.80571-24.9 8.77307-26.6417 10.7083-26.6417 11.6114-26.6417 12.2565-26.3192 12.2565-24.513 12.2565-23.8679 12.192-22.9648 11.5469-21.0296L9.80519-16.5785Z" transform="matrix(1.00276 0 0 1 737.615 2068.55)"/><path d="M47.1552-21.4811C48.1229-21.4811 49.413-21.4811 49.413-22.9648 49.413-24.4485 47.8648-24.4485 46.8972-24.4485L6.32177-24.4485C5.35415-24.4485 3.80597-24.4485 3.80597-22.9648 3.80597-21.4811 5.09612-21.4811 6.06374-21.4811L47.1552-21.4811ZM46.8972-7.80545C47.8648-7.80545 49.413-7.80545 49.413-9.28913 49.413-10.7728 48.1229-10.7728 47.1552-10.7728L6.06374-10.7728C5.09612-10.7728 3.80597-10.7728 3.80597-9.28913 3.80597-7.80545 5.35415-7.80545 6.32177-7.80545L46.8972-7.80545Z" transform="matrix(1.00276 0 0 1 761.015 2068.55)"/><path d="M20.2555-41.0915C20.2555-42.8332 20.1265-42.8977 18.3847-42.8977 15.7399-40.3174 12.321-38.7692 6.19276-38.7692L6.19276-36.6405C7.93447-36.6405 11.4179-36.6405 15.1593-38.3822L15.1593-5.28964C15.1593-2.90285 14.9658-2.12876 8.83757-2.12876L6.5798-2.12876 6.5798 0C9.22462-0.193521 14.7723-0.193521 17.6752-0.193521 20.578-0.193521 26.1902-0.193521 28.835 0L28.835-2.12876 26.5772-2.12876C20.449-2.12876 20.2555-2.90285 20.2555-5.28964L20.2555-41.0915Z" transform="matrix(1.00276 0 0 1 814.471 2068.55)"/><path d="M3.97328 10.772C3.26692 13.774 3.09033 14.3921-0.794658 14.3921-1.8542 14.3921-2.82544 14.3921-2.82544 16.0697-2.82544 16.7761-2.38396 17.1293-1.67761 17.1293 0.706363 17.1293 3.26692 16.8644 5.73918 16.8644 8.65292 16.8644 11.655 17.1293 14.4804 17.1293 14.9219 17.1293 16.0697 17.1293 16.0697 15.3633 16.0697 14.3921 15.1868 14.3921 13.9506 14.3921 9.53587 14.3921 9.53587 13.774 9.53587 12.9794 9.53587 11.9198 13.2443-2.47226 13.8623-4.67964 15.0102-2.11908 17.4824 0.971246 21.9855 0.971246 32.2277 0.971246 43.2646-11.9198 43.2646-24.8992 43.2646-33.199 38.2318-39.0264 31.5213-39.0264 27.1066-39.0264 22.8684-35.8478 19.9547-32.4043 19.0717-37.1722 15.2751-39.0264 12.0081-39.0264 7.94656-39.0264 6.26895-35.5829 5.47429-33.9936 3.88499-30.9916 2.73715-25.6939 2.73715-25.429 2.73715-24.546 3.6201-24.546 3.79669-24.546 4.67964-24.546 4.76794-24.6343 5.2977-26.5768 6.79873-32.8458 8.56463-37.0839 11.7433-37.0839 13.2443-37.0839 14.4804-36.3776 14.4804-33.0224 14.4804-30.9916 14.2155-30.0203 13.8623-28.5193L3.97328 10.772ZM19.5132-27.5481C20.1313-29.932 22.5152-32.4043 24.1046-33.7287 27.1949-36.4659 29.7555-37.0839 31.2565-37.0839 34.7883-37.0839 36.9074-33.9936 36.9074-28.7842 36.9074-23.5748 33.9936-13.4209 32.4043-10.0656 29.4023-3.88499 25.1641-0.971246 21.8972-0.971246 16.0697-0.971246 14.9219-8.29974 14.9219-8.82951 14.9219-9.0061 14.9219-9.18269 15.1868-10.2422L19.5132-27.5481Z" transform="matrix(1.00276 0 0 1 871.927 1962.62)"/><path d="M19.2233-40.2529C19.2233-41.6721 18.1912-42.7042 16.7075-42.7042 15.0303-42.7042 13.1596-41.156 13.1596-39.2208 13.1596-37.8016 14.1917-36.7695 15.6754-36.7695 17.3526-36.7695 19.2233-38.3177 19.2233-40.2529ZM9.80519-16.5785 6.32177-7.67643C5.99923-6.70882 5.67669-5.93472 5.67669-4.83809 5.67669-1.6772 8.12799 0.645078 11.5469 0.645078 17.8042 0.645078 20.449-8.38603 20.449-9.22462 20.449-9.8697 19.9329-10.0632 19.4814-10.0632 18.7073-10.0632 18.5783-9.61167 18.3847-8.9666 16.9011-3.80597 14.2562-1.16114 11.6759-1.16114 10.9018-1.16114 10.1277-1.48368 10.1277-3.2254 10.1277-4.77358 10.5793-5.93472 11.4179-7.93447 12.063-9.67618 12.708-11.4179 13.4176-13.1596L15.4174-18.3847C15.998-19.8684 16.772-21.8682 16.772-22.9648 16.772-26.1902 14.1917-28.448 10.9018-28.448 4.64457-28.448 1.93523-19.4169 1.93523-18.5783 1.93523-17.9977 2.38679-17.7397 2.90285-17.7397 3.74146-17.7397 3.80597-18.1267 3.99949-18.7718 5.80571-24.9 8.77307-26.6417 10.7083-26.6417 11.6114-26.6417 12.2565-26.3192 12.2565-24.513 12.2565-23.8679 12.192-22.9648 11.5469-21.0296L9.80519-16.5785Z" transform="matrix(1.00276 0 0 1 916.473 1975.87)"/><path d="M34.9649-33.5521C33.5521-33.5521 32.316-33.5521 31.0799-32.316 29.6672-30.9916 29.4906-29.4906 29.4906-28.8725 29.4906-26.7534 31.0799-25.7822 32.7575-25.7822 35.318-25.7822 37.702-27.9013 37.702-31.4331 37.702-35.7595 33.5521-39.0264 27.2832-39.0264 15.3633-39.0264 3.6201-26.4002 3.6201-13.9506 3.6201-6.00407 8.74122 0.971246 17.9239 0.971246 30.5501 0.971246 37.9669-8.38803 37.9669-9.44757 37.9669-9.97735 37.4371-10.5954 36.9074-10.5954 36.4659-10.5954 36.2893-10.4188 35.7595-9.71247 28.7842-0.971246 19.16-0.971246 18.1005-0.971246 12.5379-0.971246 10.1539-5.2977 10.1539-10.5954 10.1539-14.2155 11.9198-22.7801 14.9219-28.2544 17.659-33.2873 22.5152-37.0839 27.3715-37.0839 30.3735-37.0839 33.7287-35.9361 34.9649-33.5521Z" transform="matrix(1.00276 0 0 1 943.915 1962.62)"/><path d="M19.2233-40.2529C19.2233-41.6721 18.1912-42.7042 16.7075-42.7042 15.0303-42.7042 13.1596-41.156 13.1596-39.2208 13.1596-37.8016 14.1917-36.7695 15.6754-36.7695 17.3526-36.7695 19.2233-38.3177 19.2233-40.2529ZM9.80519-16.5785 6.32177-7.67643C5.99923-6.70882 5.67669-5.93472 5.67669-4.83809 5.67669-1.6772 8.12799 0.645078 11.5469 0.645078 17.8042 0.645078 20.449-8.38603 20.449-9.22462 20.449-9.8697 19.9329-10.0632 19.4814-10.0632 18.7073-10.0632 18.5783-9.61167 18.3847-8.9666 16.9011-3.80597 14.2562-1.16114 11.6759-1.16114 10.9018-1.16114 10.1277-1.48368 10.1277-3.2254 10.1277-4.77358 10.5793-5.93472 11.4179-7.93447 12.063-9.67618 12.708-11.4179 13.4176-13.1596L15.4174-18.3847C15.998-19.8684 16.772-21.8682 16.772-22.9648 16.772-26.1902 14.1917-28.448 10.9018-28.448 4.64457-28.448 1.93523-19.4169 1.93523-18.5783 1.93523-17.9977 2.38679-17.7397 2.90285-17.7397 3.74146-17.7397 3.80597-18.1267 3.99949-18.7718 5.80571-24.9 8.77307-26.6417 10.7083-26.6417 11.6114-26.6417 12.2565-26.3192 12.2565-24.513 12.2565-23.8679 12.192-22.9648 11.5469-21.0296L9.80519-16.5785Z" transform="matrix(1.00276 0 0 1 982.231 1975.87)"/><path d="M60.6587-28.8725C61.9832-28.8725 63.6608-28.8725 63.6608-30.6384 63.6608-32.4043 61.9832-32.4043 60.747-32.4043L7.85827-32.4043C6.62214-32.4043 4.94453-32.4043 4.94453-30.6384 4.94453-28.8725 6.62214-28.8725 7.94656-28.8725L60.6587-28.8725ZM60.747-11.7433C61.9832-11.7433 63.6608-11.7433 63.6608-13.5091 63.6608-15.275 61.9832-15.2751 60.6587-15.2751L7.94656-15.2751C6.62214-15.2751 4.94453-15.2751 4.94453-13.5091 4.94453-11.7432 6.62214-11.7433 7.85827-11.7433L60.747-11.7433Z" transform="matrix(1.00276 0 0 1 1034.27 1962.62)"/><path d="M29.2257 21.1908C29.2257 20.9259 29.2257 20.7494 27.7247 19.2483 16.6878 8.12315 13.8623-8.56463 13.8623-22.0738 13.8623-37.4371 17.2175-52.8005 28.0778-63.8374 29.2257-64.8969 29.2257-65.0735 29.2257-65.3384 29.2257-65.9564 28.8725-66.2213 28.3427-66.2213 27.4598-66.2213 19.5132-60.2173 14.3038-49.0038 9.80076-39.2913 8.74122-29.4906 8.74122-22.0738 8.74122-15.1868 9.71247-4.50305 14.5687 5.47429 19.8664 16.3346 27.4598 22.0738 28.3427 22.0738 28.8725 22.0738 29.2257 21.8089 29.2257 21.1908Z" transform="matrix(1.00276 0 0 1 1127.72 1962.62)"/><path d="M25.9588-56.5089C25.9588-58.6279 25.9588-58.8045 23.928-58.8045 18.4537-53.1537 10.6837-53.1537 7.85827-53.1537L7.85827-50.4165C9.62417-50.4165 14.8336-50.4165 19.4249-52.7122L19.4249-6.97531C19.4249-3.79669 19.16-2.73715 11.2135-2.73715L8.38803-2.73715 8.38803 0C11.4784-0.264883 19.16-0.264883 22.6918-0.264883 26.2237-0.264883 33.9053-0.264883 36.9957 0L36.9957-2.73715 34.1702-2.73715C26.2236-2.73715 25.9588-3.7084 25.9588-6.97531L25.9588-56.5089Z" transform="matrix(1.00276 0 0 1 1162.16 1962.62)"/><path d="M36.1127-20.3079 60.747-20.3079C61.9832-20.3079 63.6608-20.3079 63.6608-22.0738 63.6608-23.8397 61.9832-23.8397 60.747-23.8397L36.1127-23.8397 36.1127-48.5623C36.1127-49.7984 36.1127-51.476 34.3468-51.476 32.5809-51.476 32.5809-49.7984 32.5809-48.5623L32.5809-23.8397 7.85827-23.8397C6.62214-23.8397 4.94453-23.8397 4.94453-22.0738 4.94453-20.3079 6.62214-20.3079 7.85827-20.3079L32.5809-20.3079 32.5809 4.41475C32.5809 5.65089 32.5809 7.32849 34.3468 7.32849 36.1127 7.32849 36.1127 5.65089 36.1127 4.41475L36.1127-20.3079Z" transform="matrix(1.00276 0 0 1 1226.1 1962.62)"/><path d="M11.2135-6.79873 20.5728-15.8931C34.3468-28.0778 39.6445-32.8458 39.6445-41.6753 39.6445-51.7409 31.6979-58.8045 20.9259-58.8045 10.9486-58.8045 4.41475-50.6814 4.41475-42.8231 4.41475-37.8786 8.82951-37.8786 9.0944-37.8786 10.5954-37.8786 13.6857-38.9381 13.6857-42.5582 13.6857-44.8539 12.0964-47.1496 9.0061-47.1496 8.29974-47.1496 8.12315-47.1496 7.85827-47.0613 9.88905-52.8005 14.657-56.0674 19.7781-56.0674 27.813-56.0674 31.6096-48.9155 31.6096-41.6753 31.6096-34.6117 27.1949-27.6364 22.3387-22.1621L5.386-3.26692C4.41475-2.29567 4.41475-2.11908 4.41475 0L37.1722 0 39.6445-15.3633 37.4371-15.3633C36.9957-12.7145 36.3776-8.82951 35.4946-7.50508 34.8766-6.79873 29.0491-6.79873 27.1066-6.79873L11.2135-6.79873Z" transform="matrix(1.00276 0 0 1 1314.64 1962.62)"/><path d="M34.3468-24.546 16.6878-42.1168C15.6282-43.1763 15.4516-43.3529 14.7453-43.3529 13.8623-43.3529 12.9794-42.5582 12.9794-41.587 12.9794-40.9689 13.156-40.7923 14.1272-39.8211L31.7862-22.0738 14.1272-4.32646C13.156-3.35521 12.9794-3.17862 12.9794-2.56056 12.9794-1.58932 13.8623-0.794658 14.7453-0.794658 15.4516-0.794658 15.6282-0.971246 16.6878-2.03079L34.2585-19.6015 52.5356-1.32442C52.7122-1.23613 53.3302-0.794658 53.86-0.794658 54.9196-0.794658 55.6259-1.58932 55.6259-2.56056 55.6259-2.73715 55.6259-3.09033 55.361-3.53181 55.2727-3.7084 41.2338-17.5707 36.8191-22.0738L52.9771-38.2318C53.4185-38.7616 54.743-39.9094 55.1844-40.4392 55.2727-40.6157 55.6259-40.9689 55.6259-41.587 55.6259-42.5582 54.9196-43.3529 53.86-43.3529 53.1537-43.3529 52.8005-42.9997 51.8292-42.0285L34.3468-24.546Z" transform="matrix(1.00276 0 0 1 1378.58 1962.62)"/><path d="M11.2135-6.79873 20.5728-15.8931C34.3468-28.0778 39.6445-32.8458 39.6445-41.6753 39.6445-51.7409 31.6979-58.8045 20.9259-58.8045 10.9486-58.8045 4.41475-50.6814 4.41475-42.8231 4.41475-37.8786 8.82951-37.8786 9.0944-37.8786 10.5954-37.8786 13.6857-38.9381 13.6857-42.5582 13.6857-44.8539 12.0964-47.1496 9.0061-47.1496 8.29974-47.1496 8.12315-47.1496 7.85827-47.0613 9.88905-52.8005 14.657-56.0674 19.7781-56.0674 27.813-56.0674 31.6096-48.9155 31.6096-41.6753 31.6096-34.6117 27.1949-27.6364 22.3387-22.1621L5.386-3.26692C4.41475-2.29567 4.41475-2.11908 4.41475 0L37.1722 0 39.6445-15.3633 37.4371-15.3633C36.9957-12.7145 36.3776-8.82951 35.4946-7.50508 34.8766-6.79873 29.0491-6.79873 27.1066-6.79873L11.2135-6.79873Z" transform="matrix(1.00276 0 0 1 1467.12 1962.62)"/><path d="M36.1127-20.3079 60.747-20.3079C61.9832-20.3079 63.6608-20.3079 63.6608-22.0738 63.6608-23.8397 61.9832-23.8397 60.747-23.8397L36.1127-23.8397 36.1127-48.5623C36.1127-49.7984 36.1127-51.476 34.3468-51.476 32.5809-51.476 32.5809-49.7984 32.5809-48.5623L32.5809-23.8397 7.85827-23.8397C6.62214-23.8397 4.94453-23.8397 4.94453-22.0738 4.94453-20.3079 6.62214-20.3079 7.85827-20.3079L32.5809-20.3079 32.5809 4.41475C32.5809 5.65089 32.5809 7.32849 34.3468 7.32849 36.1127 7.32849 36.1127 5.65089 36.1127 4.41475L36.1127-20.3079Z" transform="matrix(1.00276 0 0 1 1531.07 1962.62)"/><path d="M25.6056-31.0799C32.8458-33.4638 37.9669-39.6445 37.9669-46.6198 37.9669-53.86 30.1969-58.8045 21.7206-58.8045 12.8028-58.8045 6.09236-53.5068 6.09236-46.7964 6.09236-43.8827 8.03485-42.2051 10.5954-42.2051 13.3326-42.2051 15.0985-44.1476 15.0985-46.7081 15.0985-51.1229 10.9486-51.1229 9.62417-51.1229 12.3613-55.4493 18.1888-56.5972 21.3674-56.5972 24.9875-56.5972 29.8438-54.6547 29.8438-46.7081 29.8438-45.6486 29.6672-40.5275 27.3715-36.6425 24.7226-32.4043 21.7206-32.1394 19.5132-32.0511 18.8069-31.9628 16.6878-31.7862 16.0697-31.7862 15.3633-31.6979 14.7453-31.6096 14.7453-30.7267 14.7453-29.7555 15.3633-29.7555 16.8644-29.7555L20.7494-29.7555C27.9895-29.7555 31.2565-23.7514 31.2565-15.0985 31.2565-3.09033 25.1641-0.529774 21.2791-0.529774 17.4824-0.529774 10.8603-2.03079 7.76997-7.2402 10.8603-6.79873 13.5975-8.74122 13.5975-12.0964 13.5975-15.2751 11.2135-17.041 8.65292-17.041 6.53384-17.041 3.7084-15.8048 3.7084-11.9198 3.7084-3.88499 11.9198 1.94249 21.544 1.94249 32.316 1.94249 40.3509-6.09236 40.3509-15.0985 40.3509-22.3387 34.7883-29.2257 25.6056-31.0799Z" transform="matrix(1.00276 0 0 1 1619.61 1962.62)"/><path d="M34.3468-24.546 16.6878-42.1168C15.6282-43.1763 15.4516-43.3529 14.7453-43.3529 13.8623-43.3529 12.9794-42.5582 12.9794-41.587 12.9794-40.9689 13.156-40.7923 14.1272-39.8211L31.7862-22.0738 14.1272-4.32646C13.156-3.35521 12.9794-3.17862 12.9794-2.56056 12.9794-1.58932 13.8623-0.794658 14.7453-0.794658 15.4516-0.794658 15.6282-0.971246 16.6878-2.03079L34.2585-19.6015 52.5356-1.32442C52.7122-1.23613 53.3302-0.794658 53.86-0.794658 54.9196-0.794658 55.6259-1.58932 55.6259-2.56056 55.6259-2.73715 55.6259-3.09033 55.361-3.53181 55.2727-3.7084 41.2338-17.5707 36.8191-22.0738L52.9771-38.2318C53.4185-38.7616 54.743-39.9094 55.1844-40.4392 55.2727-40.6157 55.6259-40.9689 55.6259-41.587 55.6259-42.5582 54.9196-43.3529 53.86-43.3529 53.1537-43.3529 52.8005-42.9997 51.8292-42.0285L34.3468-24.546Z" transform="matrix(1.00276 0 0 1 1683.55 1962.62)"/><path d="M11.2135-6.79873 20.5728-15.8931C34.3468-28.0778 39.6445-32.8458 39.6445-41.6753 39.6445-51.7409 31.6979-58.8045 20.9259-58.8045 10.9486-58.8045 4.41475-50.6814 4.41475-42.8231 4.41475-37.8786 8.82951-37.8786 9.0944-37.8786 10.5954-37.8786 13.6857-38.9381 13.6857-42.5582 13.6857-44.8539 12.0964-47.1496 9.0061-47.1496 8.29974-47.1496 8.12315-47.1496 7.85827-47.0613 9.88905-52.8005 14.657-56.0674 19.7781-56.0674 27.813-56.0674 31.6096-48.9155 31.6096-41.6753 31.6096-34.6117 27.1949-27.6364 22.3387-22.1621L5.386-3.26692C4.41475-2.29567 4.41475-2.11908 4.41475 0L37.1722 0 39.6445-15.3633 37.4371-15.3633C36.9957-12.7145 36.3776-8.82951 35.4946-7.50508 34.8766-6.79873 29.0491-6.79873 27.1066-6.79873L11.2135-6.79873Z" transform="matrix(1.00276 0 0 1 1772.09 1962.62)"/><path d="M25.5173-22.0738C25.5173-28.9608 24.546-39.6445 19.6898-49.6218 14.3921-60.4821 6.79873-66.2213 5.91577-66.2213 5.386-66.2213 5.03282-65.8681 5.03282-65.3384 5.03282-65.0735 5.03282-64.8969 6.71043-63.3076 15.3633-54.5664 20.3962-40.5275 20.3962-22.0738 20.3962-6.97531 17.1293 8.56463 6.18066 19.6898 5.03282 20.7494 5.03282 20.9259 5.03282 21.1908 5.03282 21.7206 5.386 22.0738 5.91577 22.0738 6.79873 22.0738 14.7453 16.0697 19.9547 4.85623 24.4577-4.85623 25.5173-14.657 25.5173-22.0738Z" transform="matrix(1.00276 0 0 1 1816.36 1962.62)"/><path d="M38.7616-62.8661C39.203-64.014 39.203-64.3671 39.203-64.4554 39.203-65.4267 38.4084-66.2213 37.4371-66.2213 36.8191-66.2213 36.201-65.9564 35.9361-65.4267L5.2977 18.7186C4.85623 19.8664 4.85623 20.2196 4.85623 20.3079 4.85623 21.2791 5.65089 22.0738 6.62214 22.0738 7.76997 22.0738 8.03485 21.4557 8.56463 19.9547L38.7616-62.8661Z" transform="matrix(1.00276 0 0 1 1850.79 1962.62)"/><path d="M39.6445-17.7473C39.6445-28.2544 32.4043-37.0839 22.8684-37.0839 18.6303-37.0839 14.8336-35.6712 11.655-32.5809L11.655-49.7984C13.4209-49.2687 16.3346-48.6506 19.16-48.6506 30.0203-48.6506 36.201-56.6855 36.201-57.8333 36.201-58.3631 35.9361-58.8045 35.318-58.8045 35.2297-58.8045 35.0532-58.8045 34.6117-58.5397 32.8458-57.745 28.5193-55.9791 22.6035-55.9791 19.0717-55.9791 15.0102-56.5972 10.8603-58.4514 10.1539-58.7162 9.97735-58.7162 9.80076-58.7162 8.91781-58.7162 8.91781-58.0099 8.91781-56.5972L8.91781-30.4618C8.91781-28.8725 8.91781-28.1661 10.1539-28.1661 10.772-28.1661 10.9486-28.431 11.3018-28.9608 12.273-30.3735 15.5399-35.1415 22.6918-35.1415 27.2832-35.1415 29.4906-31.0799 30.1969-29.4906 31.6096-26.2236 31.7862-22.7801 31.7862-18.3654 31.7862-15.2751 31.7862-9.97735 29.6672-6.26895 27.5481-2.82544 24.2812-0.529774 20.2196-0.529774 13.774-0.529774 8.74122-5.20941 7.2402-10.4188 7.50508-10.3305 7.76997-10.2422 8.74122-10.2422 11.655-10.2422 13.156-12.4496 13.156-14.5687 13.156-16.6878 11.655-18.8952 8.74122-18.8952 7.50508-18.8952 4.41475-18.2771 4.41475-14.2155 4.41475-6.62214 10.5071 1.94249 20.3962 1.94249 30.6384 1.94249 39.6445-6.53384 39.6445-17.7473Z" transform="matrix(1.00276 0 0 1 1895.06 1962.62)"/><path d="M60.6587-28.8725C61.9832-28.8725 63.6608-28.8725 63.6608-30.6384 63.6608-32.4043 61.9832-32.4043 60.747-32.4043L7.85827-32.4043C6.62214-32.4043 4.94453-32.4043 4.94453-30.6384 4.94453-28.8725 6.62214-28.8725 7.94656-28.8725L60.6587-28.8725ZM60.747-11.7433C61.9832-11.7433 63.6608-11.7433 63.6608-13.5091 63.6608-15.275 61.9832-15.2751 60.6587-15.2751L7.94656-15.2751C6.62214-15.2751 4.94453-15.2751 4.94453-13.5091 4.94453-11.7432 6.62214-11.7433 7.85827-11.7433L60.747-11.7433Z" transform="matrix(1.00276 0 0 1 1963.92 1962.62)"/><path d="M11.2135-6.79873 20.5728-15.8931C34.3468-28.0778 39.6445-32.8458 39.6445-41.6753 39.6445-51.7409 31.6979-58.8045 20.9259-58.8045 10.9486-58.8045 4.41475-50.6814 4.41475-42.8231 4.41475-37.8786 8.82951-37.8786 9.0944-37.8786 10.5954-37.8786 13.6857-38.9381 13.6857-42.5582 13.6857-44.8539 12.0964-47.1496 9.0061-47.1496 8.29974-47.1496 8.12315-47.1496 7.85827-47.0613 9.88905-52.8005 14.657-56.0674 19.7781-56.0674 27.813-56.0674 31.6096-48.9155 31.6096-41.6753 31.6096-34.6117 27.1949-27.6364 22.3387-22.1621L5.386-3.26692C4.41475-2.29567 4.41475-2.11908 4.41475 0L37.1722 0 39.6445-15.3633 37.4371-15.3633C36.9957-12.7145 36.3776-8.82951 35.4946-7.50508 34.8766-6.79873 29.0491-6.79873 27.1066-6.79873L11.2135-6.79873Z" transform="matrix(1.00276 0 0 1 2057.38 1962.62)"/><path d="M16.9527-4.67964C16.9527-7.2402 14.8336-9.35928 12.273-9.35928 9.71246-9.35928 7.59338-7.2402 7.59338-4.67964 7.59338-2.11909 9.71247 0 12.273 0 14.8336 0 16.9527-2.11908 16.9527-4.67964Z" transform="matrix(1.00276 0 0 1 2101.65 1962.62)"/><path d="M11.2135-6.79873 20.5728-15.8931C34.3468-28.0778 39.6445-32.8458 39.6445-41.6753 39.6445-51.7409 31.6979-58.8045 20.9259-58.8045 10.9486-58.8045 4.41475-50.6814 4.41475-42.8231 4.41475-37.8786 8.82951-37.8786 9.0944-37.8786 10.5954-37.8786 13.6857-38.9381 13.6857-42.5582 13.6857-44.8539 12.0964-47.1496 9.0061-47.1496 8.29974-47.1496 8.12315-47.1496 7.85827-47.0613 9.88905-52.8005 14.657-56.0674 19.7781-56.0674 27.813-56.0674 31.6096-48.9155 31.6096-41.6753 31.6096-34.6117 27.1949-27.6364 22.3387-22.1621L5.386-3.26692C4.41475-2.29567 4.41475-2.11908 4.41475 0L37.1722 0 39.6445-15.3633 37.4371-15.3633C36.9957-12.7145 36.3776-8.82951 35.4946-7.50508 34.8766-6.79873 29.0491-6.79873 27.1066-6.79873L11.2135-6.79873Z" transform="matrix(1.00276 0 0 1 2126.25 1962.62)"/></g></g></g><g><g><g><path d="M15.0222-9.65115C11.6653-4.02831 8.39231-2.85338 4.69969-2.60162 3.69262-2.51769 2.93731-2.51769 2.93731-0.923154 2.93731-0.419612 3.35693 0 4.02831 0 6.29423 0 8.89584-0.251767 11.2457-0.251767 14.0152-0.251767 16.9525 0 19.638 0 20.1415 0 21.2325 0 21.2325-1.59454 21.2325-2.51769 20.4772-2.60162 19.8898-2.60162 17.9595-2.76946 15.9454-3.44085 15.9454-5.53892 15.9454-6.546 16.4489-7.46915 17.1203-8.64407L23.4985-19.3862 44.5631-19.3862C44.731-17.6238 45.9059-6.21031 45.9059-5.37108 45.9059-2.85338 41.5419-2.60162 39.8635-2.60162 38.6885-2.60162 37.8493-2.60162 37.8493-0.923154 37.8493 0 38.8564 0 39.0242 0 42.4651 0 46.0738-0.251767 49.5146-0.251767 51.6127-0.251767 56.8998 0 58.9979 0 59.5014 0 60.5085 0 60.5085-1.67846 60.5085-2.60162 59.6693-2.60162 58.5783-2.60162 53.3751-2.60162 53.3751-3.18907 53.1233-5.62285L48.004-58.0748C47.8361-59.7532 47.8361-60.0889 46.4095-60.0889 45.0667-60.0889 44.731-59.5014 44.2274-58.6622L15.0222-9.65115ZM25.093-21.9878 41.6258-49.6824 44.3114-21.9878 25.093-21.9878Z" fill="#C00000" transform="matrix(1.05184 0 0 1 1265 1037.83)"/><path d="M54.1304-58.3265C54.1304-58.5783 53.9625-59.1658 53.2072-59.1658 52.7876-59.1658 52.7037-59.0818 51.6966-57.9069L47.6683-53.1233C45.4863-57.0677 41.1223-59.1658 35.6673-59.1658 25.0091-59.1658 14.9383-49.5146 14.9383-39.3599 14.9383-32.5621 19.3862-28.7017 23.6663-27.4428L32.6461-25.093C35.7512-24.3377 40.367-23.0788 40.367-16.1972 40.367-8.64407 33.4853-0.755309 25.2608-0.755309 19.8898-0.755309 10.5743-2.60162 10.5743-13.0081 10.5743-15.0222 10.9939-17.0364 11.0778-17.5399 11.1618-17.8756 11.2457-17.9595 11.2457-18.1274 11.2457-18.9666 10.6582-19.0505 10.2386-19.0505 9.819-19.0505 9.65115-18.9666 9.39938-18.7148 9.06369-18.3791 4.364 0.755309 4.364 1.00708 4.364 1.51062 4.78361 1.84631 5.28716 1.84631 5.70677 1.84631 5.79069 1.76239 6.79777 0.587464L10.91-4.19615C14.5187 0.671387 20.2255 1.84631 25.093 1.84631 36.5065 1.84631 46.4095-9.31546 46.4095-19.7219 46.4095-25.5126 43.5561-28.366 42.2972-29.5409 40.367-31.4711 39.1081-31.8068 31.639-33.7371 29.7927-34.2406 26.7715-35.0798 26.0161-35.2477 23.7502-36.003 20.8968-38.4368 20.8968-42.8847 20.8968-49.6824 27.6107-56.8159 35.5834-56.8159 42.549-56.8159 47.6683-53.2072 47.6683-43.8078 47.6683-41.1223 47.3326-39.6117 47.3326-39.1081 47.3326-39.0242 47.3326-38.2689 48.3397-38.2689 49.1789-38.2689 49.2628-38.5207 49.5985-39.9474L54.1304-58.3265Z" fill="#C00000" transform="matrix(1.05184 0 0 1 1331.21 1037.83)"/><path d="M31.3872-50.7734C32.1425-53.7947 32.3943-54.7178 40.2831-54.7178 42.8008-54.7178 43.4721-54.7178 43.4721-56.3124 43.4721-57.3195 42.549-57.3195 42.1294-57.3195 39.3599-57.3195 32.4782-57.0677 29.7088-57.0677 27.1911-57.0677 21.0647-57.3195 18.547-57.3195 17.9595-57.3195 16.9525-57.3195 16.9525-55.641 16.9525-54.7178 17.7078-54.7178 19.3023-54.7178 19.4701-54.7178 21.0647-54.7178 22.4914-54.55 24.002-54.3821 24.7573-54.2982 24.7573-53.2072 24.7573-52.8715 24.6734-52.6198 24.4216-51.6127L13.1759-6.546C12.3367-3.273 12.1688-2.60162 5.53892-2.60162 4.11223-2.60162 3.273-2.60162 3.273-0.923154 3.273 0 4.02831 0 5.53892 0L44.3953 0C46.4095 0 46.4934 0 46.9969-1.42669L53.6268-19.5541C53.9625-20.4772 53.9625-20.6451 53.9625-20.729 53.9625-21.0647 53.7108-21.6522 52.9554-21.6522 52.2001-21.6522 52.1162-21.2325 51.5288-19.8898 48.6754-12.1688 44.9828-2.60162 30.4641-2.60162L22.5753-2.60162C21.4004-2.60162 21.2325-2.60162 20.729-2.68554 19.8898-2.76946 19.638-2.85338 19.638-3.52477 19.638-3.77654 19.638-3.94438 20.0576-5.455L31.3872-50.7734Z" fill="#C00000" transform="matrix(1.05184 0 0 1 1390.42 1037.83)"/><path d="M11.8335-8.46128C12.508-11.0978 13.1824-13.7343 13.7956-16.4321 13.8569-16.5547 14.2861-18.3328 14.3474-18.6394 14.5313-19.1912 16.0642-21.705 17.6583-23.2379 19.6204-25.016 21.705-25.3225 22.8087-25.3225 23.4831-25.3225 24.5868-25.2612 25.4452-24.5255 22.8087-23.9736 22.4408-21.705 22.4408-21.1532 22.4408-19.8043 23.4831-18.8846 24.832-18.8846 26.4875-18.8846 28.3269-20.2335 28.3269-22.6861 28.3269-24.8934 26.4262-27.0393 22.9313-27.0393 18.762-27.0393 15.9416-24.2802 14.654-22.6247 13.4277-27.0393 9.25836-27.0393 8.64523-27.0393 6.43794-27.0393 4.90509-25.6291 3.92407-23.7284 2.51386-20.9693 1.83941-17.8423 1.83941-17.6583 1.83941-17.1065 2.2686-16.8613 2.75911-16.8613 3.5562-16.8613 3.61751-17.1065 4.0467-18.7007 4.78247-21.705 5.88611-25.3225 8.46128-25.3225 10.0554-25.3225 10.4233-23.7897 10.4233-22.4408 10.4233-21.3372 10.1168-20.1722 9.62625-18.1488 9.50362-17.6583 8.58392-14.0408 8.33866-13.1824L6.07005-3.98539C5.8248-3.06569 5.45692-1.53284 5.45692-1.28758 5.45692 0.122626 6.62188 0.613136 7.41896 0.613136 9.56493 0.613136 9.99413-1.10365 10.4846-3.18831L11.8335-8.46128Z" fill="#C00000" transform="matrix(1.05184 0 0 1 1450.5 1051.5)"/><path d="M18.2715-38.2597C18.2715-39.6086 17.2905-40.5896 15.8802-40.5896 14.2861-40.5896 12.508-39.1181 12.508-37.2787 12.508-35.9298 13.489-34.9488 14.8992-34.9488 16.4934-34.9488 18.2715-36.4203 18.2715-38.2597ZM9.31968-15.7576 6.00874-7.29632C5.70217-6.37662 5.3956-5.64086 5.3956-4.59852 5.3956-1.59416 7.72552 0.613136 10.9751 0.613136 16.9226 0.613136 19.4364-7.97078 19.4364-8.76785 19.4364-9.38099 18.9459-9.56493 18.5167-9.56493 17.781-9.56493 17.6583-9.13574 17.4744-8.5226 16.0642-3.61751 13.5503-1.10365 11.0978-1.10365 10.362-1.10365 9.62625-1.41022 9.62625-3.06569 9.62625-4.53721 10.0554-5.64086 10.8525-7.54158 11.4657-9.19705 12.0788-10.8525 12.7532-12.508L14.654-17.4744C15.2058-18.8846 15.9416-20.7853 15.9416-21.8277 15.9416-24.8934 13.489-27.0393 10.362-27.0393 4.41458-27.0393 1.83941-18.4554 1.83941-17.6583 1.83941-17.1065 2.2686-16.8613 2.75911-16.8613 3.5562-16.8613 3.61751-17.2291 3.80145-17.8423 5.51823-23.6671 8.33866-25.3225 10.1781-25.3225 11.0365-25.3225 11.6496-25.016 11.6496-23.2992 11.6496-22.6861 11.5883-21.8277 10.9751-19.9883L9.31968-15.7576Z" fill="#C00000" transform="matrix(1.05184 0 0 1 1483.32 1051.5)"/><path d="M30.4116-22.6247C30.6568-23.5444 30.6568-23.9123 30.6568-23.9736 30.6568-25.3839 29.4919-25.8744 28.6948-25.8744 27.2846-25.8744 26.1809-24.7707 25.9357-23.4831 25.4452-24.4028 23.6058-27.0393 19.9269-27.0393 12.6306-27.0393 4.65984-18.8846 4.65984-9.93281 4.65984-3.31094 9.01311 0 13.5503 0 16.3708 0 18.8846-1.53284 20.908-3.31094L19.5591 2.20729C18.8846 4.78247 18.4554 6.56056 16.0642 8.58392 13.489 10.7912 11.1591 10.7912 9.62625 10.7912 8.09341 10.7912 6.62188 10.7299 5.15035 10.4233 6.49925 9.68756 7.11239 8.39997 7.11239 7.35764 7.11239 5.88611 6.00874 5.08903 4.72116 5.08903 3.18831 5.08903 1.28758 6.31531 1.28758 8.76785 1.28758 12.2627 6.07005 12.508 9.74887 12.508 18.4554 12.508 22.8087 7.84815 23.7284 4.10802L30.4116-22.6247ZM22.1342-8.09341C21.705-6.37662 20.3561-5.15035 19.0686-3.98539 18.5167-3.5562 16.1868-1.71678 13.6729-1.71678 11.2204-1.71678 9.4423-3.74013 9.4423-7.41896 9.4423-9.99413 10.9751-16.6773 12.6306-19.8043 14.5927-23.2992 17.4744-25.3225 19.9269-25.3225 24.035-25.3225 25.1386-20.7853 25.1386-20.2335L24.9547-19.3751 22.1342-8.09341Z" fill="#C00000" transform="matrix(1.05184 0 0 1 1506.65 1051.5)"/><path d="M17.9036-40.7123C17.9649-40.8349 18.1488-41.632 18.1488-41.6933 18.1488-41.9999 17.9036-42.5517 17.1678-42.5517 16.9226-42.5517 15.0218-42.3677 13.6116-42.2451L10.1781-41.9999C8.82917-41.8772 8.21603-41.8159 8.21603-40.7123 8.21603-39.8539 9.07443-39.8539 9.81019-39.8539 12.7532-39.8539 12.7532-39.486 12.7532-38.9342 12.7532-38.7502 12.7532-38.6276 12.4467-37.524L3.74013-2.63649C3.49488-1.71678 3.49488-1.3489 3.49488-1.28758 3.49488-0.245251 4.35327 0.613136 5.51823 0.613136 6.49925 0.613136 7.35764 0 7.84815-0.797074 8.03209-1.16496 8.5226-3.127 8.82917-4.35327L10.2394-9.81019C10.4233-10.7299 11.0365-13.0598 11.2204-13.9795 12.1401-17.5357 12.1401-17.6583 13.489-19.6204 15.5737-22.6247 18.4554-25.3225 22.5634-25.3225 24.7707-25.3225 26.0583-24.035 26.0583-21.1532 26.0583-17.781 23.4831-10.7912 22.3182-7.78683 21.5211-5.76349 21.5211-5.3956 21.5211-4.59852 21.5211-1.10365 24.4028 0.613136 27.0393 0.613136 33.0481 0.613136 35.5619-7.97078 35.5619-8.76785 35.5619-9.38099 35.0714-9.56493 34.6422-9.56493 33.9065-9.56493 33.7838-9.13574 33.5999-8.5226 32.1284-3.49488 29.5532-1.10365 27.2233-1.10365 26.2423-1.10365 25.7517-1.71678 25.7517-3.127 25.7517-4.53722 26.2423-5.88611 26.8554-7.41896 27.7751-9.74887 30.4729-16.7999 30.4729-20.2335 30.4729-24.832 27.2846-27.0393 22.87-27.0393 19.4364-27.0393 16.1868-25.5678 13.3664-22.3182L17.9036-40.7123Z" fill="#C00000" transform="matrix(1.05184 0 0 1 1541.57 1051.5)"/><path d="M13.5503-24.4028 19.5591-24.4028C20.724-24.4028 21.4598-24.4028 21.4598-25.5678 21.4598-26.4262 20.6627-26.4262 19.6204-26.4262L14.0408-26.4262 16.2481-35.1327C16.4934-36.0524 16.4934-36.359 16.4934-36.4203 16.4934-37.7079 15.5124-38.321 14.47-38.321 12.3854-38.321 11.9562-36.6656 11.2817-33.9065L9.38099-26.4262 3.49488-26.4262C2.32992-26.4262 1.53284-26.4262 1.53284-25.2612 1.53284-24.4028 2.32992-24.4028 3.37225-24.4028L8.89048-24.4028 5.21167-9.68756C4.84378-8.15472 4.29196-6.00874 4.29196-5.15035 4.29196-1.47153 7.29632 0.613136 10.5459 0.613136 17.1065 0.613136 20.8466-8.03209 20.8466-8.76785 20.8466-9.4423 20.2948-9.56493 19.9269-9.56493 19.2525-9.56493 19.1912-9.31968 18.762-8.39997 17.5357-5.45692 14.47-1.10365 10.7299-1.10365 9.4423-1.10365 8.70654-1.96204 8.70654-3.98539 8.70654-5.15035 8.89048-5.8248 9.07443-6.62188L13.5503-24.4028Z" fill="#C00000" transform="matrix(1.05184 0 0 1 1581.06 1051.5)"/><path d="M57.6551-27.4428C58.914-27.4428 60.5085-27.4428 60.5085-29.1213 60.5085-30.7998 58.914-30.7998 57.7391-30.7998L7.46915-30.7998C6.29423-30.7998 4.69969-30.7998 4.69969-29.1213 4.69969-27.4428 6.29423-27.4428 7.55308-27.4428L57.6551-27.4428ZM57.7391-11.1618C58.914-11.1618 60.5085-11.1618 60.5085-12.8402 60.5085-14.5187 58.914-14.5187 57.6551-14.5187L7.55308-14.5187C6.29423-14.5187 4.69969-14.5187 4.69969-12.8402 4.69969-11.1618 6.29423-11.1618 7.46915-11.1618L57.7391-11.1618Z" fill="#C00000" transform="matrix(1.05184 0 0 1 1634.36 1037.83)"/><path d="M12.2627-10.0554C12.4467-10.9751 13.0598-13.3051 13.2438-14.2248 14.1021-17.5357 14.1021-17.597 15.5124-19.6204 17.5357-22.6247 20.4174-25.3225 24.5255-25.3225 26.7328-25.3225 28.0203-24.035 28.0203-21.1532 28.0203-17.781 25.4452-10.7912 24.2802-7.78683 23.4831-5.76349 23.4831-5.3956 23.4831-4.59852 23.4831-1.10365 26.3649 0.613136 29.0014 0.613136 35.0101 0.613136 37.524-7.97078 37.524-8.76785 37.524-9.38099 37.0335-9.56493 36.6043-9.56493 35.8685-9.56493 35.7459-9.13574 35.5619-8.5226 34.0904-3.49488 31.5152-1.10365 29.1853-1.10365 28.2043-1.10365 27.7138-1.71678 27.7138-3.127 27.7138-4.53722 28.2043-5.88611 28.8174-7.41896 29.7371-9.74887 32.4349-16.7999 32.4349-20.2335 32.4349-24.832 29.2466-27.0393 24.832-27.0393 19.8656-27.0393 16.6773-24.035 14.8992-21.705 14.47-25.0773 11.7722-27.0393 8.64523-27.0393 6.43794-27.0393 4.90509-25.6291 3.92407-23.7284 2.45254-20.8466 1.83941-17.781 1.83941-17.6583 1.83941-17.1065 2.2686-16.8613 2.75911-16.8613 3.5562-16.8613 3.61751-17.1065 4.0467-18.7007 4.78247-21.705 5.88611-25.3225 8.46128-25.3225 10.0554-25.3225 10.4233-23.7897 10.4233-22.4408 10.4233-21.3372 10.1168-20.1722 9.62625-18.1488 9.50362-17.6583 8.58392-14.0408 8.33866-13.1824L6.07005-3.98539C5.8248-3.06569 5.45692-1.53284 5.45692-1.28758 5.45692 0.122626 6.62188 0.613136 7.41896 0.613136 8.5226 0.613136 9.4423-0.122626 9.8715-0.858395 10.0554-1.22627 10.5459-3.31094 10.8525-4.59852L12.2627-10.0554Z" fill="#C00000" transform="matrix(1.05184 0 0 1 1770.5 932.921)"/><path d="M106.247 117.492 116.401 90.6369 114.303 90.6369C111.03 99.3649 102.134 105.072 92.4832 107.589 90.7208 108.009 82.4964 110.191 66.3831 110.191L15.7775 110.191 58.4944 60.0889C59.0818 59.4175 59.2497 59.1658 59.2497 58.7461 59.2497 58.5783 59.2497 58.3265 58.6622 57.4873L19.5541 4.02831 65.5439 4.02831C76.7896 4.02831 84.4266 5.20323 85.1819 5.37108 89.7138 6.04246 97.0151 7.46915 103.645 11.6653 105.743 13.0081 111.45 16.7846 114.303 23.5824L116.401 23.5824 106.247 0 7.04953 0C5.1193 0 5.03538 0.0839224 4.78361 0.587464 4.69969 0.839232 4.69969 2.43377 4.69969 3.35693L49.095 64.1172 5.62285 115.059C4.78361 116.066 4.78361 116.485 4.78361 116.569 4.78361 117.492 5.53892 117.492 7.04953 117.492L106.247 117.492Z" fill="#C00000" transform="matrix(1.05184 0 0 1 1727.54 958.098)"/><path d="M18.2715-38.2597C18.2715-39.6086 17.2905-40.5896 15.8802-40.5896 14.2861-40.5896 12.508-39.1181 12.508-37.2787 12.508-35.9298 13.489-34.9488 14.8992-34.9488 16.4934-34.9488 18.2715-36.4203 18.2715-38.2597ZM9.31968-15.7576 6.00874-7.29632C5.70217-6.37662 5.3956-5.64086 5.3956-4.59852 5.3956-1.59416 7.72552 0.613136 10.9751 0.613136 16.9226 0.613136 19.4364-7.97078 19.4364-8.76785 19.4364-9.38099 18.9459-9.56493 18.5167-9.56493 17.781-9.56493 17.6583-9.13574 17.4744-8.5226 16.0642-3.61751 13.5503-1.10365 11.0978-1.10365 10.362-1.10365 9.62625-1.41022 9.62625-3.06569 9.62625-4.53721 10.0554-5.64086 10.8525-7.54158 11.4657-9.19705 12.0788-10.8525 12.7532-12.508L14.654-17.4744C15.2058-18.8846 15.9416-20.7853 15.9416-21.8277 15.9416-24.8934 13.489-27.0393 10.362-27.0393 4.41458-27.0393 1.83941-18.4554 1.83941-17.6583 1.83941-17.1065 2.2686-16.8613 2.75911-16.8613 3.5562-16.8613 3.61751-17.2291 3.80145-17.8423 5.51823-23.6671 8.33866-25.3225 10.1781-25.3225 11.0365-25.3225 11.6496-25.016 11.6496-23.2992 11.6496-22.6861 11.5883-21.8277 10.9751-19.9883L9.31968-15.7576Z" fill="#C00000" transform="matrix(1.05184 0 0 1 1735.84 1138.5)"/><path d="M44.8203-20.4174C45.74-20.4174 46.9663-20.4174 46.9663-21.8277 46.9663-23.2379 45.4947-23.2379 44.575-23.2379L6.00874-23.2379C5.08903-23.2379 3.61751-23.2379 3.61751-21.8277 3.61751-20.4175 4.84378-20.4174 5.76349-20.4174L44.8203-20.4174ZM44.575-7.41896C45.4947-7.41896 46.9663-7.41896 46.9663-8.82917 46.9663-10.2394 45.74-10.2394 44.8203-10.2394L5.76349-10.2394C4.84378-10.2394 3.61751-10.2394 3.61751-8.82917 3.61751-7.41895 5.08903-7.41896 6.00874-7.41896L44.575-7.41896Z" fill="#C00000" transform="matrix(1.05184 0 0 1 1759.17 1138.5)"/><path d="M19.2525-39.0568C19.2525-40.7123 19.1299-40.7736 17.4744-40.7736 14.9605-38.321 11.7109-36.8495 5.88611-36.8495L5.88611-34.8262C7.54158-34.8262 10.8525-34.8262 14.4087-36.4816L14.4087-5.02772C14.4087-2.75911 14.2248-2.02335 8.39997-2.02335L6.25399-2.02335 6.25399 0C8.76785-0.183938 14.0408-0.183938 16.7999-0.183938 19.5591-0.183938 24.8934-0.183938 27.4072 0L27.4072-2.02335 25.2612-2.02335C19.4364-2.02335 19.2525-2.75911 19.2525-5.02772L19.2525-39.0568Z" fill="#C00000" transform="matrix(1.05184 0 0 1 1812.47 1138.5)"/><path d="M3.77654 10.2386C3.10515 13.092 2.93731 13.6795-0.755309 13.6795-1.76239 13.6795-2.68554 13.6795-2.68554 15.274-2.68554 15.9454-2.26592 16.2811-1.59454 16.2811 0.671387 16.2811 3.10515 16.0293 5.455 16.0293 8.22446 16.0293 11.0778 16.2811 13.7634 16.2811 14.183 16.2811 15.274 16.2811 15.274 14.6026 15.274 13.6795 14.4348 13.6795 13.2598 13.6795 9.06369 13.6795 9.06369 13.092 9.06369 12.3367 9.06369 11.3296 12.5885-2.34984 13.1759-4.44792 14.2669-2.01415 16.6168 0.923154 20.8968 0.923154 30.6319 0.923154 41.1223-11.3296 41.1223-23.6663 41.1223-31.5551 36.3387-37.094 29.9605-37.094 25.7644-37.094 21.7361-34.0728 18.9666-30.7998 18.1274-35.3316 14.5187-37.094 11.4135-37.094 7.55308-37.094 5.95854-33.821 5.20323-32.3104 3.69262-29.457 2.60162-24.4216 2.60162-24.1698 2.60162-23.3306 3.44085-23.3306 3.60869-23.3306 4.44792-23.3306 4.53185-23.4145 5.03538-25.2608 6.46208-31.2194 8.14054-35.2477 11.1618-35.2477 12.5885-35.2477 13.7634-34.5763 13.7634-31.3872 13.7634-29.457 13.5116-28.5338 13.1759-27.1071L3.77654 10.2386ZM18.547-26.184C19.1345-28.4499 21.4004-30.7998 22.911-32.0586 25.8483-34.6602 28.2821-35.2477 29.7088-35.2477 33.0657-35.2477 35.0798-32.3104 35.0798-27.3589 35.0798-22.4075 32.3104-12.7563 30.7998-9.56723 27.9464-3.69262 23.9181-0.923154 20.8129-0.923154 15.274-0.923154 14.183-7.88877 14.183-8.39231 14.183-8.56015 14.183-8.728 14.4348-9.73507L18.547-26.184Z" fill="#C00000" transform="matrix(1.05184 0 0 1 1869.75 1037.83)"/><path d="M18.2715-38.2597C18.2715-39.6086 17.2905-40.5896 15.8802-40.5896 14.2861-40.5896 12.508-39.1181 12.508-37.2787 12.508-35.9298 13.489-34.9488 14.8992-34.9488 16.4934-34.9488 18.2715-36.4203 18.2715-38.2597ZM9.31968-15.7576 6.00874-7.29632C5.70217-6.37662 5.3956-5.64086 5.3956-4.59852 5.3956-1.59416 7.72552 0.613136 10.9751 0.613136 16.9226 0.613136 19.4364-7.97078 19.4364-8.76785 19.4364-9.38099 18.9459-9.56493 18.5167-9.56493 17.781-9.56493 17.6583-9.13574 17.4744-8.5226 16.0642-3.61751 13.5503-1.10365 11.0978-1.10365 10.362-1.10365 9.62625-1.41022 9.62625-3.06569 9.62625-4.53721 10.0554-5.64086 10.8525-7.54158 11.4657-9.19705 12.0788-10.8525 12.7532-12.508L14.654-17.4744C15.2058-18.8846 15.9416-20.7853 15.9416-21.8277 15.9416-24.8934 13.489-27.0393 10.362-27.0393 4.41458-27.0393 1.83941-18.4554 1.83941-17.6583 1.83941-17.1065 2.2686-16.8613 2.75911-16.8613 3.5562-16.8613 3.61751-17.2291 3.80145-17.8423 5.51823-23.6671 8.33866-25.3225 10.1781-25.3225 11.0365-25.3225 11.6496-25.016 11.6496-23.2992 11.6496-22.6861 11.5883-21.8277 10.9751-19.9883L9.31968-15.7576Z" fill="#C00000" transform="matrix(1.05184 0 0 1 1914.17 1050.41)"/><path d="M33.2335-31.8908C31.8908-31.8908 30.7158-31.8908 29.5409-30.7158 28.1982-29.457 28.0303-28.0303 28.0303-27.4428 28.0303-25.4287 29.5409-24.5055 31.1355-24.5055 33.5692-24.5055 35.8352-26.5197 35.8352-29.8766 35.8352-33.9888 31.8908-37.094 25.9322-37.094 14.6026-37.094 3.44085-25.093 3.44085-13.2598 3.44085-5.70677 8.30839 0.923154 17.0364 0.923154 29.0374 0.923154 36.0869-7.97269 36.0869-8.97976 36.0869-9.48331 35.5834-10.0708 35.0798-10.0708 34.6602-10.0708 34.4924-9.90292 33.9888-9.23154 27.3589-0.923154 18.2113-0.923154 17.2042-0.923154 11.9171-0.923154 9.65115-5.03538 9.65115-10.0708 9.65115-13.5116 11.3296-21.6522 14.183-26.8554 16.7846-31.639 21.4004-35.2477 26.0161-35.2477 28.8695-35.2477 32.0586-34.1567 33.2335-31.8908Z" fill="#C00000" transform="matrix(1.05184 0 0 1 1941.53 1037.83)"/><path d="M18.2715-38.2597C18.2715-39.6086 17.2905-40.5896 15.8802-40.5896 14.2861-40.5896 12.508-39.1181 12.508-37.2787 12.508-35.9298 13.489-34.9488 14.8992-34.9488 16.4934-34.9488 18.2715-36.4203 18.2715-38.2597ZM9.31968-15.7576 6.00874-7.29632C5.70217-6.37662 5.3956-5.64086 5.3956-4.59852 5.3956-1.59416 7.72552 0.613136 10.9751 0.613136 16.9226 0.613136 19.4364-7.97078 19.4364-8.76785 19.4364-9.38099 18.9459-9.56493 18.5167-9.56493 17.781-9.56493 17.6583-9.13574 17.4744-8.5226 16.0642-3.61751 13.5503-1.10365 11.0978-1.10365 10.362-1.10365 9.62625-1.41022 9.62625-3.06569 9.62625-4.53721 10.0554-5.64086 10.8525-7.54158 11.4657-9.19705 12.0788-10.8525 12.7532-12.508L14.654-17.4744C15.2058-18.8846 15.9416-20.7853 15.9416-21.8277 15.9416-24.8934 13.489-27.0393 10.362-27.0393 4.41458-27.0393 1.83941-18.4554 1.83941-17.6583 1.83941-17.1065 2.2686-16.8613 2.75911-16.8613 3.5562-16.8613 3.61751-17.2291 3.80145-17.8423 5.51823-23.6671 8.33866-25.3225 10.1781-25.3225 11.0365-25.3225 11.6496-25.016 11.6496-23.2992 11.6496-22.6861 11.5883-21.8277 10.9751-19.9883L9.31968-15.7576Z" fill="#C00000" transform="matrix(1.05184 0 0 1 1979.73 1050.41)"/><path d="M57.6551-27.4428C58.914-27.4428 60.5085-27.4428 60.5085-29.1213 60.5085-30.7998 58.914-30.7998 57.7391-30.7998L7.46915-30.7998C6.29423-30.7998 4.69969-30.7998 4.69969-29.1213 4.69969-27.4428 6.29423-27.4428 7.55308-27.4428L57.6551-27.4428ZM57.7391-11.1618C58.914-11.1618 60.5085-11.1618 60.5085-12.8402 60.5085-14.5187 58.914-14.5187 57.6551-14.5187L7.55308-14.5187C6.29423-14.5187 4.69969-14.5187 4.69969-12.8402 4.69969-11.1618 6.29423-11.1618 7.46915-11.1618L57.7391-11.1618Z" fill="#C00000" transform="matrix(1.05184 0 0 1 2031.61 1037.83)"/><path d="M27.7785 20.1415C27.7785 19.8898 27.7785 19.7219 26.3518 18.2952 15.8615 7.72092 13.1759-8.14054 13.1759-20.9808 13.1759-35.5834 16.365-50.186 26.6875-60.6764 27.7785-61.6835 27.7785-61.8513 27.7785-62.1031 27.7785-62.6905 27.4428-62.9423 26.9393-62.9423 26.1001-62.9423 18.547-57.2355 13.5955-46.5773 9.31546-37.3458 8.30839-28.0303 8.30839-20.9808 8.30839-14.4348 9.23154-4.28007 13.8473 5.20323 18.8827 15.5258 26.1001 20.9808 26.9393 20.9808 27.4428 20.9808 27.7785 20.729 27.7785 20.1415Z" fill="#C00000" transform="matrix(1.05184 0 0 1 2124.79 1037.83)"/><path d="M24.6734-53.7108C24.6734-55.7249 24.6734-55.8928 22.7432-55.8928 17.5399-50.5217 10.1547-50.5217 7.46915-50.5217L7.46915-47.9201C9.14762-47.9201 14.0991-47.9201 18.4631-50.1021L18.4631-6.62992C18.4631-3.60869 18.2113-2.60162 10.6582-2.60162L7.97269-2.60162 7.97269 0C10.91-0.251767 18.2113-0.251767 21.5682-0.251767 24.9252-0.251767 32.2265-0.251767 35.1638 0L35.1638-2.60162 32.4782-2.60162C24.9251-2.60162 24.6734-3.52477 24.6734-6.62992L24.6734-53.7108Z" fill="#C00000" transform="matrix(1.05184 0 0 1 2159.11 1037.83)"/><path d="M34.3245-19.3023 57.7391-19.3023C58.914-19.3023 60.5085-19.3023 60.5085-20.9808 60.5085-22.6592 58.914-22.6592 57.7391-22.6592L34.3245-22.6592 34.3245-46.1577C34.3245-47.3326 34.3245-48.9271 32.6461-48.9271 30.9676-48.9271 30.9676-47.3326 30.9676-46.1577L30.9676-22.6592 7.46915-22.6592C6.29423-22.6592 4.69969-22.6592 4.69969-20.9808 4.69969-19.3023 6.29423-19.3023 7.46915-19.3023L30.9676-19.3023 30.9676 4.19615C30.9676 5.37108 30.9676 6.96561 32.6461 6.96561 34.3245 6.96561 34.3245 5.37108 34.3245 4.19615L34.3245-19.3023Z" fill="#C00000" transform="matrix(1.05184 0 0 1 2222.87 1037.83)"/><path d="M10.6582-6.46208 19.5541-15.1062C32.6461-26.6875 37.6814-31.2194 37.6814-39.6117 37.6814-49.1789 30.1284-55.8928 19.8898-55.8928 10.4065-55.8928 4.19615-48.1718 4.19615-40.7027 4.19615-36.003 8.39231-36.003 8.64407-36.003 10.0708-36.003 13.0081-37.0101 13.0081-40.4509 13.0081-42.6329 11.4975-44.8149 8.56015-44.8149 7.88877-44.8149 7.72092-44.8149 7.46915-44.731 9.39938-50.186 13.9312-53.2911 18.7988-53.2911 26.4358-53.2911 30.0445-46.4934 30.0445-39.6117 30.0445-32.8978 25.8483-26.2679 21.2325-21.0647L5.1193-3.10515C4.19615-2.182 4.19615-2.01415 4.19615 0L35.3316 0 37.6814-14.6026 35.5834-14.6026C35.1638-12.0849 34.5763-8.39231 33.7371-7.13346 33.1496-6.46208 27.6107-6.46208 25.7644-6.46208L10.6582-6.46208Z" fill="#C00000" transform="matrix(1.05184 0 0 1 2311.14 1037.83)"/><path d="M34.3245-19.3023 57.7391-19.3023C58.914-19.3023 60.5085-19.3023 60.5085-20.9808 60.5085-22.6592 58.914-22.6592 57.7391-22.6592L34.3245-22.6592 34.3245-46.1577C34.3245-47.3326 34.3245-48.9271 32.6461-48.9271 30.9676-48.9271 30.9676-47.3326 30.9676-46.1577L30.9676-22.6592 7.46915-22.6592C6.29423-22.6592 4.69969-22.6592 4.69969-20.9808 4.69969-19.3023 6.29423-19.3023 7.46915-19.3023L30.9676-19.3023 30.9676 4.19615C30.9676 5.37108 30.9676 6.96561 32.6461 6.96561 34.3245 6.96561 34.3245 5.37108 34.3245 4.19615L34.3245-19.3023Z" fill="#C00000" transform="matrix(1.05184 0 0 1 2374.89 1037.83)"/><path d="M24.3377-29.5409C31.2194-31.8068 36.0869-37.6814 36.0869-44.3114 36.0869-51.1931 28.7017-55.8928 20.6451-55.8928 12.1688-55.8928 5.79069-50.8574 5.79069-44.4792 5.79069-41.7098 7.637-40.1152 10.0708-40.1152 12.6724-40.1152 14.3508-41.9615 14.3508-44.3953 14.3508-48.5915 10.4065-48.5915 9.14762-48.5915 11.7492-52.7037 17.2881-53.7947 20.3094-53.7947 23.7502-53.7947 28.366-51.9484 28.366-44.3953 28.366-43.3882 28.1982-38.5207 26.0161-34.8281 23.4985-30.7998 20.6451-30.548 18.547-30.4641 17.8756-30.3801 15.8615-30.2123 15.274-30.2123 14.6026-30.1284 14.0152-30.0445 14.0152-29.2052 14.0152-28.2821 14.6026-28.2821 16.0293-28.2821L19.7219-28.2821C26.6036-28.2821 29.7088-22.5753 29.7088-14.3508 29.7088-2.93731 23.9181-0.503542 20.2255-0.503542 16.6168-0.503542 10.3225-1.93023 7.38523-6.88169 10.3225-6.46208 12.9242-8.30839 12.9242-11.4975 12.9242-14.5187 10.6582-16.1972 8.22446-16.1972 6.21031-16.1972 3.52477-15.0222 3.52477-11.3296 3.52477-3.69262 11.3296 1.84631 20.4772 1.84631 30.7158 1.84631 38.3528-5.79069 38.3528-14.3508 38.3528-21.2325 33.0657-27.7785 24.3377-29.5409Z" fill="#C00000" transform="matrix(1.05184 0 0 1 2463.17 1037.83)"/><path d="M34.3245-19.3023 57.7391-19.3023C58.914-19.3023 60.5085-19.3023 60.5085-20.9808 60.5085-22.6592 58.914-22.6592 57.7391-22.6592L34.3245-22.6592 34.3245-46.1577C34.3245-47.3326 34.3245-48.9271 32.6461-48.9271 30.9676-48.9271 30.9676-47.3326 30.9676-46.1577L30.9676-22.6592 7.46915-22.6592C6.29423-22.6592 4.69969-22.6592 4.69969-20.9808 4.69969-19.3023 6.29423-19.3023 7.46915-19.3023L30.9676-19.3023 30.9676 4.19615C30.9676 5.37108 30.9676 6.96561 32.6461 6.96561 34.3245 6.96561 34.3245 5.37108 34.3245 4.19615L34.3245-19.3023Z" fill="#C00000" transform="matrix(1.05184 0 0 1 2526.92 1037.83)"/><path d="M24.6734-13.8473 24.6734-6.546C24.6734-3.52477 24.5055-2.60162 18.2952-2.60162L16.5328-2.60162 16.5328 0C19.9737-0.251767 24.3377-0.251767 27.8625-0.251767 31.3872-0.251767 35.8352-0.251767 39.276 0L39.276-2.60162 37.5136-2.60162C31.3033-2.60162 31.1355-3.52477 31.1355-6.546L31.1355-13.8473 39.5278-13.8473 39.5278-16.4489 31.1355-16.4489 31.1355-54.6339C31.1355-56.3124 31.1355-56.8159 29.7927-56.8159 29.0374-56.8159 28.7856-56.8159 28.1142-55.8088L2.34984-16.4489 2.34984-13.8473 24.6734-13.8473ZM25.1769-16.4489 4.69969-16.4489 25.1769-47.7522 25.1769-16.4489Z" fill="#C00000" transform="matrix(1.05184 0 0 1 2615.19 1037.83)"/><path d="M34.3245-19.3023 57.7391-19.3023C58.914-19.3023 60.5085-19.3023 60.5085-20.9808 60.5085-22.6592 58.914-22.6592 57.7391-22.6592L34.3245-22.6592 34.3245-46.1577C34.3245-47.3326 34.3245-48.9271 32.6461-48.9271 30.9676-48.9271 30.9676-47.3326 30.9676-46.1577L30.9676-22.6592 7.46915-22.6592C6.29423-22.6592 4.69969-22.6592 4.69969-20.9808 4.69969-19.3023 6.29423-19.3023 7.46915-19.3023L30.9676-19.3023 30.9676 4.19615C30.9676 5.37108 30.9676 6.96561 32.6461 6.96561 34.3245 6.96561 34.3245 5.37108 34.3245 4.19615L34.3245-19.3023Z" fill="#C00000" transform="matrix(1.05184 0 0 1 2678.95 1037.83)"/><path d="M37.6814-16.8685C37.6814-26.8554 30.7998-35.2477 21.7361-35.2477 17.7078-35.2477 14.0991-33.9049 11.0778-30.9676L11.0778-47.3326C12.7563-46.8291 15.5258-46.2416 18.2113-46.2416 28.5338-46.2416 34.4085-53.8786 34.4085-54.9696 34.4085-55.4731 34.1567-55.8928 33.5692-55.8928 33.4853-55.8928 33.3175-55.8928 32.8978-55.641 31.2194-54.8857 27.1071-53.2072 21.4843-53.2072 18.1274-53.2072 14.2669-53.7947 10.3225-55.5571 9.65115-55.8088 9.48331-55.8088 9.31546-55.8088 8.47623-55.8088 8.47623-55.1375 8.47623-53.7947L8.47623-28.9535C8.47623-27.4428 8.47623-26.7715 9.65115-26.7715 10.2386-26.7715 10.4065-27.0232 10.7422-27.5268 11.6653-28.8695 14.7705-33.4014 21.5682-33.4014 25.9322-33.4014 28.0303-29.5409 28.7017-28.0303 30.0445-24.9251 30.2123-21.6522 30.2123-17.456 30.2123-14.5187 30.2123-9.48331 28.1982-5.95854 26.184-2.68554 23.0788-0.503542 19.2184-0.503542 13.092-0.503542 8.30839-4.95146 6.88169-9.90292 7.13346-9.819 7.38523-9.73507 8.30839-9.73507 11.0778-9.73507 12.5045-11.8331 12.5045-13.8473 12.5045-15.8615 11.0778-17.9595 8.30839-17.9595 7.13346-17.9595 4.19615-17.3721 4.19615-13.5116 4.19615-6.29423 9.98684 1.84631 19.3862 1.84631 29.1213 1.84631 37.6814-6.21031 37.6814-16.8685Z" fill="#C00000" transform="matrix(1.05184 0 0 1 2767.22 1037.83)"/><path d="M24.2538-20.9808C24.2538-27.5268 23.3306-37.6814 18.7148-47.1648 13.6795-57.4873 6.46208-62.9423 5.62285-62.9423 5.1193-62.9423 4.78361-62.6066 4.78361-62.1031 4.78361-61.8513 4.78361-61.6835 6.37816-60.1728 14.6026-51.8644 19.3862-38.5207 19.3862-20.9808 19.3862-6.62992 16.2811 8.14054 5.87461 18.7148 4.78361 19.7219 4.78361 19.8898 4.78361 20.1415 4.78361 20.6451 5.1193 20.9808 5.62285 20.9808 6.46208 20.9808 14.0152 15.274 18.9666 4.61577 23.2467-4.61577 24.2538-13.9312 24.2538-20.9808Z" fill="#C00000" transform="matrix(1.05184 0 0 1 2811.36 1037.83)"/><path d="M36.8422-59.7532C37.2618-60.8442 37.2618-61.1799 37.2618-61.2638 37.2618-62.187 36.5065-62.9423 35.5834-62.9423 34.9959-62.9423 34.4085-62.6905 34.1567-62.187L5.03538 17.7917C4.61577 18.8827 4.61577 19.2184 4.61577 19.3023 4.61577 20.2255 5.37108 20.9808 6.29423 20.9808 7.38523 20.9808 7.637 20.3933 8.14054 18.9666L36.8422-59.7532Z" fill="#C00000" transform="matrix(1.05184 0 0 1 2845.69 1037.83)"/><path d="M37.6814-16.8685C37.6814-26.8554 30.7998-35.2477 21.7361-35.2477 17.7078-35.2477 14.0991-33.9049 11.0778-30.9676L11.0778-47.3326C12.7563-46.8291 15.5258-46.2416 18.2113-46.2416 28.5338-46.2416 34.4085-53.8786 34.4085-54.9696 34.4085-55.4731 34.1567-55.8928 33.5692-55.8928 33.4853-55.8928 33.3175-55.8928 32.8978-55.641 31.2194-54.8857 27.1071-53.2072 21.4843-53.2072 18.1274-53.2072 14.2669-53.7947 10.3225-55.5571 9.65115-55.8088 9.48331-55.8088 9.31546-55.8088 8.47623-55.8088 8.47623-55.1375 8.47623-53.7947L8.47623-28.9535C8.47623-27.4428 8.47623-26.7715 9.65115-26.7715 10.2386-26.7715 10.4065-27.0232 10.7422-27.5268 11.6653-28.8695 14.7705-33.4014 21.5682-33.4014 25.9322-33.4014 28.0303-29.5409 28.7017-28.0303 30.0445-24.9251 30.2123-21.6522 30.2123-17.456 30.2123-14.5187 30.2123-9.48331 28.1982-5.95854 26.184-2.68554 23.0788-0.503542 19.2184-0.503542 13.092-0.503542 8.30839-4.95146 6.88169-9.90292 7.13346-9.819 7.38523-9.73507 8.30839-9.73507 11.0778-9.73507 12.5045-11.8331 12.5045-13.8473 12.5045-15.8615 11.0778-17.9595 8.30839-17.9595 7.13346-17.9595 4.19615-17.3721 4.19615-13.5116 4.19615-6.29423 9.98684 1.84631 19.3862 1.84631 29.1213 1.84631 37.6814-6.21031 37.6814-16.8685Z" fill="#C00000" transform="matrix(1.05184 0 0 1 2889.82 1037.83)"/><path d="M57.6551-27.4428C58.914-27.4428 60.5085-27.4428 60.5085-29.1213 60.5085-30.7998 58.914-30.7998 57.7391-30.7998L7.46915-30.7998C6.29423-30.7998 4.69969-30.7998 4.69969-29.1213 4.69969-27.4428 6.29423-27.4428 7.55308-27.4428L57.6551-27.4428ZM57.7391-11.1618C58.914-11.1618 60.5085-11.1618 60.5085-12.8402 60.5085-14.5187 58.914-14.5187 57.6551-14.5187L7.55308-14.5187C6.29423-14.5187 4.69969-14.5187 4.69969-12.8402 4.69969-11.1618 6.29423-11.1618 7.46915-11.1618L57.7391-11.1618Z" fill="#C00000" transform="matrix(1.05184 0 0 1 2958.48 1037.83)"/><path d="M24.3377-29.5409C31.2194-31.8068 36.0869-37.6814 36.0869-44.3114 36.0869-51.1931 28.7017-55.8928 20.6451-55.8928 12.1688-55.8928 5.79069-50.8574 5.79069-44.4792 5.79069-41.7098 7.637-40.1152 10.0708-40.1152 12.6724-40.1152 14.3508-41.9615 14.3508-44.3953 14.3508-48.5915 10.4065-48.5915 9.14762-48.5915 11.7492-52.7037 17.2881-53.7947 20.3094-53.7947 23.7502-53.7947 28.366-51.9484 28.366-44.3953 28.366-43.3882 28.1982-38.5207 26.0161-34.8281 23.4985-30.7998 20.6451-30.548 18.547-30.4641 17.8756-30.3801 15.8615-30.2123 15.274-30.2123 14.6026-30.1284 14.0152-30.0445 14.0152-29.2052 14.0152-28.2821 14.6026-28.2821 16.0293-28.2821L19.7219-28.2821C26.6036-28.2821 29.7088-22.5753 29.7088-14.3508 29.7088-2.93731 23.9181-0.503542 20.2255-0.503542 16.6168-0.503542 10.3225-1.93023 7.38523-6.88169 10.3225-6.46208 12.9242-8.30839 12.9242-11.4975 12.9242-14.5187 10.6582-16.1972 8.22446-16.1972 6.21031-16.1972 3.52477-15.0222 3.52477-11.3296 3.52477-3.69262 11.3296 1.84631 20.4772 1.84631 30.7158 1.84631 38.3528-5.79069 38.3528-14.3508 38.3528-21.2325 33.0657-27.7785 24.3377-29.5409Z" fill="#C00000" transform="matrix(1.05184 0 0 1 3051.66 1037.83)"/></g></g></g></g></svg>