<svg width="1950" height="684" xmlns="http://www.w3.org/2000/svg" xmlns:xlink="http://www.w3.org/1999/xlink" xml:space="preserve" overflow="hidden"><g transform="translate(-315 -908)"><path d="M776.5 989.5C776.5 945.87 811.87 910.5 855.5 910.5 899.131 910.5 934.5 945.87 934.5 989.5 934.5 1033.13 899.131 1068.5 855.5 1068.5 811.87 1068.5 776.5 1033.13 776.5 989.5Z" stroke="#5C5C5C" stroke-width="4.58333" stroke-linejoin="round" stroke-miterlimit="10" fill="none" fill-rule="evenodd"/><text font-family="Calibri,Calibri_MSFontService,sans-serif" font-weight="400" font-size="83" transform="matrix(1 0 0 1 813.361 1026)">40</text><path d="M992.5 1219.5C992.5 1175.87 1027.87 1140.5 1071.5 1140.5 1115.13 1140.5 1150.5 1175.87 1150.5 1219.5 1150.5 1263.13 1115.13 1298.5 1071.5 1298.5 1027.87 1298.5 992.5 1263.13 992.5 1219.5Z" stroke="#5C5C5C" stroke-width="4.58333" stroke-linejoin="round" stroke-miterlimit="10" fill="none" fill-rule="evenodd"/><text font-family="Calibri,Calibri_MSFontService,sans-serif" font-weight="400" font-size="83" transform="matrix(1 0 0 1 1029.33 1256)">55</text><path d="M560.5 1219.5C560.5 1175.87 595.87 1140.5 639.5 1140.5 683.13 1140.5 718.5 1175.87 718.5 1219.5 718.5 1263.13 683.13 1298.5 639.5 1298.5 595.87 1298.5 560.5 1263.13 560.5 1219.5Z" stroke="#5C5C5C" stroke-width="4.58333" stroke-linejoin="round" stroke-miterlimit="10" fill="none" fill-rule="evenodd"/><text font-family="Calibri,Calibri_MSFontService,sans-serif" font-weight="400" font-size="83" transform="matrix(1 0 0 1 597.394 1256)">24</text><path d="M781.5 1483.5C781.5 1439.87 816.869 1404.5 860.5 1404.5 904.13 1404.5 939.5 1439.87 939.5 1483.5 939.5 1527.13 904.13 1562.5 860.5 1562.5 816.869 1562.5 781.5 1527.13 781.5 1483.5Z" stroke="#5C5C5C" stroke-width="4.58333" stroke-linejoin="round" stroke-miterlimit="10" fill="none" fill-rule="evenodd"/><text font-family="Calibri,Calibri_MSFontService,sans-serif" font-weight="400" font-size="83" transform="matrix(1 0 0 1 817.944 1520)">37</text><path d="M344.5 1483.5C344.5 1439.87 379.869 1404.5 423.5 1404.5 467.131 1404.5 502.5 1439.87 502.5 1483.5 502.5 1527.13 467.131 1562.5 423.5 1562.5 379.869 1562.5 344.5 1527.13 344.5 1483.5Z" stroke="#5C5C5C" stroke-width="4.58333" stroke-linejoin="round" stroke-miterlimit="10" fill="none" fill-rule="evenodd"/><text font-family="Calibri,Calibri_MSFontService,sans-serif" font-weight="400" font-size="83" transform="matrix(1 0 0 1 381.427 1520)">12</text><path d="M0 0 122.1 105.6" stroke="#000000" stroke-width="9.16667" stroke-linejoin="round" stroke-miterlimit="10" fill="none" fill-rule="evenodd" transform="matrix(-1 0 0 1 806.6 1052.5)"/><path d="M1031 1161.2 915.5 1032.5" stroke="#000000" stroke-width="9.16667" stroke-linejoin="round" stroke-miterlimit="10" fill="none" fill-rule="evenodd"/><path d="M0 0 128.7 122.1" stroke="#000000" stroke-width="9.16667" stroke-linejoin="round" stroke-miterlimit="10" fill="none" fill-rule="evenodd" transform="matrix(1 0 0 -1 466.5 1408.6)"/><path d="M822.5 1412.1 690.5 1273.5" stroke="#000000" stroke-width="9.16667" stroke-linejoin="round" stroke-miterlimit="10" fill="none" fill-rule="evenodd"/><text font-family="Calibri,Calibri_MSFontService,sans-serif" font-weight="400" font-size="83" transform="matrix(1 0 0 1 1474.7 1254)">12, 24, 37, 40, 55</text></g></svg>