<svg width="2413" height="1157" xmlns="http://www.w3.org/2000/svg" xmlns:xlink="http://www.w3.org/1999/xlink" xml:space="preserve" overflow="hidden"><g transform="translate(-646 -955)"><text font-family="Microsoft YaHei,Microsoft YaHei_MSFontService,sans-serif" font-weight="400" font-size="128" transform="matrix(1 0 0 1 1480.29 2000)">判断二叉树是否是</text><text font-family="Calibri,Calibri_MSFontService,sans-serif" font-weight="400" font-size="128" transform="matrix(1 0 0 1 2506.95 2000)">AVL</text><text font-family="Microsoft YaHei,Microsoft YaHei_MSFontService,sans-serif" font-weight="400" font-size="128" transform="matrix(1 0 0 1 2702.48 2000)">树</text><g><g><g><g><path d="M1014.5 855.744C1014.5 810.835 1055.24 774.429 1105.5 774.429 1155.75 774.429 1196.49 810.835 1196.49 855.744 1196.49 900.654 1155.75 937.059 1105.5 937.059 1055.24 937.059 1014.5 900.654 1014.5 855.744Z" stroke="#000000" stroke-width="15.4886" stroke-linejoin="round" stroke-miterlimit="10" fill="none" fill-rule="evenodd" transform="matrix(1 0 0 1.0004 -43.2421 211.758)"/><path d="M1332.02 1392.04C1332.02 1346.06 1372.76 1308.79 1423.01 1308.79 1473.27 1308.79 1514.01 1346.06 1514.01 1392.04 1514.01 1438.01 1473.27 1475.29 1423.01 1475.29 1372.76 1475.29 1332.02 1438.01 1332.02 1392.04Z" stroke="#000000" stroke-width="15.4886" stroke-linejoin="round" stroke-miterlimit="10" fill="none" fill-rule="evenodd" transform="matrix(1 0 0 1.0004 -43.2421 211.758)"/><path d="M1204.24 1730.85C1204.24 1685.94 1244.98 1649.53 1295.23 1649.53 1345.49 1649.53 1386.23 1685.94 1386.23 1730.85 1386.23 1775.76 1345.49 1812.16 1295.23 1812.16 1244.98 1812.16 1204.24 1775.76 1204.24 1730.85Z" stroke="#000000" stroke-width="15.4886" stroke-linejoin="round" stroke-miterlimit="10" fill="none" fill-rule="evenodd" transform="matrix(1 0 0 1.0004 -43.2421 211.758)"/><path d="M855.744 1090.01C855.744 1044.03 896.483 1006.76 946.74 1006.76 996.996 1006.76 1037.74 1044.03 1037.74 1090.01 1037.74 1135.99 996.996 1173.26 946.74 1173.26 896.483 1173.26 855.744 1135.99 855.744 1090.01Z" stroke="#000000" stroke-width="15.4886" stroke-linejoin="round" stroke-miterlimit="10" fill="none" fill-rule="evenodd" transform="matrix(1 0 0 1.0004 -43.2421 211.758)"/><path d="M1196.49 1090.01C1196.49 1044.03 1237.23 1006.76 1287.49 1006.76 1337.75 1006.76 1378.48 1044.03 1378.48 1090.01 1378.48 1135.99 1337.75 1173.26 1287.49 1173.26 1237.23 1173.26 1196.49 1135.99 1196.49 1090.01Z" stroke="#000000" stroke-width="15.4886" stroke-linejoin="round" stroke-miterlimit="10" fill="none" fill-rule="evenodd" transform="matrix(1 0 0 1.0004 -43.2421 211.758)"/><path d="M0 0 65.8265 65.8265" stroke="#000000" stroke-width="15.4886" stroke-linejoin="round" stroke-miterlimit="10" fill="#6C4C8F" fill-rule="evenodd" transform="matrix(-1 0 0 1.0004 1017.73 1153.06)"/><path d="M0 0 112.292 170.374" stroke="#000000" stroke-width="15.4886" stroke-linejoin="round" stroke-miterlimit="10" fill="#6C4C8F" fill-rule="evenodd" transform="matrix(-1 0 0 1.0004 1358.47 1691.51)"/><path d="M1297.17 1153.9 1393.97 1320.4" stroke="#000000" stroke-width="15.4886" stroke-linejoin="round" stroke-miterlimit="10" fill="#6C4C8F" fill-rule="evenodd" transform="matrix(1 0 0 1.0004 -43.2421 211.758)"/><path d="M1014.5 1359.12C1014.5 1314.21 1055.24 1277.81 1105.5 1277.81 1155.75 1277.81 1196.49 1314.21 1196.49 1359.12 1196.49 1404.03 1155.75 1440.44 1105.5 1440.44 1055.24 1440.44 1014.5 1404.03 1014.5 1359.12Z" stroke="#000000" stroke-width="15.4886" stroke-linejoin="round" stroke-miterlimit="10" fill="none" fill-rule="evenodd" transform="matrix(1 0 0 1.0004 -43.2421 211.758)"/><path d="M696.986 1324.27C696.986 1279.36 737.725 1242.96 787.982 1242.96 838.238 1242.96 878.977 1279.36 878.977 1324.27 878.977 1369.18 838.238 1405.59 787.982 1405.59 737.725 1405.59 696.986 1369.18 696.986 1324.27Z" stroke="#000000" stroke-width="15.4886" stroke-linejoin="round" stroke-miterlimit="10" fill="none" fill-rule="evenodd" transform="matrix(1 0 0 1.0004 -43.2421 211.758)"/><path d="M0 0 89.0594 100.676" stroke="#000000" stroke-width="15.4886" stroke-linejoin="round" stroke-miterlimit="10" fill="#6C4C8F" fill-rule="evenodd" transform="matrix(-1 0 0 1.0004 858.968 1354.49)"/><path d="M1196.49 906.082 1258.45 1018.37" stroke="#000000" stroke-width="15.4886" stroke-linejoin="round" stroke-miterlimit="10" fill="#6C4C8F" fill-rule="evenodd" transform="matrix(1 0 0 1.0004 -43.2421 211.758)"/><path d="M0 0 112.292 170.374" stroke="#000000" stroke-width="15.4886" stroke-linejoin="round" stroke-miterlimit="10" fill="#6C4C8F" fill-rule="evenodd" transform="matrix(-1 0 0 1.0004 1358.47 1691.51)"/><path d="M0 0 81.3151 123.909" stroke="#000000" stroke-width="15.4886" stroke-linejoin="round" stroke-miterlimit="10" fill="#6C4C8F" fill-rule="evenodd" transform="matrix(-1 0 0 1.0004 1191.97 1366.12)"/><text font-family="Microsoft YaHei,Microsoft YaHei_MSFontService,sans-serif" font-weight="700" font-size="27" transform="matrix(3.87215 0 0 3.87368 1213.66 1986)">0</text><text font-family="Microsoft YaHei,Microsoft YaHei_MSFontService,sans-serif" font-weight="700" font-size="27" transform="matrix(3.87215 0 0 3.87368 1051.03 1614)">0</text><text font-family="Microsoft YaHei,Microsoft YaHei_MSFontService,sans-serif" font-weight="700" font-size="27" transform="matrix(3.87215 0 0 3.87368 723.183 1579)">0</text><text font-family="Microsoft YaHei,Microsoft YaHei_MSFontService,sans-serif" font-weight="700" font-size="27" transform="matrix(3.87215 0 0 3.87368 1363.38 1645)">1</text><text font-family="Microsoft YaHei,Microsoft YaHei_MSFontService,sans-serif" font-weight="700" font-size="27" transform="matrix(3.87215 0 0 3.87368 885.17 1343)">1</text><text font-family="Microsoft YaHei,Microsoft YaHei_MSFontService,sans-serif" font-weight="700" font-size="27" transform="matrix(3.87215 0 0 3.87368 1198.17 1343)">-</text><text font-family="Microsoft YaHei,Microsoft YaHei_MSFontService,sans-serif" font-weight="700" font-size="27" transform="matrix(3.87215 0 0 3.87368 1243.34 1343)">1</text><text font-family="Microsoft YaHei,Microsoft YaHei_MSFontService,sans-serif" font-weight="700" font-size="27" transform="matrix(3.87215 0 0 3.87368 1012.3 1107)">-</text><text font-family="Microsoft YaHei,Microsoft YaHei_MSFontService,sans-serif" font-weight="700" font-size="27" transform="matrix(3.87215 0 0 3.87368 1057.48 1107)">1</text></g></g></g></g><g><g><g><g><path d="M2292.24 773.287C2292.24 727.528 2330.88 690.435 2378.55 690.435 2426.21 690.435 2464.85 727.528 2464.85 773.287 2464.85 819.046 2426.21 856.139 2378.55 856.139 2330.88 856.139 2292.24 819.046 2292.24 773.287Z" stroke="#000000" stroke-width="13.8087" stroke-linejoin="round" stroke-miterlimit="10" fill="none" fill-rule="evenodd" transform="matrix(1 0 0 1.0015 288.443 284.271)"/><path d="M1846.91 1165.11C1846.91 1118.4 1885.55 1080.53 1933.22 1080.53 1980.88 1080.53 2019.52 1118.4 2019.52 1165.11 2019.52 1211.82 1980.88 1249.69 1933.22 1249.69 1885.55 1249.69 1846.91 1211.82 1846.91 1165.11Z" stroke="#000000" stroke-width="13.8087" stroke-linejoin="round" stroke-miterlimit="10" fill="none" fill-rule="evenodd" transform="matrix(1 0 0 1.0015 288.443 284.271)"/><path d="M2078.21 968.335C2078.21 921.623 2116.85 883.757 2164.51 883.757 2212.18 883.757 2250.82 921.623 2250.82 968.335 2250.82 1015.05 2212.18 1052.91 2164.51 1052.91 2116.85 1052.91 2078.21 1015.05 2078.21 968.335Z" stroke="#000000" stroke-width="13.8087" stroke-linejoin="round" stroke-miterlimit="10" fill="none" fill-rule="evenodd" transform="matrix(1 0 0 1.0015 288.443 284.271)"/><path d="M2250.82 1192.73C2250.82 1146.01 2289.46 1108.15 2337.12 1108.15 2384.79 1108.15 2423.43 1146.01 2423.43 1192.73 2423.43 1239.44 2384.79 1277.3 2337.12 1277.3 2289.46 1277.3 2250.82 1239.44 2250.82 1192.73Z" stroke="#000000" stroke-width="13.8087" stroke-linejoin="round" stroke-miterlimit="10" fill="none" fill-rule="evenodd" transform="matrix(1 0 0 1.0015 288.443 284.271)"/><path d="M0 0 117.374 82.8522" stroke="#000000" stroke-width="13.8087" stroke-linejoin="round" stroke-miterlimit="10" fill="#6C4C8F" fill-rule="evenodd" transform="matrix(-1 0 0 1.0015 2625.57 1114.04)"/><path d="M0 0 113.922 82.8522" stroke="#000000" stroke-width="13.8087" stroke-linejoin="round" stroke-miterlimit="10" fill="#6C4C8F" fill-rule="evenodd" transform="matrix(-1 0 0 1.0015 2394.27 1311.11)"/><path d="M2219.75 1025.3 2278.44 1135.77" stroke="#000000" stroke-width="13.8087" stroke-linejoin="round" stroke-miterlimit="10" fill="#6C4C8F" fill-rule="evenodd" transform="matrix(1 0 0 1.0015 288.443 284.271)"/><path d="M2078.21 1451.64C2078.21 1404.93 2116.85 1367.06 2164.51 1367.06 2212.18 1367.06 2250.82 1404.93 2250.82 1451.64 2250.82 1498.35 2212.18 1536.22 2164.51 1536.22 2116.85 1536.22 2078.21 1498.35 2078.21 1451.64Z" stroke="#000000" stroke-width="13.8087" stroke-linejoin="round" stroke-miterlimit="10" fill="none" fill-rule="evenodd" transform="matrix(1 0 0 1.0015 288.443 284.271)"/><path d="M2447.59 1002.86C2447.59 956.145 2486.23 918.278 2533.9 918.278 2581.56 918.278 2620.2 956.145 2620.2 1002.86 2620.2 1049.57 2581.56 1087.43 2533.9 1087.43 2486.23 1087.43 2447.59 1049.57 2447.59 1002.86Z" stroke="#000000" stroke-width="13.8087" stroke-linejoin="round" stroke-miterlimit="10" fill="none" fill-rule="evenodd" transform="matrix(1 0 0 1.0015 288.443 284.271)"/><path d="M2440.69 807.809 2530.44 925.183" stroke="#000000" stroke-width="13.8087" stroke-linejoin="round" stroke-miterlimit="10" fill="#6C4C8F" fill-rule="evenodd" transform="matrix(1 0 0 1.0015 288.443 284.271)"/><path d="M0 0 86.3044 138.087" stroke="#000000" stroke-width="13.8087" stroke-linejoin="round" stroke-miterlimit="10" fill="#6C4C8F" fill-rule="evenodd" transform="matrix(-1 0 0 1.0015 2584.14 1549.67)"/><text font-family="Times New Roman,Times New Roman_MSFontService,sans-serif" font-weight="700" font-size="27" transform="matrix(3.45217 0 0 3.45736 2649.99 1073)">2</text><text font-family="Times New Roman,Times New Roman_MSFontService,sans-serif" font-weight="700" font-size="27" transform="matrix(3.45217 0 0 3.45736 2807.72 1318)">0</text><text font-family="Times New Roman,Times New Roman_MSFontService,sans-serif" font-weight="700" font-size="27" transform="matrix(3.45217 0 0 3.45736 2201.29 1481)">0</text><text font-family="Times New Roman,Times New Roman_MSFontService,sans-serif" font-weight="700" font-size="27" transform="matrix(3.45217 0 0 3.45736 2428.56 1767)">0</text><text font-family="Times New Roman,Times New Roman_MSFontService,sans-serif" font-weight="700" font-size="27" transform="matrix(3.45217 0 0 3.45736 2610.95 1505)">1</text><text font-family="Times New Roman,Times New Roman_MSFontService,sans-serif" font-weight="700" font-size="27" transform="matrix(3.45217 0 0 3.45736 2412.45 1283)">-</text><text font-family="Times New Roman,Times New Roman_MSFontService,sans-serif" font-weight="700" font-size="27" transform="matrix(3.45217 0 0 3.45736 2442.94 1283)">1</text></g></g></g></g></g></svg>