<svg width="843" height="717" xmlns="http://www.w3.org/2000/svg" xmlns:xlink="http://www.w3.org/1999/xlink" xml:space="preserve" overflow="hidden"><g transform="translate(-2201 -601)"><path d="M2336.5 791.5C2336.5 773.827 2350.83 759.5 2368.5 759.5 2386.17 759.5 2400.5 773.827 2400.5 791.5 2400.5 809.173 2386.17 823.5 2368.5 823.5 2350.83 823.5 2336.5 809.173 2336.5 791.5Z" stroke="#2F528F" stroke-width="4.58333" stroke-miterlimit="8" fill="#FFC000" fill-rule="evenodd"/><path d="M2851.5 791.5C2851.5 773.827 2865.6 759.5 2883 759.5 2900.4 759.5 2914.5 773.827 2914.5 791.5 2914.5 809.173 2900.4 823.5 2883 823.5 2865.6 823.5 2851.5 809.173 2851.5 791.5Z" stroke="#2F528F" stroke-width="4.58333" stroke-miterlimit="8" fill="#FFC000" fill-rule="evenodd"/><path d="M2336.5 1127C2336.5 1109.6 2350.83 1095.5 2368.5 1095.5 2386.17 1095.5 2400.5 1109.6 2400.5 1127 2400.5 1144.4 2386.17 1158.5 2368.5 1158.5 2350.83 1158.5 2336.5 1144.4 2336.5 1127Z" stroke="#2F528F" stroke-width="4.58333" stroke-miterlimit="8" fill="#4472C4" fill-rule="evenodd"/><path d="M2851.5 1127C2851.5 1109.6 2865.6 1095.5 2883 1095.5 2900.4 1095.5 2914.5 1109.6 2914.5 1127 2914.5 1144.4 2900.4 1158.5 2883 1158.5 2865.6 1158.5 2851.5 1144.4 2851.5 1127Z" stroke="#2F528F" stroke-width="4.58333" stroke-miterlimit="8" fill="#FFC000" fill-rule="evenodd"/><path d="M2400.5 791.5 2851.5 791.501" stroke="#4472C4" stroke-width="4.58333" stroke-miterlimit="8" fill="none" fill-rule="evenodd"/><path d="M2400.5 1127.5 2851.5 1127.5" stroke="#0070C0" stroke-width="4.58333" stroke-miterlimit="8" fill="none" fill-rule="evenodd"/><path d="M0 0 469.641 290.498" stroke="#C00000" stroke-width="9.16667" stroke-miterlimit="8" fill="none" fill-rule="evenodd" transform="matrix(-1 0 0 1 2860.14 814.5)"/><path d="M0 0 0.000360892 271.857" stroke="#C00000" stroke-width="9.16667" stroke-miterlimit="8" fill="none" fill-rule="evenodd" transform="matrix(1 0 0 -1 2368.5 1095.36)"/><path d="M0 0 0.000360892 271.857" stroke="#4472C4" stroke-width="4.58333" stroke-miterlimit="8" fill="none" fill-rule="evenodd" transform="matrix(1 0 0 -1 2882.5 1095.36)"/><path d="M2860.82 1105 2400.5 814.5" stroke="#4472C4" stroke-width="4.58333" stroke-miterlimit="8" fill="none" fill-rule="evenodd"/><text font-family="DengXian,DengXian_MSFontService,sans-serif" font-weight="400" font-size="83" transform="matrix(1 0 0 1 2313.62 721)">1</text><text font-family="DengXian,DengXian_MSFontService,sans-serif" font-weight="400" font-size="83" transform="matrix(1 0 0 1 2290.14 1230)">2</text><text font-family="DengXian,DengXian_MSFontService,sans-serif" font-weight="400" font-size="83" transform="matrix(1 0 0 1 2860.09 704)">3</text><text font-family="DengXian,DengXian_MSFontService,sans-serif" font-weight="400" font-size="83" transform="matrix(1 0 0 1 2885.84 1246)">4</text><text fill="#C00000" font-family="DengXian,DengXian_MSFontService,sans-serif" font-weight="400" font-size="83" transform="matrix(1 0 0 1 2250.86 972)">(9)</text><text fill="#C00000" font-family="DengXian,DengXian_MSFontService,sans-serif" font-weight="400" font-size="83" transform="matrix(1 0 0 1 2546.79 1073)">(12)</text><text font-family="DengXian,DengXian_MSFontService,sans-serif" font-weight="400" font-size="83" transform="matrix(1 0 0 1 2578.85 1206)">(7)</text><text font-family="DengXian,DengXian_MSFontService,sans-serif" font-weight="400" font-size="83" transform="matrix(1 0 0 1 2594.47 742)">(5)</text><text font-family="DengXian,DengXian_MSFontService,sans-serif" font-weight="400" font-size="83" transform="matrix(1 0 0 1 2902.21 969)">(2)</text><text font-family="DengXian,DengXian_MSFontService,sans-serif" font-weight="400" font-size="83" transform="matrix(1 0 0 1 2561.38 909)">(4)</text></g></svg>