<svg width="2627" height="575" xmlns="http://www.w3.org/2000/svg" xmlns:xlink="http://www.w3.org/1999/xlink" xml:space="preserve" overflow="hidden"><g transform="translate(-1465 -1236)"><path d="M3441.5 1298.67C3441.5 1265.44 3468.44 1238.5 3501.67 1238.5L3549.5 1238.5 3549.5 1238.5 3711.5 1238.5 4029.33 1238.5C4062.56 1238.5 4089.5 1265.44 4089.5 1298.67L4089.5 1298.67 4089.5 1298.67 4089.5 1388.92 4089.5 1539.33C4089.5 1572.56 4062.56 1599.5 4029.33 1599.5L3711.5 1599.5 3549.5 1599.5 3549.5 1599.5 3501.67 1599.5C3468.44 1599.5 3441.5 1572.56 3441.5 1539.33L3441.5 1388.92 3294.97 1395.08 3441.5 1298.67Z" stroke="#2F528F" stroke-width="4.58333" stroke-miterlimit="8" fill="#00B050" fill-rule="evenodd"/><text fill="#FFFFFF" font-family="DengXian,DengXian_MSFontService,sans-serif" font-weight="700" font-size="83" transform="matrix(1 0 0 1 3682.78 1347)">估算</text><text fill="#FFFFFF" font-family="DengXian,DengXian_MSFontService,sans-serif" font-weight="400" font-size="83" transform="matrix(1 0 0 1 3517.78 1446)">这个子树能搜</text><text fill="#FFFFFF" font-family="DengXian,DengXian_MSFontService,sans-serif" font-weight="400" font-size="83" transform="matrix(1 0 0 1 3517.78 1545)">到的最好结果</text><path d="M1467.5 1575.17C1467.5 1551.05 1487.05 1531.5 1511.17 1531.5L1899.75 1531.5 1899.75 1531.5 2085 1531.5 2164.83 1531.5C2188.95 1531.5 2208.5 1551.05 2208.5 1575.17L2208.5 1575.17 2330.71 1645.58 2208.5 1640.67 2208.5 1749.83C2208.5 1773.95 2188.95 1793.5 2164.83 1793.5L2085 1793.5 1899.75 1793.5 1899.75 1793.5 1511.17 1793.5C1487.05 1793.5 1467.5 1773.95 1467.5 1749.83L1467.5 1640.67 1467.5 1575.17 1467.5 1575.17Z" stroke="#2F528F" stroke-width="4.58333" stroke-miterlimit="8" fill="#0070C0" fill-rule="evenodd"/><text fill="#FFFFFF" font-family="DengXian,DengXian_MSFontService,sans-serif" font-weight="400" font-size="83" transform="matrix(1 0 0 1 1549.09 1640)">目前已搜到的最</text><text fill="#FFFFFF" font-family="DengXian,DengXian_MSFontService,sans-serif" font-weight="400" font-size="83" transform="matrix(1 0 0 1 1631.59 1739)">好的一个解</text><path d="M0 26.5C-3.43746e-15 11.8644 12.0883-3.3738e-15 27-6.7476e-15 41.9117-1.34952e-14 54 11.8644 54 26.5 54 41.1355 41.9117 52.9999 27 52.9999 12.0883 52.9999-1.71873e-14 41.1355 0 26.5Z" stroke="#2F528F" stroke-width="4.58333" stroke-miterlimit="8" fill="#FFC000" fill-rule="evenodd" transform="matrix(-1 0 0 1 2852.5 1238.5)"/><path d="M0 26.5C-3.3738e-15 11.8644 11.8644-3.3738e-15 26.5-6.7476e-15 41.1355-1.34952e-14 52.9999 11.8644 52.9999 26.5 52.9999 41.1355 41.1355 52.9999 26.5 52.9999 11.8644 52.9999-1.6869e-14 41.1355 0 26.5Z" stroke="#2F528F" stroke-width="4.58333" stroke-miterlimit="8" fill="#00B050" fill-rule="evenodd" transform="matrix(-1 0 0 1 3017.5 1337.5)"/><path d="M0 27C-3.43746e-15 12.0883 12.0883-3.43746e-15 27-6.87492e-15 41.9117-1.37498e-14 54 12.0883 54 27 54 41.9117 41.9117 54 27 54 12.0883 54-1.71873e-14 41.9117 0 27Z" stroke="#2F528F" stroke-width="4.58333" stroke-miterlimit="8" fill="#FFC000" fill-rule="evenodd" transform="matrix(-1 0 0 1 2527.5 1454.5)"/><path d="M0 27C-3.43748e-15 12.0883 12.0884-3.43746e-15 27.0002-6.87492e-15 41.9119-1.37498e-14 54.0003 12.0883 54.0003 27 54.0003 41.9117 41.9119 54 27.0002 54 12.0884 54-1.71874e-14 41.9117 0 27Z" stroke="#2F528F" stroke-width="4.58333" stroke-miterlimit="8" fill="#FFC000" fill-rule="evenodd" transform="matrix(-1 0 0 1 3255.5 1456.5)"/><path d="M0 27C-3.43746e-15 12.0883 12.0883-3.43746e-15 27-6.87492e-15 41.9117-1.37498e-14 54 12.0883 54 27 54 41.9117 41.9117 54 27 54 12.0883 54-1.71873e-14 41.9117 0 27Z" stroke="#2F528F" stroke-width="4.58333" stroke-miterlimit="8" fill="#FFC000" fill-rule="evenodd" transform="matrix(-1 0 0 1 3094.5 1456.5)"/><path d="M0 27C-3.43746e-15 12.0883 12.0883-3.43746e-15 27-6.87492e-15 41.9117-1.37498e-14 54 12.0883 54 27 54 41.9117 41.9117 54 27 54 12.0883 54-1.71873e-14 41.9117 0 27Z" stroke="#2F528F" stroke-width="4.58333" stroke-miterlimit="8" fill="#FFC000" fill-rule="evenodd" transform="matrix(-1 0 0 1 2934.5 1456.5)"/><path d="M0 27C-3.43746e-15 12.0883 12.0883-3.43746e-15 27-6.87492e-15 41.9117-1.37498e-14 54 12.0883 54 27 54 41.9117 41.9117 54 27 54 12.0883 54-1.71873e-14 41.9117 0 27Z" stroke="#2F528F" stroke-width="4.58333" stroke-miterlimit="8" fill="#FFC000" fill-rule="evenodd" transform="matrix(-1 0 0 1 2680.5 1344.5)"/><path d="M0 27C-3.43748e-15 12.0883 12.0884-3.43746e-15 27.0002-6.87492e-15 41.9119-1.37498e-14 54.0003 12.0883 54.0003 27 54.0003 41.9117 41.9119 54 27.0002 54 12.0884 54-1.71874e-14 41.9117 0 27Z" stroke="#2F528F" stroke-width="4.58333" stroke-miterlimit="8" fill="#FFC000" fill-rule="evenodd" transform="matrix(-1 0 0 1 3167.5 1621.5)"/><path d="M0 27C-3.43748e-15 12.0883 12.0884-3.43746e-15 27.0002-6.87492e-15 41.9119-1.37498e-14 54.0003 12.0883 54.0003 27 54.0003 41.9117 41.9119 54 27.0002 54 12.0884 54-1.71874e-14 41.9117 0 27Z" stroke="#2F528F" stroke-width="4.58333" stroke-miterlimit="8" fill="#FFC000" fill-rule="evenodd" transform="matrix(-1 0 0 1 3002.5 1621.5)"/><path d="M0 27C-3.3738e-15 12.0883 11.8644-3.43746e-15 26.5-6.87492e-15 41.1355-1.37498e-14 52.9999 12.0883 52.9999 27 52.9999 41.9117 41.1355 54 26.5 54 11.8644 54-1.6869e-14 41.9117 0 27Z" stroke="#2F528F" stroke-width="4.58333" stroke-miterlimit="8" fill="#FFC000" fill-rule="evenodd" transform="matrix(-1 0 0 1 3304.5 1621.5)"/><path d="M2844.5 1283.5 2971.65 1344.5" stroke="#4472C4" stroke-width="4.58333" stroke-miterlimit="8" fill="none" fill-rule="evenodd"/><path d="M0 0 134.577 68.8843" stroke="#4472C4" stroke-width="4.58333" stroke-miterlimit="8" fill="none" fill-rule="evenodd" transform="matrix(-1 0 0 1 2807.08 1283.5)"/><path d="M0 0 45.523 81.1441" stroke="#4472C4" stroke-width="4.58333" stroke-miterlimit="8" fill="none" fill-rule="evenodd" transform="matrix(-1 0 0 1 2972.02 1383.5)"/><path d="M3010.5 1383.5 3049.2 1464.64" stroke="#4472C4" stroke-width="4.58333" stroke-miterlimit="8" fill="none" fill-rule="evenodd"/><path d="M3017.5 1363.5 3208.67 1463.68" stroke="#4472C4" stroke-width="4.58333" stroke-miterlimit="8" fill="none" fill-rule="evenodd"/><path d="M3228.5 1510.5 3278.4 1621.82" stroke="#4472C4" stroke-width="4.58333" stroke-miterlimit="8" fill="none" fill-rule="evenodd"/><path d="M3086.5 1502.5 3140.12 1621.71" stroke="#4472C4" stroke-width="4.58333" stroke-miterlimit="8" fill="none" fill-rule="evenodd"/><path d="M0 0 53.7979 127.091" stroke="#4472C4" stroke-width="4.58333" stroke-miterlimit="8" fill="none" fill-rule="evenodd" transform="matrix(1 0 0 -1 2994.5 1629.59)"/><path d="M0 0 114.757 71.2376" stroke="#4472C4" stroke-width="4.58333" stroke-miterlimit="8" fill="none" fill-rule="evenodd" transform="matrix(-1 0 0 1 2634.26 1390.5)"/><text font-family="DengXian,DengXian_MSFontService,sans-serif" font-weight="400" font-size="83" transform="matrix(1 0 0 1 2611.03 1528)">…</text><path d="M0 238C-3.19557e-14 106.556 112.377-3.03006e-14 251-6.06012e-14 389.624-1.21202e-13 502 106.556 502 238 502 369.444 389.624 476 251 476 112.377 476-1.59778e-13 369.444 0 238Z" stroke="#00B050" stroke-width="4.58333" stroke-miterlimit="8" fill="none" fill-rule="evenodd" transform="matrix(-1 0 0 1 3354.5 1316.5)"/><path d="M0 27C-3.3738e-15 12.0883 11.8644-3.43746e-15 26.5-6.87492e-15 41.1355-1.37498e-14 52.9999 12.0883 52.9999 27 52.9999 41.9117 41.1355 54 26.5 54 11.8644 54-1.6869e-14 41.9117 0 27Z" stroke="#2F528F" stroke-width="4.58333" stroke-miterlimit="8" fill="#FFC000" fill-rule="evenodd" transform="matrix(-1 0 0 1 2613.5 1624.5)"/><path d="M0 0 89.0069 132.06" stroke="#4472C4" stroke-width="4.58333" stroke-miterlimit="8" fill="none" fill-rule="evenodd" transform="matrix(1 0 0 -1 2392.5 1632.56)"/><path d="M0 27C-3.43746e-15 12.0883 12.0883-3.43746e-15 27-6.87492e-15 41.9117-1.37498e-14 54 12.0883 54 27 54 41.9117 41.9117 54 27 54 12.0883 54-1.71873e-14 41.9117 0 27Z" stroke="#2F528F" stroke-width="4.58333" stroke-miterlimit="8" fill="#0070C0" fill-rule="evenodd" transform="matrix(-1 0 0 1 2400.5 1624.5)"/><path d="M2568.19 1632.56 2519.5 1500.5" stroke="#4472C4" stroke-width="4.58333" stroke-miterlimit="8" fill="none" fill-rule="evenodd"/></g></svg>