<svg width="2987" height="1166" xmlns="http://www.w3.org/2000/svg" xmlns:xlink="http://www.w3.org/1999/xlink" xml:space="preserve" overflow="hidden"><g transform="translate(-407 -900)"><path d="M959.5 1296C959.5 1078.68 1135.68 902.5 1353 902.5 1570.32 902.5 1746.5 1078.68 1746.5 1296 1746.5 1513.32 1570.32 1689.5 1353 1689.5 1135.68 1689.5 959.5 1513.32 959.5 1296Z" stroke="#2F528F" stroke-width="4.58333" stroke-miterlimit="8" fill="#00B050" fill-rule="evenodd"/><path d="M1746.5 1384C1746.5 1215.28 1883.28 1078.5 2052 1078.5 2220.72 1078.5 2357.5 1215.28 2357.5 1384 2357.5 1552.72 2220.72 1689.5 2052 1689.5 1883.28 1689.5 1746.5 1552.72 1746.5 1384Z" stroke="#2F528F" stroke-width="4.58333" stroke-miterlimit="8" fill="#FFC000" fill-rule="evenodd"/><path d="M407.5 1689.5 3391.26 1689.5" stroke="#C00000" stroke-width="4.58333" stroke-miterlimit="8" fill="none" fill-rule="evenodd"/><path d="M1352.5 1296.5 2051.77 1384.21" stroke="#000000" stroke-width="9.16667" stroke-miterlimit="8" fill="none" fill-rule="evenodd"/><path d="M1352.5 1384.5 2051.77 1384.5" stroke="#000000" stroke-width="9.16667" stroke-miterlimit="8" fill="none" fill-rule="evenodd"/><path d="M1352.5 1296.5 1352.5 1384.21" stroke="#000000" stroke-width="9.16667" stroke-miterlimit="8" fill="none" fill-rule="evenodd"/><path d="M1567.45 1231.38C1569.7 1231.38 1571.48 1232.12 1572.79 1233.61 1574.1 1235.09 1574.75 1237.03 1574.75 1239.43 1574.75 1241.22 1574.41 1243.07 1573.73 1244.97L1574.43 1245.23C1577.94 1240.47 1581.31 1236.98 1584.55 1234.76 1587.79 1232.54 1591.08 1231.43 1594.41 1231.43 1597.02 1231.43 1599.21 1231.63 1600.96 1232.02L1598.38 1244.05 1592.85 1244.05C1592.64 1242.55 1592.33 1241.39 1591.94 1240.56 1591.54 1239.74 1591.08 1239.17 1590.54 1238.84 1590 1238.52 1589.32 1238.36 1588.5 1238.36 1587.21 1238.36 1585.81 1238.91 1584.28 1240.02 1582.76 1241.13 1581.05 1242.87 1579.16 1245.23 1577.26 1247.6 1575.74 1249.87 1574.62 1252.06 1573.49 1254.24 1572.55 1257.02 1571.8 1260.38L1566.69 1283.64 1557.4 1283.64 1565.19 1249.59C1565.69 1247.44 1566.01 1245.77 1566.16 1244.59 1566.3 1243.41 1566.37 1242.42 1566.37 1241.64 1566.37 1240.2 1566.14 1239.17 1565.67 1238.52 1565.21 1237.88 1564.47 1237.55 1563.47 1237.55 1562.36 1237.55 1561.19 1238.01 1559.95 1238.92 1558.72 1239.84 1557.03 1241.49 1554.88 1243.89L1551.82 1240.88C1555.11 1237.45 1557.87 1235 1560.09 1233.55 1562.31 1232.1 1564.76 1231.38 1567.45 1231.38Z" fill-rule="evenodd"/><text fill="#000000" fill-opacity="0" font-family="Arial,Arial_MSFontService,sans-serif" font-size="52.2607" x="1551.82" y="1277.11">𝑟</text><path d="M1614.46 1255.78 1616.85 1255.78C1616.79 1257.22 1616.75 1258.5 1616.73 1259.63 1616.7 1260.76 1616.68 1261.86 1616.67 1262.93 1616.66 1264 1616.65 1265.05 1616.65 1266.1L1616.65 1295.78C1616.65 1296.59 1616.68 1297.29 1616.73 1297.87 1616.78 1298.46 1616.86 1298.95 1616.98 1299.36 1617.1 1299.76 1617.26 1300.11 1617.45 1300.39 1617.65 1300.68 1617.87 1300.93 1618.13 1301.14 1618.45 1301.45 1618.86 1301.69 1619.38 1301.86 1619.91 1302.03 1620.57 1302.17 1621.38 1302.29 1622.18 1302.4 1623.15 1302.5 1624.29 1302.56 1625.42 1302.63 1626.78 1302.67 1628.37 1302.7L1628.37 1306.1 1597.39 1306.1 1597.39 1302.7C1598.93 1302.65 1600.23 1302.59 1601.3 1302.52 1602.37 1302.46 1603.28 1302.37 1604.03 1302.25 1604.79 1302.13 1605.39 1302 1605.85 1301.86 1606.31 1301.71 1606.7 1301.54 1607.04 1301.33 1607.41 1301.1 1607.72 1300.84 1607.98 1300.57 1608.24 1300.3 1608.45 1299.95 1608.6 1299.53 1608.76 1299.12 1608.88 1298.61 1608.97 1298.01 1609.07 1297.41 1609.11 1296.67 1609.11 1295.78L1609.11 1267.78C1609.11 1266.76 1608.92 1266.04 1608.53 1265.63 1608.13 1265.21 1607.57 1265 1606.85 1265 1606.04 1265 1604.84 1265.42 1603.25 1266.25 1601.66 1267.09 1599.61 1268.32 1597.08 1269.96 1596.74 1269.36 1596.43 1268.77 1596.14 1268.17 1595.86 1267.57 1595.56 1266.96 1595.24 1266.33 1598.47 1264.56 1601.67 1262.8 1604.83 1261.04 1608 1259.28 1611.21 1257.53 1614.46 1255.78Z" fill-rule="evenodd"/><text fill="#000000" fill-opacity="0" font-family="Arial,Arial_MSFontService,sans-serif" font-size="50.3125" x="1595.24" y="1299.81">1</text><path d="M1928.07 1275.37C1930.33 1275.37 1932.11 1276.11 1933.42 1277.59 1934.73 1279.08 1935.38 1281.02 1935.38 1283.42 1935.38 1285.21 1935.04 1287.06 1934.36 1288.95L1935.06 1289.22C1938.57 1284.46 1941.94 1280.97 1945.18 1278.75 1948.42 1276.53 1951.71 1275.42 1955.04 1275.42 1957.65 1275.42 1959.84 1275.62 1961.59 1276.01L1959.01 1288.04 1953.48 1288.04C1953.27 1286.54 1952.96 1285.37 1952.57 1284.55 1952.17 1283.73 1951.71 1283.15 1951.17 1282.83 1950.63 1282.51 1949.95 1282.35 1949.13 1282.35 1947.84 1282.35 1946.43 1282.9 1944.91 1284.01 1943.39 1285.12 1941.68 1286.86 1939.78 1289.22 1937.89 1291.59 1936.37 1293.86 1935.24 1296.04 1934.12 1298.23 1933.18 1301 1932.43 1304.37L1927.32 1327.63 1918.03 1327.63 1925.82 1293.57C1926.32 1291.42 1926.64 1289.76 1926.79 1288.58 1926.93 1287.4 1927 1286.41 1927 1285.62 1927 1284.19 1926.77 1283.15 1926.3 1282.51 1925.84 1281.86 1925.1 1281.54 1924.1 1281.54 1922.99 1281.54 1921.82 1282 1920.58 1282.91 1919.35 1283.82 1917.65 1285.48 1915.51 1287.88L1912.44 1284.87C1915.74 1281.43 1918.5 1278.99 1920.72 1277.54 1922.94 1276.09 1925.39 1275.37 1928.07 1275.37Z" fill-rule="evenodd"/><text fill="#000000" fill-opacity="0" font-family="Arial,Arial_MSFontService,sans-serif" font-size="52.2607" x="1912.44" y="1321.09">𝑟</text><path d="M1974.59 1299.5C1977.3 1299.5 1979.61 1299.8 1981.52 1300.42 1983.44 1301.03 1984.99 1301.86 1986.19 1302.9 1987.39 1303.94 1988.25 1305.19 1988.79 1306.65 1989.32 1308.11 1989.59 1309.68 1989.59 1311.37 1989.59 1312.39 1989.52 1313.33 1989.37 1314.21 1989.23 1315.08 1988.98 1315.94 1988.63 1316.78 1988.28 1317.63 1987.82 1318.48 1987.24 1319.34 1986.67 1320.2 1985.96 1321.11 1985.1 1322.08 1984.44 1322.91 1983.6 1323.87 1982.56 1324.97 1981.52 1326.06 1980.38 1327.23 1979.14 1328.48 1977.9 1329.73 1976.61 1331.04 1975.25 1332.39 1973.9 1333.74 1972.58 1335.08 1971.31 1336.41 1970.03 1337.74 1968.86 1339.03 1967.79 1340.28 1966.72 1341.53 1965.85 1342.68 1965.17 1343.72L1979.63 1343.72C1980.85 1343.72 1981.83 1343.67 1982.56 1343.58 1983.29 1343.49 1983.89 1343.29 1984.37 1342.98 1984.85 1342.66 1985.27 1342.19 1985.6 1341.55 1985.94 1340.91 1986.33 1340.03 1986.78 1338.91L1990.41 1338.91C1990.28 1340.76 1990.15 1342.62 1990.04 1344.5 1989.92 1346.37 1989.8 1348.24 1989.67 1350.08L1956.58 1350.08 1956.58 1348.05C1957.21 1346.65 1957.93 1345.26 1958.77 1343.89 1959.6 1342.53 1960.54 1341.14 1961.58 1339.73 1962.62 1338.33 1963.81 1336.87 1965.13 1335.38 1966.46 1333.88 1967.93 1332.32 1969.55 1330.71 1972 1328.26 1973.99 1326.17 1975.53 1324.44 1977.06 1322.71 1978.27 1321.17 1979.16 1319.81 1980.04 1318.46 1980.65 1317.21 1980.97 1316.06 1981.3 1314.92 1981.46 1313.69 1981.46 1312.39 1981.46 1311.06 1981.27 1309.84 1980.9 1308.72 1980.52 1307.6 1979.98 1306.65 1979.28 1305.87 1978.57 1305.08 1977.68 1304.47 1976.6 1304.03 1975.52 1303.59 1974.28 1303.37 1972.87 1303.37 1970.45 1303.37 1968.42 1304.02 1966.78 1305.34 1965.13 1306.65 1963.86 1308.56 1962.95 1311.06L1957.83 1311.06 1957.83 1303.44C1961.16 1302.06 1964.23 1301.06 1967.03 1300.44 1969.83 1299.81 1972.35 1299.5 1974.59 1299.5Z" fill-rule="evenodd"/><text fill="#000000" fill-opacity="0" font-family="Arial,Arial_MSFontService,sans-serif" font-size="50.5859" x="1956.58" y="1343.76">2</text><path d="M1606.96 1460.86C1603.31 1460.86 1600.03 1462.34 1597.13 1465.3 1594.23 1468.25 1591.95 1472.23 1590.28 1477.25 1588.62 1482.26 1587.78 1487.25 1587.78 1492.23 1587.78 1495.96 1588.29 1498.74 1589.31 1500.58 1590.33 1502.43 1592.04 1503.35 1594.44 1503.35 1595.55 1503.35 1596.68 1503.11 1597.83 1502.62 1598.97 1502.14 1600.16 1501.36 1601.4 1500.29 1602.63 1499.21 1603.85 1497.91 1605.05 1496.37 1606.25 1494.83 1607.35 1493.28 1608.35 1491.72 1609.36 1490.16 1610.29 1488.32 1611.15 1486.19 1612.01 1484.06 1612.74 1481.49 1613.35 1478.48L1613.83 1476.17C1614.37 1473.59 1614.64 1471.16 1614.64 1468.87 1614.64 1466.07 1614.05 1464.04 1612.87 1462.77 1611.68 1461.5 1609.72 1460.86 1606.96 1460.86ZM1629.46 1432.08 1632.63 1432.08 1619.26 1491.53C1618.47 1495.04 1618.08 1497.69 1618.08 1499.48 1618.08 1500.92 1618.31 1501.95 1618.77 1502.6 1619.24 1503.24 1619.97 1503.56 1620.98 1503.56 1622.05 1503.56 1623.2 1503.13 1624.41 1502.25 1625.63 1501.37 1627.35 1499.7 1629.57 1497.23L1632.63 1500.23C1629.34 1503.71 1626.56 1506.16 1624.31 1507.59 1622.05 1509.03 1619.62 1509.74 1617 1509.74 1614.78 1509.74 1613.01 1509.01 1611.68 1507.54 1610.36 1506.07 1609.7 1504.12 1609.7 1501.68 1609.7 1499.72 1610.11 1497.62 1610.93 1495.4L1610.23 1495.19C1606.8 1500.2 1603.54 1503.87 1600.46 1506.2 1597.38 1508.52 1594.12 1509.69 1590.68 1509.69 1586.74 1509.69 1583.69 1508.2 1581.53 1505.23 1579.36 1502.26 1578.28 1498.09 1578.28 1492.72 1578.28 1486.56 1579.48 1480.64 1581.9 1474.96 1584.32 1469.29 1587.64 1464.81 1591.87 1461.54 1596.09 1458.26 1600.8 1456.62 1605.99 1456.62 1608.18 1456.62 1610.19 1456.85 1612.03 1457.29 1613.88 1457.74 1615.77 1458.52 1617.7 1459.63L1620.49 1447.22C1620.78 1446.04 1621.03 1444.73 1621.25 1443.3 1621.46 1441.87 1621.57 1440.62 1621.57 1439.54 1621.57 1438.47 1621.37 1437.65 1620.98 1437.1 1620.58 1436.54 1620.02 1436.14 1619.28 1435.89 1618.55 1435.64 1617.23 1435.46 1615.34 1435.35L1615.98 1432.56Z" fill-rule="evenodd"/><text fill="#000000" fill-opacity="0" font-family="Arial,Arial_MSFontService,sans-serif" font-size="77.666" x="1578.28" y="1500.03">𝑑</text><path d="M964.64 1956.1C960.39 1956.1 956.577 1957.82 953.202 1961.26 949.827 1964.7 947.171 1969.33 945.234 1975.17 943.296 1981 942.327 1986.81 942.327 1992.6 942.327 1996.94 942.921 2000.18 944.109 2002.32 945.296 2004.47 947.286 2005.54 950.077 2005.54 951.369 2005.54 952.682 2005.26 954.015 2004.7 955.348 2004.14 956.734 2003.23 958.171 2001.98 959.609 2000.73 961.025 1999.21 962.421 1997.42 963.817 1995.62 965.098 1993.82 966.265 1992.01 967.432 1990.2 968.515 1988.05 969.515 1985.57 970.515 1983.09 971.369 1980.1 972.077 1976.6L972.64 1973.92C973.265 1970.92 973.577 1968.08 973.577 1965.42 973.577 1962.17 972.89 1959.8 971.515 1958.32 970.14 1956.84 967.848 1956.1 964.64 1956.1ZM990.827 1922.6 994.515 1922.6 978.952 1991.79C978.036 1995.87 977.577 1998.96 977.577 2001.04 977.577 2002.71 977.848 2003.92 978.39 2004.67 978.932 2005.42 979.786 2005.79 980.952 2005.79 982.202 2005.79 983.536 2005.28 984.952 2004.26 986.369 2003.24 988.369 2001.29 990.952 1998.42L994.515 2001.92C990.682 2005.96 987.452 2008.81 984.827 2010.48 982.202 2012.15 979.369 2012.98 976.327 2012.98 973.744 2012.98 971.682 2012.12 970.14 2010.42 968.598 2008.71 967.827 2006.44 967.827 2003.6 967.827 2001.31 968.307 1998.87 969.265 1996.29L968.452 1996.04C964.452 2001.87 960.661 2006.15 957.077 2008.85 953.494 2011.56 949.702 2012.92 945.702 2012.92 941.119 2012.92 937.567 2011.19 935.046 2007.73 932.525 2004.27 931.265 1999.42 931.265 1993.17 931.265 1986 932.671 1979.11 935.484 1972.51 938.296 1965.91 942.161 1960.7 947.077 1956.89 951.994 1953.07 957.473 1951.17 963.515 1951.17 966.057 1951.17 968.4 1951.43 970.546 1951.95 972.692 1952.47 974.89 1953.37 977.14 1954.67L980.39 1940.23C980.723 1938.85 981.015 1937.33 981.265 1935.67 981.515 1934 981.64 1932.54 981.64 1931.29 981.64 1930.04 981.411 1929.09 980.952 1928.45 980.494 1927.8 979.838 1927.33 978.984 1927.04 978.13 1926.75 976.598 1926.54 974.39 1926.42L975.14 1923.17Z" fill-rule="evenodd"/><text fill="#000000" fill-opacity="0" font-family="Arial,Arial_MSFontService,sans-serif" font-size="90.375" x="931.265" y="2001.68">𝑑</text><path d="M1048.23 1984.23 1125.23 1984.23 1125.23 1992.54 1048.23 1992.54ZM1048.23 1958.29 1125.23 1958.29 1125.23 1966.6 1048.23 1966.6Z" fill-rule="evenodd"/><text fill="#000000" fill-opacity="0" font-family="Arial,Arial_MSFontService,sans-serif" font-size="34.25" x="1048.23" y="1988.26">=</text><path d="M1265.75 1887.98 1669.75 1887.98 2073.75 1887.98 2477.75 1887.98 2477.75 1895.98 2073.75 1895.98 1669.75 1895.98 1270 1895.98 1270 1896.8 1257.5 1896.8 1216.88 2047.42 1210.82 2047.42 1184.94 1991.8 1174.38 1996.48 1172.44 1991.8 1192.94 1982.42 1214.57 2030.67 1252.5 1888.48 1265.75 1888.48Z" fill-rule="evenodd"/><path d="M1686.53 1916.12C1698.69 1919.33 1708.04 1926.26 1714.56 1936.9 1721.08 1947.55 1724.34 1960.39 1724.34 1975.43 1724.34 1990.52 1721.09 2003.36 1714.59 2013.96 1708.09 2024.57 1698.74 2031.47 1686.53 2034.68L1685.03 2029.87C1694.65 2026.66 1701.81 2020.33 1706.5 2010.87 1711.18 2001.41 1713.53 1989.39 1713.53 1974.81 1713.53 1960.72 1711.19 1949.03 1706.53 1939.71 1701.86 1930.4 1694.63 1924.14 1684.84 1920.93ZM1314.63 1916.12 1316.31 1920.93C1306.56 1924.14 1299.35 1930.4 1294.66 1939.71 1289.97 1949.03 1287.63 1960.72 1287.63 1974.81 1287.63 1989.39 1289.97 2001.41 1294.66 2010.87 1299.35 2020.33 1306.5 2026.66 1316.13 2029.87L1314.63 2034.68C1302.42 2031.47 1293.06 2024.57 1286.56 2013.96 1280.06 2003.36 1276.81 1990.52 1276.81 1975.43 1276.81 1960.39 1280.08 1947.55 1286.6 1936.9 1293.12 1926.26 1302.46 1919.33 1314.63 1916.12Z" fill-rule="evenodd"/><path d="M1338.45 1951.17C1341.07 1951.17 1343.15 1952.03 1344.67 1953.76 1346.19 1955.49 1346.95 1957.75 1346.95 1960.54 1346.95 1962.62 1346.55 1964.77 1345.76 1966.98L1346.57 1967.29C1350.66 1961.75 1354.58 1957.69 1358.35 1955.1 1362.13 1952.52 1365.95 1951.23 1369.82 1951.23 1372.86 1951.23 1375.41 1951.46 1377.45 1951.92L1374.45 1965.92 1368.01 1965.92C1367.76 1964.17 1367.41 1962.81 1366.95 1961.85 1366.49 1960.9 1365.95 1960.23 1365.32 1959.85 1364.7 1959.48 1363.91 1959.29 1362.95 1959.29 1361.45 1959.29 1359.81 1959.94 1358.04 1961.23 1356.27 1962.52 1354.28 1964.54 1352.07 1967.29 1349.86 1970.04 1348.1 1972.69 1346.79 1975.23 1345.48 1977.77 1344.39 1981 1343.51 1984.92L1337.57 2011.98 1326.76 2011.98 1335.82 1972.35C1336.41 1969.85 1336.78 1967.92 1336.95 1966.54 1337.11 1965.17 1337.2 1964.02 1337.2 1963.1 1337.2 1961.44 1336.93 1960.23 1336.39 1959.48 1335.84 1958.73 1334.99 1958.35 1333.82 1958.35 1332.53 1958.35 1331.17 1958.89 1329.73 1959.95 1328.29 1961.01 1326.32 1962.94 1323.82 1965.73L1320.26 1962.23C1324.09 1958.23 1327.3 1955.39 1329.89 1953.7 1332.47 1952.01 1335.32 1951.17 1338.45 1951.17Z" fill-rule="evenodd"/><text fill="#000000" fill-opacity="0" font-family="Arial,Arial_MSFontService,sans-serif" font-size="60.8125" x="1320.26" y="2004.38">𝑟</text><path d="M1393.73 1979.68 1396.5 1979.68C1396.44 1981.35 1396.39 1982.84 1396.36 1984.16 1396.33 1985.47 1396.31 1986.75 1396.29 1987.99 1396.28 1989.24 1396.27 1990.46 1396.27 1991.67L1396.27 2026.18C1396.27 2027.12 1396.3 2027.93 1396.36 2028.61 1396.42 2029.29 1396.52 2029.87 1396.66 2030.34 1396.79 2030.81 1396.97 2031.21 1397.2 2031.54 1397.43 2031.88 1397.69 2032.16 1398 2032.41 1398.36 2032.77 1398.84 2033.05 1399.45 2033.25 1400.05 2033.44 1400.83 2033.61 1401.76 2033.74 1402.7 2033.88 1403.83 2033.99 1405.15 2034.06 1406.46 2034.14 1408.05 2034.19 1409.89 2034.22L1409.89 2038.17 1373.88 2038.17 1373.88 2034.22C1375.67 2034.16 1377.18 2034.09 1378.42 2034.02 1379.67 2033.94 1380.72 2033.84 1381.6 2033.7 1382.48 2033.56 1383.18 2033.41 1383.71 2033.25 1384.24 2033.08 1384.71 2032.87 1385.1 2032.63 1385.52 2032.36 1385.89 2032.06 1386.19 2031.75 1386.49 2031.43 1386.73 2031.03 1386.92 2030.54 1387.1 2030.06 1387.24 2029.47 1387.35 2028.77 1387.45 2028.08 1387.51 2027.21 1387.51 2026.18L1387.51 1993.63C1387.51 1992.44 1387.28 1991.61 1386.82 1991.13 1386.37 1990.64 1385.72 1990.4 1384.87 1990.4 1383.93 1990.4 1382.54 1990.89 1380.69 1991.85 1378.85 1992.82 1376.46 1994.26 1373.52 1996.17 1373.13 1995.47 1372.76 1994.78 1372.43 1994.08 1372.1 1993.38 1371.75 1992.67 1371.39 1991.94 1375.14 1989.89 1378.86 1987.84 1382.53 1985.79 1386.21 1983.75 1389.94 1981.71 1393.73 1979.68Z" fill-rule="evenodd"/><text fill="#000000" fill-opacity="0" font-family="Arial,Arial_MSFontService,sans-serif" font-size="58.4883" x="1371.39" y="2030.86">1</text><path d="M1494.7 1935.23 1503.58 1935.23 1503.58 1971.23 1537.64 1971.23 1537.64 1979.54 1503.58 1979.54 1503.58 2015.54 1494.7 2015.54 1494.7 1979.54 1460.64 1979.54 1460.64 1971.23 1494.7 1971.23Z" fill-rule="evenodd"/><text fill="#000000" fill-opacity="0" font-family="Arial,Arial_MSFontService,sans-serif" font-size="80.3125" x="1460.64" y="2005.5">+</text><path d="M1595.14 1951.17C1597.76 1951.17 1599.84 1952.03 1601.36 1953.76 1602.88 1955.49 1603.64 1957.75 1603.64 1960.54 1603.64 1962.62 1603.24 1964.77 1602.45 1966.98L1603.26 1967.29C1607.35 1961.75 1611.27 1957.69 1615.04 1955.1 1618.81 1952.52 1622.64 1951.23 1626.51 1951.23 1629.55 1951.23 1632.1 1951.46 1634.14 1951.92L1631.14 1965.92 1624.7 1965.92C1624.45 1964.17 1624.1 1962.81 1623.64 1961.85 1623.18 1960.9 1622.64 1960.23 1622.01 1959.85 1621.39 1959.48 1620.6 1959.29 1619.64 1959.29 1618.14 1959.29 1616.5 1959.94 1614.73 1961.23 1612.96 1962.52 1610.97 1964.54 1608.76 1967.29 1606.55 1970.04 1604.79 1972.69 1603.48 1975.23 1602.17 1977.77 1601.08 1981 1600.2 1984.92L1594.26 2011.98 1583.45 2011.98 1592.51 1972.35C1593.1 1969.85 1593.47 1967.92 1593.64 1966.54 1593.8 1965.17 1593.89 1964.02 1593.89 1963.1 1593.89 1961.44 1593.62 1960.23 1593.08 1959.48 1592.53 1958.73 1591.68 1958.35 1590.51 1958.35 1589.22 1958.35 1587.86 1958.89 1586.42 1959.95 1584.98 1961.01 1583.01 1962.94 1580.51 1965.73L1576.95 1962.23C1580.78 1958.23 1583.99 1955.39 1586.58 1953.7 1589.16 1952.01 1592.01 1951.17 1595.14 1951.17Z" fill-rule="evenodd"/><text fill="#000000" fill-opacity="0" font-family="Arial,Arial_MSFontService,sans-serif" font-size="60.8125" x="1576.95" y="2004.38">𝑟</text><path d="M1649.83 1979.37C1652.98 1979.37 1655.67 1979.72 1657.89 1980.43 1660.12 1981.14 1661.93 1982.11 1663.32 1983.32 1664.71 1984.53 1665.72 1985.98 1666.34 1987.68 1666.96 1989.37 1667.27 1991.2 1667.27 1993.17 1667.27 1994.35 1667.19 1995.45 1667.02 1996.46 1666.85 1997.48 1666.56 1998.48 1666.16 1999.46 1665.75 2000.44 1665.21 2001.44 1664.54 2002.43 1663.88 2003.43 1663.05 2004.49 1662.05 2005.61 1661.29 2006.58 1660.31 2007.7 1659.09 2008.97 1657.88 2010.25 1656.56 2011.61 1655.12 2013.06 1653.68 2014.51 1652.18 2016.03 1650.6 2017.6 1649.03 2019.18 1647.5 2020.73 1646.02 2022.28 1644.53 2023.82 1643.17 2025.32 1641.93 2026.77 1640.69 2028.23 1639.67 2029.56 1638.89 2030.77L1655.69 2030.77C1657.11 2030.77 1658.25 2030.72 1659.09 2030.61 1659.94 2030.51 1660.65 2030.27 1661.21 2029.91 1661.77 2029.54 1662.24 2028.99 1662.64 2028.25 1663.03 2027.51 1663.48 2026.49 1664 2025.19L1668.22 2025.19C1668.07 2027.33 1667.93 2029.5 1667.79 2031.68 1667.65 2033.86 1667.51 2036.02 1667.36 2038.17L1628.9 2038.17 1628.9 2035.81C1629.62 2034.18 1630.47 2032.56 1631.44 2030.97 1632.41 2029.39 1633.5 2027.77 1634.71 2026.14 1635.92 2024.5 1637.3 2022.82 1638.84 2021.08 1640.39 2019.33 1642.1 2017.53 1643.97 2015.65 1646.82 2012.8 1649.13 2010.37 1650.92 2008.36 1652.71 2006.35 1654.11 2004.55 1655.14 2002.98 1656.17 2001.41 1656.88 1999.95 1657.26 1998.62 1657.63 1997.29 1657.82 1995.87 1657.82 1994.35 1657.82 1992.81 1657.6 1991.38 1657.16 1990.08 1656.73 1988.78 1656.1 1987.68 1655.28 1986.77 1654.46 1985.86 1653.43 1985.15 1652.17 1984.63 1650.91 1984.12 1649.47 1983.86 1647.83 1983.86 1645.02 1983.86 1642.66 1984.63 1640.75 1986.16 1638.84 1987.68 1637.36 1989.9 1636.3 1992.81L1630.35 1992.81 1630.35 1983.95C1634.23 1982.35 1637.79 1981.18 1641.04 1980.46 1644.3 1979.73 1647.23 1979.37 1649.83 1979.37Z" fill-rule="evenodd"/><text fill="#000000" fill-opacity="0" font-family="Arial,Arial_MSFontService,sans-serif" font-size="58.8062" x="1628.9" y="2030.82">2</text><path d="M1762.83 1914.63C1765.98 1914.63 1768.67 1914.98 1770.89 1915.69 1773.12 1916.41 1774.93 1917.37 1776.32 1918.58 1777.71 1919.79 1778.72 1921.24 1779.34 1922.94 1779.96 1924.63 1780.27 1926.46 1780.27 1928.43 1780.27 1929.61 1780.19 1930.71 1780.02 1931.72 1779.85 1932.74 1779.57 1933.74 1779.16 1934.72 1778.75 1935.7 1778.21 1936.7 1777.55 1937.7 1776.88 1938.69 1776.05 1939.75 1775.05 1940.87 1774.29 1941.84 1773.31 1942.96 1772.1 1944.23 1770.89 1945.51 1769.56 1946.87 1768.12 1948.32 1766.69 1949.77 1765.18 1951.29 1763.61 1952.86 1762.03 1954.44 1760.5 1956 1759.02 1957.54 1757.54 1959.08 1756.17 1960.58 1754.93 1962.03 1753.69 1963.49 1752.68 1964.82 1751.89 1966.03L1768.69 1966.03C1770.11 1966.03 1771.25 1965.98 1772.1 1965.87 1772.94 1965.77 1773.65 1965.53 1774.21 1965.17 1774.77 1964.8 1775.25 1964.25 1775.64 1963.51 1776.03 1962.77 1776.49 1961.75 1777 1960.45L1781.22 1960.45C1781.07 1962.59 1780.93 1964.76 1780.79 1966.94 1780.66 1969.12 1780.51 1971.28 1780.36 1973.43L1741.9 1973.43 1741.9 1971.07C1742.63 1969.44 1743.47 1967.82 1744.44 1966.24 1745.41 1964.65 1746.5 1963.03 1747.71 1961.4 1748.92 1959.76 1750.3 1958.08 1751.84 1956.34 1753.39 1954.6 1755.1 1952.79 1756.98 1950.91 1759.82 1948.06 1762.14 1945.63 1763.92 1943.62 1765.71 1941.61 1767.12 1939.81 1768.15 1938.24 1769.18 1936.67 1769.88 1935.21 1770.26 1933.88 1770.64 1932.55 1770.83 1931.13 1770.83 1929.61 1770.83 1928.07 1770.61 1926.65 1770.17 1925.34 1769.73 1924.04 1769.1 1922.94 1768.28 1922.03 1767.46 1921.12 1766.43 1920.41 1765.17 1919.89 1763.92 1919.38 1762.47 1919.12 1760.84 1919.12 1758.02 1919.12 1755.66 1919.89 1753.75 1921.42 1751.84 1922.94 1750.36 1925.16 1749.3 1928.07L1743.35 1928.07 1743.35 1919.21C1747.23 1917.61 1750.79 1916.44 1754.05 1915.72 1757.3 1914.99 1760.23 1914.63 1762.83 1914.63Z" fill-rule="evenodd"/><text fill="#000000" fill-opacity="0" font-family="Arial,Arial_MSFontService,sans-serif" font-size="58.8062" x="1741.9" y="1966.08">2</text><path d="M1833.29 1971.23 1910.29 1971.23 1910.29 1979.54 1833.29 1979.54Z" fill-rule="evenodd"/><text fill="#000000" fill-opacity="0" font-family="Arial,Arial_MSFontService,sans-serif" font-size="8.3125" x="1833.29" y="1978.5">−</text><path d="M2369.12 1916.12C2381.29 1919.33 2390.63 1926.26 2397.15 1936.9 2403.68 1947.55 2406.94 1960.39 2406.94 1975.43 2406.94 1990.52 2403.69 2003.36 2397.19 2013.96 2390.69 2024.57 2381.33 2031.47 2369.12 2034.68L2367.62 2029.87C2377.25 2026.66 2384.4 2020.33 2389.09 2010.87 2393.78 2001.41 2396.12 1989.39 2396.12 1974.81 2396.12 1960.72 2393.79 1949.03 2389.12 1939.71 2384.46 1930.4 2377.23 1924.14 2367.44 1920.93ZM1997.22 1916.12 1998.91 1920.93C1989.16 1924.14 1981.94 1930.4 1977.25 1939.71 1972.57 1949.03 1970.22 1960.72 1970.22 1974.81 1970.22 1989.39 1972.57 2001.41 1977.25 2010.87 1981.94 2020.33 1989.1 2026.66 1998.72 2029.87L1997.22 2034.68C1985.01 2031.47 1975.66 2024.57 1969.16 2013.96 1962.66 2003.36 1959.41 1990.52 1959.41 1975.43 1959.41 1960.39 1962.67 1947.55 1969.19 1936.9 1975.71 1926.26 1985.06 1919.33 1997.22 1916.12Z" fill-rule="evenodd"/><path d="M2021.04 1951.17C2023.67 1951.17 2025.74 1952.03 2027.26 1953.76 2028.78 1955.49 2029.54 1957.75 2029.54 1960.54 2029.54 1962.62 2029.15 1964.77 2028.36 1966.98L2029.17 1967.29C2033.25 1961.75 2037.18 1957.69 2040.95 1955.1 2044.72 1952.52 2048.54 1951.23 2052.42 1951.23 2055.46 1951.23 2058 1951.46 2060.04 1951.92L2057.04 1965.92 2050.61 1965.92C2050.36 1964.17 2050 1962.81 2049.54 1961.85 2049.09 1960.9 2048.54 1960.23 2047.92 1959.85 2047.29 1959.48 2046.5 1959.29 2045.54 1959.29 2044.04 1959.29 2042.41 1959.94 2040.64 1961.23 2038.87 1962.52 2036.88 1964.54 2034.67 1967.29 2032.46 1970.04 2030.7 1972.69 2029.39 1975.23 2028.08 1977.77 2026.98 1981 2026.11 1984.92L2020.17 2011.98 2009.36 2011.98 2018.42 1972.35C2019 1969.85 2019.38 1967.92 2019.54 1966.54 2019.71 1965.17 2019.79 1964.02 2019.79 1963.1 2019.79 1961.44 2019.52 1960.23 2018.98 1959.48 2018.44 1958.73 2017.59 1958.35 2016.42 1958.35 2015.13 1958.35 2013.76 1958.89 2012.33 1959.95 2010.89 1961.01 2008.92 1962.94 2006.42 1965.73L2002.86 1962.23C2006.69 1958.23 2009.9 1955.39 2012.48 1953.7 2015.06 1952.01 2017.92 1951.17 2021.04 1951.17Z" fill-rule="evenodd"/><text fill="#000000" fill-opacity="0" font-family="Arial,Arial_MSFontService,sans-serif" font-size="60.8125" x="2002.86" y="2004.38">𝑟</text><path d="M2076.32 1979.68 2079.09 1979.68C2079.03 1981.35 2078.99 1982.84 2078.96 1984.16 2078.93 1985.47 2078.9 1986.75 2078.89 1987.99 2078.87 1989.24 2078.87 1990.46 2078.87 1991.67L2078.87 2026.18C2078.87 2027.12 2078.9 2027.93 2078.96 2028.61 2079.02 2029.29 2079.12 2029.87 2079.25 2030.34 2079.39 2030.81 2079.57 2031.21 2079.8 2031.54 2080.02 2031.88 2080.29 2032.16 2080.59 2032.41 2080.95 2032.77 2081.44 2033.05 2082.04 2033.25 2082.65 2033.44 2083.42 2033.61 2084.36 2033.74 2085.3 2033.88 2086.43 2033.99 2087.74 2034.06 2089.06 2034.14 2090.64 2034.19 2092.49 2034.22L2092.49 2038.17 2056.48 2038.17 2056.48 2034.22C2058.26 2034.16 2059.78 2034.09 2061.02 2034.02 2062.26 2033.94 2063.32 2033.84 2064.2 2033.7 2065.08 2033.56 2065.78 2033.41 2066.31 2033.25 2066.84 2033.08 2067.3 2032.87 2067.7 2032.63 2068.12 2032.36 2068.48 2032.06 2068.78 2031.75 2069.09 2031.43 2069.33 2031.03 2069.51 2030.54 2069.69 2030.06 2069.84 2029.47 2069.94 2028.77 2070.05 2028.08 2070.1 2027.21 2070.1 2026.18L2070.1 1993.63C2070.1 1992.44 2069.87 1991.61 2069.42 1991.13 2068.97 1990.64 2068.32 1990.4 2067.47 1990.4 2066.53 1990.4 2065.14 1990.89 2063.29 1991.85 2061.44 1992.82 2059.05 1994.26 2056.12 1996.17 2055.72 1995.47 2055.36 1994.78 2055.03 1994.08 2054.69 1993.38 2054.34 1992.67 2053.98 1991.94 2057.74 1989.89 2061.45 1987.84 2065.13 1985.79 2068.81 1983.75 2072.54 1981.71 2076.32 1979.68Z" fill-rule="evenodd"/><text fill="#000000" fill-opacity="0" font-family="Arial,Arial_MSFontService,sans-serif" font-size="58.4883" x="2053.98" y="2030.86">1</text><path d="M2143.24 1971.23 2220.24 1971.23 2220.24 1979.54 2143.24 1979.54Z" fill-rule="evenodd"/><text fill="#000000" fill-opacity="0" font-family="Arial,Arial_MSFontService,sans-serif" font-size="8.3125" x="2143.24" y="1978.5">−</text><path d="M2277.73 1951.17C2280.36 1951.17 2282.43 1952.03 2283.95 1953.76 2285.47 1955.49 2286.23 1957.75 2286.23 1960.54 2286.23 1962.62 2285.84 1964.77 2285.05 1966.98L2285.86 1967.29C2289.94 1961.75 2293.87 1957.69 2297.64 1955.1 2301.41 1952.52 2305.23 1951.23 2309.11 1951.23 2312.15 1951.23 2314.69 1951.46 2316.73 1951.92L2313.73 1965.92 2307.3 1965.92C2307.05 1964.17 2306.69 1962.81 2306.23 1961.85 2305.78 1960.9 2305.23 1960.23 2304.61 1959.85 2303.98 1959.48 2303.19 1959.29 2302.23 1959.29 2300.73 1959.29 2299.1 1959.94 2297.33 1961.23 2295.56 1962.52 2293.57 1964.54 2291.36 1967.29 2289.15 1970.04 2287.39 1972.69 2286.08 1975.23 2284.76 1977.77 2283.67 1981 2282.8 1984.92L2276.86 2011.98 2266.05 2011.98 2275.11 1972.35C2275.69 1969.85 2276.07 1967.92 2276.23 1966.54 2276.4 1965.17 2276.48 1964.02 2276.48 1963.1 2276.48 1961.44 2276.21 1960.23 2275.67 1959.48 2275.13 1958.73 2274.28 1958.35 2273.11 1958.35 2271.82 1958.35 2270.45 1958.89 2269.01 1959.95 2267.58 1961.01 2265.61 1962.94 2263.11 1965.73L2259.55 1962.23C2263.38 1958.23 2266.59 1955.39 2269.17 1953.7 2271.75 1952.01 2274.61 1951.17 2277.73 1951.17Z" fill-rule="evenodd"/><text fill="#000000" fill-opacity="0" font-family="Arial,Arial_MSFontService,sans-serif" font-size="60.8125" x="2259.55" y="2004.38">𝑟</text><path d="M2332.43 1979.37C2335.58 1979.37 2338.26 1979.72 2340.49 1980.43 2342.71 1981.14 2344.52 1982.11 2345.91 1983.32 2347.31 1984.53 2348.31 1985.98 2348.93 1987.68 2349.55 1989.37 2349.86 1991.2 2349.86 1993.17 2349.86 1994.35 2349.78 1995.45 2349.61 1996.46 2349.45 1997.48 2349.16 1998.48 2348.75 1999.46 2348.34 2000.44 2347.81 2001.44 2347.14 2002.43 2346.47 2003.43 2345.64 2004.49 2344.64 2005.61 2343.89 2006.58 2342.9 2007.7 2341.69 2008.97 2340.48 2010.25 2339.16 2011.61 2337.72 2013.06 2336.28 2014.51 2334.77 2016.03 2333.2 2017.6 2331.62 2019.18 2330.1 2020.73 2328.61 2022.28 2327.13 2023.82 2325.77 2025.32 2324.53 2026.77 2323.28 2028.23 2322.27 2029.56 2321.48 2030.77L2338.28 2030.77C2339.71 2030.77 2340.84 2030.72 2341.69 2030.61 2342.54 2030.51 2343.24 2030.27 2343.8 2029.91 2344.36 2029.54 2344.84 2028.99 2345.23 2028.25 2345.63 2027.51 2346.08 2026.49 2346.59 2025.19L2350.82 2025.19C2350.67 2027.33 2350.52 2029.5 2350.39 2031.68 2350.25 2033.86 2350.11 2036.02 2349.96 2038.17L2311.49 2038.17 2311.49 2035.81C2312.22 2034.18 2313.07 2032.56 2314.04 2030.97 2315 2029.39 2316.09 2027.77 2317.31 2026.14 2318.52 2024.5 2319.89 2022.82 2321.44 2021.08 2322.98 2019.33 2324.69 2017.53 2326.57 2015.65 2329.41 2012.8 2331.73 2010.37 2333.52 2008.36 2335.3 2006.35 2336.71 2004.55 2337.74 2002.98 2338.77 2001.41 2339.47 1999.95 2339.85 1998.62 2340.23 1997.29 2340.42 1995.87 2340.42 1994.35 2340.42 1992.81 2340.2 1991.38 2339.76 1990.08 2339.32 1988.78 2338.69 1987.68 2337.88 1986.77 2337.06 1985.86 2336.02 1985.15 2334.77 1984.63 2333.51 1984.12 2332.06 1983.86 2330.43 1983.86 2327.61 1983.86 2325.25 1984.63 2323.34 1986.16 2321.44 1987.68 2319.95 1989.9 2318.89 1992.81L2312.95 1992.81 2312.95 1983.95C2316.82 1982.35 2320.39 1981.18 2323.64 1980.46 2326.89 1979.73 2329.82 1979.37 2332.43 1979.37Z" fill-rule="evenodd"/><text fill="#000000" fill-opacity="0" font-family="Arial,Arial_MSFontService,sans-serif" font-size="58.8062" x="2311.49" y="2030.82">2</text><path d="M2445.43 1914.63C2448.58 1914.63 2451.26 1914.98 2453.49 1915.69 2455.71 1916.41 2457.52 1917.37 2458.92 1918.58 2460.31 1919.79 2461.31 1921.24 2461.94 1922.94 2462.56 1924.63 2462.87 1926.46 2462.87 1928.43 2462.87 1929.61 2462.78 1930.71 2462.62 1931.72 2462.45 1932.74 2462.16 1933.74 2461.75 1934.72 2461.35 1935.7 2460.81 1936.7 2460.14 1937.7 2459.48 1938.69 2458.64 1939.75 2457.64 1940.87 2456.89 1941.84 2455.9 1942.96 2454.69 1944.23 2453.48 1945.51 2452.16 1946.87 2450.72 1948.32 2449.28 1949.77 2447.78 1951.29 2446.2 1952.86 2444.63 1954.44 2443.1 1956 2441.61 1957.54 2440.13 1959.08 2438.77 1960.58 2437.53 1962.03 2436.29 1963.49 2435.27 1964.82 2434.49 1966.03L2451.29 1966.03C2452.71 1966.03 2453.84 1965.98 2454.69 1965.87 2455.54 1965.77 2456.24 1965.53 2456.8 1965.17 2457.36 1964.8 2457.84 1964.25 2458.23 1963.51 2458.63 1962.77 2459.08 1961.75 2459.6 1960.45L2463.82 1960.45C2463.67 1962.59 2463.52 1964.76 2463.39 1966.94 2463.25 1969.12 2463.11 1971.28 2462.96 1973.43L2424.49 1973.43 2424.49 1971.07C2425.22 1969.44 2426.07 1967.82 2427.04 1966.24 2428.01 1964.65 2429.1 1963.03 2430.31 1961.4 2431.52 1959.76 2432.9 1958.08 2434.44 1956.34 2435.98 1954.6 2437.69 1952.79 2439.57 1950.91 2442.42 1948.06 2444.73 1945.63 2446.52 1943.62 2448.3 1941.61 2449.71 1939.81 2450.74 1938.24 2451.77 1936.67 2452.48 1935.21 2452.85 1933.88 2453.23 1932.55 2453.42 1931.13 2453.42 1929.61 2453.42 1928.07 2453.2 1926.65 2452.76 1925.34 2452.32 1924.04 2451.7 1922.94 2450.88 1922.03 2450.06 1921.12 2449.02 1920.41 2447.77 1919.89 2446.51 1919.38 2445.07 1919.12 2443.43 1919.12 2440.62 1919.12 2438.25 1919.89 2436.35 1921.42 2434.44 1922.94 2432.96 1925.16 2431.9 1928.07L2425.95 1928.07 2425.95 1919.21C2429.82 1917.61 2433.39 1916.44 2436.64 1915.72 2439.9 1914.99 2442.83 1914.63 2445.43 1914.63Z" fill-rule="evenodd"/><text fill="#000000" fill-opacity="0" font-family="Arial,Arial_MSFontService,sans-serif" font-size="58.8062" x="2424.49" y="1966.08">2</text><path d="M0 0 0.000360892 300.069" stroke="#000000" stroke-width="9.16667" stroke-miterlimit="8" stroke-dasharray="36.6667 27.5" fill="none" fill-rule="evenodd" transform="matrix(1 0 0 -1 1352.5 1689.57)"/><path d="M0 0 0.000360892 300.069" stroke="#000000" stroke-width="9.16667" stroke-miterlimit="8" stroke-dasharray="36.6667 27.5" fill="none" fill-rule="evenodd" transform="matrix(1 0 0 -1 2051.5 1675.57)"/><path d="M1220.35 1381.08C1222.61 1381.08 1224.39 1381.82 1225.7 1383.31 1227 1384.79 1227.66 1386.74 1227.66 1389.14 1227.66 1390.93 1227.32 1392.77 1226.64 1394.67L1227.34 1394.94C1230.84 1390.17 1234.22 1386.68 1237.46 1384.46 1240.7 1382.24 1243.99 1381.13 1247.32 1381.13 1249.93 1381.13 1252.11 1381.33 1253.87 1381.72L1251.29 1393.76 1245.76 1393.76C1245.54 1392.25 1245.24 1391.09 1244.85 1390.26 1244.45 1389.44 1243.99 1388.87 1243.45 1388.55 1242.91 1388.22 1242.23 1388.06 1241.41 1388.06 1240.12 1388.06 1238.71 1388.62 1237.19 1389.73 1235.67 1390.84 1233.96 1392.57 1232.06 1394.94 1230.16 1397.3 1228.65 1399.57 1227.52 1401.76 1226.4 1403.94 1225.46 1406.72 1224.7 1410.08L1219.6 1433.34 1210.31 1433.34 1218.1 1399.29C1218.6 1397.14 1218.92 1395.47 1219.06 1394.29 1219.21 1393.11 1219.28 1392.13 1219.28 1391.34 1219.28 1389.91 1219.05 1388.87 1218.58 1388.22 1218.11 1387.58 1217.38 1387.26 1216.38 1387.26 1215.27 1387.26 1214.1 1387.71 1212.86 1388.63 1211.62 1389.54 1209.93 1391.2 1207.78 1393.59L1204.72 1390.59C1208.02 1387.15 1210.77 1384.7 1212.99 1383.25 1215.21 1381.8 1217.67 1381.08 1220.35 1381.08Z" fill-rule="evenodd"/><text fill="#000000" fill-opacity="0" font-family="Arial,Arial_MSFontService,sans-serif" font-size="52.2607" x="1204.72" y="1426.81">𝑟</text><path d="M1267.37 1405.49 1269.75 1405.49C1269.7 1406.92 1269.66 1408.2 1269.64 1409.33 1269.61 1410.47 1269.59 1411.57 1269.58 1412.63 1269.56 1413.7 1269.56 1414.76 1269.56 1415.8L1269.56 1445.49C1269.56 1446.29 1269.58 1446.99 1269.64 1447.58 1269.69 1448.16 1269.77 1448.66 1269.89 1449.06 1270.01 1449.46 1270.16 1449.81 1270.36 1450.1 1270.55 1450.38 1270.78 1450.63 1271.04 1450.84 1271.35 1451.15 1271.77 1451.39 1272.29 1451.56 1272.81 1451.73 1273.48 1451.87 1274.28 1451.99 1275.09 1452.11 1276.06 1452.2 1277.19 1452.26 1278.33 1452.33 1279.69 1452.37 1281.28 1452.4L1281.28 1455.8 1250.3 1455.8 1250.3 1452.4C1251.84 1452.35 1253.14 1452.29 1254.21 1452.22 1255.27 1452.16 1256.18 1452.07 1256.94 1451.95 1257.69 1451.83 1258.3 1451.7 1258.76 1451.56 1259.21 1451.42 1259.61 1451.24 1259.95 1451.03 1260.31 1450.8 1260.62 1450.54 1260.89 1450.27 1261.15 1450 1261.35 1449.65 1261.51 1449.24 1261.67 1448.82 1261.79 1448.31 1261.88 1447.71 1261.97 1447.11 1262.02 1446.37 1262.02 1445.49L1262.02 1417.48C1262.02 1416.46 1261.82 1415.75 1261.43 1415.33 1261.04 1414.91 1260.48 1414.7 1259.75 1414.7 1258.94 1414.7 1257.75 1415.12 1256.16 1415.95 1254.57 1416.79 1252.51 1418.03 1249.99 1419.67 1249.65 1419.07 1249.34 1418.47 1249.05 1417.87 1248.76 1417.27 1248.46 1416.66 1248.15 1416.03 1251.38 1414.26 1254.58 1412.5 1257.74 1410.74 1260.9 1408.98 1264.11 1407.23 1267.37 1405.49Z" fill-rule="evenodd"/><text fill="#000000" fill-opacity="0" font-family="Arial,Arial_MSFontService,sans-serif" font-size="50.3125" x="1248.15" y="1449.51">1</text><path d="M2098.98 1482.42C2101.24 1482.42 2103.02 1483.17 2104.33 1484.65 2105.63 1486.14 2106.29 1488.08 2106.29 1490.48 2106.29 1492.27 2105.95 1494.12 2105.27 1496.01L2105.97 1496.28C2109.47 1491.52 2112.85 1488.03 2116.09 1485.81 2119.33 1483.59 2122.62 1482.48 2125.95 1482.48 2128.56 1482.48 2130.74 1482.68 2132.5 1483.07L2129.92 1495.1 2124.39 1495.1C2124.17 1493.6 2123.87 1492.43 2123.48 1491.61 2123.08 1490.79 2122.62 1490.21 2122.08 1489.89 2121.54 1489.57 2120.86 1489.41 2120.04 1489.41 2118.75 1489.41 2117.34 1489.96 2115.82 1491.07 2114.3 1492.18 2112.59 1493.92 2110.69 1496.28 2108.79 1498.65 2107.28 1500.92 2106.15 1503.1 2105.03 1505.29 2104.09 1508.06 2103.33 1511.43L2098.23 1534.69 2088.94 1534.69 2096.73 1500.63C2097.23 1498.48 2097.55 1496.82 2097.69 1495.64 2097.84 1494.46 2097.91 1493.47 2097.91 1492.68 2097.91 1491.25 2097.68 1490.21 2097.21 1489.57 2096.75 1488.92 2096.01 1488.6 2095.01 1488.6 2093.9 1488.6 2092.73 1489.06 2091.49 1489.97 2090.26 1490.88 2088.56 1492.54 2086.42 1494.94L2083.35 1491.93C2086.65 1488.49 2089.41 1486.05 2091.62 1484.6 2093.84 1483.15 2096.3 1482.42 2098.98 1482.42Z" fill-rule="evenodd"/><text fill="#000000" fill-opacity="0" font-family="Arial,Arial_MSFontService,sans-serif" font-size="52.2607" x="2083.35" y="1528.15">𝑟</text><path d="M2145.5 1506.56C2148.21 1506.56 2150.52 1506.86 2152.43 1507.48 2154.34 1508.09 2155.9 1508.91 2157.1 1509.96 2158.3 1511 2159.16 1512.25 2159.7 1513.71 2160.23 1515.16 2160.5 1516.74 2160.5 1518.43 2160.5 1519.45 2160.43 1520.39 2160.28 1521.27 2160.14 1522.14 2159.89 1523 2159.54 1523.84 2159.19 1524.69 2158.73 1525.54 2158.15 1526.4 2157.58 1527.26 2156.86 1528.17 2156 1529.14 2155.35 1529.97 2154.51 1530.93 2153.47 1532.03 2152.42 1533.12 2151.28 1534.29 2150.05 1535.54 2148.81 1536.79 2147.52 1538.09 2146.16 1539.45 2144.81 1540.8 2143.49 1542.14 2142.22 1543.47 2140.94 1544.8 2139.77 1546.09 2138.7 1547.34 2137.63 1548.59 2136.76 1549.74 2136.08 1550.78L2150.54 1550.78C2151.76 1550.78 2152.74 1550.73 2153.47 1550.64 2154.19 1550.55 2154.8 1550.35 2155.28 1550.03 2155.76 1549.72 2156.17 1549.25 2156.51 1548.61 2156.85 1547.97 2157.24 1547.09 2157.68 1545.97L2161.32 1545.97C2161.19 1547.82 2161.06 1549.68 2160.95 1551.56 2160.83 1553.43 2160.71 1555.29 2160.57 1557.14L2127.49 1557.14 2127.49 1555.11C2128.11 1553.71 2128.84 1552.32 2129.68 1550.95 2130.51 1549.59 2131.45 1548.2 2132.49 1546.79 2133.53 1545.39 2134.72 1543.93 2136.04 1542.44 2137.37 1540.94 2138.84 1539.38 2140.46 1537.77 2142.91 1535.32 2144.9 1533.23 2146.43 1531.5 2147.97 1529.77 2149.18 1528.22 2150.07 1526.87 2150.95 1525.52 2151.56 1524.27 2151.88 1523.12 2152.21 1521.97 2152.37 1520.75 2152.37 1519.45 2152.37 1518.12 2152.18 1516.9 2151.81 1515.78 2151.43 1514.66 2150.89 1513.71 2150.18 1512.93 2149.48 1512.14 2148.59 1511.53 2147.51 1511.09 2146.43 1510.65 2145.18 1510.43 2143.78 1510.43 2141.36 1510.43 2139.32 1511.08 2137.68 1512.4 2136.04 1513.71 2134.77 1515.62 2133.86 1518.12L2128.74 1518.12 2128.74 1510.5C2132.07 1509.12 2135.14 1508.12 2137.94 1507.5 2140.74 1506.87 2143.26 1506.56 2145.5 1506.56Z" fill-rule="evenodd"/><text fill="#000000" fill-opacity="0" font-family="Arial,Arial_MSFontService,sans-serif" font-size="50.5859" x="2127.49" y="1550.82">2</text></g></svg>