<svg width="249" height="172" xmlns="http://www.w3.org/2000/svg" xmlns:xlink="http://www.w3.org/1999/xlink" overflow="hidden"><defs><clipPath id="clip0"><rect x="48" y="166" width="249" height="172"/></clipPath></defs><g clip-path="url(#clip0)" transform="translate(-48 -166)"><path d="M0 0 0.000104987 61" stroke="#C00000" stroke-width="4" stroke-linejoin="round" stroke-miterlimit="10" fill="none" fill-rule="evenodd" transform="matrix(-1 0 0 1 86 210)"/><path d="M190 252 250 281" stroke="#C00000" stroke-width="4" stroke-linejoin="round" stroke-miterlimit="10" fill="none" fill-rule="evenodd"/><path d="M250 206 250 276" stroke="#C00000" stroke-width="4" stroke-linejoin="round" stroke-miterlimit="10" fill="none" fill-rule="evenodd"/><path d="M0 0 43 24" stroke="#C00000" stroke-width="4" stroke-linejoin="round" stroke-miterlimit="10" fill="none" fill-rule="evenodd" transform="matrix(-1 0 0 1 146 252)"/><path d="M0 0 43 28" stroke="#C00000" stroke-width="4" stroke-linejoin="round" stroke-miterlimit="10" fill="none" fill-rule="evenodd" transform="matrix(-1 0 0 1 224 201)"/><path d="M60 200.5C60 187.521 71.6406 177 86 177 100.359 177 112 187.521 112 200.5 112 213.479 100.359 224 86 224 71.6406 224 60 213.479 60 200.5Z" stroke="#6C4C8F" stroke-width="4" stroke-linejoin="round" stroke-miterlimit="10" fill="#00B0F0" fill-rule="evenodd"/><text fill="#FEFFFF" font-family="Microsoft YaHei,Microsoft YaHei_MSFontService,sans-serif" font-weight="400" font-size="32" transform="translate(67.8333 212)">v1</text><path d="M216 196C216 183.297 227.641 173 242 173 256.359 173 268 183.297 268 196 268 208.703 256.359 219 242 219 227.641 219 216 208.703 216 196Z" stroke="#6C4C8F" stroke-width="4" stroke-linejoin="round" stroke-miterlimit="10" fill="#00B0F0" fill-rule="evenodd"/><text fill="#FEFFFF" font-family="Microsoft YaHei,Microsoft YaHei_MSFontService,sans-serif" font-weight="400" font-size="32" transform="translate(223.833 208)">v2</text><path d="M138 247C138 234.297 149.641 224 164 224 178.359 224 190 234.297 190 247 190 259.703 178.359 270 164 270 149.641 270 138 259.703 138 247Z" stroke="#6C4C8F" stroke-width="4" stroke-linejoin="round" stroke-miterlimit="10" fill="#00B0F0" fill-rule="evenodd"/><text fill="#FEFFFF" font-family="Microsoft YaHei,Microsoft YaHei_MSFontService,sans-serif" font-weight="400" font-size="32" transform="translate(145.833 259)">v3</text><path d="M233 299C233 286.297 244.641 276 259 276 273.359 276 285 286.297 285 299 285 311.703 273.359 322 259 322 244.641 322 233 311.703 233 299Z" stroke="#6C4C8F" stroke-width="4" stroke-linejoin="round" stroke-miterlimit="10" fill="#00B0F0" fill-rule="evenodd"/><text fill="#FEFFFF" font-family="Microsoft YaHei,Microsoft YaHei_MSFontService,sans-serif" font-weight="400" font-size="32" transform="translate(241.167 311)">v5</text><path d="M112 192 216 192" stroke="#C00000" stroke-width="4" stroke-linejoin="round" stroke-miterlimit="10" fill="none" fill-rule="evenodd"/><path d="M112 295 233 295" stroke="#C00000" stroke-width="4" stroke-linejoin="round" stroke-miterlimit="10" fill="none" fill-rule="evenodd"/><path d="M60 287.5C60 278.387 71.6406 271 86 271 100.359 271 112 278.387 112 287.5 112 296.613 100.359 304 86 304 71.6406 304 60 296.613 60 287.5Z" stroke="#BADE78" stroke-width="4" stroke-linejoin="round" stroke-miterlimit="10" fill="#00B0F0" fill-rule="evenodd"/><text fill="#CDE5F3" font-family="Microsoft YaHei,Microsoft YaHei_MSFontService,sans-serif" font-weight="400" font-size="32" transform="translate(67.8333 299)">v4</text><path d="M60 294C60 281.297 71.6406 271 86 271 100.359 271 112 281.297 112 294 112 306.703 100.359 317 86 317 71.6406 317 60 306.703 60 294Z" stroke="#6C4C8F" stroke-width="4" stroke-linejoin="round" stroke-miterlimit="10" fill="#00B0F0" fill-rule="evenodd"/><text fill="#FEFFFF" font-family="Microsoft YaHei,Microsoft YaHei_MSFontService,sans-serif" font-weight="400" font-size="32" transform="translate(67.8333 306)">v4</text></g></svg>