<svg width="719" height="1018" xmlns="http://www.w3.org/2000/svg" xmlns:xlink="http://www.w3.org/1999/xlink" xml:space="preserve" overflow="hidden"><g transform="translate(-3175 -774)"><rect x="3428.5" y="964.5" width="113" height="211" stroke="#000000" stroke-width="9.16667" stroke-miterlimit="8" fill="#92D050"/><rect x="3428.5" y="1180.5" width="113" height="211" stroke="#000000" stroke-width="9.16667" stroke-miterlimit="8" fill="#92D050"/><rect x="3541.5" y="964.5" width="113" height="211" stroke="#000000" stroke-width="9.16667" stroke-miterlimit="8" fill="#92D050"/><rect x="3541.5" y="1180.5" width="113" height="211" stroke="#000000" stroke-width="9.16667" stroke-miterlimit="8" fill="#92D050"/><rect x="3428.5" y="1391.5" width="113" height="210" stroke="#000000" stroke-width="9.16667" stroke-miterlimit="8" fill="#92D050"/><rect x="3541.5" y="1391.5" width="113" height="210" stroke="#000000" stroke-width="9.16667" stroke-miterlimit="8" fill="#92D050"/><path d="M3428.5 806.5 3428.5 1786.86" stroke="#FF0000" stroke-width="9.16667" stroke-miterlimit="8" fill="none" fill-rule="evenodd"/><path d="M3295.5 1298.5C3295.5 1288.01 3304.23 1279.5 3315 1279.5 3325.77 1279.5 3334.5 1288.01 3334.5 1298.5 3334.5 1308.99 3325.77 1317.5 3315 1317.5 3304.23 1317.5 3295.5 1308.99 3295.5 1298.5Z" stroke="#000000" stroke-width="4.58333" stroke-miterlimit="8" fill="#FFC000" fill-rule="evenodd"/><path d="M3428.5 905.208 3654.92 905.209 3654.92 909.792 3428.5 909.792ZM3428.5 921.25 3414.75 907.5 3428.5 893.75 3442.25 907.5ZM3654.92 893.75 3668.67 907.5 3654.92 921.25 3641.17 907.5Z" fill="#4472C4"/><path d="M3733.79 962.5 3733.79 1601.74 3729.21 1601.74 3729.21 962.5ZM3717.75 962.5 3731.5 948.75 3745.25 962.5 3731.5 976.25ZM3745.25 1601.74 3731.5 1615.49 3717.75 1601.74 3731.5 1587.99Z" fill="#4472C4"/><path d="M3541.41 831.221C3538.66 831.221 3536.19 832.335 3534 834.564 3531.81 836.793 3530.09 839.799 3528.83 843.581 3527.57 847.364 3526.95 851.133 3526.95 854.889 3526.95 857.698 3527.33 859.799 3528.1 861.191 3528.87 862.582 3530.16 863.278 3531.97 863.278 3532.81 863.278 3533.66 863.095 3534.52 862.731 3535.39 862.366 3536.29 861.778 3537.22 860.968 3538.15 860.157 3539.07 859.171 3539.98 858.009 3540.88 856.847 3541.71 855.679 3542.47 854.504 3543.22 853.328 3543.93 851.937 3544.58 850.329 3545.22 848.722 3545.78 846.783 3546.24 844.514L3546.6 842.771C3547.01 840.826 3547.21 838.988 3547.21 837.259 3547.21 835.152 3546.76 833.619 3545.87 832.659 3544.98 831.7 3543.49 831.221 3541.41 831.221ZM3558.4 809.498 3560.79 809.498 3550.7 854.362C3550.1 857.01 3549.8 859.009 3549.8 860.36 3549.8 861.441 3549.98 862.224 3550.33 862.71 3550.68 863.197 3551.24 863.44 3551.99 863.44 3552.8 863.44 3553.67 863.109 3554.59 862.447 3555.5 861.785 3556.8 860.522 3558.48 858.658L3560.79 860.927C3558.3 863.548 3556.21 865.399 3554.5 866.479 3552.8 867.56 3550.97 868.101 3548.99 868.101 3547.32 868.101 3545.98 867.547 3544.98 866.439 3543.98 865.331 3543.48 863.859 3543.48 862.021 3543.48 860.535 3543.79 858.955 3544.41 857.28L3543.89 857.118C3541.29 860.9 3538.83 863.67 3536.51 865.426 3534.19 867.182 3531.73 868.06 3529.13 868.06 3526.16 868.06 3523.86 866.939 3522.22 864.696 3520.59 862.454 3519.77 859.306 3519.77 855.253 3519.77 850.606 3520.68 846.141 3522.51 841.859 3524.33 837.577 3526.84 834.199 3530.03 831.727 3533.21 829.255 3536.77 828.019 3540.68 828.019 3542.33 828.019 3543.85 828.188 3545.24 828.526 3546.64 828.863 3548.06 829.451 3549.52 830.289L3551.63 820.927C3551.84 820.035 3552.03 819.049 3552.19 817.968 3552.36 816.887 3552.44 815.942 3552.44 815.131 3552.44 814.321 3552.29 813.706 3551.99 813.287 3551.69 812.869 3551.27 812.565 3550.72 812.375 3550.16 812.186 3549.17 812.051 3547.74 811.97L3548.22 809.863Z" fill-rule="evenodd"/><text fill="#000000" fill-opacity="0" font-family="Arial,Arial_MSFontService,sans-serif" font-size="58.6025" x="3519.77" y="860.775">𝑑</text><path d="M3824.48 1276.04C3821.73 1276.04 3819.26 1277.15 3817.07 1279.38 3814.88 1281.61 3813.16 1284.62 3811.9 1288.4 3810.64 1292.18 3810.02 1295.95 3810.02 1299.71 3810.02 1302.52 3810.4 1304.62 3811.17 1306.01 3811.94 1307.4 3813.23 1308.1 3815.04 1308.1 3815.88 1308.1 3816.73 1307.91 3817.59 1307.55 3818.46 1307.19 3819.36 1306.6 3820.29 1305.79 3821.22 1304.98 3822.14 1303.99 3823.05 1302.83 3823.95 1301.67 3824.78 1300.5 3825.54 1299.32 3826.29 1298.15 3827 1296.76 3827.65 1295.15 3828.29 1293.54 3828.85 1291.6 3829.31 1289.33L3829.67 1287.59C3830.08 1285.64 3830.28 1283.81 3830.28 1282.08 3830.28 1279.97 3829.83 1278.44 3828.94 1277.48 3828.05 1276.52 3826.56 1276.04 3824.48 1276.04ZM3775.89 1256.3C3780.92 1256.3 3784.71 1257.4 3787.28 1259.61 3789.85 1261.81 3791.13 1265 3791.13 1269.19 3791.13 1270.62 3790.99 1271.94 3790.7 1273.14 3790.42 1274.34 3789.97 1275.53 3789.37 1276.71 3788.76 1277.88 3787.94 1279.15 3786.91 1280.5 3785.89 1281.85 3784.75 1283.22 3783.51 1284.61 3782.27 1286 3780.12 1288.32 3777.07 1291.56 3771.93 1296.99 3768.16 1301.73 3765.76 1305.79L3781.04 1305.79C3782.36 1305.79 3783.43 1305.71 3784.24 1305.54 3785.05 1305.38 3785.7 1305.11 3786.18 1304.73 3786.67 1304.35 3787.06 1303.86 3787.34 1303.25 3787.62 1302.65 3787.98 1301.71 3788.41 1300.44L3791.86 1300.44 3791.17 1312.27 3757.82 1312.27 3757.82 1310.33C3758.98 1307.49 3760.54 1304.58 3762.52 1301.61 3764.49 1298.64 3767.29 1295.14 3770.91 1291.12 3774.04 1287.66 3776.3 1285.04 3777.67 1283.25 3779.19 1281.31 3780.31 1279.63 3781.06 1278.21 3781.8 1276.79 3782.33 1275.45 3782.66 1274.2 3782.98 1272.94 3783.15 1271.68 3783.15 1270.41 3783.15 1268.38 3782.82 1266.59 3782.17 1265.04 3781.52 1263.48 3780.53 1262.26 3779.19 1261.37 3777.86 1260.48 3776.17 1260.03 3774.15 1260.03 3769.1 1260.03 3765.69 1262.84 3763.94 1268.46L3759.03 1268.46 3759.03 1260.68C3762.3 1259.14 3765.36 1258.03 3768.21 1257.34 3771.06 1256.65 3773.62 1256.3 3775.89 1256.3ZM3841.47 1254.32 3843.86 1254.32 3833.77 1299.18C3833.17 1301.83 3832.87 1303.83 3832.87 1305.18 3832.87 1306.26 3833.05 1307.04 3833.4 1307.53 3833.75 1308.02 3834.31 1308.26 3835.06 1308.26 3835.87 1308.26 3836.74 1307.93 3837.66 1307.27 3838.57 1306.6 3839.87 1305.34 3841.55 1303.48L3843.86 1305.75C3841.37 1308.37 3839.28 1310.22 3837.57 1311.3 3835.87 1312.38 3834.04 1312.92 3832.06 1312.92 3830.39 1312.92 3829.05 1312.37 3828.05 1311.26 3827.05 1310.15 3826.55 1308.68 3826.55 1306.84 3826.55 1305.35 3826.86 1303.77 3827.48 1302.1L3826.96 1301.94C3824.36 1305.72 3821.9 1308.49 3819.58 1310.24 3817.26 1312 3814.8 1312.88 3812.2 1312.88 3809.23 1312.88 3806.93 1311.76 3805.29 1309.52 3803.66 1307.27 3802.84 1304.13 3802.84 1300.07 3802.84 1295.43 3803.75 1290.96 3805.58 1286.68 3807.4 1282.4 3809.91 1279.02 3813.1 1276.55 3816.28 1274.07 3819.84 1272.84 3823.75 1272.84 3825.4 1272.84 3826.92 1273.01 3828.31 1273.34 3829.71 1273.68 3831.13 1274.27 3832.59 1275.11L3834.7 1265.75C3834.91 1264.85 3835.1 1263.87 3835.26 1262.79 3835.43 1261.71 3835.51 1260.76 3835.51 1259.95 3835.51 1259.14 3835.36 1258.53 3835.06 1258.11 3834.76 1257.69 3834.34 1257.38 3833.79 1257.19 3833.23 1257.01 3832.24 1256.87 3830.81 1256.79L3831.29 1254.68Z" fill-rule="evenodd"/><text fill="#000000" fill-opacity="0" font-family="Arial,Arial_MSFontService,sans-serif" font-size="58.6025" x="3757.82" y="1305.59">2𝑑</text><path d="M3428.5 962.5 3541.71 1174.87" stroke="#7F6000" stroke-width="9.16667" stroke-miterlimit="8" fill="none" fill-rule="evenodd"/><path d="M3500.15 1028.6C3501.85 1028.6 3503.2 1029.16 3504.18 1030.28 3505.17 1031.4 3505.66 1032.87 3505.66 1034.68 3505.66 1036.03 3505.4 1037.42 3504.89 1038.85L3505.42 1039.05C3508.06 1035.46 3510.61 1032.83 3513.06 1031.15 3515.5 1029.48 3517.98 1028.64 3520.49 1028.64 3522.47 1028.64 3524.11 1028.79 3525.44 1029.08L3523.49 1038.16 3519.32 1038.16C3519.16 1037.03 3518.93 1036.15 3518.63 1035.53 3518.33 1034.91 3517.98 1034.47 3517.58 1034.23 3517.17 1033.99 3516.66 1033.87 3516.04 1033.87 3515.06 1033.87 3514 1034.28 3512.85 1035.12 3511.71 1035.96 3510.42 1037.27 3508.98 1039.05 3507.55 1040.84 3506.41 1042.55 3505.56 1044.2 3504.71 1045.85 3504 1047.94 3503.43 1050.48L3499.58 1068.03 3492.57 1068.03 3498.45 1042.34C3498.82 1040.71 3499.07 1039.46 3499.18 1038.57 3499.28 1037.68 3499.34 1036.93 3499.34 1036.34 3499.34 1035.26 3499.16 1034.47 3498.81 1033.99 3498.46 1033.5 3497.91 1033.26 3497.15 1033.26 3496.31 1033.26 3495.43 1033.6 3494.5 1034.29 3493.56 1034.98 3492.29 1036.23 3490.67 1038.04L3488.36 1035.77C3490.84 1033.18 3492.92 1031.33 3494.6 1030.24 3496.27 1029.14 3498.12 1028.6 3500.15 1028.6Z" fill-rule="evenodd"/><text fill="#000000" fill-opacity="0" font-family="Arial,Arial_MSFontService,sans-serif" font-size="39.4331" x="3488.36" y="1063.1">𝑟</text><path d="M3249.1 1231.15C3247.42 1231.15 3245.66 1231.19 3243.83 1231.27L3238.32 1255.83 3242.53 1255.83C3245.8 1255.83 3248.44 1255.49 3250.45 1254.82 3252.47 1254.14 3254.11 1253.09 3255.4 1251.68 3256.68 1250.26 3257.67 1248.58 3258.38 1246.63 3259.08 1244.69 3259.43 1242.55 3259.43 1240.23 3259.43 1237.09 3258.63 1234.8 3257.04 1233.34 3255.45 1231.88 3252.8 1231.15 3249.1 1231.15ZM3232.11 1227.58 3249.99 1227.58C3253.2 1227.58 3255.84 1227.83 3257.91 1228.33 3259.98 1228.83 3261.68 1229.6 3263.02 1230.64 3264.35 1231.68 3265.35 1233 3266.02 1234.59 3266.68 1236.19 3267.01 1238.04 3267.01 1240.15 3267.01 1244.2 3266.05 1247.71 3264.13 1250.68 3262.21 1253.66 3259.61 1255.84 3256.33 1257.25 3253.05 1258.65 3249.11 1259.36 3244.52 1259.36 3241.76 1259.36 3239.46 1259.3 3237.63 1259.19L3235.03 1271.11C3234.79 1272.22 3234.62 1273.07 3234.53 1273.66 3234.43 1274.26 3234.35 1274.9 3234.28 1275.59 3234.22 1276.28 3234.18 1276.89 3234.18 1277.43 3234.18 1278.27 3234.32 1278.92 3234.59 1279.4 3234.86 1279.87 3235.26 1280.21 3235.8 1280.43 3236.34 1280.65 3237.28 1280.81 3238.6 1280.92L3238.15 1282.9 3221.5 1282.9 3221.94 1280.92C3222.97 1280.75 3223.74 1280.49 3224.25 1280.13 3224.77 1279.76 3225.2 1279.26 3225.55 1278.61 3225.9 1277.96 3226.22 1277.17 3226.52 1276.24 3226.82 1275.3 3227.26 1273.5 3227.86 1270.83L3234.75 1239.62C3235.34 1236.92 3235.64 1234.78 3235.64 1233.22 3235.64 1231.89 3235.33 1230.97 3234.71 1230.46 3234.09 1229.95 3233.07 1229.65 3231.67 1229.57Z" fill-rule="evenodd"/><text fill="#000000" fill-opacity="0" font-family="Arial,Arial_MSFontService,sans-serif" font-size="55.3198" x="3221.5" y="1275.99">𝑃</text></g></svg>