<svg width="2167" height="501" xmlns="http://www.w3.org/2000/svg" xmlns:xlink="http://www.w3.org/1999/xlink" xml:space="preserve" overflow="hidden"><g transform="translate(-1885 -218)"><rect x="1912.5" y="608.5" width="2137" height="25.0001" stroke="#2F528F" stroke-width="4.58333" stroke-miterlimit="8" fill="none"/><path d="M1912.5 605.5C1912.5 587.827 1914.89 573.5 1917.83 573.5L1998.67 573.5C2001.61 573.5 2004 559.173 2004 541.5 2004 559.173 2006.39 573.5 2009.33 573.5L2090.17 573.5C2093.11 573.5 2095.5 587.827 2095.5 605.5" stroke="#4472C4" stroke-width="4.58333" stroke-miterlimit="8" fill="none" fill-rule="evenodd"/><text font-family="DengXian,DengXian_MSFontService,sans-serif" font-weight="400" font-size="73" transform="matrix(1 0 0 1 1929.28 535)">Pre[0]</text><path d="M1913.5 493.5C1913.5 476.103 1915.85 462 1918.75 462L2090.75 462C2093.65 462 2096 447.897 2096 430.5 2096 447.897 2098.35 462 2101.25 462L2273.25 462C2276.15 462 2278.5 476.103 2278.5 493.5" stroke="#4472C4" stroke-width="4.58333" stroke-miterlimit="8" fill="none" fill-rule="evenodd"/><text font-family="DengXian,DengXian_MSFontService,sans-serif" font-weight="400" font-size="73" transform="matrix(1 0 0 1 2017.93 420)">Pre[</text><text font-family="DengXian,DengXian_MSFontService,sans-serif" font-weight="400" font-size="73" transform="matrix(1 0 0 1 2142.25 420)">1</text><text font-family="DengXian,DengXian_MSFontService,sans-serif" font-weight="400" font-size="73" transform="matrix(1 0 0 1 2180.64 420)">]</text><path d="M1912.5 388.5C1912.5 370.827 1914.89 356.5 1917.83 356.5L2181.67 356.5C2184.61 356.5 2187 342.173 2187 324.5 2187 342.173 2189.39 356.5 2192.33 356.5L2456.17 356.5C2459.11 356.5 2461.5 370.827 2461.5 388.5" stroke="#4472C4" stroke-width="4.58333" stroke-miterlimit="8" fill="none" fill-rule="evenodd"/><text font-family="DengXian,DengXian_MSFontService,sans-serif" font-weight="400" font-size="73" transform="matrix(1 0 0 1 2106.58 314)">Pre[</text><text font-family="DengXian,DengXian_MSFontService,sans-serif" font-weight="400" font-size="73" transform="matrix(1 0 0 1 2230.9 314)">2</text><text font-family="DengXian,DengXian_MSFontService,sans-serif" font-weight="400" font-size="73" transform="matrix(1 0 0 1 2269.28 314)">]</text><rect x="1912.5" y="608.5" width="183" height="25.0001" stroke="#0070C0" stroke-width="4.58333" stroke-miterlimit="8" fill="none"/><rect x="2095.5" y="608.5" width="183" height="25.0001" stroke="#0070C0" stroke-width="4.58333" stroke-miterlimit="8" fill="none"/><rect x="2278.5" y="608.5" width="183" height="25.0001" stroke="#0070C0" stroke-width="4.58333" stroke-miterlimit="8" fill="none"/><text font-family="DengXian,DengXian_MSFontService,sans-serif" font-weight="400" font-size="83" transform="matrix(1 0 0 1 2491.32 647)">…</text><text font-family="DengXian,DengXian_MSFontService,sans-serif" font-weight="400" font-size="83" transform="matrix(1 0 0 1 2338.74 320)">…</text></g></svg>