<svg width="987" height="348" xmlns="http://www.w3.org/2000/svg" xmlns:xlink="http://www.w3.org/1999/xlink" xml:space="preserve" overflow="hidden"><g transform="translate(-319 -1280)"><path d="M336.5 1455.5 1097.48 1455.5" stroke="#4472C4" stroke-width="22.9167" stroke-miterlimit="8" fill="none" fill-rule="evenodd"/><path d="M791.5 1280.5 791.501 1497.6" stroke="#C55A11" stroke-width="9.16667" stroke-miterlimit="8" fill="none" fill-rule="evenodd"/><text font-family="DengXian,DengXian_MSFontService,sans-serif" font-weight="400" font-size="83" transform="matrix(1 0 0 1 369.467 1553)">Pre&lt;0</text><text font-family="DengXian,DengXian_MSFontService,sans-serif" font-weight="400" font-size="83" transform="matrix(1 0 0 1 583.738 1553)">抛弃</text><path d="M831.5 1496.5C820.454 1496.5 811.5 1495.75 811.5 1494.83L811.5 1287.17C811.5 1286.25 820.454 1285.5 831.5 1285.5" stroke="#C55A11" stroke-width="9.16667" stroke-miterlimit="8" fill="none" fill-rule="evenodd"/><path d="M0.0290382-4.58324 217.376-3.20619 217.318 5.96029-0.0290382 4.58324ZM212.851-12.4017 240.263 1.52224 212.676 15.0977Z" fill="#C55A11" transform="matrix(1 0 0 -1 811.5 1391.02)"/><text font-family="DengXian,DengXian_MSFontService,sans-serif" font-weight="400" font-size="83" transform="matrix(1 0 0 1 853.997 1556)">新的开始</text></g></svg>