<svg width="576" height="384" xmlns="http://www.w3.org/2000/svg" xmlns:xlink="http://www.w3.org/1999/xlink" xml:space="preserve" overflow="hidden"><defs><clipPath id="clip0"><rect x="125" y="243" width="576" height="384"/></clipPath><clipPath id="clip1"><rect x="196" y="289" width="448" height="296"/></clipPath><clipPath id="clip2"><rect x="196" y="289" width="448" height="296"/></clipPath></defs><g clip-path="url(#clip0)" transform="translate(-125 -243)"><path d="M7.31875 4.40208 7.31875 0 6.12083 0 6.12083 4.3625C6.12083 5.05277 5.9861 5.56875 5.71667 5.91042 5.44723 6.25348 5.04375 6.425 4.50625 6.425 3.85902 6.425 3.3486 6.21875 2.975 5.80625 2.6014 5.39515 2.41458 4.83333 2.41458 4.12083L2.41458 0 1.21042 0 1.21042 7.29167 2.41458 7.29167 2.41458 6.15833C2.70208 6.59723 3.03958 6.925 3.42708 7.14167 3.81598 7.35833 4.26458 7.46667 4.77292 7.46667 5.61042 7.46667 6.24375 7.20765 6.67292 6.68958 7.10348 6.17152 7.31875 5.40902 7.31875 4.40208Z" transform="matrix(1 0 0 -1 415.975 600.224)"/><path d="M-0.0395833 9.72083 8.18333 9.72083 8.18333 8.6125 4.73333 8.6125 4.73333 0 3.4125 0 3.4125 8.6125-0.0395833 8.6125-0.0395833 9.72083Z" transform="matrix(6.12323e-17 -1 -1 -6.12323e-17 188.894 450.419)"/><path d="M4.13333 10.1167C3.55277 9.11944 3.12083 8.13194 2.8375 7.15417 2.55556 6.17777 2.41458 5.18819 2.41458 4.18542 2.41458 3.18402 2.55694 2.19167 2.84167 1.20833 3.1264 0.225 3.55694-0.76389 4.13333-1.75833L3.09167-1.75833C2.44167-0.7375 1.95486 0.265277 1.63125 1.25 1.30764 2.23473 1.14583 3.21319 1.14583 4.18542 1.14583 5.15348 1.30625 6.12777 1.62708 7.10833 1.94931 8.09027 2.4375 9.09306 3.09167 10.1167L4.13333 10.1167Z" transform="matrix(6.12323e-17 -1 -1 -6.12323e-17 188.894 442.274)"/><path d="M7.31875 4.40208 7.31875 0 6.12083 0 6.12083 4.3625C6.12083 5.05277 5.9861 5.56875 5.71667 5.91042 5.44723 6.25348 5.04375 6.425 4.50625 6.425 3.85902 6.425 3.3486 6.21875 2.975 5.80625 2.6014 5.39515 2.41458 4.83333 2.41458 4.12083L2.41458 0 1.21042 0 1.21042 7.29167 2.41458 7.29167 2.41458 6.15833C2.70208 6.59723 3.03958 6.925 3.42708 7.14167 3.81598 7.35833 4.26458 7.46667 4.77292 7.46667 5.61042 7.46667 6.24375 7.20765 6.67292 6.68958 7.10348 6.17152 7.31875 5.40902 7.31875 4.40208Z" transform="matrix(6.12323e-17 -1 -1 -6.12323e-17 188.894 437.072)"/><path d="M1.06875 10.1167 2.11042 10.1167C2.76042 9.09306 3.24723 8.09027 3.57083 7.10833 3.89444 6.12777 4.05625 5.15348 4.05625 4.18542 4.05625 3.21319 3.89444 2.23473 3.57083 1.25 3.24723 0.265277 2.76042-0.7375 2.11042-1.75833L1.06875-1.75833C1.64514-0.76389 2.07569 0.225 2.36042 1.20833 2.64515 2.19167 2.7875 3.18402 2.7875 4.18542 2.7875 5.18819 2.64515 6.17777 2.36042 7.15417 2.07569 8.13194 1.64514 9.11944 1.06875 10.1167Z" transform="matrix(6.12323e-17 -1 -1 -6.12323e-17 188.894 428.622)"/><g><path d="M201.464 584.731 206.399 584.484 209.988 584.032 213.129 583.365 216.269 582.381 218.961 581.24 221.653 579.78 224.345 577.964 227.037 575.752 229.729 573.107 232.42 569.989 235.112 566.359 237.804 562.179 240.496 557.408 243.188 552.008 245.88 545.941 248.571 539.169 251.263 531.651 253.955 523.348 257.096 512.619 260.236 500.708 263.377 487.553 266.517 473.092 269.657 457.264 272.799 440.007 275.939 421.259 279.528 397.928 283.117 372.476 286.707 344.812 290.296 314.843 290.744 310.931 290.744 310.931" stroke="#0000FF" stroke-width="2" stroke-linecap="square" stroke-linejoin="round" fill="none"/></g><g><path d="M201.464 584.464 204.773 583.864 208.081 582.937 211.39 581.688 214.699 580.112 218.008 578.212 221.317 575.987 224.625 573.436 227.934 570.561 231.904 566.683 235.875 562.336 239.845 557.521 243.816 552.239 247.786 546.489 251.757 540.271 256.389 532.425 261.021 523.943 265.653 514.824 270.285 505.068 274.919 494.676 280.212 482.019 285.507 468.529 290.8 454.209 296.095 439.057 301.388 423.073 307.344 404.097 313.3 384.068 319.255 362.987 325.211 340.853 331.167 317.666 333.152 309.704 333.152 309.704" stroke="#008000" stroke-width="2" stroke-linecap="square" stroke-linejoin="round" fill="none"/></g><g clip-path="url(#clip1)"><path d="M201.464 591.568 203.869 593.275 206.273 594.412 208.678 595.132 211.083 595.521 213.488 595.637 215.892 595.52 219.499 594.971 223.107 594.036 226.714 592.771 230.321 591.215 235.13 588.741 239.94 585.864 244.749 582.631 249.559 579.075 255.57 574.223 261.583 568.963 267.595 563.329 274.808 556.125 282.023 548.476 289.236 540.423 297.653 530.555 306.069 520.22 315.688 507.884 325.308 495.032 334.927 481.7 345.748 466.173 356.569 450.124 368.592 431.721 380.616 412.761 393.843 391.304 407.068 369.257 420.295 346.658 434.723 321.413 440.735 310.722 440.735 310.722" stroke="#FFA500" stroke-width="2" stroke-linecap="square" stroke-linejoin="round" fill="none"/></g><g><path d="M201.464 581.803 531.8 363 531.8 363" stroke="#FF0000" stroke-width="2" stroke-linecap="square" stroke-linejoin="round" fill="none"/></g><g clip-path="url(#clip2)"><path d="M213.076 628.333 215.606 622.092 218.257 616.409 220.909 611.395 223.56 606.908 227.096 601.577 230.631 596.84 234.166 592.576 238.586 587.783 243.005 583.475 247.424 579.563 252.727 575.297 258.03 571.419 264.217 567.3 270.404 563.544 277.475 559.621 284.545 556.029 292.5 552.319 301.339 548.543 311.061 544.743 320.784 541.253 331.389 537.747 342.88 534.247 355.253 530.773 369.396 527.123 384.421 523.559 400.331 520.083 418.007 516.527 437.452 512.929 458.664 509.323 481.644 505.732 506.392 502.176 532.908 498.668 554.12 496.056 554.12 496.056" stroke="#A52A2A" stroke-width="2" stroke-linecap="square" stroke-linejoin="round" fill="none"/></g><path d="M650.067 584.76 636.733 578.093 636.733 591.427Z" stroke="#000000" stroke-width="1.33333"/><path d="M197 282.413 190.333 295.747 203.667 295.747Z" stroke="#000000" stroke-width="1.33333"/><path d="M197 584.76 197 289.08" stroke="#000000" stroke-width="1.06667" stroke-linecap="square" fill="none"/><path d="M197 584.76 643.4 584.76" stroke="#000000" stroke-width="1.06667" stroke-linecap="square" fill="none"/><path d="M7.93042 11.3108C6.86096 11.3108 6.03167 10.9161 5.4425 10.1267 4.85333 9.33721 4.55875 8.225 4.55875 6.79 4.55875 5.36279 4.85333 4.25346 5.4425 3.46208 6.03167 2.67264 6.86096 2.27792 7.93042 2.27792 9.0057 2.27792 9.83792 2.67264 10.4271 3.46208 11.0162 4.25346 11.3108 5.36279 11.3108 6.79 11.3108 8.225 11.0162 9.33721 10.4271 10.1267 9.83792 10.9161 9.0057 11.3108 7.93042 11.3108ZM7.93042 13.8542C10.1179 13.8542 11.831 13.228 13.0696 11.9758 14.3101 10.7255 14.9304 8.99695 14.9304 6.79 14.9304 4.59083 14.3101 2.86514 13.0696 1.61292 11.831 0.360695 10.1179-0.265417 7.93042-0.265417 5.74875-0.265417 4.03667 0.360695 2.79417 1.61292 1.55167 2.86514 0.930417 4.59083 0.930417 6.79 0.930417 8.99695 1.55167 10.7255 2.79417 11.9758 4.03667 13.228 5.74875 13.8542 7.93042 13.8542Z" fill="#0000FF" transform="matrix(1 0 0 -1 259.027 304.802)"/><path d="M7.03792-2.46167 4.32833-2.46167C3.39888-0.960555 2.7125 0.465695 2.26917 1.81708 1.82583 3.17042 1.60417 4.51208 1.60417 5.84208 1.60417 7.17404 1.8268 8.52154 2.27208 9.88458 2.7193 11.2496 3.40471 12.6758 4.32833 14.1633L7.03792 14.1633C6.26013 12.7245 5.6768 11.3167 5.28792 9.94 4.89904 8.56333 4.70458 7.2032 4.70458 5.85958 4.70458 4.51792 4.89708 3.1568 5.28208 1.77625 5.66708 0.397638 6.25237-1.015 7.03792-2.46167Z" fill="#0000FF" transform="matrix(1 0 0 -1 274.895 304.802)"/><path d="M10.4008 6.16292 9.205 0 7.51917 0 8.715 6.09875C8.76945 6.38458 8.81125 6.63638 8.84042 6.85417 8.87154 7.07388 8.88708 7.24695 8.88708 7.37333 8.88708 7.88471 8.7257 8.28237 8.40292 8.56625 8.08208 8.85208 7.63292 8.995 7.05542 8.995 6.15513 8.995 5.38029 8.69555 4.73083 8.09667 4.08138 7.49971 3.65555 6.68792 3.45333 5.66125L2.33333 0 0.65625 0 2.63375 10.2083 4.31083 10.2083 3.97542 8.60417C4.44208 9.19333 5.00305 9.64833 5.65833 9.96917 6.31555 10.292 7.00583 10.4533 7.72917 10.4533 8.62945 10.4533 9.32654 10.2103 9.82042 9.72417 10.3162 9.23805 10.5642 8.55458 10.5642 7.67375 10.5642 7.45596 10.5505 7.22263 10.5233 6.97375 10.4961 6.72487 10.4553 6.45458 10.4008 6.16292Z" fill="#0000FF" transform="matrix(1 0 0 -1 283.426 304.802)"/><path d="M5.30221 5.13683C5.91879 5.0048 6.39995 4.72987 6.74567 4.312 7.09275 3.8955 7.26629 3.381 7.26629 2.7685 7.26629 1.82933 6.94303 1.10182 6.2965 0.585958 5.64997 0.0714583 4.73122-0.185792 3.54025-0.185792 3.14145-0.185792 2.73038-0.14632 2.30708-0.067375 1.88378 0.0115695 1.44686 0.129986 0.996333 0.287875L0.996333 1.53125C1.35295 1.323 1.74358 1.16579 2.16825 1.05963 2.59428 0.953458 3.03937 0.900375 3.5035 0.900375 4.31063 0.900375 4.92587 1.05963 5.34917 1.37813 5.77247 1.69663 5.98413 2.16008 5.98413 2.7685 5.98413 3.33063 5.78745 3.76959 5.39408 4.08538 5.00072 4.40251 4.45355 4.56108 3.75258 4.56108L2.64192 4.56108 2.64192 5.62071 3.80363 5.62071C4.43654 5.62071 4.92109 5.74729 5.25729 6.00046 5.59349 6.25363 5.76158 6.61841 5.76158 7.09479 5.76158 7.58342 5.58804 7.95842 5.24096 8.21975 4.89524 8.48245 4.39912 8.61379 3.75258 8.61379 3.3987 8.61379 3.01963 8.575 2.61538 8.49742 2.21113 8.4212 1.76672 8.30278 1.28217 8.14217L1.28217 9.28958C1.77217 9.4257 2.23087 9.52779 2.65825 9.59583 3.08563 9.66388 3.48853 9.69792 3.86692 9.69792 4.84555 9.69792 5.61934 9.47538 6.18829 9.03029 6.75859 8.58658 7.04375 7.98633 7.04375 7.22954 7.04375 6.70142 6.89267 6.25567 6.5905 5.89225 6.28833 5.52883 5.85891 5.27703 5.30221 5.13683Z" fill="#0000FF" transform="matrix(1 0 0 -1 296.125 297.656)"/><path d="M1.49625-2.46167C2.27403-1.015 2.85736 0.397638 3.24625 1.77625 3.63513 3.1568 3.82958 4.51792 3.82958 5.85958 3.82958 7.2032 3.63513 8.56333 3.24625 9.94 2.85736 11.3167 2.27403 12.7245 1.49625 14.1633L4.20292 14.1633C5.12654 12.6758 5.81096 11.2496 6.25625 9.88458 6.70346 8.52154 6.92708 7.17404 6.92708 5.84208 6.92708 4.51208 6.70542 3.17042 6.26208 1.81708 5.81875 0.465695 5.13237-0.960555 4.20292-2.46167L1.49625-2.46167Z" fill="#0000FF" transform="matrix(1 0 0 -1 304.949 304.802)"/><path d="M7.93042 11.3108C6.86096 11.3108 6.03167 10.9161 5.4425 10.1267 4.85333 9.33721 4.55875 8.225 4.55875 6.79 4.55875 5.36279 4.85333 4.25346 5.4425 3.46208 6.03167 2.67264 6.86096 2.27792 7.93042 2.27792 9.0057 2.27792 9.83792 2.67264 10.4271 3.46208 11.0162 4.25346 11.3108 5.36279 11.3108 6.79 11.3108 8.225 11.0162 9.33721 10.4271 10.1267 9.83792 10.9161 9.0057 11.3108 7.93042 11.3108ZM7.93042 13.8542C10.1179 13.8542 11.831 13.228 13.0696 11.9758 14.3101 10.7255 14.9304 8.99695 14.9304 6.79 14.9304 4.59083 14.3101 2.86514 13.0696 1.61292 11.831 0.360695 10.1179-0.265417 7.93042-0.265417 5.74875-0.265417 4.03667 0.360695 2.79417 1.61292 1.55167 2.86514 0.930417 4.59083 0.930417 6.79 0.930417 8.99695 1.55167 10.7255 2.79417 11.9758 4.03667 13.228 5.74875 13.8542 7.93042 13.8542Z" fill="#008000" transform="matrix(1 0 0 -1 317.059 306.387)"/><path d="M7.03792-2.46167 4.32833-2.46167C3.39888-0.960555 2.7125 0.465695 2.26917 1.81708 1.82583 3.17042 1.60417 4.51208 1.60417 5.84208 1.60417 7.17404 1.8268 8.52154 2.27208 9.88458 2.7193 11.2496 3.40471 12.6758 4.32833 14.1633L7.03792 14.1633C6.26013 12.7245 5.6768 11.3167 5.28792 9.94 4.89904 8.56333 4.70458 7.2032 4.70458 5.85958 4.70458 4.51792 4.89708 3.1568 5.28208 1.77625 5.66708 0.397638 6.25237-1.015 7.03792-2.46167Z" fill="#008000" transform="matrix(1 0 0 -1 332.927 306.387)"/><path d="M10.4008 6.16292 9.205 0 7.51917 0 8.715 6.09875C8.76945 6.38458 8.81125 6.63638 8.84042 6.85417 8.87154 7.07388 8.88708 7.24695 8.88708 7.37333 8.88708 7.88471 8.7257 8.28237 8.40292 8.56625 8.08208 8.85208 7.63292 8.995 7.05542 8.995 6.15513 8.995 5.38029 8.69555 4.73083 8.09667 4.08138 7.49971 3.65555 6.68792 3.45333 5.66125L2.33333 0 0.65625 0 2.63375 10.2083 4.31083 10.2083 3.97542 8.60417C4.44208 9.19333 5.00305 9.64833 5.65833 9.96917 6.31555 10.292 7.00583 10.4533 7.72917 10.4533 8.62945 10.4533 9.32654 10.2103 9.82042 9.72417 10.3162 9.23805 10.5642 8.55458 10.5642 7.67375 10.5642 7.45596 10.5505 7.22263 10.5233 6.97375 10.4961 6.72487 10.4553 6.45458 10.4008 6.16292Z" fill="#008000" transform="matrix(1 0 0 -1 341.458 306.387)"/><path d="M2.50717 1.08413 7.00496 1.08413 7.00496 0 0.957542 0 0.957542 1.08413C1.44618 1.59046 2.11245 2.26966 2.95633 3.12171 3.80158 3.97513 4.33242 4.5257 4.54883 4.77342 4.96125 5.2362 5.24913 5.6282 5.41246 5.94942 5.57716 6.27063 5.6595 6.58642 5.6595 6.89675 5.6595 7.40308 5.48188 7.8155 5.12663 8.134 4.77138 8.45387 4.30859 8.61379 3.73829 8.61379 3.33404 8.61379 2.90733 8.5437 2.45817 8.4035 2.01036 8.2633 1.53125 8.05029 1.02083 7.76446L1.02083 9.06704C1.53942 9.27529 2.02397 9.4325 2.4745 9.53867 2.92638 9.64483 3.33949 9.69792 3.71379 9.69792 4.70059 9.69792 5.48733 9.45088 6.07396 8.95679 6.66059 8.46408 6.95392 7.80529 6.95392 6.98046 6.95392 6.58846 6.88042 6.21688 6.73342 5.86571 6.58778 5.51591 6.321 5.1028 5.93308 4.62642 5.82692 4.50255 5.48867 4.14595 4.91838 3.55658 4.34942 2.96722 3.5457 2.14308 2.50717 1.08413Z" fill="#008000" transform="matrix(1 0 0 -1 354.157 299.241)"/><path d="M1.49625-2.46167C2.27403-1.015 2.85736 0.397638 3.24625 1.77625 3.63513 3.1568 3.82958 4.51792 3.82958 5.85958 3.82958 7.2032 3.63513 8.56333 3.24625 9.94 2.85736 11.3167 2.27403 12.7245 1.49625 14.1633L4.20292 14.1633C5.12654 12.6758 5.81096 11.2496 6.25625 9.88458 6.70346 8.52154 6.92708 7.17404 6.92708 5.84208 6.92708 4.51208 6.70542 3.17042 6.26208 1.81708 5.81875 0.465695 5.13237-0.960555 4.20292-2.46167L1.49625-2.46167Z" fill="#008000" transform="matrix(1 0 0 -1 362.981 306.387)"/><path d="M7.93042 11.3108C6.86096 11.3108 6.03167 10.9161 5.4425 10.1267 4.85333 9.33721 4.55875 8.225 4.55875 6.79 4.55875 5.36279 4.85333 4.25346 5.4425 3.46208 6.03167 2.67264 6.86096 2.27792 7.93042 2.27792 9.0057 2.27792 9.83792 2.67264 10.4271 3.46208 11.0162 4.25346 11.3108 5.36279 11.3108 6.79 11.3108 8.225 11.0162 9.33721 10.4271 10.1267 9.83792 10.9161 9.0057 11.3108 7.93042 11.3108ZM7.93042 13.8542C10.1179 13.8542 11.831 13.228 13.0696 11.9758 14.3101 10.7255 14.9304 8.99695 14.9304 6.79 14.9304 4.59083 14.3101 2.86514 13.0696 1.61292 11.831 0.360695 10.1179-0.265417 7.93042-0.265417 5.74875-0.265417 4.03667 0.360695 2.79417 1.61292 1.55167 2.86514 0.930417 4.59083 0.930417 6.79 0.930417 8.99695 1.55167 10.7255 2.79417 11.9758 4.03667 13.228 5.74875 13.8542 7.93042 13.8542Z" fill="#FFA500" transform="matrix(1 0 0 -1 402.639 307.849)"/><path d="M7.03792-2.46167 4.32833-2.46167C3.39888-0.960555 2.7125 0.465695 2.26917 1.81708 1.82583 3.17042 1.60417 4.51208 1.60417 5.84208 1.60417 7.17404 1.8268 8.52154 2.27208 9.88458 2.7193 11.2496 3.40471 12.6758 4.32833 14.1633L7.03792 14.1633C6.26013 12.7245 5.6768 11.3167 5.28792 9.94 4.89904 8.56333 4.70458 7.2032 4.70458 5.85958 4.70458 4.51792 4.89708 3.1568 5.28208 1.77625 5.66708 0.397638 6.25237-1.015 7.03792-2.46167Z" fill="#FFA500" transform="matrix(1 0 0 -1 418.507 307.849)"/><path d="M10.4008 6.16292 9.205 0 7.51917 0 8.715 6.09875C8.76945 6.38458 8.81125 6.63638 8.84042 6.85417 8.87154 7.07388 8.88708 7.24695 8.88708 7.37333 8.88708 7.88471 8.7257 8.28237 8.40292 8.56625 8.08208 8.85208 7.63292 8.995 7.05542 8.995 6.15513 8.995 5.38029 8.69555 4.73083 8.09667 4.08138 7.49971 3.65555 6.68792 3.45333 5.66125L2.33333 0 0.65625 0 2.63375 10.2083 4.31083 10.2083 3.97542 8.60417C4.44208 9.19333 5.00305 9.64833 5.65833 9.96917 6.31555 10.292 7.00583 10.4533 7.72917 10.4533 8.62945 10.4533 9.32654 10.2103 9.82042 9.72417 10.3162 9.23805 10.5642 8.55458 10.5642 7.67375 10.5642 7.45596 10.5505 7.22263 10.5233 6.97375 10.4961 6.72487 10.4553 6.45458 10.4008 6.16292Z" fill="#FFA500" transform="matrix(1 0 0 -1 427.038 307.849)"/><path d="M3.41833 14.1838 5.09542 14.1838 2.33333 0 0.65625 0 3.41833 14.1838Z" fill="#FFA500" transform="matrix(1 0 0 -1 438.869 307.849)"/><path d="M4.73958-0.265417C3.5418-0.265417 2.59486 0.104028 1.89875 0.842917 1.20458 1.5818 0.8575 2.58903 0.8575 3.86458 0.8575 4.60542 0.977083 5.35987 1.21625 6.12792 1.45736 6.89792 1.76945 7.54445 2.1525 8.0675 2.75333 8.88029 3.42417 9.48112 4.165 9.87 4.90583 10.2589 5.74487 10.4533 6.68208 10.4533 7.84292 10.4533 8.78013 10.0917 9.49375 9.36833 10.2074 8.64695 10.5642 7.70292 10.5642 6.53625 10.5642 5.72737 10.4455 4.92138 10.2083 4.11833 9.97112 3.31721 9.66096 2.65222 9.27792 2.12333 8.68292 1.30861 8.015 0.706805 7.27417 0.317917 6.53333-0.0709721 5.68846-0.265417 4.73958-0.265417ZM2.59875 3.92C2.59875 2.99638 2.79125 2.30514 3.17625 1.84625 3.5632 1.38736 4.14846 1.15792 4.93208 1.15792 6.05596 1.15792 6.98638 1.64792 7.72333 2.62792 8.46221 3.60987 8.83167 4.8543 8.83167 6.36125 8.83167 7.24208 8.6343 7.90708 8.23958 8.35625 7.84487 8.80737 7.26445 9.03292 6.49833 9.03292 5.86638 9.03292 5.30445 8.88513 4.8125 8.58958 4.32055 8.29596 3.88013 7.84779 3.49125 7.245 3.20542 6.79583 2.98471 6.2825 2.82917 5.705 2.67555 5.1275 2.59875 4.5325 2.59875 3.92Z" fill="#FFA500" transform="matrix(1 0 0 -1 444.055 307.849)"/><path d="M11.13 10.2083 9.38875 1.26583C9.0543-0.464721 8.41458-1.75486 7.46958-2.60458 6.52458-3.45625 5.25292-3.88208 3.65458-3.88208 3.06542-3.88208 2.51805-3.83833 2.0125-3.75083 1.50889-3.66333 1.03833-3.5282 0.600833-3.34542L0.912917-1.715C1.32514-1.98139 1.76167-2.17778 2.2225-2.30417 2.68528-2.4325 3.1782-2.49667 3.70125-2.49667 4.76487-2.49667 5.63792-2.20597 6.32042-1.62458 7.00487-1.04514 7.45596-0.211945 7.67375 0.875L7.81958 1.64208C7.35292 1.10736 6.80945 0.7 6.18917 0.42 5.56888 0.14 4.9 0 4.1825 0 3.15 0 2.33722 0.34125 1.74417 1.02375 1.15305 1.7082 0.8575 2.6493 0.8575 3.84708 0.8575 4.7882 1.03639 5.70987 1.39417 6.61208 1.75389 7.5143 2.25847 8.31542 2.90792 9.01542 3.33958 9.47625 3.84221 9.83112 4.41583 10.08 4.98945 10.3289 5.5893 10.4533 6.21542 10.4533 6.9018 10.4533 7.49971 10.2939 8.00917 9.975 8.52055 9.65612 8.90167 9.205 9.1525 8.62167L9.44417 10.2083 11.13 10.2083ZM8.60417 6.46333C8.60417 7.28971 8.40971 7.9275 8.02083 8.37667 7.63195 8.82583 7.07875 9.05042 6.36125 9.05042 5.91792 9.05042 5.49596 8.96195 5.09542 8.785 4.69487 8.61 4.35167 8.36404 4.06583 8.04708 3.60305 7.52596 3.24237 6.91154 2.98375 6.20375 2.72708 5.49596 2.59875 4.76487 2.59875 4.01042 2.59875 3.17237 2.79417 2.52778 3.185 2.07667 3.57779 1.6275 4.14167 1.40292 4.87667 1.40292 5.94029 1.40292 6.82695 1.88417 7.53667 2.84667 8.24833 3.81112 8.60417 5.01667 8.60417 6.46333Z" fill="#FFA500" transform="matrix(1 0 0 -1 455.476 307.849)"/><path d="M10.4008 6.16292 9.205 0 7.51917 0 8.715 6.09875C8.76945 6.38458 8.81125 6.63638 8.84042 6.85417 8.87154 7.07388 8.88708 7.24695 8.88708 7.37333 8.88708 7.88471 8.7257 8.28237 8.40292 8.56625 8.08208 8.85208 7.63292 8.995 7.05542 8.995 6.15513 8.995 5.38029 8.69555 4.73083 8.09667 4.08138 7.49971 3.65555 6.68792 3.45333 5.66125L2.33333 0 0.65625 0 2.63375 10.2083 4.31083 10.2083 3.97542 8.60417C4.44208 9.19333 5.00305 9.64833 5.65833 9.96917 6.31555 10.292 7.00583 10.4533 7.72917 10.4533 8.62945 10.4533 9.32654 10.2103 9.82042 9.72417 10.3162 9.23805 10.5642 8.55458 10.5642 7.67375 10.5642 7.45596 10.5505 7.22263 10.5233 6.97375 10.4961 6.72487 10.4553 6.45458 10.4008 6.16292Z" fill="#FFA500" transform="matrix(1 0 0 -1 467.325 307.849)"/><path d="M1.49625-2.46167C2.27403-1.015 2.85736 0.397638 3.24625 1.77625 3.63513 3.1568 3.82958 4.51792 3.82958 5.85958 3.82958 7.2032 3.63513 8.56333 3.24625 9.94 2.85736 11.3167 2.27403 12.7245 1.49625 14.1633L4.20292 14.1633C5.12654 12.6758 5.81096 11.2496 6.25625 9.88458 6.70346 8.52154 6.92708 7.17404 6.92708 5.84208 6.92708 4.51208 6.70542 3.17042 6.26208 1.81708 5.81875 0.465695 5.13237-0.960555 4.20292-2.46167L1.49625-2.46167Z" fill="#FFA500" transform="matrix(1 0 0 -1 479.156 307.849)"/><path d="M7.93042 11.3108C6.86096 11.3108 6.03167 10.9161 5.4425 10.1267 4.85333 9.33721 4.55875 8.225 4.55875 6.79 4.55875 5.36279 4.85333 4.25346 5.4425 3.46208 6.03167 2.67264 6.86096 2.27792 7.93042 2.27792 9.0057 2.27792 9.83792 2.67264 10.4271 3.46208 11.0162 4.25346 11.3108 5.36279 11.3108 6.79 11.3108 8.225 11.0162 9.33721 10.4271 10.1267 9.83792 10.9161 9.0057 11.3108 7.93042 11.3108ZM7.93042 13.8542C10.1179 13.8542 11.831 13.228 13.0696 11.9758 14.3101 10.7255 14.9304 8.99695 14.9304 6.79 14.9304 4.59083 14.3101 2.86514 13.0696 1.61292 11.831 0.360695 10.1179-0.265417 7.93042-0.265417 5.74875-0.265417 4.03667 0.360695 2.79417 1.61292 1.55167 2.86514 0.930417 4.59083 0.930417 6.79 0.930417 8.99695 1.55167 10.7255 2.79417 11.9758 4.03667 13.228 5.74875 13.8542 7.93042 13.8542Z" fill="#FF0000" transform="matrix(1 0 0 -1 531.72 353.343)"/><path d="M7.03792-2.46167 4.32833-2.46167C3.39888-0.960555 2.7125 0.465695 2.26917 1.81708 1.82583 3.17042 1.60417 4.51208 1.60417 5.84208 1.60417 7.17404 1.8268 8.52154 2.27208 9.88458 2.7193 11.2496 3.40471 12.6758 4.32833 14.1633L7.03792 14.1633C6.26013 12.7245 5.6768 11.3167 5.28792 9.94 4.89904 8.56333 4.70458 7.2032 4.70458 5.85958 4.70458 4.51792 4.89708 3.1568 5.28208 1.77625 5.66708 0.397638 6.25237-1.015 7.03792-2.46167Z" fill="#FF0000" transform="matrix(1 0 0 -1 547.589 353.343)"/><path d="M10.4008 6.16292 9.205 0 7.51917 0 8.715 6.09875C8.76945 6.38458 8.81125 6.63638 8.84042 6.85417 8.87154 7.07388 8.88708 7.24695 8.88708 7.37333 8.88708 7.88471 8.7257 8.28237 8.40292 8.56625 8.08208 8.85208 7.63292 8.995 7.05542 8.995 6.15513 8.995 5.38029 8.69555 4.73083 8.09667 4.08138 7.49971 3.65555 6.68792 3.45333 5.66125L2.33333 0 0.65625 0 2.63375 10.2083 4.31083 10.2083 3.97542 8.60417C4.44208 9.19333 5.00305 9.64833 5.65833 9.96917 6.31555 10.292 7.00583 10.4533 7.72917 10.4533 8.62945 10.4533 9.32654 10.2103 9.82042 9.72417 10.3162 9.23805 10.5642 8.55458 10.5642 7.67375 10.5642 7.45596 10.5505 7.22263 10.5233 6.97375 10.4961 6.72487 10.4553 6.45458 10.4008 6.16292Z" fill="#FF0000" transform="matrix(1 0 0 -1 556.12 353.343)"/><path d="M1.49625-2.46167C2.27403-1.015 2.85736 0.397638 3.24625 1.77625 3.63513 3.1568 3.82958 4.51792 3.82958 5.85958 3.82958 7.2032 3.63513 8.56333 3.24625 9.94 2.85736 11.3167 2.27403 12.7245 1.49625 14.1633L4.20292 14.1633C5.12654 12.6758 5.81096 11.2496 6.25625 9.88458 6.70346 8.52154 6.92708 7.17404 6.92708 5.84208 6.92708 4.51208 6.70542 3.17042 6.26208 1.81708 5.81875 0.465695 5.13237-0.960555 4.20292-2.46167L1.49625-2.46167Z" fill="#FF0000" transform="matrix(1 0 0 -1 567.951 353.343)"/><path d="M7.93042 11.3108C6.86096 11.3108 6.03167 10.9161 5.4425 10.1267 4.85333 9.33721 4.55875 8.225 4.55875 6.79 4.55875 5.36279 4.85333 4.25346 5.4425 3.46208 6.03167 2.67264 6.86096 2.27792 7.93042 2.27792 9.0057 2.27792 9.83792 2.67264 10.4271 3.46208 11.0162 4.25346 11.3108 5.36279 11.3108 6.79 11.3108 8.225 11.0162 9.33721 10.4271 10.1267 9.83792 10.9161 9.0057 11.3108 7.93042 11.3108ZM7.93042 13.8542C10.1179 13.8542 11.831 13.228 13.0696 11.9758 14.3101 10.7255 14.9304 8.99695 14.9304 6.79 14.9304 4.59083 14.3101 2.86514 13.0696 1.61292 11.831 0.360695 10.1179-0.265417 7.93042-0.265417 5.74875-0.265417 4.03667 0.360695 2.79417 1.61292 1.55167 2.86514 0.930417 4.59083 0.930417 6.79 0.930417 8.99695 1.55167 10.7255 2.79417 11.9758 4.03667 13.228 5.74875 13.8542 7.93042 13.8542Z" fill="#A52A2A" transform="matrix(1 0 0 -1 557.693 496.162)"/><path d="M7.03792-2.46167 4.32833-2.46167C3.39888-0.960555 2.7125 0.465695 2.26917 1.81708 1.82583 3.17042 1.60417 4.51208 1.60417 5.84208 1.60417 7.17404 1.8268 8.52154 2.27208 9.88458 2.7193 11.2496 3.40471 12.6758 4.32833 14.1633L7.03792 14.1633C6.26013 12.7245 5.6768 11.3167 5.28792 9.94 4.89904 8.56333 4.70458 7.2032 4.70458 5.85958 4.70458 4.51792 4.89708 3.1568 5.28208 1.77625 5.66708 0.397638 6.25237-1.015 7.03792-2.46167Z" fill="#A52A2A" transform="matrix(1 0 0 -1 573.562 496.162)"/><path d="M3.41833 14.1838 5.09542 14.1838 2.33333 0 0.65625 0 3.41833 14.1838Z" fill="#A52A2A" transform="matrix(1 0 0 -1 582.093 496.162)"/><path d="M4.73958-0.265417C3.5418-0.265417 2.59486 0.104028 1.89875 0.842917 1.20458 1.5818 0.8575 2.58903 0.8575 3.86458 0.8575 4.60542 0.977083 5.35987 1.21625 6.12792 1.45736 6.89792 1.76945 7.54445 2.1525 8.0675 2.75333 8.88029 3.42417 9.48112 4.165 9.87 4.90583 10.2589 5.74487 10.4533 6.68208 10.4533 7.84292 10.4533 8.78013 10.0917 9.49375 9.36833 10.2074 8.64695 10.5642 7.70292 10.5642 6.53625 10.5642 5.72737 10.4455 4.92138 10.2083 4.11833 9.97112 3.31721 9.66096 2.65222 9.27792 2.12333 8.68292 1.30861 8.015 0.706805 7.27417 0.317917 6.53333-0.0709721 5.68846-0.265417 4.73958-0.265417ZM2.59875 3.92C2.59875 2.99638 2.79125 2.30514 3.17625 1.84625 3.5632 1.38736 4.14846 1.15792 4.93208 1.15792 6.05596 1.15792 6.98638 1.64792 7.72333 2.62792 8.46221 3.60987 8.83167 4.8543 8.83167 6.36125 8.83167 7.24208 8.6343 7.90708 8.23958 8.35625 7.84487 8.80737 7.26445 9.03292 6.49833 9.03292 5.86638 9.03292 5.30445 8.88513 4.8125 8.58958 4.32055 8.29596 3.88013 7.84779 3.49125 7.245 3.20542 6.79583 2.98471 6.2825 2.82917 5.705 2.67555 5.1275 2.59875 4.5325 2.59875 3.92Z" fill="#A52A2A" transform="matrix(1 0 0 -1 587.279 496.162)"/><path d="M11.13 10.2083 9.38875 1.26583C9.0543-0.464721 8.41458-1.75486 7.46958-2.60458 6.52458-3.45625 5.25292-3.88208 3.65458-3.88208 3.06542-3.88208 2.51805-3.83833 2.0125-3.75083 1.50889-3.66333 1.03833-3.5282 0.600833-3.34542L0.912917-1.715C1.32514-1.98139 1.76167-2.17778 2.2225-2.30417 2.68528-2.4325 3.1782-2.49667 3.70125-2.49667 4.76487-2.49667 5.63792-2.20597 6.32042-1.62458 7.00487-1.04514 7.45596-0.211945 7.67375 0.875L7.81958 1.64208C7.35292 1.10736 6.80945 0.7 6.18917 0.42 5.56888 0.14 4.9 0 4.1825 0 3.15 0 2.33722 0.34125 1.74417 1.02375 1.15305 1.7082 0.8575 2.6493 0.8575 3.84708 0.8575 4.7882 1.03639 5.70987 1.39417 6.61208 1.75389 7.5143 2.25847 8.31542 2.90792 9.01542 3.33958 9.47625 3.84221 9.83112 4.41583 10.08 4.98945 10.3289 5.5893 10.4533 6.21542 10.4533 6.9018 10.4533 7.49971 10.2939 8.00917 9.975 8.52055 9.65612 8.90167 9.205 9.1525 8.62167L9.44417 10.2083 11.13 10.2083ZM8.60417 6.46333C8.60417 7.28971 8.40971 7.9275 8.02083 8.37667 7.63195 8.82583 7.07875 9.05042 6.36125 9.05042 5.91792 9.05042 5.49596 8.96195 5.09542 8.785 4.69487 8.61 4.35167 8.36404 4.06583 8.04708 3.60305 7.52596 3.24237 6.91154 2.98375 6.20375 2.72708 5.49596 2.59875 4.76487 2.59875 4.01042 2.59875 3.17237 2.79417 2.52778 3.185 2.07667 3.57779 1.6275 4.14167 1.40292 4.87667 1.40292 5.94029 1.40292 6.82695 1.88417 7.53667 2.84667 8.24833 3.81112 8.60417 5.01667 8.60417 6.46333Z" fill="#A52A2A" transform="matrix(1 0 0 -1 598.7 496.162)"/><path d="M2.50717 1.08413 7.00496 1.08413 7.00496 0 0.957542 0 0.957542 1.08413C1.44618 1.59046 2.11245 2.26966 2.95633 3.12171 3.80158 3.97513 4.33242 4.5257 4.54883 4.77342 4.96125 5.2362 5.24913 5.6282 5.41246 5.94942 5.57716 6.27063 5.6595 6.58642 5.6595 6.89675 5.6595 7.40308 5.48188 7.8155 5.12663 8.134 4.77138 8.45387 4.30859 8.61379 3.73829 8.61379 3.33404 8.61379 2.90733 8.5437 2.45817 8.4035 2.01036 8.2633 1.53125 8.05029 1.02083 7.76446L1.02083 9.06704C1.53942 9.27529 2.02397 9.4325 2.4745 9.53867 2.92638 9.64483 3.33949 9.69792 3.71379 9.69792 4.70059 9.69792 5.48733 9.45088 6.07396 8.95679 6.66059 8.46408 6.95392 7.80529 6.95392 6.98046 6.95392 6.58846 6.88042 6.21688 6.73342 5.86571 6.58778 5.51591 6.321 5.1028 5.93308 4.62642 5.82692 4.50255 5.48867 4.14595 4.91838 3.55658 4.34942 2.96722 3.5457 2.14308 2.50717 1.08413Z" fill="#A52A2A" transform="matrix(1 0 0 -1 610.549 499.225)"/><path d="M10.4008 6.16292 9.205 0 7.51917 0 8.715 6.09875C8.76945 6.38458 8.81125 6.63638 8.84042 6.85417 8.87154 7.07388 8.88708 7.24695 8.88708 7.37333 8.88708 7.88471 8.7257 8.28237 8.40292 8.56625 8.08208 8.85208 7.63292 8.995 7.05542 8.995 6.15513 8.995 5.38029 8.69555 4.73083 8.09667 4.08138 7.49971 3.65555 6.68792 3.45333 5.66125L2.33333 0 0.65625 0 2.63375 10.2083 4.31083 10.2083 3.97542 8.60417C4.44208 9.19333 5.00305 9.64833 5.65833 9.96917 6.31555 10.292 7.00583 10.4533 7.72917 10.4533 8.62945 10.4533 9.32654 10.2103 9.82042 9.72417 10.3162 9.23805 10.5642 8.55458 10.5642 7.67375 10.5642 7.45596 10.5505 7.22263 10.5233 6.97375 10.4961 6.72487 10.4553 6.45458 10.4008 6.16292Z" fill="#A52A2A" transform="matrix(1 0 0 -1 619.373 496.162)"/><path d="M1.49625-2.46167C2.27403-1.015 2.85736 0.397638 3.24625 1.77625 3.63513 3.1568 3.82958 4.51792 3.82958 5.85958 3.82958 7.2032 3.63513 8.56333 3.24625 9.94 2.85736 11.3167 2.27403 12.7245 1.49625 14.1633L4.20292 14.1633C5.12654 12.6758 5.81096 11.2496 6.25625 9.88458 6.70346 8.52154 6.92708 7.17404 6.92708 5.84208 6.92708 4.51208 6.70542 3.17042 6.26208 1.81708 5.81875 0.465695 5.13237-0.960555 4.20292-2.46167L1.49625-2.46167Z" fill="#A52A2A" transform="matrix(1 0 0 -1 631.203 496.162)"/></g></svg>