<svg width="1695" height="1325" xmlns="http://www.w3.org/2000/svg" xmlns:xlink="http://www.w3.org/1999/xlink" xml:space="preserve" overflow="hidden"><g transform="translate(-1925 -899)"><path d="M2659.96 980.22C2661.66 980.22 2663 980.781 2663.99 981.902 2664.98 983.023 2665.47 984.489 2665.47 986.299 2665.47 987.731 2665.14 989.325 2664.5 991.081L2664.98 991.243C2667.63 987.515 2670.15 984.752 2672.54 982.956 2674.93 981.159 2677.4 980.26 2679.94 980.26 2682.45 980.26 2684.38 980.983 2685.73 982.429 2687.08 983.874 2687.76 985.88 2687.76 988.447 2687.76 990.149 2687.37 992.567 2686.58 995.701L2683.95 1006.32C2683.22 1009.26 2682.85 1011.34 2682.85 1012.56 2682.85 1013.64 2683.03 1014.42 2683.38 1014.91 2683.73 1015.4 2684.29 1015.64 2685.04 1015.64 2685.85 1015.64 2686.72 1015.31 2687.64 1014.65 2688.56 1013.99 2689.85 1012.72 2691.53 1010.86L2693.84 1013.13C2691.51 1015.61 2689.49 1017.43 2687.76 1018.58 2686.03 1019.73 2684.06 1020.3 2681.84 1020.3 2680.09 1020.3 2678.68 1019.67 2677.63 1018.42 2676.57 1017.16 2676.05 1015.56 2676.05 1013.61 2676.05 1011.86 2676.49 1009.28 2677.38 1005.87L2679.17 998.862C2679.82 996.323 2680.24 994.445 2680.44 993.229 2680.65 992.013 2680.75 991.027 2680.75 990.271 2680.75 988.406 2680.44 987.062 2679.82 986.238 2679.19 985.414 2678.18 985.002 2676.78 985.002 2675.64 985.002 2674.42 985.455 2673.11 986.36 2671.8 987.265 2670.41 988.629 2668.93 990.453 2667.46 992.277 2666.28 994.047 2665.39 995.762 2664.5 997.478 2663.77 999.592 2663.2 1002.1L2659.35 1019.65 2652.34 1019.65 2658.25 993.959C2658.85 991.365 2659.15 989.366 2659.15 987.961 2659.15 986.88 2658.97 986.096 2658.62 985.61 2658.27 985.124 2657.71 984.881 2656.96 984.881 2656.12 984.881 2655.24 985.225 2654.3 985.914 2653.37 986.603 2652.09 987.853 2650.47 989.663L2648.16 987.393C2650.65 984.799 2652.72 982.956 2654.36 981.861 2656.01 980.767 2657.88 980.22 2659.96 980.22Z" fill-rule="evenodd"/><text fill="#000000" fill-opacity="0" font-family="Arial,Arial_MSFontService,sans-serif" font-size="40.0815" x="2648.16" y="1015.29">𝑛</text><path d="M2455.9 1127.25C2457.6 1127.25 2458.95 1127.81 2459.93 1128.93 2460.92 1130.05 2461.41 1131.52 2461.41 1133.33 2461.41 1134.76 2461.09 1136.35 2460.44 1138.11L2460.93 1138.27C2463.58 1134.54 2466.09 1131.78 2468.49 1129.98 2470.88 1128.19 2473.34 1127.29 2475.88 1127.29 2478.39 1127.29 2480.33 1128.01 2481.68 1129.46 2483.03 1130.9 2483.7 1132.91 2483.7 1135.48 2483.7 1137.18 2483.31 1139.6 2482.53 1142.73L2479.89 1153.35C2479.16 1156.29 2478.8 1158.37 2478.8 1159.59 2478.8 1160.67 2478.98 1161.45 2479.33 1161.94 2479.68 1162.43 2480.23 1162.67 2480.99 1162.67 2481.8 1162.67 2482.66 1162.34 2483.58 1161.68 2484.5 1161.02 2485.8 1159.75 2487.47 1157.89L2489.78 1160.16C2487.46 1162.64 2485.43 1164.46 2483.7 1165.61 2481.97 1166.76 2480 1167.33 2477.79 1167.33 2476.03 1167.33 2474.63 1166.7 2473.57 1165.45 2472.52 1164.19 2471.99 1162.59 2471.99 1160.64 2471.99 1158.89 2472.44 1156.31 2473.33 1152.9L2475.11 1145.89C2475.76 1143.35 2476.19 1141.47 2476.39 1140.26 2476.59 1139.04 2476.69 1138.06 2476.69 1137.3 2476.69 1135.44 2476.38 1134.09 2475.76 1133.27 2475.14 1132.44 2474.13 1132.03 2472.72 1132.03 2471.59 1132.03 2470.36 1132.48 2469.05 1133.39 2467.74 1134.29 2466.35 1135.66 2464.88 1137.48 2463.41 1139.31 2462.22 1141.08 2461.33 1142.79 2460.44 1144.51 2459.71 1146.62 2459.14 1149.13L2455.29 1166.68 2448.28 1166.68 2454.2 1140.99C2454.79 1138.39 2455.09 1136.39 2455.09 1134.99 2455.09 1133.91 2454.92 1133.13 2454.56 1132.64 2454.21 1132.15 2453.66 1131.91 2452.9 1131.91 2452.07 1131.91 2451.18 1132.25 2450.25 1132.94 2449.32 1133.63 2448.04 1134.88 2446.42 1136.69L2444.11 1134.42C2446.59 1131.83 2448.66 1129.98 2450.31 1128.89 2451.96 1127.8 2453.82 1127.25 2455.9 1127.25Z" fill-rule="evenodd"/><text fill="#000000" fill-opacity="0" font-family="Arial,Arial_MSFontService,sans-serif" font-size="40.0815" x="2444.11" y="1162.32">𝑛</text><path d="M2468 1228.35C2473.02 1228.35 2476.82 1229.45 2479.39 1231.65 2481.95 1233.85 2483.24 1237.05 2483.24 1241.23 2483.24 1242.67 2483.09 1243.98 2482.81 1245.18 2482.53 1246.39 2482.08 1247.58 2481.47 1248.75 2480.86 1249.93 2480.05 1251.19 2479.02 1252.54 2477.99 1253.89 2476.86 1255.26 2475.62 1256.65 2474.37 1258.05 2472.23 1260.36 2469.17 1263.6 2464.04 1269.03 2460.27 1273.78 2457.87 1277.83L2473.14 1277.83C2474.47 1277.83 2475.54 1277.75 2476.35 1277.59 2477.16 1277.42 2477.81 1277.15 2478.29 1276.78 2478.78 1276.4 2479.16 1275.9 2479.45 1275.3 2479.73 1274.69 2480.09 1273.75 2480.52 1272.48L2483.97 1272.48 2483.28 1284.31 2449.92 1284.31 2449.92 1282.37C2451.08 1279.53 2452.65 1276.63 2454.62 1273.65 2456.6 1270.68 2459.39 1267.18 2463.01 1263.16 2466.15 1259.7 2468.4 1257.08 2469.78 1255.3 2471.29 1253.35 2472.42 1251.67 2473.16 1250.25 2473.91 1248.83 2474.44 1247.49 2474.77 1246.24 2475.09 1244.98 2475.25 1243.72 2475.25 1242.45 2475.25 1240.42 2474.93 1238.63 2474.28 1237.08 2473.63 1235.53 2472.64 1234.3 2471.3 1233.41 2469.96 1232.52 2468.28 1232.07 2466.25 1232.07 2461.2 1232.07 2457.8 1234.88 2456.04 1240.5L2451.14 1240.5 2451.14 1232.72C2454.41 1231.18 2457.47 1230.07 2460.32 1229.38 2463.17 1228.69 2465.73 1228.35 2468 1228.35Z" fill-rule="evenodd"/><text fill="#000000" fill-opacity="0" font-family="Arial,Arial_MSFontService,sans-serif" font-size="55.9683" x="2449.92" y="1277.32">2</text><path d="M2443.54 1203.12 2459.87 1203.12 2476.21 1203.12 2492.54 1203.12 2492.54 1208.12 2476.21 1208.12 2459.87 1208.12 2443.54 1208.12Z" fill-rule="evenodd"/><path d="M2879.19 1127.25C2880.89 1127.25 2882.24 1127.81 2883.22 1128.93 2884.21 1130.05 2884.7 1131.52 2884.7 1133.33 2884.7 1134.76 2884.38 1136.35 2883.73 1138.11L2884.22 1138.27C2886.86 1134.54 2889.38 1131.78 2891.78 1129.98 2894.17 1128.19 2896.63 1127.29 2899.17 1127.29 2901.68 1127.29 2903.62 1128.01 2904.97 1129.46 2906.32 1130.9 2906.99 1132.91 2906.99 1135.48 2906.99 1137.18 2906.6 1139.6 2905.82 1142.73L2903.18 1153.35C2902.45 1156.29 2902.09 1158.37 2902.09 1159.59 2902.09 1160.67 2902.27 1161.45 2902.62 1161.94 2902.97 1162.43 2903.52 1162.67 2904.28 1162.67 2905.09 1162.67 2905.95 1162.34 2906.87 1161.68 2907.79 1161.02 2909.09 1159.75 2910.76 1157.89L2913.07 1160.16C2910.75 1162.64 2908.72 1164.46 2906.99 1165.61 2905.26 1166.76 2903.29 1167.33 2901.08 1167.33 2899.32 1167.33 2897.92 1166.7 2896.86 1165.45 2895.81 1164.19 2895.28 1162.59 2895.28 1160.64 2895.28 1158.89 2895.73 1156.31 2896.62 1152.9L2898.4 1145.89C2899.05 1143.35 2899.48 1141.47 2899.68 1140.26 2899.88 1139.04 2899.98 1138.06 2899.98 1137.3 2899.98 1135.44 2899.67 1134.09 2899.05 1133.27 2898.43 1132.44 2897.42 1132.03 2896.01 1132.03 2894.88 1132.03 2893.65 1132.48 2892.34 1133.39 2891.03 1134.29 2889.64 1135.66 2888.17 1137.48 2886.7 1139.31 2885.51 1141.08 2884.62 1142.79 2883.73 1144.51 2883 1146.62 2882.43 1149.13L2878.58 1166.68 2871.57 1166.68 2877.49 1140.99C2878.08 1138.39 2878.38 1136.39 2878.38 1134.99 2878.38 1133.91 2878.21 1133.13 2877.85 1132.64 2877.5 1132.15 2876.95 1131.91 2876.19 1131.91 2875.36 1131.91 2874.47 1132.25 2873.54 1132.94 2872.61 1133.63 2871.33 1134.88 2869.71 1136.69L2867.4 1134.42C2869.88 1131.83 2871.95 1129.98 2873.6 1128.89 2875.25 1127.8 2877.11 1127.25 2879.19 1127.25Z" fill-rule="evenodd"/><text fill="#000000" fill-opacity="0" font-family="Arial,Arial_MSFontService,sans-serif" font-size="40.0815" x="2867.4" y="1162.32">𝑛</text><path d="M2891.29 1228.35C2896.31 1228.35 2900.11 1229.45 2902.68 1231.65 2905.24 1233.85 2906.53 1237.05 2906.53 1241.23 2906.53 1242.67 2906.38 1243.98 2906.1 1245.18 2905.82 1246.39 2905.37 1247.58 2904.76 1248.75 2904.15 1249.93 2903.34 1251.19 2902.31 1252.54 2901.28 1253.89 2900.15 1255.26 2898.91 1256.65 2897.66 1258.05 2895.52 1260.36 2892.46 1263.6 2887.33 1269.03 2883.56 1273.78 2881.16 1277.83L2896.43 1277.83C2897.76 1277.83 2898.83 1277.75 2899.64 1277.59 2900.45 1277.42 2901.09 1277.15 2901.58 1276.78 2902.07 1276.4 2902.45 1275.9 2902.74 1275.3 2903.02 1274.69 2903.38 1273.75 2903.81 1272.48L2907.26 1272.48 2906.57 1284.31 2873.21 1284.31 2873.21 1282.37C2874.37 1279.53 2875.94 1276.63 2877.91 1273.65 2879.89 1270.68 2882.68 1267.18 2886.3 1263.16 2889.44 1259.7 2891.69 1257.08 2893.07 1255.3 2894.58 1253.35 2895.71 1251.67 2896.45 1250.25 2897.2 1248.83 2897.73 1247.49 2898.06 1246.24 2898.38 1244.98 2898.54 1243.72 2898.54 1242.45 2898.54 1240.42 2898.22 1238.63 2897.57 1237.08 2896.92 1235.53 2895.93 1234.3 2894.59 1233.41 2893.25 1232.52 2891.57 1232.07 2889.54 1232.07 2884.49 1232.07 2881.09 1234.88 2879.33 1240.5L2874.43 1240.5 2874.43 1232.72C2877.7 1231.18 2880.76 1230.07 2883.61 1229.38 2886.46 1228.69 2889.02 1228.35 2891.29 1228.35Z" fill-rule="evenodd"/><text fill="#000000" fill-opacity="0" font-family="Arial,Arial_MSFontService,sans-serif" font-size="55.9683" x="2873.21" y="1277.32">2</text><path d="M2866.83 1203.12 2883.16 1203.12 2899.5 1203.12 2915.83 1203.12 2915.83 1208.12 2899.5 1208.12 2883.16 1208.12 2866.83 1208.12Z" fill-rule="evenodd"/><path d="M0 0 204.055 39.1778" stroke="#000000" stroke-width="4.58333" stroke-miterlimit="8" fill="none" fill-rule="evenodd" transform="matrix(-1 0 0 1 2672.55 1059.5)"/><path d="M2672.5 1059.5 2891.74 1098.68" stroke="#000000" stroke-width="4.58333" stroke-miterlimit="8" fill="none" fill-rule="evenodd"/><path d="M0 0 90.8846 53.8289" stroke="#000000" stroke-width="4.58333" stroke-miterlimit="8" fill="none" fill-rule="evenodd" transform="matrix(-1 0 0 1 2467.38 1306.5)"/><path d="M2364.29 1388.79C2365.99 1388.79 2367.33 1389.35 2368.32 1390.47 2369.31 1391.59 2369.8 1393.06 2369.8 1394.87 2369.8 1396.3 2369.48 1397.89 2368.83 1399.65L2369.31 1399.81C2371.96 1396.08 2374.48 1393.32 2376.87 1391.52 2379.26 1389.73 2381.73 1388.83 2384.27 1388.83 2386.78 1388.83 2388.71 1389.55 2390.06 1391 2391.41 1392.44 2392.09 1394.45 2392.09 1397.02 2392.09 1398.72 2391.7 1401.14 2390.91 1404.27L2388.28 1414.89C2387.55 1417.83 2387.19 1419.91 2387.19 1421.13 2387.19 1422.21 2387.36 1422.99 2387.71 1423.48 2388.06 1423.97 2388.62 1424.21 2389.37 1424.21 2390.18 1424.21 2391.05 1423.88 2391.97 1423.22 2392.89 1422.55 2394.18 1421.29 2395.86 1419.43L2398.17 1421.7C2395.85 1424.18 2393.82 1426 2392.09 1427.15 2390.36 1428.3 2388.39 1428.87 2386.17 1428.87 2384.42 1428.87 2383.01 1428.24 2381.96 1426.99 2380.9 1425.73 2380.38 1424.13 2380.38 1422.18 2380.38 1420.43 2380.82 1417.85 2381.71 1414.44L2383.5 1407.43C2384.15 1404.89 2384.57 1403.01 2384.77 1401.8 2384.98 1400.58 2385.08 1399.6 2385.08 1398.84 2385.08 1396.98 2384.77 1395.63 2384.15 1394.81 2383.52 1393.98 2382.51 1393.57 2381.11 1393.57 2379.97 1393.57 2378.75 1394.02 2377.44 1394.93 2376.13 1395.83 2374.74 1397.2 2373.26 1399.02 2371.79 1400.85 2370.61 1402.62 2369.72 1404.33 2368.83 1406.05 2368.1 1408.16 2367.53 1410.67L2363.68 1428.22 2356.67 1428.22 2362.59 1402.53C2363.18 1399.93 2363.48 1397.93 2363.48 1396.53 2363.48 1395.45 2363.3 1394.67 2362.95 1394.18 2362.6 1393.69 2362.05 1393.45 2361.29 1393.45 2360.45 1393.45 2359.57 1393.79 2358.63 1394.48 2357.7 1395.17 2356.43 1396.42 2354.8 1398.23L2352.49 1395.96C2354.98 1393.37 2357.05 1391.52 2358.7 1390.43 2360.34 1389.34 2362.21 1388.79 2364.29 1388.79Z" fill-rule="evenodd"/><text fill="#000000" fill-opacity="0" font-family="Arial,Arial_MSFontService,sans-serif" font-size="40.0815" x="2352.49" y="1423.86">𝑛</text><path d="M2378.73 1499.41 2362.89 1524.58 2362.89 1525.14 2378.73 1525.14 2378.73 1515.05C2378.73 1512.51 2378.77 1509.67 2378.86 1506.52 2378.94 1503.37 2379.03 1501 2379.14 1499.41ZM2379.91 1490.25 2385.7 1490.25 2385.7 1525.14 2386.56 1525.14C2388.12 1525.14 2389.24 1525.03 2389.92 1524.8 2390.59 1524.57 2391.16 1524.16 2391.6 1523.58 2392.05 1523 2392.46 1522.05 2392.84 1520.73L2395.92 1520.73 2395.43 1529.07 2385.7 1529.07 2385.7 1535.72C2385.7 1537.53 2385.77 1538.86 2385.89 1539.69 2386.01 1540.53 2386.21 1541.19 2386.49 1541.68 2386.78 1542.17 2387.2 1542.57 2387.75 1542.89 2388.3 1543.22 2389.2 1543.54 2390.45 1543.87L2390.45 1545.85 2373.99 1545.85 2373.99 1543.87C2375.67 1543.43 2376.79 1542.96 2377.36 1542.43 2377.92 1541.9 2378.29 1541.15 2378.47 1540.18 2378.65 1539.21 2378.73 1537.72 2378.73 1535.72L2378.73 1529.07 2356.2 1529.07 2356.2 1526.04Z" fill-rule="evenodd"/><text fill="#000000" fill-opacity="0" font-family="Arial,Arial_MSFontService,sans-serif" font-size="55.6035" x="2356.2" y="1538.9">4</text><path d="M2351.93 1464.66 2368.26 1464.66 2384.59 1464.66 2400.93 1464.66 2400.93 1469.66 2384.59 1469.66 2368.26 1469.66 2351.93 1469.66Z" fill-rule="evenodd"/><path d="M2563.3 1384.94C2565.01 1384.94 2566.35 1385.5 2567.34 1386.62 2568.32 1387.74 2568.82 1389.21 2568.82 1391.02 2568.82 1392.45 2568.49 1394.05 2567.84 1395.8L2568.33 1395.97C2570.98 1392.24 2573.5 1389.47 2575.89 1387.68 2578.28 1385.88 2580.74 1384.98 2583.28 1384.98 2585.8 1384.98 2587.73 1385.71 2589.08 1387.15 2590.43 1388.6 2591.11 1390.6 2591.11 1393.17 2591.11 1394.87 2590.71 1397.29 2589.93 1400.42L2587.3 1411.04C2586.57 1413.99 2586.2 1416.07 2586.2 1417.28 2586.2 1418.36 2586.38 1419.15 2586.73 1419.63 2587.08 1420.12 2587.63 1420.36 2588.39 1420.36 2589.2 1420.36 2590.07 1420.03 2590.98 1419.37 2591.9 1418.71 2593.2 1417.44 2594.88 1415.58L2597.19 1417.85C2594.86 1420.34 2592.84 1422.15 2591.11 1423.3 2589.38 1424.45 2587.41 1425.02 2585.19 1425.02 2583.43 1425.02 2582.03 1424.4 2580.97 1423.14 2579.92 1421.88 2579.39 1420.28 2579.39 1418.34 2579.39 1416.58 2579.84 1414 2580.73 1410.6L2582.51 1403.58C2583.16 1401.04 2583.59 1399.17 2583.79 1397.95 2583.99 1396.74 2584.1 1395.75 2584.1 1394.99 2584.1 1393.13 2583.78 1391.78 2583.16 1390.96 2582.54 1390.14 2581.53 1389.72 2580.12 1389.72 2578.99 1389.72 2577.77 1390.18 2576.46 1391.08 2575.15 1391.99 2573.75 1393.35 2572.28 1395.18 2570.81 1397 2569.63 1398.77 2568.74 1400.48 2567.84 1402.2 2567.11 1404.31 2566.55 1406.83L2562.7 1424.38 2555.69 1424.38 2561.6 1398.68C2562.2 1396.09 2562.49 1394.09 2562.49 1392.68 2562.49 1391.6 2562.32 1390.82 2561.97 1390.33 2561.62 1389.85 2561.06 1389.6 2560.31 1389.6 2559.47 1389.6 2558.58 1389.95 2557.65 1390.64 2556.72 1391.32 2555.44 1392.57 2553.82 1394.38L2551.51 1392.12C2554 1389.52 2556.06 1387.68 2557.71 1386.58 2559.36 1385.49 2561.22 1384.94 2563.3 1384.94Z" fill-rule="evenodd"/><text fill="#000000" fill-opacity="0" font-family="Arial,Arial_MSFontService,sans-serif" font-size="40.0815" x="2551.51" y="1420.01">𝑛</text><path d="M2577.75 1495.56 2561.9 1520.73 2561.9 1521.3 2577.75 1521.3 2577.75 1511.21C2577.75 1508.67 2577.79 1505.82 2577.87 1502.67 2577.95 1499.53 2578.05 1497.16 2578.16 1495.56ZM2578.93 1486.4 2584.72 1486.4 2584.72 1521.3 2585.57 1521.3C2587.14 1521.3 2588.26 1521.18 2588.94 1520.95 2589.61 1520.72 2590.17 1520.32 2590.62 1519.74 2591.06 1519.16 2591.48 1518.2 2591.85 1516.88L2594.93 1516.88 2594.45 1525.23 2584.72 1525.23 2584.72 1531.87C2584.72 1533.68 2584.78 1535.01 2584.9 1535.85 2585.03 1536.68 2585.23 1537.35 2585.51 1537.83 2585.8 1538.32 2586.21 1538.72 2586.77 1539.05 2587.32 1539.37 2588.22 1539.7 2589.46 1540.02L2589.46 1542.01 2573.01 1542.01 2573.01 1540.02C2574.68 1539.59 2575.81 1539.11 2576.37 1538.58 2576.94 1538.05 2577.31 1537.31 2577.49 1536.33 2577.66 1535.36 2577.75 1533.87 2577.75 1531.87L2577.75 1525.23 2555.22 1525.23 2555.22 1522.19Z" fill-rule="evenodd"/><text fill="#000000" fill-opacity="0" font-family="Arial,Arial_MSFontService,sans-serif" font-size="55.6035" x="2555.22" y="1535.06">4</text><path d="M2550.94 1460.81 2567.28 1460.81 2583.61 1460.81 2599.94 1460.81 2599.94 1465.81 2583.61 1465.81 2567.28 1465.81 2550.94 1465.81Z" fill-rule="evenodd"/><path d="M2468.5 1302.5 2575.9 1356.33" stroke="#000000" stroke-width="4.58333" stroke-miterlimit="8" fill="none" fill-rule="evenodd"/><path d="M2786.41 1387.57C2788.11 1387.57 2789.46 1388.13 2790.44 1389.26 2791.43 1390.38 2791.92 1391.84 2791.92 1393.65 2791.92 1395.08 2791.6 1396.68 2790.95 1398.43L2791.43 1398.6C2794.08 1394.87 2796.6 1392.11 2798.99 1390.31 2801.38 1388.51 2803.85 1387.61 2806.39 1387.61 2808.9 1387.61 2810.83 1388.34 2812.18 1389.78 2813.53 1391.23 2814.21 1393.23 2814.21 1395.8 2814.21 1397.5 2813.82 1399.92 2813.04 1403.06L2810.4 1413.67C2809.67 1416.62 2809.31 1418.7 2809.31 1419.91 2809.31 1421 2809.48 1421.78 2809.83 1422.27 2810.18 1422.75 2810.74 1422.99 2811.5 1422.99 2812.31 1422.99 2813.17 1422.66 2814.09 1422 2815.01 1421.34 2816.3 1420.08 2817.98 1418.21L2820.29 1420.48C2817.97 1422.97 2815.94 1424.78 2814.21 1425.93 2812.48 1427.08 2810.51 1427.66 2808.29 1427.66 2806.54 1427.66 2805.13 1427.03 2804.08 1425.77 2803.02 1424.51 2802.5 1422.91 2802.5 1420.97 2802.5 1419.21 2802.94 1416.63 2803.84 1413.23L2805.62 1406.22C2806.27 1403.68 2806.69 1401.8 2806.9 1400.58 2807.1 1399.37 2807.2 1398.38 2807.2 1397.62 2807.2 1395.76 2806.89 1394.42 2806.27 1393.59 2805.65 1392.77 2804.63 1392.36 2803.23 1392.36 2802.09 1392.36 2800.87 1392.81 2799.56 1393.71 2798.25 1394.62 2796.86 1395.98 2795.39 1397.81 2793.91 1399.63 2792.73 1401.4 2791.84 1403.12 2790.95 1404.83 2790.22 1406.95 2789.65 1409.46L2785.8 1427.01 2778.79 1427.01 2784.71 1401.31C2785.3 1398.72 2785.6 1396.72 2785.6 1395.31 2785.6 1394.23 2785.42 1393.45 2785.07 1392.96 2784.72 1392.48 2784.17 1392.23 2783.41 1392.23 2782.57 1392.23 2781.69 1392.58 2780.76 1393.27 2779.82 1393.96 2778.55 1395.21 2776.93 1397.02L2774.62 1394.75C2777.1 1392.15 2779.17 1390.31 2780.82 1389.21 2782.46 1388.12 2784.33 1387.57 2786.41 1387.57Z" fill-rule="evenodd"/><text fill="#000000" fill-opacity="0" font-family="Arial,Arial_MSFontService,sans-serif" font-size="40.0815" x="2774.62" y="1422.65">𝑛</text><path d="M2800.85 1498.19 2785.01 1523.36 2785.01 1523.93 2800.85 1523.93 2800.85 1513.84C2800.85 1511.3 2800.9 1508.45 2800.98 1505.31 2801.06 1502.16 2801.15 1499.79 2801.26 1498.19ZM2802.03 1489.03 2807.83 1489.03 2807.83 1523.93 2808.68 1523.93C2810.24 1523.93 2811.36 1523.81 2812.04 1523.58 2812.72 1523.35 2813.28 1522.95 2813.72 1522.37 2814.17 1521.79 2814.58 1520.83 2814.96 1519.51L2818.04 1519.51 2817.55 1527.86 2807.83 1527.86 2807.83 1534.51C2807.83 1536.32 2807.89 1537.64 2808.01 1538.48 2808.13 1539.32 2808.33 1539.98 2808.62 1540.46 2808.9 1540.95 2809.32 1541.36 2809.87 1541.68 2810.43 1542 2811.32 1542.33 2812.57 1542.65L2812.57 1544.64 2796.11 1544.64 2796.11 1542.65C2797.79 1542.22 2798.91 1541.74 2799.48 1541.21 2800.04 1540.69 2800.42 1539.94 2800.59 1538.96 2800.77 1537.99 2800.85 1536.51 2800.85 1534.51L2800.85 1527.86 2778.32 1527.86 2778.32 1524.82Z" fill-rule="evenodd"/><text fill="#000000" fill-opacity="0" font-family="Arial,Arial_MSFontService,sans-serif" font-size="55.6035" x="2778.32" y="1537.69">4</text><path d="M2774.05 1463.44 2790.38 1463.44 2806.71 1463.44 2823.05 1463.44 2823.05 1468.44 2806.71 1468.44 2790.38 1468.44 2774.05 1468.44Z" fill-rule="evenodd"/><path d="M2985.43 1386.26C2987.13 1386.26 2988.47 1386.82 2989.46 1387.94 2990.44 1389.06 2990.94 1390.53 2990.94 1392.34 2990.94 1393.77 2990.61 1395.36 2989.96 1397.12L2990.45 1397.28C2993.1 1393.55 2995.62 1390.79 2998.01 1388.99 3000.4 1387.2 3002.87 1386.3 3005.41 1386.3 3007.92 1386.3 3009.85 1387.02 3011.2 1388.47 3012.55 1389.91 3013.23 1391.92 3013.23 1394.48 3013.23 1396.19 3012.84 1398.61 3012.05 1401.74L3009.42 1412.36C3008.69 1415.3 3008.32 1417.38 3008.32 1418.6 3008.32 1419.68 3008.5 1420.46 3008.85 1420.95 3009.2 1421.44 3009.76 1421.68 3010.51 1421.68 3011.32 1421.68 3012.19 1421.35 3013.11 1420.69 3014.02 1420.02 3015.32 1418.76 3017 1416.9L3019.31 1419.17C3016.98 1421.65 3014.96 1423.47 3013.23 1424.62 3011.5 1425.77 3009.53 1426.34 3007.31 1426.34 3005.55 1426.34 3004.15 1425.71 3003.1 1424.45 3002.04 1423.2 3001.52 1421.6 3001.52 1419.65 3001.52 1417.9 3001.96 1415.32 3002.85 1411.91L3004.64 1404.9C3005.28 1402.36 3005.71 1400.48 3005.91 1399.27 3006.11 1398.05 3006.22 1397.07 3006.22 1396.31 3006.22 1394.44 3005.91 1393.1 3005.28 1392.28 3004.66 1391.45 3003.65 1391.04 3002.24 1391.04 3001.11 1391.04 2999.89 1391.49 2998.58 1392.4 2997.27 1393.3 2995.88 1394.67 2994.4 1396.49 2992.93 1398.31 2991.75 1400.08 2990.86 1401.8 2989.96 1403.52 2989.24 1405.63 2988.67 1408.14L2984.82 1425.69 2977.81 1425.69 2983.72 1400C2984.32 1397.4 2984.62 1395.4 2984.62 1394 2984.62 1392.92 2984.44 1392.13 2984.09 1391.65 2983.74 1391.16 2983.18 1390.92 2982.43 1390.92 2981.59 1390.92 2980.7 1391.26 2979.77 1391.95 2978.84 1392.64 2977.56 1393.89 2975.94 1395.7L2973.63 1393.43C2976.12 1390.84 2978.18 1388.99 2979.83 1387.9 2981.48 1386.8 2983.35 1386.26 2985.43 1386.26Z" fill-rule="evenodd"/><text fill="#000000" fill-opacity="0" font-family="Arial,Arial_MSFontService,sans-serif" font-size="40.0815" x="2973.63" y="1421.33">𝑛</text><path d="M2999.87 1496.88 2984.03 1522.05 2984.03 1522.61 2999.87 1522.61 2999.87 1512.52C2999.87 1509.98 2999.91 1507.14 2999.99 1503.99 3000.07 1500.84 3000.17 1498.47 3000.28 1496.88ZM3001.05 1487.72 3006.84 1487.72 3006.84 1522.61 3007.69 1522.61C3009.26 1522.61 3010.38 1522.5 3011.06 1522.27 3011.73 1522.04 3012.29 1521.63 3012.74 1521.05 3013.19 1520.47 3013.6 1519.52 3013.98 1518.2L3017.06 1518.2 3016.57 1526.54 3006.84 1526.54 3006.84 1533.19C3006.84 1535 3006.9 1536.32 3007.02 1537.16 3007.15 1538 3007.35 1538.66 3007.63 1539.15 3007.92 1539.63 3008.34 1540.04 3008.89 1540.36 3009.44 1540.69 3010.34 1541.01 3011.58 1541.34L3011.58 1543.32 2995.13 1543.32 2995.13 1541.34C2996.81 1540.9 2997.93 1540.42 2998.49 1539.9 2999.06 1539.37 2999.43 1538.62 2999.61 1537.65 2999.78 1536.68 2999.87 1535.19 2999.87 1533.19L2999.87 1526.54 2977.34 1526.54 2977.34 1523.5Z" fill-rule="evenodd"/><text fill="#000000" fill-opacity="0" font-family="Arial,Arial_MSFontService,sans-serif" font-size="55.6035" x="2977.34" y="1536.37">4</text><path d="M2973.06 1462.13 2989.4 1462.13 3005.73 1462.13 3022.06 1462.13 3022.06 1467.13 3005.73 1467.13 2989.4 1467.13 2973.06 1467.13Z" fill-rule="evenodd"/><path d="M0 0 92.7833 57.7727" stroke="#000000" stroke-width="4.58333" stroke-miterlimit="8" fill="none" fill-rule="evenodd" transform="matrix(-1 0 0 1 2891.28 1301.5)"/><path d="M2891.5 1302.5 2997.73 1357.64" stroke="#000000" stroke-width="4.58333" stroke-miterlimit="8" fill="none" fill-rule="evenodd"/><path d="M2267.5 1659.5 2267.5 1773.12" stroke="#000000" stroke-width="4.58333" stroke-miterlimit="8" stroke-dasharray="18.3333 13.75" fill="none" fill-rule="evenodd"/><path d="M2449.5 1659.5 2449.5 1773.12" stroke="#000000" stroke-width="4.58333" stroke-miterlimit="8" stroke-dasharray="18.3333 13.75" fill="none" fill-rule="evenodd"/><path d="M2631.5 1659.5 2631.5 1773.12" stroke="#000000" stroke-width="4.58333" stroke-miterlimit="8" stroke-dasharray="18.3333 13.75" fill="none" fill-rule="evenodd"/><path d="M2814.5 1659.5 2814.5 1773.12" stroke="#000000" stroke-width="4.58333" stroke-miterlimit="8" stroke-dasharray="18.3333 13.75" fill="none" fill-rule="evenodd"/><path d="M3087.5 1659.5 3087.5 1773.12" stroke="#000000" stroke-width="4.58333" stroke-miterlimit="8" stroke-dasharray="18.3333 13.75" fill="none" fill-rule="evenodd"/><path d="M2966.2 1856.41 2974.39 1856.41 2974.39 1865.81 2966.2 1865.81ZM2946.35 1856.41 2954.53 1856.41 2954.53 1865.81 2946.35 1865.81ZM2926.49 1856.41 2934.67 1856.41 2934.67 1865.81 2926.49 1865.81Z" fill-rule="evenodd"/><text fill="#000000" fill-opacity="0" font-family="Arial,Arial_MSFontService,sans-serif" font-size="9.40234" x="2926.49" y="1864.63">…</text><path d="M2202.47 1830.81 2244.78 1830.81 2241.62 1845.08 2237.73 1845.08C2237.73 1842.46 2237.66 1840.49 2237.52 1839.18 2237.39 1837.87 2237.13 1836.87 2236.75 1836.18 2236.38 1835.5 2235.91 1835.02 2235.36 1834.77 2234.8 1834.51 2233.82 1834.38 2232.42 1834.38L2226.42 1834.38 2217.63 1874.34C2217.38 1875.39 2217.21 1876.23 2217.12 1876.85 2217.02 1877.48 2216.94 1878.13 2216.88 1878.82 2216.81 1879.51 2216.77 1880.12 2216.77 1880.66 2216.77 1881.5 2216.91 1882.16 2217.18 1882.63 2217.45 1883.1 2217.86 1883.45 2218.4 1883.66 2218.94 1883.88 2219.87 1884.04 2221.19 1884.15L2220.75 1886.13 2203.68 1886.13 2204.13 1884.15C2205.21 1883.99 2206.01 1883.77 2206.52 1883.5 2207.03 1883.23 2207.49 1882.81 2207.88 1882.24 2208.27 1881.68 2208.66 1880.79 2209.05 1879.57 2209.45 1878.35 2209.91 1876.52 2210.45 1874.06L2219.13 1834.38 2213.98 1834.38C2212.3 1834.38 2210.97 1834.62 2209.97 1835.11 2208.97 1835.6 2207.97 1836.5 2206.97 1837.83 2205.97 1839.15 2204.75 1841.37 2203.32 1844.47L2199.43 1844.47Z" fill-rule="evenodd"/><text fill="#000000" fill-opacity="0" font-family="Arial,Arial_MSFontService,sans-serif" font-size="55.3198" x="2199.43" y="1879.22">𝑇</text><path d="M2279.49 1827.57 2280.58 1830.69C2274.26 1832.77 2269.58 1836.83 2266.54 1842.87 2263.5 1848.91 2261.98 1856.5 2261.98 1865.63 2261.98 1875.08 2263.5 1882.88 2266.54 1889.01 2269.58 1895.15 2274.22 1899.25 2280.46 1901.33L2279.49 1904.45C2271.57 1902.37 2265.51 1897.89 2261.29 1891.02 2257.08 1884.14 2254.97 1875.81 2254.97 1866.03 2254.97 1856.28 2257.08 1847.95 2261.31 1841.05 2265.54 1834.14 2271.6 1829.65 2279.49 1827.57Z" fill-rule="evenodd"/><text fill="#000000" fill-opacity="0" font-family="Arial,Arial_MSFontService,sans-serif" font-size="76.8804" x="2254.97" y="1894.84">(</text><path d="M2308.23 1830.17 2310.46 1830.17C2310.3 1832.76 2310.21 1836.35 2310.21 1840.95L2310.21 1875.56C2310.21 1877.12 2310.3 1878.31 2310.48 1879.1 2310.65 1879.9 2310.96 1880.55 2311.41 1881.05 2311.86 1881.55 2312.5 1881.94 2313.34 1882.22 2314.17 1882.51 2315.23 1882.72 2316.5 1882.87 2317.77 1883.02 2319.44 1883.12 2321.52 1883.18L2321.52 1886.13 2291.57 1886.13 2291.57 1883.18C2294.57 1883.04 2296.71 1882.86 2298 1882.63 2299.28 1882.4 2300.26 1882.05 2300.93 1881.6 2301.61 1881.14 2302.1 1880.49 2302.41 1879.65 2302.72 1878.81 2302.88 1877.45 2302.88 1875.56L2302.88 1842.69C2302.88 1841.61 2302.69 1840.82 2302.31 1840.32 2301.93 1839.82 2301.38 1839.57 2300.65 1839.57 2299.79 1839.57 2298.56 1840.01 2296.96 1840.91 2295.37 1841.8 2293.4 1843.03 2291.05 1844.59L2289.26 1841.47Z" fill-rule="evenodd"/><text fill="#000000" fill-opacity="0" font-family="Arial,Arial_MSFontService,sans-serif" font-size="55.9683" x="2289.26" y="1879.14">1</text><path d="M2330.52 1827.57C2338.41 1829.65 2344.46 1834.14 2348.69 1841.05 2352.92 1847.95 2355.04 1856.28 2355.04 1866.03 2355.04 1875.81 2352.93 1884.14 2348.71 1891.02 2344.5 1897.89 2338.43 1902.37 2330.52 1904.45L2329.54 1901.33C2335.78 1899.25 2340.43 1895.15 2343.46 1889.01 2346.5 1882.88 2348.02 1875.08 2348.02 1865.63 2348.02 1856.5 2346.51 1848.91 2343.48 1842.87 2340.46 1836.83 2335.77 1832.77 2329.42 1830.69Z" fill-rule="evenodd"/><text fill="#000000" fill-opacity="0" font-family="Arial,Arial_MSFontService,sans-serif" font-size="76.8804" x="2329.42" y="1894.84">)</text><path d="M0 0 97.664 46.3296" stroke="#000000" stroke-width="4.58333" stroke-miterlimit="8" fill="none" fill-rule="evenodd" transform="matrix(-1 0 0 1 2379.16 1557.5)"/><path d="M2379.5 1557.5 2473.38 1603.83" stroke="#000000" stroke-width="4.58333" stroke-miterlimit="8" fill="none" fill-rule="evenodd"/><path d="M0 0 97.664 46.3296" stroke="#000000" stroke-width="4.58333" stroke-miterlimit="8" fill="none" fill-rule="evenodd" transform="matrix(-1 0 0 1 2585.16 1557.5)"/><path d="M2585.5 1557.5 2679.38 1603.83" stroke="#000000" stroke-width="4.58333" stroke-miterlimit="8" fill="none" fill-rule="evenodd"/><path d="M0 0 97.664 46.3296" stroke="#000000" stroke-width="4.58333" stroke-miterlimit="8" fill="none" fill-rule="evenodd" transform="matrix(-1 0 0 1 2798.16 1557.5)"/><path d="M2798.5 1557.5 2892.38 1603.83" stroke="#000000" stroke-width="4.58333" stroke-miterlimit="8" fill="none" fill-rule="evenodd"/><path d="M0 0 97.664 46.3296" stroke="#000000" stroke-width="4.58333" stroke-miterlimit="8" fill="none" fill-rule="evenodd" transform="matrix(-1 0 0 1 2997.16 1557.5)"/><path d="M2996.5 1557.5 3090.38 1603.83" stroke="#000000" stroke-width="4.58333" stroke-miterlimit="8" fill="none" fill-rule="evenodd"/><path d="M2381.51 1830.81 2423.82 1830.81 2420.66 1845.08 2416.77 1845.08C2416.77 1842.46 2416.7 1840.49 2416.56 1839.18 2416.43 1837.87 2416.17 1836.87 2415.79 1836.18 2415.42 1835.5 2414.95 1835.02 2414.4 1834.77 2413.84 1834.51 2412.86 1834.38 2411.46 1834.38L2405.46 1834.38 2396.66 1874.34C2396.42 1875.39 2396.25 1876.23 2396.16 1876.85 2396.06 1877.48 2395.98 1878.13 2395.91 1878.82 2395.85 1879.51 2395.81 1880.12 2395.81 1880.66 2395.81 1881.5 2395.95 1882.16 2396.22 1882.63 2396.49 1883.1 2396.89 1883.45 2397.43 1883.66 2397.97 1883.88 2398.91 1884.04 2400.23 1884.15L2399.78 1886.13 2382.72 1886.13 2383.17 1884.15C2384.25 1883.99 2385.05 1883.77 2385.56 1883.5 2386.07 1883.23 2386.53 1882.81 2386.92 1882.24 2387.31 1881.68 2387.7 1880.79 2388.09 1879.57 2388.48 1878.35 2388.95 1876.52 2389.49 1874.06L2398.16 1834.38 2393.02 1834.38C2391.34 1834.38 2390 1834.62 2389 1835.11 2388 1835.6 2387.01 1836.5 2386.01 1837.83 2385.01 1839.15 2383.79 1841.37 2382.36 1844.47L2378.47 1844.47Z" fill-rule="evenodd"/><text fill="#000000" fill-opacity="0" font-family="Arial,Arial_MSFontService,sans-serif" font-size="55.3198" x="2378.47" y="1879.22">𝑇</text><path d="M2458.53 1827.57 2459.62 1830.69C2453.3 1832.77 2448.62 1836.83 2445.58 1842.87 2442.54 1848.91 2441.02 1856.5 2441.02 1865.63 2441.02 1875.08 2442.54 1882.88 2445.58 1889.01 2448.62 1895.15 2453.26 1899.25 2459.5 1901.33L2458.53 1904.45C2450.61 1902.37 2444.54 1897.89 2440.33 1891.02 2436.11 1884.14 2434.01 1875.81 2434.01 1866.03 2434.01 1856.28 2436.12 1847.95 2440.35 1841.05 2444.58 1834.14 2450.64 1829.65 2458.53 1827.57Z" fill-rule="evenodd"/><text fill="#000000" fill-opacity="0" font-family="Arial,Arial_MSFontService,sans-serif" font-size="76.8804" x="2434.01" y="1894.84">(</text><path d="M2487.27 1830.17 2489.5 1830.17C2489.33 1832.76 2489.25 1836.35 2489.25 1840.95L2489.25 1875.56C2489.25 1877.12 2489.34 1878.31 2489.52 1879.1 2489.69 1879.9 2490 1880.55 2490.45 1881.05 2490.89 1881.55 2491.54 1881.94 2492.37 1882.22 2493.21 1882.51 2494.27 1882.72 2495.53 1882.87 2496.8 1883.02 2498.48 1883.12 2500.56 1883.18L2500.56 1886.13 2470.61 1886.13 2470.61 1883.18C2473.61 1883.04 2475.75 1882.86 2477.03 1882.63 2478.32 1882.4 2479.3 1882.05 2479.97 1881.6 2480.65 1881.14 2481.14 1880.49 2481.45 1879.65 2481.76 1878.81 2481.92 1877.45 2481.92 1875.56L2481.92 1842.69C2481.92 1841.61 2481.73 1840.82 2481.35 1840.32 2480.97 1839.82 2480.42 1839.57 2479.69 1839.57 2478.82 1839.57 2477.59 1840.01 2476 1840.91 2474.41 1841.8 2472.43 1843.03 2470.08 1844.59L2468.3 1841.47Z" fill-rule="evenodd"/><text fill="#000000" fill-opacity="0" font-family="Arial,Arial_MSFontService,sans-serif" font-size="55.9683" x="2468.3" y="1879.14">1</text><path d="M2509.55 1827.57C2517.44 1829.65 2523.5 1834.14 2527.73 1841.05 2531.96 1847.95 2534.07 1856.28 2534.07 1866.03 2534.07 1875.81 2531.97 1884.14 2527.75 1891.02 2523.54 1897.89 2517.47 1902.37 2509.55 1904.45L2508.58 1901.33C2514.82 1899.25 2519.46 1895.15 2522.5 1889.01 2525.54 1882.88 2527.06 1875.08 2527.06 1865.63 2527.06 1856.5 2525.55 1848.91 2522.52 1842.87 2519.5 1836.83 2514.81 1832.77 2508.46 1830.69Z" fill-rule="evenodd"/><text fill="#000000" fill-opacity="0" font-family="Arial,Arial_MSFontService,sans-serif" font-size="76.8804" x="2508.46" y="1894.84">)</text><path d="M2560.55 1830.81 2602.86 1830.81 2599.69 1845.08 2595.8 1845.08C2595.8 1842.46 2595.74 1840.49 2595.6 1839.18 2595.47 1837.87 2595.21 1836.87 2594.83 1836.18 2594.45 1835.5 2593.99 1835.02 2593.43 1834.77 2592.88 1834.51 2591.9 1834.38 2590.5 1834.38L2584.5 1834.38 2575.7 1874.34C2575.46 1875.39 2575.29 1876.23 2575.2 1876.85 2575.1 1877.48 2575.02 1878.13 2574.95 1878.82 2574.89 1879.51 2574.85 1880.12 2574.85 1880.66 2574.85 1881.5 2574.99 1882.16 2575.26 1882.63 2575.53 1883.1 2575.93 1883.45 2576.47 1883.66 2577.01 1883.88 2577.95 1884.04 2579.27 1884.15L2578.82 1886.13 2561.76 1886.13 2562.21 1884.15C2563.29 1883.99 2564.08 1883.77 2564.6 1883.5 2565.11 1883.23 2565.56 1882.81 2565.96 1882.24 2566.35 1881.68 2566.74 1880.79 2567.13 1879.57 2567.52 1878.35 2567.99 1876.52 2568.53 1874.06L2577.2 1834.38 2572.06 1834.38C2570.38 1834.38 2569.04 1834.62 2568.04 1835.11 2567.04 1835.6 2566.04 1836.5 2565.04 1837.83 2564.04 1839.15 2562.83 1841.37 2561.4 1844.47L2557.51 1844.47Z" fill-rule="evenodd"/><text fill="#000000" fill-opacity="0" font-family="Arial,Arial_MSFontService,sans-serif" font-size="55.3198" x="2557.51" y="1879.22">𝑇</text><path d="M2637.56 1827.57 2638.66 1830.69C2632.34 1832.77 2627.66 1836.83 2624.62 1842.87 2621.58 1848.91 2620.06 1856.5 2620.06 1865.63 2620.06 1875.08 2621.58 1882.88 2624.62 1889.01 2627.66 1895.15 2632.3 1899.25 2638.54 1901.33L2637.56 1904.45C2629.65 1902.37 2623.58 1897.89 2619.37 1891.02 2615.15 1884.14 2613.04 1875.81 2613.04 1866.03 2613.04 1856.28 2615.16 1847.95 2619.39 1841.05 2623.62 1834.14 2629.67 1829.65 2637.56 1827.57Z" fill-rule="evenodd"/><text fill="#000000" fill-opacity="0" font-family="Arial,Arial_MSFontService,sans-serif" font-size="76.8804" x="2613.04" y="1894.84">(</text><path d="M2666.31 1830.17 2668.53 1830.17C2668.37 1832.76 2668.29 1836.35 2668.29 1840.95L2668.29 1875.56C2668.29 1877.12 2668.38 1878.31 2668.55 1879.1 2668.73 1879.9 2669.04 1880.55 2669.49 1881.05 2669.93 1881.55 2670.57 1881.94 2671.41 1882.22 2672.25 1882.51 2673.3 1882.72 2674.57 1882.87 2675.84 1883.02 2677.52 1883.12 2679.6 1883.18L2679.6 1886.13 2649.65 1886.13 2649.65 1883.18C2652.65 1883.04 2654.79 1882.86 2656.07 1882.63 2657.36 1882.4 2658.34 1882.05 2659.01 1881.6 2659.69 1881.14 2660.18 1880.49 2660.49 1879.65 2660.8 1878.81 2660.96 1877.45 2660.96 1875.56L2660.96 1842.69C2660.96 1841.61 2660.77 1840.82 2660.39 1840.32 2660.01 1839.82 2659.46 1839.57 2658.73 1839.57 2657.86 1839.57 2656.63 1840.01 2655.04 1840.91 2653.45 1841.8 2651.47 1843.03 2649.12 1844.59L2647.34 1841.47Z" fill-rule="evenodd"/><text fill="#000000" fill-opacity="0" font-family="Arial,Arial_MSFontService,sans-serif" font-size="55.9683" x="2647.34" y="1879.14">1</text><path d="M2688.59 1827.57C2696.48 1829.65 2702.54 1834.14 2706.77 1841.05 2711 1847.95 2713.11 1856.28 2713.11 1866.03 2713.11 1875.81 2711 1884.14 2706.79 1891.02 2702.57 1897.89 2696.51 1902.37 2688.59 1904.45L2687.62 1901.33C2693.86 1899.25 2698.5 1895.15 2701.54 1889.01 2704.58 1882.88 2706.1 1875.08 2706.1 1865.63 2706.1 1856.5 2704.59 1848.91 2701.56 1842.87 2698.54 1836.83 2693.85 1832.77 2687.5 1830.69Z" fill-rule="evenodd"/><text fill="#000000" fill-opacity="0" font-family="Arial,Arial_MSFontService,sans-serif" font-size="76.8804" x="2687.5" y="1894.84">)</text><path d="M2739.58 1830.81 2781.89 1830.81 2778.73 1845.08 2774.84 1845.08C2774.84 1842.46 2774.77 1840.49 2774.64 1839.18 2774.5 1837.87 2774.25 1836.87 2773.87 1836.18 2773.49 1835.5 2773.03 1835.02 2772.47 1834.77 2771.92 1834.51 2770.94 1834.38 2769.53 1834.38L2763.53 1834.38 2754.74 1874.34C2754.5 1875.39 2754.33 1876.23 2754.23 1876.85 2754.14 1877.48 2754.06 1878.13 2753.99 1878.82 2753.92 1879.51 2753.89 1880.12 2753.89 1880.66 2753.89 1881.5 2754.02 1882.16 2754.29 1882.63 2754.56 1883.1 2754.97 1883.45 2755.51 1883.66 2756.05 1883.88 2756.98 1884.04 2758.31 1884.15L2757.86 1886.13 2740.8 1886.13 2741.24 1884.15C2742.33 1883.99 2743.12 1883.77 2743.64 1883.5 2744.15 1883.23 2744.6 1882.81 2744.99 1882.24 2745.39 1881.68 2745.78 1880.79 2746.17 1879.57 2746.56 1878.35 2747.03 1876.52 2747.57 1874.06L2756.24 1834.38 2751.09 1834.38C2749.42 1834.38 2748.08 1834.62 2747.08 1835.11 2746.08 1835.6 2745.08 1836.5 2744.08 1837.83 2743.08 1839.15 2741.87 1841.37 2740.43 1844.47L2736.54 1844.47Z" fill-rule="evenodd"/><text fill="#000000" fill-opacity="0" font-family="Arial,Arial_MSFontService,sans-serif" font-size="55.3198" x="2736.54" y="1879.22">𝑇</text><path d="M2816.6 1827.57 2817.7 1830.69C2811.37 1832.77 2806.69 1836.83 2803.65 1842.87 2800.61 1848.91 2799.09 1856.5 2799.09 1865.63 2799.09 1875.08 2800.61 1882.88 2803.65 1889.01 2806.69 1895.15 2811.33 1899.25 2817.57 1901.33L2816.6 1904.45C2808.69 1902.37 2802.62 1897.89 2798.41 1891.02 2794.19 1884.14 2792.08 1875.81 2792.08 1866.03 2792.08 1856.28 2794.2 1847.95 2798.43 1841.05 2802.65 1834.14 2808.71 1829.65 2816.6 1827.57Z" fill-rule="evenodd"/><text fill="#000000" fill-opacity="0" font-family="Arial,Arial_MSFontService,sans-serif" font-size="76.8804" x="2792.08" y="1894.84">(</text><path d="M2845.34 1830.17 2847.57 1830.17C2847.41 1832.76 2847.33 1836.35 2847.33 1840.95L2847.33 1875.56C2847.33 1877.12 2847.42 1878.31 2847.59 1879.1 2847.77 1879.9 2848.08 1880.55 2848.53 1881.05 2848.97 1881.55 2849.61 1881.94 2850.45 1882.22 2851.29 1882.51 2852.34 1882.72 2853.61 1882.87 2854.88 1883.02 2856.56 1883.12 2858.64 1883.18L2858.64 1886.13 2828.69 1886.13 2828.69 1883.18C2831.69 1883.04 2833.83 1882.86 2835.11 1882.63 2836.39 1882.4 2837.37 1882.05 2838.05 1881.6 2838.72 1881.14 2839.22 1880.49 2839.53 1879.65 2839.84 1878.81 2839.99 1877.45 2839.99 1875.56L2839.99 1842.69C2839.99 1841.61 2839.8 1840.82 2839.43 1840.32 2839.05 1839.82 2838.49 1839.57 2837.77 1839.57 2836.9 1839.57 2835.67 1840.01 2834.08 1840.91 2832.48 1841.8 2830.51 1843.03 2828.16 1844.59L2826.38 1841.47Z" fill-rule="evenodd"/><text fill="#000000" fill-opacity="0" font-family="Arial,Arial_MSFontService,sans-serif" font-size="55.9683" x="2826.38" y="1879.14">1</text><path d="M2867.63 1827.57C2875.52 1829.65 2881.58 1834.14 2885.81 1841.05 2890.04 1847.95 2892.15 1856.28 2892.15 1866.03 2892.15 1875.81 2890.04 1884.14 2885.83 1891.02 2881.61 1897.89 2875.55 1902.37 2867.63 1904.45L2866.66 1901.33C2872.9 1899.25 2877.54 1895.15 2880.58 1889.01 2883.62 1882.88 2885.14 1875.08 2885.14 1865.63 2885.14 1856.5 2883.63 1848.91 2880.6 1842.87 2877.57 1836.83 2872.89 1832.77 2866.54 1830.69Z" fill-rule="evenodd"/><text fill="#000000" fill-opacity="0" font-family="Arial,Arial_MSFontService,sans-serif" font-size="76.8804" x="2866.54" y="1894.84">)</text><path d="M3013.82 1830.81 3056.13 1830.81 3052.97 1845.08 3049.08 1845.08C3049.08 1842.46 3049.01 1840.49 3048.87 1839.18 3048.74 1837.87 3048.48 1836.87 3048.1 1836.18 3047.72 1835.5 3047.26 1835.02 3046.7 1834.77 3046.15 1834.51 3045.17 1834.38 3043.77 1834.38L3037.77 1834.38 3028.97 1874.34C3028.73 1875.39 3028.56 1876.23 3028.47 1876.85 3028.37 1877.48 3028.29 1878.13 3028.22 1878.82 3028.16 1879.51 3028.12 1880.12 3028.12 1880.66 3028.12 1881.5 3028.26 1882.16 3028.53 1882.63 3028.8 1883.1 3029.2 1883.45 3029.74 1883.66 3030.28 1883.88 3031.22 1884.04 3032.54 1884.15L3032.09 1886.13 3015.03 1886.13 3015.48 1884.15C3016.56 1883.99 3017.36 1883.77 3017.87 1883.5 3018.38 1883.23 3018.84 1882.81 3019.23 1882.24 3019.62 1881.68 3020.01 1880.79 3020.4 1879.57 3020.79 1878.35 3021.26 1876.52 3021.8 1874.06L3030.47 1834.38 3025.33 1834.38C3023.65 1834.38 3022.31 1834.62 3021.31 1835.11 3020.31 1835.6 3019.31 1836.5 3018.32 1837.83 3017.32 1839.15 3016.1 1841.37 3014.67 1844.47L3010.78 1844.47Z" fill-rule="evenodd"/><text fill="#000000" fill-opacity="0" font-family="Arial,Arial_MSFontService,sans-serif" font-size="55.3198" x="3010.78" y="1879.22">𝑇</text><path d="M3090.84 1827.57 3091.93 1830.69C3085.61 1832.77 3080.93 1836.83 3077.89 1842.87 3074.85 1848.91 3073.33 1856.5 3073.33 1865.63 3073.33 1875.08 3074.85 1882.88 3077.89 1889.01 3080.93 1895.15 3085.57 1899.25 3091.81 1901.33L3090.84 1904.45C3082.92 1902.37 3076.85 1897.89 3072.64 1891.02 3068.42 1884.14 3066.32 1875.81 3066.32 1866.03 3066.32 1856.28 3068.43 1847.95 3072.66 1841.05 3076.89 1834.14 3082.95 1829.65 3090.84 1827.57Z" fill-rule="evenodd"/><text fill="#000000" fill-opacity="0" font-family="Arial,Arial_MSFontService,sans-serif" font-size="76.8804" x="3066.32" y="1894.84">(</text><path d="M3119.58 1830.17 3121.81 1830.17C3121.64 1832.76 3121.56 1836.35 3121.56 1840.95L3121.56 1875.56C3121.56 1877.12 3121.65 1878.31 3121.83 1879.1 3122 1879.9 3122.31 1880.55 3122.76 1881.05 3123.2 1881.55 3123.85 1881.94 3124.68 1882.22 3125.52 1882.51 3126.57 1882.72 3127.84 1882.87 3129.11 1883.02 3130.79 1883.12 3132.87 1883.18L3132.87 1886.13 3102.92 1886.13 3102.92 1883.18C3105.92 1883.04 3108.06 1882.86 3109.34 1882.63 3110.63 1882.4 3111.61 1882.05 3112.28 1881.6 3112.96 1881.14 3113.45 1880.49 3113.76 1879.65 3114.07 1878.81 3114.23 1877.45 3114.23 1875.56L3114.23 1842.69C3114.23 1841.61 3114.04 1840.82 3113.66 1840.32 3113.28 1839.82 3112.73 1839.57 3112 1839.57 3111.13 1839.57 3109.9 1840.01 3108.31 1840.91 3106.72 1841.8 3104.74 1843.03 3102.39 1844.59L3100.61 1841.47Z" fill-rule="evenodd"/><text fill="#000000" fill-opacity="0" font-family="Arial,Arial_MSFontService,sans-serif" font-size="55.9683" x="3100.61" y="1879.14">1</text><path d="M3141.86 1827.57C3149.75 1829.65 3155.81 1834.14 3160.04 1841.05 3164.27 1847.95 3166.38 1856.28 3166.38 1866.03 3166.38 1875.81 3164.28 1884.14 3160.06 1891.02 3155.85 1897.89 3149.78 1902.37 3141.86 1904.45L3140.89 1901.33C3147.13 1899.25 3151.77 1895.15 3154.81 1889.01 3157.85 1882.88 3159.37 1875.08 3159.37 1865.63 3159.37 1856.5 3157.86 1848.91 3154.83 1842.87 3151.81 1836.83 3147.12 1832.77 3140.77 1830.69Z" fill-rule="evenodd"/><text fill="#000000" fill-opacity="0" font-family="Arial,Arial_MSFontService,sans-serif" font-size="76.8804" x="3140.77" y="1894.84">)</text><path d="M2.29167-2.12602e-06 2.29201 366.095-2.29133 366.095-2.29167 2.12602e-06ZM13.7503 361.511 0.000360892 389.011-13.7497 361.511Z" transform="matrix(1 0 0 -1 2086.5 1353.51)"/><path d="M2088.79 1463.5 2088.79 1870.36 2084.21 1870.36 2084.21 1463.5ZM2100.25 1865.78 2086.5 1893.28 2072.75 1865.78Z"/><path d="M2036.95 1427.39C2035.57 1428.42 2034.54 1429.51 2033.85 1430.66 2033.16 1431.8 2032.81 1433.11 2032.81 1434.57 2032.81 1437 2033.78 1438.79 2035.71 1439.94 2037.64 1441.08 2040.6 1441.66 2044.57 1441.66 2047 1441.66 2049.09 1441.33 2050.83 1440.69 2052.57 1440.04 2053.9 1439.11 2054.82 1437.89 2055.74 1436.67 2056.2 1435.26 2056.2 1433.63 2056.2 1432.88 2056.1 1432.14 2055.92 1431.43 2055.73 1430.71 2055.37 1430.07 2054.84 1429.5 2054.31 1428.93 2053.56 1428.48 2052.59 1428.14 2051.62 1427.81 2050.35 1427.64 2048.78 1427.64L2042.74 1427.64C2040.56 1427.64 2038.62 1427.56 2036.95 1427.39ZM2001.82 1390.51C1998.55 1390.51 1996.05 1391.93 1994.31 1394.77 1992.56 1397.61 1991.69 1401.64 1991.69 1406.89 1991.69 1412.45 1992.58 1416.73 1994.35 1419.71 1996.12 1422.7 1998.65 1424.19 2001.95 1424.19 2003.76 1424.19 2005.3 1423.75 2006.57 1422.87 2007.84 1422 2008.87 1420.81 2009.67 1419.33 2010.46 1417.84 2011.04 1416.12 2011.39 1414.16 2011.74 1412.2 2011.92 1410.16 2011.92 1408.02 2011.92 1404.05 2011.48 1400.75 2010.6 1398.13 2009.72 1395.51 2008.52 1393.59 2007.01 1392.36 2005.5 1391.13 2003.77 1390.51 2001.82 1390.51ZM2043.84 1390.39C2041.27 1390.39 2039.31 1391.24 2037.96 1392.94 2036.61 1394.65 2035.94 1397.11 2035.94 1400.32 2035.94 1403.7 2036.62 1406.31 2038 1408.14 2039.38 1409.98 2041.37 1410.9 2043.96 1410.9 2045.34 1410.9 2046.51 1410.64 2047.49 1410.11 2048.46 1409.58 2049.25 1408.86 2049.86 1407.94 2050.46 1407.02 2050.91 1405.96 2051.19 1404.76 2051.48 1403.56 2051.62 1402.29 2051.62 1400.97 2051.62 1398.59 2051.28 1396.61 2050.61 1395.01 2049.93 1393.42 2049.01 1392.25 2047.85 1391.51 2046.69 1390.76 2045.35 1390.39 2043.84 1390.39ZM2043.92 1387.31C2045.86 1387.31 2047.8 1387.54 2049.71 1388L2064.06 1388 2064.06 1392.09 2056.56 1391.81 2056.2 1392.26C2057.04 1393.09 2057.7 1394.23 2058.18 1395.68 2058.67 1397.13 2058.91 1398.69 2058.91 1400.36 2058.91 1404.77 2057.56 1408.16 2054.84 1410.55 2052.13 1412.95 2048.27 1414.14 2043.27 1414.14 2041.03 1414.14 2039.1 1413.86 2037.48 1413.29 2035.42 1414.86 2034.4 1416.4 2034.4 1417.91 2034.4 1418.91 2034.59 1419.67 2034.98 1420.18 2035.37 1420.69 2036.02 1421.06 2036.93 1421.27 2037.83 1421.49 2039.2 1421.6 2041.04 1421.6L2050.77 1421.6C2053.63 1421.6 2055.97 1422.04 2057.78 1422.94 2059.59 1423.83 2060.88 1425.02 2061.65 1426.52 2062.42 1428.02 2062.8 1429.77 2062.8 1431.77 2062.8 1434.31 2062.08 1436.57 2060.62 1438.56 2059.16 1440.54 2057.05 1442.09 2054.29 1443.2 2051.54 1444.31 2048.32 1444.86 2044.65 1444.86 2041.92 1444.86 2039.43 1444.7 2037.17 1444.37 2034.92 1444.05 2032.98 1443.5 2031.38 1442.73 2029.77 1441.96 2028.53 1440.95 2027.65 1439.69 2026.77 1438.44 2026.33 1436.86 2026.33 1434.97 2026.33 1433.27 2026.9 1431.72 2028.03 1430.33 2029.17 1428.94 2030.77 1427.72 2032.85 1426.66 2031.59 1426.15 2030.59 1425.39 2029.86 1424.39 2029.13 1423.39 2028.76 1422.22 2028.76 1420.87 2028.76 1419.33 2029.19 1417.92 2030.06 1416.63 2030.92 1415.35 2032.45 1413.88 2034.64 1412.24 2032.69 1411.1 2031.21 1409.56 2030.2 1407.62 2029.19 1405.67 2028.68 1403.45 2028.68 1400.97 2028.68 1398.65 2029.07 1396.63 2029.84 1394.91 2030.61 1393.19 2031.67 1391.78 2033.04 1390.66 2034.4 1389.53 2036.02 1388.7 2037.88 1388.14 2039.74 1387.59 2041.76 1387.31 2043.92 1387.31ZM2001.99 1387.31C2007.77 1387.31 2012.14 1388.99 2015.12 1392.36 2018.09 1395.72 2019.57 1400.55 2019.57 1406.85 2019.57 1411.33 2018.83 1415.11 2017.35 1418.19 2015.86 1421.27 2013.75 1423.58 2011.02 1425.1 2008.29 1426.63 2005.07 1427.39 2001.34 1427.39 1995.72 1427.39 1991.43 1425.74 1988.47 1422.43 1985.51 1419.12 1984.03 1414.22 1984.03 1407.74 1984.03 1403.28 1984.81 1399.51 1986.36 1396.43 1987.92 1393.35 1990.04 1391.06 1992.75 1389.56 1995.45 1388.06 1998.53 1387.31 2001.99 1387.31ZM1970.1 1368.75 1972.53 1368.75 1972.53 1416.61C1972.53 1418.94 1972.64 1420.55 1972.85 1421.46 1973.07 1422.36 1973.48 1423.05 1974.09 1423.52 1974.7 1424 1975.69 1424.41 1977.07 1424.76L1977.07 1426.74 1960.98 1426.74 1960.98 1424.76C1962.33 1424.41 1963.27 1424.04 1963.8 1423.66 1964.32 1423.29 1964.7 1422.83 1964.93 1422.31 1965.16 1421.78 1965.32 1421.06 1965.42 1420.16 1965.51 1419.25 1965.56 1418.07 1965.56 1416.61L1965.56 1382.69C1965.56 1380.1 1965.54 1378.29 1965.5 1377.26 1965.46 1376.23 1965.35 1375.36 1965.17 1374.65 1965 1373.93 1964.75 1373.37 1964.44 1372.96 1964.13 1372.56 1963.71 1372.24 1963.19 1371.99 1962.66 1371.75 1961.71 1371.51 1960.33 1371.26L1960.33 1369.16Z" fill="#00B050" fill-rule="evenodd"/><text fill="#000000" fill-opacity="0" font-family="Arial,Arial_MSFontService,sans-serif" font-size="76.1104" x="1960.33" y="1435.35">log</text><path d="M2090.86 1387.31C2092.56 1387.31 2093.9 1387.87 2094.89 1388.99 2095.87 1390.11 2096.37 1391.58 2096.37 1393.39 2096.37 1394.82 2096.04 1396.42 2095.39 1398.17L2095.88 1398.33C2098.53 1394.61 2101.05 1391.84 2103.44 1390.05 2105.83 1388.25 2108.3 1387.35 2110.84 1387.35 2113.35 1387.35 2115.28 1388.07 2116.63 1389.52 2117.98 1390.97 2118.66 1392.97 2118.66 1395.54 2118.66 1397.24 2118.27 1399.66 2117.48 1402.79L2114.85 1413.41C2114.12 1416.36 2113.75 1418.44 2113.75 1419.65 2113.75 1420.73 2113.93 1421.52 2114.28 1422 2114.63 1422.49 2115.19 1422.73 2115.94 1422.73 2116.75 1422.73 2117.62 1422.4 2118.54 1421.74 2119.45 1421.08 2120.75 1419.81 2122.43 1417.95L2124.74 1420.22C2122.41 1422.71 2120.39 1424.52 2118.66 1425.67 2116.93 1426.82 2114.96 1427.39 2112.74 1427.39 2110.98 1427.39 2109.58 1426.76 2108.53 1425.51 2107.47 1424.25 2106.94 1422.65 2106.94 1420.71 2106.94 1418.95 2107.39 1416.37 2108.28 1412.97L2110.07 1405.95C2110.71 1403.41 2111.14 1401.54 2111.34 1400.32 2111.54 1399.1 2111.65 1398.12 2111.65 1397.36 2111.65 1395.5 2111.34 1394.15 2110.71 1393.33 2110.09 1392.51 2109.08 1392.09 2107.67 1392.09 2106.54 1392.09 2105.32 1392.55 2104.01 1393.45 2102.7 1394.36 2101.3 1395.72 2099.83 1397.54 2098.36 1399.37 2097.18 1401.14 2096.29 1402.85 2095.39 1404.57 2094.67 1406.68 2094.1 1409.2L2090.25 1426.74 2083.24 1426.74 2089.15 1401.05C2089.75 1398.46 2090.04 1396.46 2090.04 1395.05 2090.04 1393.97 2089.87 1393.19 2089.52 1392.7 2089.17 1392.22 2088.61 1391.97 2087.86 1391.97 2087.02 1391.97 2086.13 1392.32 2085.2 1393.01 2084.27 1393.69 2082.99 1394.94 2081.37 1396.75L2079.06 1394.48C2081.55 1391.89 2083.61 1390.05 2085.26 1388.95 2086.91 1387.86 2088.78 1387.31 2090.86 1387.31Z" fill="#00B050" fill-rule="evenodd"/><text fill="#000000" fill-opacity="0" font-family="Arial,Arial_MSFontService,sans-serif" font-size="40.0815" x="2079.06" y="1422.38">𝑛</text><text font-family="DengXian,DengXian_MSFontService,sans-serif" font-weight="400" font-size="83" transform="matrix(1 0 0 1 2127.06 1427)">层</text><path d="M3379.17 980.22C3380.87 980.22 3382.22 980.781 3383.2 981.902 3384.19 983.023 3384.68 984.489 3384.68 986.299 3384.68 987.731 3384.36 989.325 3383.71 991.081L3384.2 991.243C3386.84 987.515 3389.36 984.752 3391.76 982.956 3394.15 981.159 3396.61 980.26 3399.15 980.26 3401.66 980.26 3403.6 980.983 3404.95 982.429 3406.3 983.874 3406.97 985.88 3406.97 988.447 3406.97 990.149 3406.58 992.567 3405.8 995.701L3403.16 1006.32C3402.43 1009.26 3402.07 1011.34 3402.07 1012.56 3402.07 1013.64 3402.25 1014.42 3402.6 1014.91 3402.95 1015.4 3403.5 1015.64 3404.26 1015.64 3405.07 1015.64 3405.93 1015.31 3406.85 1014.65 3407.77 1013.99 3409.07 1012.72 3410.74 1010.86L3413.05 1013.13C3410.73 1015.61 3408.7 1017.43 3406.97 1018.58 3405.24 1019.73 3403.27 1020.3 3401.06 1020.3 3399.3 1020.3 3397.9 1019.67 3396.84 1018.42 3395.79 1017.16 3395.26 1015.56 3395.26 1013.61 3395.26 1011.86 3395.71 1009.28 3396.6 1005.87L3398.38 998.862C3399.03 996.323 3399.46 994.445 3399.66 993.229 3399.86 992.013 3399.96 991.027 3399.96 990.271 3399.96 988.406 3399.65 987.062 3399.03 986.238 3398.41 985.414 3397.4 985.002 3395.99 985.002 3394.86 985.002 3393.63 985.455 3392.32 986.36 3391.01 987.265 3389.62 988.629 3388.15 990.453 3386.68 992.277 3385.49 994.047 3384.6 995.762 3383.71 997.478 3382.98 999.592 3382.41 1002.1L3378.56 1019.65 3371.55 1019.65 3377.47 993.959C3378.06 991.365 3378.36 989.366 3378.36 987.961 3378.36 986.88 3378.19 986.096 3377.83 985.61 3377.48 985.124 3376.93 984.881 3376.17 984.881 3375.34 984.881 3374.45 985.225 3373.52 985.914 3372.59 986.603 3371.31 987.853 3369.69 989.663L3367.38 987.393C3369.86 984.799 3371.93 982.956 3373.58 981.861 3375.23 980.767 3377.09 980.22 3379.17 980.22Z" fill="#00B050" fill-rule="evenodd"/><text fill="#000000" fill-opacity="0" font-family="Arial,Arial_MSFontService,sans-serif" font-size="40.0815" x="3367.38" y="1015.29">𝑛</text><path d="M3379.17 1187.98C3380.87 1187.98 3382.22 1188.54 3383.2 1189.66 3384.19 1190.78 3384.68 1192.24 3384.68 1194.06 3384.68 1195.49 3384.36 1197.08 3383.71 1198.84L3384.2 1199C3386.84 1195.27 3389.36 1192.51 3391.76 1190.71 3394.15 1188.91 3396.61 1188.02 3399.15 1188.02 3401.66 1188.02 3403.6 1188.74 3404.95 1190.18 3406.3 1191.63 3406.97 1193.64 3406.97 1196.2 3406.97 1197.91 3406.58 1200.32 3405.8 1203.46L3403.16 1214.08C3402.43 1217.02 3402.07 1219.1 3402.07 1220.32 3402.07 1221.4 3402.25 1222.18 3402.6 1222.67 3402.95 1223.15 3403.5 1223.4 3404.26 1223.4 3405.07 1223.4 3405.93 1223.07 3406.85 1222.4 3407.77 1221.74 3409.07 1220.48 3410.74 1218.61L3413.05 1220.88C3410.73 1223.37 3408.7 1225.19 3406.97 1226.34 3405.24 1227.48 3403.27 1228.06 3401.06 1228.06 3399.3 1228.06 3397.9 1227.43 3396.84 1226.17 3395.79 1224.92 3395.26 1223.32 3395.26 1221.37 3395.26 1219.61 3395.71 1217.03 3396.6 1213.63L3398.38 1206.62C3399.03 1204.08 3399.46 1202.2 3399.66 1200.99 3399.86 1199.77 3399.96 1198.78 3399.96 1198.03 3399.96 1196.16 3399.65 1194.82 3399.03 1193.99 3398.41 1193.17 3397.4 1192.76 3395.99 1192.76 3394.86 1192.76 3393.63 1193.21 3392.32 1194.12 3391.01 1195.02 3389.62 1196.39 3388.15 1198.21 3386.68 1200.03 3385.49 1201.8 3384.6 1203.52 3383.71 1205.23 3382.98 1207.35 3382.41 1209.86L3378.56 1227.41 3371.55 1227.41 3377.47 1201.71C3378.06 1199.12 3378.36 1197.12 3378.36 1195.72 3378.36 1194.64 3378.19 1193.85 3377.83 1193.37 3377.48 1192.88 3376.93 1192.64 3376.17 1192.64 3375.34 1192.64 3374.45 1192.98 3373.52 1193.67 3372.59 1194.36 3371.31 1195.61 3369.69 1197.42L3367.38 1195.15C3369.86 1192.56 3371.93 1190.71 3373.58 1189.62 3375.23 1188.52 3377.09 1187.98 3379.17 1187.98Z" fill="#00B050" fill-rule="evenodd"/><text fill="#000000" fill-opacity="0" font-family="Arial,Arial_MSFontService,sans-serif" font-size="40.0815" x="3367.38" y="1223.05">𝑛</text><path d="M3379.17 1446.98C3380.87 1446.98 3382.22 1447.55 3383.2 1448.67 3384.19 1449.79 3384.68 1451.25 3384.68 1453.06 3384.68 1454.5 3384.36 1456.09 3383.71 1457.85L3384.2 1458.01C3386.84 1454.28 3389.36 1451.52 3391.76 1449.72 3394.15 1447.92 3396.61 1447.02 3399.15 1447.02 3401.66 1447.02 3403.6 1447.75 3404.95 1449.19 3406.3 1450.64 3406.97 1452.64 3406.97 1455.21 3406.97 1456.91 3406.58 1459.33 3405.8 1462.47L3403.16 1473.08C3402.43 1476.03 3402.07 1478.11 3402.07 1479.33 3402.07 1480.41 3402.25 1481.19 3402.6 1481.68 3402.95 1482.16 3403.5 1482.41 3404.26 1482.41 3405.07 1482.41 3405.93 1482.07 3406.85 1481.41 3407.77 1480.75 3409.07 1479.49 3410.74 1477.62L3413.05 1479.89C3410.73 1482.38 3408.7 1484.2 3406.97 1485.34 3405.24 1486.49 3403.27 1487.07 3401.06 1487.07 3399.3 1487.07 3397.9 1486.44 3396.84 1485.18 3395.79 1483.93 3395.26 1482.32 3395.26 1480.38 3395.26 1478.62 3395.71 1476.04 3396.6 1472.64L3398.38 1465.63C3399.03 1463.09 3399.46 1461.21 3399.66 1459.99 3399.86 1458.78 3399.96 1457.79 3399.96 1457.04 3399.96 1455.17 3399.65 1453.83 3399.03 1453 3398.41 1452.18 3397.4 1451.77 3395.99 1451.77 3394.86 1451.77 3393.63 1452.22 3392.32 1453.12 3391.01 1454.03 3389.62 1455.39 3388.15 1457.22 3386.68 1459.04 3385.49 1460.81 3384.6 1462.53 3383.71 1464.24 3382.98 1466.36 3382.41 1468.87L3378.56 1486.42 3371.55 1486.42 3377.47 1460.72C3378.06 1458.13 3378.36 1456.13 3378.36 1454.73 3378.36 1453.64 3378.19 1452.86 3377.83 1452.37 3377.48 1451.89 3376.93 1451.65 3376.17 1451.65 3375.34 1451.65 3374.45 1451.99 3373.52 1452.68 3372.59 1453.37 3371.31 1454.62 3369.69 1456.43L3367.38 1454.16C3369.86 1451.56 3371.93 1449.72 3373.58 1448.63 3375.23 1447.53 3377.09 1446.98 3379.17 1446.98Z" fill="#00B050" fill-rule="evenodd"/><text fill="#000000" fill-opacity="0" font-family="Arial,Arial_MSFontService,sans-serif" font-size="40.0815" x="3367.38" y="1482.06">𝑛</text><path d="M3377.71 1846.7C3379.41 1846.7 3380.76 1847.26 3381.74 1848.38 3382.73 1849.5 3383.22 1850.97 3383.22 1852.78 3383.22 1854.21 3382.9 1855.81 3382.25 1857.56L3382.73 1857.72C3385.38 1854 3387.9 1851.23 3390.29 1849.44 3392.68 1847.64 3395.15 1846.74 3397.69 1846.74 3400.2 1846.74 3402.13 1847.46 3403.48 1848.91 3404.84 1850.36 3405.51 1852.36 3405.51 1854.93 3405.51 1856.63 3405.12 1859.05 3404.34 1862.18L3401.7 1872.8C3400.97 1875.75 3400.61 1877.83 3400.61 1879.04 3400.61 1880.12 3400.78 1880.91 3401.13 1881.39 3401.49 1881.88 3402.04 1882.12 3402.8 1882.12 3403.61 1882.12 3404.47 1881.79 3405.39 1881.13 3406.31 1880.47 3407.6 1879.2 3409.28 1877.34L3411.59 1879.61C3409.27 1882.1 3407.24 1883.91 3405.51 1885.06 3403.78 1886.21 3401.81 1886.78 3399.59 1886.78 3397.84 1886.78 3396.43 1886.15 3395.38 1884.9 3394.33 1883.64 3393.8 1882.04 3393.8 1880.1 3393.8 1878.34 3394.24 1875.76 3395.14 1872.36L3396.92 1865.34C3397.57 1862.8 3397.99 1860.93 3398.2 1859.71 3398.4 1858.49 3398.5 1857.51 3398.5 1856.75 3398.5 1854.89 3398.19 1853.54 3397.57 1852.72 3396.95 1851.9 3395.93 1851.48 3394.53 1851.48 3393.39 1851.48 3392.17 1851.94 3390.86 1852.84 3389.55 1853.75 3388.16 1855.11 3386.69 1856.93 3385.21 1858.76 3384.03 1860.53 3383.14 1862.24 3382.25 1863.96 3381.52 1866.07 3380.95 1868.59L3377.1 1886.13 3370.09 1886.13 3376.01 1860.44C3376.6 1857.85 3376.9 1855.85 3376.9 1854.44 3376.9 1853.36 3376.72 1852.58 3376.37 1852.09 3376.02 1851.61 3375.47 1851.36 3374.71 1851.36 3373.87 1851.36 3372.99 1851.71 3372.06 1852.4 3371.12 1853.08 3369.85 1854.33 3368.23 1856.14L3365.92 1853.87C3368.4 1851.28 3370.47 1849.44 3372.12 1848.34 3373.76 1847.25 3375.63 1846.7 3377.71 1846.7Z" fill="#00B050" fill-rule="evenodd"/><text fill="#000000" fill-opacity="0" font-family="Arial,Arial_MSFontService,sans-serif" font-size="40.0815" x="3365.92" y="1881.77">𝑛</text><path d="M3388.05 1703.63 3388.05 1711.82 3378.65 1711.82 3378.65 1703.63ZM3388.05 1683.77 3388.05 1691.96 3378.65 1691.96 3378.65 1683.77ZM3388.05 1663.92 3388.05 1672.1 3378.65 1672.1 3378.65 1663.92Z" fill="#00B050" fill-rule="evenodd"/><text fill="#000000" fill-opacity="0" font-family="Arial,Arial_MSFontService,sans-serif" font-size="47.9033" x="3378.65" y="1705.83">…</text><path d="M2741.5 991.208 2759.83 991.208 2759.83 995.792 2741.5 995.792ZM2773.58 991.208 2791.92 991.208 2791.92 995.792 2773.58 995.792ZM2805.67 991.208 2824 991.208 2824 995.792 2805.67 995.792ZM2837.75 991.208 2856.08 991.208 2856.08 995.792 2837.75 995.792ZM2869.83 991.208 2888.17 991.208 2888.17 995.792 2869.83 995.792ZM2901.92 991.208 2920.25 991.208 2920.25 995.792 2901.92 995.792ZM2934 991.208 2952.33 991.208 2952.33 995.792 2934 995.792ZM2966.08 991.208 2984.42 991.208 2984.42 995.792 2966.08 995.792ZM2998.17 991.208 3016.5 991.208 3016.5 995.792 2998.17 995.792ZM3030.25 991.208 3048.58 991.208 3048.58 995.792 3030.25 995.792ZM3062.33 991.208 3080.67 991.208 3080.67 995.792 3062.33 995.792ZM3094.42 991.208 3112.75 991.208 3112.75 995.792 3094.42 995.792ZM3126.5 991.208 3144.83 991.208 3144.83 995.792 3126.5 995.792ZM3158.58 991.209 3176.92 991.209 3176.92 995.792 3158.58 995.792ZM3190.67 991.209 3209 991.209 3209 995.792 3190.67 995.792ZM3222.75 991.209 3241.08 991.209 3241.08 995.792 3222.75 995.792ZM3254.83 991.209 3273.17 991.209 3273.17 995.792 3254.83 995.792ZM3276.22 970.584 3322.06 993.5 3276.22 1016.42Z"/><path d="M2960.5 1199.21 2978.83 1199.21 2978.83 1203.79 2960.5 1203.79ZM2992.58 1199.21 3010.92 1199.21 3010.92 1203.79 2992.58 1203.79ZM3024.67 1199.21 3043 1199.21 3043 1203.79 3024.67 1203.79ZM3056.75 1199.21 3075.08 1199.21 3075.08 1203.79 3056.75 1203.79ZM3088.83 1199.21 3107.17 1199.21 3107.17 1203.79 3088.83 1203.79ZM3120.92 1199.21 3139.25 1199.21 3139.25 1203.79 3120.92 1203.79ZM3153 1199.21 3171.33 1199.21 3171.33 1203.79 3153 1203.79ZM3185.08 1199.21 3203.42 1199.21 3203.42 1203.79 3185.08 1203.79ZM3217.17 1199.21 3235.5 1199.21 3235.5 1203.79 3217.17 1203.79ZM3249.25 1199.21 3267.58 1199.21 3267.58 1203.79 3249.25 1203.79ZM3275.99 1178.58 3321.82 1201.5 3275.99 1224.42Z"/><path d="M3067.5 1458.21 3085.83 1458.21 3085.83 1462.79 3067.5 1462.79ZM3099.58 1458.21 3117.92 1458.21 3117.92 1462.79 3099.58 1462.79ZM3131.67 1458.21 3150 1458.21 3150 1462.79 3131.67 1462.79ZM3163.75 1458.21 3182.08 1458.21 3182.08 1462.79 3163.75 1462.79ZM3195.83 1458.21 3214.17 1458.21 3214.17 1462.79 3195.83 1462.79ZM3227.92 1458.21 3246.25 1458.21 3246.25 1462.79 3227.92 1462.79ZM3260 1458.21 3278.33 1458.21 3278.33 1462.79 3260 1462.79ZM3276.76 1437.58 3322.59 1460.5 3276.76 1483.42Z"/><path d="M3219.5 1857.21 3237.83 1857.21 3237.83 1861.79 3219.5 1861.79ZM3251.58 1857.21 3269.92 1857.21 3269.92 1861.79 3251.58 1861.79ZM3274.85 1836.58 3320.68 1859.5 3274.84 1882.42Z"/><rect x="3339.5" y="901.5" width="109" height="1025" stroke="#00B050" stroke-width="4.58333" stroke-linecap="round" stroke-linejoin="round" stroke-miterlimit="10" fill="none"/><text font-family="DengXian,DengXian_MSFontService,sans-serif" font-weight="400" font-size="128" transform="matrix(1 0 0 1 2573.69 2112)">各层之和：</text><path d="M3235.04 2051.59C3237.67 2051.59 3239.74 2052.45 3241.26 2054.18 3242.78 2055.91 3243.54 2058.17 3243.54 2060.96 3243.54 2063.17 3243.04 2065.63 3242.04 2068.34L3242.79 2068.59C3246.88 2062.84 3250.76 2058.58 3254.45 2055.81 3258.14 2053.04 3261.94 2051.65 3265.85 2051.65 3269.73 2051.65 3272.71 2052.77 3274.79 2055 3276.88 2057.23 3277.92 2060.32 3277.92 2064.28 3277.92 2066.9 3277.31 2070.63 3276.1 2075.46L3272.04 2091.84C3270.92 2096.38 3270.35 2099.59 3270.35 2101.46 3270.35 2103.13 3270.62 2104.34 3271.17 2105.09 3271.71 2105.84 3272.56 2106.21 3273.73 2106.21 3274.98 2106.21 3276.31 2105.7 3277.73 2104.68 3279.15 2103.66 3281.15 2101.71 3283.73 2098.84L3287.29 2102.34C3283.71 2106.17 3280.58 2108.98 3277.92 2110.75 3275.25 2112.52 3272.21 2113.4 3268.79 2113.4 3266.08 2113.4 3263.92 2112.43 3262.29 2110.5 3260.67 2108.56 3259.85 2106.09 3259.85 2103.09 3259.85 2100.38 3260.54 2096.4 3261.92 2091.15L3264.67 2080.34C3265.67 2076.42 3266.32 2073.53 3266.64 2071.65 3266.95 2069.78 3267.1 2068.26 3267.1 2067.09 3267.1 2064.21 3266.62 2062.14 3265.67 2060.87 3264.71 2059.6 3263.15 2058.96 3260.98 2058.96 3259.23 2058.96 3257.34 2059.66 3255.32 2061.06 3253.3 2062.45 3251.16 2064.56 3248.89 2067.37 3246.61 2070.18 3244.79 2072.91 3243.42 2075.56 3242.04 2078.2 3240.92 2081.46 3240.04 2085.34L3234.1 2112.4 3223.29 2112.4 3232.42 2072.78C3233.33 2068.78 3233.79 2065.69 3233.79 2063.53 3233.79 2061.86 3233.52 2060.65 3232.98 2059.9 3232.44 2059.15 3231.58 2058.78 3230.42 2058.78 3229.12 2058.78 3227.76 2059.31 3226.32 2060.37 3224.89 2061.43 3222.92 2063.36 3220.42 2066.15L3216.85 2062.65C3220.69 2058.65 3223.88 2055.81 3226.42 2054.12 3228.96 2052.43 3231.83 2051.59 3235.04 2051.59Z" fill="#00B050" fill-rule="evenodd"/><text fill="#000000" fill-opacity="0" font-family="Arial,Arial_MSFontService,sans-serif" font-size="61.8125" x="3216.85" y="2105.68">𝑛</text><path d="M3436.15 2113.4C3434.03 2114.99 3432.44 2116.66 3431.37 2118.43 3430.31 2120.2 3429.78 2122.21 3429.78 2124.46 3429.78 2128.21 3431.27 2130.98 3434.25 2132.75 3437.23 2134.52 3441.78 2135.4 3447.9 2135.4 3451.65 2135.4 3454.87 2134.9 3457.56 2133.9 3460.25 2132.9 3462.3 2131.46 3463.72 2129.59 3465.13 2127.71 3465.84 2125.53 3465.84 2123.03 3465.84 2121.86 3465.7 2120.73 3465.4 2119.62 3465.11 2118.52 3464.56 2117.53 3463.75 2116.65 3462.94 2115.78 3461.78 2115.08 3460.28 2114.56 3458.78 2114.04 3456.82 2113.78 3454.4 2113.78L3445.09 2113.78C3441.72 2113.78 3438.74 2113.65 3436.15 2113.4ZM3381.84 2056.53C3376.8 2056.53 3372.94 2058.71 3370.25 2063.09 3367.56 2067.46 3366.22 2073.69 3366.22 2081.78 3366.22 2090.36 3367.58 2096.95 3370.31 2101.56 3373.04 2106.16 3376.95 2108.46 3382.03 2108.46 3384.82 2108.46 3387.2 2107.79 3389.15 2106.43 3391.11 2105.08 3392.71 2103.26 3393.94 2100.96 3395.16 2098.67 3396.05 2096.02 3396.59 2093 3397.13 2089.98 3397.4 2086.82 3397.4 2083.53 3397.4 2077.4 3396.73 2072.32 3395.37 2068.28 3394.02 2064.24 3392.18 2061.27 3389.84 2059.37 3387.51 2057.48 3384.84 2056.53 3381.84 2056.53ZM3446.78 2056.34C3442.82 2056.34 3439.8 2057.65 3437.72 2060.28 3435.63 2062.9 3434.59 2066.69 3434.59 2071.65 3434.59 2076.86 3435.65 2080.88 3437.78 2083.71 3439.9 2086.55 3442.97 2087.96 3446.97 2087.96 3449.09 2087.96 3450.9 2087.56 3452.4 2086.75 3453.9 2085.93 3455.12 2084.82 3456.06 2083.4 3457 2081.99 3457.69 2080.35 3458.12 2078.5 3458.56 2076.64 3458.78 2074.69 3458.78 2072.65 3458.78 2068.99 3458.26 2065.92 3457.22 2063.46 3456.18 2061.01 3454.76 2059.2 3452.97 2058.06 3451.18 2056.91 3449.11 2056.34 3446.78 2056.34ZM3446.9 2051.59C3449.9 2051.59 3452.88 2051.94 3455.84 2052.65L3477.97 2052.65 3477.97 2058.96 3466.4 2058.53 3465.84 2059.21C3467.13 2060.51 3468.15 2062.27 3468.9 2064.5 3469.65 2066.73 3470.03 2069.13 3470.03 2071.71 3470.03 2078.51 3467.94 2083.75 3463.75 2087.43 3459.56 2091.12 3453.61 2092.96 3445.9 2092.96 3442.45 2092.96 3439.47 2092.53 3436.97 2091.65 3433.8 2094.07 3432.22 2096.44 3432.22 2098.78 3432.22 2100.32 3432.52 2101.49 3433.12 2102.28 3433.73 2103.07 3434.73 2103.63 3436.12 2103.96 3437.52 2104.3 3439.63 2104.46 3442.47 2104.46L3457.47 2104.46C3461.88 2104.46 3465.49 2105.15 3468.28 2106.53 3471.07 2107.9 3473.06 2109.75 3474.25 2112.06 3475.44 2114.37 3476.03 2117.07 3476.03 2120.15 3476.03 2124.07 3474.9 2127.56 3472.65 2130.62 3470.4 2133.68 3467.15 2136.07 3462.9 2137.78 3458.65 2139.49 3453.7 2140.34 3448.03 2140.34 3443.82 2140.34 3439.98 2140.09 3436.5 2139.59 3433.02 2139.09 3430.04 2138.25 3427.56 2137.06 3425.08 2135.87 3423.16 2134.31 3421.81 2132.37 3420.46 2130.43 3419.78 2128.01 3419.78 2125.09 3419.78 2122.46 3420.65 2120.08 3422.4 2117.93 3424.15 2115.79 3426.63 2113.9 3429.84 2112.28 3427.88 2111.49 3426.34 2110.32 3425.22 2108.78 3424.09 2107.24 3423.53 2105.42 3423.53 2103.34 3423.53 2100.96 3424.2 2098.79 3425.53 2096.81 3426.86 2094.83 3429.22 2092.57 3432.59 2090.03 3429.59 2088.28 3427.31 2085.9 3425.75 2082.9 3424.19 2079.9 3423.4 2076.49 3423.4 2072.65 3423.4 2069.07 3424 2065.95 3425.19 2063.31 3426.37 2060.66 3428.02 2058.48 3430.12 2056.75 3432.23 2055.02 3434.72 2053.73 3437.59 2052.87 3440.47 2052.02 3443.57 2051.59 3446.9 2051.59ZM3382.09 2051.59C3391.01 2051.59 3397.76 2054.18 3402.34 2059.37 3406.93 2064.56 3409.22 2072.01 3409.22 2081.71 3409.22 2088.63 3408.07 2094.46 3405.78 2099.21 3403.49 2103.96 3400.24 2107.52 3396.03 2109.87 3391.82 2112.23 3386.84 2113.4 3381.09 2113.4 3372.43 2113.4 3365.81 2110.85 3361.25 2105.75 3356.69 2100.64 3354.4 2093.09 3354.4 2083.09 3354.4 2076.21 3355.6 2070.4 3358 2065.65 3360.39 2060.9 3363.68 2057.37 3367.84 2055.06 3372.01 2052.75 3376.76 2051.59 3382.09 2051.59ZM3331.84 2022.96 3335.59 2022.96 3335.59 2096.78C3335.59 2100.36 3335.76 2102.85 3336.09 2104.25 3336.43 2105.64 3337.06 2106.7 3338 2107.43 3338.94 2108.16 3340.47 2108.8 3342.59 2109.34L3342.59 2112.4 3317.78 2112.4 3317.78 2109.34C3319.86 2108.8 3321.31 2108.24 3322.12 2107.65 3322.94 2107.07 3323.52 2106.37 3323.87 2105.56 3324.23 2104.75 3324.48 2103.64 3324.62 2102.25 3324.77 2100.85 3324.84 2099.03 3324.84 2096.78L3324.84 2044.46C3324.84 2040.46 3324.81 2037.67 3324.75 2036.09 3324.69 2034.51 3324.52 2033.16 3324.25 2032.06 3323.98 2030.95 3323.6 2030.09 3323.12 2029.46 3322.64 2028.84 3322 2028.34 3321.19 2027.96 3320.37 2027.59 3318.9 2027.21 3316.78 2026.84L3316.78 2023.59Z" fill="#00B050" fill-rule="evenodd"/><text fill="#000000" fill-opacity="0" font-family="Arial,Arial_MSFontService,sans-serif" font-size="117.375" x="3316.78" y="2125.67">log</text><path d="M3520.63 2051.59C3523.25 2051.59 3525.33 2052.45 3526.85 2054.18 3528.37 2055.91 3529.13 2058.17 3529.13 2060.96 3529.13 2063.17 3528.63 2065.63 3527.63 2068.34L3528.38 2068.59C3532.46 2062.84 3536.35 2058.58 3540.04 2055.81 3543.72 2053.04 3547.53 2051.65 3551.44 2051.65 3555.32 2051.65 3558.3 2052.77 3560.38 2055 3562.46 2057.23 3563.5 2060.32 3563.5 2064.28 3563.5 2066.9 3562.9 2070.63 3561.69 2075.46L3557.63 2091.84C3556.5 2096.38 3555.94 2099.59 3555.94 2101.46 3555.94 2103.13 3556.21 2104.34 3556.75 2105.09 3557.3 2105.84 3558.15 2106.21 3559.32 2106.21 3560.57 2106.21 3561.9 2105.7 3563.32 2104.68 3564.73 2103.66 3566.73 2101.71 3569.32 2098.84L3572.88 2102.34C3569.3 2106.17 3566.17 2108.98 3563.5 2110.75 3560.84 2112.52 3557.8 2113.4 3554.38 2113.4 3551.67 2113.4 3549.5 2112.43 3547.88 2110.5 3546.25 2108.56 3545.44 2106.09 3545.44 2103.09 3545.44 2100.38 3546.13 2096.4 3547.5 2091.15L3550.25 2080.34C3551.25 2076.42 3551.91 2073.53 3552.22 2071.65 3552.54 2069.78 3552.69 2068.26 3552.69 2067.09 3552.69 2064.21 3552.21 2062.14 3551.25 2060.87 3550.3 2059.6 3548.73 2058.96 3546.57 2058.96 3544.82 2058.96 3542.93 2059.66 3540.91 2061.06 3538.89 2062.45 3536.74 2064.56 3534.47 2067.37 3532.2 2070.18 3530.38 2072.91 3529 2075.56 3527.63 2078.2 3526.5 2081.46 3525.63 2085.34L3519.69 2112.4 3508.88 2112.4 3518 2072.78C3518.92 2068.78 3519.38 2065.69 3519.38 2063.53 3519.38 2061.86 3519.11 2060.65 3518.57 2059.9 3518.03 2059.15 3517.17 2058.78 3516 2058.78 3514.71 2058.78 3513.35 2059.31 3511.91 2060.37 3510.47 2061.43 3508.5 2063.36 3506 2066.15L3502.44 2062.65C3506.28 2058.65 3509.46 2055.81 3512 2054.12 3514.55 2052.43 3517.42 2051.59 3520.63 2051.59Z" fill="#00B050" fill-rule="evenodd"/><text fill="#000000" fill-opacity="0" font-family="Arial,Arial_MSFontService,sans-serif" font-size="61.8125" x="3502.44" y="2105.68">𝑛</text></g></svg>