<svg width="888" height="856" xmlns="http://www.w3.org/2000/svg" xmlns:xlink="http://www.w3.org/1999/xlink" xml:space="preserve" overflow="hidden"><g transform="translate(-1544 -1134)"><path d="M1736.5 1451C1736.5 1435.81 1748.81 1423.5 1764 1423.5 1779.19 1423.5 1791.5 1435.81 1791.5 1451 1791.5 1466.19 1779.19 1478.5 1764 1478.5 1748.81 1478.5 1736.5 1466.19 1736.5 1451Z" stroke="#2F528F" stroke-width="4.58333" stroke-miterlimit="8" fill="#C00000" fill-rule="evenodd"/><path d="M1681.5 1728C1681.5 1712.81 1693.81 1700.5 1709 1700.5 1724.19 1700.5 1736.5 1712.81 1736.5 1728 1736.5 1743.19 1724.19 1755.5 1709 1755.5 1693.81 1755.5 1681.5 1743.19 1681.5 1728Z" stroke="#2F528F" stroke-width="4.58333" stroke-miterlimit="8" fill="#00B050" fill-rule="evenodd"/><path d="M1873.5 1830C1873.5 1814.81 1885.81 1802.5 1901 1802.5 1916.19 1802.5 1928.5 1814.81 1928.5 1830 1928.5 1845.19 1916.19 1857.5 1901 1857.5 1885.81 1857.5 1873.5 1845.19 1873.5 1830Z" stroke="#2F528F" stroke-width="4.58333" stroke-miterlimit="8" fill="#4472C4" fill-rule="evenodd"/><path d="M2009.5 1305C2009.5 1289.81 2021.81 1277.5 2037 1277.5 2052.19 1277.5 2064.5 1289.81 2064.5 1305 2064.5 1320.19 2052.19 1332.5 2037 1332.5 2021.81 1332.5 2009.5 1320.19 2009.5 1305Z" stroke="#2F528F" stroke-width="4.58333" stroke-miterlimit="8" fill="#4472C4" fill-rule="evenodd"/><path d="M2247.5 1701C2247.5 1685.81 2259.81 1673.5 2275 1673.5 2290.19 1673.5 2302.5 1685.81 2302.5 1701 2302.5 1716.19 2290.19 1728.5 2275 1728.5 2259.81 1728.5 2247.5 1716.19 2247.5 1701Z" stroke="#2F528F" stroke-width="4.58333" stroke-miterlimit="8" fill="#C00000" fill-rule="evenodd"/><path d="M2247.5 1478C2247.5 1462.81 2259.81 1450.5 2275 1450.5 2290.19 1450.5 2302.5 1462.81 2302.5 1478 2302.5 1493.19 2290.19 1505.5 2275 1505.5 2259.81 1505.5 2247.5 1493.19 2247.5 1478Z" stroke="#2F528F" stroke-width="4.58333" stroke-miterlimit="8" fill="#00B050" fill-rule="evenodd"/><path d="M2064.5 1304.5 2255.89 1458.3" stroke="#4472C4" stroke-width="4.58333" stroke-miterlimit="8" fill="none" fill-rule="evenodd"/><path d="M2275.5 1505.5 2275.5 1673.25" stroke="#4472C4" stroke-width="4.58333" stroke-miterlimit="8" fill="none" fill-rule="evenodd"/><path d="M0 0 327.054 109.804" stroke="#4472C4" stroke-width="4.58333" stroke-miterlimit="8" fill="none" fill-rule="evenodd" transform="matrix(1 0 0 -1 1928.5 1830.3)"/><path d="M0 0 55 222.75" stroke="#4472C4" stroke-width="4.58333" stroke-miterlimit="8" fill="none" fill-rule="evenodd" transform="matrix(-1 0 0 1 1763.5 1478.5)"/><path d="M0 0 226.221 126.304" stroke="#4472C4" stroke-width="4.58333" stroke-miterlimit="8" fill="none" fill-rule="evenodd" transform="matrix(-1 0 0 1 2009.72 1304.5)"/><path d="M1728.5 1747.5 1874.05 1829.8" stroke="#4472C4" stroke-width="4.58333" stroke-miterlimit="8" fill="none" fill-rule="evenodd"/><path d="M1791.5 1450.5 2248 1478" stroke="#4472C4" stroke-width="4.58333" stroke-miterlimit="8" fill="none" fill-rule="evenodd"/><path d="M2067.11 1171.31 2069.34 1171.31C2069.18 1173.9 2069.1 1177.49 2069.1 1182.09L2069.1 1216.7C2069.1 1218.26 2069.18 1219.45 2069.36 1220.24 2069.54 1221.04 2069.85 1221.69 2070.29 1222.19 2070.74 1222.69 2071.38 1223.08 2072.22 1223.36 2073.05 1223.65 2074.11 1223.86 2075.38 1224.01 2076.65 1224.16 2078.32 1224.26 2080.4 1224.32L2080.4 1227.27 2050.45 1227.27 2050.45 1224.32C2053.45 1224.18 2055.59 1224 2056.88 1223.77 2058.16 1223.54 2059.14 1223.19 2059.82 1222.73 2060.49 1222.28 2060.98 1221.63 2061.29 1220.79 2061.61 1219.95 2061.76 1218.59 2061.76 1216.7L2061.76 1183.83C2061.76 1182.75 2061.57 1181.96 2061.19 1181.46 2060.82 1180.96 2060.26 1180.71 2059.53 1180.71 2058.67 1180.71 2057.44 1181.15 2055.84 1182.05 2054.25 1182.94 2052.28 1184.17 2049.93 1185.73L2048.14 1182.61Z" fill-rule="evenodd"/><text fill="#000000" fill-opacity="0" font-family="Arial,Arial_MSFontService,sans-serif" font-size="55.9683" x="2048.14" y="1220.28">1</text><path d="M2364.53 1432.57C2369.56 1432.57 2373.35 1433.67 2375.92 1435.87 2378.49 1438.07 2379.77 1441.27 2379.77 1445.45 2379.77 1446.89 2379.63 1448.2 2379.34 1449.41 2379.06 1450.61 2378.61 1451.8 2378.01 1452.97 2377.4 1454.15 2376.58 1455.41 2375.56 1456.76 2374.53 1458.11 2373.39 1459.48 2372.15 1460.88 2370.91 1462.27 2368.76 1464.58 2365.71 1467.83 2360.57 1473.26 2356.8 1478 2354.4 1482.05L2369.68 1482.05C2371 1482.05 2372.07 1481.97 2372.88 1481.81 2373.69 1481.65 2374.34 1481.38 2374.83 1481 2375.31 1480.62 2375.7 1480.13 2375.98 1479.52 2376.26 1478.91 2376.62 1477.97 2377.05 1476.7L2380.5 1476.7 2379.81 1488.54 2346.46 1488.54 2346.46 1486.59C2347.62 1483.75 2349.19 1480.85 2351.16 1477.88 2353.13 1474.9 2355.93 1471.41 2359.55 1467.38 2362.68 1463.92 2364.94 1461.3 2366.31 1459.52 2367.83 1457.57 2368.96 1455.89 2369.7 1454.47 2370.44 1453.05 2370.98 1451.72 2371.3 1450.46 2371.62 1449.2 2371.79 1447.94 2371.79 1446.67 2371.79 1444.64 2371.46 1442.85 2370.81 1441.3 2370.17 1439.75 2369.17 1438.52 2367.83 1437.63 2366.5 1436.74 2364.82 1436.3 2362.79 1436.3 2357.74 1436.3 2354.33 1439.11 2352.58 1444.73L2347.67 1444.73 2347.67 1436.94C2350.94 1435.4 2354 1434.29 2356.85 1433.6 2359.7 1432.91 2362.26 1432.57 2364.53 1432.57Z" fill-rule="evenodd"/><text fill="#000000" fill-opacity="0" font-family="Arial,Arial_MSFontService,sans-serif" font-size="55.9683" x="2346.46" y="1481.54">2</text><path d="M2357.4 1698.67C2360.46 1698.67 2363.13 1699.15 2365.43 1700.09 2367.73 1701.04 2369.48 1702.39 2370.7 1704.16 2371.91 1705.93 2372.52 1708.05 2372.52 1710.51 2372.52 1712.8 2372.06 1714.82 2371.14 1716.57 2370.22 1718.31 2368.93 1719.83 2367.27 1721.12 2365.61 1722.42 2363.46 1723.69 2360.81 1724.93L2360.81 1725.3C2362.46 1725.6 2364.04 1726.1 2365.57 1726.82 2367.1 1727.53 2368.45 1728.46 2369.64 1729.6 2370.83 1730.73 2371.78 1732.09 2372.5 1733.67 2373.22 1735.25 2373.57 1737.05 2373.57 1739.08 2373.57 1742.21 2372.89 1745 2371.53 1747.43 2370.16 1749.86 2368.08 1751.78 2365.27 1753.18 2362.46 1754.59 2359.04 1755.29 2355.01 1755.29 2352.69 1755.29 2350.18 1755.03 2347.5 1754.5 2344.81 1753.97 2342.34 1753.28 2340.1 1752.41L2340.1 1743.82 2344.96 1743.82C2345.91 1746.63 2347.16 1748.67 2348.71 1749.94 2350.26 1751.21 2352.38 1751.84 2355.05 1751.84 2358.57 1751.84 2361.22 1750.89 2363.02 1748.97 2364.81 1747.05 2365.71 1744.21 2365.71 1740.46 2365.71 1736.51 2364.52 1733.5 2362.15 1731.42 2359.77 1729.34 2356.28 1728.3 2351.69 1728.3L2348.04 1728.3 2348.04 1724.73C2351.69 1724.52 2354.76 1723.81 2357.26 1722.62 2359.76 1721.44 2361.62 1719.91 2362.83 1718.04 2364.05 1716.18 2364.66 1714.09 2364.66 1711.76 2364.66 1708.76 2363.86 1706.45 2362.27 1704.83 2360.67 1703.21 2358.35 1702.4 2355.3 1702.4 2352.76 1702.4 2350.69 1703.09 2349.1 1704.47 2347.5 1705.85 2346.33 1707.95 2345.57 1710.79L2340.71 1710.79 2340.71 1703.09C2343.84 1701.6 2346.77 1700.5 2349.5 1699.77 2352.23 1699.04 2354.86 1698.67 2357.4 1698.67Z" fill-rule="evenodd"/><text fill="#000000" fill-opacity="0" font-family="Arial,Arial_MSFontService,sans-serif" font-size="56.6167" x="2340.1" y="1748.21">3</text><path d="M1623.01 1736.97 1626.17 1736.97 1625.56 1746.37 1602.26 1746.37 1602.26 1764.16C1603.66 1763.57 1605.19 1763.12 1606.84 1762.83 1608.49 1762.53 1610.13 1762.38 1611.78 1762.38 1615 1762.38 1617.85 1763.04 1620.33 1764.35 1622.82 1765.66 1624.74 1767.52 1626.09 1769.94 1627.44 1772.36 1628.11 1775.16 1628.11 1778.35 1628.11 1781.97 1627.36 1785.08 1625.84 1787.67 1624.33 1790.26 1622.14 1792.24 1619.28 1793.59 1616.42 1794.94 1613.02 1795.61 1609.11 1795.61 1604.43 1795.61 1599.54 1794.65 1594.44 1792.74L1594.44 1784.14 1599.34 1784.14C1600.15 1786.9 1601.37 1788.93 1603.01 1790.22 1604.64 1791.52 1606.76 1792.17 1609.35 1792.17 1612.94 1792.17 1615.66 1791.09 1617.5 1788.93 1619.33 1786.76 1620.25 1783.54 1620.25 1779.24 1620.25 1776.38 1619.77 1774 1618.79 1772.13 1617.82 1770.25 1616.51 1768.89 1614.86 1768.05 1613.21 1767.22 1611.3 1766.8 1609.11 1766.8 1607.27 1766.8 1605.69 1766.91 1604.37 1767.14 1603.04 1767.37 1601.62 1767.73 1600.11 1768.22L1596.87 1766.31 1596.87 1739.64 1619.2 1739.64C1620.12 1739.64 1620.78 1739.57 1621.18 1739.42 1621.59 1739.27 1621.91 1739.04 1622.16 1738.73 1622.4 1738.42 1622.68 1737.83 1623.01 1736.97Z" fill-rule="evenodd"/><text fill="#000000" fill-opacity="0" font-family="Arial,Arial_MSFontService,sans-serif" font-size="58.6431" x="1594.44" y="1788.28">5</text><path d="M1685.2 1392.71C1683.88 1392.71 1682.6 1392.86 1681.37 1393.16 1680.14 1393.45 1678.99 1393.89 1677.9 1394.45 1676.82 1395.02 1675.77 1395.74 1674.74 1396.6 1674.42 1396.9 1674.18 1397.21 1674.01 1397.53 1673.74 1398.05 1673.57 1398.68 1673.49 1399.44 1673.41 1400.2 1673.37 1401.47 1673.37 1403.25 1673.37 1408.41 1674.23 1412.34 1675.96 1415.04 1677.69 1417.74 1680.31 1419.09 1683.82 1419.09 1685.85 1419.09 1687.55 1418.74 1688.93 1418.04 1690.31 1417.34 1691.42 1416.37 1692.27 1415.14 1693.12 1413.91 1693.73 1412.47 1694.1 1410.81 1694.46 1409.15 1694.64 1407.34 1694.64 1405.4 1694.64 1401.4 1693.82 1398.28 1692.17 1396.05 1690.52 1393.83 1688.2 1392.71 1685.2 1392.71ZM1695.61 1365.92 1697.28 1368.15 1697.28 1370.14C1693.12 1370.14 1689.43 1371.03 1686.21 1372.81 1683 1374.6 1680.33 1377.22 1678.21 1380.67 1676.09 1384.13 1674.59 1388.24 1673.73 1392.99L1674.14 1393.16C1676.4 1391.54 1678.64 1390.35 1680.84 1389.59 1683.04 1388.83 1685.43 1388.46 1688 1388.46 1691.05 1388.46 1693.65 1389.12 1695.8 1390.46 1697.95 1391.8 1699.56 1393.68 1700.64 1396.1 1701.72 1398.51 1702.26 1401.34 1702.26 1404.59 1702.26 1408.1 1701.59 1411.2 1700.23 1413.89 1698.88 1416.58 1696.8 1418.69 1693.97 1420.23 1691.15 1421.77 1687.67 1422.54 1683.54 1422.54 1677.62 1422.54 1673.16 1420.7 1670.14 1417.03 1667.13 1413.35 1665.62 1407.94 1665.62 1400.78 1665.62 1395.97 1666.38 1391.47 1667.89 1387.28 1669.41 1383.09 1671.56 1379.44 1674.34 1376.32 1677.12 1373.2 1680.35 1370.74 1684.02 1368.94 1687.7 1367.15 1691.56 1366.14 1695.61 1365.92Z" fill-rule="evenodd"/><text fill="#000000" fill-opacity="0" font-family="Arial,Arial_MSFontService,sans-serif" font-size="56.6167" x="1665.62" y="1415.46">6</text><path d="M1903.42 1904.09 1887.57 1929.26 1887.57 1929.83 1903.42 1929.83 1903.42 1919.73C1903.42 1917.2 1903.46 1914.35 1903.54 1911.2 1903.62 1908.06 1903.71 1905.69 1903.82 1904.09ZM1904.59 1894.93 1910.39 1894.93 1910.39 1929.83 1911.24 1929.83C1912.81 1929.83 1913.93 1929.71 1914.6 1929.48 1915.28 1929.25 1915.84 1928.85 1916.28 1928.27 1916.73 1927.68 1917.14 1926.73 1917.52 1925.41L1920.6 1925.41 1920.11 1933.76 1910.39 1933.76 1910.39 1940.4C1910.39 1942.21 1910.45 1943.54 1910.57 1944.38 1910.69 1945.21 1910.89 1945.87 1911.18 1946.36 1911.46 1946.85 1911.88 1947.25 1912.43 1947.58 1912.99 1947.9 1913.89 1948.23 1915.13 1948.55L1915.13 1950.54 1898.68 1950.54 1898.68 1948.55C1900.35 1948.12 1901.47 1947.64 1902.04 1947.11 1902.61 1946.58 1902.98 1945.83 1903.15 1944.86 1903.33 1943.89 1903.42 1942.4 1903.42 1940.4L1903.42 1933.76 1880.88 1933.76 1880.88 1930.72Z" fill-rule="evenodd"/><text fill="#000000" fill-opacity="0" font-family="Arial,Arial_MSFontService,sans-serif" font-size="55.6035" x="1880.88" y="1943.59">4</text></g></svg>