<svg width="1658" height="798" xmlns="http://www.w3.org/2000/svg" xmlns:xlink="http://www.w3.org/1999/xlink" xml:space="preserve" overflow="hidden"><g transform="translate(-880 -989)"><text font-family="DengXian,DengXian_MSFontService,sans-serif" font-weight="700" font-size="83" transform="matrix(1 0 0 1 1867.88 1091)">(?,…)</text><text font-family="DengXian,DengXian_MSFontService,sans-serif" font-weight="700" font-size="83" transform="matrix(1 0 0 1 1626.81 1288)">(</text><text fill="#0070C0" font-family="DengXian,DengXian_MSFontService,sans-serif" font-weight="700" font-size="83" transform="matrix(1 0 0 1 1654.31 1288)">1</text><text font-family="DengXian,DengXian_MSFontService,sans-serif" font-weight="700" font-size="83" transform="matrix(1 0 0 1 1700.15 1288)">,…)</text><text font-family="DengXian,DengXian_MSFontService,sans-serif" font-weight="700" font-size="83" transform="matrix(1 0 0 1 1176.93 1513)">(</text><text fill="#0070C0" font-family="DengXian,DengXian_MSFontService,sans-serif" font-weight="700" font-size="83" transform="matrix(1 0 0 1 1204.43 1513)">1</text><text font-family="DengXian,DengXian_MSFontService,sans-serif" font-weight="700" font-size="83" transform="matrix(1 0 0 1 1250.26 1513)">,</text><text fill="#00B050" font-family="DengXian,DengXian_MSFontService,sans-serif" font-weight="700" font-size="83" transform="matrix(1 0 0 1 1270.31 1513)">2</text><text font-family="DengXian,DengXian_MSFontService,sans-serif" font-weight="700" font-size="83" transform="matrix(1 0 0 1 1316.15 1513)">,…)</text><text font-family="DengXian,DengXian_MSFontService,sans-serif" font-weight="700" font-size="83" transform="matrix(1 0 0 1 2014.47 1513)">(</text><text fill="#0070C0" font-family="DengXian,DengXian_MSFontService,sans-serif" font-weight="700" font-size="83" transform="matrix(1 0 0 1 2041.97 1513)">1</text><text font-family="DengXian,DengXian_MSFontService,sans-serif" font-weight="700" font-size="83" transform="matrix(1 0 0 1 2087.8 1513)">,</text><text fill="#C00000" font-family="DengXian,DengXian_MSFontService,sans-serif" font-weight="700" font-size="83" transform="matrix(1 0 0 1 2107.85 1513)">2</text><text font-family="DengXian,DengXian_MSFontService,sans-serif" font-weight="700" font-size="83" transform="matrix(1 0 0 1 2153.69 1513)">,…)</text><path d="M0.597652-2.21236 214.913 55.6833 213.718 60.108-0.597652 2.21236ZM213.477 43.4262 236.439 63.8722 206.305 69.9745Z" fill="#4472C4" transform="matrix(-1 0 0 1 1958.94 1131.5)"/><path d="M1959.73 1129.57 2104.23 1221.84 2101.77 1225.7 1957.27 1133.43ZM2106.54 1209.71 2122.31 1236.1 2091.74 1232.89Z" fill="#4472C4"/><path d="M1959.09 1129.29 2329.74 1227.99 2328.56 1232.42 1957.91 1133.71ZM2328.26 1215.74 2351.29 1236.1 2321.18 1242.31Z" fill="#4472C4"/><path d="M0.48997-2.23868 394.721 84.0451 393.741 88.5224-0.48997 2.23868ZM392.694 71.8717 416.618 91.1834 386.814 98.7358Z" fill="#4472C4" transform="matrix(-1 0 0 1 1722.12 1328.5)"/><path d="M1722.99 1326.26 2121.51 1412.59 2120.54 1417.07 1722.01 1330.74ZM2119.46 1400.42 2143.42 1419.68 2113.63 1427.3Z" fill="#4472C4"/><text font-family="DengXian,DengXian_MSFontService,sans-serif" font-weight="700" font-size="83" transform="matrix(1 0 0 1 2170.6 1262)">…</text><text font-family="DengXian,DengXian_MSFontService,sans-serif" font-weight="700" font-size="83" transform="matrix(1 0 0 1 929.706 1715)">(</text><text fill="#0070C0" font-family="DengXian,DengXian_MSFontService,sans-serif" font-weight="700" font-size="83" transform="matrix(1 0 0 1 957.206 1715)">1</text><text font-family="DengXian,DengXian_MSFontService,sans-serif" font-weight="700" font-size="83" transform="matrix(1 0 0 1 1003.04 1715)">,</text><text fill="#00B050" font-family="DengXian,DengXian_MSFontService,sans-serif" font-weight="700" font-size="83" transform="matrix(1 0 0 1 1023.09 1715)">2</text><text font-family="DengXian,DengXian_MSFontService,sans-serif" font-weight="700" font-size="83" transform="matrix(1 0 0 1 1068.93 1715)">,</text><text fill="#0070C0" font-family="DengXian,DengXian_MSFontService,sans-serif" font-weight="700" font-size="83" transform="matrix(1 0 0 1 1088.98 1715)">3</text><text font-family="DengXian,DengXian_MSFontService,sans-serif" font-weight="700" font-size="83" transform="matrix(1 0 0 1 1134.81 1715)">,…)</text><text font-family="DengXian,DengXian_MSFontService,sans-serif" font-weight="700" font-size="83" transform="matrix(1 0 0 1 1348.72 1715)">(</text><text fill="#0070C0" font-family="DengXian,DengXian_MSFontService,sans-serif" font-weight="700" font-size="83" transform="matrix(1 0 0 1 1376.22 1715)">1</text><text font-family="DengXian,DengXian_MSFontService,sans-serif" font-weight="700" font-size="83" transform="matrix(1 0 0 1 1422.06 1715)">,</text><text fill="#00B050" font-family="DengXian,DengXian_MSFontService,sans-serif" font-weight="700" font-size="83" transform="matrix(1 0 0 1 1442.11 1715)">2</text><text font-family="DengXian,DengXian_MSFontService,sans-serif" font-weight="700" font-size="83" transform="matrix(1 0 0 1 1487.94 1715)">,</text><text fill="#C00000" font-family="DengXian,DengXian_MSFontService,sans-serif" font-weight="700" font-size="83" transform="matrix(1 0 0 1 1507.99 1715)">3</text><text font-family="DengXian,DengXian_MSFontService,sans-serif" font-weight="700" font-size="83" transform="matrix(1 0 0 1 1553.83 1715)">,…)</text><text font-family="DengXian,DengXian_MSFontService,sans-serif" font-weight="700" font-size="83" transform="matrix(1 0 0 1 1796.13 1711)">(</text><text fill="#0070C0" font-family="DengXian,DengXian_MSFontService,sans-serif" font-weight="700" font-size="83" transform="matrix(1 0 0 1 1823.63 1711)">1</text><text font-family="DengXian,DengXian_MSFontService,sans-serif" font-weight="700" font-size="83" transform="matrix(1 0 0 1 1869.47 1711)">,</text><text fill="#C00000" font-family="DengXian,DengXian_MSFontService,sans-serif" font-weight="700" font-size="83" transform="matrix(1 0 0 1 1889.52 1711)">2</text><text font-family="DengXian,DengXian_MSFontService,sans-serif" font-weight="700" font-size="83" transform="matrix(1 0 0 1 1935.35 1711)">,</text><text fill="#0070C0" font-family="DengXian,DengXian_MSFontService,sans-serif" font-weight="700" font-size="83" transform="matrix(1 0 0 1 1955.4 1711)">3</text><text font-family="DengXian,DengXian_MSFontService,sans-serif" font-weight="700" font-size="83" transform="matrix(1 0 0 1 2001.24 1711)">,…)</text><text font-family="DengXian,DengXian_MSFontService,sans-serif" font-weight="700" font-size="83" transform="matrix(1 0 0 1 2168.01 1711)">(</text><text fill="#0070C0" font-family="DengXian,DengXian_MSFontService,sans-serif" font-weight="700" font-size="83" transform="matrix(1 0 0 1 2195.51 1711)">1</text><text font-family="DengXian,DengXian_MSFontService,sans-serif" font-weight="700" font-size="83" transform="matrix(1 0 0 1 2241.34 1711)">,</text><text fill="#C00000" font-family="DengXian,DengXian_MSFontService,sans-serif" font-weight="700" font-size="83" transform="matrix(1 0 0 1 2261.39 1711)">2</text><text font-family="DengXian,DengXian_MSFontService,sans-serif" font-weight="700" font-size="83" transform="matrix(1 0 0 1 2307.23 1711)">,</text><text fill="#00B050" font-family="DengXian,DengXian_MSFontService,sans-serif" font-weight="700" font-size="83" transform="matrix(1 0 0 1 2327.28 1711)">3</text><text font-family="DengXian,DengXian_MSFontService,sans-serif" font-weight="700" font-size="83" transform="matrix(1 0 0 1 2373.11 1711)">,…)</text><path d="M0.70636-2.18009 192.865 60.0802 191.452 64.4403-0.70636 2.18009ZM192.036 47.767 213.959 69.3238 183.56 73.928Z" fill="#4472C4" transform="matrix(-1 0 0 1 1305.46 1553.5)"/><path d="M1306.23 1551.33 1489.58 1613.31 1488.11 1617.66 1304.77 1555.67ZM1488.91 1600.99 1510.56 1622.82 1480.1 1627.04Z" fill="#4472C4"/><path d="M0.75444-2.16392 164.187 54.816 162.678 59.1438-0.75444 2.16392ZM163.631 42.4875 185.072 64.5243 154.578 68.4546Z" fill="#4472C4" transform="matrix(-1 0 0 1 2143.57 1553.5)"/><path d="M2144.25 1551.33 2309.39 1608.38 2307.89 1612.71 2142.75 1555.67ZM2308.8 1596.05 2330.3 1618.02 2299.82 1622.04Z" fill="#4472C4"/></g></svg>