<svg width="957" height="1186" xmlns="http://www.w3.org/2000/svg" xmlns:xlink="http://www.w3.org/1999/xlink" xml:space="preserve" overflow="hidden"><g transform="translate(-2989 -459)"><path d="M3055.5 600.5 3055.5 1315.39" stroke="#4472C4" stroke-width="4.58333" stroke-miterlimit="8" stroke-dasharray="18.3333 13.75" fill="none" fill-rule="evenodd"/><path d="M3196.5 600.5 3196.5 1315.39" stroke="#4472C4" stroke-width="4.58333" stroke-miterlimit="8" stroke-dasharray="18.3333 13.75" fill="none" fill-rule="evenodd"/><path d="M3338.5 600.5 3338.5 1315.39" stroke="#4472C4" stroke-width="4.58333" stroke-miterlimit="8" stroke-dasharray="18.3333 13.75" fill="none" fill-rule="evenodd"/><path d="M3479.5 600.5 3479.5 1315.39" stroke="#4472C4" stroke-width="4.58333" stroke-miterlimit="8" stroke-dasharray="18.3333 13.75" fill="none" fill-rule="evenodd"/><path d="M3062.91 496.782 3065.14 496.782C3064.98 499.375 3064.9 502.969 3064.9 507.562L3064.9 542.172C3064.9 543.739 3064.99 544.921 3065.16 545.719 3065.34 546.516 3065.65 547.164 3066.1 547.664 3066.54 548.164 3067.18 548.555 3068.02 548.839 3068.86 549.123 3069.91 549.339 3071.18 549.488 3072.45 549.636 3074.13 549.737 3076.21 549.792L3076.21 552.75 3046.26 552.75 3046.26 549.792C3049.26 549.656 3051.4 549.474 3052.68 549.244 3053.96 549.015 3054.94 548.67 3055.62 548.211 3056.29 547.752 3056.79 547.103 3057.1 546.266 3057.41 545.428 3057.56 544.064 3057.56 542.172L3057.56 509.305C3057.56 508.224 3057.38 507.434 3057 506.934 3056.62 506.434 3056.06 506.184 3055.34 506.184 3054.47 506.184 3053.24 506.63 3051.65 507.521 3050.05 508.413 3048.08 509.642 3045.73 511.209L3043.95 508.089Z" fill-rule="evenodd"/><text fill="#000000" fill-opacity="0" font-family="Arial,Arial_MSFontService,sans-serif" font-size="55.9683" x="3043.95" y="545.754">1</text><path d="M3199.71 496.782C3204.73 496.782 3208.53 497.883 3211.09 500.085 3213.66 502.287 3214.94 505.482 3214.94 509.669 3214.94 511.101 3214.8 512.419 3214.52 513.621 3214.23 514.823 3213.79 516.012 3213.18 517.187 3212.57 518.363 3211.76 519.626 3210.73 520.977 3209.7 522.327 3208.57 523.699 3207.32 525.09 3206.08 526.482 3203.93 528.798 3200.88 532.041 3195.75 537.471 3191.98 542.213 3189.57 546.266L3204.85 546.266C3206.18 546.266 3207.24 546.185 3208.05 546.022 3208.86 545.86 3209.51 545.59 3210 545.212 3210.49 544.834 3210.87 544.341 3211.15 543.733 3211.44 543.125 3211.8 542.186 3212.23 540.916L3215.67 540.916 3214.98 552.75 3181.63 552.75 3181.63 550.805C3182.79 547.968 3184.36 545.063 3186.33 542.091 3188.3 539.119 3191.1 535.62 3194.72 531.595 3197.85 528.136 3200.11 525.516 3201.49 523.732 3203 521.787 3204.13 520.105 3204.87 518.687 3205.62 517.268 3206.15 515.931 3206.47 514.675 3206.8 513.418 3206.96 512.155 3206.96 510.885 3206.96 508.859 3206.64 507.069 3205.99 505.515 3205.34 503.962 3204.35 502.739 3203.01 501.848 3201.67 500.956 3199.99 500.51 3197.96 500.51 3192.91 500.51 3189.51 503.32 3187.75 508.94L3182.85 508.94 3182.85 501.159C3186.11 499.619 3189.17 498.504 3192.03 497.815 3194.88 497.126 3197.44 496.782 3199.71 496.782Z" fill-rule="evenodd"/><text fill="#000000" fill-opacity="0" font-family="Arial,Arial_MSFontService,sans-serif" font-size="55.9683" x="3181.63" y="545.754">2</text><path d="M3339.21 496.782C3342.26 496.782 3344.94 497.255 3347.24 498.2 3349.53 499.146 3351.29 500.504 3352.5 502.273 3353.72 504.043 3354.33 506.157 3354.33 508.616 3354.33 510.912 3353.87 512.932 3352.95 514.675 3352.03 516.417 3350.74 517.937 3349.08 519.234 3347.42 520.531 3345.26 521.801 3342.62 523.043L3342.62 523.408C3344.26 523.705 3345.85 524.212 3347.38 524.928 3348.9 525.644 3350.26 526.569 3351.45 527.704 3352.64 528.839 3353.59 530.197 3354.31 531.777 3355.02 533.358 3355.38 535.161 3355.38 537.188 3355.38 540.322 3354.7 543.104 3353.34 545.536 3351.97 547.968 3349.88 549.886 3347.07 551.291 3344.26 552.696 3340.85 553.398 3336.82 553.398 3334.5 553.398 3331.99 553.135 3329.3 552.608 3326.61 552.081 3324.15 551.386 3321.91 550.521L3321.91 541.929 3326.77 541.929C3327.72 544.739 3328.96 546.779 3330.52 548.049 3332.07 549.319 3334.19 549.954 3336.86 549.954 3340.37 549.954 3343.03 548.994 3344.82 547.076 3346.62 545.158 3347.52 542.321 3347.52 538.565 3347.52 534.621 3346.33 531.608 3343.95 529.528 3341.58 527.447 3338.09 526.407 3333.5 526.407L3329.85 526.407 3329.85 522.841C3333.5 522.625 3336.57 521.922 3339.07 520.733 3341.57 519.545 3343.43 518.018 3344.64 516.154 3345.86 514.29 3346.47 512.196 3346.47 509.872 3346.47 506.873 3345.67 504.563 3344.07 502.942 3342.48 501.321 3340.16 500.51 3337.1 500.51 3334.56 500.51 3332.5 501.199 3330.9 502.577 3329.31 503.955 3328.13 506.062 3327.38 508.899L3322.51 508.899 3322.51 501.199C3325.65 499.713 3328.58 498.605 3331.31 497.876 3334.04 497.146 3336.67 496.782 3339.21 496.782Z" fill-rule="evenodd"/><text fill="#000000" fill-opacity="0" font-family="Arial,Arial_MSFontService,sans-serif" font-size="56.6167" x="3321.91" y="546.321">3</text><path d="M3481.39 506.306 3465.55 531.473 3465.55 532.041 3481.39 532.041 3481.39 521.949C3481.39 519.409 3481.43 516.566 3481.51 513.418 3481.6 510.271 3481.69 507.9 3481.8 506.306ZM3482.57 497.146 3488.36 497.146 3488.36 532.041 3489.21 532.041C3490.78 532.041 3491.9 531.926 3492.58 531.696 3493.25 531.466 3493.81 531.061 3494.26 530.48 3494.71 529.899 3495.12 528.947 3495.5 527.623L3498.58 527.623 3498.09 535.972 3488.36 535.972 3488.36 542.618C3488.36 544.428 3488.42 545.752 3488.55 546.59 3488.67 547.427 3488.87 548.089 3489.15 548.576 3489.44 549.062 3489.86 549.467 3490.41 549.792 3490.96 550.116 3491.86 550.44 3493.11 550.764L3493.11 552.75 3476.65 552.75 3476.65 550.764C3478.33 550.332 3479.45 549.852 3480.02 549.325 3480.58 548.799 3480.95 548.049 3481.13 547.076 3481.31 546.104 3481.39 544.617 3481.39 542.618L3481.39 535.972 3458.86 535.972 3458.86 532.932Z" fill-rule="evenodd"/><text fill="#000000" fill-opacity="0" font-family="Arial,Arial_MSFontService,sans-serif" font-size="55.6035" x="3458.86" y="545.8">4</text><path d="M3273.5 752.5 3754.58 1202.53" stroke="#C00000" stroke-width="4.58333" stroke-miterlimit="8" stroke-dasharray="18.3333 13.75" fill="none" fill-rule="evenodd"/><path d="M2995.5 1164.5 3386.19 1529.97" stroke="#C00000" stroke-width="4.58333" stroke-miterlimit="8" stroke-dasharray="18.3333 13.75" fill="none" fill-rule="evenodd"/><path d="M2991.5 1036.5 3455.17 1470.24" stroke="#C00000" stroke-width="4.58333" stroke-miterlimit="8" stroke-dasharray="18.3333 13.75" fill="none" fill-rule="evenodd"/><path d="M3006.5 904.5 3533.8 1397.77" stroke="#C00000" stroke-width="4.58333" stroke-miterlimit="8" stroke-dasharray="18.3333 13.75" fill="none" fill-rule="evenodd"/><path d="M2995.5 758.5 3618.2 1341.01" stroke="#C00000" stroke-width="4.58333" stroke-miterlimit="8" stroke-dasharray="18.3333 13.75" fill="none" fill-rule="evenodd"/><path d="M3130.5 758.5 3679.69 1272.24" stroke="#C00000" stroke-width="4.58333" stroke-miterlimit="8" stroke-dasharray="18.3333 13.75" fill="none" fill-rule="evenodd"/><path d="M3418.5 765.5 3820.56 1141.61" stroke="#C00000" stroke-width="4.58333" stroke-miterlimit="8" stroke-dasharray="18.3333 13.75" fill="none" fill-rule="evenodd"/><path d="M3425.79 1549.67 3428.01 1549.67C3427.85 1552.26 3427.77 1555.86 3427.77 1560.45L3427.77 1595.06C3427.77 1596.63 3427.86 1597.81 3428.03 1598.61 3428.21 1599.4 3428.52 1600.05 3428.97 1600.55 3429.41 1601.05 3430.05 1601.44 3430.89 1601.73 3431.73 1602.01 3432.78 1602.23 3434.05 1602.38 3435.32 1602.52 3437 1602.63 3439.08 1602.68L3439.08 1605.64 3409.13 1605.64 3409.13 1602.68C3412.13 1602.54 3414.27 1602.36 3415.55 1602.13 3416.84 1601.9 3417.81 1601.56 3418.49 1601.1 3419.17 1600.64 3419.66 1599.99 3419.97 1599.15 3420.28 1598.32 3420.44 1596.95 3420.44 1595.06L3420.44 1562.19C3420.44 1561.11 3420.25 1560.32 3419.87 1559.82 3419.49 1559.32 3418.94 1559.07 3418.21 1559.07 3417.34 1559.07 3416.11 1559.52 3414.52 1560.41 3412.92 1561.3 3410.95 1562.53 3408.6 1564.1L3406.82 1560.98Z" fill-rule="evenodd"/><text fill="#000000" fill-opacity="0" font-family="Arial,Arial_MSFontService,sans-serif" font-size="55.9683" x="3406.82" y="1598.64">1</text><path d="M3563.17 1425.92C3566.22 1425.92 3568.89 1426.39 3571.19 1427.34 3573.49 1428.28 3575.24 1429.64 3576.46 1431.41 3577.68 1433.18 3578.28 1435.29 3578.28 1437.75 3578.28 1440.05 3577.82 1442.07 3576.91 1443.81 3575.99 1445.55 3574.7 1447.07 3573.03 1448.37 3571.37 1449.67 3569.22 1450.94 3566.57 1452.18L3566.57 1452.55C3568.22 1452.84 3569.81 1453.35 3571.33 1454.07 3572.86 1454.78 3574.22 1455.71 3575.41 1456.84 3576.59 1457.98 3577.55 1459.33 3578.26 1460.91 3578.98 1462.5 3579.34 1464.3 3579.34 1466.33 3579.34 1469.46 3578.65 1472.24 3577.29 1474.67 3575.93 1477.11 3573.84 1479.02 3571.03 1480.43 3568.22 1481.83 3564.8 1482.54 3560.78 1482.54 3558.45 1482.54 3555.95 1482.27 3553.26 1481.75 3550.57 1481.22 3548.1 1480.52 3545.86 1479.66L3545.86 1471.07 3550.72 1471.07C3551.67 1473.88 3552.92 1475.92 3554.47 1477.19 3556.03 1478.46 3558.14 1479.09 3560.82 1479.09 3564.33 1479.09 3566.98 1478.13 3568.78 1476.21 3570.58 1474.3 3571.47 1471.46 3571.47 1467.7 3571.47 1463.76 3570.29 1460.75 3567.91 1458.67 3565.53 1456.58 3562.05 1455.54 3557.45 1455.54L3553.8 1455.54 3553.8 1451.98C3557.45 1451.76 3560.53 1451.06 3563.02 1449.87 3565.52 1448.68 3567.38 1447.16 3568.6 1445.29 3569.81 1443.43 3570.42 1441.33 3570.42 1439.01 3570.42 1436.01 3569.62 1433.7 3568.03 1432.08 3566.44 1430.46 3564.11 1429.65 3561.06 1429.65 3558.52 1429.65 3556.45 1430.34 3554.86 1431.71 3553.26 1433.09 3552.09 1435.2 3551.33 1438.04L3546.47 1438.04 3546.47 1430.34C3549.6 1428.85 3552.53 1427.74 3555.26 1427.01 3557.99 1426.28 3560.63 1425.92 3563.17 1425.92Z" fill-rule="evenodd"/><text fill="#000000" fill-opacity="0" font-family="Arial,Arial_MSFontService,sans-serif" font-size="56.6167" x="3545.86" y="1475.46">3</text><path d="M3861.87 1173.73 3896.64 1173.73 3896.64 1175.67 3873.05 1229.33 3867.18 1229.33 3867.18 1227.34 3889.02 1181.1 3889.02 1180.49 3871.19 1180.49C3870.08 1180.49 3869.2 1180.6 3868.53 1180.8 3867.87 1181 3867.32 1181.29 3866.87 1181.67 3866.43 1182.05 3866.05 1182.55 3865.76 1183.17 3865.46 1183.79 3865.05 1185.02 3864.54 1186.86L3861.06 1186.86Z" fill-rule="evenodd"/><text fill="#000000" fill-opacity="0" font-family="Arial,Arial_MSFontService,sans-serif" font-size="55.6035" x="3861.06" y="1222.38">7</text><path d="M3662.07 1379.56 3646.22 1404.73 3646.22 1405.3 3662.07 1405.3 3662.07 1395.21C3662.07 1392.67 3662.11 1389.82 3662.19 1386.67 3662.27 1383.53 3662.37 1381.16 3662.47 1379.56ZM3663.24 1370.4 3669.04 1370.4 3669.04 1405.3 3669.89 1405.3C3671.46 1405.3 3672.58 1405.18 3673.25 1404.95 3673.93 1404.72 3674.49 1404.32 3674.94 1403.74 3675.38 1403.16 3675.79 1402.2 3676.17 1400.88L3679.25 1400.88 3678.77 1409.23 3669.04 1409.23 3669.04 1415.87C3669.04 1417.68 3669.1 1419.01 3669.22 1419.85 3669.34 1420.68 3669.55 1421.35 3669.83 1421.83 3670.11 1422.32 3670.53 1422.72 3671.09 1423.05 3671.64 1423.37 3672.54 1423.7 3673.78 1424.02L3673.78 1426.01 3657.33 1426.01 3657.33 1424.02C3659 1423.59 3660.12 1423.11 3660.69 1422.58 3661.26 1422.05 3661.63 1421.3 3661.81 1420.33 3661.98 1419.36 3662.07 1417.87 3662.07 1415.87L3662.07 1409.23 3639.54 1409.23 3639.54 1406.19Z" fill-rule="evenodd"/><text fill="#000000" fill-opacity="0" font-family="Arial,Arial_MSFontService,sans-serif" font-size="55.6035" x="3639.54" y="1419.06">4</text><path d="M3749.26 1305.4 3752.42 1305.4 3751.81 1314.8 3728.51 1314.8 3728.51 1332.59C3729.92 1332 3731.44 1331.55 3733.09 1331.25 3734.74 1330.96 3736.39 1330.81 3738.04 1330.81 3741.25 1330.81 3744.1 1331.46 3746.59 1332.77 3749.07 1334.08 3750.99 1335.95 3752.34 1338.37 3753.69 1340.78 3754.37 1343.59 3754.37 1346.78 3754.37 1350.4 3753.61 1353.5 3752.1 1356.1 3750.59 1358.69 3748.4 1360.66 3745.53 1362.01 3742.67 1363.37 3739.28 1364.04 3735.36 1364.04 3730.69 1364.04 3725.8 1363.08 3720.69 1361.16L3720.69 1352.57 3725.59 1352.57C3726.4 1355.33 3727.63 1357.35 3729.26 1358.65 3730.9 1359.95 3733.01 1360.6 3735.6 1360.6 3739.2 1360.6 3741.91 1359.52 3743.75 1357.35 3745.59 1355.19 3746.51 1351.96 3746.51 1347.67 3746.51 1344.8 3746.02 1342.43 3745.05 1340.56 3744.07 1338.68 3742.76 1337.32 3741.12 1336.48 3739.47 1335.64 3737.55 1335.23 3735.36 1335.23 3733.52 1335.23 3731.94 1335.34 3730.62 1335.57 3729.29 1335.8 3727.88 1336.16 3726.36 1336.64L3723.12 1334.74 3723.12 1308.07 3745.45 1308.07C3746.37 1308.07 3747.03 1308 3747.44 1307.85 3747.84 1307.7 3748.17 1307.47 3748.41 1307.16 3748.65 1306.85 3748.94 1306.26 3749.26 1305.4Z" fill-rule="evenodd"/><text fill="#000000" fill-opacity="0" font-family="Arial,Arial_MSFontService,sans-serif" font-size="58.6431" x="3720.69" y="1356.71">5</text><path d="M3812.16 1271.6C3810.83 1271.6 3809.56 1271.75 3808.33 1272.04 3807.1 1272.34 3805.94 1272.77 3804.86 1273.34 3803.78 1273.91 3802.73 1274.62 3801.7 1275.49 3801.38 1275.79 3801.13 1276.1 3800.97 1276.42 3800.7 1276.93 3800.53 1277.57 3800.45 1278.33 3800.36 1279.08 3800.32 1280.35 3800.32 1282.14 3800.32 1287.3 3801.19 1291.23 3802.92 1293.93 3804.65 1296.63 3807.27 1297.98 3810.78 1297.98 3812.81 1297.98 3814.51 1297.63 3815.89 1296.93 3817.26 1296.23 3818.38 1295.26 3819.23 1294.03 3820.08 1292.8 3820.69 1291.36 3821.05 1289.69 3821.42 1288.03 3821.6 1286.23 3821.6 1284.28 3821.6 1280.29 3820.78 1277.17 3819.13 1274.94 3817.48 1272.71 3815.16 1271.6 3812.16 1271.6ZM3822.57 1244.81 3824.24 1247.04 3824.24 1249.03C3820.07 1249.03 3816.39 1249.92 3813.17 1251.7 3809.96 1253.48 3807.29 1256.1 3805.17 1259.56 3803.05 1263.02 3801.55 1267.13 3800.69 1271.88L3801.09 1272.04C3803.36 1270.42 3805.6 1269.23 3807.8 1268.48 3810 1267.72 3812.39 1267.34 3814.95 1267.34 3818.01 1267.34 3820.61 1268.01 3822.76 1269.35 3824.9 1270.69 3826.52 1272.56 3827.6 1274.98 3828.68 1277.4 3829.22 1280.23 3829.22 1283.47 3829.22 1286.99 3828.54 1290.09 3827.19 1292.77 3825.84 1295.46 3823.76 1297.58 3820.93 1299.12 3818.11 1300.66 3814.63 1301.43 3810.5 1301.43 3804.58 1301.43 3800.11 1299.59 3797.1 1295.92 3794.09 1292.24 3792.58 1286.82 3792.58 1279.66 3792.58 1274.85 3793.34 1270.36 3794.85 1266.17 3796.37 1261.98 3798.51 1258.33 3801.3 1255.21 3804.08 1252.08 3807.31 1249.63 3810.98 1247.83 3814.66 1246.03 3818.52 1245.03 3822.57 1244.81Z" fill-rule="evenodd"/><text fill="#000000" fill-opacity="0" font-family="Arial,Arial_MSFontService,sans-serif" font-size="56.6167" x="3792.58" y="1294.35">6</text><path d="M3483.23 1492.56C3488.26 1492.56 3492.05 1493.66 3494.62 1495.87 3497.19 1498.07 3498.47 1501.26 3498.47 1505.45 3498.47 1506.88 3498.33 1508.2 3498.05 1509.4 3497.76 1510.61 3497.32 1511.79 3496.71 1512.97 3496.1 1514.14 3495.28 1515.41 3494.26 1516.76 3493.23 1518.11 3492.09 1519.48 3490.85 1520.87 3489.61 1522.26 3487.46 1524.58 3484.41 1527.82 3479.27 1533.25 3475.51 1537.99 3473.1 1542.05L3488.38 1542.05C3489.7 1542.05 3490.77 1541.97 3491.58 1541.8 3492.39 1541.64 3493.04 1541.37 3493.53 1540.99 3494.01 1540.62 3494.4 1540.12 3494.68 1539.51 3494.97 1538.91 3495.32 1537.97 3495.76 1536.7L3499.2 1536.7 3498.51 1548.53 3465.16 1548.53 3465.16 1546.59C3466.32 1543.75 3467.89 1540.85 3469.86 1537.87 3471.83 1534.9 3474.63 1531.4 3478.25 1527.38 3481.38 1523.92 3483.64 1521.3 3485.02 1519.51 3486.53 1517.57 3487.66 1515.89 3488.4 1514.47 3489.14 1513.05 3489.68 1511.71 3490 1510.46 3490.33 1509.2 3490.49 1507.94 3490.49 1506.67 3490.49 1504.64 3490.16 1502.85 3489.51 1501.3 3488.87 1499.74 3487.87 1498.52 3486.54 1497.63 3485.2 1496.74 3483.52 1496.29 3481.49 1496.29 3476.44 1496.29 3473.03 1499.1 3471.28 1504.72L3466.37 1504.72 3466.37 1496.94C3469.64 1495.4 3472.7 1494.29 3475.55 1493.6 3478.4 1492.91 3480.96 1492.56 3483.23 1492.56Z" fill-rule="evenodd"/><text fill="#000000" fill-opacity="0" font-family="Arial,Arial_MSFontService,sans-serif" font-size="55.9683" x="3465.16" y="1541.54">2</text></g></svg>