<svg width="3578" height="744" xmlns="http://www.w3.org/2000/svg" xmlns:xlink="http://www.w3.org/1999/xlink" xml:space="preserve" overflow="hidden"><g transform="translate(-356 -1153)"><text font-family="DengXian,DengXian_MSFontService,sans-serif" font-weight="700" font-size="83" transform="matrix(1 0 0 1 1974.71 1255)">(?,?,?,?)</text><text font-family="DengXian,DengXian_MSFontService,sans-serif" font-weight="700" font-size="83" transform="matrix(1 0 0 1 689.967 1540)">(</text><text fill="#C00000" font-family="DengXian,DengXian_MSFontService,sans-serif" font-weight="700" font-size="83" transform="matrix(1 0 0 1 717.467 1540)">1</text><text font-family="DengXian,DengXian_MSFontService,sans-serif" font-weight="700" font-size="83" transform="matrix(1 0 0 1 763.3 1540)">,?,?,?)</text><text font-family="DengXian,DengXian_MSFontService,sans-serif" font-weight="700" font-size="83" transform="matrix(1 0 0 1 1567.03 1540)">(</text><text fill="#FFC000" font-family="DengXian,DengXian_MSFontService,sans-serif" font-weight="700" font-size="83" transform="matrix(1 0 0 1 1594.53 1540)">2</text><text font-family="DengXian,DengXian_MSFontService,sans-serif" font-weight="700" font-size="83" transform="matrix(1 0 0 1 1640.37 1540)">,?,?,?)</text><text font-family="DengXian,DengXian_MSFontService,sans-serif" font-weight="700" font-size="83" transform="matrix(1 0 0 1 2444.1 1540)">(</text><text fill="#0070C0" font-family="DengXian,DengXian_MSFontService,sans-serif" font-weight="700" font-size="83" transform="matrix(1 0 0 1 2471.6 1540)">3</text><text font-family="DengXian,DengXian_MSFontService,sans-serif" font-weight="700" font-size="83" transform="matrix(1 0 0 1 2517.43 1540)">,?,?,?)</text><text font-family="DengXian,DengXian_MSFontService,sans-serif" font-weight="700" font-size="83" transform="matrix(1 0 0 1 3321.17 1540)">(</text><text fill="#00B050" font-family="DengXian,DengXian_MSFontService,sans-serif" font-weight="700" font-size="83" transform="matrix(1 0 0 1 3348.67 1540)">4</text><text font-family="DengXian,DengXian_MSFontService,sans-serif" font-weight="700" font-size="83" transform="matrix(1 0 0 1 3394.5 1540)">,?,?,?)</text><text font-family="DengXian,DengXian_MSFontService,sans-serif" font-weight="700" font-size="83" transform="matrix(1 0 0 1 405.52 1825)">(</text><text fill="#C00000" font-family="DengXian,DengXian_MSFontService,sans-serif" font-weight="700" font-size="83" transform="matrix(1 0 0 1 433.02 1825)">1</text><text font-family="DengXian,DengXian_MSFontService,sans-serif" font-weight="700" font-size="83" transform="matrix(1 0 0 1 478.853 1825)">,</text><text fill="#FFC000" font-family="DengXian,DengXian_MSFontService,sans-serif" font-weight="700" font-size="83" transform="matrix(1 0 0 1 498.905 1825)">2</text><text font-family="DengXian,DengXian_MSFontService,sans-serif" font-weight="700" font-size="83" transform="matrix(1 0 0 1 544.739 1825)">,?,?)</text><text font-family="DengXian,DengXian_MSFontService,sans-serif" font-weight="700" font-size="83" transform="matrix(1 0 0 1 687.824 1825)">(</text><text fill="#C00000" font-family="DengXian,DengXian_MSFontService,sans-serif" font-weight="700" font-size="83" transform="matrix(1 0 0 1 715.324 1825)">1</text><text font-family="DengXian,DengXian_MSFontService,sans-serif" font-weight="700" font-size="83" transform="matrix(1 0 0 1 761.157 1825)">,</text><text fill="#0070C0" font-family="DengXian,DengXian_MSFontService,sans-serif" font-weight="700" font-size="83" transform="matrix(1 0 0 1 781.209 1825)">3</text><text font-family="DengXian,DengXian_MSFontService,sans-serif" font-weight="700" font-size="83" transform="matrix(1 0 0 1 827.042 1825)">,?,?)</text><text font-family="DengXian,DengXian_MSFontService,sans-serif" font-weight="700" font-size="83" transform="matrix(1 0 0 1 970.127 1825)">(</text><text fill="#C00000" font-family="DengXian,DengXian_MSFontService,sans-serif" font-weight="700" font-size="83" transform="matrix(1 0 0 1 997.627 1825)">1</text><text font-family="DengXian,DengXian_MSFontService,sans-serif" font-weight="700" font-size="83" transform="matrix(1 0 0 1 1043.46 1825)">,</text><text fill="#00B050" font-family="DengXian,DengXian_MSFontService,sans-serif" font-weight="700" font-size="83" transform="matrix(1 0 0 1 1063.51 1825)">4</text><text font-family="DengXian,DengXian_MSFontService,sans-serif" font-weight="700" font-size="83" transform="matrix(1 0 0 1 1109.35 1825)">,?,?)</text><text font-family="DengXian,DengXian_MSFontService,sans-serif" font-weight="700" font-size="83" transform="matrix(1 0 0 1 1283.57 1825)">(</text><text fill="#FFC000" font-family="DengXian,DengXian_MSFontService,sans-serif" font-weight="700" font-size="83" transform="matrix(1 0 0 1 1311.07 1825)">2</text><text font-family="DengXian,DengXian_MSFontService,sans-serif" font-weight="700" font-size="83" transform="matrix(1 0 0 1 1356.9 1825)">,</text><text fill="#C00000" font-family="DengXian,DengXian_MSFontService,sans-serif" font-weight="700" font-size="83" transform="matrix(1 0 0 1 1376.95 1825)">1</text><text font-family="DengXian,DengXian_MSFontService,sans-serif" font-weight="700" font-size="83" transform="matrix(1 0 0 1 1422.79 1825)">,?,?)</text><text font-family="DengXian,DengXian_MSFontService,sans-serif" font-weight="700" font-size="83" transform="matrix(1 0 0 1 1565.87 1825)">(</text><text fill="#FFC000" font-family="DengXian,DengXian_MSFontService,sans-serif" font-weight="700" font-size="83" transform="matrix(1 0 0 1 1593.37 1825)">2</text><text font-family="DengXian,DengXian_MSFontService,sans-serif" font-weight="700" font-size="83" transform="matrix(1 0 0 1 1639.2 1825)">,</text><text fill="#0070C0" font-family="DengXian,DengXian_MSFontService,sans-serif" font-weight="700" font-size="83" transform="matrix(1 0 0 1 1659.26 1825)">3</text><text font-family="DengXian,DengXian_MSFontService,sans-serif" font-weight="700" font-size="83" transform="matrix(1 0 0 1 1705.09 1825)">,?,?)</text><text font-family="DengXian,DengXian_MSFontService,sans-serif" font-weight="700" font-size="83" transform="matrix(1 0 0 1 1848.18 1825)">(</text><text fill="#FFC000" font-family="DengXian,DengXian_MSFontService,sans-serif" font-weight="700" font-size="83" transform="matrix(1 0 0 1 1875.68 1825)">2</text><text font-family="DengXian,DengXian_MSFontService,sans-serif" font-weight="700" font-size="83" transform="matrix(1 0 0 1 1921.51 1825)">,</text><text fill="#00B050" font-family="DengXian,DengXian_MSFontService,sans-serif" font-weight="700" font-size="83" transform="matrix(1 0 0 1 1941.56 1825)">4</text><text font-family="DengXian,DengXian_MSFontService,sans-serif" font-weight="700" font-size="83" transform="matrix(1 0 0 1 1987.39 1825)">,?,?)</text><text font-family="DengXian,DengXian_MSFontService,sans-serif" font-weight="700" font-size="83" transform="matrix(1 0 0 1 2161.62 1825)">(</text><text fill="#0070C0" font-family="DengXian,DengXian_MSFontService,sans-serif" font-weight="700" font-size="83" transform="matrix(1 0 0 1 2189.12 1825)">3</text><text font-family="DengXian,DengXian_MSFontService,sans-serif" font-weight="700" font-size="83" transform="matrix(1 0 0 1 2234.95 1825)">,</text><text fill="#C00000" font-family="DengXian,DengXian_MSFontService,sans-serif" font-weight="700" font-size="83" transform="matrix(1 0 0 1 2255 1825)">1</text><text font-family="DengXian,DengXian_MSFontService,sans-serif" font-weight="700" font-size="83" transform="matrix(1 0 0 1 2300.83 1825)">,?,?)</text><text font-family="DengXian,DengXian_MSFontService,sans-serif" font-weight="700" font-size="83" transform="matrix(1 0 0 1 2443.92 1825)">(</text><text fill="#0070C0" font-family="DengXian,DengXian_MSFontService,sans-serif" font-weight="700" font-size="83" transform="matrix(1 0 0 1 2471.42 1825)">3</text><text font-family="DengXian,DengXian_MSFontService,sans-serif" font-weight="700" font-size="83" transform="matrix(1 0 0 1 2517.25 1825)">,</text><text fill="#FFC000" font-family="DengXian,DengXian_MSFontService,sans-serif" font-weight="700" font-size="83" transform="matrix(1 0 0 1 2537.3 1825)">2</text><text font-family="DengXian,DengXian_MSFontService,sans-serif" font-weight="700" font-size="83" transform="matrix(1 0 0 1 2583.14 1825)">,?,?)</text><text font-family="DengXian,DengXian_MSFontService,sans-serif" font-weight="700" font-size="83" transform="matrix(1 0 0 1 2726.22 1825)">(</text><text fill="#0070C0" font-family="DengXian,DengXian_MSFontService,sans-serif" font-weight="700" font-size="83" transform="matrix(1 0 0 1 2753.72 1825)">3</text><text font-family="DengXian,DengXian_MSFontService,sans-serif" font-weight="700" font-size="83" transform="matrix(1 0 0 1 2799.56 1825)">,</text><text fill="#00B050" font-family="DengXian,DengXian_MSFontService,sans-serif" font-weight="700" font-size="83" transform="matrix(1 0 0 1 2819.61 1825)">4</text><text font-family="DengXian,DengXian_MSFontService,sans-serif" font-weight="700" font-size="83" transform="matrix(1 0 0 1 2865.44 1825)">,?,?)</text><text font-family="DengXian,DengXian_MSFontService,sans-serif" font-weight="700" font-size="83" transform="matrix(1 0 0 1 3039.66 1825)">(</text><text fill="#00B050" font-family="DengXian,DengXian_MSFontService,sans-serif" font-weight="700" font-size="83" transform="matrix(1 0 0 1 3067.16 1825)">4</text><text font-family="DengXian,DengXian_MSFontService,sans-serif" font-weight="700" font-size="83" transform="matrix(1 0 0 1 3113 1825)">,</text><text fill="#C00000" font-family="DengXian,DengXian_MSFontService,sans-serif" font-weight="700" font-size="83" transform="matrix(1 0 0 1 3133.05 1825)">1</text><text font-family="DengXian,DengXian_MSFontService,sans-serif" font-weight="700" font-size="83" transform="matrix(1 0 0 1 3178.88 1825)">,?,?)</text><text font-family="DengXian,DengXian_MSFontService,sans-serif" font-weight="700" font-size="83" transform="matrix(1 0 0 1 3321.97 1825)">(</text><text fill="#00B050" font-family="DengXian,DengXian_MSFontService,sans-serif" font-weight="700" font-size="83" transform="matrix(1 0 0 1 3349.47 1825)">4</text><text font-family="DengXian,DengXian_MSFontService,sans-serif" font-weight="700" font-size="83" transform="matrix(1 0 0 1 3395.3 1825)">,</text><text fill="#FFC000" font-family="DengXian,DengXian_MSFontService,sans-serif" font-weight="700" font-size="83" transform="matrix(1 0 0 1 3415.35 1825)">2</text><text font-family="DengXian,DengXian_MSFontService,sans-serif" font-weight="700" font-size="83" transform="matrix(1 0 0 1 3461.19 1825)">,?,?)</text><text font-family="DengXian,DengXian_MSFontService,sans-serif" font-weight="700" font-size="83" transform="matrix(1 0 0 1 3604.27 1825)">(</text><text fill="#00B050" font-family="DengXian,DengXian_MSFontService,sans-serif" font-weight="700" font-size="83" transform="matrix(1 0 0 1 3631.77 1825)">4</text><text font-family="DengXian,DengXian_MSFontService,sans-serif" font-weight="700" font-size="83" transform="matrix(1 0 0 1 3677.6 1825)">,</text><text fill="#0070C0" font-family="DengXian,DengXian_MSFontService,sans-serif" font-weight="700" font-size="83" transform="matrix(1 0 0 1 3697.66 1825)">3</text><text font-family="DengXian,DengXian_MSFontService,sans-serif" font-weight="700" font-size="83" transform="matrix(1 0 0 1 3743.49 1825)">,?,?)</text><path d="M0.269021-2.27582 1257.64 146.355 1257.1 150.907-0.269021 2.27582ZM1254.42 134.438 1280.12 151.321 1251.2 161.747Z" fill="#4472C4" transform="matrix(-1 0 0 1 2107.62 1295.5)"/><path d="M0.80548-2.14545 382.403 141.12 380.792 145.411-0.80548 2.14545ZM382.14 128.782 403.052 151.321 372.474 154.528Z" fill="#4472C4" transform="matrix(-1 0 0 1 2107.55 1295.5)"/><path d="M2108.2 1293.32 2560.38 1437.67 2558.99 1442.03 2106.8 1297.68ZM2559.5 1425.36 2581.52 1446.82 2551.14 1451.56Z" fill="#4472C4"/><path d="M2107.76 1293.22 3436.07 1441.99 3435.56 1446.55 2107.24 1297.78ZM3432.78 1430.1 3458.58 1446.82 3429.72 1457.42Z" fill="#4472C4"/><path d="M1.0901-2.01579 260.751 138.404 258.571 142.435-1.0901 2.01579ZM262.17 126.144 279.819 151.32 249.089 150.334Z" fill="#4472C4" transform="matrix(-1 0 0 1 827.319 1580.5)"/><path d="M829.791 1580.46 831.9 1708.87 827.317 1708.94 825.208 1580.54ZM843.282 1704.1 829.985 1731.82 815.785 1704.55Z" fill="#4472C4"/><path d="M828.575 1578.48 1093.13 1719.04 1090.98 1723.09 826.425 1582.52ZM1094.46 1706.77 1112.29 1731.82 1081.55 1731.06Z" fill="#4472C4"/><path d="M1.09306-2.01419 259.789 138.376 257.603 142.404-1.09306 2.01419ZM261.226 126.118 278.838 151.32 248.109 150.289Z" fill="#4472C4" transform="matrix(-1 0 0 1 1704.34 1580.5)"/><path d="M1706.79 1580.45 1709.73 1708.86 1705.15 1708.96 1702.21 1580.55ZM1721.08 1704.01 1707.97 1731.82 1693.59 1704.64Z" fill="#4472C4"/><path d="M1705.57 1578.47 1971.09 1719.07 1968.94 1723.12 1703.43 1582.53ZM1972.4 1706.8 1990.27 1731.82 1959.53 1731.1Z" fill="#4472C4"/><path d="M1.09604-2.01257 258.828 138.347 256.636 142.373-1.09604 2.01257ZM260.283 126.092 277.858 151.32 247.13 150.243Z" fill="#4472C4" transform="matrix(-1 0 0 1 2581.36 1580.5)"/><path d="M2583.79 1580.43 2587.56 1708.85 2582.98 1708.98 2579.21 1580.57ZM2598.88 1703.93 2585.95 1731.82 2571.39 1704.74Z" fill="#4472C4"/><path d="M2582.57 1578.47 2849.05 1719.1 2846.91 1723.15 2580.43 1582.53ZM2850.35 1706.83 2868.25 1731.82 2837.51 1731.15Z" fill="#4472C4"/><path d="M1.09903-2.01094 257.867 138.319 255.669 142.341-1.09903 2.01094ZM259.341 126.066 276.878 151.32 246.152 150.198Z" fill="#4472C4" transform="matrix(-1 0 0 1 3458.38 1580.5)"/><path d="M3460.79 1580.42 3465.4 1708.84 3460.81 1709 3456.21 1580.58ZM3476.68 1703.85 3463.93 1731.82 3449.2 1704.83Z" fill="#4472C4"/><path d="M3459.57 1578.47 3727.01 1719.13 3724.88 1723.18 3457.43 1582.53ZM3728.29 1706.85 3746.23 1731.82 3715.49 1731.19Z" fill="#4472C4"/></g></svg>