<svg width="1404" height="744" xmlns="http://www.w3.org/2000/svg" xmlns:xlink="http://www.w3.org/1999/xlink" xml:space="preserve" overflow="hidden"><g transform="translate(-286 -1120)"><text font-family="DengXian,DengXian_MSFontService,sans-serif" font-weight="700" font-size="83" transform="matrix(1 0 0 1 839.646 1222)">(?,?,?,?)</text><text font-family="DengXian,DengXian_MSFontService,sans-serif" font-weight="700" font-size="83" transform="matrix(1 0 0 1 495.216 1507)">(</text><text fill="#FFC000" font-family="DengXian,DengXian_MSFontService,sans-serif" font-weight="700" font-size="83" transform="matrix(1 0 0 1 522.716 1507)">0</text><text font-family="DengXian,DengXian_MSFontService,sans-serif" font-weight="700" font-size="83" transform="matrix(1 0 0 1 568.549 1507)">,?,?,?)</text><text font-family="DengXian,DengXian_MSFontService,sans-serif" font-weight="700" font-size="83" transform="matrix(1 0 0 1 1201.78 1507)">(</text><text fill="#0070C0" font-family="DengXian,DengXian_MSFontService,sans-serif" font-weight="700" font-size="83" transform="matrix(1 0 0 1 1229.28 1507)">1</text><text font-family="DengXian,DengXian_MSFontService,sans-serif" font-weight="700" font-size="83" transform="matrix(1 0 0 1 1275.12 1507)">,?,?,?)</text><text font-family="DengXian,DengXian_MSFontService,sans-serif" font-weight="700" font-size="83" transform="matrix(1 0 0 1 335.5 1792)">(</text><text fill="#FFC000" font-family="DengXian,DengXian_MSFontService,sans-serif" font-weight="700" font-size="83" transform="matrix(1 0 0 1 363 1792)">0</text><text font-family="DengXian,DengXian_MSFontService,sans-serif" font-weight="700" font-size="83" transform="matrix(1 0 0 1 408.833 1792)">,</text><text fill="#FFC000" font-family="DengXian,DengXian_MSFontService,sans-serif" font-weight="700" font-size="83" transform="matrix(1 0 0 1 428.885 1792)">0</text><text font-family="DengXian,DengXian_MSFontService,sans-serif" font-weight="700" font-size="83" transform="matrix(1 0 0 1 474.719 1792)">,?,?)</text><text font-family="DengXian,DengXian_MSFontService,sans-serif" font-weight="700" font-size="83" transform="matrix(1 0 0 1 664.483 1792)">(</text><text fill="#FFC000" font-family="DengXian,DengXian_MSFontService,sans-serif" font-weight="700" font-size="83" transform="matrix(1 0 0 1 691.983 1792)">0</text><text font-family="DengXian,DengXian_MSFontService,sans-serif" font-weight="700" font-size="83" transform="matrix(1 0 0 1 737.816 1792)">,</text><text fill="#0070C0" font-family="DengXian,DengXian_MSFontService,sans-serif" font-weight="700" font-size="83" transform="matrix(1 0 0 1 757.868 1792)">1</text><text font-family="DengXian,DengXian_MSFontService,sans-serif" font-weight="700" font-size="83" transform="matrix(1 0 0 1 803.702 1792)">,?,?)</text><text font-family="DengXian,DengXian_MSFontService,sans-serif" font-weight="700" font-size="83" transform="matrix(1 0 0 1 1048.75 1792)">(</text><text fill="#0070C0" font-family="DengXian,DengXian_MSFontService,sans-serif" font-weight="700" font-size="83" transform="matrix(1 0 0 1 1076.25 1792)">1</text><text font-family="DengXian,DengXian_MSFontService,sans-serif" font-weight="700" font-size="83" transform="matrix(1 0 0 1 1122.09 1792)">,</text><text fill="#FFC000" font-family="DengXian,DengXian_MSFontService,sans-serif" font-weight="700" font-size="83" transform="matrix(1 0 0 1 1142.14 1792)">0</text><text font-family="DengXian,DengXian_MSFontService,sans-serif" font-weight="700" font-size="83" transform="matrix(1 0 0 1 1187.97 1792)">,?,?)</text><text font-family="DengXian,DengXian_MSFontService,sans-serif" font-weight="700" font-size="83" transform="matrix(1 0 0 1 1360.16 1792)">(</text><text fill="#0070C0" font-family="DengXian,DengXian_MSFontService,sans-serif" font-weight="700" font-size="83" transform="matrix(1 0 0 1 1387.66 1792)">1</text><text font-family="DengXian,DengXian_MSFontService,sans-serif" font-weight="700" font-size="83" transform="matrix(1 0 0 1 1433.49 1792)">,</text><text fill="#0070C0" font-family="DengXian,DengXian_MSFontService,sans-serif" font-weight="700" font-size="83" transform="matrix(1 0 0 1 1453.54 1792)">1</text><text font-family="DengXian,DengXian_MSFontService,sans-serif" font-weight="700" font-size="83" transform="matrix(1 0 0 1 1499.37 1792)">,?,?)</text><path d="M0.932264-2.09347 319.8 139.905 317.935 144.092-0.932264 2.09347ZM320.274 127.573 339.802 151.321 309.087 152.694Z" fill="#4472C4" transform="matrix(-1 0 0 1 972.302 1262.5)"/><path d="M973.374 1260.38 1318.95 1402.96 1317.21 1407.2 971.626 1264.62ZM1319.09 1390.62 1339.27 1413.82 1308.6 1416.04Z" fill="#4472C4"/><path d="M1.60041-1.64025 140.286 133.676 137.085 136.957-1.60041 1.64025ZM145.007 122.274 155.088 151.32 125.803 141.957Z" fill="#4472C4" transform="matrix(-1 0 0 1 632.588 1547.5)"/><path d="M634.004 1545.77 790.612 1682.05 787.603 1685.51 630.996 1549.23ZM794.676 1670.4 806.395 1698.82 776.624 1691.14Z" fill="#4472C4"/><path d="M1.63615-1.6046 133.993 133.354 130.72 136.563-1.63615 1.6046ZM138.964 122.059 148.403 151.32 119.33 141.314Z" fill="#4472C4" transform="matrix(-1 0 0 1 1339.9 1547.5)"/><path d="M1341.06 1545.82 1487.26 1681.55 1484.15 1684.91 1337.94 1549.18ZM1491.7 1670.03 1502.5 1698.82 1472.99 1690.19Z" fill="#4472C4"/></g></svg>