<?xml version="1.0" encoding="utf-8" standalone="no"?>
<!DOCTYPE svg PUBLIC "-//W3C//DTD SVG 1.1//EN"
  "http://www.w3.org/Graphics/SVG/1.1/DTD/svg11.dtd">
<svg xmlns:xlink="http://www.w3.org/1999/xlink" width="906.96pt" height="217.04pt" viewBox="0 0 906.96 217.04" xmlns="http://www.w3.org/2000/svg" version="1.1">
 <metadata>
  <rdf:RDF xmlns:dc="http://purl.org/dc/elements/1.1/" xmlns:cc="http://creativecommons.org/ns#" xmlns:rdf="http://www.w3.org/1999/02/22-rdf-syntax-ns#">
   <cc:Work>
    <dc:type rdf:resource="http://purl.org/dc/dcmitype/StillImage"/>
    <dc:date>2025-04-09T17:59:49.954057</dc:date>
    <dc:format>image/svg+xml</dc:format>
    <dc:creator>
     <cc:Agent>
      <dc:title>Matplotlib v3.10.1, https://matplotlib.org/</dc:title>
     </cc:Agent>
    </dc:creator>
   </cc:Work>
  </rdf:RDF>
 </metadata>
 <defs>
  <style type="text/css">*{stroke-linejoin: round; stroke-linecap: butt}</style>
 </defs>
 <g id="figure_1">
  <g id="patch_1">
   <path d="M 0 217.04 
L 906.96 217.04 
L 906.96 0 
L 0 0 
z
" style="fill: #ffffff"/>
  </g>
  <g id="axes_1">
   <g id="patch_2">
    <path d="M 43.84 130.08 
Q 65.4 86.96 86.96 130.08 
" clip-path="url(#p51a8c55270)" style="fill: none; stroke: #008000; stroke-width: 2; stroke-linejoin: miter"/>
   </g>
   <g id="patch_3">
    <path d="M 86.96 130.08 
Q 108.52 86.96 130.08 130.08 
" clip-path="url(#p51a8c55270)" style="fill: none; stroke: #008000; stroke-width: 2; stroke-linejoin: miter"/>
   </g>
   <g id="patch_4">
    <path d="M 130.08 130.08 
Q 151.64 86.96 173.2 130.08 
" clip-path="url(#p51a8c55270)" style="fill: none; stroke: #008000; stroke-width: 2; stroke-linejoin: miter"/>
   </g>
   <g id="patch_5">
    <path d="M 173.2 130.08 
Q 194.76 86.96 216.32 130.08 
" clip-path="url(#p51a8c55270)" style="fill: none; stroke: #008000; stroke-width: 2; stroke-linejoin: miter"/>
   </g>
   <g id="patch_6">
    <path d="M 216.32 130.08 
Q 237.88 86.96 259.44 130.08 
" clip-path="url(#p51a8c55270)" style="fill: none; stroke: #008000; stroke-width: 2; stroke-linejoin: miter"/>
   </g>
   <g id="patch_7">
    <path d="M 259.44 130.08 
Q 281 86.96 302.56 130.08 
" clip-path="url(#p51a8c55270)" style="fill: none; stroke: #008000; stroke-width: 2; stroke-linejoin: miter"/>
   </g>
   <g id="patch_8">
    <path d="M 302.56 130.08 
Q 324.12 86.96 345.68 130.08 
" clip-path="url(#p51a8c55270)" style="fill: none; stroke: #008000; stroke-width: 2; stroke-linejoin: miter"/>
   </g>
   <g id="patch_9">
    <path d="M 345.68 130.08 
Q 367.24 86.96 388.8 130.08 
" clip-path="url(#p51a8c55270)" style="fill: none; stroke: #008000; stroke-width: 2; stroke-linejoin: miter"/>
   </g>
   <g id="patch_10">
    <path d="M 388.8 130.08 
Q 410.36 86.96 431.92 130.08 
" clip-path="url(#p51a8c55270)" style="fill: none; stroke: #008000; stroke-width: 2; stroke-linejoin: miter"/>
   </g>
   <g id="patch_11">
    <path d="M 431.92 130.08 
Q 453.48 86.96 475.04 130.08 
" clip-path="url(#p51a8c55270)" style="fill: none; stroke: #008000; stroke-width: 2; stroke-linejoin: miter"/>
   </g>
   <g id="patch_12">
    <path d="M 475.04 130.08 
Q 496.6 86.96 518.16 130.08 
" clip-path="url(#p51a8c55270)" style="fill: none; stroke: #008000; stroke-width: 2; stroke-linejoin: miter"/>
   </g>
   <g id="patch_13">
    <path d="M 518.16 130.08 
Q 539.72 86.96 561.28 130.08 
" clip-path="url(#p51a8c55270)" style="fill: none; stroke: #008000; stroke-width: 2; stroke-linejoin: miter"/>
   </g>
   <g id="patch_14">
    <path d="M 561.28 130.08 
Q 582.84 86.96 604.4 130.08 
" clip-path="url(#p51a8c55270)" style="fill: none; stroke: #008000; stroke-width: 2; stroke-linejoin: miter"/>
   </g>
   <g id="patch_15">
    <path d="M 604.4 130.08 
Q 625.96 86.96 647.52 130.08 
" clip-path="url(#p51a8c55270)" style="fill: none; stroke: #008000; stroke-width: 2; stroke-linejoin: miter"/>
   </g>
   <g id="patch_16">
    <path d="M 647.52 130.08 
Q 669.08 86.96 690.64 130.08 
" clip-path="url(#p51a8c55270)" style="fill: none; stroke: #008000; stroke-width: 2; stroke-linejoin: miter"/>
   </g>
   <g id="patch_17">
    <path d="M 690.64 130.08 
Q 712.2 86.96 733.76 130.08 
" clip-path="url(#p51a8c55270)" style="fill: none; stroke: #008000; stroke-width: 2; stroke-linejoin: miter"/>
   </g>
   <g id="patch_18">
    <path d="M 733.76 130.08 
Q 755.32 86.96 776.88 130.08 
" clip-path="url(#p51a8c55270)" style="fill: none; stroke: #008000; stroke-width: 2; stroke-linejoin: miter"/>
   </g>
   <g id="patch_19">
    <path d="M 776.88 130.08 
Q 798.44 86.96 820 130.08 
" clip-path="url(#p51a8c55270)" style="fill: none; stroke: #008000; stroke-width: 2; stroke-linejoin: miter"/>
   </g>
   <g id="patch_20">
    <path d="M 820 130.08 
Q 841.56 86.96 863.12 130.08 
" clip-path="url(#p51a8c55270)" style="fill: none; stroke: #008000; stroke-width: 2; stroke-linejoin: miter"/>
   </g>
   <g id="patch_21">
    <path d="M 43.84 130.08 
Q 86.96 65.4 130.08 130.08 
" clip-path="url(#p51a8c55270)" style="fill: none; stroke: #0000ff; stroke-width: 2; stroke-linejoin: miter"/>
   </g>
   <g id="patch_22">
    <path d="M 130.08 130.08 
Q 173.2 65.4 216.32 130.08 
" clip-path="url(#p51a8c55270)" style="fill: none; stroke: #0000ff; stroke-width: 2; stroke-linejoin: miter"/>
   </g>
   <g id="patch_23">
    <path d="M 216.32 130.08 
Q 259.44 65.4 302.56 130.08 
" clip-path="url(#p51a8c55270)" style="fill: none; stroke: #0000ff; stroke-width: 2; stroke-linejoin: miter"/>
   </g>
   <g id="patch_24">
    <path d="M 302.56 130.08 
Q 345.68 65.4 388.8 130.08 
" clip-path="url(#p51a8c55270)" style="fill: none; stroke: #0000ff; stroke-width: 2; stroke-linejoin: miter"/>
   </g>
   <g id="patch_25">
    <path d="M 388.8 130.08 
Q 431.92 65.4 475.04 130.08 
" clip-path="url(#p51a8c55270)" style="fill: none; stroke: #0000ff; stroke-width: 2; stroke-linejoin: miter"/>
   </g>
   <g id="patch_26">
    <path d="M 475.04 130.08 
Q 518.16 65.4 561.28 130.08 
" clip-path="url(#p51a8c55270)" style="fill: none; stroke: #0000ff; stroke-width: 2; stroke-linejoin: miter"/>
   </g>
   <g id="patch_27">
    <path d="M 561.28 130.08 
Q 604.4 65.4 647.52 130.08 
" clip-path="url(#p51a8c55270)" style="fill: none; stroke: #0000ff; stroke-width: 2; stroke-linejoin: miter"/>
   </g>
   <g id="patch_28">
    <path d="M 647.52 130.08 
Q 690.64 65.4 733.76 130.08 
" clip-path="url(#p51a8c55270)" style="fill: none; stroke: #0000ff; stroke-width: 2; stroke-linejoin: miter"/>
   </g>
   <g id="patch_29">
    <path d="M 733.76 130.08 
Q 776.88 65.4 820 130.08 
" clip-path="url(#p51a8c55270)" style="fill: none; stroke: #0000ff; stroke-width: 2; stroke-linejoin: miter"/>
   </g>
   <g id="patch_30">
    <path d="M 43.84 130.08 
Q 130.08 43.84 216.32 130.08 
" clip-path="url(#p51a8c55270)" style="fill: none; stroke: #ff0000; stroke-width: 2; stroke-linejoin: miter"/>
   </g>
   <g id="patch_31">
    <path d="M 216.32 130.08 
Q 302.56 43.84 388.8 130.08 
" clip-path="url(#p51a8c55270)" style="fill: none; stroke: #ff0000; stroke-width: 2; stroke-linejoin: miter"/>
   </g>
   <g id="patch_32">
    <path d="M 388.8 130.08 
Q 475.04 43.84 561.28 130.08 
" clip-path="url(#p51a8c55270)" style="fill: none; stroke: #ff0000; stroke-width: 2; stroke-linejoin: miter"/>
   </g>
   <g id="patch_33">
    <path d="M 561.28 130.08 
Q 647.52 43.84 733.76 130.08 
" clip-path="url(#p51a8c55270)" style="fill: none; stroke: #ff0000; stroke-width: 2; stroke-linejoin: miter"/>
   </g>
   <g id="patch_34">
    <path d="M 43.84 130.08 
Q 216.32 22.28 388.8 130.08 
" clip-path="url(#p51a8c55270)" style="fill: none; stroke: #800080; stroke-width: 2; stroke-linejoin: miter"/>
   </g>
   <g id="patch_35">
    <path d="M 388.8 130.08 
Q 561.28 22.28 733.76 130.08 
" clip-path="url(#p51a8c55270)" style="fill: none; stroke: #800080; stroke-width: 2; stroke-linejoin: miter"/>
   </g>
   <g id="line2d_1">
    <path d="M 0.72 130.08 
L 906.24 130.08 
" clip-path="url(#p51a8c55270)" style="fill: none; stroke: #000000; stroke-linecap: square"/>
   </g>
  </g>
 </g>
 <defs>
  <clipPath id="p51a8c55270">
   <rect x="0.72" y="0.72" width="905.52" height="215.6"/>
  </clipPath>
 </defs>
</svg>
