<?xml version="1.0" encoding="utf-8" standalone="no"?>
<!DOCTYPE svg PUBLIC "-//W3C//DTD SVG 1.1//EN"
  "http://www.w3.org/Graphics/SVG/1.1/DTD/svg11.dtd">
<svg xmlns:xlink="http://www.w3.org/1999/xlink" width="906.96pt" height="217.04pt" viewBox="0 0 906.96 217.04" xmlns="http://www.w3.org/2000/svg" version="1.1">
 <metadata>
  <rdf:RDF xmlns:dc="http://purl.org/dc/elements/1.1/" xmlns:cc="http://creativecommons.org/ns#" xmlns:rdf="http://www.w3.org/1999/02/22-rdf-syntax-ns#">
   <cc:Work>
    <dc:type rdf:resource="http://purl.org/dc/dcmitype/StillImage"/>
    <dc:date>2025-04-09T17:59:50.215331</dc:date>
    <dc:format>image/svg+xml</dc:format>
    <dc:creator>
     <cc:Agent>
      <dc:title>Matplotlib v3.10.1, https://matplotlib.org/</dc:title>
     </cc:Agent>
    </dc:creator>
   </cc:Work>
  </rdf:RDF>
 </metadata>
 <defs>
  <style type="text/css">*{stroke-linejoin: round; stroke-linecap: butt}</style>
 </defs>
 <g id="figure_1">
  <g id="patch_1">
   <path d="M 0 217.04 
L 906.96 217.04 
L 906.96 0 
L 0 0 
z
" style="fill: #ffffff"/>
  </g>
  <g id="axes_1">
   <g id="patch_2">
    <path d="M 43.84 130.08 
Q 65.4 86.96 86.96 130.08 
" clip-path="url(#pf44078bbca)" style="fill: none; stroke: #008000; stroke-width: 2; stroke-linejoin: miter"/>
   </g>
   <g id="patch_3">
    <path d="M 43.84 130.08 
Q 86.96 65.4 130.08 130.08 
" clip-path="url(#pf44078bbca)" style="fill: none; stroke: #0000ff; stroke-width: 2; stroke-linejoin: miter"/>
   </g>
   <g id="patch_4">
    <path d="M 43.84 130.08 
Q 130.08 43.84 216.32 130.08 
" clip-path="url(#pf44078bbca)" style="fill: none; stroke: #ff0000; stroke-width: 2; stroke-linejoin: miter"/>
   </g>
   <g id="patch_5">
    <path d="M 43.84 130.08 
Q 216.32 22.28 388.8 130.08 
" clip-path="url(#pf44078bbca)" style="fill: none; stroke: #800080; stroke-width: 2; stroke-linejoin: miter"/>
   </g>
   <g id="patch_6">
    <path d="M 86.96 130.08 
Q 108.52 86.96 130.08 130.08 
" clip-path="url(#pf44078bbca)" style="fill: none; stroke: #008000; stroke-width: 2; stroke-linejoin: miter"/>
   </g>
   <g id="patch_7">
    <path d="M 86.96 130.08 
Q 130.08 65.4 173.2 130.08 
" clip-path="url(#pf44078bbca)" style="fill: none; stroke: #0000ff; stroke-width: 2; stroke-linejoin: miter"/>
   </g>
   <g id="patch_8">
    <path d="M 86.96 130.08 
Q 173.2 43.84 259.44 130.08 
" clip-path="url(#pf44078bbca)" style="fill: none; stroke: #ff0000; stroke-width: 2; stroke-linejoin: miter"/>
   </g>
   <g id="patch_9">
    <path d="M 86.96 130.08 
Q 259.44 22.28 431.92 130.08 
" clip-path="url(#pf44078bbca)" style="fill: none; stroke: #800080; stroke-width: 2; stroke-linejoin: miter"/>
   </g>
   <g id="patch_10">
    <path d="M 130.08 130.08 
Q 151.64 86.96 173.2 130.08 
" clip-path="url(#pf44078bbca)" style="fill: none; stroke: #008000; stroke-width: 2; stroke-linejoin: miter"/>
   </g>
   <g id="patch_11">
    <path d="M 130.08 130.08 
Q 173.2 65.4 216.32 130.08 
" clip-path="url(#pf44078bbca)" style="fill: none; stroke: #0000ff; stroke-width: 2; stroke-linejoin: miter"/>
   </g>
   <g id="patch_12">
    <path d="M 130.08 130.08 
Q 216.32 43.84 302.56 130.08 
" clip-path="url(#pf44078bbca)" style="fill: none; stroke: #ff0000; stroke-width: 2; stroke-linejoin: miter"/>
   </g>
   <g id="patch_13">
    <path d="M 130.08 130.08 
Q 302.56 22.28 475.04 130.08 
" clip-path="url(#pf44078bbca)" style="fill: none; stroke: #800080; stroke-width: 2; stroke-linejoin: miter"/>
   </g>
   <g id="patch_14">
    <path d="M 173.2 130.08 
Q 194.76 86.96 216.32 130.08 
" clip-path="url(#pf44078bbca)" style="fill: none; stroke: #008000; stroke-width: 2; stroke-linejoin: miter"/>
   </g>
   <g id="patch_15">
    <path d="M 173.2 130.08 
Q 216.32 65.4 259.44 130.08 
" clip-path="url(#pf44078bbca)" style="fill: none; stroke: #0000ff; stroke-width: 2; stroke-linejoin: miter"/>
   </g>
   <g id="patch_16">
    <path d="M 173.2 130.08 
Q 259.44 43.84 345.68 130.08 
" clip-path="url(#pf44078bbca)" style="fill: none; stroke: #ff0000; stroke-width: 2; stroke-linejoin: miter"/>
   </g>
   <g id="patch_17">
    <path d="M 173.2 130.08 
Q 345.68 22.28 518.16 130.08 
" clip-path="url(#pf44078bbca)" style="fill: none; stroke: #800080; stroke-width: 2; stroke-linejoin: miter"/>
   </g>
   <g id="patch_18">
    <path d="M 216.32 130.08 
Q 237.88 86.96 259.44 130.08 
" clip-path="url(#pf44078bbca)" style="fill: none; stroke: #008000; stroke-width: 2; stroke-linejoin: miter"/>
   </g>
   <g id="patch_19">
    <path d="M 216.32 130.08 
Q 259.44 65.4 302.56 130.08 
" clip-path="url(#pf44078bbca)" style="fill: none; stroke: #0000ff; stroke-width: 2; stroke-linejoin: miter"/>
   </g>
   <g id="patch_20">
    <path d="M 216.32 130.08 
Q 302.56 43.84 388.8 130.08 
" clip-path="url(#pf44078bbca)" style="fill: none; stroke: #ff0000; stroke-width: 2; stroke-linejoin: miter"/>
   </g>
   <g id="patch_21">
    <path d="M 216.32 130.08 
Q 388.8 22.28 561.28 130.08 
" clip-path="url(#pf44078bbca)" style="fill: none; stroke: #800080; stroke-width: 2; stroke-linejoin: miter"/>
   </g>
   <g id="patch_22">
    <path d="M 259.44 130.08 
Q 281 86.96 302.56 130.08 
" clip-path="url(#pf44078bbca)" style="fill: none; stroke: #008000; stroke-width: 2; stroke-linejoin: miter"/>
   </g>
   <g id="patch_23">
    <path d="M 259.44 130.08 
Q 302.56 65.4 345.68 130.08 
" clip-path="url(#pf44078bbca)" style="fill: none; stroke: #0000ff; stroke-width: 2; stroke-linejoin: miter"/>
   </g>
   <g id="patch_24">
    <path d="M 259.44 130.08 
Q 345.68 43.84 431.92 130.08 
" clip-path="url(#pf44078bbca)" style="fill: none; stroke: #ff0000; stroke-width: 2; stroke-linejoin: miter"/>
   </g>
   <g id="patch_25">
    <path d="M 259.44 130.08 
Q 431.92 22.28 604.4 130.08 
" clip-path="url(#pf44078bbca)" style="fill: none; stroke: #800080; stroke-width: 2; stroke-linejoin: miter"/>
   </g>
   <g id="patch_26">
    <path d="M 302.56 130.08 
Q 324.12 86.96 345.68 130.08 
" clip-path="url(#pf44078bbca)" style="fill: none; stroke: #008000; stroke-width: 2; stroke-linejoin: miter"/>
   </g>
   <g id="patch_27">
    <path d="M 302.56 130.08 
Q 345.68 65.4 388.8 130.08 
" clip-path="url(#pf44078bbca)" style="fill: none; stroke: #0000ff; stroke-width: 2; stroke-linejoin: miter"/>
   </g>
   <g id="patch_28">
    <path d="M 302.56 130.08 
Q 388.8 43.84 475.04 130.08 
" clip-path="url(#pf44078bbca)" style="fill: none; stroke: #ff0000; stroke-width: 2; stroke-linejoin: miter"/>
   </g>
   <g id="patch_29">
    <path d="M 302.56 130.08 
Q 475.04 22.28 647.52 130.08 
" clip-path="url(#pf44078bbca)" style="fill: none; stroke: #800080; stroke-width: 2; stroke-linejoin: miter"/>
   </g>
   <g id="patch_30">
    <path d="M 345.68 130.08 
Q 367.24 86.96 388.8 130.08 
" clip-path="url(#pf44078bbca)" style="fill: none; stroke: #008000; stroke-width: 2; stroke-linejoin: miter"/>
   </g>
   <g id="patch_31">
    <path d="M 345.68 130.08 
Q 388.8 65.4 431.92 130.08 
" clip-path="url(#pf44078bbca)" style="fill: none; stroke: #0000ff; stroke-width: 2; stroke-linejoin: miter"/>
   </g>
   <g id="patch_32">
    <path d="M 345.68 130.08 
Q 431.92 43.84 518.16 130.08 
" clip-path="url(#pf44078bbca)" style="fill: none; stroke: #ff0000; stroke-width: 2; stroke-linejoin: miter"/>
   </g>
   <g id="patch_33">
    <path d="M 345.68 130.08 
Q 518.16 22.28 690.64 130.08 
" clip-path="url(#pf44078bbca)" style="fill: none; stroke: #800080; stroke-width: 2; stroke-linejoin: miter"/>
   </g>
   <g id="patch_34">
    <path d="M 388.8 130.08 
Q 410.36 86.96 431.92 130.08 
" clip-path="url(#pf44078bbca)" style="fill: none; stroke: #008000; stroke-width: 2; stroke-linejoin: miter"/>
   </g>
   <g id="patch_35">
    <path d="M 388.8 130.08 
Q 431.92 65.4 475.04 130.08 
" clip-path="url(#pf44078bbca)" style="fill: none; stroke: #0000ff; stroke-width: 2; stroke-linejoin: miter"/>
   </g>
   <g id="patch_36">
    <path d="M 388.8 130.08 
Q 475.04 43.84 561.28 130.08 
" clip-path="url(#pf44078bbca)" style="fill: none; stroke: #ff0000; stroke-width: 2; stroke-linejoin: miter"/>
   </g>
   <g id="patch_37">
    <path d="M 388.8 130.08 
Q 561.28 22.28 733.76 130.08 
" clip-path="url(#pf44078bbca)" style="fill: none; stroke: #800080; stroke-width: 2; stroke-linejoin: miter"/>
   </g>
   <g id="patch_38">
    <path d="M 431.92 130.08 
Q 453.48 86.96 475.04 130.08 
" clip-path="url(#pf44078bbca)" style="fill: none; stroke: #008000; stroke-width: 2; stroke-linejoin: miter"/>
   </g>
   <g id="patch_39">
    <path d="M 431.92 130.08 
Q 475.04 65.4 518.16 130.08 
" clip-path="url(#pf44078bbca)" style="fill: none; stroke: #0000ff; stroke-width: 2; stroke-linejoin: miter"/>
   </g>
   <g id="patch_40">
    <path d="M 431.92 130.08 
Q 518.16 43.84 604.4 130.08 
" clip-path="url(#pf44078bbca)" style="fill: none; stroke: #ff0000; stroke-width: 2; stroke-linejoin: miter"/>
   </g>
   <g id="patch_41">
    <path d="M 431.92 130.08 
Q 604.4 22.28 776.88 130.08 
" clip-path="url(#pf44078bbca)" style="fill: none; stroke: #800080; stroke-width: 2; stroke-linejoin: miter"/>
   </g>
   <g id="patch_42">
    <path d="M 475.04 130.08 
Q 496.6 86.96 518.16 130.08 
" clip-path="url(#pf44078bbca)" style="fill: none; stroke: #008000; stroke-width: 2; stroke-linejoin: miter"/>
   </g>
   <g id="patch_43">
    <path d="M 475.04 130.08 
Q 518.16 65.4 561.28 130.08 
" clip-path="url(#pf44078bbca)" style="fill: none; stroke: #0000ff; stroke-width: 2; stroke-linejoin: miter"/>
   </g>
   <g id="patch_44">
    <path d="M 475.04 130.08 
Q 561.28 43.84 647.52 130.08 
" clip-path="url(#pf44078bbca)" style="fill: none; stroke: #ff0000; stroke-width: 2; stroke-linejoin: miter"/>
   </g>
   <g id="patch_45">
    <path d="M 475.04 130.08 
Q 647.52 22.28 820 130.08 
" clip-path="url(#pf44078bbca)" style="fill: none; stroke: #800080; stroke-width: 2; stroke-linejoin: miter"/>
   </g>
   <g id="patch_46">
    <path d="M 518.16 130.08 
Q 539.72 86.96 561.28 130.08 
" clip-path="url(#pf44078bbca)" style="fill: none; stroke: #008000; stroke-width: 2; stroke-linejoin: miter"/>
   </g>
   <g id="patch_47">
    <path d="M 518.16 130.08 
Q 561.28 65.4 604.4 130.08 
" clip-path="url(#pf44078bbca)" style="fill: none; stroke: #0000ff; stroke-width: 2; stroke-linejoin: miter"/>
   </g>
   <g id="patch_48">
    <path d="M 518.16 130.08 
Q 604.4 43.84 690.64 130.08 
" clip-path="url(#pf44078bbca)" style="fill: none; stroke: #ff0000; stroke-width: 2; stroke-linejoin: miter"/>
   </g>
   <g id="patch_49">
    <path d="M 518.16 130.08 
Q 690.64 22.28 863.12 130.08 
" clip-path="url(#pf44078bbca)" style="fill: none; stroke: #800080; stroke-width: 2; stroke-linejoin: miter"/>
   </g>
   <g id="patch_50">
    <path d="M 561.28 130.08 
Q 582.84 86.96 604.4 130.08 
" clip-path="url(#pf44078bbca)" style="fill: none; stroke: #008000; stroke-width: 2; stroke-linejoin: miter"/>
   </g>
   <g id="patch_51">
    <path d="M 561.28 130.08 
Q 604.4 65.4 647.52 130.08 
" clip-path="url(#pf44078bbca)" style="fill: none; stroke: #0000ff; stroke-width: 2; stroke-linejoin: miter"/>
   </g>
   <g id="patch_52">
    <path d="M 561.28 130.08 
Q 647.52 43.84 733.76 130.08 
" clip-path="url(#pf44078bbca)" style="fill: none; stroke: #ff0000; stroke-width: 2; stroke-linejoin: miter"/>
   </g>
   <g id="patch_53">
    <path d="M 604.4 130.08 
Q 625.96 86.96 647.52 130.08 
" clip-path="url(#pf44078bbca)" style="fill: none; stroke: #008000; stroke-width: 2; stroke-linejoin: miter"/>
   </g>
   <g id="patch_54">
    <path d="M 604.4 130.08 
Q 647.52 65.4 690.64 130.08 
" clip-path="url(#pf44078bbca)" style="fill: none; stroke: #0000ff; stroke-width: 2; stroke-linejoin: miter"/>
   </g>
   <g id="patch_55">
    <path d="M 604.4 130.08 
Q 690.64 43.84 776.88 130.08 
" clip-path="url(#pf44078bbca)" style="fill: none; stroke: #ff0000; stroke-width: 2; stroke-linejoin: miter"/>
   </g>
   <g id="patch_56">
    <path d="M 647.52 130.08 
Q 669.08 86.96 690.64 130.08 
" clip-path="url(#pf44078bbca)" style="fill: none; stroke: #008000; stroke-width: 2; stroke-linejoin: miter"/>
   </g>
   <g id="patch_57">
    <path d="M 647.52 130.08 
Q 690.64 65.4 733.76 130.08 
" clip-path="url(#pf44078bbca)" style="fill: none; stroke: #0000ff; stroke-width: 2; stroke-linejoin: miter"/>
   </g>
   <g id="patch_58">
    <path d="M 647.52 130.08 
Q 733.76 43.84 820 130.08 
" clip-path="url(#pf44078bbca)" style="fill: none; stroke: #ff0000; stroke-width: 2; stroke-linejoin: miter"/>
   </g>
   <g id="patch_59">
    <path d="M 690.64 130.08 
Q 712.2 86.96 733.76 130.08 
" clip-path="url(#pf44078bbca)" style="fill: none; stroke: #008000; stroke-width: 2; stroke-linejoin: miter"/>
   </g>
   <g id="patch_60">
    <path d="M 690.64 130.08 
Q 733.76 65.4 776.88 130.08 
" clip-path="url(#pf44078bbca)" style="fill: none; stroke: #0000ff; stroke-width: 2; stroke-linejoin: miter"/>
   </g>
   <g id="patch_61">
    <path d="M 690.64 130.08 
Q 776.88 43.84 863.12 130.08 
" clip-path="url(#pf44078bbca)" style="fill: none; stroke: #ff0000; stroke-width: 2; stroke-linejoin: miter"/>
   </g>
   <g id="patch_62">
    <path d="M 733.76 130.08 
Q 755.32 86.96 776.88 130.08 
" clip-path="url(#pf44078bbca)" style="fill: none; stroke: #008000; stroke-width: 2; stroke-linejoin: miter"/>
   </g>
   <g id="patch_63">
    <path d="M 733.76 130.08 
Q 776.88 65.4 820 130.08 
" clip-path="url(#pf44078bbca)" style="fill: none; stroke: #0000ff; stroke-width: 2; stroke-linejoin: miter"/>
   </g>
   <g id="patch_64">
    <path d="M 776.88 130.08 
Q 798.44 86.96 820 130.08 
" clip-path="url(#pf44078bbca)" style="fill: none; stroke: #008000; stroke-width: 2; stroke-linejoin: miter"/>
   </g>
   <g id="patch_65">
    <path d="M 776.88 130.08 
Q 820 65.4 863.12 130.08 
" clip-path="url(#pf44078bbca)" style="fill: none; stroke: #0000ff; stroke-width: 2; stroke-linejoin: miter"/>
   </g>
   <g id="patch_66">
    <path d="M 820 130.08 
Q 841.56 86.96 863.12 130.08 
" clip-path="url(#pf44078bbca)" style="fill: none; stroke: #008000; stroke-width: 2; stroke-linejoin: miter"/>
   </g>
   <g id="line2d_1">
    <path d="M 0.72 130.08 
L 906.24 130.08 
" clip-path="url(#pf44078bbca)" style="fill: none; stroke: #000000; stroke-linecap: square"/>
   </g>
   <g id="line2d_2">
    <defs>
     <path id="me4f7f8e5e3" d="M 0 2.5 
C 0.663008 2.5 1.29895 2.236584 1.767767 1.767767 
C 2.236584 1.29895 2.5 0.663008 2.5 0 
C 2.5 -0.663008 2.236584 -1.29895 1.767767 -1.767767 
C 1.29895 -2.236584 0.663008 -2.5 0 -2.5 
C -0.663008 -2.5 -1.29895 -2.236584 -1.767767 -1.767767 
C -2.236584 -1.29895 -2.5 -0.663008 -2.5 0 
C -2.5 0.663008 -2.236584 1.29895 -1.767767 1.767767 
C -1.29895 2.236584 -0.663008 2.5 0 2.5 
z
" style="stroke: #000000"/>
    </defs>
    <g clip-path="url(#pf44078bbca)">
     <use xlink:href="#me4f7f8e5e3" x="43.84" y="130.08" style="stroke: #000000"/>
    </g>
   </g>
   <g id="line2d_3">
    <g clip-path="url(#pf44078bbca)">
     <use xlink:href="#me4f7f8e5e3" x="86.96" y="130.08" style="stroke: #000000"/>
    </g>
   </g>
   <g id="line2d_4">
    <g clip-path="url(#pf44078bbca)">
     <use xlink:href="#me4f7f8e5e3" x="130.08" y="130.08" style="stroke: #000000"/>
    </g>
   </g>
   <g id="line2d_5">
    <g clip-path="url(#pf44078bbca)">
     <use xlink:href="#me4f7f8e5e3" x="173.2" y="130.08" style="stroke: #000000"/>
    </g>
   </g>
   <g id="line2d_6">
    <g clip-path="url(#pf44078bbca)">
     <use xlink:href="#me4f7f8e5e3" x="216.32" y="130.08" style="stroke: #000000"/>
    </g>
   </g>
   <g id="line2d_7">
    <g clip-path="url(#pf44078bbca)">
     <use xlink:href="#me4f7f8e5e3" x="259.44" y="130.08" style="stroke: #000000"/>
    </g>
   </g>
   <g id="line2d_8">
    <g clip-path="url(#pf44078bbca)">
     <use xlink:href="#me4f7f8e5e3" x="302.56" y="130.08" style="stroke: #000000"/>
    </g>
   </g>
   <g id="line2d_9">
    <g clip-path="url(#pf44078bbca)">
     <use xlink:href="#me4f7f8e5e3" x="345.68" y="130.08" style="stroke: #000000"/>
    </g>
   </g>
   <g id="line2d_10">
    <g clip-path="url(#pf44078bbca)">
     <use xlink:href="#me4f7f8e5e3" x="388.8" y="130.08" style="stroke: #000000"/>
    </g>
   </g>
   <g id="line2d_11">
    <g clip-path="url(#pf44078bbca)">
     <use xlink:href="#me4f7f8e5e3" x="431.92" y="130.08" style="stroke: #000000"/>
    </g>
   </g>
   <g id="line2d_12">
    <g clip-path="url(#pf44078bbca)">
     <use xlink:href="#me4f7f8e5e3" x="475.04" y="130.08" style="stroke: #000000"/>
    </g>
   </g>
   <g id="line2d_13">
    <g clip-path="url(#pf44078bbca)">
     <use xlink:href="#me4f7f8e5e3" x="518.16" y="130.08" style="stroke: #000000"/>
    </g>
   </g>
   <g id="line2d_14">
    <g clip-path="url(#pf44078bbca)">
     <use xlink:href="#me4f7f8e5e3" x="561.28" y="130.08" style="stroke: #000000"/>
    </g>
   </g>
   <g id="line2d_15">
    <g clip-path="url(#pf44078bbca)">
     <use xlink:href="#me4f7f8e5e3" x="604.4" y="130.08" style="stroke: #000000"/>
    </g>
   </g>
   <g id="line2d_16">
    <g clip-path="url(#pf44078bbca)">
     <use xlink:href="#me4f7f8e5e3" x="647.52" y="130.08" style="stroke: #000000"/>
    </g>
   </g>
   <g id="line2d_17">
    <g clip-path="url(#pf44078bbca)">
     <use xlink:href="#me4f7f8e5e3" x="690.64" y="130.08" style="stroke: #000000"/>
    </g>
   </g>
   <g id="line2d_18">
    <g clip-path="url(#pf44078bbca)">
     <use xlink:href="#me4f7f8e5e3" x="733.76" y="130.08" style="stroke: #000000"/>
    </g>
   </g>
   <g id="line2d_19">
    <g clip-path="url(#pf44078bbca)">
     <use xlink:href="#me4f7f8e5e3" x="776.88" y="130.08" style="stroke: #000000"/>
    </g>
   </g>
   <g id="line2d_20">
    <g clip-path="url(#pf44078bbca)">
     <use xlink:href="#me4f7f8e5e3" x="820" y="130.08" style="stroke: #000000"/>
    </g>
   </g>
   <g id="line2d_21">
    <g clip-path="url(#pf44078bbca)">
     <use xlink:href="#me4f7f8e5e3" x="863.12" y="130.08" style="stroke: #000000"/>
    </g>
   </g>
  </g>
 </g>
 <defs>
  <clipPath id="pf44078bbca">
   <rect x="0.72" y="0.72" width="905.52" height="215.6"/>
  </clipPath>
 </defs>
</svg>
