<?xml version="1.0" encoding="UTF-8" standalone="no"?>
<!DOCTYPE svg PUBLIC "-//W3C//DTD SVG 1.1//EN" "http://www.w3.org/Graphics/SVG/1.1/DTD/svg11.dtd">
<!-- 由 Microsoft Visio, SVG Export 生成 优先队列.svg Page-1 -->
<svg xmlns="http://www.w3.org/2000/svg" xmlns:xlink="http://www.w3.org/1999/xlink" xmlns:ev="http://www.w3.org/2001/xml-events"
		width="6.87402in" height="4.91639in" viewBox="0 0 494.929 353.98" xml:space="preserve" color-interpolation-filters="sRGB"
		class="st10">
	<style type="text/css">
	<![CDATA[
		.st1 {fill:none;stroke:#c7c8c8;stroke-dasharray:14,10;stroke-width:2}
		.st2 {fill:#265316;stroke:#265316;stroke-width:0.25}
		.st3 {marker-end:url(#mrkr5-25);stroke:#7f340d;stroke-linecap:round;stroke-linejoin:round;stroke-width:3}
		.st4 {fill:#7f340d;fill-opacity:1;stroke:#7f340d;stroke-opacity:1;stroke-width:0.54347826086957}
		.st5 {fill:#156082;stroke:#c7c8c8;stroke-width:0.25}
		.st6 {stroke:#156082;stroke-linecap:round;stroke-linejoin:round;stroke-width:1}
		.st7 {fill:none;stroke:none;stroke-width:0.25}
		.st8 {fill:#265316;font-family:A03;font-size:1.66667em}
		.st9 {font-size:1em}
		.st10 {fill:none;fill-rule:evenodd;font-size:12px;overflow:visible;stroke-linecap:square;stroke-miterlimit:3}
	]]>
	</style>

	<defs id="Markers">
		<g id="lend5">
			<path d="M 2 1 L 0 0 L 1.98117 -0.993387 C 1.67173 -0.364515 1.67301 0.372641 1.98465 1.00043 " style="stroke:none"/>
		</g>
		<marker id="mrkr5-25" class="st4" refX="-3.22" orient="auto" markerUnits="strokeWidth" overflow="visible">
			<use xlink:href="#lend5" transform="scale(-1.84,-1.84) "/>
		</marker>
	</defs>
	<g>
		<title>页-1</title>
		<g id="shape25-1" transform="translate(195.732,-69.2736)">
			<title>矩形.25</title>
			<rect x="0" y="189.571" width="198.425" height="164.409" rx="11.3386" ry="11.3386" class="st1"/>
		</g>
		<g id="shape26-3" transform="translate(269.433,-97.6201)">
			<title>圆形.26</title>
			<path d="M0 342.64 A11.3386 11.3386 0 0 1 22.68 342.64 A11.3386 11.3386 0 1 1 0 342.64 Z" class="st2"/>
		</g>
		<g id="shape27-5" transform="translate(229.748,-125.967)">
			<title>圆形.27</title>
			<path d="M0 329.89 A24.0945 24.0945 0 0 1 48.19 329.89 A24.0945 24.0945 0 1 1 -0 329.89 Z" class="st2"/>
		</g>
		<g id="shape28-7" transform="translate(263.764,-162.817)">
			<title>圆形.28</title>
			<path d="M0 322.8 A31.1811 31.1811 0 0 1 62.36 322.8 A31.1811 31.1811 0 1 1 0 322.8 Z" class="st2"/>
		</g>
		<g id="shape29-9" transform="translate(306.284,-100.455)">
			<title>圆形.29</title>
			<path d="M0 345.48 A8.50394 8.50394 0 0 1 17.01 345.48 A8.50394 8.50394 0 1 1 -0 345.48 Z" class="st2"/>
		</g>
		<g id="shape30-11" transform="translate(320.457,-130.219)">
			<title>圆形.30</title>
			<path d="M0 336.26 A17.7165 17.7165 0 0 1 35.43 336.26 A17.7165 17.7165 0 1 1 0 336.26 Z" class="st2"/>
		</g>
		<g id="shape31-13" transform="translate(212.74,-97.6201)">
			<title>圆形.31</title>
			<path d="M0 341.22 A12.7559 12.7559 0 0 1 25.51 341.22 A12.7559 12.7559 0 1 1 0 341.22 Z" class="st2"/>
		</g>
		<g id="shape32-15" transform="translate(283.606,-18.25)">
			<title>圆形.32</title>
			<path d="M0 342.64 A11.3386 11.3386 0 1 1 22.68 342.64 A11.3386 11.3386 0 0 1 0 342.64 Z" class="st2"/>
		</g>
		<g id="shape33-17" transform="translate(259.512,-264.864)">
			<title>圆形.33</title>
			<path d="M0 318.55 A35.4331 35.4331 0 0 1 70.87 318.55 A35.4331 35.4331 0 1 1 0 318.55 Z" class="st2"/>
		</g>
		<g id="shape34-19" transform="translate(-59.0353,313.053) rotate(-90)">
			<title>工作表.34</title>
			<path d="M0 353.98 L18.69 353.98" class="st3"/>
		</g>
		<g id="shape35-26" transform="translate(-59.0353,120.297) rotate(-90)">
			<title>工作表.35</title>
			<path d="M0 353.98 L21.52 353.98" class="st3"/>
		</g>
		<g id="shape1-31" transform="translate(96.5198,-69.2736)">
			<title>矩形</title>
			<rect x="0" y="149.886" width="62.3622" height="204.094" rx="11.3386" ry="11.3386" class="st1"/>
		</g>
		<g id="shape2-33" transform="translate(116.362,-236.518)">
			<title>圆形</title>
			<path d="M0 342.64 A11.3386 11.3386 0 1 1 22.68 342.64 A11.3386 11.3386 0 0 1 0 342.64 Z" class="st5"/>
		</g>
		<g id="shape3-35" transform="translate(116.362,-206.47)">
			<title>圆形.3</title>
			<path d="M0 342.64 A11.3386 11.3386 0 1 1 22.68 342.64 A11.3386 11.3386 0 0 1 0 342.64 Z" class="st5"/>
		</g>
		<g id="shape4-37" transform="translate(116.362,-176.423)">
			<title>圆形.4</title>
			<path d="M0 342.64 A11.3386 11.3386 0 1 1 22.68 342.64 A11.3386 11.3386 0 0 1 0 342.64 Z" class="st5"/>
		</g>
		<g id="shape5-39" transform="translate(116.362,-116.329)">
			<title>圆形.5</title>
			<path d="M0 342.64 A11.3386 11.3386 0 1 1 22.68 342.64 A11.3386 11.3386 0 0 1 0 342.64 Z" class="st5"/>
		</g>
		<g id="shape6-41" transform="translate(116.362,-86.2815)">
			<title>圆形.6</title>
			<path d="M0 342.64 A11.3386 11.3386 0 1 1 22.68 342.64 A11.3386 11.3386 0 0 1 0 342.64 Z" class="st5"/>
		</g>
		<g id="shape7-43" transform="translate(116.362,-146.376)">
			<title>圆形.7</title>
			<path d="M0 342.64 A11.3386 11.3386 0 1 1 22.68 342.64 A11.3386 11.3386 0 0 1 0 342.64 Z" class="st5"/>
		</g>
		<g id="shape8-45" transform="translate(116.362,-18.25)">
			<title>圆形.8</title>
			<path d="M0 342.64 A11.3386 11.3386 0 1 1 22.68 342.64 A11.3386 11.3386 0 0 1 0 342.64 Z" class="st5"/>
		</g>
		<g id="shape9-47" transform="translate(116.362,-313.053)">
			<title>圆形.9</title>
			<path d="M0 342.64 A11.3386 11.3386 0 1 1 22.68 342.64 A11.3386 11.3386 0 0 1 0 342.64 Z" class="st5"/>
		</g>
		<g id="shape11-49" transform="translate(-226.279,313.053) rotate(-90)">
			<title>工作表.11</title>
			<path d="M0 353.98 L18.69 353.98" class="st3"/>
		</g>
		<g id="shape13-54" transform="translate(-226.279,80.6122) rotate(-90)">
			<title>工作表.13</title>
			<path d="M0 353.98 L30.03 353.98" class="st3"/>
		</g>
		<g id="shape37-59" transform="translate(599.831,317.733) rotate(112.542)">
			<title>工作表.37</title>
			<path d="M0 353.98 L5.25 353.98" class="st6"/>
		</g>
		<g id="shape38-62" transform="translate(599.754,-30.9219) rotate(53.0152)">
			<title>工作表.38</title>
			<path d="M0 353.98 L14.37 353.98" class="st6"/>
		</g>
		<g id="shape39-65" transform="translate(469.848,487.402) rotate(138.825)">
			<title>工作表.39</title>
			<path d="M0 353.98 L15.02 353.98" class="st6"/>
		</g>
		<g id="shape40-68" transform="translate(550.372,3.73261) rotate(52.1448)">
			<title>工作表.40</title>
			<path d="M0 353.98 L16.12 353.98" class="st6"/>
		</g>
		<g id="shape41-71" transform="translate(628.502,401.82) rotate(121.176)">
			<title>工作表.41</title>
			<path d="M0 353.98 L20.97 353.98" class="st6"/>
		</g>
		<g id="shape42-74" transform="translate(29.9056,-66.1555)">
			<title>工作表.42</title>
			<desc>传统队列 先进先出</desc>
			<rect x="0" y="245.697" width="48.189" height="108.283" class="st7"/>
			<text x="49.88" y="259.84" writing-mode="tb-rl" class="st8">传统队列  <tspan dx="-2.4em" y="12.992em 13.992em 14.992em 15.992em"
						class="st9">先进先出</tspan></text>		</g>
		<g id="shape43-78" transform="translate(405.496,-66.1555)">
			<title>工作表.43</title>
			<desc>优者先出 优先队列</desc>
			<rect x="0" y="245.697" width="70.8661" height="108.283" class="st7"/>
			<text x="61.22" y="259.84" writing-mode="tb-rl" class="st8">优者先出  <tspan dx="-2.4em" y="12.992em 13.992em 14.992em 15.992em"
						class="st9">优先队列</tspan></text>		</g>
	</g>
</svg>
