<svg width="1950" height="943" xmlns="http://www.w3.org/2000/svg" xmlns:xlink="http://www.w3.org/1999/xlink" xml:space="preserve" overflow="hidden"><g transform="translate(-266 -1290)"><path d="M1209.5 1404C1209.5 1342.97 1259.2 1293.5 1320.5 1293.5 1381.8 1293.5 1431.5 1342.97 1431.5 1404 1431.5 1465.03 1381.8 1514.5 1320.5 1514.5 1259.2 1514.5 1209.5 1465.03 1209.5 1404Z" stroke="#000000" stroke-width="6.875" stroke-linejoin="round" stroke-miterlimit="10" fill="none" fill-rule="evenodd"/><text font-family="A03,A03_MSFontService,sans-serif" font-weight="400" font-size="64" transform="matrix(1 0 0 1 1301.3 1428)">1</text><path d="M694.5 1640.5C694.5 1579.2 744.196 1529.5 805.5 1529.5 866.804 1529.5 916.5 1579.2 916.5 1640.5 916.5 1701.8 866.804 1751.5 805.5 1751.5 744.196 1751.5 694.5 1701.8 694.5 1640.5Z" stroke="#000000" stroke-width="6.875" stroke-linejoin="round" stroke-miterlimit="10" fill="none" fill-rule="evenodd"/><text font-family="A03,A03_MSFontService,sans-serif" font-weight="400" font-size="64" transform="matrix(1 0 0 1 782.461 1665)">2</text><path d="M1726.5 1636.5C1726.5 1575.2 1776.2 1525.5 1837.5 1525.5 1898.8 1525.5 1948.5 1575.2 1948.5 1636.5 1948.5 1697.8 1898.8 1747.5 1837.5 1747.5 1776.2 1747.5 1726.5 1697.8 1726.5 1636.5Z" stroke="#000000" stroke-width="6.875" stroke-linejoin="round" stroke-miterlimit="10" fill="none" fill-rule="evenodd"/><text font-family="A03,A03_MSFontService,sans-serif" font-weight="400" font-size="64" transform="matrix(1 0 0 1 1813.64 1661)">3</text><path d="M424.5 1851.5C424.5 1790.2 474.196 1740.5 535.5 1740.5 596.804 1740.5 646.5 1790.2 646.5 1851.5 646.5 1912.8 596.804 1962.5 535.5 1962.5 474.196 1962.5 424.5 1912.8 424.5 1851.5Z" stroke="#000000" stroke-width="6.875" stroke-linejoin="round" stroke-miterlimit="10" fill="none" fill-rule="evenodd"/><text font-family="A03,A03_MSFontService,sans-serif" font-weight="400" font-size="64" transform="matrix(1 0 0 1 511.698 1876)">4</text><path d="M982.5 1851.5C982.5 1790.2 1032.2 1740.5 1093.5 1740.5 1154.8 1740.5 1204.5 1790.2 1204.5 1851.5 1204.5 1912.8 1154.8 1962.5 1093.5 1962.5 1032.2 1962.5 982.5 1912.8 982.5 1851.5Z" stroke="#000000" stroke-width="6.875" stroke-linejoin="round" stroke-miterlimit="10" fill="none" fill-rule="evenodd"/><text font-family="A03,A03_MSFontService,sans-serif" font-weight="400" font-size="64" transform="matrix(1 0 0 1 1070.16 1876)">5</text><path d="M1375.5 2118.5C1375.5 2057.2 1425.2 2007.5 1486.5 2007.5 1547.8 2007.5 1597.5 2057.2 1597.5 2118.5 1597.5 2179.8 1547.8 2229.5 1486.5 2229.5 1425.2 2229.5 1375.5 2179.8 1375.5 2118.5Z" stroke="#000000" stroke-width="6.875" stroke-linejoin="round" stroke-miterlimit="10" fill="none" fill-rule="evenodd"/><text font-family="A03,A03_MSFontService,sans-serif" font-weight="400" font-size="64" transform="matrix(1 0 0 1 1445.09 2143)">12</text><path d="M1501.5 1851.5C1501.5 1790.2 1551.2 1740.5 1612.5 1740.5 1673.8 1740.5 1723.5 1790.2 1723.5 1851.5 1723.5 1912.8 1673.8 1962.5 1612.5 1962.5 1551.2 1962.5 1501.5 1912.8 1501.5 1851.5Z" stroke="#000000" stroke-width="6.875" stroke-linejoin="round" stroke-miterlimit="10" fill="none" fill-rule="evenodd"/><text font-family="A03,A03_MSFontService,sans-serif" font-weight="400" font-size="64" transform="matrix(1 0 0 1 1588.37 1876)">6</text><path d="M583.5 2118.5C583.5 2057.2 633.196 2007.5 694.5 2007.5 755.803 2007.5 805.5 2057.2 805.5 2118.5 805.5 2179.8 755.803 2229.5 694.5 2229.5 633.196 2229.5 583.5 2179.8 583.5 2118.5Z" stroke="#000000" stroke-width="6.875" stroke-linejoin="round" stroke-miterlimit="10" fill="none" fill-rule="evenodd"/><text font-family="A03,A03_MSFontService,sans-serif" font-weight="400" font-size="64" transform="matrix(1 0 0 1 671.265 2143)">9</text><path d="M269.5 2118.5C269.5 2057.2 319.196 2007.5 380.5 2007.5 441.804 2007.5 491.5 2057.2 491.5 2118.5 491.5 2179.8 441.804 2229.5 380.5 2229.5 319.196 2229.5 269.5 2179.8 269.5 2118.5Z" stroke="#000000" stroke-width="6.875" stroke-linejoin="round" stroke-miterlimit="10" fill="none" fill-rule="evenodd"/><text font-family="A03,A03_MSFontService,sans-serif" font-weight="400" font-size="64" transform="matrix(1 0 0 1 356.088 2143)">8</text><path d="M1990.5 1851.5C1990.5 1790.2 2040.2 1740.5 2101.5 1740.5 2162.8 1740.5 2212.5 1790.2 2212.5 1851.5 2212.5 1912.8 2162.8 1962.5 2101.5 1962.5 2040.2 1962.5 1990.5 1912.8 1990.5 1851.5Z" stroke="#000000" stroke-width="6.875" stroke-linejoin="round" stroke-miterlimit="10" fill="none" fill-rule="evenodd"/><text font-family="A03,A03_MSFontService,sans-serif" font-weight="400" font-size="64" transform="matrix(1 0 0 1 2079.07 1876)">7</text><path d="M0 0 325.373 158.255" stroke="#000000" stroke-width="6.875" stroke-linejoin="round" stroke-miterlimit="10" fill="none" fill-rule="evenodd" transform="matrix(-1 0 0 1 1209.87 1403.5)"/><path d="M1431.5 1403.5 1759.26 1557.4" stroke="#000000" stroke-width="6.875" stroke-linejoin="round" stroke-miterlimit="10" fill="none" fill-rule="evenodd"/><path d="M0 0 158.64 100.222" stroke="#000000" stroke-width="6.875" stroke-linejoin="round" stroke-miterlimit="10" fill="none" fill-rule="evenodd" transform="matrix(-1 0 0 1 694.14 1640.5)"/><path d="M916.5 1640.5 1093.79 1740.72" stroke="#000000" stroke-width="6.875" stroke-linejoin="round" stroke-miterlimit="10" fill="none" fill-rule="evenodd"/><path d="M0 0 77.423 77.3836" stroke="#000000" stroke-width="6.875" stroke-linejoin="round" stroke-miterlimit="10" fill="none" fill-rule="evenodd" transform="matrix(-1 0 0 1 457.923 1930.5)"/><path d="M614.5 1930.5 695.021 2007.88" stroke="#000000" stroke-width="6.875" stroke-linejoin="round" stroke-miterlimit="10" fill="none" fill-rule="evenodd"/><path d="M0 0 114.579 104.574" stroke="#000000" stroke-width="6.875" stroke-linejoin="round" stroke-miterlimit="10" fill="none" fill-rule="evenodd" transform="matrix(-1 0 0 1 1727.08 1636.5)"/><path d="M1948.5 1636.5 2101.52 1741.07" stroke="#000000" stroke-width="6.875" stroke-linejoin="round" stroke-miterlimit="10" fill="none" fill-rule="evenodd"/><path d="M0 0 46.763 77.3836" stroke="#000000" stroke-width="6.875" stroke-linejoin="round" stroke-miterlimit="10" fill="none" fill-rule="evenodd" transform="matrix(-1 0 0 1 1533.26 1930.5)"/><path d="M836.5 2118.5C836.5 2057.2 886.196 2007.5 947.5 2007.5 1008.8 2007.5 1058.5 2057.2 1058.5 2118.5 1058.5 2179.8 1008.8 2229.5 947.5 2229.5 886.196 2229.5 836.5 2179.8 836.5 2118.5Z" stroke="#000000" stroke-width="6.875" stroke-linejoin="round" stroke-miterlimit="10" fill="none" fill-rule="evenodd"/><text font-family="A03,A03_MSFontService,sans-serif" font-weight="400" font-size="64" transform="matrix(1 0 0 1 904.647 2143)">10</text><path d="M1129.5 2118.5C1129.5 2057.2 1179.2 2007.5 1240.5 2007.5 1301.8 2007.5 1351.5 2057.2 1351.5 2118.5 1351.5 2179.8 1301.8 2229.5 1240.5 2229.5 1179.2 2229.5 1129.5 2179.8 1129.5 2118.5Z" stroke="#000000" stroke-width="6.875" stroke-linejoin="round" stroke-miterlimit="10" fill="none" fill-rule="evenodd"/><text font-family="A03,A03_MSFontService,sans-serif" font-weight="400" font-size="64" transform="matrix(1 0 0 1 1202.72 2143)">11</text><path d="M0 0 68.1296 77.3836" stroke="#000000" stroke-width="6.875" stroke-linejoin="round" stroke-miterlimit="10" fill="none" fill-rule="evenodd" transform="matrix(-1 0 0 1 1015.63 1930.5)"/><path d="M1172.5 1930.5 1240.63 2007.88" stroke="#000000" stroke-width="6.875" stroke-linejoin="round" stroke-miterlimit="10" fill="none" fill-rule="evenodd"/></g></svg>