<svg width="3277" height="916" xmlns="http://www.w3.org/2000/svg" xmlns:xlink="http://www.w3.org/1999/xlink" xml:space="preserve" overflow="hidden"><g transform="translate(-301 -1234)"><path d="M303.5 1718C303.5 1674.09 339.093 1638.5 383 1638.5 426.906 1638.5 462.5 1674.09 462.5 1718 462.5 1761.91 426.906 1797.5 383 1797.5 339.093 1797.5 303.5 1761.91 303.5 1718Z" stroke="#2F528F" stroke-width="4.58333" stroke-miterlimit="8" fill="#4472C4" fill-rule="evenodd"/><path d="M373.476 1705.72C375.989 1705.72 378.279 1705.87 380.346 1706.17 382.412 1706.46 384.473 1706.98 386.526 1707.71L384.702 1716.22 381.42 1716.22C381.122 1713.81 380.332 1711.99 379.049 1710.75 377.765 1709.5 375.746 1708.88 372.99 1708.88 370.855 1708.88 369.126 1709.43 367.802 1710.52 366.478 1711.62 365.816 1713.06 365.816 1714.84 365.816 1715.81 365.985 1716.67 366.323 1717.41 366.661 1718.16 367.343 1718.97 368.37 1719.87 369.396 1720.76 370.99 1721.85 373.152 1723.15 374.854 1724.18 376.219 1725.11 377.245 1725.97 378.272 1726.82 379.082 1727.66 379.677 1728.5 380.271 1729.34 380.704 1730.22 380.974 1731.15 381.244 1732.08 381.379 1733.21 381.379 1734.54 381.379 1736.94 380.737 1739 379.454 1740.72 378.171 1742.43 376.428 1743.71 374.226 1744.55 372.024 1745.38 369.518 1745.8 366.708 1745.8 364.466 1745.8 362.264 1745.63 360.102 1745.3 357.941 1744.96 355.536 1744.38 352.888 1743.57L354.834 1734.74 357.995 1734.74C358.103 1737.33 358.832 1739.29 360.183 1740.62 361.534 1741.94 363.682 1742.6 366.627 1742.6 369.194 1742.6 371.2 1742.03 372.645 1740.88 374.091 1739.73 374.814 1738.1 374.814 1736 374.814 1734.78 374.611 1733.73 374.206 1732.85 373.8 1731.98 373.138 1731.13 372.22 1730.32 371.301 1729.51 369.842 1728.5 367.843 1727.28 365.735 1726.01 364.094 1724.86 362.919 1723.84 361.743 1722.81 360.859 1721.7 360.264 1720.49 359.67 1719.29 359.373 1717.91 359.373 1716.34 359.373 1714.21 359.947 1712.33 361.095 1710.73 362.243 1709.12 363.885 1707.88 366.019 1707.02 368.154 1706.15 370.639 1705.72 373.476 1705.72Z" fill="#FFFFFF" fill-rule="evenodd"/><text fill="#000000" fill-opacity="0" font-family="Arial,Arial_MSFontService,sans-serif" font-size="40.0815" x="352.888" y="1740.79">𝑠</text><path d="M693.5 1559C693.5 1515.09 729.093 1479.5 773 1479.5 816.907 1479.5 852.5 1515.09 852.5 1559 852.5 1602.91 816.907 1638.5 773 1638.5 729.093 1638.5 693.5 1602.91 693.5 1559Z" stroke="#2F528F" stroke-width="4.58333" stroke-miterlimit="8" fill="#4472C4" fill-rule="evenodd"/><path d="M759.96 1546.37C761.905 1546.37 763.31 1546.88 764.174 1547.89 765.039 1548.9 765.471 1550.26 765.471 1551.96 765.471 1553.26 765.242 1554.75 764.782 1556.42 764.323 1558.1 763.675 1559.87 762.837 1561.73 762 1563.59 761 1565.51 759.838 1567.46 758.676 1569.42 757.393 1571.33 755.988 1573.18 754.583 1575.03 753.083 1576.77 751.489 1578.41 749.895 1580.04 748.24 1581.47 746.525 1582.68 744.809 1583.9 743.067 1584.86 741.297 1585.58 739.527 1586.3 737.764 1586.65 736.008 1586.65 735.224 1586.65 734.569 1586.46 734.042 1586.07 733.516 1585.68 733.09 1585.12 732.766 1584.41 732.442 1583.69 732.212 1582.84 732.077 1581.87 731.942 1580.9 731.874 1579.83 731.874 1578.67 731.874 1577.13 731.969 1575.48 732.158 1573.73 732.347 1571.97 732.59 1570.2 732.887 1568.42L734.59 1557.19C734.698 1556.54 734.785 1555.93 734.853 1555.35 734.921 1554.77 734.954 1554.34 734.954 1554.07 734.954 1553.23 734.819 1552.54 734.549 1552 734.279 1551.46 733.82 1551.19 733.171 1551.19 732.658 1551.19 732.104 1551.35 731.509 1551.66 730.915 1551.97 730.314 1552.37 729.706 1552.85 729.098 1553.34 728.51 1553.86 727.943 1554.41 727.376 1554.97 726.849 1555.49 726.362 1555.98L724.417 1553.71C725.255 1552.84 726.146 1551.98 727.092 1551.13 728.038 1550.28 729.037 1549.51 730.091 1548.82 731.145 1548.13 732.252 1547.58 733.414 1547.16 734.576 1546.74 735.765 1546.53 736.981 1546.53 738.007 1546.53 738.845 1546.7 739.493 1547.04 740.142 1547.38 740.648 1547.82 741.013 1548.38 741.378 1548.93 741.628 1549.54 741.763 1550.2 741.898 1550.86 741.966 1551.52 741.966 1552.17 741.966 1552.54 741.952 1552.91 741.925 1553.26 741.898 1553.61 741.857 1553.94 741.803 1554.23L739.534 1568.9C739.291 1570.44 739.088 1571.95 738.926 1573.42 738.764 1574.89 738.683 1576.2 738.683 1577.33 738.683 1578.47 738.75 1579.39 738.885 1580.09 739.021 1580.79 739.277 1581.14 739.655 1581.14 740.547 1581.14 741.668 1580.78 743.019 1580.07 744.37 1579.35 745.789 1578.37 747.275 1577.11 748.761 1575.85 750.247 1574.37 751.733 1572.65 753.219 1570.94 754.556 1569.08 755.745 1567.08 756.934 1565.08 757.9 1562.97 758.643 1560.76 759.385 1558.54 759.757 1556.31 759.757 1554.07 759.757 1553.1 759.548 1552.35 759.129 1551.82 758.71 1551.29 758.055 1551.03 757.163 1551.03 756.029 1551.03 754.982 1551.47 754.022 1552.35 753.063 1553.23 752.07 1554.38 751.044 1555.81L748.734 1553.75C749.382 1552.77 750.145 1551.84 751.023 1550.95 751.901 1550.06 752.834 1549.27 753.82 1548.6 754.806 1547.92 755.826 1547.38 756.88 1546.98 757.933 1546.57 758.96 1546.37 759.96 1546.37Z" fill="#FFFFFF" fill-rule="evenodd"/><text fill="#000000" fill-opacity="0" font-family="Arial,Arial_MSFontService,sans-serif" font-size="40.2842" x="724.417" y="1581.62">𝑣</text><path d="M783.669 1564.45 785.485 1564.45C785.446 1565.54 785.416 1566.52 785.396 1567.38 785.376 1568.24 785.361 1569.08 785.351 1569.9 785.341 1570.71 785.337 1571.51 785.337 1572.31L785.337 1594.95C785.337 1595.56 785.356 1596.09 785.396 1596.54 785.436 1596.99 785.5 1597.36 785.59 1597.67 785.679 1597.98 785.798 1598.24 785.947 1598.46 786.096 1598.68 786.27 1598.87 786.468 1599.03 786.707 1599.26 787.024 1599.45 787.422 1599.58 787.819 1599.71 788.325 1599.82 788.941 1599.91 789.556 1599.99 790.296 1600.06 791.16 1600.11 792.023 1600.16 793.061 1600.2 794.272 1600.22L794.272 1602.81 770.652 1602.81 770.652 1600.22C771.824 1600.18 772.817 1600.13 773.631 1600.08 774.445 1600.03 775.14 1599.96 775.716 1599.88 776.292 1599.79 776.753 1599.69 777.101 1599.58 777.448 1599.47 777.751 1599.33 778.009 1599.18 778.287 1599 778.526 1598.8 778.724 1598.59 778.923 1598.39 779.082 1598.12 779.201 1597.81 779.32 1597.49 779.414 1597.1 779.484 1596.64 779.553 1596.19 779.588 1595.62 779.588 1594.95L779.588 1573.59C779.588 1572.82 779.439 1572.27 779.141 1571.95 778.843 1571.63 778.416 1571.48 777.86 1571.48 777.245 1571.48 776.331 1571.79 775.12 1572.43 773.909 1573.06 772.34 1574.01 770.414 1575.26 770.156 1574.8 769.918 1574.34 769.699 1573.89 769.481 1573.43 769.253 1572.96 769.014 1572.49 771.477 1571.14 773.914 1569.79 776.327 1568.45 778.739 1567.11 781.186 1565.78 783.669 1564.45Z" fill="#FFFFFF" fill-rule="evenodd"/><text fill="#000000" fill-opacity="0" font-family="Arial,Arial_MSFontService,sans-serif" font-size="38.3633" x="769.014" y="1598.01">1</text><path d="M693.5 1841.5C693.5 1797.32 729.093 1761.5 773 1761.5 816.907 1761.5 852.5 1797.32 852.5 1841.5 852.5 1885.68 816.907 1921.5 773 1921.5 729.093 1921.5 693.5 1885.68 693.5 1841.5Z" stroke="#2F528F" stroke-width="4.58333" stroke-miterlimit="8" fill="#4472C4" fill-rule="evenodd"/><path d="M759.009 1828.96C760.954 1828.96 762.359 1829.46 763.224 1830.48 764.088 1831.49 764.52 1832.85 764.52 1834.55 764.52 1835.85 764.291 1837.33 763.831 1839.01 763.372 1840.68 762.724 1842.45 761.886 1844.32 761.049 1846.18 760.049 1848.09 758.887 1850.05 757.725 1852.01 756.442 1853.92 755.037 1855.77 753.632 1857.62 752.133 1859.36 750.539 1861 748.944 1862.63 747.29 1864.06 745.574 1865.27 743.858 1866.49 742.116 1867.45 740.346 1868.17 738.576 1868.88 736.813 1869.24 735.057 1869.24 734.274 1869.24 733.618 1869.05 733.091 1868.65 732.565 1868.26 732.139 1867.71 731.815 1866.99 731.491 1866.28 731.261 1865.43 731.126 1864.46 730.991 1863.49 730.923 1862.42 730.923 1861.26 730.923 1859.72 731.018 1858.07 731.207 1856.31 731.396 1854.56 731.639 1852.79 731.936 1851.01L733.639 1839.78C733.747 1839.13 733.834 1838.52 733.902 1837.94 733.97 1837.35 734.003 1836.93 734.003 1836.66 734.003 1835.82 733.868 1835.13 733.598 1834.59 733.328 1834.05 732.869 1833.78 732.22 1833.78 731.707 1833.78 731.153 1833.94 730.559 1834.25 729.964 1834.56 729.363 1834.96 728.755 1835.44 728.147 1835.93 727.56 1836.45 726.992 1837 726.425 1837.56 725.898 1838.08 725.412 1838.56L723.466 1836.29C724.304 1835.43 725.195 1834.57 726.141 1833.72 727.087 1832.87 728.086 1832.1 729.14 1831.41 730.194 1830.72 731.302 1830.17 732.463 1829.75 733.625 1829.33 734.814 1829.12 736.03 1829.12 737.056 1829.12 737.894 1829.29 738.542 1829.63 739.191 1829.96 739.697 1830.41 740.062 1830.96 740.427 1831.52 740.677 1832.13 740.812 1832.79 740.947 1833.45 741.015 1834.11 741.015 1834.75 741.015 1835.13 741.001 1835.5 740.974 1835.85 740.947 1836.2 740.906 1836.52 740.852 1836.82L738.583 1851.49C738.34 1853.03 738.137 1854.54 737.975 1856.01 737.813 1857.48 737.732 1858.79 737.732 1859.92 737.732 1861.06 737.799 1861.97 737.935 1862.68 738.07 1863.38 738.326 1863.73 738.705 1863.73 739.596 1863.73 740.717 1863.37 742.068 1862.66 743.419 1861.94 744.838 1860.95 746.324 1859.7 747.81 1858.44 749.296 1856.96 750.782 1855.24 752.268 1853.52 753.605 1851.67 754.794 1849.67 755.983 1847.67 756.949 1845.56 757.692 1843.35 758.435 1841.13 758.806 1838.9 758.806 1836.66 758.806 1835.69 758.597 1834.94 758.178 1834.41 757.759 1833.88 757.104 1833.62 756.212 1833.62 755.078 1833.62 754.031 1834.06 753.071 1834.94 752.112 1835.81 751.119 1836.97 750.093 1838.4L747.783 1836.33C748.431 1835.36 749.194 1834.43 750.072 1833.54 750.951 1832.65 751.883 1831.86 752.869 1831.19 753.855 1830.51 754.875 1829.97 755.929 1829.57 756.982 1829.16 758.009 1828.96 759.009 1828.96Z" fill="#FFFFFF" fill-rule="evenodd"/><text fill="#000000" fill-opacity="0" font-family="Arial,Arial_MSFontService,sans-serif" font-size="40.2842" x="723.466" y="1864.21">𝑣</text><path d="M782.297 1846.83C784.362 1846.83 786.124 1847.06 787.583 1847.53 789.043 1847.99 790.229 1848.62 791.143 1849.42 792.056 1850.21 792.716 1851.16 793.123 1852.28 793.53 1853.39 793.734 1854.59 793.734 1855.88 793.734 1856.65 793.679 1857.37 793.57 1858.04 793.461 1858.7 793.272 1859.36 793.004 1860.01 792.736 1860.65 792.384 1861.3 791.947 1861.96 791.51 1862.61 790.964 1863.31 790.309 1864.04 789.812 1864.68 789.167 1865.41 788.373 1866.25 787.578 1867.08 786.71 1867.97 785.766 1868.93 784.823 1869.88 783.835 1870.87 782.803 1871.9 781.77 1872.94 780.768 1873.96 779.795 1874.97 778.822 1875.99 777.928 1876.97 777.114 1877.92 776.3 1878.87 775.635 1879.75 775.118 1880.54L786.139 1880.54C787.072 1880.54 787.817 1880.51 788.373 1880.44 788.929 1880.37 789.39 1880.21 789.758 1879.98 790.125 1879.74 790.438 1879.38 790.696 1878.89 790.954 1878.4 791.252 1877.73 791.589 1876.88L794.359 1876.88C794.26 1878.29 794.166 1879.71 794.077 1881.14 793.987 1882.57 793.893 1883.99 793.794 1885.4L768.566 1885.4 768.566 1883.85C769.042 1882.78 769.598 1881.72 770.234 1880.68 770.869 1879.63 771.584 1878.58 772.378 1877.5 773.172 1876.43 774.076 1875.32 775.089 1874.18 776.101 1873.04 777.223 1871.85 778.454 1870.62 780.321 1868.76 781.84 1867.16 783.011 1865.84 784.183 1864.52 785.106 1863.35 785.781 1862.31 786.456 1861.28 786.918 1860.33 787.166 1859.45 787.415 1858.58 787.539 1857.65 787.539 1856.65 787.539 1855.64 787.395 1854.71 787.107 1853.85 786.819 1853 786.407 1852.28 785.871 1851.68 785.335 1851.08 784.654 1850.62 783.83 1850.28 783.006 1849.94 782.058 1849.77 780.986 1849.77 779.139 1849.77 777.59 1850.28 776.339 1851.28 775.089 1852.28 774.116 1853.74 773.421 1855.64L769.519 1855.64 769.519 1849.83C772.06 1848.78 774.398 1848.02 776.533 1847.54 778.668 1847.06 780.589 1846.83 782.297 1846.83Z" fill="#FFFFFF" fill-rule="evenodd"/><text fill="#000000" fill-opacity="0" font-family="Arial,Arial_MSFontService,sans-serif" font-size="38.5718" x="768.566" y="1880.58">2</text><path d="M1163.5 1559C1163.5 1515.09 1199.09 1479.5 1243 1479.5 1286.91 1479.5 1322.5 1515.09 1322.5 1559 1322.5 1602.91 1286.91 1638.5 1243 1638.5 1199.09 1638.5 1163.5 1602.91 1163.5 1559Z" stroke="#2F528F" stroke-width="4.58333" stroke-miterlimit="8" fill="#4472C4" fill-rule="evenodd"/><path d="M1228.85 1546.37C1230.79 1546.37 1232.2 1546.88 1233.06 1547.89 1233.93 1548.9 1234.36 1550.26 1234.36 1551.96 1234.36 1553.26 1234.13 1554.75 1233.67 1556.42 1233.21 1558.1 1232.56 1559.87 1231.73 1561.73 1230.89 1563.59 1229.89 1565.51 1228.73 1567.46 1227.57 1569.42 1226.28 1571.33 1224.88 1573.18 1223.47 1575.03 1221.97 1576.77 1220.38 1578.41 1218.78 1580.04 1217.13 1581.47 1215.41 1582.68 1213.7 1583.9 1211.96 1584.86 1210.19 1585.58 1208.42 1586.3 1206.65 1586.65 1204.9 1586.65 1204.11 1586.65 1203.46 1586.46 1202.93 1586.07 1202.41 1585.68 1201.98 1585.12 1201.66 1584.41 1201.33 1583.69 1201.1 1582.84 1200.97 1581.87 1200.83 1580.9 1200.76 1579.83 1200.76 1578.67 1200.76 1577.13 1200.86 1575.48 1201.05 1573.73 1201.24 1571.97 1201.48 1570.2 1201.78 1568.42L1203.48 1557.19C1203.59 1556.54 1203.67 1555.93 1203.74 1555.35 1203.81 1554.77 1203.84 1554.34 1203.84 1554.07 1203.84 1553.23 1203.71 1552.54 1203.44 1552 1203.17 1551.46 1202.71 1551.19 1202.06 1551.19 1201.55 1551.19 1200.99 1551.35 1200.4 1551.66 1199.8 1551.97 1199.2 1552.37 1198.6 1552.85 1197.99 1553.34 1197.4 1553.86 1196.83 1554.41 1196.27 1554.97 1195.74 1555.49 1195.25 1555.98L1193.31 1553.71C1194.14 1552.84 1195.04 1551.98 1195.98 1551.13 1196.93 1550.28 1197.93 1549.51 1198.98 1548.82 1200.03 1548.13 1201.14 1547.58 1202.3 1547.16 1203.47 1546.74 1204.65 1546.53 1205.87 1546.53 1206.9 1546.53 1207.73 1546.7 1208.38 1547.04 1209.03 1547.38 1209.54 1547.82 1209.9 1548.38 1210.27 1548.93 1210.52 1549.54 1210.65 1550.2 1210.79 1550.86 1210.85 1551.52 1210.85 1552.17 1210.85 1552.54 1210.84 1552.91 1210.81 1553.26 1210.79 1553.61 1210.75 1553.94 1210.69 1554.23L1208.42 1568.9C1208.18 1570.44 1207.98 1571.95 1207.82 1573.42 1207.65 1574.89 1207.57 1576.2 1207.57 1577.33 1207.57 1578.47 1207.64 1579.39 1207.77 1580.09 1207.91 1580.79 1208.17 1581.14 1208.54 1581.14 1209.44 1581.14 1210.56 1580.78 1211.91 1580.07 1213.26 1579.35 1214.68 1578.37 1216.16 1577.11 1217.65 1575.85 1219.14 1574.37 1220.62 1572.65 1222.11 1570.94 1223.45 1569.08 1224.63 1567.08 1225.82 1565.08 1226.79 1562.97 1227.53 1560.76 1228.28 1558.54 1228.65 1556.31 1228.65 1554.07 1228.65 1553.1 1228.44 1552.35 1228.02 1551.82 1227.6 1551.29 1226.94 1551.03 1226.05 1551.03 1224.92 1551.03 1223.87 1551.47 1222.91 1552.35 1221.95 1553.23 1220.96 1554.38 1219.93 1555.81L1217.62 1553.75C1218.27 1552.77 1219.03 1551.84 1219.91 1550.95 1220.79 1550.06 1221.72 1549.27 1222.71 1548.6 1223.7 1547.92 1224.72 1547.38 1225.77 1546.98 1226.82 1546.57 1227.85 1546.37 1228.85 1546.37Z" fill="#FFFFFF" fill-rule="evenodd"/><text fill="#000000" fill-opacity="0" font-family="Arial,Arial_MSFontService,sans-serif" font-size="40.2842" x="1193.31" y="1581.62">𝑣</text><path d="M1252.08 1564.24C1253.67 1564.24 1255.15 1564.41 1256.53 1564.74 1257.91 1565.08 1259.11 1565.59 1260.12 1566.28 1261.13 1566.96 1261.92 1567.82 1262.49 1568.84 1263.05 1569.86 1263.34 1571.05 1263.34 1572.4 1263.34 1573.67 1263.16 1574.79 1262.8 1575.76 1262.44 1576.74 1261.89 1577.62 1261.15 1578.42 1260.4 1579.21 1259.49 1579.93 1258.41 1580.57 1257.32 1581.22 1256.08 1581.84 1254.67 1582.44L1254.67 1582.79C1256 1583.03 1257.24 1583.41 1258.39 1583.94 1259.54 1584.47 1260.55 1585.13 1261.41 1585.94 1262.28 1586.74 1262.96 1587.67 1263.46 1588.72 1263.95 1589.77 1264.2 1590.93 1264.2 1592.21 1264.2 1593.79 1263.9 1595.27 1263.31 1596.63 1262.71 1597.99 1261.82 1599.17 1260.63 1600.16 1259.43 1601.15 1257.96 1601.93 1256.22 1602.48 1254.47 1603.04 1252.42 1603.32 1250.08 1603.32 1248.23 1603.32 1246.36 1603.13 1244.45 1602.76 1242.55 1602.4 1240.74 1601.92 1239.03 1601.32L1239.03 1594.89 1242.87 1594.89C1243.19 1595.88 1243.57 1596.73 1244.01 1597.43 1244.44 1598.14 1244.95 1598.71 1245.54 1599.16 1246.13 1599.61 1246.8 1599.93 1247.56 1600.13 1248.33 1600.33 1249.2 1600.43 1250.17 1600.43 1252.73 1600.43 1254.67 1599.82 1255.99 1598.59 1257.31 1597.37 1257.97 1595.52 1257.97 1593.04 1257.97 1590.4 1257.11 1588.4 1255.37 1587.04 1253.63 1585.68 1251.05 1585 1247.64 1585L1245.02 1585 1245.02 1582.14C1247.1 1582.04 1248.91 1581.75 1250.42 1581.26 1251.94 1580.77 1253.21 1580.14 1254.22 1579.37 1255.23 1578.59 1255.99 1577.69 1256.49 1576.66 1256.98 1575.63 1257.23 1574.52 1257.23 1573.35 1257.23 1571.45 1256.66 1569.94 1255.53 1568.84 1254.4 1567.74 1252.76 1567.19 1250.62 1567.19 1248.81 1567.19 1247.3 1567.68 1246.08 1568.68 1244.85 1569.67 1243.92 1571.15 1243.26 1573.11L1239.48 1573.11 1239.48 1567.25C1241.82 1566.25 1244.03 1565.5 1246.11 1565 1248.18 1564.49 1250.17 1564.24 1252.08 1564.24Z" fill="#FFFFFF" fill-rule="evenodd"/><text fill="#000000" fill-opacity="0" font-family="Arial,Arial_MSFontService,sans-serif" font-size="39.0781" x="1239.03" y="1598.43">3</text><path d="M1163.5 1841.5C1163.5 1797.32 1199.09 1761.5 1243 1761.5 1286.91 1761.5 1322.5 1797.32 1322.5 1841.5 1322.5 1885.68 1286.91 1921.5 1243 1921.5 1199.09 1921.5 1163.5 1885.68 1163.5 1841.5Z" stroke="#2F528F" stroke-width="4.58333" stroke-miterlimit="8" fill="#4472C4" fill-rule="evenodd"/><path d="M1230.61 1828.96C1232.56 1828.96 1233.96 1829.46 1234.83 1830.48 1235.69 1831.49 1236.13 1832.85 1236.13 1834.55 1236.13 1835.85 1235.9 1837.33 1235.44 1839.01 1234.98 1840.68 1234.33 1842.45 1233.49 1844.32 1232.65 1846.18 1231.65 1848.09 1230.49 1850.05 1229.33 1852.01 1228.05 1853.92 1226.64 1855.77 1225.24 1857.62 1223.74 1859.36 1222.14 1860.99 1220.55 1862.63 1218.89 1864.05 1217.18 1865.27 1215.46 1866.49 1213.72 1867.45 1211.95 1868.17 1210.18 1868.88 1208.42 1869.24 1206.66 1869.24 1205.88 1869.24 1205.22 1869.05 1204.7 1868.65 1204.17 1868.26 1203.74 1867.71 1203.42 1866.99 1203.1 1866.28 1202.87 1865.43 1202.73 1864.46 1202.6 1863.49 1202.53 1862.42 1202.53 1861.26 1202.53 1859.72 1202.62 1858.07 1202.81 1856.31 1203 1854.56 1203.24 1852.79 1203.54 1851L1205.24 1839.78C1205.35 1839.13 1205.44 1838.52 1205.51 1837.93 1205.57 1837.35 1205.61 1836.93 1205.61 1836.66 1205.61 1835.82 1205.47 1835.13 1205.2 1834.59 1204.93 1834.05 1204.47 1833.78 1203.83 1833.78 1203.31 1833.78 1202.76 1833.94 1202.16 1834.25 1201.57 1834.56 1200.97 1834.96 1200.36 1835.44 1199.75 1835.93 1199.16 1836.45 1198.6 1837 1198.03 1837.56 1197.5 1838.08 1197.02 1838.56L1195.07 1836.29C1195.91 1835.43 1196.8 1834.57 1197.75 1833.72 1198.69 1832.87 1199.69 1832.1 1200.74 1831.41 1201.8 1830.72 1202.91 1830.17 1204.07 1829.75 1205.23 1829.33 1206.42 1829.12 1207.63 1829.12 1208.66 1829.12 1209.5 1829.29 1210.15 1829.63 1210.8 1829.96 1211.3 1830.41 1211.67 1830.96 1212.03 1831.52 1212.28 1832.13 1212.42 1832.79 1212.55 1833.45 1212.62 1834.1 1212.62 1834.75 1212.62 1835.13 1212.61 1835.5 1212.58 1835.85 1212.55 1836.2 1212.51 1836.52 1212.46 1836.82L1210.19 1851.49C1209.94 1853.03 1209.74 1854.54 1209.58 1856.01 1209.42 1857.48 1209.34 1858.79 1209.34 1859.92 1209.34 1861.06 1209.4 1861.97 1209.54 1862.68 1209.67 1863.38 1209.93 1863.73 1210.31 1863.73 1211.2 1863.73 1212.32 1863.37 1213.67 1862.66 1215.02 1861.94 1216.44 1860.95 1217.93 1859.7 1219.41 1858.44 1220.9 1856.96 1222.39 1855.24 1223.87 1853.52 1225.21 1851.67 1226.4 1849.67 1227.59 1847.67 1228.55 1845.56 1229.3 1843.35 1230.04 1841.13 1230.41 1838.9 1230.41 1836.66 1230.41 1835.69 1230.2 1834.94 1229.78 1834.41 1229.36 1833.88 1228.71 1833.62 1227.82 1833.62 1226.68 1833.62 1225.64 1834.06 1224.68 1834.94 1223.72 1835.81 1222.72 1836.97 1221.7 1838.4L1219.39 1836.33C1220.04 1835.36 1220.8 1834.43 1221.68 1833.54 1222.56 1832.65 1223.49 1831.86 1224.47 1831.19 1225.46 1830.51 1226.48 1829.97 1227.53 1829.57 1228.59 1829.16 1229.61 1828.96 1230.61 1828.96Z" fill="#FFFFFF" fill-rule="evenodd"/><text fill="#000000" fill-opacity="0" font-family="Arial,Arial_MSFontService,sans-serif" font-size="40.2842" x="1195.07" y="1864.21">𝑣</text><path d="M1251.77 1854.21C1249.87 1856.97 1247.96 1859.71 1246.07 1862.43 1244.17 1865.15 1242.26 1867.88 1240.33 1870.62L1240.33 1870.98 1251.77 1870.98 1251.77 1864.99C1251.77 1864.32 1251.78 1863.48 1251.8 1862.49 1251.82 1861.5 1251.85 1860.49 1251.88 1859.47 1251.91 1858.45 1251.94 1857.47 1251.98 1856.55 1252.02 1855.63 1252.06 1854.85 1252.1 1854.21ZM1252.64 1847.24 1257.37 1847.24 1257.37 1870.98 1257.91 1870.98C1258.72 1870.98 1259.38 1870.94 1259.89 1870.86 1260.4 1870.78 1260.8 1870.62 1261.11 1870.37 1261.42 1870.12 1261.68 1869.77 1261.88 1869.33 1262.09 1868.88 1262.32 1868.3 1262.55 1867.59L1265.09 1867.59C1265.03 1868.68 1264.96 1869.76 1264.89 1870.83 1264.82 1871.9 1264.76 1873 1264.7 1874.11L1257.37 1874.11 1257.37 1878.01C1257.37 1879.16 1257.4 1880.06 1257.45 1880.69 1257.5 1881.33 1257.64 1881.82 1257.89 1882.18 1258.14 1882.54 1258.51 1882.81 1259 1882.98 1259.48 1883.16 1260.16 1883.37 1261.04 1883.61L1261.04 1885.4 1248.17 1885.4 1248.17 1883.61C1248.76 1883.45 1249.27 1883.31 1249.69 1883.18 1250.1 1883.05 1250.45 1882.9 1250.73 1882.73 1251.01 1882.56 1251.21 1882.36 1251.34 1882.14 1251.47 1881.91 1251.57 1881.62 1251.64 1881.27 1251.71 1880.92 1251.75 1880.49 1251.76 1879.96 1251.77 1879.43 1251.77 1878.78 1251.77 1878.01L1251.77 1874.11 1235 1874.11 1235 1871.76C1237.96 1867.65 1240.9 1863.56 1243.82 1859.5 1246.74 1855.44 1249.68 1851.35 1252.64 1847.24Z" fill="#FFFFFF" fill-rule="evenodd"/><text fill="#000000" fill-opacity="0" font-family="Arial,Arial_MSFontService,sans-serif" font-size="38.1548" x="1235" y="1880.63">4</text><path d="M1633.5 1718C1633.5 1674.09 1669.09 1638.5 1713 1638.5 1756.91 1638.5 1792.5 1674.09 1792.5 1718 1792.5 1761.91 1756.91 1797.5 1713 1797.5 1669.09 1797.5 1633.5 1761.91 1633.5 1718Z" stroke="#2F528F" stroke-width="4.58333" stroke-miterlimit="8" fill="#4472C4" fill-rule="evenodd"/><path d="M1699.94 1696.36 1705.54 1696.36 1703.31 1706.37 1715.63 1706.37 1714.74 1710.46 1702.42 1710.46 1698.81 1726.19C1698.11 1729.24 1697.66 1731.44 1697.47 1732.77 1697.28 1734.11 1697.19 1735.19 1697.19 1736 1697.19 1739.35 1698.58 1741.02 1701.36 1741.02 1702.55 1741.02 1703.81 1740.57 1705.15 1739.66 1706.49 1738.76 1708.08 1737.21 1709.91 1735.02L1712.26 1737.45C1709.91 1740.29 1707.65 1742.39 1705.48 1743.74 1703.3 1745.09 1701.02 1745.76 1698.65 1745.76 1693 1745.76 1690.18 1742.91 1690.18 1737.21 1690.18 1735.4 1690.41 1733.5 1690.87 1731.5L1695.65 1710.46 1688.84 1710.46 1689.45 1707.67C1691.04 1707.64 1692.25 1707.52 1693.07 1707.3 1693.9 1707.09 1694.59 1706.79 1695.14 1706.41 1695.7 1706.03 1696.2 1705.49 1696.66 1704.79 1697.12 1704.09 1697.57 1703.19 1698 1702.09 1698.43 1701 1699.08 1699.09 1699.94 1696.36Z" fill="#FFFFFF" fill-rule="evenodd"/><text fill="#000000" fill-opacity="0" font-family="Arial,Arial_MSFontService,sans-serif" font-size="49.4028" x="1688.84" y="1739.59">𝑡</text><path d="M0.857405-2.12523 234.614 92.1818 232.899 96.4322-0.857405 2.12523ZM234.65 79.8408 255.009 102.881 224.362 105.344Z" fill="#4472C4" transform="matrix(1 0 0 -1 438.5 1661.38)"/><path d="M439.084 1772.28 671.932 1833.62 670.764 1838.05 437.916 1776.72ZM670.418 1821.37 693.509 1841.67 663.414 1847.96Z" fill="#4472C4"/><path d="M2.66195e-06-2.29167 287.775-2.29133 287.775 2.292-2.66195e-06 2.29167ZM283.192-13.7497 310.692 0.000360892 283.191 13.7503Z" fill="#4472C4" transform="matrix(1 0 0 -1 852.5 1841.5)"/><path d="M1323.17 1556.31 1635.27 1652.44 1633.92 1656.83 1321.83 1560.69ZM1634.26 1640.15 1656.5 1661.38 1626.17 1666.43Z" fill="#4472C4"/><path d="M0.451837-2.24668 311.983 60.4063 311.079 64.8997-0.451837 2.24668ZM309.749 48.2693 333.998 67.1715 304.327 75.2295Z" fill="#C00000" transform="matrix(-1 0 0 1 1656.5 1774.5)"/><path d="M2.29167-6.70002e-06 2.29196 100.523-2.29137 100.523-2.29167 6.70002e-06ZM13.7503 95.9392 0.000360892 123.439-13.7497 95.9393Z" fill="#4472C4" transform="matrix(1 0 0 -1 773.5 1761.94)"/><path d="M0.984828-2.06926 337.597 158.135 335.628 162.274-0.984828 2.06926ZM338.383 145.819 357.305 170.053 326.565 170.65Z" fill="#4472C4" transform="matrix(-1 0 0 1 1186.81 1615.5)"/><text font-family="DengXian,DengXian_MSFontService,sans-serif" font-weight="400" font-size="83" transform="matrix(1 0 0 1 476.059 1617)">5</text><text fill="#C00000" font-family="DengXian,DengXian_MSFontService,sans-serif" font-weight="400" font-size="83" transform="matrix(1 0 0 1 465.737 1935)">8</text><text font-family="DengXian,DengXian_MSFontService,sans-serif" font-weight="400" font-size="83" transform="matrix(1 0 0 1 987.608 1829)">3</text><text font-family="DengXian,DengXian_MSFontService,sans-serif" font-weight="400" font-size="83" transform="matrix(1 0 0 1 712.056 1732)">3</text><text fill="#C00000" font-family="DengXian,DengXian_MSFontService,sans-serif" font-weight="400" font-size="83" transform="matrix(1 0 0 1 1074.72 1782)">4</text><text fill="#C00000" font-family="DengXian,DengXian_MSFontService,sans-serif" font-weight="400" font-size="83" transform="matrix(1 0 0 1 1377.04 1737)">15</text><text fill="#C00000" font-family="DengXian,DengXian_MSFontService,sans-serif" font-weight="400" font-size="83" transform="matrix(1 0 0 1 1504.07 1876)">4</text><text font-family="DengXian,DengXian_MSFontService,sans-serif" font-weight="400" font-size="83" transform="matrix(1 0 0 1 893.934 2078)">残存网络</text><path d="M0.857407-2.12523 234.614 92.1822 232.899 96.4327-0.857407 2.12523ZM234.65 79.8412 255.009 102.881 224.362 105.344Z" fill="#C00000" transform="matrix(-1 0 0 1 717.509 1615.5)"/><text fill="#C00000" font-family="DengXian,DengXian_MSFontService,sans-serif" font-weight="400" font-size="83" transform="matrix(1 0 0 1 583.575 1734)">11</text><text fill="#C00000" font-family="DengXian,DengXian_MSFontService,sans-serif" font-weight="400" font-size="83" transform="matrix(1 0 0 1 834.586 1723)">1</text><path d="M831.792 1615.5 831.792 1762.64 827.209 1762.64 827.208 1615.5ZM843.25 1758.05 829.5 1785.55 815.75 1758.05Z" fill="#C00000"/><path d="M1.05758-2.03304 370.993 190.405 368.878 194.471-1.05758 2.03304ZM372.215 178.125 390.266 203.014 359.524 202.521Z" fill="#C00000" transform="matrix(1 0 0 -1 852.5 1841.51)"/><text font-family="DengXian,DengXian_MSFontService,sans-serif" font-weight="400" font-size="83" transform="matrix(1 0 0 1 1006.85 1680)">5</text><path d="M2.66195e-06-2.29167 287.775-2.29133 287.775 2.292-2.66195e-06 2.29167ZM283.192-13.7497 310.692 0.000360892 283.191 13.7503Z" fill="#C00000" transform="matrix(-1 0 0 1 1163.19 1558.5)"/><text fill="#C00000" font-family="DengXian,DengXian_MSFontService,sans-serif" font-weight="400" font-size="83" transform="matrix(1 0 0 1 974.318 1538)">12</text><path d="M1245.79 1638.5 1245.79 1739.02 1241.21 1739.02 1241.21 1638.5ZM1257.25 1734.44 1243.5 1761.94 1229.75 1734.44Z" fill="#C00000"/><text fill="#C00000" font-family="DengXian,DengXian_MSFontService,sans-serif" font-weight="400" font-size="83" transform="matrix(1 0 0 1 1271.16 1740)">7</text><path d="M1632.82 1720.57 1320.73 1624.44 1322.08 1620.06 1634.17 1716.19ZM1321.73 1636.74 1299.5 1615.5 1329.83 1610.45Z" fill="#C00000"/><text font-family="DengXian,DengXian_MSFontService,sans-serif" font-weight="400" font-size="83" transform="matrix(1 0 0 1 1479.49 1577)">5</text><path d="M2.31467e-06-2.29167 334.388-2.29133 334.388 2.292-2.31467e-06 2.29167ZM329.805-13.7497 357.305 0.000360892 329.805 13.7503Z" fill="#C00000" transform="matrix(-1 0 0 1 1186.81 1897.5)"/><text fill="#C00000" font-family="DengXian,DengXian_MSFontService,sans-serif" font-weight="400" font-size="83" transform="matrix(1 0 0 1 980.377 1970)">11</text><path d="M716.426 1899.83 403.797 1806.27 405.111 1801.87 717.74 1895.44ZM404.903 1818.56 382.5 1797.5 412.788 1792.21Z" fill="#C00000"/><text font-family="DengXian,DengXian_MSFontService,sans-serif" font-weight="400" font-size="83" transform="matrix(1 0 0 1 564.372 1808)">5</text><path d="M2085.5 1714C2085.5 1670.09 2121.32 1634.5 2165.5 1634.5 2209.68 1634.5 2245.5 1670.09 2245.5 1714 2245.5 1757.91 2209.68 1793.5 2165.5 1793.5 2121.32 1793.5 2085.5 1757.91 2085.5 1714Z" stroke="#2F528F" stroke-width="4.58333" stroke-miterlimit="8" fill="#4472C4" fill-rule="evenodd"/><path d="M2156.44 1701.7C2158.95 1701.7 2161.24 1701.85 2163.31 1702.14 2165.37 1702.44 2167.43 1702.95 2169.49 1703.68L2167.66 1712.19 2164.38 1712.19C2164.08 1709.79 2163.29 1707.97 2162.01 1706.72 2160.73 1705.48 2158.71 1704.86 2155.95 1704.86 2153.82 1704.86 2152.09 1705.41 2150.76 1706.5 2149.44 1707.59 2148.78 1709.03 2148.78 1710.82 2148.78 1711.79 2148.95 1712.65 2149.28 1713.39 2149.62 1714.13 2150.3 1714.95 2151.33 1715.84 2152.36 1716.73 2153.95 1717.83 2156.11 1719.12 2157.81 1720.15 2159.18 1721.09 2160.21 1721.94 2161.23 1722.79 2162.04 1723.64 2162.64 1724.47 2163.23 1725.31 2163.66 1726.2 2163.93 1727.13 2164.2 1728.06 2164.34 1729.19 2164.34 1730.51 2164.34 1732.92 2163.7 1734.98 2162.41 1736.69 2161.13 1738.41 2159.39 1739.69 2157.19 1740.52 2154.98 1741.36 2152.48 1741.78 2149.67 1741.78 2147.43 1741.78 2145.22 1741.61 2143.06 1741.27 2140.9 1740.94 2138.5 1740.36 2135.85 1739.55L2137.79 1730.72 2140.96 1730.72C2141.06 1733.31 2141.79 1735.27 2143.14 1736.59 2144.49 1737.92 2146.64 1738.58 2149.59 1738.58 2152.15 1738.58 2154.16 1738 2155.61 1736.86 2157.05 1735.71 2157.77 1734.08 2157.77 1731.97 2157.77 1730.76 2157.57 1729.71 2157.17 1728.83 2156.76 1727.95 2156.1 1727.11 2155.18 1726.3 2154.26 1725.49 2152.8 1724.47 2150.8 1723.26 2148.7 1721.99 2147.05 1720.84 2145.88 1719.81 2144.7 1718.79 2143.82 1717.67 2143.22 1716.47 2142.63 1715.27 2142.33 1713.88 2142.33 1712.32 2142.33 1710.18 2142.91 1708.31 2144.06 1706.7 2145.2 1705.1 2146.85 1703.86 2148.98 1702.99 2151.11 1702.13 2153.6 1701.7 2156.44 1701.7Z" fill="#FFFFFF" fill-rule="evenodd"/><text fill="#000000" fill-opacity="0" font-family="Arial,Arial_MSFontService,sans-serif" font-size="40.0815" x="2135.85" y="1736.77">𝑠</text><path d="M2476.5 1555C2476.5 1511.09 2512.09 1475.5 2556 1475.5 2599.91 1475.5 2635.5 1511.09 2635.5 1555 2635.5 1598.91 2599.91 1634.5 2556 1634.5 2512.09 1634.5 2476.5 1598.91 2476.5 1555Z" stroke="#2F528F" stroke-width="4.58333" stroke-miterlimit="8" fill="#4472C4" fill-rule="evenodd"/><path d="M2542.92 1542.35C2544.87 1542.35 2546.27 1542.85 2547.14 1543.87 2548 1544.88 2548.43 1546.24 2548.43 1547.94 2548.43 1549.24 2548.2 1550.72 2547.74 1552.4 2547.28 1554.07 2546.64 1555.84 2545.8 1557.71 2544.96 1559.57 2543.96 1561.48 2542.8 1563.44 2541.64 1565.4 2540.35 1567.3 2538.95 1569.16 2537.54 1571.01 2536.04 1572.75 2534.45 1574.38 2532.86 1576.02 2531.2 1577.44 2529.49 1578.66 2527.77 1579.87 2526.03 1580.84 2524.26 1581.56 2522.49 1582.27 2520.72 1582.63 2518.97 1582.63 2518.19 1582.63 2517.53 1582.43 2517 1582.04 2516.48 1581.65 2516.05 1581.1 2515.73 1580.38 2515.4 1579.67 2515.17 1578.82 2515.04 1577.85 2514.9 1576.88 2514.83 1575.81 2514.83 1574.65 2514.83 1573.11 2514.93 1571.46 2515.12 1569.7 2515.31 1567.95 2515.55 1566.18 2515.85 1564.39L2517.55 1553.17C2517.66 1552.52 2517.75 1551.9 2517.81 1551.32 2517.88 1550.74 2517.91 1550.32 2517.91 1550.05 2517.91 1549.21 2517.78 1548.52 2517.51 1547.98 2517.24 1547.44 2516.78 1547.17 2516.13 1547.17 2515.62 1547.17 2515.06 1547.32 2514.47 1547.64 2513.88 1547.95 2513.27 1548.34 2512.67 1548.83 2512.06 1549.32 2511.47 1549.84 2510.9 1550.39 2510.34 1550.94 2509.81 1551.46 2509.32 1551.95L2507.38 1549.68C2508.22 1548.82 2509.11 1547.96 2510.05 1547.11 2511 1546.26 2512 1545.49 2513.05 1544.8 2514.11 1544.11 2515.21 1543.56 2516.37 1543.14 2517.54 1542.72 2518.73 1542.51 2519.94 1542.51 2520.97 1542.51 2521.81 1542.68 2522.45 1543.02 2523.1 1543.35 2523.61 1543.8 2523.97 1544.35 2524.34 1544.91 2524.59 1545.51 2524.72 1546.18 2524.86 1546.84 2524.93 1547.49 2524.93 1548.14 2524.93 1548.52 2524.91 1548.88 2524.89 1549.24 2524.86 1549.59 2524.82 1549.91 2524.76 1550.21L2522.49 1564.88C2522.25 1566.42 2522.05 1567.93 2521.89 1569.4 2521.72 1570.87 2521.64 1572.17 2521.64 1573.31 2521.64 1574.44 2521.71 1575.36 2521.85 1576.07 2521.98 1576.77 2522.24 1577.12 2522.62 1577.12 2523.51 1577.12 2524.63 1576.76 2525.98 1576.04 2527.33 1575.33 2528.75 1574.34 2530.24 1573.09 2531.72 1571.83 2533.21 1570.34 2534.69 1568.63 2536.18 1566.91 2537.52 1565.06 2538.71 1563.06 2539.89 1561.06 2540.86 1558.95 2541.6 1556.73 2542.35 1554.52 2542.72 1552.29 2542.72 1550.05 2542.72 1549.07 2542.51 1548.32 2542.09 1547.8 2541.67 1547.27 2541.02 1547.01 2540.12 1547.01 2538.99 1547.01 2537.94 1547.45 2536.98 1548.32 2536.02 1549.2 2535.03 1550.36 2534 1551.79L2531.69 1549.72C2532.34 1548.75 2533.11 1547.82 2533.98 1546.93 2534.86 1546.03 2535.79 1545.25 2536.78 1544.58 2537.77 1543.9 2538.79 1543.36 2539.84 1542.95 2540.89 1542.55 2541.92 1542.35 2542.92 1542.35Z" fill="#FFFFFF" fill-rule="evenodd"/><text fill="#000000" fill-opacity="0" font-family="Arial,Arial_MSFontService,sans-serif" font-size="40.2842" x="2507.38" y="1577.59">𝑣</text><path d="M2566.63 1560.42 2568.45 1560.42C2568.41 1561.51 2568.38 1562.49 2568.36 1563.36 2568.34 1564.22 2568.32 1565.06 2568.31 1565.87 2568.3 1566.69 2568.3 1567.49 2568.3 1568.29L2568.3 1590.92C2568.3 1591.54 2568.32 1592.07 2568.36 1592.52 2568.4 1592.96 2568.46 1593.34 2568.55 1593.65 2568.64 1593.96 2568.76 1594.22 2568.91 1594.44 2569.06 1594.66 2569.23 1594.84 2569.43 1595 2569.67 1595.24 2569.98 1595.42 2570.38 1595.55 2570.78 1595.68 2571.29 1595.79 2571.9 1595.88 2572.52 1595.97 2573.26 1596.04 2574.12 1596.09 2574.98 1596.14 2576.02 1596.17 2577.23 1596.19L2577.23 1598.79 2553.61 1598.79 2553.61 1596.19C2554.78 1596.15 2555.78 1596.11 2556.59 1596.06 2557.41 1596.01 2558.1 1595.94 2558.68 1595.85 2559.25 1595.76 2559.71 1595.66 2560.06 1595.55 2560.41 1595.44 2560.71 1595.31 2560.97 1595.15 2561.25 1594.97 2561.49 1594.78 2561.68 1594.57 2561.88 1594.36 2562.04 1594.1 2562.16 1593.78 2562.28 1593.46 2562.37 1593.08 2562.44 1592.62 2562.51 1592.16 2562.55 1591.6 2562.55 1590.92L2562.55 1569.57C2562.55 1568.79 2562.4 1568.25 2562.1 1567.93 2561.8 1567.61 2561.38 1567.45 2560.82 1567.45 2560.21 1567.45 2559.29 1567.77 2558.08 1568.4 2556.87 1569.04 2555.3 1569.98 2553.37 1571.23 2553.12 1570.78 2552.88 1570.32 2552.66 1569.86 2552.44 1569.41 2552.21 1568.94 2551.97 1568.46 2554.44 1567.11 2556.87 1565.77 2559.29 1564.43 2561.7 1563.09 2564.15 1561.75 2566.63 1560.42Z" fill="#FFFFFF" fill-rule="evenodd"/><text fill="#000000" fill-opacity="0" font-family="Arial,Arial_MSFontService,sans-serif" font-size="38.3633" x="2551.97" y="1593.99">1</text><path d="M2476.5 1837.5C2476.5 1793.32 2512.09 1757.5 2556 1757.5 2599.91 1757.5 2635.5 1793.32 2635.5 1837.5 2635.5 1881.68 2599.91 1917.5 2556 1917.5 2512.09 1917.5 2476.5 1881.68 2476.5 1837.5Z" stroke="#2F528F" stroke-width="4.58333" stroke-miterlimit="8" fill="#4472C4" fill-rule="evenodd"/><path d="M2541.97 1824.93C2543.91 1824.93 2545.32 1825.44 2546.18 1826.45 2547.05 1827.47 2547.48 1828.83 2547.48 1830.53 2547.48 1831.82 2547.25 1833.31 2546.79 1834.99 2546.33 1836.66 2545.68 1838.43 2544.85 1840.29 2544.01 1842.16 2543.01 1844.07 2541.85 1846.03 2540.69 1847.99 2539.4 1849.89 2538 1851.74 2536.59 1853.59 2535.09 1855.34 2533.5 1856.97 2531.91 1858.61 2530.25 1860.03 2528.53 1861.25 2526.82 1862.46 2525.08 1863.43 2523.31 1864.14 2521.54 1864.86 2519.77 1865.22 2518.02 1865.22 2517.23 1865.22 2516.58 1865.02 2516.05 1864.63 2515.53 1864.24 2515.1 1863.69 2514.78 1862.97 2514.45 1862.25 2514.22 1861.41 2514.09 1860.44 2513.95 1859.46 2513.88 1858.4 2513.88 1857.23 2513.88 1855.69 2513.98 1854.05 2514.17 1852.29 2514.36 1850.53 2514.6 1848.76 2514.9 1846.98L2516.6 1835.76C2516.71 1835.11 2516.79 1834.49 2516.86 1833.91 2516.93 1833.33 2516.96 1832.9 2516.96 1832.63 2516.96 1831.8 2516.83 1831.11 2516.56 1830.57 2516.29 1830.03 2515.83 1829.76 2515.18 1829.76 2514.67 1829.76 2514.11 1829.91 2513.52 1830.22 2512.92 1830.53 2512.32 1830.93 2511.72 1831.42 2511.11 1831.91 2510.52 1832.43 2509.95 1832.98 2509.39 1833.53 2508.86 1834.05 2508.37 1834.54L2506.43 1832.27C2507.26 1831.41 2508.16 1830.55 2509.1 1829.7 2510.05 1828.85 2511.05 1828.08 2512.1 1827.39 2513.15 1826.7 2514.26 1826.14 2515.42 1825.72 2516.59 1825.31 2517.77 1825.1 2518.99 1825.1 2520.02 1825.1 2520.85 1825.27 2521.5 1825.6 2522.15 1825.94 2522.66 1826.39 2523.02 1826.94 2523.39 1827.49 2523.64 1828.1 2523.77 1828.76 2523.91 1829.43 2523.98 1830.08 2523.98 1830.73 2523.98 1831.11 2523.96 1831.47 2523.93 1831.82 2523.91 1832.18 2523.87 1832.5 2523.81 1832.8L2521.54 1847.47C2521.3 1849.01 2521.1 1850.51 2520.94 1851.99 2520.77 1853.46 2520.69 1854.76 2520.69 1855.9 2520.69 1857.03 2520.76 1857.95 2520.9 1858.65 2521.03 1859.36 2521.29 1859.71 2521.67 1859.71 2522.56 1859.71 2523.68 1859.35 2525.03 1858.63 2526.38 1857.92 2527.8 1856.93 2529.28 1855.67 2530.77 1854.42 2532.26 1852.93 2533.74 1851.22 2535.23 1849.5 2536.57 1847.64 2537.75 1845.64 2538.94 1843.64 2539.91 1841.54 2540.65 1839.32 2541.4 1837.11 2541.77 1834.88 2541.77 1832.63 2541.77 1831.66 2541.56 1830.91 2541.14 1830.39 2540.72 1829.86 2540.06 1829.6 2539.17 1829.6 2538.04 1829.6 2536.99 1830.03 2536.03 1830.91 2535.07 1831.79 2534.08 1832.95 2533.05 1834.38L2530.74 1832.31C2531.39 1831.34 2532.15 1830.41 2533.03 1829.51 2533.91 1828.62 2534.84 1827.84 2535.83 1827.16 2536.82 1826.49 2537.84 1825.95 2538.89 1825.54 2539.94 1825.14 2540.97 1824.93 2541.97 1824.93Z" fill="#FFFFFF" fill-rule="evenodd"/><text fill="#000000" fill-opacity="0" font-family="Arial,Arial_MSFontService,sans-serif" font-size="40.2842" x="2506.43" y="1860.18">𝑣</text><path d="M2565.26 1842.8C2567.32 1842.8 2569.08 1843.03 2570.54 1843.5 2572 1843.97 2573.19 1844.6 2574.1 1845.39 2575.02 1846.19 2575.68 1847.14 2576.08 1848.25 2576.49 1849.36 2576.69 1850.57 2576.69 1851.86 2576.69 1852.63 2576.64 1853.35 2576.53 1854.02 2576.42 1854.68 2576.23 1855.34 2575.96 1855.98 2575.7 1856.63 2575.34 1857.28 2574.91 1857.93 2574.47 1858.59 2573.92 1859.28 2573.27 1860.02 2572.77 1860.65 2572.13 1861.39 2571.33 1862.22 2570.54 1863.06 2569.67 1863.95 2568.73 1864.9 2567.78 1865.86 2566.8 1866.85 2565.76 1867.88 2564.73 1868.91 2563.73 1869.94 2562.76 1870.95 2561.78 1871.96 2560.89 1872.94 2560.07 1873.9 2559.26 1874.85 2558.6 1875.72 2558.08 1876.52L2569.1 1876.52C2570.03 1876.52 2570.78 1876.48 2571.33 1876.41 2571.89 1876.34 2572.35 1876.19 2572.72 1875.95 2573.09 1875.71 2573.4 1875.35 2573.66 1874.87 2573.91 1874.38 2574.21 1873.71 2574.55 1872.85L2577.32 1872.85C2577.22 1874.26 2577.13 1875.68 2577.04 1877.11 2576.95 1878.54 2576.85 1879.96 2576.75 1881.37L2551.53 1881.37 2551.53 1879.82C2552 1878.75 2552.56 1877.69 2553.19 1876.65 2553.83 1875.61 2554.54 1874.55 2555.34 1873.48 2556.13 1872.41 2557.04 1871.3 2558.05 1870.16 2559.06 1869.02 2560.18 1867.83 2561.41 1866.6 2563.28 1864.73 2564.8 1863.14 2565.97 1861.82 2567.14 1860.5 2568.07 1859.32 2568.74 1858.29 2569.42 1857.26 2569.88 1856.3 2570.13 1855.43 2570.38 1854.56 2570.5 1853.62 2570.5 1852.63 2570.5 1851.62 2570.36 1850.68 2570.07 1849.83 2569.78 1848.98 2569.37 1848.25 2568.83 1847.66 2568.3 1847.06 2567.61 1846.59 2566.79 1846.26 2565.97 1845.92 2565.02 1845.75 2563.95 1845.75 2562.1 1845.75 2560.55 1846.25 2559.3 1847.25 2558.05 1848.26 2557.08 1849.71 2556.38 1851.62L2552.48 1851.62 2552.48 1845.81C2555.02 1844.76 2557.36 1843.99 2559.49 1843.52 2561.63 1843.04 2563.55 1842.8 2565.26 1842.8Z" fill="#FFFFFF" fill-rule="evenodd"/><text fill="#000000" fill-opacity="0" font-family="Arial,Arial_MSFontService,sans-serif" font-size="38.5718" x="2551.53" y="1876.55">2</text><path d="M2946.5 1555C2946.5 1511.09 2982.09 1475.5 3026 1475.5 3069.91 1475.5 3105.5 1511.09 3105.5 1555 3105.5 1598.91 3069.91 1634.5 3026 1634.5 2982.09 1634.5 2946.5 1598.91 2946.5 1555Z" stroke="#2F528F" stroke-width="4.58333" stroke-miterlimit="8" fill="#4472C4" fill-rule="evenodd"/><path d="M3011.81 1542.35C3013.75 1542.35 3015.16 1542.85 3016.02 1543.87 3016.89 1544.88 3017.32 1546.24 3017.32 1547.94 3017.32 1549.24 3017.09 1550.72 3016.63 1552.4 3016.17 1554.07 3015.52 1555.84 3014.69 1557.71 3013.85 1559.57 3012.85 1561.48 3011.69 1563.44 3010.53 1565.4 3009.24 1567.3 3007.84 1569.16 3006.43 1571.01 3004.93 1572.75 3003.34 1574.38 3001.75 1576.02 3000.09 1577.44 2998.37 1578.66 2996.66 1579.87 2994.92 1580.84 2993.15 1581.56 2991.38 1582.27 2989.61 1582.63 2987.86 1582.63 2987.07 1582.63 2986.42 1582.43 2985.89 1582.04 2985.37 1581.65 2984.94 1581.1 2984.62 1580.38 2984.29 1579.67 2984.06 1578.82 2983.93 1577.85 2983.79 1576.88 2983.72 1575.81 2983.72 1574.65 2983.72 1573.11 2983.82 1571.46 2984.01 1569.7 2984.2 1567.95 2984.44 1566.18 2984.74 1564.39L2986.44 1553.17C2986.55 1552.52 2986.64 1551.9 2986.7 1551.32 2986.77 1550.74 2986.8 1550.32 2986.8 1550.05 2986.8 1549.21 2986.67 1548.52 2986.4 1547.98 2986.13 1547.44 2985.67 1547.17 2985.02 1547.17 2984.51 1547.17 2983.95 1547.32 2983.36 1547.64 2982.76 1547.95 2982.16 1548.34 2981.56 1548.83 2980.95 1549.32 2980.36 1549.84 2979.79 1550.39 2979.23 1550.94 2978.7 1551.46 2978.21 1551.95L2976.27 1549.68C2977.1 1548.82 2978 1547.96 2978.94 1547.11 2979.89 1546.26 2980.89 1545.49 2981.94 1544.8 2982.99 1544.11 2984.1 1543.56 2985.26 1543.14 2986.43 1542.72 2987.61 1542.51 2988.83 1542.51 2989.86 1542.51 2990.69 1542.68 2991.34 1543.02 2991.99 1543.35 2992.5 1543.8 2992.86 1544.35 2993.23 1544.91 2993.48 1545.51 2993.61 1546.18 2993.75 1546.84 2993.82 1547.49 2993.82 1548.14 2993.82 1548.52 2993.8 1548.88 2993.77 1549.24 2993.75 1549.59 2993.71 1549.91 2993.65 1550.21L2991.38 1564.88C2991.14 1566.42 2990.94 1567.93 2990.78 1569.4 2990.61 1570.87 2990.53 1572.17 2990.53 1573.31 2990.53 1574.44 2990.6 1575.36 2990.74 1576.07 2990.87 1576.77 2991.13 1577.12 2991.51 1577.12 2992.4 1577.12 2993.52 1576.76 2994.87 1576.04 2996.22 1575.33 2997.64 1574.34 2999.12 1573.09 3000.61 1571.83 3002.1 1570.34 3003.58 1568.63 3005.07 1566.91 3006.41 1565.06 3007.59 1563.06 3008.78 1561.06 3009.75 1558.95 3010.49 1556.73 3011.24 1554.52 3011.61 1552.29 3011.61 1550.05 3011.61 1549.07 3011.4 1548.32 3010.98 1547.8 3010.56 1547.27 3009.9 1547.01 3009.01 1547.01 3007.88 1547.01 3006.83 1547.45 3005.87 1548.32 3004.91 1549.2 3003.92 1550.36 3002.89 1551.79L3000.58 1549.72C3001.23 1548.75 3002 1547.82 3002.87 1546.93 3003.75 1546.03 3004.68 1545.25 3005.67 1544.58 3006.66 1543.9 3007.68 1543.36 3008.73 1542.95 3009.78 1542.55 3010.81 1542.35 3011.81 1542.35Z" fill="#FFFFFF" fill-rule="evenodd"/><text fill="#000000" fill-opacity="0" font-family="Arial,Arial_MSFontService,sans-serif" font-size="40.2842" x="2976.27" y="1577.59">𝑣</text><path d="M3035.04 1560.21C3036.63 1560.21 3038.11 1560.38 3039.49 1560.72 3040.87 1561.06 3042.07 1561.57 3043.08 1562.25 3044.09 1562.94 3044.88 1563.79 3045.45 1564.82 3046.01 1565.84 3046.3 1567.02 3046.3 1568.37 3046.3 1569.65 3046.12 1570.77 3045.76 1571.74 3045.4 1572.71 3044.85 1573.6 3044.11 1574.39 3043.36 1575.19 3042.45 1575.91 3041.37 1576.55 3040.28 1577.2 3039.04 1577.82 3037.63 1578.41L3037.63 1578.77C3038.96 1579.01 3040.2 1579.39 3041.35 1579.92 3042.5 1580.44 3043.51 1581.11 3044.38 1581.91 3045.24 1582.72 3045.92 1583.64 3046.42 1584.7 3046.91 1585.75 3047.16 1586.91 3047.16 1588.18 3047.16 1589.77 3046.86 1591.24 3046.27 1592.6 3045.67 1593.97 3044.78 1595.14 3043.59 1596.13 3042.39 1597.13 3040.93 1597.9 3039.18 1598.46 3037.43 1599.01 3035.39 1599.29 3033.04 1599.29 3031.2 1599.29 3029.32 1599.11 3027.41 1598.74 3025.51 1598.37 3023.7 1597.89 3021.99 1597.3L3021.99 1590.86 3025.83 1590.86C3026.15 1591.86 3026.53 1592.7 3026.97 1593.41 3027.4 1594.11 3027.91 1594.69 3028.5 1595.14 3029.09 1595.58 3029.76 1595.91 3030.53 1596.1 3031.29 1596.3 3032.16 1596.4 3033.13 1596.4 3035.69 1596.4 3037.63 1595.79 3038.95 1594.57 3040.28 1593.35 3040.94 1591.5 3040.94 1589.02 3040.94 1586.37 3040.07 1584.37 3038.33 1583.01 3036.59 1581.65 3034.02 1580.97 3030.6 1580.97L3027.98 1580.97 3027.98 1578.11C3030.06 1578.02 3031.87 1577.72 3033.38 1577.24 3034.9 1576.75 3036.17 1576.12 3037.18 1575.34 3038.2 1574.57 3038.95 1573.67 3039.45 1572.63 3039.94 1571.6 3040.19 1570.5 3040.19 1569.33 3040.19 1567.42 3039.62 1565.92 3038.49 1564.82 3037.36 1563.71 3035.72 1563.16 3033.58 1563.16 3031.77 1563.16 3030.26 1563.66 3029.04 1564.65 3027.81 1565.64 3026.88 1567.12 3026.22 1569.09L3022.44 1569.09 3022.44 1563.22C3024.78 1562.23 3026.99 1561.48 3029.07 1560.97 3031.14 1560.47 3033.13 1560.21 3035.04 1560.21Z" fill="#FFFFFF" fill-rule="evenodd"/><text fill="#000000" fill-opacity="0" font-family="Arial,Arial_MSFontService,sans-serif" font-size="39.0781" x="3021.99" y="1594.41">3</text><path d="M2946.5 1837.5C2946.5 1793.32 2982.09 1757.5 3026 1757.5 3069.91 1757.5 3105.5 1793.32 3105.5 1837.5 3105.5 1881.68 3069.91 1917.5 3026 1917.5 2982.09 1917.5 2946.5 1881.68 2946.5 1837.5Z" stroke="#2F528F" stroke-width="4.58333" stroke-miterlimit="8" fill="#4472C4" fill-rule="evenodd"/><path d="M3013.57 1824.93C3015.52 1824.93 3016.92 1825.44 3017.79 1826.45 3018.65 1827.47 3019.09 1828.82 3019.09 1830.53 3019.09 1831.82 3018.86 1833.31 3018.4 1834.98 3017.94 1836.66 3017.29 1838.43 3016.45 1840.29 3015.61 1842.16 3014.61 1844.07 3013.45 1846.03 3012.29 1847.99 3011.01 1849.89 3009.6 1851.74 3008.2 1853.59 3006.7 1855.34 3005.1 1856.97 3003.51 1858.61 3001.85 1860.03 3000.14 1861.25 2998.42 1862.46 2996.68 1863.43 2994.91 1864.14 2993.14 1864.86 2991.38 1865.22 2989.62 1865.22 2988.84 1865.22 2988.18 1865.02 2987.66 1864.63 2987.13 1864.24 2986.7 1863.68 2986.38 1862.97 2986.06 1862.25 2985.83 1861.41 2985.69 1860.44 2985.56 1859.46 2985.49 1858.4 2985.49 1857.23 2985.49 1855.69 2985.58 1854.05 2985.77 1852.29 2985.96 1850.53 2986.2 1848.76 2986.5 1846.98L2988.2 1835.75C2988.31 1835.11 2988.4 1834.49 2988.47 1833.91 2988.54 1833.33 2988.57 1832.9 2988.57 1832.63 2988.57 1831.8 2988.43 1831.11 2988.16 1830.57 2987.89 1830.03 2987.43 1829.76 2986.79 1829.76 2986.27 1829.76 2985.72 1829.91 2985.12 1830.22 2984.53 1830.53 2983.93 1830.93 2983.32 1831.42 2982.71 1831.9 2982.12 1832.42 2981.56 1832.98 2980.99 1833.53 2980.46 1834.05 2979.98 1834.54L2978.03 1832.27C2978.87 1831.4 2979.76 1830.55 2980.71 1829.7 2981.65 1828.84 2982.65 1828.07 2983.71 1827.39 2984.76 1826.7 2985.87 1826.14 2987.03 1825.72 2988.19 1825.31 2989.38 1825.1 2990.6 1825.1 2991.62 1825.1 2992.46 1825.27 2993.11 1825.6 2993.76 1825.94 2994.26 1826.39 2994.63 1826.94 2994.99 1827.49 2995.24 1828.1 2995.38 1828.76 2995.51 1829.43 2995.58 1830.08 2995.58 1830.73 2995.58 1831.11 2995.57 1831.47 2995.54 1831.82 2995.51 1832.17 2995.47 1832.5 2995.42 1832.8L2993.15 1847.47C2992.91 1849.01 2992.7 1850.51 2992.54 1851.99 2992.38 1853.46 2992.3 1854.76 2992.3 1855.9 2992.3 1857.03 2992.36 1857.95 2992.5 1858.65 2992.64 1859.36 2992.89 1859.71 2993.27 1859.71 2994.16 1859.71 2995.28 1859.35 2996.63 1858.63 2997.98 1857.92 2999.4 1856.93 3000.89 1855.67 3002.38 1854.42 3003.86 1852.93 3005.35 1851.22 3006.83 1849.5 3008.17 1847.64 3009.36 1845.64 3010.55 1843.64 3011.51 1841.54 3012.26 1839.32 3013 1837.11 3013.37 1834.88 3013.37 1832.63 3013.37 1831.66 3013.16 1830.91 3012.74 1830.39 3012.32 1829.86 3011.67 1829.59 3010.78 1829.59 3009.64 1829.59 3008.6 1830.03 3007.64 1830.91 3006.68 1831.79 3005.68 1832.94 3004.66 1834.38L3002.35 1832.31C3003 1831.34 3003.76 1830.41 3004.64 1829.51 3005.52 1828.62 3006.45 1827.84 3007.43 1827.16 3008.42 1826.49 3009.44 1825.95 3010.49 1825.54 3011.55 1825.14 3012.57 1824.93 3013.57 1824.93Z" fill="#FFFFFF" fill-rule="evenodd"/><text fill="#000000" fill-opacity="0" font-family="Arial,Arial_MSFontService,sans-serif" font-size="40.2842" x="2978.03" y="1860.18">𝑣</text><path d="M3034.73 1850.19C3032.83 1852.95 3030.93 1855.69 3029.03 1858.41 3027.13 1861.13 3025.22 1863.86 3023.3 1866.6L3023.3 1866.96 3034.73 1866.96 3034.73 1860.97C3034.73 1860.3 3034.74 1859.46 3034.76 1858.47 3034.78 1857.48 3034.81 1856.47 3034.84 1855.45 3034.87 1854.42 3034.9 1853.45 3034.94 1852.53 3034.98 1851.6 3035.02 1850.82 3035.06 1850.19ZM3035.6 1843.22 3040.33 1843.22 3040.33 1866.96 3040.87 1866.96C3041.68 1866.96 3042.34 1866.92 3042.85 1866.84 3043.36 1866.76 3043.76 1866.59 3044.07 1866.35 3044.38 1866.1 3044.64 1865.75 3044.84 1865.3 3045.05 1864.86 3045.28 1864.28 3045.51 1863.56L3048.05 1863.56C3047.99 1864.65 3047.92 1865.74 3047.85 1866.81 3047.78 1867.88 3047.72 1868.97 3047.66 1870.08L3040.33 1870.08 3040.33 1873.99C3040.33 1875.14 3040.36 1876.03 3040.41 1876.67 3040.46 1877.3 3040.61 1877.8 3040.85 1878.16 3041.1 1878.51 3041.47 1878.78 3041.96 1878.96 3042.44 1879.14 3043.12 1879.35 3044 1879.59L3044 1881.37 3031.13 1881.37 3031.13 1879.59C3031.72 1879.43 3032.23 1879.28 3032.65 1879.15 3033.06 1879.03 3033.41 1878.88 3033.69 1878.71 3033.97 1878.54 3034.17 1878.34 3034.3 1878.11 3034.43 1877.88 3034.53 1877.6 3034.6 1877.25 3034.67 1876.9 3034.71 1876.46 3034.72 1875.94 3034.73 1875.41 3034.73 1874.76 3034.73 1873.99L3034.73 1870.08 3017.96 1870.08 3017.96 1867.73C3020.92 1863.62 3023.86 1859.54 3026.78 1855.47 3029.7 1851.41 3032.64 1847.33 3035.6 1843.22Z" fill="#FFFFFF" fill-rule="evenodd"/><text fill="#000000" fill-opacity="0" font-family="Arial,Arial_MSFontService,sans-serif" font-size="38.1548" x="3017.96" y="1876.6">4</text><path d="M3416.5 1714C3416.5 1670.09 3452.09 1634.5 3496 1634.5 3539.91 1634.5 3575.5 1670.09 3575.5 1714 3575.5 1757.91 3539.91 1793.5 3496 1793.5 3452.09 1793.5 3416.5 1757.91 3416.5 1714Z" stroke="#2F528F" stroke-width="4.58333" stroke-miterlimit="8" fill="#4472C4" fill-rule="evenodd"/><path d="M3482.9 1692.34 3488.5 1692.34 3486.27 1702.35 3498.59 1702.35 3497.7 1706.44 3485.38 1706.44 3481.77 1722.16C3481.07 1725.22 3480.62 1727.41 3480.43 1728.75 3480.24 1730.09 3480.15 1731.16 3480.15 1731.97 3480.15 1735.32 3481.54 1737 3484.32 1737 3485.51 1737 3486.77 1736.54 3488.11 1735.64 3489.45 1734.73 3491.04 1733.19 3492.87 1731L3495.22 1733.43C3492.87 1736.27 3490.61 1738.36 3488.44 1739.71 3486.26 1741.06 3483.99 1741.74 3481.61 1741.74 3475.96 1741.74 3473.14 1738.89 3473.14 1733.19 3473.14 1731.38 3473.37 1729.47 3473.83 1727.47L3478.61 1706.44 3471.8 1706.44 3472.41 1703.64C3474 1703.62 3475.21 1703.49 3476.03 1703.28 3476.86 1703.06 3477.55 1702.77 3478.1 1702.39 3478.66 1702.01 3479.16 1701.47 3479.62 1700.77 3480.08 1700.06 3480.53 1699.16 3480.96 1698.07 3481.39 1696.98 3482.04 1695.06 3482.9 1692.34Z" fill="#FFFFFF" fill-rule="evenodd"/><text fill="#000000" fill-opacity="0" font-family="Arial,Arial_MSFontService,sans-serif" font-size="49.4028" x="3471.8" y="1735.56">𝑡</text><path d="M0.857405-2.12523 234.614 92.1818 232.899 96.4322-0.857405 2.12523ZM234.65 79.8408 255.009 102.881 224.362 105.344Z" fill="#4472C4" transform="matrix(1 0 0 -1 2221.5 1657.38)"/><path d="M2222.08 1768.28 2454.93 1829.62 2453.76 1834.05 2220.92 1772.72ZM2453.42 1817.37 2476.51 1837.67 2446.41 1843.96Z" fill="#4472C4"/><path d="M2.66195e-06-2.29167 287.775-2.29133 287.775 2.292-2.66195e-06 2.29167ZM283.192-13.7497 310.692 0.000360892 283.191 13.7503Z" fill="#4472C4" transform="matrix(1 0 0 -1 2635.5 1837.5)"/><path d="M3106.17 1552.31 3418.27 1648.44 3416.92 1652.82 3104.83 1556.69ZM3417.26 1636.14 3439.5 1657.38 3409.17 1662.43Z" fill="#4472C4"/><text font-family="DengXian,DengXian_MSFontService,sans-serif" font-weight="400" font-size="83" transform="matrix(1 0 0 1 2259.02 1613)">5</text><text font-family="DengXian,DengXian_MSFontService,sans-serif" font-weight="400" font-size="83" transform="matrix(1 0 0 1 2770.57 1825)">3</text><text fill="#C00000" font-family="DengXian,DengXian_MSFontService,sans-serif" font-weight="400" font-size="83" transform="matrix(1 0 0 1 2821.03 1737)">4</text><text font-family="DengXian,DengXian_MSFontService,sans-serif" font-weight="400" font-size="83" transform="matrix(1 0 0 1 2676.9 2074)">分层图</text><path d="M0.984828-2.06926 337.597 158.135 335.628 162.274-0.984828 2.06926ZM338.383 145.819 357.305 170.053 326.565 170.65Z" fill="#C00000" transform="matrix(1 0 0 -1 2612.5 1781.55)"/><text font-family="DengXian,DengXian_MSFontService,sans-serif" font-weight="400" font-size="83" transform="matrix(1 0 0 1 3262.45 1573)">5</text><text font-family="DengXian,DengXian_MSFontService,sans-serif" font-weight="400" font-size="83" transform="matrix(1 0 0 1 2347.33 1804)">5</text><text font-family="DengXian,DengXian_MSFontService,sans-serif" font-weight="400" font-size="83" transform="matrix(1 0 0 1 2424.26 1336)">第一层</text><path d="M2473.81 1395.79C2474.92 1395.79 2475.86 1395.94 2476.65 1396.23 2477.19 1396.45 2477.73 1396.81 2478.27 1397.31 2478.81 1397.81 2479.29 1398.5 2479.71 1399.39 2480.13 1400.29 2480.49 1401.29 2480.8 1402.39 2481.11 1403.5 2481.46 1405.09 2481.84 1407.18 2482.48 1410.66 2483.11 1414.33 2483.72 1418.18 2484.33 1422.03 2484.85 1425.6 2485.28 1428.9 2487.9 1425.12 2490.12 1421.41 2491.95 1417.79 2493.77 1414.17 2495.08 1411.03 2495.88 1408.35 2496.68 1405.68 2497.07 1403.5 2497.07 1401.83 2497.07 1400.56 2496.8 1399.69 2496.26 1399.23 2495.72 1398.77 2494.8 1398.5 2493.51 1398.42L2493.91 1396.44 2504.57 1396.44 2505.67 1398.46C2503.61 1404.08 2500.83 1410.09 2497.32 1416.5 2493.86 1422.76 2489.9 1429.01 2485.44 1435.22 2481.17 1441.14 2477.62 1445.42 2474.78 1448.07 2472.81 1449.88 2470.91 1451.17 2469.07 1451.96 2467.61 1452.55 2466.06 1452.85 2464.41 1452.85 2463.84 1452.85 2463.19 1452.8 2462.44 1452.71 2461.7 1452.61 2461.13 1452.48 2460.72 1452.32L2462.46 1444.46 2465.67 1444.46C2465.67 1446.19 2466.26 1447.05 2467.45 1447.05 2469.02 1447.05 2470.84 1446.07 2472.92 1444.12 2475 1442.16 2477.45 1439.21 2480.25 1435.26 2479.47 1430.53 2478.4 1424.83 2477.05 1418.16 2475.62 1411.03 2474.68 1406.61 2474.22 1404.91 2473.65 1402.85 2473.05 1401.54 2472.43 1400.97 2472.05 1400.62 2471.58 1400.45 2471.01 1400.45 2470.15 1400.45 2469.34 1400.8 2468.58 1401.5 2467.83 1402.2 2466.89 1403.42 2465.79 1405.15L2463.15 1403.41C2465.02 1400.62 2466.76 1398.66 2468.38 1397.51 2470 1396.36 2471.81 1395.79 2473.81 1395.79ZM2455.31 1377.23 2457.7 1377.23 2447.73 1422.09C2447.14 1424.76 2446.84 1426.76 2446.84 1428.09 2446.84 1429.17 2447.01 1429.95 2447.37 1430.44 2447.72 1430.92 2448.27 1431.17 2449.03 1431.17 2449.84 1431.17 2450.7 1430.84 2451.62 1430.17 2452.54 1429.51 2453.84 1428.25 2455.51 1426.39L2457.82 1428.65C2455.2 1431.41 2453.06 1433.29 2451.4 1434.31 2449.74 1435.32 2447.88 1435.83 2445.83 1435.83 2444.07 1435.83 2442.66 1435.19 2441.61 1433.9 2440.56 1432.62 2440.03 1430.98 2440.03 1428.98 2440.03 1427.17 2440.41 1424.55 2441.16 1421.12L2448.42 1388.65C2448.74 1387.22 2448.97 1386.08 2449.11 1385.23 2449.24 1384.38 2449.31 1383.59 2449.31 1382.86 2449.31 1382.05 2449.16 1381.43 2448.86 1381.01 2448.57 1380.6 2448.14 1380.29 2447.59 1380.1 2447.03 1379.91 2446.04 1379.78 2444.61 1379.7L2445.1 1377.59Z" fill-rule="evenodd"/><text fill="#000000" fill-opacity="0" font-family="Arial,Arial_MSFontService,sans-serif" font-size="75.624" x="2440.03" y="1443.4">𝑙𝑦</text><path d="M2537 1417.19 2586.93 1417.19 2586.93 1422.58 2537 1422.58ZM2537 1400.37 2586.93 1400.37 2586.93 1405.76 2537 1405.76Z" fill-rule="evenodd"/><text fill="#000000" fill-opacity="0" font-family="Arial,Arial_MSFontService,sans-serif" font-size="22.209" x="2537" y="1419.8">=</text><path d="M2641.93 1379.21 2644.16 1379.21C2644 1381.8 2643.92 1385.4 2643.92 1389.99L2643.92 1424.6C2643.92 1426.17 2644.01 1427.35 2644.18 1428.15 2644.36 1428.94 2644.67 1429.59 2645.12 1430.09 2645.56 1430.59 2646.2 1430.98 2647.04 1431.27 2647.88 1431.55 2648.93 1431.77 2650.2 1431.92 2651.47 1432.07 2653.15 1432.17 2655.23 1432.22L2655.23 1435.18 2625.28 1435.18 2625.28 1432.22C2628.28 1432.09 2630.42 1431.9 2631.7 1431.67 2632.98 1431.44 2633.96 1431.1 2634.64 1430.64 2635.31 1430.18 2635.81 1429.53 2636.12 1428.7 2636.43 1427.86 2636.58 1426.49 2636.58 1424.6L2636.58 1391.73C2636.58 1390.65 2636.4 1389.86 2636.02 1389.36 2635.64 1388.86 2635.09 1388.61 2634.36 1388.61 2633.49 1388.61 2632.26 1389.06 2630.67 1389.95 2629.07 1390.84 2627.1 1392.07 2624.75 1393.64L2622.97 1390.52Z" fill-rule="evenodd"/><text fill="#000000" fill-opacity="0" font-family="Arial,Arial_MSFontService,sans-serif" font-size="55.9683" x="2622.97" y="1428.18">1</text><text font-family="DengXian,DengXian_MSFontService,sans-serif" font-weight="400" font-size="83" transform="matrix(1 0 0 1 2924.03 1338)">第二层</text><path d="M2973.57 1397.51C2974.68 1397.51 2975.63 1397.66 2976.41 1397.96 2976.95 1398.18 2977.49 1398.53 2978.03 1399.03 2978.57 1399.53 2979.05 1400.23 2979.47 1401.12 2979.89 1402.01 2980.25 1403.01 2980.57 1404.12 2980.88 1405.23 2981.22 1406.82 2981.6 1408.9 2982.25 1412.39 2982.88 1416.06 2983.48 1419.91 2984.09 1423.76 2984.61 1427.33 2985.04 1430.62 2987.66 1426.84 2989.89 1423.14 2991.71 1419.52 2993.53 1415.9 2994.84 1412.75 2995.64 1410.08 2996.44 1407.4 2996.84 1405.23 2996.84 1403.55 2996.84 1402.28 2996.57 1401.42 2996.03 1400.96 2995.49 1400.5 2994.57 1400.23 2993.27 1400.15L2993.68 1398.16 3004.33 1398.16 3005.43 1400.19C3003.38 1405.81 3000.59 1411.82 2997.08 1418.22 2993.62 1424.49 2989.66 1430.73 2985.21 1436.95 2980.94 1442.86 2977.38 1447.15 2974.55 1449.79 2972.57 1451.6 2970.67 1452.9 2968.83 1453.69 2967.37 1454.28 2965.82 1454.58 2964.17 1454.58 2963.6 1454.58 2962.95 1454.53 2962.21 1454.43 2961.46 1454.34 2960.89 1454.21 2960.48 1454.05L2962.23 1446.19 2965.43 1446.19C2965.43 1447.92 2966.02 1448.78 2967.21 1448.78 2968.78 1448.78 2970.6 1447.8 2972.68 1445.84 2974.76 1443.88 2977.21 1440.93 2980.02 1436.99 2979.24 1432.26 2978.17 1426.56 2976.82 1419.89 2975.39 1412.75 2974.44 1408.33 2973.98 1406.63 2973.41 1404.58 2972.82 1403.27 2972.2 1402.7 2971.82 1402.35 2971.35 1402.17 2970.78 1402.17 2969.91 1402.17 2969.1 1402.53 2968.35 1403.23 2967.59 1403.93 2966.66 1405.15 2965.55 1406.88L2962.92 1405.13C2964.78 1402.35 2966.52 1400.38 2968.14 1399.24 2969.77 1398.09 2971.58 1397.51 2973.57 1397.51ZM2955.07 1378.95 2957.46 1378.95 2947.49 1423.82C2946.9 1426.49 2946.6 1428.49 2946.6 1429.81 2946.6 1430.9 2946.78 1431.68 2947.13 1432.17 2947.48 1432.65 2948.03 1432.89 2948.79 1432.89 2949.6 1432.89 2950.47 1432.56 2951.38 1431.9 2952.3 1431.24 2953.6 1429.98 2955.27 1428.11L2957.58 1430.38C2954.96 1433.14 2952.82 1435.02 2951.16 1436.04 2949.5 1437.05 2947.64 1437.56 2945.59 1437.56 2943.83 1437.56 2942.43 1436.91 2941.37 1435.63 2940.32 1434.35 2939.79 1432.71 2939.79 1430.71 2939.79 1428.9 2940.17 1426.28 2940.93 1422.84L2948.18 1390.38C2948.51 1388.95 2948.74 1387.81 2948.87 1386.96 2949.01 1386.11 2949.07 1385.32 2949.07 1384.59 2949.07 1383.78 2948.93 1383.16 2948.63 1382.74 2948.33 1382.32 2947.91 1382.02 2947.35 1381.83 2946.8 1381.64 2945.8 1381.51 2944.37 1381.42L2944.86 1379.32Z" fill-rule="evenodd"/><text fill="#000000" fill-opacity="0" font-family="Arial,Arial_MSFontService,sans-serif" font-size="75.624" x="2939.79" y="1445.12">𝑙𝑦</text><path d="M3036.76 1418.91 3086.69 1418.91 3086.69 1424.3 3036.76 1424.3ZM3036.76 1402.09 3086.69 1402.09 3086.69 1407.48 3036.76 1407.48Z" fill-rule="evenodd"/><text fill="#000000" fill-opacity="0" font-family="Arial,Arial_MSFontService,sans-serif" font-size="22.209" x="3036.76" y="1421.53">=</text><path d="M3138.82 1380.94C3143.85 1380.94 3147.64 1382.04 3150.21 1384.24 3152.78 1386.44 3154.06 1389.64 3154.06 1393.83 3154.06 1395.26 3153.92 1396.58 3153.63 1397.78 3153.35 1398.98 3152.9 1400.17 3152.3 1401.34 3151.69 1402.52 3150.87 1403.78 3149.84 1405.13 3148.82 1406.48 3147.68 1407.86 3146.44 1409.25 3145.2 1410.64 3143.05 1412.96 3140 1416.2 3134.86 1421.63 3131.09 1426.37 3128.69 1430.42L3143.97 1430.42C3145.29 1430.42 3146.36 1430.34 3147.17 1430.18 3147.98 1430.02 3148.63 1429.75 3149.11 1429.37 3149.6 1428.99 3149.99 1428.5 3150.27 1427.89 3150.55 1427.28 3150.91 1426.34 3151.34 1425.07L3154.79 1425.07 3154.1 1436.91 3120.75 1436.91 3120.75 1434.96C3121.91 1432.12 3123.47 1429.22 3125.45 1426.25 3127.42 1423.28 3130.22 1419.78 3133.84 1415.75 3136.97 1412.29 3139.23 1409.67 3140.6 1407.89 3142.12 1405.94 3143.24 1404.26 3143.99 1402.84 3144.73 1401.43 3145.26 1400.09 3145.59 1398.83 3145.91 1397.57 3146.07 1396.31 3146.07 1395.04 3146.07 1393.02 3145.75 1391.23 3145.1 1389.67 3144.45 1388.12 3143.46 1386.9 3142.12 1386 3140.79 1385.11 3139.1 1384.67 3137.08 1384.67 3132.03 1384.67 3128.62 1387.48 3126.86 1393.1L3121.96 1393.1 3121.96 1385.32C3125.23 1383.78 3128.29 1382.66 3131.14 1381.97 3133.99 1381.28 3136.55 1380.94 3138.82 1380.94Z" fill-rule="evenodd"/><text fill="#000000" fill-opacity="0" font-family="Arial,Arial_MSFontService,sans-serif" font-size="55.9683" x="3120.75" y="1429.91">2</text></g></svg>