<svg width="1323" height="543" xmlns="http://www.w3.org/2000/svg" xmlns:xlink="http://www.w3.org/1999/xlink" xml:space="preserve" overflow="hidden"><g transform="translate(-571 -1492)"><path d="M573.5 1564C573.5 1525.62 604.616 1494.5 643 1494.5 681.384 1494.5 712.5 1525.62 712.5 1564 712.5 1602.38 681.384 1633.5 643 1633.5 604.616 1633.5 573.5 1602.38 573.5 1564Z" stroke="#2F528F" stroke-width="4.58333" stroke-miterlimit="8" fill="none" fill-rule="evenodd"/><path d="M619.183 1535.18C621.885 1535.18 624.371 1535.33 626.641 1535.61 628.91 1535.89 631.247 1536.4 633.652 1537.13L631.18 1548.68 625.87 1548.68C625.843 1545.65 625.249 1543.44 624.087 1542.03 622.925 1540.63 621.048 1539.93 618.454 1539.93 615.617 1539.93 613.375 1540.69 611.726 1542.21 610.078 1543.74 609.254 1545.84 609.254 1548.52 609.254 1550.41 609.909 1552.2 611.22 1553.89 612.53 1555.58 614.509 1557.38 617.157 1559.3 619.562 1561.08 621.412 1562.68 622.709 1564.1 624.006 1565.52 624.979 1567.02 625.627 1568.62 626.276 1570.21 626.6 1572.04 626.6 1574.09 626.6 1576.55 626.06 1578.92 624.979 1581.2 623.898 1583.49 622.378 1585.42 620.42 1587.02 618.461 1588.61 616.252 1589.81 613.793 1590.6 611.335 1591.4 608.079 1591.8 604.026 1591.8 601.541 1591.8 598.94 1591.58 596.225 1591.15 593.509 1590.72 590.895 1590.11 588.383 1589.33L590.895 1577.66 596.204 1577.66C596.286 1580.03 596.65 1581.9 597.299 1583.27 597.947 1584.63 598.866 1585.61 600.055 1586.19 601.243 1586.77 602.81 1587.06 604.756 1587.06 607.701 1587.06 610.024 1586.21 611.726 1584.53 613.429 1582.84 614.28 1580.48 614.28 1577.45 614.28 1575.89 614.009 1574.5 613.469 1573.3 612.929 1572.1 612.098 1570.93 610.977 1569.79 609.855 1568.66 607.917 1567.08 605.161 1565.05 602.594 1563.16 600.656 1561.07 599.345 1558.77 598.035 1556.47 597.38 1554.07 597.38 1551.56 597.38 1549.42 597.839 1547.33 598.758 1545.27 599.676 1543.22 601.034 1541.43 602.831 1539.9 604.627 1538.38 606.89 1537.21 609.619 1536.4 612.348 1535.59 615.536 1535.18 619.183 1535.18Z" fill="#C00000" fill-rule="evenodd"/><text fill="#000000" fill-opacity="0" font-family="Arial,Arial_MSFontService,sans-serif" font-size="56.6167" x="588.383" y="1584.72">𝑺</text><path d="M655.187 1566.86 658.999 1566.86C658.88 1568.77 658.82 1571.41 658.82 1574.79L658.82 1599.69C658.82 1600.84 658.885 1601.71 659.014 1602.29 659.143 1602.88 659.371 1603.35 659.699 1603.72 660.027 1604.09 660.498 1604.38 661.114 1604.59 661.729 1604.79 662.504 1604.95 663.437 1605.06 664.37 1605.17 665.601 1605.25 667.13 1605.29L667.13 1608 641.426 1608 641.426 1605.29C643.63 1605.19 645.204 1605.05 646.147 1604.88 647.09 1604.71 647.81 1604.46 648.306 1604.12 648.803 1603.79 649.165 1603.31 649.393 1602.69 649.622 1602.08 649.736 1601.08 649.736 1599.69L649.736 1578.15C649.736 1577.34 649.582 1576.75 649.274 1576.39 648.966 1576.04 648.544 1575.86 648.008 1575.86 647.512 1575.86 646.812 1576.09 645.908 1576.54 645.005 1577 643.521 1577.93 641.456 1579.34L639.639 1576.18Z" fill="#C00000" fill-rule="evenodd"/><text fill="#000000" fill-opacity="0" font-family="Arial,Arial_MSFontService,sans-serif" font-size="41.1333" x="639.639" y="1602.85">𝟏</text><path d="M1359.5 1564C1359.5 1525.62 1390.62 1494.5 1429 1494.5 1467.38 1494.5 1498.5 1525.62 1498.5 1564 1498.5 1602.38 1467.38 1633.5 1429 1633.5 1390.62 1633.5 1359.5 1602.38 1359.5 1564Z" stroke="#2F528F" stroke-width="4.58333" stroke-miterlimit="8" fill="none" fill-rule="evenodd"/><path d="M1405.4 1535.18C1408.1 1535.18 1410.58 1535.33 1412.85 1535.61 1415.12 1535.89 1417.46 1536.4 1419.87 1537.13L1417.39 1548.68 1412.08 1548.68C1412.06 1545.65 1411.46 1543.44 1410.3 1542.03 1409.14 1540.63 1407.26 1539.93 1404.67 1539.93 1401.83 1539.93 1399.59 1540.69 1397.94 1542.21 1396.29 1543.74 1395.47 1545.84 1395.47 1548.52 1395.47 1550.41 1396.12 1552.2 1397.43 1553.89 1398.74 1555.58 1400.72 1557.38 1403.37 1559.3 1405.78 1561.08 1407.63 1562.68 1408.92 1564.1 1410.22 1565.52 1411.19 1567.02 1411.84 1568.62 1412.49 1570.21 1412.81 1572.04 1412.81 1574.09 1412.81 1576.55 1412.27 1578.92 1411.19 1581.2 1410.11 1583.49 1408.59 1585.42 1406.63 1587.02 1404.67 1588.61 1402.47 1589.81 1400.01 1590.6 1397.55 1591.4 1394.29 1591.8 1390.24 1591.8 1387.75 1591.8 1385.15 1591.58 1382.44 1591.15 1379.72 1590.72 1377.11 1590.11 1374.6 1589.33L1377.11 1577.66 1382.42 1577.66C1382.5 1580.03 1382.86 1581.9 1383.51 1583.27 1384.16 1584.63 1385.08 1585.61 1386.27 1586.19 1387.46 1586.77 1389.02 1587.06 1390.97 1587.06 1393.91 1587.06 1396.24 1586.21 1397.94 1584.53 1399.64 1582.84 1400.49 1580.48 1400.49 1577.45 1400.49 1575.89 1400.22 1574.5 1399.68 1573.3 1399.14 1572.1 1398.31 1570.93 1397.19 1569.79 1396.07 1568.66 1394.13 1567.08 1391.37 1565.05 1388.81 1563.16 1386.87 1561.07 1385.56 1558.77 1384.25 1556.47 1383.59 1554.07 1383.59 1551.56 1383.59 1549.42 1384.05 1547.33 1384.97 1545.27 1385.89 1543.22 1387.25 1541.43 1389.04 1539.9 1390.84 1538.38 1393.1 1537.21 1395.83 1536.4 1398.56 1535.59 1401.75 1535.18 1405.4 1535.18Z" fill="#C00000" fill-rule="evenodd"/><text fill="#000000" fill-opacity="0" font-family="Arial,Arial_MSFontService,sans-serif" font-size="56.6167" x="1374.6" y="1584.72">𝑺</text><path d="M1439.17 1566.86C1442.92 1566.86 1445.92 1567.63 1448.16 1569.16 1450.4 1570.68 1451.53 1572.82 1451.53 1575.56 1451.53 1577.86 1450.87 1579.85 1449.55 1581.52 1448.23 1583.18 1446.02 1584.73 1442.92 1586.16L1442.92 1586.43C1445.82 1586.97 1448.11 1588.13 1449.78 1589.92 1451.46 1591.7 1452.3 1593.92 1452.3 1596.56 1452.3 1598.86 1451.74 1600.91 1450.62 1602.71 1449.5 1604.51 1447.79 1605.92 1445.51 1606.94 1443.23 1607.96 1440.46 1608.47 1437.2 1608.47 1434.96 1608.47 1432.75 1608.27 1430.59 1607.86 1428.42 1607.45 1426.54 1606.88 1424.93 1606.15L1424.93 1598.67 1430.29 1598.67C1430.87 1600.94 1431.68 1602.58 1432.73 1603.6 1433.78 1604.62 1435.16 1605.14 1436.87 1605.14 1441.08 1605.14 1443.19 1602.53 1443.19 1597.33 1443.19 1594.53 1442.45 1592.45 1440.97 1591.08 1439.49 1589.71 1437.24 1589.02 1434.22 1589.02L1431.87 1589.02 1431.87 1585.63C1435.32 1585.49 1437.94 1584.68 1439.73 1583.2 1441.52 1581.72 1442.41 1579.58 1442.41 1576.78 1442.41 1574.58 1441.97 1572.91 1441.07 1571.79 1440.18 1570.67 1438.88 1570.11 1437.17 1570.11 1435.5 1570.11 1434.13 1570.7 1433.06 1571.9 1431.99 1573.09 1431.25 1574.83 1430.86 1577.14L1425.49 1577.14 1425.49 1570.08C1430.52 1567.93 1435.08 1566.86 1439.17 1566.86Z" fill="#C00000" fill-rule="evenodd"/><text fill="#000000" fill-opacity="0" font-family="Arial,Arial_MSFontService,sans-serif" font-size="41.6099" x="1424.93" y="1603.27">𝟑</text><path d="M1752.5 1564C1752.5 1525.62 1783.62 1494.5 1822 1494.5 1860.38 1494.5 1891.5 1525.62 1891.5 1564 1891.5 1602.38 1860.38 1633.5 1822 1633.5 1783.62 1633.5 1752.5 1602.38 1752.5 1564Z" stroke="#2F528F" stroke-width="4.58333" stroke-miterlimit="8" fill="none" fill-rule="evenodd"/><path d="M1798.5 1535.18C1801.21 1535.18 1803.69 1535.33 1805.96 1535.61 1808.23 1535.89 1810.57 1536.4 1812.97 1537.13L1810.5 1548.68 1805.19 1548.68C1805.16 1545.65 1804.57 1543.44 1803.41 1542.03 1802.25 1540.63 1800.37 1539.93 1797.77 1539.93 1794.94 1539.93 1792.69 1540.69 1791.05 1542.21 1789.4 1543.74 1788.57 1545.84 1788.57 1548.52 1788.57 1550.41 1789.23 1552.2 1790.54 1553.89 1791.85 1555.58 1793.83 1557.38 1796.48 1559.3 1798.88 1561.08 1800.73 1562.68 1802.03 1564.1 1803.33 1565.52 1804.3 1567.02 1804.95 1568.62 1805.6 1570.21 1805.92 1572.04 1805.92 1574.09 1805.92 1576.55 1805.38 1578.92 1804.3 1581.2 1803.22 1583.49 1801.7 1585.42 1799.74 1587.02 1797.78 1588.61 1795.57 1589.81 1793.11 1590.6 1790.65 1591.4 1787.4 1591.8 1783.35 1591.8 1780.86 1591.8 1778.26 1591.58 1775.54 1591.15 1772.83 1590.72 1770.22 1590.11 1767.7 1589.33L1770.22 1577.66 1775.52 1577.66C1775.61 1580.03 1775.97 1581.9 1776.62 1583.27 1777.27 1584.63 1778.19 1585.61 1779.37 1586.19 1780.56 1586.77 1782.13 1587.06 1784.08 1587.06 1787.02 1587.06 1789.34 1586.21 1791.05 1584.53 1792.75 1582.84 1793.6 1580.48 1793.6 1577.45 1793.6 1575.89 1793.33 1574.5 1792.79 1573.3 1792.25 1572.1 1791.42 1570.93 1790.3 1569.79 1789.18 1568.66 1787.24 1567.08 1784.48 1565.05 1781.91 1563.16 1779.98 1561.07 1778.67 1558.77 1777.35 1556.47 1776.7 1554.07 1776.7 1551.56 1776.7 1549.42 1777.16 1547.33 1778.08 1545.27 1779 1543.22 1780.35 1541.43 1782.15 1539.9 1783.95 1538.38 1786.21 1537.21 1788.94 1536.4 1791.67 1535.59 1794.86 1535.18 1798.5 1535.18Z" fill="#C00000" fill-rule="evenodd"/><text fill="#000000" fill-opacity="0" font-family="Arial,Arial_MSFontService,sans-serif" font-size="56.6167" x="1767.7" y="1584.72">𝑺</text><path d="M1831.77 1576.6 1821.58 1591.94 1821.58 1592.45 1831.77 1592.45 1831.77 1585.63C1831.77 1582.77 1831.87 1579.76 1832.06 1576.6ZM1833.88 1567.13 1840.58 1567.13 1840.58 1592.45 1841.51 1592.45C1842.48 1592.45 1843.16 1592.38 1843.56 1592.25 1843.96 1592.12 1844.3 1591.88 1844.59 1591.52 1844.88 1591.17 1845.15 1590.53 1845.41 1589.62L1848.54 1589.62 1848.18 1596.2 1840.58 1596.2 1840.58 1600.64C1840.58 1602.13 1840.67 1603.18 1840.85 1603.78 1841.03 1604.39 1841.3 1604.84 1841.67 1605.14 1842.04 1605.43 1842.75 1605.73 1843.8 1606.03L1843.8 1608 1828.58 1608 1828.58 1606.03C1829.63 1605.75 1830.35 1605.44 1830.74 1605.09 1831.13 1604.74 1831.39 1604.28 1831.54 1603.71 1831.69 1603.13 1831.77 1602.11 1831.77 1600.64L1831.77 1596.2 1815.8 1596.2 1815.8 1592.98Z" fill="#C00000" fill-rule="evenodd"/><text fill="#000000" fill-opacity="0" font-family="Arial,Arial_MSFontService,sans-serif" font-size="40.8652" x="1815.8" y="1602.89">𝟒</text><path d="M966.5 1564C966.5 1525.62 997.616 1494.5 1036 1494.5 1074.38 1494.5 1105.5 1525.62 1105.5 1564 1105.5 1602.38 1074.38 1633.5 1036 1633.5 997.616 1633.5 966.5 1602.38 966.5 1564Z" stroke="#2F528F" stroke-width="4.58333" stroke-miterlimit="8" fill="none" fill-rule="evenodd"/><path d="M1012.29 1535.18C1014.99 1535.18 1017.48 1535.33 1019.75 1535.61 1022.02 1535.89 1024.35 1536.4 1026.76 1537.13L1024.29 1548.68 1018.98 1548.68C1018.95 1545.65 1018.36 1543.44 1017.19 1542.03 1016.03 1540.63 1014.15 1539.93 1011.56 1539.93 1008.72 1539.93 1006.48 1540.69 1004.83 1542.21 1003.18 1543.74 1002.36 1545.84 1002.36 1548.52 1002.36 1550.41 1003.02 1552.2 1004.33 1553.89 1005.64 1555.58 1007.62 1557.38 1010.26 1559.3 1012.67 1561.08 1014.52 1562.68 1015.82 1564.1 1017.11 1565.52 1018.09 1567.02 1018.73 1568.62 1019.38 1570.21 1019.71 1572.04 1019.71 1574.09 1019.71 1576.55 1019.17 1578.92 1018.09 1581.2 1017 1583.49 1015.49 1585.42 1013.53 1587.02 1011.57 1588.61 1009.36 1589.81 1006.9 1590.6 1004.44 1591.4 1001.19 1591.8 997.133 1591.8 994.647 1591.8 992.047 1591.58 989.331 1591.15 986.616 1590.72 984.002 1590.11 981.489 1589.33L984.002 1577.66 989.311 1577.66C989.392 1580.03 989.757 1581.9 990.405 1583.27 991.054 1584.63 991.972 1585.61 993.161 1586.19 994.35 1586.77 995.917 1587.06 997.862 1587.06 1000.81 1587.06 1003.13 1586.21 1004.83 1584.53 1006.54 1582.84 1007.39 1580.48 1007.39 1577.45 1007.39 1575.89 1007.12 1574.5 1006.58 1573.3 1006.04 1572.1 1005.2 1570.93 1004.08 1569.79 1002.96 1568.66 1001.02 1567.08 998.268 1565.05 995.701 1563.16 993.762 1561.07 992.452 1558.77 991.142 1556.47 990.486 1554.07 990.486 1551.56 990.486 1549.42 990.946 1547.33 991.864 1545.27 992.783 1543.22 994.141 1541.43 995.937 1539.9 997.734 1538.38 999.997 1537.21 1002.73 1536.4 1005.45 1535.59 1008.64 1535.18 1012.29 1535.18Z" fill="#C00000" fill-rule="evenodd"/><text fill="#000000" fill-opacity="0" font-family="Arial,Arial_MSFontService,sans-serif" font-size="56.6167" x="981.489" y="1584.72">𝑺</text><path d="M1045.97 1566.86C1048.89 1566.86 1051.27 1567.25 1053.12 1568.04 1054.97 1568.82 1056.3 1569.89 1057.12 1571.23 1057.95 1572.57 1058.36 1574.13 1058.36 1575.92 1058.36 1577.49 1058.07 1578.95 1057.48 1580.3 1056.9 1581.65 1055.88 1583.18 1054.44 1584.91 1053 1586.64 1050.58 1589.11 1047.16 1592.33 1046.11 1593.32 1044.85 1594.63 1043.39 1596.25 1041.93 1597.86 1040.78 1599.25 1039.92 1600.4L1039.92 1600.7 1050.5 1600.7C1051.79 1600.7 1052.75 1600.6 1053.39 1600.42 1054.02 1600.23 1054.52 1599.9 1054.89 1599.43 1055.26 1598.97 1055.56 1598.27 1055.8 1597.33L1059.22 1597.33 1058.54 1608 1031.26 1608 1031.26 1606.03C1032.79 1602.52 1035.91 1597.99 1040.64 1592.45 1042.78 1589.93 1044.42 1587.85 1045.54 1586.22 1046.66 1584.59 1047.5 1583.06 1048.05 1581.61 1048.61 1580.16 1048.89 1578.66 1048.89 1577.11 1048.89 1574.92 1048.4 1573.21 1047.43 1571.97 1046.46 1570.73 1045.13 1570.11 1043.44 1570.11 1040.2 1570.11 1038.13 1572.44 1037.21 1577.11L1031.85 1577.11 1031.85 1570.08C1035.09 1568.77 1037.7 1567.9 1039.69 1567.49 1041.67 1567.07 1043.77 1566.86 1045.97 1566.86Z" fill="#C00000" fill-rule="evenodd"/><text fill="#000000" fill-opacity="0" font-family="Arial,Arial_MSFontService,sans-serif" font-size="41.1333" x="1031.26" y="1602.85">𝟐</text><path d="M573.5 1963C573.5 1924.62 604.616 1893.5 643 1893.5 681.384 1893.5 712.5 1924.62 712.5 1963 712.5 2001.38 681.384 2032.5 643 2032.5 604.616 2032.5 573.5 2001.38 573.5 1963Z" stroke="#2F528F" stroke-width="4.58333" stroke-miterlimit="8" fill="none" fill-rule="evenodd"/><path d="M591.36 1935.11 636.021 1935.11 632.819 1949.79 627.632 1949.79C627.604 1946.79 627.429 1944.69 627.105 1943.48 626.78 1942.28 626.26 1941.38 625.544 1940.77 624.828 1940.16 623.822 1939.86 622.525 1939.86L618.918 1939.86 610.205 1979.49C610.016 1980.38 609.881 1981.14 609.799 1981.76 609.718 1982.38 609.678 1983.21 609.678 1984.23 609.678 1985.48 609.995 1986.35 610.63 1986.87 611.265 1987.38 612.258 1987.68 613.609 1987.76L613.042 1990.43 591.522 1990.43 592.089 1987.76C593.278 1987.6 594.224 1987.25 594.926 1986.71 595.628 1986.17 596.216 1985.36 596.689 1984.29 597.162 1983.23 597.641 1981.63 598.128 1979.49L606.841 1939.86 603.599 1939.86C602.113 1939.86 600.911 1940.08 599.992 1940.52 599.073 1940.97 598.047 1941.9 596.912 1943.32 595.777 1944.74 594.683 1946.61 593.629 1948.93L588.32 1948.93Z" fill="#C00000" fill-rule="evenodd"/><text fill="#000000" fill-opacity="0" font-family="Arial,Arial_MSFontService,sans-serif" font-size="55.3198" x="588.32" y="1983.52">𝑻</text><path d="M657.478 1966.14 661.291 1966.14C661.172 1968.05 661.112 1970.69 661.112 1974.07L661.112 1998.97C661.112 2000.12 661.177 2000.99 661.306 2001.57 661.435 2002.16 661.663 2002.64 661.991 2003 662.318 2003.37 662.79 2003.66 663.405 2003.87 664.021 2004.08 664.795 2004.23 665.729 2004.34 666.662 2004.45 667.893 2004.53 669.422 2004.57L669.422 2007.28 643.717 2007.28 643.717 2004.57C645.922 2004.47 647.495 2004.33 648.438 2004.17 649.382 2004 650.101 2003.74 650.598 2003.41 651.094 2003.07 651.457 2002.59 651.685 2001.98 651.913 2001.36 652.028 2000.36 652.028 1998.97L652.028 1977.43C652.028 1976.62 651.874 1976.03 651.566 1975.68 651.258 1975.32 650.836 1975.14 650.3 1975.14 649.804 1975.14 649.104 1975.37 648.2 1975.82 647.297 1976.28 645.812 1977.21 643.747 1978.62L641.93 1975.47Z" fill="#C00000" fill-rule="evenodd"/><text fill="#000000" fill-opacity="0" font-family="Arial,Arial_MSFontService,sans-serif" font-size="41.1333" x="641.93" y="2002.14">𝟏</text><path d="M1359.5 1963C1359.5 1924.62 1390.62 1893.5 1429 1893.5 1467.38 1893.5 1498.5 1924.62 1498.5 1963 1498.5 2001.38 1467.38 2032.5 1429 2032.5 1390.62 2032.5 1359.5 2001.38 1359.5 1963Z" stroke="#2F528F" stroke-width="4.58333" stroke-miterlimit="8" fill="none" fill-rule="evenodd"/><path d="M1377.57 1935.11 1422.23 1935.11 1419.03 1949.79 1413.84 1949.79C1413.82 1946.79 1413.64 1944.69 1413.32 1943.48 1412.99 1942.28 1412.47 1941.38 1411.76 1940.77 1411.04 1940.16 1410.04 1939.86 1408.74 1939.86L1405.13 1939.86 1396.42 1979.49C1396.23 1980.38 1396.09 1981.14 1396.01 1981.76 1395.93 1982.38 1395.89 1983.21 1395.89 1984.23 1395.89 1985.48 1396.21 1986.35 1396.84 1986.87 1397.48 1987.38 1398.47 1987.68 1399.82 1987.76L1399.26 1990.43 1377.74 1990.43 1378.3 1987.76C1379.49 1987.6 1380.44 1987.25 1381.14 1986.71 1381.84 1986.17 1382.43 1985.36 1382.9 1984.29 1383.38 1983.23 1383.85 1981.63 1384.34 1979.49L1393.05 1939.86 1389.81 1939.86C1388.33 1939.86 1387.12 1940.08 1386.21 1940.52 1385.29 1940.97 1384.26 1941.9 1383.13 1943.32 1381.99 1944.74 1380.9 1946.61 1379.84 1948.93L1374.53 1948.93Z" fill="#C00000" fill-rule="evenodd"/><text fill="#000000" fill-opacity="0" font-family="Arial,Arial_MSFontService,sans-serif" font-size="55.3198" x="1374.53" y="1983.52">𝑻</text><path d="M1441.46 1966.14C1445.21 1966.14 1448.21 1966.91 1450.45 1968.44 1452.7 1969.97 1453.82 1972.1 1453.82 1974.84 1453.82 1977.15 1453.16 1979.13 1451.84 1980.8 1450.52 1982.47 1448.31 1984.02 1445.21 1985.45L1445.21 1985.71C1448.11 1986.25 1450.4 1987.41 1452.08 1989.2 1453.75 1990.99 1454.59 1993.2 1454.59 1995.84 1454.59 1998.14 1454.03 2000.19 1452.91 2001.99 1451.79 2003.79 1450.09 2005.2 1447.8 2006.22 1445.52 2007.24 1442.75 2007.75 1439.49 2007.75 1437.25 2007.75 1435.04 2007.55 1432.88 2007.14 1430.72 2006.74 1428.83 2006.17 1427.22 2005.43L1427.22 1997.95 1432.58 1997.95C1433.16 2000.22 1433.97 2001.86 1435.02 2002.88 1436.08 2003.91 1437.46 2004.42 1439.16 2004.42 1443.37 2004.42 1445.48 2001.82 1445.48 1996.61 1445.48 1993.81 1444.74 1991.73 1443.26 1990.36 1441.78 1988.99 1439.53 1988.3 1436.51 1988.3L1434.16 1988.3 1434.16 1984.91C1437.62 1984.77 1440.24 1983.96 1442.02 1982.48 1443.81 1981 1444.7 1978.86 1444.7 1976.06 1444.7 1973.86 1444.26 1972.2 1443.36 1971.07 1442.47 1969.95 1441.17 1969.39 1439.46 1969.39 1437.79 1969.39 1436.42 1969.99 1435.35 1971.18 1434.28 1972.37 1433.54 1974.12 1433.15 1976.42L1427.79 1976.42 1427.79 1969.36C1432.81 1967.22 1437.37 1966.14 1441.46 1966.14Z" fill="#C00000" fill-rule="evenodd"/><text fill="#000000" fill-opacity="0" font-family="Arial,Arial_MSFontService,sans-serif" font-size="41.6099" x="1427.22" y="2002.55">𝟑</text><path d="M1752.5 1963C1752.5 1924.62 1783.62 1893.5 1822 1893.5 1860.38 1893.5 1891.5 1924.62 1891.5 1963 1891.5 2001.38 1860.38 2032.5 1822 2032.5 1783.62 2032.5 1752.5 2001.38 1752.5 1963Z" stroke="#2F528F" stroke-width="4.58333" stroke-miterlimit="8" fill="none" fill-rule="evenodd"/><path d="M1770.68 1935.11 1815.34 1935.11 1812.14 1949.79 1806.95 1949.79C1806.92 1946.79 1806.75 1944.69 1806.42 1943.48 1806.1 1942.28 1805.58 1941.38 1804.86 1940.77 1804.15 1940.16 1803.14 1939.86 1801.85 1939.86L1798.24 1939.86 1789.52 1979.49C1789.34 1980.38 1789.2 1981.14 1789.12 1981.76 1789.04 1982.38 1789 1983.21 1789 1984.23 1789 1985.48 1789.32 1986.35 1789.95 1986.87 1790.59 1987.38 1791.58 1987.68 1792.93 1987.76L1792.36 1990.43 1770.84 1990.43 1771.41 1987.76C1772.6 1987.6 1773.54 1987.25 1774.25 1986.71 1774.95 1986.17 1775.54 1985.36 1776.01 1984.29 1776.48 1983.23 1776.96 1981.63 1777.45 1979.49L1786.16 1939.86 1782.92 1939.86C1781.43 1939.86 1780.23 1940.08 1779.31 1940.52 1778.39 1940.97 1777.37 1941.9 1776.23 1943.32 1775.1 1944.74 1774 1946.61 1772.95 1948.93L1767.64 1948.93Z" fill="#C00000" fill-rule="evenodd"/><text fill="#000000" fill-opacity="0" font-family="Arial,Arial_MSFontService,sans-serif" font-size="55.3198" x="1767.64" y="1983.52">𝑻</text><path d="M1834.06 1975.88 1823.87 1991.22 1823.87 1991.73 1834.06 1991.73 1834.06 1984.91C1834.06 1982.05 1834.16 1979.04 1834.36 1975.88ZM1836.17 1966.41 1842.87 1966.41 1842.87 1991.73 1843.8 1991.73C1844.77 1991.73 1845.46 1991.67 1845.85 1991.54 1846.25 1991.41 1846.59 1991.16 1846.88 1990.81 1847.17 1990.45 1847.44 1989.81 1847.7 1988.9L1850.83 1988.9 1850.47 1995.48 1842.87 1995.48 1842.87 1999.92C1842.87 2001.41 1842.96 2002.46 1843.14 2003.06 1843.32 2003.67 1843.59 2004.12 1843.96 2004.42 1844.33 2004.72 1845.04 2005.01 1846.09 2005.31L1846.09 2007.28 1830.87 2007.28 1830.87 2005.31C1831.92 2005.03 1832.64 2004.72 1833.03 2004.37 1833.42 2004.03 1833.69 2003.56 1833.83 2002.99 1833.98 2002.41 1834.06 2001.39 1834.06 1999.92L1834.06 1995.48 1818.09 1995.48 1818.09 1992.27Z" fill="#C00000" fill-rule="evenodd"/><text fill="#000000" fill-opacity="0" font-family="Arial,Arial_MSFontService,sans-serif" font-size="40.8652" x="1818.09" y="2002.17">𝟒</text><path d="M966.5 1963C966.5 1924.62 997.616 1893.5 1036 1893.5 1074.38 1893.5 1105.5 1924.62 1105.5 1963 1105.5 2001.38 1074.38 2032.5 1036 2032.5 997.616 2032.5 966.5 2001.38 966.5 1963Z" stroke="#2F528F" stroke-width="4.58333" stroke-miterlimit="8" fill="none" fill-rule="evenodd"/><path d="M984.466 1935.11 1029.13 1935.11 1025.93 1949.79 1020.74 1949.79C1020.71 1946.79 1020.54 1944.69 1020.21 1943.48 1019.89 1942.28 1019.37 1941.38 1018.65 1940.77 1017.94 1940.16 1016.93 1939.86 1015.63 1939.86L1012.02 1939.86 1003.31 1979.49C1003.12 1980.38 1002.99 1981.14 1002.91 1981.76 1002.83 1982.38 1002.78 1983.21 1002.78 1984.23 1002.78 1985.48 1003.1 1986.35 1003.74 1986.87 1004.37 1987.38 1005.36 1987.68 1006.72 1987.76L1006.15 1990.43 984.628 1990.43 985.196 1987.76C986.385 1987.6 987.33 1987.25 988.033 1986.71 988.735 1986.17 989.323 1985.36 989.796 1984.29 990.268 1983.23 990.748 1981.63 991.234 1979.49L999.948 1939.86 996.706 1939.86C995.219 1939.86 994.017 1940.08 993.099 1940.52 992.18 1940.97 991.153 1941.9 990.018 1943.32 988.884 1944.74 987.789 1946.61 986.736 1948.93L981.427 1948.93Z" fill="#C00000" fill-rule="evenodd"/><text fill="#000000" fill-opacity="0" font-family="Arial,Arial_MSFontService,sans-serif" font-size="55.3198" x="981.427" y="1983.52">𝑻</text><path d="M1048.26 1966.14C1051.18 1966.14 1053.56 1966.54 1055.41 1967.32 1057.26 1968.11 1058.59 1969.17 1059.42 1970.51 1060.24 1971.85 1060.65 1973.41 1060.65 1975.2 1060.65 1976.77 1060.36 1978.23 1059.77 1979.58 1059.19 1980.93 1058.18 1982.47 1056.74 1984.19 1055.3 1985.92 1052.87 1988.39 1049.45 1991.61 1048.4 1992.6 1047.14 1993.91 1045.69 1995.53 1044.23 1997.15 1043.07 1998.53 1042.22 1999.68L1042.22 1999.98 1052.79 1999.98C1054.08 1999.98 1055.04 1999.89 1055.68 1999.7 1056.31 1999.51 1056.82 1999.18 1057.18 1998.71 1057.55 1998.25 1057.85 1997.55 1058.09 1996.61L1061.52 1996.61 1060.83 2007.28 1033.55 2007.28 1033.55 2005.31C1035.08 2001.8 1038.2 1997.27 1042.93 1991.73 1045.07 1989.21 1046.71 1987.13 1047.83 1985.5 1048.95 1983.88 1049.79 1982.34 1050.35 1980.89 1050.9 1979.44 1051.18 1977.94 1051.18 1976.39 1051.18 1974.21 1050.69 1972.49 1049.72 1971.25 1048.75 1970.01 1047.42 1969.39 1045.73 1969.39 1042.49 1969.39 1040.42 1971.72 1039.5 1976.39L1034.14 1976.39 1034.14 1969.36C1037.38 1968.05 1039.99 1967.19 1041.98 1966.77 1043.96 1966.35 1046.06 1966.14 1048.26 1966.14Z" fill="#C00000" fill-rule="evenodd"/><text fill="#000000" fill-opacity="0" font-family="Arial,Arial_MSFontService,sans-serif" font-size="41.1333" x="1033.55" y="2002.14">𝟐</text><path d="M642.5 1633.5 642.5 1893.71" stroke="#4472C4" stroke-width="9.16667" stroke-miterlimit="8" fill="none" fill-rule="evenodd"/><path d="M0 0 294.769 300.944" stroke="#4472C4" stroke-width="9.16667" stroke-miterlimit="8" fill="none" fill-rule="evenodd" transform="matrix(-1 0 0 1 987.269 1613.5)"/><path d="M1036.5 1633.5 1036.5 1893.71" stroke="#4472C4" stroke-width="9.16667" stroke-miterlimit="8" fill="none" fill-rule="evenodd"/><path d="M1429.5 1633.5 1429.5 1893.71" stroke="#4472C4" stroke-width="9.16667" stroke-miterlimit="8" fill="none" fill-rule="evenodd"/><path d="M692.5 1613.5 987.269 1914.44" stroke="#4472C4" stroke-width="9.16667" stroke-miterlimit="8" fill="none" fill-rule="evenodd"/><path d="M0 0 294.769 300.944" stroke="#4472C4" stroke-width="9.16667" stroke-miterlimit="8" fill="none" fill-rule="evenodd" transform="matrix(-1 0 0 1 1773.27 1613.5)"/><path d="M1085.5 1613.5 1380.27 1914.44" stroke="#4472C4" stroke-width="9.16667" stroke-miterlimit="8" fill="none" fill-rule="evenodd"/><path d="M0 0 294.769 300.944" stroke="#4472C4" stroke-width="9.16667" stroke-miterlimit="8" fill="none" fill-rule="evenodd" transform="matrix(-1 0 0 1 1380.27 1613.5)"/><path d="M1478.5 1613.5 1773.27 1914.44" stroke="#4472C4" stroke-width="9.16667" stroke-miterlimit="8" fill="none" fill-rule="evenodd"/><path d="M0 0 687.875 300.944" stroke="#4472C4" stroke-width="9.16667" stroke-miterlimit="8" fill="none" fill-rule="evenodd" transform="matrix(-1 0 0 1 1773.38 1613.5)"/></g></svg>