<svg width="3408" height="976" xmlns="http://www.w3.org/2000/svg" xmlns:xlink="http://www.w3.org/1999/xlink" xml:space="preserve" overflow="hidden"><g transform="translate(-248 -930)"><path d="M1430.5 1553C1430.5 1509.09 1466.09 1473.5 1510 1473.5 1553.91 1473.5 1589.5 1509.09 1589.5 1553 1589.5 1596.91 1553.91 1632.5 1510 1632.5 1466.09 1632.5 1430.5 1596.91 1430.5 1553Z" stroke="#2F528F" stroke-width="4.58333" stroke-miterlimit="8" fill="#4472C4" fill-rule="evenodd"/><path d="M1483.63 1540.86C1486.15 1540.86 1488.44 1541.01 1490.5 1541.31 1492.57 1541.6 1494.63 1542.12 1496.68 1542.85L1494.86 1551.36 1491.58 1551.36C1491.28 1548.95 1490.49 1547.13 1489.21 1545.89 1487.92 1544.64 1485.9 1544.02 1483.15 1544.02 1481.01 1544.02 1479.28 1544.57 1477.96 1545.66 1476.64 1546.76 1475.97 1548.2 1475.97 1549.98 1475.97 1550.95 1476.14 1551.81 1476.48 1552.55 1476.82 1553.3 1477.5 1554.11 1478.53 1555.01 1479.55 1555.9 1481.15 1556.99 1483.31 1558.29 1485.01 1559.31 1486.38 1560.25 1487.4 1561.1 1488.43 1561.96 1489.24 1562.8 1489.83 1563.64 1490.43 1564.48 1490.86 1565.36 1491.13 1566.29 1491.4 1567.22 1491.54 1568.35 1491.54 1569.68 1491.54 1572.08 1490.9 1574.14 1489.61 1575.86 1488.33 1577.57 1486.59 1578.85 1484.38 1579.69 1482.18 1580.52 1479.68 1580.94 1476.87 1580.94 1474.62 1580.94 1472.42 1580.77 1470.26 1580.44 1468.1 1580.1 1465.69 1579.52 1463.05 1578.71L1464.99 1569.88 1468.15 1569.88C1468.26 1572.47 1468.99 1574.43 1470.34 1575.76 1471.69 1577.08 1473.84 1577.74 1476.79 1577.74 1479.35 1577.74 1481.36 1577.17 1482.8 1576.02 1484.25 1574.87 1484.97 1573.24 1484.97 1571.14 1484.97 1569.92 1484.77 1568.87 1484.36 1567.99 1483.96 1567.12 1483.3 1566.27 1482.38 1565.46 1481.46 1564.65 1480 1563.64 1478 1562.42 1475.89 1561.15 1474.25 1560 1473.08 1558.98 1471.9 1557.95 1471.02 1556.84 1470.42 1555.63 1469.83 1554.43 1469.53 1553.05 1469.53 1551.48 1469.53 1549.35 1470.1 1547.47 1471.25 1545.87 1472.4 1544.26 1474.04 1543.02 1476.18 1542.16 1478.31 1541.29 1480.8 1540.86 1483.63 1540.86Z" fill="#FFFFFF" fill-rule="evenodd"/><text fill="#000000" fill-opacity="0" font-family="Arial,Arial_MSFontService,sans-serif" font-size="40.0815" x="1463.05" y="1575.93">𝑠</text><path d="M1515.11 1558.53C1516.7 1558.53 1518.18 1558.69 1519.56 1559.03 1520.94 1559.37 1522.14 1559.88 1523.15 1560.57 1524.17 1561.25 1524.95 1562.11 1525.52 1563.13 1526.09 1564.15 1526.37 1565.34 1526.37 1566.69 1526.37 1567.96 1526.19 1569.08 1525.83 1570.05 1525.48 1571.03 1524.93 1571.91 1524.18 1572.7 1523.44 1573.5 1522.52 1574.22 1521.44 1574.86 1520.36 1575.51 1519.11 1576.13 1517.7 1576.72L1517.7 1577.08C1519.03 1577.32 1520.27 1577.7 1521.43 1578.23 1522.58 1578.76 1523.58 1579.42 1524.45 1580.22 1525.31 1581.03 1525.99 1581.96 1526.49 1583.01 1526.99 1584.06 1527.23 1585.22 1527.23 1586.49 1527.23 1588.08 1526.94 1589.56 1526.34 1590.92 1525.74 1592.28 1524.85 1593.45 1523.66 1594.45 1522.47 1595.44 1521 1596.21 1519.25 1596.77 1517.5 1597.33 1515.46 1597.6 1513.12 1597.6 1511.27 1597.6 1509.39 1597.42 1507.49 1597.05 1505.58 1596.69 1503.77 1596.2 1502.06 1595.61L1502.06 1589.17 1505.91 1589.17C1506.22 1590.17 1506.6 1591.02 1507.04 1591.72 1507.48 1592.43 1507.99 1593 1508.57 1593.45 1509.16 1593.9 1509.83 1594.22 1510.6 1594.42 1511.36 1594.62 1512.23 1594.71 1513.2 1594.71 1515.77 1594.71 1517.71 1594.1 1519.03 1592.88 1520.35 1591.66 1521.01 1589.81 1521.01 1587.33 1521.01 1584.69 1520.14 1582.69 1518.4 1581.33 1516.66 1579.97 1514.09 1579.29 1510.67 1579.29L1508.05 1579.29 1508.05 1576.43C1510.14 1576.33 1511.94 1576.03 1513.46 1575.55 1514.98 1575.06 1516.24 1574.43 1517.26 1573.66 1518.27 1572.88 1519.02 1571.98 1519.52 1570.95 1520.02 1569.91 1520.26 1568.81 1520.26 1567.64 1520.26 1565.73 1519.7 1564.23 1518.57 1563.13 1517.43 1562.03 1515.8 1561.47 1513.65 1561.47 1511.84 1561.47 1510.33 1561.97 1509.11 1562.96 1507.89 1563.96 1506.95 1565.44 1506.29 1567.4L1502.51 1567.4 1502.51 1561.53C1504.85 1560.54 1507.06 1559.79 1509.14 1559.29 1511.21 1558.78 1513.2 1558.53 1515.11 1558.53Z" fill="#FFFFFF" fill-rule="evenodd"/><text fill="#000000" fill-opacity="0" font-family="Arial,Arial_MSFontService,sans-serif" font-size="39.0781" x="1502.06" y="1592.72">3</text><path d="M1430.5 1824C1430.5 1780.09 1466.09 1744.5 1510 1744.5 1553.91 1744.5 1589.5 1780.09 1589.5 1824 1589.5 1867.91 1553.91 1903.5 1510 1903.5 1466.09 1903.5 1430.5 1867.91 1430.5 1824Z" stroke="#2F528F" stroke-width="4.58333" stroke-miterlimit="8" fill="#4472C4" fill-rule="evenodd"/><path d="M1484.44 1811.32C1486.95 1811.32 1489.24 1811.47 1491.31 1811.77 1493.37 1812.07 1495.43 1812.58 1497.49 1813.31L1495.66 1821.82 1492.38 1821.82C1492.08 1819.41 1491.29 1817.59 1490.01 1816.35 1488.73 1815.11 1486.71 1814.48 1483.95 1814.48 1481.82 1814.48 1480.09 1815.03 1478.76 1816.12 1477.44 1817.22 1476.78 1818.66 1476.78 1820.44 1476.78 1821.41 1476.95 1822.27 1477.28 1823.01 1477.62 1823.76 1478.3 1824.57 1479.33 1825.47 1480.36 1826.36 1481.95 1827.45 1484.11 1828.75 1485.81 1829.78 1487.18 1830.71 1488.21 1831.57 1489.23 1832.42 1490.04 1833.26 1490.64 1834.1 1491.23 1834.94 1491.66 1835.82 1491.93 1836.75 1492.2 1837.69 1492.34 1838.81 1492.34 1840.14 1492.34 1842.54 1491.7 1844.6 1490.41 1846.32 1489.13 1848.03 1487.39 1849.31 1485.19 1850.15 1482.98 1850.99 1480.48 1851.4 1477.67 1851.4 1475.43 1851.4 1473.22 1851.24 1471.06 1850.9 1468.9 1850.56 1466.5 1849.99 1463.85 1849.18L1465.79 1840.34 1468.95 1840.34C1469.06 1842.93 1469.79 1844.89 1471.14 1846.22 1472.49 1847.54 1474.64 1848.2 1477.59 1848.2 1480.15 1848.2 1482.16 1847.63 1483.61 1846.48 1485.05 1845.33 1485.77 1843.7 1485.77 1841.6 1485.77 1840.38 1485.57 1839.33 1485.17 1838.46 1484.76 1837.58 1484.1 1836.73 1483.18 1835.92 1482.26 1835.11 1480.8 1834.1 1478.8 1832.88 1476.7 1831.61 1475.05 1830.46 1473.88 1829.44 1472.7 1828.41 1471.82 1827.3 1471.22 1826.09 1470.63 1824.89 1470.33 1823.51 1470.33 1821.94 1470.33 1819.81 1470.91 1817.94 1472.06 1816.33 1473.2 1814.72 1474.84 1813.48 1476.98 1812.62 1479.11 1811.75 1481.6 1811.32 1484.44 1811.32Z" fill="#FFFFFF" fill-rule="evenodd"/><text fill="#000000" fill-opacity="0" font-family="Arial,Arial_MSFontService,sans-serif" font-size="40.0815" x="1463.85" y="1846.39">𝑠</text><path d="M1515.77 1836.37C1513.86 1839.13 1511.96 1841.87 1510.06 1844.59 1508.17 1847.31 1506.26 1850.05 1504.33 1852.79L1504.33 1853.14 1515.77 1853.14 1515.77 1847.16C1515.77 1846.48 1515.78 1845.65 1515.8 1844.65 1515.82 1843.66 1515.84 1842.65 1515.87 1841.63 1515.9 1840.61 1515.94 1839.64 1515.98 1838.71 1516.02 1837.79 1516.06 1837.01 1516.1 1836.37ZM1516.63 1829.4 1521.37 1829.4 1521.37 1853.14 1521.9 1853.14C1522.72 1853.14 1523.38 1853.1 1523.88 1853.02 1524.39 1852.94 1524.8 1852.78 1525.11 1852.53 1525.41 1852.28 1525.67 1851.94 1525.88 1851.49 1526.09 1851.04 1526.31 1850.46 1526.55 1849.75L1529.08 1849.75C1529.02 1850.84 1528.96 1851.92 1528.89 1852.99 1528.82 1854.07 1528.75 1855.16 1528.69 1856.27L1521.37 1856.27 1521.37 1860.17C1521.37 1861.32 1521.39 1862.22 1521.44 1862.85 1521.49 1863.49 1521.64 1863.98 1521.89 1864.34 1522.14 1864.7 1522.5 1864.97 1522.99 1865.15 1523.48 1865.32 1524.16 1865.53 1525.03 1865.77L1525.03 1867.56 1512.16 1867.56 1512.16 1865.77C1512.76 1865.61 1513.27 1865.47 1513.68 1865.34 1514.1 1865.21 1514.45 1865.06 1514.73 1864.89 1515 1864.72 1515.21 1864.53 1515.34 1864.3 1515.47 1864.07 1515.56 1863.78 1515.63 1863.43 1515.7 1863.09 1515.74 1862.65 1515.75 1862.12 1515.76 1861.6 1515.77 1860.95 1515.77 1860.17L1515.77 1856.27 1499 1856.27 1499 1853.92C1501.96 1849.81 1504.9 1845.72 1507.82 1841.66 1510.73 1837.6 1513.67 1833.51 1516.63 1829.4Z" fill="#FFFFFF" fill-rule="evenodd"/><text fill="#000000" fill-opacity="0" font-family="Arial,Arial_MSFontService,sans-serif" font-size="38.1548" x="1499" y="1862.79">4</text><path d="M1817.5 1688C1817.5 1644.09 1853.09 1608.5 1897 1608.5 1940.91 1608.5 1976.5 1644.09 1976.5 1688 1976.5 1731.91 1940.91 1767.5 1897 1767.5 1853.09 1767.5 1817.5 1731.91 1817.5 1688Z" stroke="#2F528F" stroke-width="4.58333" stroke-miterlimit="8" fill="#4472C4" fill-rule="evenodd"/><path d="M2205.5 1594C2205.5 1550.09 2241.09 1514.5 2285 1514.5 2328.91 1514.5 2364.5 1550.09 2364.5 1594 2364.5 1637.91 2328.91 1673.5 2285 1673.5 2241.09 1673.5 2205.5 1637.91 2205.5 1594Z" stroke="#2F528F" stroke-width="4.58333" stroke-miterlimit="8" fill="#4472C4" fill-rule="evenodd"/><path d="M2253.93 1572.14 2259.53 1572.14 2257.3 1582.15 2269.62 1582.15 2268.73 1586.24 2256.41 1586.24 2252.8 1601.97C2252.1 1605.02 2251.65 1607.22 2251.46 1608.55 2251.27 1609.89 2251.18 1610.97 2251.18 1611.78 2251.18 1615.13 2252.57 1616.8 2255.35 1616.8 2256.54 1616.8 2257.8 1616.35 2259.14 1615.44 2260.48 1614.54 2262.07 1612.99 2263.9 1610.8L2266.25 1613.24C2263.9 1616.07 2261.64 1618.17 2259.47 1619.52 2257.29 1620.87 2255.02 1621.54 2252.64 1621.54 2246.99 1621.54 2244.17 1618.69 2244.17 1612.99 2244.17 1611.18 2244.4 1609.28 2244.86 1607.28L2249.64 1586.24 2242.83 1586.24 2243.44 1583.45C2245.03 1583.42 2246.24 1583.3 2247.07 1583.08 2247.89 1582.87 2248.58 1582.57 2249.13 1582.19 2249.69 1581.81 2250.19 1581.27 2250.65 1580.57 2251.11 1579.87 2251.56 1578.97 2251.99 1577.88 2252.42 1576.78 2253.07 1574.87 2253.93 1572.14Z" fill="#FFFFFF" fill-rule="evenodd"/><text fill="#000000" fill-opacity="0" font-family="Arial,Arial_MSFontService,sans-serif" font-size="49.4028" x="2242.83" y="1615.37">𝑡</text><path d="M2287.31 1599.17C2289.38 1599.17 2291.14 1599.4 2292.6 1599.87 2294.06 1600.33 2295.24 1600.96 2296.16 1601.76 2297.07 1602.55 2297.73 1603.51 2298.14 1604.62 2298.55 1605.73 2298.75 1606.93 2298.75 1608.22 2298.75 1609 2298.69 1609.72 2298.59 1610.38 2298.48 1611.05 2298.29 1611.7 2298.02 1612.35 2297.75 1612.99 2297.4 1613.64 2296.96 1614.3 2296.53 1614.95 2295.98 1615.65 2295.32 1616.38 2294.83 1617.02 2294.18 1617.75 2293.39 1618.59 2292.59 1619.42 2291.72 1620.31 2290.78 1621.27 2289.84 1622.22 2288.85 1623.21 2287.82 1624.25 2286.79 1625.28 2285.78 1626.3 2284.81 1627.31 2283.84 1628.33 2282.94 1629.31 2282.13 1630.26 2281.31 1631.22 2280.65 1632.09 2280.13 1632.88L2291.15 1632.88C2292.09 1632.88 2292.83 1632.85 2293.39 1632.78 2293.94 1632.71 2294.41 1632.56 2294.77 1632.32 2295.14 1632.08 2295.45 1631.72 2295.71 1631.23 2295.97 1630.74 2296.27 1630.07 2296.6 1629.22L2299.37 1629.22C2299.28 1630.63 2299.18 1632.05 2299.09 1633.48 2299 1634.91 2298.91 1636.33 2298.81 1637.74L2273.58 1637.74 2273.58 1636.19C2274.06 1635.12 2274.61 1634.06 2275.25 1633.02 2275.88 1631.98 2276.6 1630.92 2277.39 1629.85 2278.19 1628.77 2279.09 1627.67 2280.1 1626.52 2281.12 1625.38 2282.24 1624.2 2283.47 1622.97 2285.34 1621.1 2286.85 1619.51 2288.03 1618.18 2289.2 1616.86 2290.12 1615.69 2290.8 1614.66 2291.47 1613.62 2291.93 1612.67 2292.18 1611.8 2292.43 1610.92 2292.55 1609.99 2292.55 1609 2292.55 1607.98 2292.41 1607.05 2292.12 1606.2 2291.83 1605.34 2291.42 1604.62 2290.89 1604.02 2290.35 1603.43 2289.67 1602.96 2288.85 1602.62 2288.02 1602.28 2287.07 1602.12 2286 1602.12 2284.15 1602.12 2282.61 1602.62 2281.35 1603.62 2280.1 1604.62 2279.13 1606.08 2278.44 1607.98L2274.53 1607.98 2274.53 1602.18C2277.08 1601.12 2279.41 1600.36 2281.55 1599.88 2283.68 1599.41 2285.6 1599.17 2287.31 1599.17Z" fill="#FFFFFF" fill-rule="evenodd"/><text fill="#000000" fill-opacity="0" font-family="Arial,Arial_MSFontService,sans-serif" font-size="38.5718" x="2273.58" y="1632.92">2</text><path d="M1428.5 1012C1428.5 968.093 1464.32 932.5 1508.5 932.5 1552.68 932.5 1588.5 968.093 1588.5 1012 1588.5 1055.91 1552.68 1091.5 1508.5 1091.5 1464.32 1091.5 1428.5 1055.91 1428.5 1012Z" stroke="#2F528F" stroke-width="4.58333" stroke-miterlimit="8" fill="#4472C4" fill-rule="evenodd"/><path d="M1483.03 999.94C1485.54 999.94 1487.83 1000.09 1489.9 1000.39 1491.97 1000.68 1494.03 1001.2 1496.08 1001.93L1494.26 1010.44 1490.97 1010.44C1490.68 1008.03 1489.89 1006.21 1488.6 1004.97 1487.32 1003.72 1485.3 1003.1 1482.54 1003.1 1480.41 1003.1 1478.68 1003.65 1477.36 1004.74 1476.03 1005.84 1475.37 1007.28 1475.37 1009.06 1475.37 1010.03 1475.54 1010.89 1475.88 1011.63 1476.21 1012.38 1476.9 1013.19 1477.92 1014.08 1478.95 1014.98 1480.54 1016.07 1482.71 1017.37 1484.41 1018.39 1485.77 1019.33 1486.8 1020.18 1487.83 1021.03 1488.64 1021.88 1489.23 1022.72 1489.82 1023.55 1490.26 1024.44 1490.53 1025.37 1490.8 1026.3 1490.93 1027.43 1490.93 1028.76 1490.93 1031.16 1490.29 1033.22 1489.01 1034.94 1487.72 1036.65 1485.98 1037.93 1483.78 1038.77 1481.58 1039.6 1479.07 1040.02 1476.26 1040.02 1474.02 1040.02 1471.82 1039.85 1469.66 1039.52 1467.49 1039.18 1465.09 1038.6 1462.44 1037.79L1464.39 1028.96 1467.55 1028.96C1467.66 1031.55 1468.39 1033.51 1469.74 1034.83 1471.09 1036.16 1473.24 1036.82 1476.18 1036.82 1478.75 1036.82 1480.75 1036.25 1482.2 1035.1 1483.64 1033.95 1484.37 1032.32 1484.37 1030.21 1484.37 1029 1484.16 1027.95 1483.76 1027.07 1483.35 1026.2 1482.69 1025.35 1481.77 1024.54 1480.85 1023.73 1479.4 1022.72 1477.4 1021.5 1475.29 1020.23 1473.65 1019.08 1472.47 1018.06 1471.3 1017.03 1470.41 1015.91 1469.82 1014.71 1469.22 1013.51 1468.93 1012.13 1468.93 1010.56 1468.93 1008.42 1469.5 1006.55 1470.65 1004.95 1471.8 1003.34 1473.44 1002.1 1475.57 1001.24 1477.71 1000.37 1480.19 999.94 1483.03 999.94Z" fill="#FFFFFF" fill-rule="evenodd"/><text fill="#000000" fill-opacity="0" font-family="Arial,Arial_MSFontService,sans-serif" font-size="40.0815" x="1462.44" y="1035.01">𝑠</text><path d="M1514.99 1017.81 1516.8 1017.81C1516.76 1018.91 1516.73 1019.88 1516.71 1020.75 1516.69 1021.61 1516.68 1022.45 1516.67 1023.26 1516.66 1024.08 1516.65 1024.88 1516.65 1025.68L1516.65 1048.31C1516.65 1048.93 1516.67 1049.46 1516.71 1049.91 1516.75 1050.35 1516.82 1050.73 1516.91 1051.04 1517 1051.35 1517.12 1051.61 1517.27 1051.83 1517.41 1052.05 1517.59 1052.23 1517.79 1052.39 1518.02 1052.63 1518.34 1052.82 1518.74 1052.94 1519.14 1053.07 1519.64 1053.18 1520.26 1053.27 1520.87 1053.36 1521.61 1053.43 1522.48 1053.48 1523.34 1053.53 1524.38 1053.57 1525.59 1053.59L1525.59 1056.18 1501.97 1056.18 1501.97 1053.59C1503.14 1053.55 1504.14 1053.5 1504.95 1053.45 1505.76 1053.4 1506.46 1053.33 1507.03 1053.24 1507.61 1053.15 1508.07 1053.05 1508.42 1052.94 1508.77 1052.84 1509.07 1052.7 1509.33 1052.54 1509.61 1052.36 1509.84 1052.17 1510.04 1051.96 1510.24 1051.75 1510.4 1051.49 1510.52 1051.17 1510.64 1050.85 1510.73 1050.47 1510.8 1050.01 1510.87 1049.55 1510.91 1048.99 1510.91 1048.31L1510.91 1026.96C1510.91 1026.18 1510.76 1025.64 1510.46 1025.32 1510.16 1025 1509.73 1024.84 1509.18 1024.84 1508.56 1024.84 1507.65 1025.16 1506.44 1025.8 1505.23 1026.43 1503.66 1027.37 1501.73 1028.63 1501.47 1028.17 1501.24 1027.71 1501.02 1027.26 1500.8 1026.8 1500.57 1026.33 1500.33 1025.86 1502.79 1024.5 1505.23 1023.16 1507.64 1021.82 1510.06 1020.48 1512.5 1019.14 1514.99 1017.81Z" fill="#FFFFFF" fill-rule="evenodd"/><text fill="#000000" fill-opacity="0" font-family="Arial,Arial_MSFontService,sans-serif" font-size="38.3633" x="1500.33" y="1051.38">1</text><path d="M1428.5 1283C1428.5 1239.09 1464.32 1203.5 1508.5 1203.5 1552.68 1203.5 1588.5 1239.09 1588.5 1283 1588.5 1326.91 1552.68 1362.5 1508.5 1362.5 1464.32 1362.5 1428.5 1326.91 1428.5 1283Z" stroke="#2F528F" stroke-width="4.58333" stroke-miterlimit="8" fill="#4472C4" fill-rule="evenodd"/><path d="M1482.08 1270.4C1484.59 1270.4 1486.88 1270.55 1488.95 1270.85 1491.01 1271.14 1493.07 1271.66 1495.13 1272.39L1493.3 1280.9 1490.02 1280.9C1489.72 1278.49 1488.93 1276.67 1487.65 1275.43 1486.37 1274.18 1484.35 1273.56 1481.59 1273.56 1479.46 1273.56 1477.73 1274.11 1476.4 1275.2 1475.08 1276.3 1474.42 1277.74 1474.42 1279.52 1474.42 1280.49 1474.59 1281.35 1474.93 1282.09 1475.26 1282.84 1475.95 1283.65 1476.97 1284.54 1478 1285.44 1479.59 1286.53 1481.75 1287.83 1483.46 1288.85 1484.82 1289.79 1485.85 1290.64 1486.87 1291.5 1487.68 1292.34 1488.28 1293.18 1488.87 1294.01 1489.31 1294.9 1489.58 1295.83 1489.85 1296.76 1489.98 1297.89 1489.98 1299.22 1489.98 1301.62 1489.34 1303.68 1488.06 1305.4 1486.77 1307.11 1485.03 1308.39 1482.83 1309.23 1480.63 1310.06 1478.12 1310.48 1475.31 1310.48 1473.07 1310.48 1470.87 1310.31 1468.7 1309.98 1466.54 1309.64 1464.14 1309.06 1461.49 1308.25L1463.44 1299.42 1466.6 1299.42C1466.7 1302.01 1467.43 1303.97 1468.79 1305.29 1470.14 1306.62 1472.28 1307.28 1475.23 1307.28 1477.8 1307.28 1479.8 1306.71 1481.25 1305.56 1482.69 1304.41 1483.42 1302.78 1483.42 1300.67 1483.42 1299.46 1483.21 1298.41 1482.81 1297.53 1482.4 1296.66 1481.74 1295.81 1480.82 1295 1479.9 1294.19 1478.44 1293.18 1476.45 1291.96 1474.34 1290.69 1472.7 1289.54 1471.52 1288.52 1470.35 1287.49 1469.46 1286.38 1468.87 1285.17 1468.27 1283.97 1467.97 1282.59 1467.97 1281.02 1467.97 1278.88 1468.55 1277.01 1469.7 1275.41 1470.85 1273.8 1472.49 1272.56 1474.62 1271.7 1476.76 1270.83 1479.24 1270.4 1482.08 1270.4Z" fill="#FFFFFF" fill-rule="evenodd"/><text fill="#000000" fill-opacity="0" font-family="Arial,Arial_MSFontService,sans-serif" font-size="40.0815" x="1461.49" y="1305.47">𝑠</text><path d="M1513.61 1288.07C1515.68 1288.07 1517.44 1288.3 1518.9 1288.77 1520.36 1289.23 1521.55 1289.86 1522.46 1290.66 1523.37 1291.45 1524.03 1292.4 1524.44 1293.52 1524.85 1294.63 1525.05 1295.83 1525.05 1297.12 1525.05 1297.89 1525 1298.61 1524.89 1299.28 1524.78 1299.94 1524.59 1300.6 1524.32 1301.25 1524.05 1301.89 1523.7 1302.54 1523.26 1303.2 1522.83 1303.85 1522.28 1304.55 1521.63 1305.28 1521.13 1305.92 1520.48 1306.65 1519.69 1307.49 1518.9 1308.32 1518.03 1309.21 1517.08 1310.17 1516.14 1311.12 1515.15 1312.11 1514.12 1313.14 1513.09 1314.18 1512.09 1315.2 1511.11 1316.21 1510.14 1317.22 1509.25 1318.21 1508.43 1319.16 1507.62 1320.11 1506.95 1320.99 1506.44 1321.78L1517.46 1321.78C1518.39 1321.78 1519.13 1321.75 1519.69 1321.68 1520.25 1321.61 1520.71 1321.45 1521.08 1321.22 1521.44 1320.98 1521.76 1320.62 1522.01 1320.13 1522.27 1319.64 1522.57 1318.97 1522.91 1318.12L1525.68 1318.12C1525.58 1319.53 1525.48 1320.95 1525.39 1322.38 1525.31 1323.81 1525.21 1325.23 1525.11 1326.64L1499.88 1326.64 1499.88 1325.09C1500.36 1324.02 1500.92 1322.96 1501.55 1321.92 1502.19 1320.87 1502.9 1319.82 1503.7 1318.74 1504.49 1317.67 1505.39 1316.56 1506.41 1315.42 1507.42 1314.28 1508.54 1313.09 1509.77 1311.86 1511.64 1310 1513.16 1308.4 1514.33 1307.08 1515.5 1305.76 1516.42 1304.59 1517.1 1303.55 1517.77 1302.52 1518.24 1301.57 1518.48 1300.69 1518.73 1299.82 1518.86 1298.89 1518.86 1297.89 1518.86 1296.88 1518.71 1295.95 1518.42 1295.09 1518.14 1294.24 1517.72 1293.52 1517.19 1292.92 1516.65 1292.32 1515.97 1291.86 1515.15 1291.52 1514.32 1291.18 1513.38 1291.01 1512.3 1291.01 1510.46 1291.01 1508.91 1291.52 1507.66 1292.52 1506.41 1293.52 1505.43 1294.98 1504.74 1296.88L1500.84 1296.88 1500.84 1291.07C1503.38 1290.02 1505.72 1289.26 1507.85 1288.78 1509.99 1288.3 1511.91 1288.07 1513.61 1288.07Z" fill="#FFFFFF" fill-rule="evenodd"/><text fill="#000000" fill-opacity="0" font-family="Arial,Arial_MSFontService,sans-serif" font-size="38.5718" x="1499.88" y="1321.82">2</text><path d="M1817.5 1158.5C1817.5 1114.32 1853.09 1078.5 1897 1078.5 1940.91 1078.5 1976.5 1114.32 1976.5 1158.5 1976.5 1202.68 1940.91 1238.5 1897 1238.5 1853.09 1238.5 1817.5 1202.68 1817.5 1158.5Z" stroke="#2F528F" stroke-width="4.58333" stroke-miterlimit="8" fill="#4472C4" fill-rule="evenodd"/><path d="M1817.5 1423C1817.5 1379.09 1853.09 1343.5 1897 1343.5 1940.91 1343.5 1976.5 1379.09 1976.5 1423 1976.5 1466.91 1940.91 1502.5 1897 1502.5 1853.09 1502.5 1817.5 1466.91 1817.5 1423Z" stroke="#2F528F" stroke-width="4.58333" stroke-miterlimit="8" fill="#4472C4" fill-rule="evenodd"/><path d="M2205.5 1264C2205.5 1220.09 2241.09 1184.5 2285 1184.5 2328.91 1184.5 2364.5 1220.09 2364.5 1264 2364.5 1307.91 2328.91 1343.5 2285 1343.5 2241.09 1343.5 2205.5 1307.91 2205.5 1264Z" stroke="#2F528F" stroke-width="4.58333" stroke-miterlimit="8" fill="#4472C4" fill-rule="evenodd"/><path d="M2254.89 1242.11 2260.48 1242.11 2258.25 1252.12 2270.57 1252.12 2269.68 1256.21 2257.36 1256.21 2253.75 1271.94C2253.05 1274.99 2252.6 1277.18 2252.41 1278.52 2252.22 1279.86 2252.13 1280.93 2252.13 1281.74 2252.13 1285.09 2253.52 1286.77 2256.3 1286.77 2257.49 1286.77 2258.76 1286.32 2260.09 1285.41 2261.43 1284.51 2263.02 1282.96 2264.86 1280.77L2267.21 1283.2C2264.86 1286.04 2262.59 1288.13 2260.42 1289.48 2258.24 1290.83 2255.97 1291.51 2253.59 1291.51 2247.94 1291.51 2245.12 1288.66 2245.12 1282.96 2245.12 1281.15 2245.35 1279.24 2245.81 1277.24L2250.59 1256.21 2243.78 1256.21 2244.39 1253.41C2245.98 1253.39 2247.19 1253.27 2248.02 1253.05 2248.84 1252.83 2249.53 1252.54 2250.08 1252.16 2250.64 1251.78 2251.14 1251.24 2251.6 1250.54 2252.06 1249.83 2252.51 1248.94 2252.94 1247.84 2253.37 1246.75 2254.02 1244.84 2254.89 1242.11Z" fill="#FFFFFF" fill-rule="evenodd"/><text fill="#000000" fill-opacity="0" font-family="Arial,Arial_MSFontService,sans-serif" font-size="49.4028" x="2243.78" y="1285.33">𝑡</text><path d="M2288.68 1269.34 2290.5 1269.34C2290.46 1270.43 2290.43 1271.41 2290.41 1272.28 2290.39 1273.14 2290.38 1273.98 2290.37 1274.79 2290.36 1275.61 2290.35 1276.41 2290.35 1277.21L2290.35 1299.84C2290.35 1300.46 2290.37 1300.99 2290.41 1301.44 2290.45 1301.88 2290.52 1302.26 2290.61 1302.57 2290.69 1302.88 2290.81 1303.14 2290.96 1303.36 2291.11 1303.58 2291.29 1303.76 2291.48 1303.92 2291.72 1304.16 2292.04 1304.34 2292.44 1304.47 2292.83 1304.6 2293.34 1304.71 2293.96 1304.8 2294.57 1304.89 2295.31 1304.96 2296.18 1305.01 2297.04 1305.06 2298.08 1305.09 2299.29 1305.11L2299.29 1307.71 2275.67 1307.71 2275.67 1305.11C2276.84 1305.07 2277.83 1305.03 2278.65 1304.98 2279.46 1304.93 2280.16 1304.86 2280.73 1304.77 2281.31 1304.68 2281.77 1304.58 2282.12 1304.47 2282.46 1304.36 2282.77 1304.23 2283.02 1304.07 2283.3 1303.89 2283.54 1303.7 2283.74 1303.49 2283.94 1303.28 2284.1 1303.02 2284.22 1302.7 2284.34 1302.38 2284.43 1302 2284.5 1301.54 2284.57 1301.08 2284.6 1300.52 2284.6 1299.84L2284.6 1278.49C2284.6 1277.71 2284.45 1277.17 2284.16 1276.85 2283.86 1276.53 2283.43 1276.37 2282.88 1276.37 2282.26 1276.37 2281.35 1276.69 2280.14 1277.32 2278.92 1277.96 2277.36 1278.9 2275.43 1280.15 2275.17 1279.7 2274.93 1279.24 2274.71 1278.78 2274.5 1278.33 2274.27 1277.86 2274.03 1277.38 2276.49 1276.03 2278.93 1274.69 2281.34 1273.35 2283.75 1272.01 2286.2 1270.67 2288.68 1269.34Z" fill="#FFFFFF" fill-rule="evenodd"/><text fill="#000000" fill-opacity="0" font-family="Arial,Arial_MSFontService,sans-serif" font-size="38.3633" x="2274.03" y="1302.91">1</text><path d="M1589.73 1010.57 1800.1 1144.36 1797.64 1148.23 1587.27 1014.43ZM1802.38 1132.23 1818.21 1158.59 1787.63 1155.44Z" fill="#4472C4"/><path d="M1.09109-2.01526 210.648 111.442 208.466 115.472-1.09109 2.01526ZM212.073 99.1832 229.709 124.368 198.98 123.366Z" fill="#4472C4" transform="matrix(1 0 0 -1 1588.5 1282.87)"/><path d="M1589.69 1280.54 1799.84 1408.82 1797.45 1412.73 1587.31 1284.46ZM1801.9 1396.65 1818.21 1422.72 1787.57 1420.13Z" fill="#4472C4"/><path d="M1.15692-1.9782 211.084 120.794 208.771 124.75-1.15692 1.9782ZM212.913 108.589 229.709 134.341 199.03 132.328Z" fill="#4472C4" transform="matrix(1 0 0 -1 1588.5 1557.84)"/><path d="M1590.66 1551.53 1799.07 1674.24 1796.74 1678.19 1588.34 1555.47ZM1800.93 1662.04 1817.65 1687.84 1786.98 1685.74Z" fill="#4472C4"/><path d="M1.17415-1.96802 209.648 122.41 207.299 126.346-1.17415 1.96802ZM211.582 110.221 228.154 136.119 197.492 133.838Z" fill="#4472C4" transform="matrix(1 0 0 -1 1589.5 1823.62)"/><path d="M1977.46 1156.42 2184.81 1252.24 2182.89 1256.4 1975.54 1160.58ZM2185.46 1239.92 2204.65 1263.94 2173.92 1264.88Z" fill="#4472C4"/><path d="M1.31109-1.87957 210.669 144.158 208.047 147.918-1.31109 1.87957ZM213.465 132.138 228.154 159.149 197.732 154.693Z" fill="#4472C4" transform="matrix(1 0 0 -1 1976.5 1422.65)"/><path d="M1977.87 1421.67 2187.69 1578.81 2184.94 1582.48 1975.13 1425.33ZM2190.89 1566.89 2204.65 1594.38 2174.4 1588.9Z" fill="#4472C4"/><path d="M0.870605-2.11985 207.826 82.8748 206.085 87.1145-0.870605 2.11985ZM207.939 70.5343 228.154 93.7007 197.492 95.9725Z" fill="#4472C4" transform="matrix(1 0 0 -1 1976.5 1687.2)"/><path d="M734.5 1423C734.5 1357 788.002 1303.5 854 1303.5 919.998 1303.5 973.5 1357 973.5 1423 973.5 1489 919.998 1542.5 854 1542.5 788.002 1542.5 734.5 1489 734.5 1423Z" stroke="#2F528F" stroke-width="4.58333" stroke-miterlimit="8" fill="#4472C4" fill-rule="evenodd"/><path d="M846.198 1385.35C849.492 1385.35 852.545 1385.57 855.356 1386.02 858.166 1386.46 861.273 1387.23 864.674 1388.3L861.667 1402.1 856.51 1402.1C856.367 1399.06 855.902 1396.67 855.114 1394.93 854.326 1393.2 853.198 1391.95 851.73 1391.2 850.262 1390.45 848.31 1390.07 845.876 1390.07 842.904 1390.07 840.29 1390.68 838.034 1391.9 835.778 1393.12 834.059 1394.77 832.878 1396.87 831.696 1398.96 831.105 1401.3 831.105 1403.88 831.105 1406.56 831.812 1408.92 833.227 1410.94 834.641 1412.96 837.353 1415.35 841.364 1418.11 844.873 1420.54 847.55 1422.72 849.394 1424.64 851.238 1426.55 852.598 1428.58 853.476 1430.73 854.353 1432.88 854.792 1435.37 854.792 1438.2 854.792 1442.57 853.744 1446.44 851.65 1449.83 849.555 1453.21 846.601 1455.82 842.787 1457.67 838.974 1459.51 834.632 1460.43 829.762 1460.43 826.468 1460.43 822.914 1460.17 819.101 1459.63 815.287 1459.09 811.877 1458.41 808.869 1457.59L812.091 1442.82 817.248 1442.82C817.248 1447.18 818.259 1450.43 820.282 1452.56 822.305 1454.7 825.43 1455.76 829.655 1455.76 834.525 1455.76 838.356 1454.44 841.149 1451.79 843.942 1449.14 845.339 1445.45 845.339 1440.72 845.339 1438.54 844.954 1436.61 844.184 1434.95 843.414 1433.28 842.25 1431.69 840.693 1430.17 839.135 1428.65 836.888 1426.9 833.952 1424.93 831.302 1423.14 829.1 1421.38 827.345 1419.64 825.591 1417.9 824.194 1415.96 823.156 1413.81 822.117 1411.66 821.598 1409.27 821.598 1406.62 821.598 1402.39 822.619 1398.67 824.66 1395.44 826.701 1392.22 829.583 1389.73 833.307 1387.98 837.031 1386.22 841.328 1385.35 846.198 1385.35Z" fill="#FFFFFF" fill-rule="evenodd"/><text fill="#000000" fill-opacity="0" font-family="Arial,Arial_MSFontService,sans-serif" font-size="75.0879" x="808.869" y="1451.05">𝑆</text><path d="M2771.5 1423C2771.5 1357 2825 1303.5 2891 1303.5 2957 1303.5 3010.5 1357 3010.5 1423 3010.5 1489 2957 1542.5 2891 1542.5 2825 1542.5 2771.5 1489 2771.5 1423Z" stroke="#2F528F" stroke-width="4.58333" stroke-miterlimit="8" fill="#4472C4" fill-rule="evenodd"/><path d="M2873.57 1394.91 2880.98 1394.91 2878.02 1408.17 2894.35 1408.17 2893.17 1413.6 2876.84 1413.6 2872.06 1434.44C2871.13 1438.48 2870.54 1441.39 2870.29 1443.17 2870.04 1444.94 2869.91 1446.36 2869.91 1447.44 2869.91 1451.88 2871.76 1454.1 2875.45 1454.1 2877.02 1454.1 2878.69 1453.5 2880.47 1452.3 2882.24 1451.1 2884.34 1449.05 2886.78 1446.15L2889.89 1449.37C2886.78 1453.13 2883.78 1455.9 2880.9 1457.69 2878.01 1459.48 2875 1460.38 2871.85 1460.38 2864.36 1460.38 2860.62 1456.6 2860.62 1449.05 2860.62 1446.65 2860.93 1444.12 2861.53 1441.47L2867.87 1413.6 2858.85 1413.6 2859.65 1409.89C2861.77 1409.86 2863.37 1409.69 2864.46 1409.41 2865.55 1409.12 2866.47 1408.73 2867.2 1408.23 2867.93 1407.73 2868.61 1407.01 2869.21 1406.08 2869.82 1405.15 2870.41 1403.96 2870.99 1402.51 2871.56 1401.06 2872.42 1398.52 2873.57 1394.91Z" fill="#FFFFFF" fill-rule="evenodd"/><text fill="#000000" fill-opacity="0" font-family="Arial,Arial_MSFontService,sans-serif" font-size="65.4736" x="2858.85" y="1452.2">𝑡</text><path d="M1.26927-1.90806 472.673 311.675 470.134 315.491-1.26927 1.90806ZM475.203 299.596 490.485 326.276 459.972 322.493Z" fill="#4472C4" transform="matrix(1 0 0 -1 938.5 1338.78)"/><path d="M0.674191-2.19025 434.296 131.285 432.948 135.665-0.674191 2.19025ZM433.286 118.985 455.524 140.217 425.196 145.268Z" fill="#4472C4" transform="matrix(1 0 0 -1 973.5 1422.72)"/><path d="M974.128 1421.3 1409.17 1545.26 1407.91 1549.67 972.872 1425.7ZM1407.9 1532.98 1430.58 1553.74 1400.36 1559.43Z" fill="#4472C4"/><path d="M939.739 1505.57 1412.5 1809.48 1410.02 1813.34 937.261 1509.43ZM1414.84 1797.37 1430.54 1823.8 1399.97 1820.5Z" fill="#4472C4"/><path d="M2364.88 1261.24 2785 1332.17 2784.24 1336.69 2364.12 1265.76ZM2782.39 1320.11 2807.22 1338.25 2777.81 1347.23Z" fill="#4472C4"/><path d="M0.439365-2.24915 420.668 79.8411 419.789 84.3394-0.439365 2.24915ZM418.366 67.7166 442.72 86.4839 413.094 94.7064Z" fill="#4472C4" transform="matrix(1 0 0 -1 2364.5 1593.98)"/><path d="M1134.79 1117.48C1133.33 1117.48 1131.98 1117.8 1130.74 1118.45 1129.49 1119.1 1128.34 1120 1127.27 1121.15 1126.2 1122.3 1125.22 1123.67 1124.31 1125.26 1123.41 1126.86 1122.55 1128.6 1121.74 1130.49 1122.36 1131.87 1123.08 1133.2 1123.89 1134.5 1124.7 1135.8 1125.62 1136.95 1126.66 1137.97 1127.7 1138.98 1128.87 1139.79 1130.17 1140.4 1131.47 1141.01 1132.91 1141.31 1134.51 1141.31 1136.05 1141.31 1137.42 1140.98 1138.64 1140.32 1139.86 1139.66 1140.89 1138.74 1141.74 1137.56 1142.59 1136.39 1143.24 1135 1143.69 1133.41 1144.13 1131.81 1144.35 1130.07 1144.35 1128.18 1144.35 1126.69 1144.17 1125.3 1143.79 1123.98 1143.41 1122.67 1142.83 1121.54 1142.04 1120.58 1141.26 1119.62 1140.27 1118.86 1139.07 1118.31 1137.86 1117.76 1136.44 1117.48 1134.79 1117.48ZM1103.75 1116.3C1102.39 1116.3 1101.09 1116.54 1099.83 1117.01 1098.58 1117.49 1097.47 1118.21 1096.51 1119.18 1095.55 1120.15 1094.79 1121.39 1094.22 1122.89 1093.65 1124.39 1093.37 1126.15 1093.37 1128.18 1093.37 1129.88 1093.58 1131.46 1094 1132.92 1094.42 1134.38 1095.05 1135.64 1095.9 1136.71 1096.75 1137.78 1097.81 1138.62 1099.06 1139.22 1100.32 1139.83 1101.8 1140.13 1103.5 1140.13 1104.91 1140.13 1106.17 1139.83 1107.29 1139.22 1108.41 1138.62 1109.48 1137.74 1110.49 1136.59 1111.51 1135.44 1112.5 1134.03 1113.47 1132.35 1114.44 1130.68 1115.5 1128.76 1116.63 1126.6 1115.04 1122.95 1113.14 1120.32 1110.94 1118.72 1108.74 1117.11 1106.34 1116.3 1103.75 1116.3ZM1103.26 1112.17C1104.99 1112.17 1106.59 1112.45 1108.06 1113 1109.53 1113.56 1110.89 1114.33 1112.13 1115.33 1113.38 1116.33 1114.51 1117.53 1115.54 1118.92 1116.57 1120.31 1117.51 1121.84 1118.38 1123.52 1119.51 1121.25 1120.73 1119.38 1122.02 1117.91 1123.32 1116.43 1124.67 1115.27 1126.08 1114.42 1127.48 1113.57 1128.93 1112.98 1130.43 1112.66 1131.93 1112.33 1133.45 1112.17 1134.99 1112.17 1137.21 1112.17 1139.21 1112.6 1141.01 1113.47 1142.81 1114.33 1144.33 1115.51 1145.59 1117.01 1146.85 1118.51 1147.81 1120.26 1148.49 1122.24 1149.16 1124.23 1149.5 1126.33 1149.5 1128.54 1149.5 1130.95 1149.15 1133.18 1148.45 1135.23 1147.74 1137.28 1146.75 1139.07 1145.45 1140.58 1144.15 1142.09 1142.57 1143.28 1140.71 1144.15 1138.84 1145.01 1136.75 1145.44 1134.42 1145.44 1132.7 1145.44 1131.12 1145.13 1129.7 1144.49 1128.29 1143.86 1126.99 1143.01 1125.81 1141.94 1124.64 1140.87 1123.56 1139.61 1122.59 1138.17 1121.62 1136.72 1120.73 1135.19 1119.92 1133.57 1118.84 1135.73 1117.67 1137.55 1116.43 1139.04 1115.19 1140.53 1113.9 1141.74 1112.56 1142.69 1111.22 1143.63 1109.85 1144.32 1108.45 1144.73 1107.04 1145.15 1105.64 1145.36 1104.23 1145.36 1101.5 1145.36 1099.14 1144.9 1097.14 1143.96 1095.14 1143.03 1093.48 1141.79 1092.15 1140.24 1090.83 1138.68 1089.84 1136.89 1089.2 1134.87 1088.55 1132.84 1088.22 1130.73 1088.22 1128.54 1088.22 1126.19 1088.57 1124.02 1089.28 1122.02 1089.98 1120.02 1090.98 1118.29 1092.28 1116.83 1093.57 1115.37 1095.15 1114.23 1097 1113.41 1098.85 1112.58 1100.94 1112.17 1103.26 1112.17Z" fill="#FF0000" fill-rule="evenodd"/><text fill="#000000" fill-opacity="0" font-family="Arial,Arial_MSFontService,sans-serif" font-size="33.2729" x="1088.22" y="1141.28">∞</text><path d="M1228.84 1287.39C1227.38 1287.39 1226.03 1287.72 1224.79 1288.36 1223.55 1289.01 1222.39 1289.91 1221.33 1291.06 1220.26 1292.21 1219.27 1293.58 1218.37 1295.17 1217.46 1296.77 1216.6 1298.51 1215.79 1300.4 1216.41 1301.78 1217.13 1303.12 1217.94 1304.41 1218.75 1305.71 1219.68 1306.86 1220.72 1307.88 1221.76 1308.89 1222.93 1309.7 1224.22 1310.31 1225.52 1310.92 1226.97 1311.22 1228.56 1311.22 1230.1 1311.22 1231.48 1310.89 1232.69 1310.23 1233.91 1309.57 1234.94 1308.65 1235.79 1307.47 1236.64 1306.3 1237.29 1304.91 1237.74 1303.32 1238.18 1301.72 1238.41 1299.98 1238.41 1298.09 1238.41 1296.6 1238.22 1295.21 1237.84 1293.9 1237.46 1292.59 1236.88 1291.45 1236.1 1290.49 1235.31 1289.53 1234.32 1288.78 1233.12 1288.22 1231.92 1287.67 1230.49 1287.39 1228.84 1287.39ZM1197.8 1286.22C1196.45 1286.22 1195.14 1286.45 1193.89 1286.93 1192.63 1287.4 1191.52 1288.12 1190.56 1289.09 1189.61 1290.07 1188.84 1291.3 1188.28 1292.8 1187.71 1294.3 1187.42 1296.06 1187.42 1298.09 1187.42 1299.79 1187.63 1301.37 1188.05 1302.83 1188.47 1304.29 1189.11 1305.55 1189.96 1306.62 1190.81 1307.69 1191.86 1308.53 1193.12 1309.13 1194.37 1309.74 1195.85 1310.05 1197.56 1310.05 1198.96 1310.05 1200.22 1309.74 1201.35 1309.13 1202.47 1308.53 1203.53 1307.65 1204.55 1306.5 1205.56 1305.35 1206.55 1303.94 1207.53 1302.27 1208.5 1300.59 1209.55 1298.67 1210.69 1296.51 1209.09 1292.86 1207.19 1290.24 1204.99 1288.63 1202.79 1287.02 1200.39 1286.22 1197.8 1286.22ZM1197.31 1282.08C1199.04 1282.08 1200.64 1282.36 1202.12 1282.91 1203.59 1283.47 1204.95 1284.24 1206.19 1285.24 1207.43 1286.24 1208.57 1287.44 1209.59 1288.83 1210.62 1290.22 1211.56 1291.75 1212.43 1293.43 1213.56 1291.16 1214.78 1289.29 1216.08 1287.82 1217.37 1286.34 1218.72 1285.18 1220.13 1284.33 1221.53 1283.48 1222.99 1282.89 1224.49 1282.57 1225.99 1282.24 1227.51 1282.08 1229.05 1282.08 1231.26 1282.08 1233.27 1282.51 1235.06 1283.38 1236.86 1284.24 1238.39 1285.43 1239.64 1286.93 1240.9 1288.42 1241.87 1290.17 1242.54 1292.15 1243.22 1294.14 1243.55 1296.24 1243.55 1298.46 1243.55 1300.86 1243.2 1303.09 1242.5 1305.14 1241.8 1307.2 1240.8 1308.98 1239.5 1310.49 1238.2 1312.01 1236.62 1313.19 1234.76 1314.06 1232.9 1314.92 1230.8 1315.36 1228.48 1315.36 1226.75 1315.36 1225.18 1315.04 1223.76 1314.4 1222.34 1313.77 1221.04 1312.92 1219.87 1311.85 1218.69 1310.78 1217.62 1309.53 1216.64 1308.08 1215.67 1306.64 1214.78 1305.1 1213.97 1303.48 1212.89 1305.64 1211.73 1307.47 1210.48 1308.95 1209.24 1310.44 1207.95 1311.65 1206.61 1312.6 1205.28 1313.55 1203.91 1314.23 1202.5 1314.65 1201.1 1315.06 1199.69 1315.27 1198.29 1315.27 1195.56 1315.27 1193.19 1314.81 1191.19 1313.88 1189.19 1312.94 1187.53 1311.7 1186.21 1310.15 1184.88 1308.59 1183.9 1306.8 1183.25 1304.78 1182.6 1302.75 1182.28 1300.64 1182.28 1298.46 1182.28 1296.1 1182.63 1293.93 1183.33 1291.93 1184.03 1289.93 1185.03 1288.2 1186.33 1286.74 1187.63 1285.28 1189.2 1284.14 1191.05 1283.32 1192.9 1282.49 1194.99 1282.08 1197.31 1282.08Z" fill="#FF0000" fill-rule="evenodd"/><text fill="#000000" fill-opacity="0" font-family="Arial,Arial_MSFontService,sans-serif" font-size="33.2729" x="1182.28" y="1311.2">∞</text><path d="M1229.09 1534.38C1227.63 1534.38 1226.28 1534.71 1225.03 1535.35 1223.79 1536 1222.64 1536.9 1221.57 1538.05 1220.5 1539.2 1219.52 1540.57 1218.61 1542.16 1217.71 1543.76 1216.85 1545.5 1216.04 1547.39 1216.66 1548.77 1217.37 1550.11 1218.19 1551.4 1219 1552.7 1219.92 1553.85 1220.96 1554.87 1222 1555.88 1223.17 1556.69 1224.47 1557.3 1225.76 1557.91 1227.21 1558.21 1228.8 1558.21 1230.34 1558.21 1231.72 1557.88 1232.94 1557.22 1234.15 1556.56 1235.19 1555.64 1236.04 1554.46 1236.89 1553.29 1237.54 1551.9 1237.98 1550.31 1238.43 1548.71 1238.65 1546.97 1238.65 1545.08 1238.65 1543.59 1238.46 1542.2 1238.08 1540.89 1237.71 1539.58 1237.12 1538.44 1236.34 1537.48 1235.56 1536.52 1234.56 1535.77 1233.36 1535.21 1232.16 1534.66 1230.73 1534.38 1229.09 1534.38ZM1198.04 1533.21C1196.69 1533.21 1195.39 1533.44 1194.13 1533.92 1192.88 1534.39 1191.77 1535.11 1190.81 1536.08 1189.85 1537.06 1189.09 1538.29 1188.52 1539.79 1187.95 1541.29 1187.67 1543.05 1187.67 1545.08 1187.67 1546.78 1187.88 1548.36 1188.3 1549.82 1188.71 1551.28 1189.35 1552.54 1190.2 1553.61 1191.05 1554.68 1192.11 1555.52 1193.36 1556.12 1194.62 1556.73 1196.1 1557.04 1197.8 1557.04 1199.2 1557.04 1200.47 1556.73 1201.59 1556.12 1202.71 1555.52 1203.78 1554.64 1204.79 1553.49 1205.8 1552.34 1206.8 1550.93 1207.77 1549.25 1208.74 1547.58 1209.8 1545.66 1210.93 1543.5 1209.34 1539.85 1207.44 1537.22 1205.24 1535.62 1203.03 1534.01 1200.64 1533.21 1198.04 1533.21ZM1197.56 1529.07C1199.29 1529.07 1200.89 1529.35 1202.36 1529.9 1203.83 1530.46 1205.19 1531.23 1206.43 1532.23 1207.67 1533.23 1208.81 1534.43 1209.84 1535.82 1210.86 1537.21 1211.81 1538.74 1212.67 1540.42 1213.81 1538.15 1215.02 1536.28 1216.32 1534.81 1217.62 1533.33 1218.97 1532.17 1220.37 1531.32 1221.78 1530.47 1223.23 1529.88 1224.73 1529.56 1226.23 1529.23 1227.75 1529.07 1229.29 1529.07 1231.51 1529.07 1233.51 1529.5 1235.31 1530.37 1237.1 1531.23 1238.63 1532.42 1239.89 1533.92 1241.14 1535.41 1242.11 1537.16 1242.79 1539.14 1243.46 1541.13 1243.8 1543.23 1243.8 1545.45 1243.8 1547.85 1243.45 1550.08 1242.74 1552.13 1242.04 1554.19 1241.04 1555.97 1239.75 1557.48 1238.45 1558.99 1236.87 1560.18 1235 1561.05 1233.14 1561.91 1231.05 1562.34 1228.72 1562.34 1226.99 1562.34 1225.42 1562.03 1224 1561.39 1222.58 1560.76 1221.29 1559.91 1220.11 1558.84 1218.93 1557.77 1217.86 1556.52 1216.89 1555.07 1215.92 1553.62 1215.02 1552.09 1214.21 1550.47 1213.13 1552.63 1211.97 1554.46 1210.73 1555.94 1209.49 1557.43 1208.2 1558.64 1206.86 1559.59 1205.52 1560.53 1204.15 1561.22 1202.74 1561.64 1201.34 1562.05 1199.93 1562.26 1198.53 1562.26 1195.8 1562.26 1193.44 1561.8 1191.44 1560.87 1189.44 1559.93 1187.78 1558.69 1186.45 1557.14 1185.13 1555.58 1184.14 1553.79 1183.49 1551.77 1182.85 1549.74 1182.52 1547.63 1182.52 1545.45 1182.52 1543.09 1182.87 1540.92 1183.57 1538.92 1184.28 1536.92 1185.28 1535.19 1186.57 1533.73 1187.87 1532.27 1189.44 1531.13 1191.3 1530.31 1193.15 1529.48 1195.23 1529.07 1197.56 1529.07Z" fill="#FF0000" fill-rule="evenodd"/><text fill="#000000" fill-opacity="0" font-family="Arial,Arial_MSFontService,sans-serif" font-size="33.2729" x="1182.52" y="1558.19">∞</text><path d="M1134.01 1695.66C1132.55 1695.66 1131.2 1695.98 1129.96 1696.63 1128.72 1697.28 1127.56 1698.18 1126.49 1699.33 1125.43 1700.47 1124.44 1701.85 1123.54 1703.44 1122.63 1705.03 1121.77 1706.78 1120.96 1708.67 1121.58 1710.05 1122.3 1711.38 1123.11 1712.68 1123.92 1713.98 1124.85 1715.13 1125.89 1716.15 1126.93 1717.16 1128.09 1717.97 1129.39 1718.58 1130.69 1719.19 1132.13 1719.49 1133.73 1719.49 1135.27 1719.49 1136.65 1719.16 1137.86 1718.5 1139.08 1717.83 1140.11 1716.92 1140.96 1715.74 1141.81 1714.56 1142.46 1713.18 1142.91 1711.59 1143.35 1709.99 1143.58 1708.25 1143.58 1706.36 1143.58 1704.87 1143.39 1703.47 1143.01 1702.16 1142.63 1700.85 1142.05 1699.72 1141.27 1698.76 1140.48 1697.8 1139.49 1697.04 1138.29 1696.49 1137.09 1695.94 1135.66 1695.66 1134.01 1695.66ZM1102.97 1694.48C1101.62 1694.48 1100.31 1694.72 1099.06 1695.19 1097.8 1695.67 1096.69 1696.39 1095.73 1697.36 1094.77 1698.33 1094.01 1699.57 1093.44 1701.07 1092.88 1702.57 1092.59 1704.33 1092.59 1706.36 1092.59 1708.06 1092.8 1709.64 1093.22 1711.1 1093.64 1712.56 1094.27 1713.82 1095.13 1714.89 1095.98 1715.96 1097.03 1716.79 1098.29 1717.4 1099.54 1718.01 1101.02 1718.31 1102.72 1718.31 1104.13 1718.31 1105.39 1718.01 1106.51 1717.4 1107.64 1716.79 1108.7 1715.92 1109.72 1714.77 1110.73 1713.62 1111.72 1712.21 1112.69 1710.53 1113.67 1708.86 1114.72 1706.94 1115.86 1704.78 1114.26 1701.13 1112.36 1698.5 1110.16 1696.9 1107.96 1695.29 1105.56 1694.48 1102.97 1694.48ZM1102.48 1690.35C1104.21 1690.35 1105.81 1690.63 1107.28 1691.18 1108.76 1691.73 1110.11 1692.51 1111.36 1693.51 1112.6 1694.51 1113.73 1695.71 1114.76 1697.1 1115.79 1698.49 1116.73 1700.02 1117.6 1701.7 1118.73 1699.43 1119.95 1697.56 1121.25 1696.08 1122.54 1694.61 1123.89 1693.45 1125.3 1692.6 1126.7 1691.75 1128.16 1691.16 1129.66 1690.84 1131.15 1690.51 1132.67 1690.35 1134.21 1690.35 1136.43 1690.35 1138.44 1690.78 1140.23 1691.65 1142.03 1692.51 1143.56 1693.69 1144.81 1695.19 1146.07 1696.69 1147.03 1698.44 1147.71 1700.42 1148.39 1702.41 1148.72 1704.51 1148.72 1706.72 1148.72 1709.13 1148.37 1711.36 1147.67 1713.41 1146.97 1715.46 1145.97 1717.25 1144.67 1718.76 1143.37 1720.27 1141.79 1721.46 1139.93 1722.33 1138.06 1723.19 1135.97 1723.62 1133.65 1723.62 1131.92 1723.62 1130.34 1723.31 1128.93 1722.67 1127.51 1722.04 1126.21 1721.18 1125.04 1720.12 1123.86 1719.05 1122.79 1717.79 1121.81 1716.35 1120.84 1714.9 1119.95 1713.37 1119.14 1711.75 1118.06 1713.91 1116.9 1715.73 1115.65 1717.22 1114.41 1718.71 1113.12 1719.92 1111.78 1720.87 1110.45 1721.81 1109.07 1722.49 1107.67 1722.91 1106.26 1723.33 1104.86 1723.54 1103.45 1723.54 1100.73 1723.54 1098.36 1723.08 1096.36 1722.14 1094.36 1721.21 1092.7 1719.97 1091.38 1718.42 1090.05 1716.86 1089.07 1715.07 1088.42 1713.05 1087.77 1711.02 1087.45 1708.91 1087.45 1706.72 1087.45 1704.37 1087.8 1702.2 1088.5 1700.2 1089.2 1698.2 1090.2 1696.47 1091.5 1695.01 1092.8 1693.55 1094.37 1692.41 1096.22 1691.59 1098.07 1690.76 1100.16 1690.35 1102.48 1690.35Z" fill="#FF0000" fill-rule="evenodd"/><text fill="#000000" fill-opacity="0" font-family="Arial,Arial_MSFontService,sans-serif" font-size="33.2729" x="1087.45" y="1719.46">∞</text><path d="M2607.74 1242.77C2606.28 1242.77 2604.93 1243.09 2603.68 1243.74 2602.44 1244.39 2601.29 1245.29 2600.22 1246.44 2599.15 1247.59 2598.17 1248.96 2597.26 1250.55 2596.36 1252.14 2595.5 1253.89 2594.69 1255.78 2595.31 1257.16 2596.02 1258.49 2596.84 1259.79 2597.65 1261.09 2598.57 1262.24 2599.61 1263.26 2600.65 1264.27 2601.82 1265.08 2603.12 1265.69 2604.41 1266.3 2605.86 1266.6 2607.45 1266.6 2608.99 1266.6 2610.37 1266.27 2611.59 1265.61 2612.8 1264.94 2613.84 1264.03 2614.69 1262.85 2615.54 1261.68 2616.19 1260.29 2616.63 1258.7 2617.08 1257.1 2617.3 1255.36 2617.3 1253.47 2617.3 1251.98 2617.11 1250.58 2616.73 1249.27 2616.36 1247.96 2615.78 1246.83 2614.99 1245.87 2614.21 1244.91 2613.22 1244.15 2612.01 1243.6 2610.81 1243.05 2609.39 1242.77 2607.74 1242.77ZM2576.69 1241.59C2575.34 1241.59 2574.04 1241.83 2572.78 1242.3 2571.53 1242.78 2570.42 1243.5 2569.46 1244.47 2568.5 1245.44 2567.74 1246.68 2567.17 1248.18 2566.6 1249.68 2566.32 1251.44 2566.32 1253.47 2566.32 1255.17 2566.53 1256.75 2566.95 1258.21 2567.37 1259.67 2568 1260.93 2568.85 1262 2569.7 1263.07 2570.76 1263.9 2572.01 1264.51 2573.27 1265.12 2574.75 1265.42 2576.45 1265.42 2577.86 1265.42 2579.12 1265.12 2580.24 1264.51 2581.36 1263.9 2582.43 1263.03 2583.44 1261.88 2584.45 1260.73 2585.45 1259.32 2586.42 1257.64 2587.39 1255.97 2588.45 1254.05 2589.58 1251.89 2587.99 1248.24 2586.09 1245.61 2583.89 1244.01 2581.69 1242.4 2579.29 1241.59 2576.69 1241.59ZM2576.21 1237.46C2577.94 1237.46 2579.54 1237.74 2581.01 1238.29 2582.48 1238.84 2583.84 1239.62 2585.08 1240.62 2586.33 1241.62 2587.46 1242.82 2588.49 1244.21 2589.51 1245.6 2590.46 1247.13 2591.32 1248.81 2592.46 1246.54 2593.67 1244.67 2594.97 1243.19 2596.27 1241.72 2597.62 1240.56 2599.02 1239.71 2600.43 1238.86 2601.88 1238.27 2603.38 1237.95 2604.88 1237.62 2606.4 1237.46 2607.94 1237.46 2610.16 1237.46 2612.16 1237.89 2613.96 1238.76 2615.75 1239.62 2617.28 1240.8 2618.54 1242.3 2619.79 1243.8 2620.76 1245.55 2621.44 1247.53 2622.11 1249.52 2622.45 1251.62 2622.45 1253.83 2622.45 1256.24 2622.1 1258.47 2621.4 1260.52 2620.69 1262.57 2619.69 1264.36 2618.4 1265.87 2617.1 1267.38 2615.52 1268.57 2613.65 1269.44 2611.79 1270.3 2609.7 1270.73 2607.37 1270.73 2605.64 1270.73 2604.07 1270.42 2602.65 1269.78 2601.23 1269.15 2599.94 1268.29 2598.76 1267.23 2597.59 1266.16 2596.51 1264.9 2595.54 1263.46 2594.57 1262.01 2593.67 1260.48 2592.86 1258.86 2591.78 1261.02 2590.62 1262.84 2589.38 1264.33 2588.14 1265.82 2586.85 1267.03 2585.51 1267.98 2584.17 1268.92 2582.8 1269.61 2581.39 1270.02 2579.99 1270.44 2578.58 1270.65 2577.18 1270.65 2574.45 1270.65 2572.09 1270.19 2570.09 1269.25 2568.09 1268.32 2566.43 1267.08 2565.1 1265.53 2563.78 1263.97 2562.79 1262.18 2562.14 1260.16 2561.5 1258.13 2561.17 1256.02 2561.17 1253.83 2561.17 1251.48 2561.52 1249.31 2562.23 1247.31 2562.93 1245.31 2563.93 1243.58 2565.22 1242.12 2566.52 1240.66 2568.09 1239.52 2569.95 1238.7 2571.8 1237.87 2573.88 1237.46 2576.21 1237.46Z" fill="#FF0000" fill-rule="evenodd"/><text fill="#000000" fill-opacity="0" font-family="Arial,Arial_MSFontService,sans-serif" font-size="33.2729" x="2561.17" y="1266.57">∞</text><path d="M2609.62 1608.64C2608.16 1608.64 2606.81 1608.96 2605.57 1609.61 2604.33 1610.26 2603.17 1611.16 2602.1 1612.31 2601.04 1613.45 2600.05 1614.82 2599.15 1616.42 2598.24 1618.01 2597.38 1619.76 2596.57 1621.65 2597.19 1623.02 2597.91 1624.36 2598.72 1625.66 2599.53 1626.96 2600.46 1628.11 2601.5 1629.12 2602.54 1630.14 2603.7 1630.95 2605 1631.56 2606.3 1632.16 2607.74 1632.47 2609.34 1632.47 2610.88 1632.47 2612.26 1632.14 2613.47 1631.47 2614.69 1630.81 2615.72 1629.89 2616.57 1628.72 2617.42 1627.54 2618.07 1626.16 2618.52 1624.56 2618.96 1622.97 2619.19 1621.23 2619.19 1619.34 2619.19 1617.85 2619 1616.45 2618.62 1615.14 2618.24 1613.83 2617.66 1612.7 2616.88 1611.74 2616.09 1610.78 2615.1 1610.02 2613.9 1609.47 2612.7 1608.91 2611.27 1608.64 2609.62 1608.64ZM2578.58 1607.46C2577.23 1607.46 2575.92 1607.7 2574.67 1608.17 2573.41 1608.64 2572.3 1609.37 2571.34 1610.34 2570.38 1611.31 2569.62 1612.55 2569.05 1614.05 2568.49 1615.55 2568.2 1617.31 2568.2 1619.34 2568.2 1621.04 2568.41 1622.62 2568.83 1624.08 2569.25 1625.54 2569.88 1626.8 2570.74 1627.87 2571.59 1628.94 2572.64 1629.77 2573.9 1630.38 2575.15 1630.99 2576.63 1631.29 2578.33 1631.29 2579.74 1631.29 2581 1630.99 2582.12 1630.38 2583.25 1629.77 2584.31 1628.89 2585.33 1627.75 2586.34 1626.6 2587.33 1625.19 2588.3 1623.51 2589.28 1621.84 2590.33 1619.92 2591.47 1617.76 2589.87 1614.11 2587.97 1611.48 2585.77 1609.87 2583.57 1608.27 2581.17 1607.46 2578.58 1607.46ZM2578.09 1603.33C2579.82 1603.33 2581.42 1603.61 2582.89 1604.16 2584.37 1604.71 2585.72 1605.49 2586.97 1606.49 2588.21 1607.49 2589.34 1608.68 2590.37 1610.08 2591.4 1611.47 2592.34 1613 2593.21 1614.68 2594.34 1612.41 2595.56 1610.54 2596.86 1609.06 2598.15 1607.59 2599.5 1606.43 2600.91 1605.58 2602.31 1604.73 2603.77 1604.14 2605.27 1603.81 2606.76 1603.49 2608.28 1603.33 2609.82 1603.33 2612.04 1603.33 2614.05 1603.76 2615.84 1604.63 2617.64 1605.49 2619.17 1606.67 2620.42 1608.17 2621.68 1609.67 2622.64 1611.41 2623.32 1613.4 2624 1615.39 2624.33 1617.49 2624.33 1619.7 2624.33 1622.11 2623.98 1624.34 2623.28 1626.39 2622.58 1628.44 2621.58 1630.23 2620.28 1631.74 2618.98 1633.25 2617.4 1634.44 2615.54 1635.3 2613.67 1636.17 2611.58 1636.6 2609.26 1636.6 2607.53 1636.6 2605.95 1636.28 2604.54 1635.65 2603.12 1635.01 2601.82 1634.16 2600.65 1633.1 2599.47 1632.03 2598.4 1630.77 2597.42 1629.33 2596.45 1627.88 2595.56 1626.35 2594.75 1624.73 2593.67 1626.89 2592.51 1628.71 2591.26 1630.2 2590.02 1631.68 2588.73 1632.9 2587.39 1633.85 2586.06 1634.79 2584.68 1635.47 2583.28 1635.89 2581.87 1636.31 2580.47 1636.52 2579.06 1636.52 2576.34 1636.52 2573.97 1636.05 2571.97 1635.12 2569.97 1634.19 2568.31 1632.95 2566.99 1631.39 2565.66 1629.84 2564.68 1628.05 2564.03 1626.02 2563.38 1624 2563.06 1621.89 2563.06 1619.7 2563.06 1617.35 2563.41 1615.18 2564.11 1613.18 2564.81 1611.18 2565.81 1609.45 2567.11 1607.99 2568.41 1606.53 2569.98 1605.39 2571.83 1604.56 2573.68 1603.74 2575.77 1603.33 2578.09 1603.33Z" fill="#FF0000" fill-rule="evenodd"/><text fill="#000000" fill-opacity="0" font-family="Arial,Arial_MSFontService,sans-serif" font-size="33.2729" x="2563.06" y="1632.44">∞</text><path d="M250.5 1026.67C250.5 1008.35 265.35 993.5 283.668 993.5L651.25 993.5 651.25 993.5 823 993.5 904.333 993.5C922.65 993.5 937.5 1008.35 937.5 1026.67L937.5 1109.58 937.5 1109.58 937.5 1159.33 937.5 1159.33C937.5 1177.65 922.65 1192.5 904.333 1192.5L823 1192.5 814.987 1276.75 651.25 1192.5 283.668 1192.5C265.35 1192.5 250.5 1177.65 250.5 1159.33L250.5 1159.33 250.5 1109.58 250.5 1109.58Z" stroke="#2F528F" stroke-width="4.58333" stroke-miterlimit="8" fill="#4472C4" fill-rule="evenodd"/><text fill="#FFFFFF" font-family="DengXian,DengXian_MSFontService,sans-serif" font-weight="400" font-size="83" transform="matrix(1 0 0 1 346.017 1120)">添加超级源点</text><path d="M2965.5 1672.83C2965.5 1654.42 2980.42 1639.5 2998.83 1639.5L3080.17 1639.5 3040.04 1559.25 3252.17 1639.5 3620.17 1639.5C3638.58 1639.5 3653.5 1654.42 3653.5 1672.83L3653.5 1672.83 3653.5 1672.83 3653.5 1722.83 3653.5 1806.17C3653.5 1824.58 3638.58 1839.5 3620.17 1839.5L3252.17 1839.5 3080.17 1839.5 3080.17 1839.5 2998.83 1839.5C2980.42 1839.5 2965.5 1824.58 2965.5 1806.17L2965.5 1722.83 2965.5 1672.83 2965.5 1672.83Z" stroke="#2F528F" stroke-width="4.58333" stroke-miterlimit="8" fill="#4472C4" fill-rule="evenodd"/><text fill="#FFFFFF" font-family="DengXian,DengXian_MSFontService,sans-serif" font-weight="400" font-size="83" transform="matrix(1 0 0 1 3061.64 1766)">添加超级汇点</text></g></svg>