<svg width="2110" height="389" xmlns="http://www.w3.org/2000/svg" xmlns:xlink="http://www.w3.org/1999/xlink" xml:space="preserve" overflow="hidden"><g transform="translate(-2597 -897)"><rect x="2864.5" y="1007.5" width="97" height="43.9999" stroke="#2F528F" stroke-width="4.58333" stroke-miterlimit="8" fill="#4472C4"/><rect x="2779.5" y="1148.5" width="97" height="44" stroke="#2F528F" stroke-width="4.58333" stroke-miterlimit="8" fill="#4472C4"/><path d="M2599.5 1107C2599.5 1092.92 2610.92 1081.5 2625 1081.5 2639.08 1081.5 2650.5 1092.92 2650.5 1107 2650.5 1121.08 2639.08 1132.5 2625 1132.5 2610.92 1132.5 2599.5 1121.08 2599.5 1107Z" stroke="#2F528F" stroke-width="4.58333" stroke-miterlimit="8" fill="#4472C4" fill-rule="evenodd"/><path d="M3153.5 1100C3153.5 1085.92 3164.92 1074.5 3179 1074.5 3193.08 1074.5 3204.5 1085.92 3204.5 1100 3204.5 1114.08 3193.08 1125.5 3179 1125.5 3164.92 1125.5 3153.5 1114.08 3153.5 1100Z" stroke="#2F528F" stroke-width="4.58333" stroke-miterlimit="8" fill="#4472C4" fill-rule="evenodd"/><path d="M0 0 221.126 59.0413" stroke="#4472C4" stroke-width="4.58333" stroke-miterlimit="8" fill="none" fill-rule="evenodd" transform="matrix(1 0 0 -1 2643.5 1088.54)"/><path d="M2643.5 1124.5 2779.94 1170.02" stroke="#4472C4" stroke-width="4.58333" stroke-miterlimit="8" fill="none" fill-rule="evenodd"/><path d="M2961.5 1029.5 3160.69 1082.24" stroke="#4472C4" stroke-width="4.58333" stroke-miterlimit="8" fill="none" fill-rule="evenodd"/><path d="M0 0 72.351 0.000360892" stroke="#4472C4" stroke-width="4.58333" stroke-miterlimit="8" fill="none" fill-rule="evenodd" transform="matrix(1 0 0 -1 2876.5 1170.5)"/><rect x="2949.5" y="1148.5" width="97.0002" height="44" stroke="#2F528F" stroke-width="4.58333" stroke-miterlimit="8" fill="#4472C4"/><path d="M0 0 114.504 51.8209" stroke="#4472C4" stroke-width="4.58333" stroke-miterlimit="8" fill="none" fill-rule="evenodd" transform="matrix(1 0 0 -1 3046.5 1170.32)"/><rect x="4012.5" y="1158.5" width="48.9998" height="44" stroke="#2F528F" stroke-width="4.58333" stroke-miterlimit="8" fill="#4472C4"/><rect x="4107.5" y="1158.5" width="48" height="44" stroke="#2F528F" stroke-width="4.58333" stroke-miterlimit="8" fill="#4472C4"/><rect x="4109.5" y="998.5" width="49" height="44" stroke="#2F528F" stroke-width="4.58333" stroke-miterlimit="8" fill="#4472C4"/><rect x="4213.5" y="998.5" width="48" height="44" stroke="#2F528F" stroke-width="4.58333" stroke-miterlimit="8" fill="#4472C4"/><rect x="4241.5" y="1158.5" width="49" height="44" stroke="#2F528F" stroke-width="4.58333" stroke-miterlimit="8" fill="#4472C4"/><rect x="4336.5" y="1158.5" width="49" height="44" stroke="#2F528F" stroke-width="4.58333" stroke-miterlimit="8" fill="#4472C4"/><path d="M4061 1178.85 4084.44 1178.85 4084.44 1181.15 4061 1181.15ZM4079.86 1166.25 4107.36 1180 4079.86 1193.75Z" fill="#4472C4"/><path d="M4290 1178.85 4313.44 1178.85 4313.44 1181.15 4290 1181.15ZM4308.86 1166.25 4336.36 1180 4308.86 1193.75Z" fill="#4472C4"/><path d="M3935.5 1064.5C3949.86 1064.5 3961.5 1076.14 3961.5 1090.5 3961.5 1104.86 3949.86 1116.5 3935.5 1116.5 3939.83 1099.44 3939.83 1081.56 3935.5 1064.5Z" stroke="#2F528F" stroke-width="4.58333" stroke-miterlimit="8" fill="#4472C4" fill-rule="evenodd"/><path d="M3872.5 1116.5C3858.14 1116.5 3846.5 1104.86 3846.5 1090.5 3846.5 1076.14 3858.14 1064.5 3872.5 1064.5 3868.17 1081.56 3868.17 1099.44 3872.5 1116.5Z" stroke="#2F528F" stroke-width="4.58333" stroke-miterlimit="8" fill="#4472C4" fill-rule="evenodd"/><path d="M3869 1088.85 3915.68 1088.85 3915.68 1091.15 3869 1091.15ZM3911.1 1076.25 3938.6 1090 3911.1 1103.75Z" fill="#4472C4"/><path d="M0.488093-1.03668 128.368 59.172 127.391 61.2454-0.488093 1.03668ZM129.59 45.8162 148.613 69.9705 117.876 70.6964Z" fill="#C00000" transform="matrix(1 0 0 -1 3961 1089.97)"/><path d="M4499.5 1064.5C4513.86 1064.5 4525.5 1076.14 4525.5 1090.5 4525.5 1104.86 4513.86 1116.5 4499.5 1116.5 4503.83 1099.44 4503.83 1081.56 4499.5 1064.5Z" stroke="#2F528F" stroke-width="4.58333" stroke-miterlimit="8" fill="#4472C4" fill-rule="evenodd"/><path d="M4436.5 1116.5C4422.14 1116.5 4410.5 1104.86 4410.5 1090.5 4410.5 1076.14 4422.14 1064.5 4436.5 1064.5 4432.17 1081.56 4432.17 1099.44 4436.5 1116.5Z" stroke="#2F528F" stroke-width="4.58333" stroke-miterlimit="8" fill="#4472C4" fill-rule="evenodd"/><path d="M4433 1088.85 4479.68 1088.85 4479.68 1091.15 4433 1091.15ZM4475.1 1076.25 4502.6 1090 4475.1 1103.75Z" fill="#4472C4"/><path d="M4261.49 1018.96 4389.75 1079.19 4388.78 1081.27 4260.51 1021.04ZM4390.96 1065.84 4410.01 1089.97 4379.27 1090.73Z" fill="#C00000"/><path d="M4235.9 998.101 4235.55 994.235 4235.59 994.426 4234.57 990.567 4234.63 990.731 4232.96 986.888 4233.03 987.022 4230.74 983.202 4230.81 983.308 4227.91 979.518 4227.98 979.601 4224.49 975.849 4224.56 975.914 4220.51 972.207 4220.57 972.258 4215.98 968.604 4216.03 968.644 4210.92 965.05 4210.97 965.083 4205.36 961.557 4205.4 961.584 4199.31 958.133 4199.36 958.155 4192.81 954.788 4192.85 954.806 4185.87 951.529 4185.91 951.545 4178.52 948.366 4178.55 948.379 4170.77 945.306 4170.8 945.318 4162.66 942.358 4162.7 942.372 4145.38 936.823 4145.44 936.838 4126.91 931.833 4126.96 931.845 4107.39 927.444 4107.44 927.453 4087 923.717 4087.05 923.724 4065.92 920.713 4065.96 920.718 4044.31 918.493 4044.36 918.496 4022.36 917.117 4022.41 917.119 4000.24 916.645 4000.29 916.645 3978.13 917.146 3978.18 917.143 3956.18 918.602 3956.23 918.598 3934.58 920.951 3934.63 920.944 3913.5 924.128 3913.55 924.12 3893.11 928.069 3893.16 928.059 3873.59 932.711 3873.64 932.698 3855.12 937.989 3855.17 937.973 3837.86 943.839 3837.9 943.823 3829.75 946.952 3829.78 946.94 3822.01 950.188 3822.04 950.174 3814.65 953.534 3814.68 953.517 3807.71 956.981 3807.75 956.961 3801.2 960.521 3801.25 960.497 3795.16 964.145 3795.2 964.116 3789.59 967.844 3789.64 967.809 3784.53 971.608 3784.58 971.566 3779.99 975.429 3780.05 975.375 3776 979.295 3776.06 979.228 3772.58 983.195 3772.65 983.11 3769.74 987.117 3769.81 987.011 3767.52 991.05 3767.58 990.919 3765.92 994.981 3765.97 994.823 3764.95 998.902 3764.98 998.721 3764.64 1002.81 3764.64 1002.65 3765.12 1010.81 3765.1 1010.69 3766.48 1018.79 3766.46 1018.67 3768.68 1026.65 3768.65 1026.54 3771.66 1034.32 3771.61 1034.23 3775.35 1041.75 3775.3 1041.67 3779.7 1048.87 3779.65 1048.79 3784.65 1055.62 3784.6 1055.54 3790.14 1061.92 3790.08 1061.85 3796.11 1067.72 3796.04 1067.65 3802.49 1072.94 3802.41 1072.88 3809.23 1077.53 3809.14 1077.48 3816.26 1081.43 3816.05 1081.34 3823.98 1083.83 3823.29 1086.02 3815.25 1083.49 3807.98 1079.46 3801.08 1074.75 3794.55 1069.39 3788.45 1063.46 3782.84 1057.01 3777.77 1050.11 3773.32 1042.82 3769.54 1035.2 3766.49 1027.31 3764.23 1019.23 3762.83 1011.01 3762.35 1002.7 3762.71 998.438 3763.76 994.189 3765.49 989.982 3767.85 985.824 3770.82 981.722 3774.37 977.68 3778.49 973.701 3783.13 969.79 3788.3 965.952 3793.96 962.193 3800.09 958.519 3806.67 954.938 3813.68 951.456 3821.11 948.08 3828.92 944.818 3837.1 941.676 3854.46 935.793 3873.04 930.488 3892.65 925.824 3913.14 921.865 3934.31 918.675 3956.01 916.317 3978.05 914.855 4000.27 914.354 4022.48 914.828 4044.53 916.211 4066.22 918.441 4087.39 921.458 4107.87 925.203 4127.48 929.614 4146.06 934.633 4163.42 940.197 4171.6 943.169 4179.41 946.254 4186.83 949.447 4193.84 952.741 4200.42 956.128 4206.56 959.603 4212.21 963.159 4217.38 966.789 4222.03 970.49 4226.14 974.255 4229.7 978.082 4232.67 981.967 4235.04 985.907 4236.77 989.9 4237.83 993.936 4238.18 997.899ZM3822.16 1070.51 3846 1089.92 3816.16 1097.34Z" fill="#C00000"/><path d="M4525.36 1088.78 4533.08 1088.28 4532.94 1088.3 4540.61 1086.84 4540.48 1086.87 4548.02 1084.52 4547.91 1084.56 4555.27 1081.38 4555.17 1081.43 4562.29 1077.48 4562.2 1077.53 4569.02 1072.88 4568.94 1072.94 4575.39 1067.65 4575.32 1067.71 4581.35 1061.85 4581.29 1061.92 4586.84 1055.54 4586.78 1055.62 4591.78 1048.79 4591.73 1048.87 4596.13 1041.66 4596.08 1041.75 4599.82 1034.23 4599.77 1034.32 4602.79 1026.54 4602.75 1026.64 4604.98 1018.67 4604.95 1018.79 4606.33 1010.68 4606.32 1010.81 4606.79 1002.65 4606.79 1002.81 4606.45 998.721 4606.48 998.902 4605.46 994.823 4605.51 994.981 4603.85 990.918 4603.91 991.05 4601.61 987.011 4601.68 987.117 4598.78 983.11 4598.85 983.195 4595.36 979.228 4595.42 979.295 4591.37 975.376 4591.43 975.429 4586.83 971.566 4586.89 971.609 4581.77 967.809 4581.82 967.844 4576.2 964.117 4576.25 964.145 4570.16 960.498 4570.2 960.521 4563.65 956.961 4563.69 956.981 4556.7 953.517 4556.74 953.534 4549.35 950.174 4549.38 950.188 4541.59 946.94 4541.62 946.952 4533.47 943.823 4533.51 943.839 4516.19 937.973 4516.24 937.99 4497.7 932.699 4497.75 932.712 4478.16 928.059 4478.21 928.069 4457.76 924.12 4457.81 924.128 4436.66 920.945 4436.71 920.951 4415.04 918.598 4415.09 918.602 4393.08 917.144 4393.13 917.146 4370.94 916.646 4370.99 916.646 4348.8 917.119 4348.85 917.117 4326.84 918.497 4326.88 918.493 4305.22 920.719 4305.26 920.713 4284.12 923.724 4284.16 923.717 4263.71 927.453 4263.76 927.444 4244.17 931.845 4244.22 931.833 4225.68 936.838 4225.73 936.823 4208.4 942.372 4208.44 942.358 4200.29 945.318 4200.32 945.307 4192.53 948.379 4192.57 948.366 4185.17 951.545 4185.21 951.529 4178.22 954.806 4178.26 954.788 4171.71 958.155 4171.75 958.133 4165.66 961.584 4165.71 961.557 4160.09 965.083 4160.14 965.05 4155.02 968.644 4155.08 968.604 4150.48 972.258 4150.69 972.049 4145.82 978.532 4143.99 977.157 4148.94 970.556 4153.68 966.789 4158.85 963.158 4164.51 959.603 4170.64 956.128 4177.23 952.74 4184.25 949.447 4191.68 946.254 4199.49 943.169 4207.68 940.197 4225.05 934.633 4243.65 929.614 4263.28 925.203 4283.77 921.459 4304.96 918.441 4326.67 916.211 4348.73 914.828 4370.97 914.354 4393.2 914.855 4415.27 916.317 4436.98 918.675 4458.17 921.865 4478.67 925.824 4498.3 930.488 4516.9 935.794 4534.27 941.676 4542.46 944.818 4550.28 948.08 4557.71 951.456 4564.72 954.938 4571.31 958.519 4577.45 962.193 4583.11 965.951 4588.28 969.789 4592.93 973.7 4597.05 977.679 4600.6 981.722 4603.58 985.823 4605.94 989.981 4607.67 994.188 4608.72 998.437 4609.08 1002.7 4608.6 1011.01 4607.2 1019.23 4604.94 1027.31 4601.89 1035.2 4598.11 1042.82 4593.66 1050.11 4588.6 1057.01 4582.98 1063.46 4576.88 1069.39 4570.35 1074.75 4563.45 1079.46 4556.23 1083.46 4548.76 1086.69 4541.1 1089.08 4533.3 1090.56 4525.51 1091.07ZM4159.18 980.357 4134 998 4134.99 967.27Z" fill="#C00000"/><path d="M0.0444162 1.14497-7.67982 1.44461-7.59449 1.43811-15.2583 2.31153-15.1777 2.29942-22.7206 3.70837-22.6438 3.69127-30.0055 5.5975-29.9315 5.57565-37.0515 7.94091-36.9793 7.9142-43.7971 10.7002-43.7257 10.6681-50.181 13.8367-50.1093 13.7983-56.1416 17.3111-56.0687 17.2648-61.6176 21.0836-61.5425 21.0273-66.5477 25.1139-66.47 25.0444-70.871 29.3605-70.7911 29.2737-74.5273 33.7811-74.4471 33.6717-77.4582 38.3321-77.3821 38.1943-79.6077 42.9694-79.5441 42.7988-80.9238 47.6504-80.8855 47.4474-81.3588 52.3373-81.3677 52.0467-80.978 54.4941-81.0733 54.1852-79.9207 56.6278-80.0522 56.4136-78.1612 58.8466-78.2862 58.7101-75.6815 61.1288-75.7865 61.0423-72.4926 63.4418-72.5776 63.3855-68.6192 65.7611-68.6879 65.723-64.0896 68.0699-64.1457 68.0432-58.9321 70.3566-58.9786 70.3372-53.1743 72.6124-53.2136 72.5978-46.8432 74.83-46.8768 74.8188-39.9649 77.0031-39.9941 76.9943-32.5654 79.1261-32.5912 79.119-24.6702 81.1934-24.6932 81.1876-16.3046 83.1998-16.3254 83.1951-7.49383 85.1403-7.51284 85.1363 1.73717 87.0099 1.71961 87.0065 11.3634 88.8035 11.347 88.8006 21.36 90.5163 21.3372 90.5127 42.3722 93.6812 42.3441 93.6773 64.5606 96.4634 64.5342 96.4604 87.7351 98.8256 87.7097 98.8233 111.698 100.73 111.673 100.728 136.252 102.137 136.227 102.136 161.2 103.009 161.173 103.008 186.343 103.308 186.316 103.308 211.486 103.008 211.459 103.009 236.432 102.136 236.407 102.137 260.986 100.728 260.961 100.73 284.949 98.8233 284.924 98.8256 308.125 96.4604 308.099 96.4634 330.315 93.6774 330.287 93.6812 351.322 90.5127 351.299 90.5164 361.312 88.8006 361.296 88.8036 370.94 87.0065 370.922 87.0099 380.172 85.1364 380.153 85.1404 388.985 83.1951 388.964 83.1999 397.352 81.1877 397.329 81.1935 405.25 79.1191 405.225 79.1262 412.653 76.9944 412.624 77.0032 419.536 74.8189 419.502 74.8301 425.873 72.5979 425.834 72.6125 431.638 70.3373 431.591 70.3568 436.805 68.0433 436.749 68.0701 441.347 65.7232 441.278 65.7613 445.237 63.3857 445.152 63.442 448.446 61.0425 448.341 61.129 450.945 58.7104 450.82 58.8469 452.711 56.4139 452.58 56.6281 453.733 54.1855 453.637 54.4944 454.027 52.0471 454.018 52.3377 453.545 47.4478 453.583 47.6508 452.203 42.7991 452.267 42.9698 450.041 38.1946 450.118 38.3324 447.106 33.672 447.187 33.7814 443.45 29.2741 443.53 29.3609 439.129 25.0448 439.207 25.1143 434.202 21.0277 434.277 21.084 428.728 17.2652 428.801 17.3114 422.769 13.7986 422.84 13.8371 416.385 10.6685 416.456 10.7006 409.639 7.91456 409.711 7.94127 402.591 5.57601 402.743 5.61528 395.159 4.21066 395.576 1.95731 403.238 3.37631 410.47 5.77861 417.36 8.59403 423.887 11.7978 429.992 15.3528 435.615 19.2228 440.697 23.3721 445.177 27.7661 448.994 32.3713 452.085 37.155 454.383 42.0844 455.816 47.1237 456.313 52.2627 455.875 55.016 454.598 57.7205 452.573 60.3266 449.85 62.8547 446.46 65.3244 442.424 67.7465 437.763 70.1254 432.498 72.4617 426.65 74.7538 420.244 76.9987 413.3 79.193 405.844 81.3326 397.899 83.4134 389.488 85.4308 380.637 87.3805 371.368 89.2578 361.707 91.058 351.675 92.7771 330.614 95.9495 308.371 98.7389 285.144 101.107 261.13 103.015 236.525 104.425 211.526 105.3 186.329 105.6 161.133 105.3 136.134 104.425 111.529 103.015 87.5154 101.107 64.2886 98.7389 42.0449 95.9494 20.9844 92.777 10.9518 91.0579 1.291 89.2577-7.97729 87.3804-16.8288 85.4308-25.2393 83.4133-33.1847 81.3325-40.6409 79.1929-47.5843 76.9986-53.9911 74.7536-59.8385 72.4616-65.1036 70.1252-69.7647 67.7463-73.8006 65.3242-77.1909 62.8545-79.9136 60.3263-81.9392 57.7201-83.2155 55.0156-83.6539 52.2624-83.1565 47.1234-81.7234 42.0841-79.4259 37.1547-76.335 32.3709-72.5177 27.7657-68.0374 23.3718-62.9555 19.2225-57.3322 15.3525-51.2273 11.7974-44.7003 8.59367-37.8105 5.77824-30.6173 3.38868-23.1801 1.4629-15.5583 0.0392215-7.81144-0.843671-0.0444162-1.14497ZM398.059 17.3257 372.659 0.000360892 401.759-9.92424Z" fill="#C00000" transform="matrix(-1 0 0 1 4384.66 1180)"/><path d="M3962 1089.43 4001.81 1159.56 3999.82 1160.7 3960 1090.57ZM4010.51 1149.36 4012.13 1180.06 3986.6 1162.93Z" fill="#C00000"/><path d="M1.1015-0.315648 20.5959 67.7129 18.3929 68.3442-1.1015 0.315648ZM31.4498 59.8348 25.8074 90.0585 5.01386 67.4103Z" fill="#C00000" transform="matrix(1 0 0 -1 4385 1180.06)"/><path d="M0.0825576 1.14286-7.64173 1.70084-7.48641 1.67886-15.1503 3.30533-15.0117 3.26669-22.5547 5.89042-22.4335 5.8403-29.7953 9.39005-29.6901 9.33239-36.8102 13.7369-36.7191 13.6743-43.5371 18.8624-43.4579 18.7963-49.9133 24.6967-49.844 24.6278-55.8764 31.1693-55.8154 31.0974-61.3644 38.2087-61.3104 38.1335-66.3156 45.7435-66.2679 45.6642-70.6689 53.7016-70.6271 53.6172-74.3634 62.0108-74.3277 61.9204-77.3388 70.5989-77.3098 70.5015-79.5355 79.3937-79.5143 79.2884-80.894 88.3231-80.8824 88.2096-81.3558 97.3154-81.3559 97.1937-81.1079 101.751-81.1209 101.631-80.3874 106.179-80.4111 106.068-79.2078 110.598-79.2399 110.497-77.5824 115.001-77.6203 114.91-75.5242 119.378-75.5659 119.298-73.0469 123.722-73.0905 123.651-70.1644 128.022-70.2087 127.96-66.891 132.268-66.9351 132.214-63.2415 136.451-63.2849 136.404-59.2311 140.561-59.2941 140.501-50.1684 148.538-50.2482 148.474-39.8696 156.084-39.9448 156.034-28.4385 163.145-28.51 163.104-16.0014 169.646-16.0702 169.613-2.68453 175.513-2.75195 175.486 11.3855 180.674 11.3183 180.652 26.0822 185.056 26.0141 185.038 41.2792 188.588 41.2093 188.574 56.8502 191.198 56.7773 191.188 72.6689 192.814 72.5921 192.809 88.609 193.367 88.5352 193.367 104.552 192.894 104.487 192.897 120.378 191.518 120.316 191.525 135.957 189.299 135.897 189.309 151.162 186.298 151.102 186.312 165.866 182.575 165.807 182.592 179.944 178.191 179.883 178.212 193.269 173.207 193.206 173.232 205.714 167.683 205.647 167.716 217.153 161.684 217.08 161.725 227.458 155.27 227.378 155.325 236.503 148.507 236.437 148.561 240.491 145.034 240.444 145.078 244.138 141.484 244.088 141.535 247.406 137.88 247.227 138.143 249.911 132.706 251.966 133.721 249.211 139.302 245.761 143.101 242.019 146.743 237.909 150.318 228.71 157.19 218.254 163.694 206.678 169.763 194.104 175.341 180.656 180.37 166.458 184.789 151.635 188.541 136.31 191.564 120.608 193.798 104.652 195.183 88.566 195.659 72.4738 195.098 56.5074 193.464 40.7949 190.828 25.4608 187.262 10.6292 182.838-3.5756 177.625-17.0295 171.694-29.6084 165.116-41.1882 157.959-51.6446 150.292-60.8414 142.192-64.9479 137.981-68.6854 133.694-72.0475 129.328-75.0179 124.892-77.5797 120.393-79.716 115.839-81.409 111.238-82.6407 106.601-83.3929 101.936-83.6475 97.2574-83.1681 88.0336-81.7716 78.8894-79.5206 69.8957-76.4768 61.1232-72.7016 52.6422-68.2557 44.5229-63.1996 36.8355-57.5931 29.6504-51.4955 23.0382-44.9659 17.07-38.0628 11.8171-30.8447 7.3519-23.3697 3.74754-15.6965 1.07855-7.88526-0.579203-0.0825576-1.14286ZM236.478 132.234 259.638 112.012 261.92 142.673Z" fill="#C00000" transform="matrix(-1 0 0 1 4525.64 1090)"/><path d="M0.0787524 1.14312-3.78719 1.40946-3.63672 1.38901-7.49511 2.17679-7.35911 2.14019-11.2024 3.43261-11.0837 3.38516-14.9043 5.16539-14.8031 5.11194-18.5935 7.36316-18.5086 7.30746-22.2612 10.0129-22.1904 9.95742-25.8977 13.1002-25.8387 13.0465-29.4932 16.6098-29.4439 16.5587-33.038 20.5257-32.9967 20.4775-36.5227 24.8313-36.4725 24.7645-43.2905 34.5656-43.2396 34.4855-49.695 45.6323-49.6568 45.5607-55.6893 57.9186-55.6599 57.8534-61.209 71.2878-61.1859 71.2271-66.1911 85.6035-66.1727 85.5457-70.5736 100.73-70.5589 100.673-74.2952 116.53-74.2835 116.474-77.2947 132.869-77.2857 132.813-79.5114 149.611-79.5052 149.553-80.8849 166.621-80.8816 166.56-81.3549 183.762-81.3551 183.694-80.7971 200.896-80.8017 200.825-79.1752 217.892-79.1838 217.824-76.56 234.623-76.5722 234.557-73.0225 250.952-73.0383 250.888-68.6338 266.745-68.6535 266.681-63.4654 281.865-63.4897 281.8-57.5892 296.177-57.6191 296.11-51.0775 309.544-51.1146 309.474-44.0032 321.832-44.05 321.758-36.44 332.905-36.5003 332.824-28.4629 342.625-28.5201 342.56-24.3634 346.914-24.4091 346.869-20.1722 350.836-20.2251 350.79-15.917 354.353-15.9783 354.306-11.6079 357.448-11.6791 357.401-7.25523 360.106-7.33748 360.061-2.86913 362.312-2.9635 362.27 1.54047 364.05 1.4336 364.013 5.96428 365.306 5.8455 365.279 10.394 366.067 10.2653 366.052 14.8227 366.318 14.6963 366.318 23.8023 365.844 23.6888 365.856 32.7234 364.476 32.6182 364.497 41.5104 362.272 41.413 362.301 50.0915 359.29 50.0012 359.325 58.3947 355.589 58.3104 355.631 66.3478 351.23 66.2685 351.278 73.8785 346.272 73.8032 346.326 80.9146 340.777 80.8427 340.838 87.3842 334.806 87.3152 334.875 93.2157 328.42 93.1496 328.499 98.3377 321.681 98.2751 321.772 102.68 314.652 102.573 314.874 105.414 306.824 107.575 307.586 104.693 315.753 100.195 323.025 94.942 329.928 88.9737 336.458 82.3616 342.555 75.1765 348.162 67.489 353.218 59.3697 357.664 50.8887 361.439 42.1162 364.482 33.1225 366.733 23.9783 368.13 14.7521 368.609 10.0668 368.336 5.3943 367.526 0.750628 366.202-3.85401 364.382-8.41066 362.086-12.9111 359.334-17.3477 356.143-21.7128 352.533-25.9988 348.52-30.2075 344.112-38.3043 334.238-45.9675 323.014-53.1206 310.583-59.6954 297.08-65.6228 282.638-70.8329 267.39-75.2552 251.469-78.8191 235.01-81.4533 218.144-83.0864 201.006-83.6467 183.734-83.1716 166.467-81.787 149.339-79.5538 132.483-76.5323 116.032-72.7828 100.12-68.3653 84.8787-63.3395 70.4429-57.7644 56.9454-51.6984 44.5189-45.1989 33.2959-38.3299 23.4215-34.7576 19.0105-31.1184 14.9938-27.41 11.3779-23.6379 8.18023-19.8075 5.41878-15.9241 3.11234-11.9935 1.28088-8.02268-0.0544372-4.02061-0.87156-0.0787524-1.14312ZM92.0453 308.343 112.012 284.962 118.736 314.964Z" fill="#C00000" transform="matrix(-6.12323e-17 -1 -1 6.12323e-17 4130.96 1202.01)"/><path d="M4.81424e-06-1.14583 62.979-1.14557 62.979 1.1461-4.81424e-06 1.14583ZM58.3957-13.7498 85.8956 0.000360892 58.3956 13.7502Z" fill="#C00000" transform="matrix(1 0 0 -1 4155 1180)"/><path d="M4158 1018.85 4190.04 1018.85 4190.04 1021.15 4158 1021.15ZM4185.46 1006.25 4212.96 1020 4185.46 1033.75Z" fill="#4472C4"/><path d="M3660.5 1090.5C3660.5 1065.09 3681.09 1044.5 3706.5 1044.5 3731.91 1044.5 3752.5 1065.09 3752.5 1090.5 3752.5 1115.91 3731.91 1136.5 3706.5 1136.5 3681.09 1136.5 3660.5 1115.91 3660.5 1090.5Z" stroke="#2F528F" stroke-width="4.58333" stroke-miterlimit="8" fill="#00B050" fill-rule="evenodd"/><path d="M3701 1061.27C3703.49 1061.27 3705.79 1061.44 3707.91 1061.78 3710.03 1062.11 3712.38 1062.69 3714.95 1063.5L3712.68 1073.91 3708.78 1073.91C3708.68 1071.62 3708.33 1069.81 3707.73 1068.5 3707.14 1067.19 3706.29 1066.25 3705.18 1065.69 3704.07 1065.12 3702.6 1064.84 3700.76 1064.84 3698.52 1064.84 3696.55 1065.29 3694.84 1066.21 3693.14 1067.13 3691.84 1068.38 3690.95 1069.96 3690.06 1071.54 3689.62 1073.31 3689.62 1075.25 3689.62 1077.28 3690.15 1079.05 3691.22 1080.58 3692.28 1082.11 3694.33 1083.91 3697.36 1085.99 3700 1087.83 3702.02 1089.47 3703.42 1090.91 3704.81 1092.36 3705.83 1093.89 3706.5 1095.51 3707.16 1097.14 3707.49 1099.01 3707.49 1101.15 3707.49 1104.44 3706.7 1107.37 3705.12 1109.92 3703.54 1112.48 3701.31 1114.45 3698.43 1115.84 3695.55 1117.23 3692.28 1117.93 3688.6 1117.93 3686.12 1117.93 3683.44 1117.72 3680.56 1117.32 3677.68 1116.91 3675.11 1116.4 3672.84 1115.78L3675.27 1104.63 3679.16 1104.63C3679.16 1107.93 3679.92 1110.38 3681.45 1111.99 3682.98 1113.6 3685.33 1114.4 3688.52 1114.4 3692.2 1114.4 3695.09 1113.4 3697.19 1111.4 3699.3 1109.4 3700.36 1106.62 3700.36 1103.05 3700.36 1101.4 3700.06 1099.95 3699.48 1098.7 3698.9 1097.44 3698.02 1096.24 3696.85 1095.09 3695.67 1093.94 3693.98 1092.62 3691.76 1091.14 3689.76 1089.79 3688.1 1088.46 3686.78 1087.15 3685.45 1085.84 3684.4 1084.37 3683.62 1082.75 3682.83 1081.13 3682.44 1079.32 3682.44 1077.32 3682.44 1074.13 3683.21 1071.32 3684.75 1068.89 3686.29 1066.46 3688.47 1064.58 3691.28 1063.26 3694.09 1061.93 3697.33 1061.27 3701 1061.27Z" fill="#FFFFFF" fill-rule="evenodd"/><text fill="#000000" fill-opacity="0" font-family="Arial,Arial_MSFontService,sans-serif" font-size="56.6572" x="3672.84" y="1110.84">𝑆</text><path d="M4612.5 1088.5C4612.5 1063.09 4633.09 1042.5 4658.5 1042.5 4683.91 1042.5 4704.5 1063.09 4704.5 1088.5 4704.5 1113.91 4683.91 1134.5 4658.5 1134.5 4633.09 1134.5 4612.5 1113.91 4612.5 1088.5Z" stroke="#2F528F" stroke-width="4.58333" stroke-miterlimit="8" fill="#00B050" fill-rule="evenodd"/><path d="M4627.52 1059.86 4669.83 1059.86 4666.67 1074.13 4662.78 1074.13C4662.78 1071.51 4662.71 1069.54 4662.58 1068.23 4662.44 1066.92 4662.19 1065.92 4661.81 1065.23 4661.43 1064.54 4660.96 1064.07 4660.41 1063.81 4659.85 1063.56 4658.88 1063.43 4657.47 1063.43L4651.47 1063.43 4642.68 1103.39C4642.44 1104.44 4642.27 1105.28 4642.17 1105.9 4642.08 1106.52 4642 1107.18 4641.93 1107.87 4641.86 1108.56 4641.83 1109.17 4641.83 1109.71 4641.83 1110.55 4641.96 1111.2 4642.23 1111.68 4642.5 1112.15 4642.91 1112.49 4643.45 1112.71 4643.99 1112.93 4644.92 1113.09 4646.24 1113.2L4645.8 1115.18 4628.74 1115.18 4629.18 1113.2C4630.26 1113.04 4631.06 1112.82 4631.57 1112.55 4632.09 1112.28 4632.54 1111.86 4632.93 1111.29 4633.32 1110.73 4633.71 1109.83 4634.11 1108.62 4634.5 1107.4 4634.96 1105.56 4635.5 1103.11L4644.18 1063.43 4639.03 1063.43C4637.36 1063.43 4636.02 1063.67 4635.02 1064.16 4634.02 1064.65 4633.02 1065.55 4632.02 1066.87 4631.02 1068.2 4629.8 1070.41 4628.37 1073.52L4624.48 1073.52Z" fill="#FFFFFF" fill-rule="evenodd"/><text fill="#000000" fill-opacity="0" font-family="Arial,Arial_MSFontService,sans-serif" font-size="55.3198" x="4624.48" y="1108.27">𝑇</text><path d="M0.070497 1.14366-7.65382 1.6198-7.52014 1.60363-15.184 2.99153-15.0622 2.9625-22.6052 5.20136-22.4953 5.16254-29.857 8.19159-29.7581 8.14526-36.8782 11.9037-36.7891 11.8514-43.607 16.2785-43.5263 16.221-49.9817 21.2559-49.9082 21.1934-55.9406 26.7754-55.8732 26.7076-61.4222 32.7758-61.3603 32.7021-66.3654 39.1958-66.3086 39.1151-70.7095 45.9735-70.658 45.8847-74.3943 53.047-74.3487 52.9487-77.3599 60.3541-77.3218 60.245-79.5475 67.8329-79.5191 67.7122-80.8988 75.4216-80.883 75.2894-81.3563 83.0596-81.3574 82.9033-80.7683 90.6735-80.7924 90.5109-79.0751 98.2203-79.1171 98.0765-76.3468 105.664-76.4008 105.54-72.6528 112.945-72.7141 112.839-68.0635 120.001-68.1292 119.91-62.6512 126.768-62.7197 126.69-56.4896 133.184-56.5602 133.116-49.6532 139.185-49.7258 139.126-42.2172 144.708-42.2923 144.656-34.2572 149.691-34.3356 149.646-25.8492 154.074-25.9318 154.035-17.0693 157.793-17.157 157.76-7.99365 160.789-8.17073 160.746-2.3255 161.689-2.69059 163.951-8.62609 162.994-17.9208 159.921-26.8686 156.126-35.4357 151.657-43.5478 146.574-51.1306 140.937-58.1094 134.806-64.4094 128.239-69.9549 121.296-74.6696 114.035-78.4762 106.514-81.2956 98.7919-83.0472 90.9288-83.6485 82.9984-83.1663 75.0835-81.764 67.2474-79.5046 59.5445-76.4512 52.0352-72.666 44.7792-68.2107 37.8359-63.1459 31.2649-57.5321 25.1258-51.4291 19.4786-44.8966 14.3835-37.9937 9.90122-30.7796 6.09311-23.3133 3.02104-15.6541 0.747715-7.86213-0.663375-0.070497-1.14366ZM-5.15183 148.57 20.1898 165.98-8.94338 175.807Z" fill="#00B050" transform="matrix(1.83697e-16 1 1 -1.83697e-16 3706 1044)"/><path d="M3707.14 1136.09 3707.8 1143.82 3707.77 1143.63 3709.69 1151.3 3709.63 1151.14 3712.72 1158.68 3712.66 1158.55 3716.84 1165.92 3716.77 1165.81 3721.96 1172.93 3721.89 1172.84 3728 1179.65 3727.93 1179.58 3734.88 1186.03 3734.8 1185.97 3742.51 1192 3742.44 1191.95 3750.81 1197.5 3750.74 1197.46 3759.7 1202.46 3759.63 1202.42 3769.1 1206.82 3769.02 1206.79 3778.91 1210.53 3778.82 1210.5 3789.05 1213.51 3788.96 1213.49 3799.44 1215.71 3799.35 1215.7 3809.99 1217.08 3809.89 1217.07 3820.62 1217.54 3820.51 1217.54 3831.23 1216.95 3831.11 1216.97 3841.76 1215.25 3841.65 1215.27 3852.12 1212.5 3852.02 1212.54 3862.24 1208.79 3862.15 1208.83 3872.04 1204.18 3871.95 1204.22 3881.42 1198.74 3881.34 1198.79 3890.3 1192.56 3890.23 1192.62 3898.61 1185.71 3898.54 1185.78 3906.24 1178.27 3906.17 1178.34 3913.12 1170.3 3913.06 1170.38 3919.17 1161.9 3919.11 1161.99 3924.3 1153.13 3924.25 1153.23 3928.43 1144.07 3928.36 1144.29 3929.72 1138.26 3931.96 1138.76 3930.56 1144.91 3926.31 1154.23 3921.06 1163.19 3914.89 1171.77 3907.88 1179.88 3900.1 1187.45 3891.65 1194.42 3882.61 1200.7 3873.06 1206.23 3863.08 1210.92 3852.76 1214.71 3842.18 1217.5 3831.42 1219.24 3820.57 1219.84 3809.74 1219.36 3799.01 1217.97 3788.44 1215.72 3778.14 1212.69 3768.17 1208.92 3758.62 1204.48 3749.58 1199.44 3741.13 1193.84 3733.35 1187.75 3726.33 1181.22 3720.14 1174.32 3714.88 1167.1 3710.63 1159.62 3707.48 1151.93 3705.52 1144.1 3704.86 1136.29ZM3916.47 1140.43 3935.14 1116 3943.48 1145.59Z" fill="#00B050"/><path d="M4434.86 1064.17 4435.5 1054.29 4437.38 1044.43 4440.41 1034.73 4444.51 1025.28 4449.6 1016.14 4455.58 1007.4 4462.38 999.126 4469.92 991.398 4478.11 984.291 4486.88 977.879 4496.14 972.24 4505.81 967.451 4515.82 963.589 4526.09 960.733 4536.52 958.961 4547.04 958.353 4557.55 958.831 4567.96 960.224 4578.21 962.469 4588.2 965.506 4597.87 969.274 4607.12 973.713 4615.89 978.761 4624.08 984.361 4631.62 990.453 4638.43 996.978 4644.43 1003.88 4649.57 1011.15 4652.96 1019.51 4650.84 1020.37 4647.5 1012.14 4647.62 1012.37 4642.59 1005.25 4642.66 1005.34 4636.74 998.521 4636.81 998.596 4630.07 992.141 4630.15 992.205 4622.68 986.173 4622.75 986.227 4614.63 980.678 4614.71 980.725 4606.02 975.72 4606.09 975.76 4596.92 971.359 4596.99 971.394 4587.41 967.657 4587.49 967.686 4577.58 964.675 4577.67 964.698 4567.52 962.472 4567.61 962.489 4557.3 961.109 4557.4 961.118 4547 960.645 4547.12 960.644 4536.72 961.245 4536.84 961.231 4526.53 962.982 4526.64 962.957 4516.49 965.782 4516.6 965.747 4506.69 969.57 4506.78 969.528 4497.2 974.272 4497.29 974.224 4488.11 979.811 4488.19 979.758 4479.5 986.112 4479.57 986.053 4471.45 993.098 4471.52 993.032 4464.05 1000.69 4464.12 1000.62 4457.38 1008.81 4457.44 1008.73 4451.52 1017.39 4451.57 1017.3 4446.54 1026.34 4446.59 1026.24 4442.54 1035.59 4442.58 1035.47 4439.59 1045.05 4439.62 1044.92 4437.76 1054.65 4437.78 1054.51 4437.14 1064.32ZM4663.9 1011.81 4658.1 1042 4637.42 1019.25Z" fill="#00B050"/><path d="M0.0553839-1.14449 9.53072-0.685968 18.9817 0.657657 28.2783 2.82388 37.3476 5.7534 46.1169 9.3874 54.5134 13.6675 62.4644 18.5359 69.8969 23.9352 76.738 29.8082 82.9141 36.0987 88.3512 42.7506 92.9746 49.7083 96.708 56.9164 99.4738 64.3189 101.192 71.8582 101.783 79.4636 101.3 87.0545 99.8954 94.5688 97.6334 101.954 94.5771 109.152 90.789 116.105 86.331 122.758 81.264 129.054 75.6485 134.934 69.5445 140.343 63.0116 145.222 56.1092 149.514 48.8466 153.185 40.9007 155.454 40.2716 153.25 48.1125 151.012 47.9102 151.091 55.0302 147.492 54.9421 147.541 61.76 143.302 61.6794 143.357 68.1347 138.536 68.0605 138.596 74.0929 133.251 74.0241 133.317 79.5731 127.506 79.5092 127.579 84.5144 121.36 84.4551 121.441 88.856 114.873 88.8017 114.963 92.5379 108.104 92.4895 108.205 95.5006 101.113 95.4597 101.225 97.6854 93.9593 97.6546 94.0844 99.0343 86.7018 99.0171 86.8396 99.4905 79.3988 99.4916 79.5602 98.9142 72.1195 98.9394 72.2855 97.2565 64.9029 97.3003 65.0493 94.5854 57.7832 94.6413 57.9091 90.9683 50.8176 91.0314 50.9248 86.4739 44.0661 86.5411 44.1571 81.1728 37.5894 81.2423 37.667 75.137 31.4486 75.2082 31.5152 68.4395 25.7043 68.5124 25.7619 61.1541 20.4166 61.2292 20.4667 53.3548 15.6453 53.4328 15.6889 45.1162 11.4496 45.198 11.4872 36.5129 7.88813 36.5993 7.91995 27.6194 5.01931 27.7116 5.04489 18.5106 2.90094 18.6093 2.91943 9.26087 1.59038 9.36677 1.60045-0.0553839 1.14449ZM47.8313 166.905 18.1341 158.943 42.3219 139.962Z" fill="#00B050" transform="matrix(1.83697e-16 1 1 -1.83697e-16 4499 1116)"/><path d="M3473.5 1200.5 3473.5 1162.5 3305.5 1162.5 3305.5 1086.5 3473.5 1086.5 3473.5 1048.5 3549.5 1124.5Z" stroke="#2F528F" stroke-width="4.58333" stroke-miterlimit="8" fill="none" fill-rule="evenodd"/><text font-family="DengXian,DengXian_MSFontService,sans-serif" font-weight="400" font-size="83" transform="matrix(1 0 0 1 3259.55 999)">拆点建图</text></g></svg>