<svg width="1494" height="565" xmlns="http://www.w3.org/2000/svg" xmlns:xlink="http://www.w3.org/1999/xlink" xml:space="preserve" overflow="hidden"><g transform="translate(-434 -1607)"><path d="M436.5 1896C436.5 1852.09 472.093 1816.5 516 1816.5 559.907 1816.5 595.5 1852.09 595.5 1896 595.5 1939.91 559.907 1975.5 516 1975.5 472.093 1975.5 436.5 1939.91 436.5 1896Z" stroke="#2F528F" stroke-width="4.58333" stroke-miterlimit="8" fill="#4472C4" fill-rule="evenodd"/><path d="M506.68 1883.8C509.193 1883.8 511.483 1883.95 513.549 1884.25 515.616 1884.55 517.677 1885.06 519.73 1885.79L517.906 1894.3 514.623 1894.3C514.326 1891.89 513.536 1890.07 512.253 1888.83 510.969 1887.58 508.95 1886.96 506.194 1886.96 504.059 1886.96 502.33 1887.51 501.006 1888.6 499.682 1889.7 499.02 1891.14 499.02 1892.92 499.02 1893.89 499.189 1894.75 499.527 1895.49 499.865 1896.24 500.547 1897.05 501.574 1897.95 502.6 1898.84 504.194 1899.93 506.356 1901.23 508.058 1902.26 509.422 1903.19 510.449 1904.05 511.476 1904.9 512.286 1905.74 512.881 1906.58 513.475 1907.42 513.907 1908.3 514.178 1909.23 514.448 1910.17 514.583 1911.29 514.583 1912.62 514.583 1915.02 513.941 1917.08 512.658 1918.8 511.375 1920.51 509.632 1921.79 507.43 1922.63 505.228 1923.46 502.722 1923.88 499.912 1923.88 497.669 1923.88 495.468 1923.71 493.306 1923.38 491.145 1923.04 488.74 1922.47 486.092 1921.65L488.038 1912.82 491.199 1912.82C491.307 1915.41 492.036 1917.37 493.387 1918.7 494.738 1920.02 496.886 1920.68 499.831 1920.68 502.398 1920.68 504.404 1920.11 505.849 1918.96 507.295 1917.81 508.017 1916.18 508.017 1914.08 508.017 1912.86 507.815 1911.81 507.41 1910.94 507.004 1910.06 506.342 1909.21 505.424 1908.4 504.505 1907.59 503.046 1906.58 501.047 1905.36 498.939 1904.09 497.298 1902.94 496.123 1901.92 494.947 1900.89 494.063 1899.78 493.468 1898.57 492.874 1897.37 492.577 1895.99 492.577 1894.42 492.577 1892.29 493.151 1890.41 494.299 1888.81 495.447 1887.2 497.089 1885.96 499.223 1885.1 501.357 1884.23 503.843 1883.8 506.68 1883.8Z" fill="#FFFFFF" fill-rule="evenodd"/><text fill="#000000" fill-opacity="0" font-family="Arial,Arial_MSFontService,sans-serif" font-size="40.0815" x="486.092" y="1918.87">𝑠</text><path d="M827.5 1737C827.5 1693.09 863.093 1657.5 907 1657.5 950.907 1657.5 986.5 1693.09 986.5 1737 986.5 1780.91 950.907 1816.5 907 1816.5 863.093 1816.5 827.5 1780.91 827.5 1737Z" stroke="#2F528F" stroke-width="4.58333" stroke-miterlimit="8" fill="#4472C4" fill-rule="evenodd"/><path d="M893.164 1724.45C895.109 1724.45 896.514 1724.96 897.378 1725.97 898.243 1726.98 898.675 1728.34 898.675 1730.04 898.675 1731.34 898.446 1732.83 897.986 1734.5 897.527 1736.18 896.879 1737.95 896.041 1739.81 895.203 1741.67 894.204 1743.59 893.042 1745.54 891.88 1747.5 890.597 1749.41 889.192 1751.26 887.787 1753.11 886.287 1754.85 884.693 1756.49 883.099 1758.12 881.444 1759.55 879.729 1760.76 878.013 1761.98 876.271 1762.94 874.501 1763.66 872.731 1764.38 870.968 1764.73 869.212 1764.73 868.428 1764.73 867.773 1764.54 867.246 1764.15 866.72 1763.76 866.294 1763.2 865.97 1762.49 865.646 1761.77 865.416 1760.93 865.281 1759.95 865.146 1758.98 865.078 1757.91 865.078 1756.75 865.078 1755.21 865.173 1753.56 865.362 1751.81 865.551 1750.05 865.794 1748.28 866.091 1746.5L867.794 1735.27C867.902 1734.62 867.989 1734.01 868.057 1733.43 868.125 1732.85 868.158 1732.42 868.158 1732.15 868.158 1731.31 868.023 1730.62 867.753 1730.08 867.483 1729.54 867.023 1729.27 866.375 1729.27 865.862 1729.27 865.308 1729.43 864.713 1729.74 864.119 1730.05 863.518 1730.45 862.91 1730.93 862.302 1731.42 861.714 1731.94 861.147 1732.5 860.58 1733.05 860.053 1733.57 859.566 1734.06L857.621 1731.79C858.459 1730.92 859.35 1730.06 860.296 1729.21 861.242 1728.36 862.241 1727.59 863.295 1726.9 864.349 1726.21 865.456 1725.66 866.618 1725.24 867.78 1724.82 868.969 1724.61 870.185 1724.61 871.211 1724.61 872.049 1724.78 872.697 1725.12 873.346 1725.46 873.852 1725.9 874.217 1726.46 874.582 1727.01 874.832 1727.62 874.967 1728.28 875.102 1728.94 875.169 1729.6 875.169 1730.25 875.169 1730.62 875.156 1730.99 875.129 1731.34 875.102 1731.69 875.061 1732.02 875.007 1732.31L872.738 1746.98C872.495 1748.52 872.292 1750.03 872.13 1751.5 871.968 1752.97 871.887 1754.28 871.887 1755.41 871.887 1756.55 871.954 1757.47 872.089 1758.17 872.224 1758.87 872.481 1759.22 872.859 1759.22 873.751 1759.22 874.872 1758.86 876.223 1758.15 877.574 1757.43 878.993 1756.45 880.479 1755.19 881.965 1753.93 883.451 1752.45 884.937 1750.73 886.423 1749.02 887.76 1747.16 888.949 1745.16 890.138 1743.16 891.104 1741.05 891.846 1738.84 892.589 1736.62 892.961 1734.39 892.961 1732.15 892.961 1731.18 892.752 1730.43 892.333 1729.9 891.914 1729.37 891.259 1729.11 890.367 1729.11 889.232 1729.11 888.186 1729.55 887.226 1730.43 886.267 1731.31 885.274 1732.46 884.248 1733.89L881.938 1731.83C882.586 1730.85 883.349 1729.92 884.227 1729.03 885.105 1728.14 886.038 1727.35 887.024 1726.68 888.01 1726 889.03 1725.46 890.084 1725.06 891.137 1724.65 892.164 1724.45 893.164 1724.45Z" fill="#FFFFFF" fill-rule="evenodd"/><text fill="#000000" fill-opacity="0" font-family="Arial,Arial_MSFontService,sans-serif" font-size="40.2842" x="857.621" y="1759.7">𝑣</text><path d="M916.873 1742.53 918.689 1742.53C918.65 1743.62 918.62 1744.6 918.6 1745.46 918.58 1746.32 918.565 1747.16 918.555 1747.98 918.545 1748.79 918.541 1749.6 918.541 1750.39L918.541 1773.03C918.541 1773.64 918.56 1774.17 918.6 1774.62 918.64 1775.07 918.704 1775.44 918.794 1775.75 918.883 1776.06 919.002 1776.32 919.151 1776.54 919.3 1776.76 919.474 1776.95 919.672 1777.11 919.911 1777.34 920.228 1777.53 920.625 1777.66 921.023 1777.79 921.529 1777.9 922.145 1777.99 922.76 1778.07 923.5 1778.14 924.364 1778.19 925.227 1778.24 926.265 1778.28 927.476 1778.3L927.476 1780.89 903.856 1780.89 903.856 1778.3C905.028 1778.26 906.021 1778.21 906.835 1778.16 907.649 1778.11 908.344 1778.04 908.92 1777.96 909.496 1777.87 909.957 1777.77 910.305 1777.66 910.652 1777.55 910.955 1777.41 911.213 1777.26 911.491 1777.08 911.73 1776.88 911.928 1776.67 912.127 1776.47 912.286 1776.2 912.405 1775.89 912.524 1775.57 912.618 1775.18 912.688 1774.72 912.757 1774.27 912.792 1773.7 912.792 1773.03L912.792 1751.67C912.792 1750.9 912.643 1750.35 912.345 1750.03 912.047 1749.71 911.62 1749.56 911.064 1749.56 910.449 1749.56 909.535 1749.87 908.324 1750.51 907.113 1751.14 905.544 1752.09 903.618 1753.34 903.36 1752.88 903.122 1752.42 902.903 1751.97 902.685 1751.51 902.457 1751.04 902.218 1750.57 904.68 1749.22 907.118 1747.87 909.531 1746.53 911.943 1745.19 914.39 1743.86 916.873 1742.53Z" fill="#FFFFFF" fill-rule="evenodd"/><text fill="#000000" fill-opacity="0" font-family="Arial,Arial_MSFontService,sans-serif" font-size="38.3633" x="902.218" y="1776.09">1</text><path d="M827.5 2020C827.5 1976.09 863.093 1940.5 907 1940.5 950.907 1940.5 986.5 1976.09 986.5 2020 986.5 2063.91 950.907 2099.5 907 2099.5 863.093 2099.5 827.5 2063.91 827.5 2020Z" stroke="#2F528F" stroke-width="4.58333" stroke-miterlimit="8" fill="#4472C4" fill-rule="evenodd"/><path d="M892.213 2007.04C894.158 2007.04 895.563 2007.55 896.427 2008.56 897.292 2009.57 897.724 2010.93 897.724 2012.63 897.724 2013.93 897.495 2015.41 897.035 2017.09 896.576 2018.76 895.928 2020.53 895.09 2022.4 894.253 2024.26 893.253 2026.17 892.091 2028.13 890.929 2030.09 889.646 2032 888.241 2033.85 886.836 2035.7 885.336 2037.44 883.742 2039.08 882.148 2040.71 880.493 2042.14 878.778 2043.35 877.062 2044.57 875.32 2045.53 873.55 2046.25 871.78 2046.96 870.017 2047.32 868.261 2047.32 867.477 2047.32 866.822 2047.13 866.295 2046.74 865.769 2046.34 865.343 2045.79 865.019 2045.07 864.695 2044.36 864.465 2043.51 864.33 2042.54 864.195 2041.57 864.127 2040.5 864.127 2039.34 864.127 2037.8 864.222 2036.15 864.411 2034.39 864.6 2032.64 864.843 2030.87 865.14 2029.09L866.843 2017.86C866.951 2017.21 867.038 2016.6 867.106 2016.02 867.174 2015.43 867.207 2015.01 867.207 2014.74 867.207 2013.9 867.072 2013.21 866.802 2012.67 866.532 2012.13 866.073 2011.86 865.424 2011.86 864.911 2011.86 864.357 2012.02 863.762 2012.33 863.168 2012.64 862.567 2013.04 861.959 2013.52 861.351 2014.01 860.763 2014.53 860.196 2015.08 859.629 2015.64 859.102 2016.16 858.615 2016.64L856.67 2014.37C857.508 2013.51 858.399 2012.65 859.345 2011.8 860.291 2010.95 861.29 2010.18 862.344 2009.49 863.398 2008.8 864.505 2008.25 865.667 2007.83 866.829 2007.41 868.018 2007.2 869.234 2007.2 870.26 2007.2 871.098 2007.37 871.746 2007.71 872.395 2008.05 872.901 2008.49 873.266 2009.04 873.631 2009.6 873.881 2010.21 874.016 2010.87 874.151 2011.53 874.219 2012.19 874.219 2012.83 874.219 2013.21 874.205 2013.58 874.178 2013.93 874.151 2014.28 874.11 2014.6 874.056 2014.9L871.787 2029.57C871.544 2031.11 871.341 2032.62 871.179 2034.09 871.017 2035.56 870.936 2036.87 870.936 2038 870.936 2039.14 871.003 2040.05 871.138 2040.76 871.273 2041.46 871.53 2041.81 871.908 2041.81 872.8 2041.81 873.921 2041.45 875.272 2040.74 876.623 2040.02 878.042 2039.03 879.528 2037.78 881.014 2036.52 882.5 2035.04 883.986 2033.32 885.472 2031.6 886.809 2029.75 887.998 2027.75 889.187 2025.75 890.153 2023.64 890.896 2021.43 891.638 2019.21 892.01 2016.98 892.01 2014.74 892.01 2013.77 891.801 2013.02 891.382 2012.49 890.963 2011.96 890.308 2011.7 889.416 2011.7 888.281 2011.7 887.235 2012.14 886.275 2013.02 885.316 2013.89 884.323 2015.05 883.297 2016.48L880.987 2014.41C881.635 2013.44 882.398 2012.51 883.276 2011.62 884.154 2010.73 885.087 2009.94 886.073 2009.27 887.059 2008.59 888.079 2008.05 889.133 2007.65 890.186 2007.24 891.213 2007.04 892.213 2007.04Z" fill="#FFFFFF" fill-rule="evenodd"/><text fill="#000000" fill-opacity="0" font-family="Arial,Arial_MSFontService,sans-serif" font-size="40.2842" x="856.67" y="2042.29">𝑣</text><path d="M915.5 2024.91C917.566 2024.91 919.328 2025.14 920.787 2025.61 922.247 2026.07 923.433 2026.7 924.347 2027.5 925.26 2028.29 925.92 2029.24 926.327 2030.36 926.734 2031.47 926.938 2032.67 926.938 2033.96 926.938 2034.73 926.883 2035.45 926.774 2036.12 926.665 2036.79 926.476 2037.44 926.208 2038.09 925.94 2038.73 925.588 2039.38 925.151 2040.04 924.714 2040.69 924.168 2041.39 923.513 2042.12 923.016 2042.76 922.371 2043.49 921.577 2044.33 920.782 2045.16 919.914 2046.05 918.97 2047.01 918.027 2047.96 917.039 2048.95 916.007 2049.98 914.974 2051.02 913.971 2052.04 912.998 2053.05 912.026 2054.07 911.132 2055.05 910.318 2056 909.504 2056.95 908.839 2057.83 908.322 2058.62L919.343 2058.62C920.276 2058.62 921.021 2058.59 921.577 2058.52 922.133 2058.45 922.594 2058.29 922.962 2058.06 923.329 2057.82 923.642 2057.46 923.9 2056.97 924.158 2056.48 924.456 2055.81 924.793 2054.96L927.563 2054.96C927.464 2056.37 927.37 2057.79 927.28 2059.22 927.191 2060.65 927.097 2062.07 926.997 2063.48L901.769 2063.48 901.769 2061.93C902.246 2060.86 902.802 2059.8 903.437 2058.76 904.073 2057.71 904.788 2056.66 905.582 2055.58 906.376 2054.51 907.28 2053.41 908.292 2052.26 909.305 2051.12 910.427 2049.94 911.658 2048.7 913.525 2046.84 915.044 2045.24 916.215 2043.92 917.387 2042.6 918.31 2041.43 918.985 2040.39 919.66 2039.36 920.122 2038.41 920.37 2037.53 920.619 2036.66 920.743 2035.73 920.743 2034.73 920.743 2033.72 920.599 2032.79 920.311 2031.94 920.023 2031.08 919.611 2030.36 919.075 2029.76 918.539 2029.17 917.858 2028.7 917.034 2028.36 916.21 2028.02 915.262 2027.85 914.19 2027.85 912.343 2027.85 910.794 2028.36 909.543 2029.36 908.292 2030.36 907.319 2031.82 906.624 2033.72L902.723 2033.72 902.723 2027.91C905.264 2026.86 907.602 2026.1 909.737 2025.62 911.872 2025.14 913.793 2024.91 915.5 2024.91Z" fill="#FFFFFF" fill-rule="evenodd"/><text fill="#000000" fill-opacity="0" font-family="Arial,Arial_MSFontService,sans-serif" font-size="38.5718" x="901.769" y="2058.66">2</text><path d="M1296.5 1737C1296.5 1693.09 1332.32 1657.5 1376.5 1657.5 1420.68 1657.5 1456.5 1693.09 1456.5 1737 1456.5 1780.91 1420.68 1816.5 1376.5 1816.5 1332.32 1816.5 1296.5 1780.91 1296.5 1737Z" stroke="#2F528F" stroke-width="4.58333" stroke-miterlimit="8" fill="#4472C4" fill-rule="evenodd"/><path d="M1362.05 1724.45C1364 1724.45 1365.4 1724.96 1366.27 1725.97 1367.13 1726.98 1367.56 1728.34 1367.56 1730.04 1367.56 1731.34 1367.34 1732.83 1366.88 1734.5 1366.42 1736.18 1365.77 1737.95 1364.93 1739.81 1364.09 1741.67 1363.09 1743.59 1361.93 1745.54 1360.77 1747.5 1359.49 1749.41 1358.08 1751.26 1356.68 1753.11 1355.18 1754.85 1353.58 1756.49 1351.99 1758.12 1350.33 1759.55 1348.62 1760.76 1346.9 1761.98 1345.16 1762.94 1343.39 1763.66 1341.62 1764.38 1339.86 1764.73 1338.1 1764.73 1337.32 1764.73 1336.66 1764.54 1336.14 1764.15 1335.61 1763.76 1335.18 1763.2 1334.86 1762.49 1334.53 1761.77 1334.31 1760.93 1334.17 1759.95 1334.04 1758.98 1333.97 1757.91 1333.97 1756.75 1333.97 1755.21 1334.06 1753.56 1334.25 1751.81 1334.44 1750.05 1334.68 1748.28 1334.98 1746.5L1336.68 1735.27C1336.79 1734.62 1336.88 1734.01 1336.95 1733.43 1337.01 1732.85 1337.05 1732.42 1337.05 1732.15 1337.05 1731.31 1336.91 1730.62 1336.64 1730.08 1336.37 1729.54 1335.91 1729.27 1335.26 1729.27 1334.75 1729.27 1334.2 1729.43 1333.6 1729.74 1333.01 1730.05 1332.41 1730.45 1331.8 1730.93 1331.19 1731.42 1330.6 1731.94 1330.04 1732.5 1329.47 1733.05 1328.94 1733.57 1328.46 1734.06L1326.51 1731.79C1327.35 1730.92 1328.24 1730.06 1329.19 1729.21 1330.13 1728.36 1331.13 1727.59 1332.18 1726.9 1333.24 1726.21 1334.35 1725.66 1335.51 1725.24 1336.67 1724.82 1337.86 1724.61 1339.07 1724.61 1340.1 1724.61 1340.94 1724.78 1341.59 1725.12 1342.24 1725.46 1342.74 1725.9 1343.11 1726.46 1343.47 1727.01 1343.72 1727.62 1343.86 1728.28 1343.99 1728.94 1344.06 1729.6 1344.06 1730.25 1344.06 1730.62 1344.05 1730.99 1344.02 1731.34 1343.99 1731.69 1343.95 1732.02 1343.9 1732.31L1341.63 1746.98C1341.38 1748.52 1341.18 1750.03 1341.02 1751.5 1340.86 1752.97 1340.78 1754.28 1340.78 1755.41 1340.78 1756.55 1340.84 1757.47 1340.98 1758.17 1341.11 1758.87 1341.37 1759.22 1341.75 1759.22 1342.64 1759.22 1343.76 1758.86 1345.11 1758.15 1346.46 1757.43 1347.88 1756.45 1349.37 1755.19 1350.85 1753.93 1352.34 1752.45 1353.83 1750.73 1355.31 1749.02 1356.65 1747.16 1357.84 1745.16 1359.03 1743.16 1359.99 1741.05 1360.74 1738.84 1361.48 1736.62 1361.85 1734.39 1361.85 1732.15 1361.85 1731.18 1361.64 1730.43 1361.22 1729.9 1360.8 1729.37 1360.15 1729.11 1359.26 1729.11 1358.12 1729.11 1357.07 1729.55 1356.12 1730.43 1355.16 1731.31 1354.16 1732.46 1353.14 1733.89L1350.83 1731.83C1351.48 1730.85 1352.24 1729.92 1353.12 1729.03 1353.99 1728.14 1354.93 1727.35 1355.91 1726.68 1356.9 1726 1357.92 1725.46 1358.97 1725.06 1360.03 1724.65 1361.05 1724.45 1362.05 1724.45Z" fill="#FFFFFF" fill-rule="evenodd"/><text fill="#000000" fill-opacity="0" font-family="Arial,Arial_MSFontService,sans-serif" font-size="40.2842" x="1326.51" y="1759.7">𝑣</text><path d="M1385.28 1742.32C1386.87 1742.32 1388.35 1742.49 1389.73 1742.82 1391.11 1743.16 1392.31 1743.67 1393.32 1744.36 1394.34 1745.04 1395.13 1745.9 1395.69 1746.92 1396.26 1747.94 1396.54 1749.13 1396.54 1750.48 1396.54 1751.75 1396.36 1752.87 1396 1753.84 1395.65 1754.82 1395.1 1755.7 1394.35 1756.5 1393.61 1757.29 1392.69 1758.01 1391.61 1758.65 1390.53 1759.3 1389.28 1759.92 1387.87 1760.52L1387.87 1760.87C1389.2 1761.11 1390.44 1761.49 1391.6 1762.02 1392.75 1762.55 1393.76 1763.21 1394.62 1764.02 1395.48 1764.82 1396.16 1765.75 1396.66 1766.8 1397.16 1767.85 1397.4 1769.02 1397.4 1770.29 1397.4 1771.87 1397.11 1773.35 1396.51 1774.71 1395.91 1776.07 1395.02 1777.25 1393.83 1778.24 1392.64 1779.23 1391.17 1780.01 1389.42 1780.56 1387.67 1781.12 1385.63 1781.4 1383.29 1781.4 1381.44 1781.4 1379.56 1781.21 1377.66 1780.84 1375.75 1780.48 1373.94 1780 1372.24 1779.4L1372.24 1772.97 1376.08 1772.97C1376.4 1773.96 1376.77 1774.81 1377.21 1775.51 1377.65 1776.22 1378.16 1776.79 1378.74 1777.24 1379.33 1777.69 1380 1778.01 1380.77 1778.21 1381.53 1778.41 1382.4 1778.51 1383.38 1778.51 1385.94 1778.51 1387.88 1777.9 1389.2 1776.67 1390.52 1775.45 1391.18 1773.6 1391.18 1771.12 1391.18 1768.48 1390.31 1766.48 1388.57 1765.12 1386.84 1763.76 1384.26 1763.08 1380.84 1763.08L1378.22 1763.08 1378.22 1760.22C1380.31 1760.12 1382.11 1759.83 1383.63 1759.34 1385.15 1758.85 1386.41 1758.22 1387.43 1757.45 1388.44 1756.67 1389.19 1755.77 1389.69 1754.74 1390.19 1753.71 1390.43 1752.6 1390.43 1751.43 1390.43 1749.53 1389.87 1748.02 1388.74 1746.92 1387.6 1745.82 1385.97 1745.27 1383.82 1745.27 1382.01 1745.27 1380.5 1745.76 1379.28 1746.76 1378.06 1747.75 1377.12 1749.23 1376.46 1751.19L1372.68 1751.19 1372.68 1745.33C1375.03 1744.33 1377.23 1743.58 1379.31 1743.08 1381.38 1742.57 1383.38 1742.32 1385.28 1742.32Z" fill="#FFFFFF" fill-rule="evenodd"/><text fill="#000000" fill-opacity="0" font-family="Arial,Arial_MSFontService,sans-serif" font-size="39.0781" x="1372.24" y="1776.51">3</text><path d="M1296.5 2020C1296.5 1976.09 1332.32 1940.5 1376.5 1940.5 1420.68 1940.5 1456.5 1976.09 1456.5 2020 1456.5 2063.91 1420.68 2099.5 1376.5 2099.5 1332.32 2099.5 1296.5 2063.91 1296.5 2020Z" stroke="#2F528F" stroke-width="4.58333" stroke-miterlimit="8" fill="#4472C4" fill-rule="evenodd"/><path d="M1363.82 2007.04C1365.76 2007.04 1367.17 2007.54 1368.03 2008.56 1368.9 2009.57 1369.33 2010.93 1369.33 2012.63 1369.33 2013.93 1369.1 2015.41 1368.64 2017.09 1368.18 2018.76 1367.53 2020.53 1366.7 2022.4 1365.86 2024.26 1364.86 2026.17 1363.7 2028.13 1362.53 2030.09 1361.25 2032 1359.85 2033.85 1358.44 2035.7 1356.94 2037.44 1355.35 2039.08 1353.75 2040.71 1352.1 2042.13 1350.38 2043.35 1348.67 2044.57 1346.92 2045.53 1345.15 2046.25 1343.39 2046.96 1341.62 2047.32 1339.87 2047.32 1339.08 2047.32 1338.43 2047.13 1337.9 2046.73 1337.37 2046.34 1336.95 2045.79 1336.62 2045.07 1336.3 2044.36 1336.07 2043.51 1335.93 2042.54 1335.8 2041.57 1335.73 2040.5 1335.73 2039.34 1335.73 2037.8 1335.83 2036.15 1336.02 2034.39 1336.2 2032.64 1336.45 2030.87 1336.75 2029.09L1338.45 2017.86C1338.56 2017.21 1338.64 2016.6 1338.71 2016.02 1338.78 2015.43 1338.81 2015.01 1338.81 2014.74 1338.81 2013.9 1338.68 2013.21 1338.41 2012.67 1338.14 2012.13 1337.68 2011.86 1337.03 2011.86 1336.52 2011.86 1335.96 2012.02 1335.37 2012.33 1334.77 2012.64 1334.17 2013.04 1333.56 2013.52 1332.96 2014.01 1332.37 2014.53 1331.8 2015.08 1331.23 2015.64 1330.71 2016.16 1330.22 2016.64L1328.28 2014.37C1329.11 2013.51 1330 2012.65 1330.95 2011.8 1331.9 2010.95 1332.9 2010.18 1333.95 2009.49 1335 2008.8 1336.11 2008.25 1337.27 2007.83 1338.43 2007.41 1339.62 2007.2 1340.84 2007.2 1341.87 2007.2 1342.7 2007.37 1343.35 2007.71 1344 2008.04 1344.51 2008.49 1344.87 2009.04 1345.24 2009.6 1345.49 2010.21 1345.62 2010.87 1345.76 2011.53 1345.82 2012.19 1345.82 2012.83 1345.82 2013.21 1345.81 2013.58 1345.78 2013.93 1345.76 2014.28 1345.72 2014.6 1345.66 2014.9L1343.39 2029.57C1343.15 2031.11 1342.95 2032.62 1342.78 2034.09 1342.62 2035.56 1342.54 2036.87 1342.54 2038 1342.54 2039.14 1342.61 2040.05 1342.74 2040.76 1342.88 2041.46 1343.14 2041.81 1343.51 2041.81 1344.41 2041.81 1345.53 2041.45 1346.88 2040.74 1348.23 2040.02 1349.65 2039.03 1351.13 2037.78 1352.62 2036.52 1354.1 2035.04 1355.59 2033.32 1357.08 2031.6 1358.41 2029.75 1359.6 2027.75 1360.79 2025.75 1361.76 2023.64 1362.5 2021.43 1363.24 2019.21 1363.61 2016.98 1363.61 2014.74 1363.61 2013.77 1363.41 2013.02 1362.99 2012.49 1362.57 2011.96 1361.91 2011.7 1361.02 2011.7 1359.89 2011.7 1358.84 2012.14 1357.88 2013.02 1356.92 2013.89 1355.93 2015.05 1354.9 2016.48L1352.59 2014.41C1353.24 2013.44 1354 2012.51 1354.88 2011.62 1355.76 2010.73 1356.69 2009.94 1357.68 2009.27 1358.66 2008.59 1359.68 2008.05 1360.74 2007.65 1361.79 2007.24 1362.82 2007.04 1363.82 2007.04Z" fill="#FFFFFF" fill-rule="evenodd"/><text fill="#000000" fill-opacity="0" font-family="Arial,Arial_MSFontService,sans-serif" font-size="40.2842" x="1328.28" y="2042.29">𝑣</text><path d="M1384.98 2032.29C1383.07 2035.05 1381.17 2037.79 1379.27 2040.51 1377.38 2043.23 1375.46 2045.96 1373.54 2048.7L1373.54 2049.06 1384.98 2049.06 1384.98 2043.07C1384.98 2042.4 1384.99 2041.57 1385.01 2040.57 1385.03 2039.58 1385.05 2038.57 1385.08 2037.55 1385.11 2036.53 1385.14 2035.55 1385.18 2034.63 1385.22 2033.71 1385.26 2032.93 1385.3 2032.29ZM1385.84 2025.32 1390.58 2025.32 1390.58 2049.06 1391.11 2049.06C1391.93 2049.06 1392.59 2049.02 1393.09 2048.94 1393.6 2048.86 1394.01 2048.7 1394.31 2048.45 1394.62 2048.2 1394.88 2047.85 1395.09 2047.41 1395.3 2046.96 1395.52 2046.38 1395.76 2045.67L1398.29 2045.67C1398.23 2046.76 1398.17 2047.84 1398.1 2048.91 1398.03 2049.98 1397.96 2051.08 1397.9 2052.19L1390.58 2052.19 1390.58 2056.09C1390.58 2057.24 1390.6 2058.14 1390.65 2058.77 1390.7 2059.41 1390.85 2059.9 1391.1 2060.26 1391.35 2060.62 1391.71 2060.89 1392.2 2061.06 1392.69 2061.24 1393.37 2061.45 1394.24 2061.69L1394.24 2063.48 1381.37 2063.48 1381.37 2061.69C1381.97 2061.53 1382.47 2061.39 1382.89 2061.26 1383.31 2061.13 1383.66 2060.98 1383.93 2060.81 1384.21 2060.64 1384.42 2060.44 1384.54 2060.22 1384.67 2059.99 1384.77 2059.7 1384.84 2059.35 1384.91 2059 1384.95 2058.57 1384.96 2058.04 1384.97 2057.52 1384.98 2056.86 1384.98 2056.09L1384.98 2052.19 1368.21 2052.19 1368.21 2049.84C1371.17 2045.73 1374.1 2041.64 1377.02 2037.58 1379.94 2033.52 1382.88 2029.43 1385.84 2025.32Z" fill="#FFFFFF" fill-rule="evenodd"/><text fill="#000000" fill-opacity="0" font-family="Arial,Arial_MSFontService,sans-serif" font-size="38.1548" x="1368.21" y="2058.71">4</text><path d="M1766.5 1896C1766.5 1852.09 1802.09 1816.5 1846 1816.5 1889.91 1816.5 1925.5 1852.09 1925.5 1896 1925.5 1939.91 1889.91 1975.5 1846 1975.5 1802.09 1975.5 1766.5 1939.91 1766.5 1896Z" stroke="#2F528F" stroke-width="4.58333" stroke-miterlimit="8" fill="#4472C4" fill-rule="evenodd"/><path d="M1833.15 1874.44 1838.74 1874.44 1836.51 1884.45 1848.83 1884.45 1847.94 1888.54 1835.62 1888.54 1832.01 1904.27C1831.31 1907.32 1830.86 1909.52 1830.68 1910.85 1830.49 1912.19 1830.39 1913.27 1830.39 1914.08 1830.39 1917.43 1831.78 1919.1 1834.57 1919.1 1835.76 1919.1 1837.02 1918.65 1838.36 1917.74 1839.69 1916.84 1841.28 1915.29 1843.12 1913.1L1845.47 1915.53C1843.12 1918.37 1840.85 1920.47 1838.68 1921.82 1836.5 1923.17 1834.23 1923.84 1831.85 1923.84 1826.2 1923.84 1823.38 1920.99 1823.38 1915.29 1823.38 1913.48 1823.61 1911.58 1824.07 1909.58L1828.85 1888.54 1822.04 1888.54 1822.65 1885.75C1824.25 1885.72 1825.45 1885.6 1826.28 1885.38 1827.1 1885.17 1827.79 1884.87 1828.35 1884.49 1828.9 1884.11 1829.41 1883.57 1829.86 1882.87 1830.32 1882.17 1830.77 1881.27 1831.2 1880.17 1831.63 1879.08 1832.28 1877.17 1833.15 1874.44Z" fill="#FFFFFF" fill-rule="evenodd"/><text fill="#000000" fill-opacity="0" font-family="Arial,Arial_MSFontService,sans-serif" font-size="49.4028" x="1822.04" y="1917.67">𝑡</text><path d="M0.857405-2.12523 234.614 92.1818 232.899 96.4322-0.857405 2.12523ZM234.65 79.8408 255.009 102.881 224.362 105.344Z" fill="#4472C4" transform="matrix(1 0 0 -1 572.5 1840.38)"/><path d="M573.084 1950.28 805.931 2011.62 804.764 2016.05 571.916 1954.72ZM804.418 1999.37 827.509 2019.67 797.413 2025.96Z" fill="#4472C4"/><path d="M986.5 1735.21 1274.28 1735.21 1274.28 1739.79 986.5 1739.79ZM1269.69 1723.75 1297.19 1737.5 1269.69 1751.25Z" fill="#4472C4"/><path d="M2.66195e-06-2.29167 287.775-2.29133 287.775 2.292-2.66195e-06 2.29167ZM283.192-13.7497 310.692 0.000360892 283.191 13.7503Z" fill="#4472C4" transform="matrix(1 0 0 -1 986.5 2019.5)"/><path d="M1457.17 1735.31 1769.27 1831.44 1767.92 1835.83 1455.83 1739.69ZM1768.26 1819.15 1790.5 1840.38 1760.17 1845.43Z" fill="#4472C4"/><path d="M0.451837-2.24668 311.983 60.4063 311.079 64.8997-0.451837 2.24668ZM309.749 48.2693 333.998 67.1715 304.327 75.2295Z" fill="#4472C4" transform="matrix(1 0 0 -1 1456.5 2019.67)"/><path d="M2.29167-6.70002e-06 2.29196 100.523-2.29137 100.523-2.29167 6.70002e-06ZM13.7503 95.9392 0.000360892 123.439-13.7497 95.9393Z" fill="#4472C4" transform="matrix(1 0 0 -1 906.5 1939.94)"/><path d="M2.29167-6.70004e-06 2.29196 100.522-2.29137 100.522-2.29167 6.70004e-06ZM13.7503 95.9389 0.000360892 123.439-13.7497 95.939Z" fill="#4472C4" transform="matrix(1 0 0 -1 1376.5 1939.94)"/><path d="M0.984828-2.06926 337.597 158.135 335.628 162.274-0.984828 2.06926ZM338.383 145.819 357.305 170.053 326.565 170.65Z" fill="#4472C4" transform="matrix(-1 0 0 1 1319.81 1793.5)"/><text font-family="DengXian,DengXian_MSFontService,sans-serif" font-weight="400" font-size="83" transform="matrix(1 0 0 1 548.278 1762)">11/16</text><text font-family="DengXian,DengXian_MSFontService,sans-serif" font-weight="400" font-size="83" transform="matrix(1 0 0 1 580.94 2053)">8/13</text><text font-family="DengXian,DengXian_MSFontService,sans-serif" font-weight="400" font-size="83" transform="matrix(1 0 0 1 1048.54 1709)">12/12</text><text font-family="DengXian,DengXian_MSFontService,sans-serif" font-weight="400" font-size="83" transform="matrix(1 0 0 1 1084.53 2100)">11/14</text><text font-family="DengXian,DengXian_MSFontService,sans-serif" font-weight="400" font-size="83" transform="matrix(1 0 0 1 759.403 1916)">1/4</text><text font-family="DengXian,DengXian_MSFontService,sans-serif" font-weight="400" font-size="83" transform="matrix(1 0 0 1 1170.25 1915)">4/9</text><text font-family="DengXian,DengXian_MSFontService,sans-serif" font-weight="400" font-size="83" transform="matrix(1 0 0 1 1391.81 1907)">7/7</text><text font-family="DengXian,DengXian_MSFontService,sans-serif" font-weight="400" font-size="83" transform="matrix(1 0 0 1 1581.75 1765)">15/20</text><text font-family="DengXian,DengXian_MSFontService,sans-serif" font-weight="400" font-size="83" transform="matrix(1 0 0 1 1637.27 2054)">4/4</text></g></svg>