<svg width="3272" height="913" xmlns="http://www.w3.org/2000/svg" xmlns:xlink="http://www.w3.org/1999/xlink" xml:space="preserve" overflow="hidden"><g transform="translate(-303 -1238)"><path d="M569.5 1451.5C569.5 1437.14 581.365 1425.5 596 1425.5 610.636 1425.5 622.5 1437.14 622.5 1451.5 622.5 1465.86 610.636 1477.5 596 1477.5 581.365 1477.5 569.5 1465.86 569.5 1451.5Z" stroke="#2F528F" stroke-width="4.58333" stroke-miterlimit="8" fill="#4472C4" fill-rule="evenodd"/><path d="M622.5 1678.5C622.5 1664.14 634.141 1652.5 648.5 1652.5 662.859 1652.5 674.5 1664.14 674.5 1678.5 674.5 1692.86 662.859 1704.5 648.5 1704.5 634.141 1704.5 622.5 1692.86 622.5 1678.5Z" stroke="#2F528F" stroke-width="4.58333" stroke-miterlimit="8" fill="#4472C4" fill-rule="evenodd"/><path d="M898.5 1446.5C898.5 1432.14 910.141 1420.5 924.5 1420.5 938.859 1420.5 950.5 1432.14 950.5 1446.5 950.5 1460.86 938.859 1472.5 924.5 1472.5 910.141 1472.5 898.5 1460.86 898.5 1446.5Z" stroke="#2F528F" stroke-width="4.58333" stroke-miterlimit="8" fill="#4472C4" fill-rule="evenodd"/><path d="M740.5 1659.5C740.5 1645.14 752.364 1633.5 767 1633.5 781.635 1633.5 793.5 1645.14 793.5 1659.5 793.5 1673.86 781.635 1685.5 767 1685.5 752.364 1685.5 740.5 1673.86 740.5 1659.5Z" stroke="#2F528F" stroke-width="4.58333" stroke-miterlimit="8" fill="#4472C4" fill-rule="evenodd"/><path d="M1331.5 1482C1331.5 1467.36 1343.14 1455.5 1357.5 1455.5 1371.86 1455.5 1383.5 1467.36 1383.5 1482 1383.5 1496.64 1371.86 1508.5 1357.5 1508.5 1343.14 1508.5 1331.5 1496.64 1331.5 1482Z" stroke="#2F528F" stroke-width="4.58333" stroke-miterlimit="8" fill="#4472C4" fill-rule="evenodd"/><path d="M1253.5 1678.5C1253.5 1664.14 1265.36 1652.5 1280 1652.5 1294.64 1652.5 1306.5 1664.14 1306.5 1678.5 1306.5 1692.86 1294.64 1704.5 1280 1704.5 1265.36 1704.5 1253.5 1692.86 1253.5 1678.5Z" stroke="#2F528F" stroke-width="4.58333" stroke-miterlimit="8" fill="#4472C4" fill-rule="evenodd"/><path d="M384.5 1606C384.5 1591.36 396.141 1579.5 410.5 1579.5 424.859 1579.5 436.5 1591.36 436.5 1606 436.5 1620.64 424.859 1632.5 410.5 1632.5 396.141 1632.5 384.5 1620.64 384.5 1606Z" stroke="#2F528F" stroke-width="4.58333" stroke-miterlimit="8" fill="#4472C4" fill-rule="evenodd"/><path d="M1645.5 1644.5C1645.5 1630.14 1657.14 1618.5 1671.5 1618.5 1685.86 1618.5 1697.5 1630.14 1697.5 1644.5 1697.5 1658.86 1685.86 1670.5 1671.5 1670.5 1657.14 1670.5 1645.5 1658.86 1645.5 1644.5Z" stroke="#2F528F" stroke-width="4.58333" stroke-miterlimit="8" fill="#4472C4" fill-rule="evenodd"/><path d="M1014.5 1485C1014.5 1470.36 1026.14 1458.5 1040.5 1458.5 1054.86 1458.5 1066.5 1470.36 1066.5 1485 1066.5 1499.64 1054.86 1511.5 1040.5 1511.5 1026.14 1511.5 1014.5 1499.64 1014.5 1485Z" stroke="#2F528F" stroke-width="4.58333" stroke-miterlimit="8" fill="#4472C4" fill-rule="evenodd"/><path d="M740.5 1517C740.5 1502.36 752.364 1490.5 767 1490.5 781.635 1490.5 793.5 1502.36 793.5 1517 793.5 1531.64 781.635 1543.5 767 1543.5 752.364 1543.5 740.5 1531.64 740.5 1517Z" stroke="#2F528F" stroke-width="4.58333" stroke-miterlimit="8" fill="#4472C4" fill-rule="evenodd"/><path d="M1433.5 1617C1433.5 1602.36 1445.14 1590.5 1459.5 1590.5 1473.86 1590.5 1485.5 1602.36 1485.5 1617 1485.5 1631.64 1473.86 1643.5 1459.5 1643.5 1445.14 1643.5 1433.5 1631.64 1433.5 1617Z" stroke="#2F528F" stroke-width="4.58333" stroke-miterlimit="8" fill="#4472C4" fill-rule="evenodd"/><path d="M303.5 1560.5 1766.5 1560.5" stroke="#C00000" stroke-width="9.16667" stroke-miterlimit="8" fill="none" fill-rule="evenodd"/><path d="M2444.5 1449C2444.5 1434.36 2456.36 1422.5 2471 1422.5 2485.64 1422.5 2497.5 1434.36 2497.5 1449 2497.5 1463.64 2485.64 1475.5 2471 1475.5 2456.36 1475.5 2444.5 1463.64 2444.5 1449Z" stroke="#2F528F" stroke-width="4.58333" stroke-miterlimit="8" fill="#4472C4" fill-rule="evenodd"/><path d="M2497.5 1676C2497.5 1661.36 2509.14 1649.5 2523.5 1649.5 2537.86 1649.5 2549.5 1661.36 2549.5 1676 2549.5 1690.64 2537.86 1702.5 2523.5 1702.5 2509.14 1702.5 2497.5 1690.64 2497.5 1676Z" stroke="#2F528F" stroke-width="4.58333" stroke-miterlimit="8" fill="#4472C4" fill-rule="evenodd"/><path d="M2773.5 1443.5C2773.5 1429.14 2785.14 1417.5 2799.5 1417.5 2813.86 1417.5 2825.5 1429.14 2825.5 1443.5 2825.5 1457.86 2813.86 1469.5 2799.5 1469.5 2785.14 1469.5 2773.5 1457.86 2773.5 1443.5Z" stroke="#2F528F" stroke-width="4.58333" stroke-miterlimit="8" fill="#4472C4" fill-rule="evenodd"/><path d="M2616.5 1657.5C2616.5 1643.14 2628.14 1631.5 2642.5 1631.5 2656.86 1631.5 2668.5 1643.14 2668.5 1657.5 2668.5 1671.86 2656.86 1683.5 2642.5 1683.5 2628.14 1683.5 2616.5 1671.86 2616.5 1657.5Z" stroke="#2F528F" stroke-width="4.58333" stroke-miterlimit="8" fill="#4472C4" fill-rule="evenodd"/><path d="M3206.5 1479.5C3206.5 1465.14 3218.14 1453.5 3232.5 1453.5 3246.86 1453.5 3258.5 1465.14 3258.5 1479.5 3258.5 1493.86 3246.86 1505.5 3232.5 1505.5 3218.14 1505.5 3206.5 1493.86 3206.5 1479.5Z" stroke="#2F528F" stroke-width="4.58333" stroke-miterlimit="8" fill="#4472C4" fill-rule="evenodd"/><path d="M3128.5 1676C3128.5 1661.36 3140.36 1649.5 3155 1649.5 3169.64 1649.5 3181.5 1661.36 3181.5 1676 3181.5 1690.64 3169.64 1702.5 3155 1702.5 3140.36 1702.5 3128.5 1690.64 3128.5 1676Z" stroke="#2F528F" stroke-width="4.58333" stroke-miterlimit="8" fill="#4472C4" fill-rule="evenodd"/><path d="M2259.5 1603.5C2259.5 1589.14 2271.14 1577.5 2285.5 1577.5 2299.86 1577.5 2311.5 1589.14 2311.5 1603.5 2311.5 1617.86 2299.86 1629.5 2285.5 1629.5 2271.14 1629.5 2259.5 1617.86 2259.5 1603.5Z" stroke="#2F528F" stroke-width="4.58333" stroke-miterlimit="8" fill="#4472C4" fill-rule="evenodd"/><path d="M3520.5 1642C3520.5 1627.36 3532.14 1615.5 3546.5 1615.5 3560.86 1615.5 3572.5 1627.36 3572.5 1642 3572.5 1656.64 3560.86 1668.5 3546.5 1668.5 3532.14 1668.5 3520.5 1656.64 3520.5 1642Z" stroke="#2F528F" stroke-width="4.58333" stroke-miterlimit="8" fill="#4472C4" fill-rule="evenodd"/><path d="M2889.5 1482.5C2889.5 1468.14 2901.14 1456.5 2915.5 1456.5 2929.86 1456.5 2941.5 1468.14 2941.5 1482.5 2941.5 1496.86 2929.86 1508.5 2915.5 1508.5 2901.14 1508.5 2889.5 1496.86 2889.5 1482.5Z" stroke="#2F528F" stroke-width="4.58333" stroke-miterlimit="8" fill="#4472C4" fill-rule="evenodd"/><path d="M2616.5 1514.5C2616.5 1500.14 2628.14 1488.5 2642.5 1488.5 2656.86 1488.5 2668.5 1500.14 2668.5 1514.5 2668.5 1528.86 2656.86 1540.5 2642.5 1540.5 2628.14 1540.5 2616.5 1528.86 2616.5 1514.5Z" stroke="#2F528F" stroke-width="4.58333" stroke-miterlimit="8" fill="#4472C4" fill-rule="evenodd"/><path d="M3308.5 1614.5C3308.5 1600.14 3320.14 1588.5 3334.5 1588.5 3348.86 1588.5 3360.5 1600.14 3360.5 1614.5 3360.5 1628.86 3348.86 1640.5 3334.5 1640.5 3320.14 1640.5 3308.5 1628.86 3308.5 1614.5Z" stroke="#2F528F" stroke-width="4.58333" stroke-miterlimit="8" fill="#4472C4" fill-rule="evenodd"/><path d="M2976.5 1238.5 2976.5 2030.5" stroke="#C00000" stroke-width="9.16667" stroke-miterlimit="8" fill="none" fill-rule="evenodd"/><path d="M898.5 1923.83C898.5 1902.11 916.11 1884.5 937.834 1884.5L1038 1884.5 966.707 1804.55 1247.25 1884.5 1696.17 1884.5C1717.89 1884.5 1735.5 1902.11 1735.5 1923.83L1735.5 1923.83 1735.5 1923.83 1735.5 1982.83 1735.5 2081.17C1735.5 2102.89 1717.89 2120.5 1696.17 2120.5L1247.25 2120.5 1038 2120.5 1038 2120.5 937.834 2120.5C916.11 2120.5 898.5 2102.89 898.5 2081.17L898.5 1982.83 898.5 1923.83 898.5 1923.83Z" stroke="#2F528F" stroke-width="4.58333" stroke-miterlimit="8" fill="#4472C4" fill-rule="evenodd"/><text fill="#FFFFFF" font-family="DengXian,DengXian_MSFontService,sans-serif" font-weight="400" font-size="83" transform="matrix(1 0 0 1 1027.81 1980)">方差</text><text fill="#FFFF00" font-family="DengXian,DengXian_MSFontService,sans-serif" font-weight="400" font-size="83" transform="matrix(1 0 0 1 1192.81 1980)">小</text><text fill="#FFFFFF" font-family="DengXian,DengXian_MSFontService,sans-serif" font-weight="400" font-size="83" transform="matrix(1 0 0 1 1275.31 1980)">的轴划分</text><text fill="#FFFFFF" font-family="DengXian,DengXian_MSFontService,sans-serif" font-weight="400" font-size="83" transform="matrix(1 0 0 1 945.312 2079)">两个区域点都很</text><text fill="#FFFF00" font-family="DengXian,DengXian_MSFontService,sans-serif" font-weight="400" font-size="83" transform="matrix(1 0 0 1 1522.81 2079)">分散</text><path d="M2011.5 1912C2011.5 1890.19 2029.19 1872.5 2051 1872.5L2499.75 1872.5 2731.17 1783.94 2709 1872.5 2809 1872.5C2830.81 1872.5 2848.5 1890.19 2848.5 1912L2848.5 1912 2848.5 1912 2848.5 1971.25 2848.5 2070C2848.5 2091.81 2830.81 2109.5 2809 2109.5L2709 2109.5 2499.75 2109.5 2499.75 2109.5 2051 2109.5C2029.19 2109.5 2011.5 2091.81 2011.5 2070L2011.5 1971.25 2011.5 1912 2011.5 1912Z" stroke="#2F528F" stroke-width="4.58333" stroke-miterlimit="8" fill="#4472C4" fill-rule="evenodd"/><text fill="#FFFFFF" font-family="DengXian,DengXian_MSFontService,sans-serif" font-weight="400" font-size="83" transform="matrix(1 0 0 1 2140.87 1968)">方差</text><text fill="#FFFF00" font-family="DengXian,DengXian_MSFontService,sans-serif" font-weight="400" font-size="83" transform="matrix(1 0 0 1 2305.87 1968)">大</text><text fill="#FFFFFF" font-family="DengXian,DengXian_MSFontService,sans-serif" font-weight="400" font-size="83" transform="matrix(1 0 0 1 2388.37 1968)">的轴划分</text><text fill="#FFFFFF" font-family="DengXian,DengXian_MSFontService,sans-serif" font-weight="400" font-size="83" transform="matrix(1 0 0 1 2058.37 2067)">两个区域点相对</text><text fill="#FFFF00" font-family="DengXian,DengXian_MSFontService,sans-serif" font-weight="400" font-size="83" transform="matrix(1 0 0 1 2635.87 2067)">集中</text></g></svg>