<svg width="3833" height="578" xmlns="http://www.w3.org/2000/svg" xmlns:xlink="http://www.w3.org/1999/xlink" xml:space="preserve" overflow="hidden"><g transform="translate(-270 -1407)"><path d="M1533.5 1829.83C1533.5 1814.19 1546.19 1801.5 1561.83 1801.5L1943.83 1801.5 1903.1 1733.12 2559.33 1801.5 3967.17 1801.5C3982.81 1801.5 3995.5 1814.19 3995.5 1829.83L3995.5 1829.83 3995.5 1829.83 3995.5 1872.33 3995.5 1943.17C3995.5 1958.81 3982.81 1971.5 3967.17 1971.5L2559.33 1971.5 1943.83 1971.5 1943.83 1971.5 1561.83 1971.5C1546.19 1971.5 1533.5 1958.81 1533.5 1943.17L1533.5 1872.33 1533.5 1829.83 1533.5 1829.83Z" stroke="#2F528F" stroke-width="4.58333" stroke-miterlimit="8" fill="#4472C4" fill-rule="evenodd"/><text fill="#FFFFFF" font-family="DengXian,DengXian_MSFontService,sans-serif" font-weight="400" font-size="83" transform="matrix(1 0 0 1 1574.29 1913)">每次查询都计算一遍，分析每次查询复杂度及总复杂度</text><path d="M272.5 1829.83C272.5 1814.19 285.186 1801.5 300.834 1801.5L652.25 1801.5 820.18 1714.44 815 1801.5 895.166 1801.5C910.815 1801.5 923.5 1814.19 923.5 1829.83L923.5 1829.83 923.5 1829.83 923.5 1872.33 923.5 1943.17C923.5 1958.81 910.815 1971.5 895.166 1971.5L815 1971.5 652.25 1971.5 652.25 1971.5 300.834 1971.5C285.186 1971.5 272.5 1958.81 272.5 1943.17L272.5 1872.33 272.5 1829.83 272.5 1829.83Z" stroke="#2F528F" stroke-width="4.58333" stroke-miterlimit="8" fill="#4472C4" fill-rule="evenodd"/><text fill="#FFFFFF" font-family="DengXian,DengXian_MSFontService,sans-serif" font-weight="400" font-size="83" transform="matrix(1 0 0 1 340.153 1913)">序号</text><text fill="#FFFFFF" font-family="DengXian,DengXian_MSFontService,sans-serif" font-weight="400" font-size="83" transform="matrix(1 0 0 1 505.153 1913)">0</text><text fill="#FFFFFF" font-family="DengXian,DengXian_MSFontService,sans-serif" font-weight="400" font-size="83" transform="matrix(1 0 0 1 548.695 1913)">作“哨兵”</text><path d="M673.909 1413.68 673.909 1689.47" stroke="#000000" stroke-width="4.58333" stroke-linejoin="round" stroke-miterlimit="10" fill="none" fill-rule="evenodd"/><path d="M875.297 1413.68 875.297 1689.47" stroke="#000000" stroke-width="4.58333" stroke-linejoin="round" stroke-miterlimit="10" fill="none" fill-rule="evenodd"/><path d="M1076.68 1413.68 1076.68 1689.47" stroke="#000000" stroke-width="4.58333" stroke-linejoin="round" stroke-miterlimit="10" fill="none" fill-rule="evenodd"/><path d="M1278.07 1413.68 1278.07 1689.47" stroke="#000000" stroke-width="4.58333" stroke-linejoin="round" stroke-miterlimit="10" fill="none" fill-rule="evenodd"/><path d="M1479.46 1413.68 1479.46 1689.47" stroke="#000000" stroke-width="4.58333" stroke-linejoin="round" stroke-miterlimit="10" fill="none" fill-rule="evenodd"/><path d="M1680.85 1413.68 1680.85 1689.47" stroke="#000000" stroke-width="4.58333" stroke-linejoin="round" stroke-miterlimit="10" fill="none" fill-rule="evenodd"/><path d="M1882.23 1413.68 1882.23 1689.47" stroke="#000000" stroke-width="4.58333" stroke-linejoin="round" stroke-miterlimit="10" fill="none" fill-rule="evenodd"/><path d="M2083.62 1413.68 2083.62 1689.47" stroke="#000000" stroke-width="4.58333" stroke-linejoin="round" stroke-miterlimit="10" fill="none" fill-rule="evenodd"/><path d="M2285.01 1413.68 2285.01 1689.47" stroke="#000000" stroke-width="4.58333" stroke-linejoin="round" stroke-miterlimit="10" fill="none" fill-rule="evenodd"/><path d="M2486.4 1413.68 2486.4 1689.47" stroke="#000000" stroke-width="4.58333" stroke-linejoin="round" stroke-miterlimit="10" fill="none" fill-rule="evenodd"/><path d="M2687.79 1413.68 2687.79 1689.47" stroke="#000000" stroke-width="4.58333" stroke-linejoin="round" stroke-miterlimit="10" fill="none" fill-rule="evenodd"/><path d="M2889.17 1413.68 2889.17 1689.47" stroke="#000000" stroke-width="4.58333" stroke-linejoin="round" stroke-miterlimit="10" fill="none" fill-rule="evenodd"/><path d="M3090.56 1413.68 3090.56 1689.47" stroke="#000000" stroke-width="4.58333" stroke-linejoin="round" stroke-miterlimit="10" fill="none" fill-rule="evenodd"/><path d="M3291.95 1413.68 3291.95 1689.47" stroke="#000000" stroke-width="4.58333" stroke-linejoin="round" stroke-miterlimit="10" fill="none" fill-rule="evenodd"/><path d="M3493.34 1413.68 3493.34 1689.47" stroke="#000000" stroke-width="4.58333" stroke-linejoin="round" stroke-miterlimit="10" fill="none" fill-rule="evenodd"/><path d="M3694.72 1413.68 3694.72 1689.47" stroke="#000000" stroke-width="4.58333" stroke-linejoin="round" stroke-miterlimit="10" fill="none" fill-rule="evenodd"/><path d="M3896.11 1413.68 3896.11 1689.47" stroke="#000000" stroke-width="4.58333" stroke-linejoin="round" stroke-miterlimit="10" fill="none" fill-rule="evenodd"/><path d="M300.208 1553.35 4099.79 1553.35" stroke="#000000" stroke-width="4.58333" stroke-linejoin="round" stroke-miterlimit="10" fill="none" fill-rule="evenodd"/><path d="M302.5 1413.68 302.5 1689.47" stroke="#000000" stroke-width="4.58333" stroke-linejoin="round" stroke-miterlimit="10" fill="none" fill-rule="evenodd"/><path d="M4097.5 1413.68 4097.5 1689.47" stroke="#000000" stroke-width="4.58333" stroke-linejoin="round" stroke-miterlimit="10" fill="none" fill-rule="evenodd"/><path d="M300.208 1415.97 4099.79 1415.97" stroke="#000000" stroke-width="4.58333" stroke-linejoin="round" stroke-miterlimit="10" fill="none" fill-rule="evenodd"/><path d="M300.208 1687.18 4099.79 1687.18" stroke="#000000" stroke-width="4.58333" stroke-linejoin="round" stroke-miterlimit="10" fill="none" fill-rule="evenodd"/><g><text fill="#0D0D0D" font-family="DengXian,DengXian_MSFontService,sans-serif" font-weight="700" font-size="83" transform="matrix(1 0 0 1 3929.11 1509)">16</text></g><g><text fill="#0D0D0D" font-family="DengXian,DengXian_MSFontService,sans-serif" font-weight="700" font-size="83" transform="matrix(1 0 0 1 3727.72 1509)">15</text></g><g><text fill="#0D0D0D" font-family="DengXian,DengXian_MSFontService,sans-serif" font-weight="700" font-size="83" transform="matrix(1 0 0 1 3526.34 1509)">14</text></g><g><text fill="#0D0D0D" font-family="DengXian,DengXian_MSFontService,sans-serif" font-weight="700" font-size="83" transform="matrix(1 0 0 1 3324.95 1509)">13</text></g><g><text fill="#0D0D0D" font-family="DengXian,DengXian_MSFontService,sans-serif" font-weight="700" font-size="83" transform="matrix(1 0 0 1 3123.56 1509)">12</text></g><g><text fill="#0D0D0D" font-family="DengXian,DengXian_MSFontService,sans-serif" font-weight="700" font-size="83" transform="matrix(1 0 0 1 2922.17 1509)">11</text></g><g><text fill="#0D0D0D" font-family="DengXian,DengXian_MSFontService,sans-serif" font-weight="700" font-size="83" transform="matrix(1 0 0 1 2720.79 1509)">10</text></g><g><text fill="#0D0D0D" font-family="DengXian,DengXian_MSFontService,sans-serif" font-weight="700" font-size="83" transform="matrix(1 0 0 1 2519.4 1509)">9</text></g><g><text fill="#C00000" font-family="DengXian,DengXian_MSFontService,sans-serif" font-weight="700" font-size="83" transform="matrix(1 0 0 1 2318.01 1509)">8</text></g><g><text fill="#C00000" font-family="DengXian,DengXian_MSFontService,sans-serif" font-weight="700" font-size="83" transform="matrix(1 0 0 1 2116.62 1509)">7</text></g><g><text fill="#C00000" font-family="DengXian,DengXian_MSFontService,sans-serif" font-weight="700" font-size="83" transform="matrix(1 0 0 1 1915.23 1509)">6</text></g><g><text fill="#C00000" font-family="DengXian,DengXian_MSFontService,sans-serif" font-weight="700" font-size="83" transform="matrix(1 0 0 1 1713.85 1509)">5</text></g><g><text fill="#0D0D0D" font-family="DengXian,DengXian_MSFontService,sans-serif" font-weight="700" font-size="83" transform="matrix(1 0 0 1 1512.46 1509)">4</text></g><g><text fill="#0D0D0D" font-family="DengXian,DengXian_MSFontService,sans-serif" font-weight="700" font-size="83" transform="matrix(1 0 0 1 1311.07 1509)">3</text></g><g><text fill="#0D0D0D" font-family="DengXian,DengXian_MSFontService,sans-serif" font-weight="700" font-size="83" transform="matrix(1 0 0 1 1109.68 1509)">2</text></g><g><text fill="#0070C0" font-family="DengXian,DengXian_MSFontService,sans-serif" font-weight="700" font-size="83" transform="matrix(1 0 0 1 908.296 1509)">1</text></g><g><text fill="#7F7F7F" font-family="DengXian,DengXian_MSFontService,sans-serif" font-weight="700" font-size="83" transform="matrix(1 0 0 1 706.909 1509)">0</text></g><g><text fill="#0D0D0D" font-family="DengXian,DengXian_MSFontService,sans-serif" font-weight="700" font-size="83" transform="matrix(1 0 0 1 335.5 1509)">序号</text></g><g><text fill="#0D0D0D" font-family="DengXian,DengXian_MSFontService,sans-serif" font-weight="400" font-size="83" transform="matrix(1 0 0 1 3929.11 1647)">12</text></g><g><text fill="#0D0D0D" font-family="DengXian,DengXian_MSFontService,sans-serif" font-weight="400" font-size="83" transform="matrix(1 0 0 1 3727.72 1647)">17</text></g><g><text fill="#0D0D0D" font-family="DengXian,DengXian_MSFontService,sans-serif" font-weight="400" font-size="83" transform="matrix(1 0 0 1 3526.34 1647)">5</text></g><g><text fill="#0D0D0D" font-family="DengXian,DengXian_MSFontService,sans-serif" font-weight="400" font-size="83" transform="matrix(1 0 0 1 3324.95 1647)">4</text></g><g><text fill="#0D0D0D" font-family="DengXian,DengXian_MSFontService,sans-serif" font-weight="400" font-size="83" transform="matrix(1 0 0 1 3123.56 1647)">11</text></g><g><text fill="#0D0D0D" font-family="DengXian,DengXian_MSFontService,sans-serif" font-weight="400" font-size="83" transform="matrix(1 0 0 1 2922.17 1647)">6</text></g><g><text fill="#0D0D0D" font-family="DengXian,DengXian_MSFontService,sans-serif" font-weight="400" font-size="83" transform="matrix(1 0 0 1 2720.79 1647)">7</text></g><g><text fill="#0D0D0D" font-family="DengXian,DengXian_MSFontService,sans-serif" font-weight="400" font-size="83" transform="matrix(1 0 0 1 2519.4 1647)">2</text></g><g><text fill="#C00000" font-family="DengXian,DengXian_MSFontService,sans-serif" font-weight="400" font-size="83" transform="matrix(1 0 0 1 2318.01 1647)">9</text></g><g><text fill="#C00000" font-family="DengXian,DengXian_MSFontService,sans-serif" font-weight="400" font-size="83" transform="matrix(1 0 0 1 2116.62 1647)">8</text></g><g><text fill="#C00000" font-family="DengXian,DengXian_MSFontService,sans-serif" font-weight="400" font-size="83" transform="matrix(1 0 0 1 1915.23 1647)">1</text></g><g><text fill="#C00000" font-family="DengXian,DengXian_MSFontService,sans-serif" font-weight="400" font-size="83" transform="matrix(1 0 0 1 1713.85 1647)">18</text></g><g><text fill="#0D0D0D" font-family="DengXian,DengXian_MSFontService,sans-serif" font-weight="400" font-size="83" transform="matrix(1 0 0 1 1512.46 1647)">14</text></g><g><text fill="#0D0D0D" font-family="DengXian,DengXian_MSFontService,sans-serif" font-weight="400" font-size="83" transform="matrix(1 0 0 1 1311.07 1647)">23</text></g><g><text fill="#0D0D0D" font-family="DengXian,DengXian_MSFontService,sans-serif" font-weight="400" font-size="83" transform="matrix(1 0 0 1 1109.68 1647)">7</text></g><g><text fill="#0070C0" font-family="DengXian,DengXian_MSFontService,sans-serif" font-weight="400" font-size="83" transform="matrix(1 0 0 1 908.296 1647)">15</text></g><g><text fill="#7F7F7F" font-family="DengXian,DengXian_MSFontService,sans-serif" font-weight="400" font-size="83" transform="matrix(1 0 0 1 706.909 1647)">0</text></g><g><text fill="#0D0D0D" font-family="DengXian,DengXian_MSFontService,sans-serif" font-weight="400" font-size="83" transform="matrix(1 0 0 1 335.5 1647)">数值</text></g></g></svg>