<svg width="3803" height="713" xmlns="http://www.w3.org/2000/svg" xmlns:xlink="http://www.w3.org/1999/xlink" xml:space="preserve" overflow="hidden"><g transform="translate(-300 -1407)"><path d="M673.909 1413.68 673.909 1823.31" stroke="#000000" stroke-width="4.58333" stroke-linejoin="round" stroke-miterlimit="10" fill="none" fill-rule="evenodd"/><path d="M673.909 1952.56 673.909 2090.97" stroke="#000000" stroke-width="4.58333" stroke-linejoin="round" stroke-miterlimit="10" fill="none" fill-rule="evenodd"/><path d="M875.297 1413.68 875.297 1823.31" stroke="#000000" stroke-width="4.58333" stroke-linejoin="round" stroke-miterlimit="10" fill="none" fill-rule="evenodd"/><path d="M875.297 1952.56 875.297 2090.97" stroke="#000000" stroke-width="4.58333" stroke-linejoin="round" stroke-miterlimit="10" fill="none" fill-rule="evenodd"/><path d="M1076.68 1413.68 1076.68 1823.31" stroke="#000000" stroke-width="4.58333" stroke-linejoin="round" stroke-miterlimit="10" fill="none" fill-rule="evenodd"/><path d="M1076.68 1952.56 1076.68 2090.97" stroke="#000000" stroke-width="4.58333" stroke-linejoin="round" stroke-miterlimit="10" fill="none" fill-rule="evenodd"/><path d="M1278.07 1413.68 1278.07 1823.31" stroke="#000000" stroke-width="4.58333" stroke-linejoin="round" stroke-miterlimit="10" fill="none" fill-rule="evenodd"/><path d="M1278.07 1952.56 1278.07 2090.97" stroke="#000000" stroke-width="4.58333" stroke-linejoin="round" stroke-miterlimit="10" fill="none" fill-rule="evenodd"/><path d="M1479.46 1413.68 1479.46 1823.31" stroke="#000000" stroke-width="4.58333" stroke-linejoin="round" stroke-miterlimit="10" fill="none" fill-rule="evenodd"/><path d="M1479.46 1952.56 1479.46 2090.97" stroke="#000000" stroke-width="4.58333" stroke-linejoin="round" stroke-miterlimit="10" fill="none" fill-rule="evenodd"/><path d="M1680.85 1413.68 1680.85 1823.31" stroke="#000000" stroke-width="4.58333" stroke-linejoin="round" stroke-miterlimit="10" fill="none" fill-rule="evenodd"/><path d="M1680.85 1952.56 1680.85 2090.97" stroke="#000000" stroke-width="4.58333" stroke-linejoin="round" stroke-miterlimit="10" fill="none" fill-rule="evenodd"/><path d="M1882.23 1413.68 1882.23 2090.97" stroke="#000000" stroke-width="4.58333" stroke-linejoin="round" stroke-miterlimit="10" fill="none" fill-rule="evenodd"/><path d="M2083.62 1413.68 2083.62 2090.97" stroke="#000000" stroke-width="4.58333" stroke-linejoin="round" stroke-miterlimit="10" fill="none" fill-rule="evenodd"/><path d="M2285.01 1413.68 2285.01 1823.31" stroke="#000000" stroke-width="4.58333" stroke-linejoin="round" stroke-miterlimit="10" fill="none" fill-rule="evenodd"/><path d="M2285.01 1952.56 2285.01 2090.97" stroke="#000000" stroke-width="4.58333" stroke-linejoin="round" stroke-miterlimit="10" fill="none" fill-rule="evenodd"/><path d="M2486.4 1413.68 2486.4 1823.31" stroke="#000000" stroke-width="4.58333" stroke-linejoin="round" stroke-miterlimit="10" fill="none" fill-rule="evenodd"/><path d="M2486.4 1952.56 2486.4 2090.97" stroke="#000000" stroke-width="4.58333" stroke-linejoin="round" stroke-miterlimit="10" fill="none" fill-rule="evenodd"/><path d="M2687.79 1413.68 2687.79 1823.31" stroke="#000000" stroke-width="4.58333" stroke-linejoin="round" stroke-miterlimit="10" fill="none" fill-rule="evenodd"/><path d="M2687.79 1952.56 2687.79 2090.97" stroke="#000000" stroke-width="4.58333" stroke-linejoin="round" stroke-miterlimit="10" fill="none" fill-rule="evenodd"/><path d="M2889.17 1413.68 2889.17 1823.31" stroke="#000000" stroke-width="4.58333" stroke-linejoin="round" stroke-miterlimit="10" fill="none" fill-rule="evenodd"/><path d="M2889.17 1952.56 2889.17 2090.97" stroke="#000000" stroke-width="4.58333" stroke-linejoin="round" stroke-miterlimit="10" fill="none" fill-rule="evenodd"/><path d="M3090.56 1413.68 3090.56 1823.31" stroke="#000000" stroke-width="4.58333" stroke-linejoin="round" stroke-miterlimit="10" fill="none" fill-rule="evenodd"/><path d="M3090.56 1952.56 3090.56 2090.97" stroke="#000000" stroke-width="4.58333" stroke-linejoin="round" stroke-miterlimit="10" fill="none" fill-rule="evenodd"/><path d="M3291.95 1413.68 3291.95 1823.31" stroke="#000000" stroke-width="4.58333" stroke-linejoin="round" stroke-miterlimit="10" fill="none" fill-rule="evenodd"/><path d="M3291.95 1952.56 3291.95 2090.97" stroke="#000000" stroke-width="4.58333" stroke-linejoin="round" stroke-miterlimit="10" fill="none" fill-rule="evenodd"/><path d="M3493.34 1413.68 3493.34 1823.31" stroke="#000000" stroke-width="4.58333" stroke-linejoin="round" stroke-miterlimit="10" fill="none" fill-rule="evenodd"/><path d="M3493.34 1952.56 3493.34 2090.97" stroke="#000000" stroke-width="4.58333" stroke-linejoin="round" stroke-miterlimit="10" fill="none" fill-rule="evenodd"/><path d="M3694.72 1413.68 3694.72 1823.31" stroke="#000000" stroke-width="4.58333" stroke-linejoin="round" stroke-miterlimit="10" fill="none" fill-rule="evenodd"/><path d="M3694.72 1952.56 3694.72 2090.97" stroke="#000000" stroke-width="4.58333" stroke-linejoin="round" stroke-miterlimit="10" fill="none" fill-rule="evenodd"/><path d="M3896.11 1413.68 3896.11 1823.31" stroke="#000000" stroke-width="4.58333" stroke-linejoin="round" stroke-miterlimit="10" fill="none" fill-rule="evenodd"/><path d="M3896.11 1952.56 3896.11 2090.97" stroke="#000000" stroke-width="4.58333" stroke-linejoin="round" stroke-miterlimit="10" fill="none" fill-rule="evenodd"/><path d="M300.208 1553.35 4099.79 1553.35" stroke="#000000" stroke-width="4.58333" stroke-linejoin="round" stroke-miterlimit="10" fill="none" fill-rule="evenodd"/><path d="M300.208 1687.18 4099.79 1687.18" stroke="#000000" stroke-width="4.58333" stroke-linejoin="round" stroke-miterlimit="10" fill="none" fill-rule="evenodd"/><path d="M300.208 1821.01 4099.79 1821.01" stroke="#000000" stroke-width="4.58333" stroke-linejoin="round" stroke-miterlimit="10" fill="none" fill-rule="evenodd"/><path d="M300.208 1954.85 4099.79 1954.85" stroke="#000000" stroke-width="4.58333" stroke-linejoin="round" stroke-miterlimit="10" fill="none" fill-rule="evenodd"/><path d="M302.5 1413.68 302.5 1823.31" stroke="#000000" stroke-width="4.58333" stroke-linejoin="round" stroke-miterlimit="10" fill="none" fill-rule="evenodd"/><path d="M302.5 1952.56 302.5 2090.97" stroke="#000000" stroke-width="4.58333" stroke-linejoin="round" stroke-miterlimit="10" fill="none" fill-rule="evenodd"/><path d="M4097.5 1413.68 4097.5 1823.31" stroke="#000000" stroke-width="4.58333" stroke-linejoin="round" stroke-miterlimit="10" fill="none" fill-rule="evenodd"/><path d="M4097.5 1952.56 4097.5 2090.97" stroke="#000000" stroke-width="4.58333" stroke-linejoin="round" stroke-miterlimit="10" fill="none" fill-rule="evenodd"/><path d="M300.208 1415.97 4099.79 1415.97" stroke="#000000" stroke-width="4.58333" stroke-linejoin="round" stroke-miterlimit="10" fill="none" fill-rule="evenodd"/><path d="M300.208 2088.68 4099.79 2088.68" stroke="#000000" stroke-width="4.58333" stroke-linejoin="round" stroke-miterlimit="10" fill="none" fill-rule="evenodd"/><g><text fill="#0D0D0D" font-family="DengXian,DengXian_MSFontService,sans-serif" font-weight="700" font-size="83" transform="matrix(1 0 0 1 3929.11 1509)">16</text></g><g><text fill="#0D0D0D" font-family="DengXian,DengXian_MSFontService,sans-serif" font-weight="700" font-size="83" transform="matrix(1 0 0 1 3727.72 1509)">15</text></g><g><text fill="#0D0D0D" font-family="DengXian,DengXian_MSFontService,sans-serif" font-weight="700" font-size="83" transform="matrix(1 0 0 1 3526.34 1509)">14</text></g><g><text fill="#0D0D0D" font-family="DengXian,DengXian_MSFontService,sans-serif" font-weight="700" font-size="83" transform="matrix(1 0 0 1 3324.95 1509)">13</text></g><g><text fill="#0D0D0D" font-family="DengXian,DengXian_MSFontService,sans-serif" font-weight="700" font-size="83" transform="matrix(1 0 0 1 3123.56 1509)">12</text></g><g><text fill="#0D0D0D" font-family="DengXian,DengXian_MSFontService,sans-serif" font-weight="700" font-size="83" transform="matrix(1 0 0 1 2922.17 1509)">11</text></g><g><text fill="#0D0D0D" font-family="DengXian,DengXian_MSFontService,sans-serif" font-weight="700" font-size="83" transform="matrix(1 0 0 1 2720.79 1509)">10</text></g><g><text fill="#0D0D0D" font-family="DengXian,DengXian_MSFontService,sans-serif" font-weight="700" font-size="83" transform="matrix(1 0 0 1 2519.4 1509)">9</text></g><g><text fill="#C00000" font-family="DengXian,DengXian_MSFontService,sans-serif" font-weight="700" font-size="83" transform="matrix(1 0 0 1 2318.01 1509)">8</text></g><g><text fill="#C00000" font-family="DengXian,DengXian_MSFontService,sans-serif" font-weight="700" font-size="83" transform="matrix(1 0 0 1 2116.62 1509)">7</text></g><g><text fill="#C00000" font-family="DengXian,DengXian_MSFontService,sans-serif" font-weight="700" font-size="83" transform="matrix(1 0 0 1 1915.23 1509)">6</text></g><g><text fill="#C00000" font-family="DengXian,DengXian_MSFontService,sans-serif" font-weight="700" font-size="83" transform="matrix(1 0 0 1 1713.85 1509)">5</text></g><g><text fill="#0D0D0D" font-family="DengXian,DengXian_MSFontService,sans-serif" font-weight="700" font-size="83" transform="matrix(1 0 0 1 1512.46 1509)">4</text></g><g><text fill="#0D0D0D" font-family="DengXian,DengXian_MSFontService,sans-serif" font-weight="700" font-size="83" transform="matrix(1 0 0 1 1311.07 1509)">3</text></g><g><text fill="#0D0D0D" font-family="DengXian,DengXian_MSFontService,sans-serif" font-weight="700" font-size="83" transform="matrix(1 0 0 1 1109.68 1509)">2</text></g><g><text font-family="DengXian,DengXian_MSFontService,sans-serif" font-weight="700" font-size="83" transform="matrix(1 0 0 1 908.296 1509)">1</text></g><g><text fill="#7F7F7F" font-family="DengXian,DengXian_MSFontService,sans-serif" font-weight="700" font-size="83" transform="matrix(1 0 0 1 706.909 1509)">0</text></g><g><text fill="#0D0D0D" font-family="DengXian,DengXian_MSFontService,sans-serif" font-weight="700" font-size="83" transform="matrix(1 0 0 1 335.5 1509)">序号</text></g><g><text fill="#0D0D0D" font-family="DengXian,DengXian_MSFontService,sans-serif" font-weight="400" font-size="83" transform="matrix(1 0 0 1 3929.11 1647)">12</text></g><g><text fill="#0D0D0D" font-family="DengXian,DengXian_MSFontService,sans-serif" font-weight="400" font-size="83" transform="matrix(1 0 0 1 3727.72 1647)">17</text></g><g><text fill="#0D0D0D" font-family="DengXian,DengXian_MSFontService,sans-serif" font-weight="400" font-size="83" transform="matrix(1 0 0 1 3526.34 1647)">5</text></g><g><text fill="#0D0D0D" font-family="DengXian,DengXian_MSFontService,sans-serif" font-weight="400" font-size="83" transform="matrix(1 0 0 1 3324.95 1647)">4</text></g><g><text fill="#0D0D0D" font-family="DengXian,DengXian_MSFontService,sans-serif" font-weight="400" font-size="83" transform="matrix(1 0 0 1 3123.56 1647)">11</text></g><g><text fill="#0D0D0D" font-family="DengXian,DengXian_MSFontService,sans-serif" font-weight="400" font-size="83" transform="matrix(1 0 0 1 2922.17 1647)">6</text></g><g><text fill="#0D0D0D" font-family="DengXian,DengXian_MSFontService,sans-serif" font-weight="400" font-size="83" transform="matrix(1 0 0 1 2720.79 1647)">7</text></g><g><text fill="#0D0D0D" font-family="DengXian,DengXian_MSFontService,sans-serif" font-weight="400" font-size="83" transform="matrix(1 0 0 1 2519.4 1647)">2</text></g><g><text fill="#C00000" font-family="DengXian,DengXian_MSFontService,sans-serif" font-weight="400" font-size="83" transform="matrix(1 0 0 1 2318.01 1647)">9</text></g><g><text fill="#C00000" font-family="DengXian,DengXian_MSFontService,sans-serif" font-weight="400" font-size="83" transform="matrix(1 0 0 1 2116.62 1647)">8</text></g><g><text fill="#C00000" font-family="DengXian,DengXian_MSFontService,sans-serif" font-weight="400" font-size="83" text-decoration="line-through" transform="matrix(1 0 0 1 1915.23 1647)">1</text></g><g><text fill="#C00000" font-family="DengXian,DengXian_MSFontService,sans-serif" font-weight="400" font-size="83" transform="matrix(1 0 0 1 1713.85 1647)">18</text></g><g><text fill="#0D0D0D" font-family="DengXian,DengXian_MSFontService,sans-serif" font-weight="400" font-size="83" transform="matrix(1 0 0 1 1512.46 1647)">14</text></g><g><text fill="#0D0D0D" font-family="DengXian,DengXian_MSFontService,sans-serif" font-weight="400" font-size="83" transform="matrix(1 0 0 1 1311.07 1647)">23</text></g><g><text fill="#0D0D0D" font-family="DengXian,DengXian_MSFontService,sans-serif" font-weight="400" font-size="83" transform="matrix(1 0 0 1 1109.68 1647)">7</text></g><g><text font-family="DengXian,DengXian_MSFontService,sans-serif" font-weight="400" font-size="83" transform="matrix(1 0 0 1 908.296 1647)">15</text></g><g><text fill="#7F7F7F" font-family="DengXian,DengXian_MSFontService,sans-serif" font-weight="400" font-size="83" transform="matrix(1 0 0 1 706.909 1647)">0</text></g><g><text fill="#0D0D0D" font-family="DengXian,DengXian_MSFontService,sans-serif" font-weight="400" font-size="83" transform="matrix(1 0 0 1 335.5 1647)">数值</text></g><g><text fill="#0D0D0D" font-family="DengXian,DengXian_MSFontService,sans-serif" font-weight="400" font-size="83" text-decoration="line-through" transform="matrix(1 0 0 1 3929.11 1781)">159</text></g><g><text fill="#0D0D0D" font-family="DengXian,DengXian_MSFontService,sans-serif" font-weight="400" font-size="83" text-decoration="line-through" transform="matrix(1 0 0 1 3727.72 1781)">147</text></g><g><text fill="#0D0D0D" font-family="DengXian,DengXian_MSFontService,sans-serif" font-weight="400" font-size="83" text-decoration="line-through" transform="matrix(1 0 0 1 3526.34 1781)">130</text></g><g><text fill="#0D0D0D" font-family="DengXian,DengXian_MSFontService,sans-serif" font-weight="400" font-size="83" text-decoration="line-through" transform="matrix(1 0 0 1 3324.95 1781)">125</text></g><g><text fill="#0D0D0D" font-family="DengXian,DengXian_MSFontService,sans-serif" font-weight="400" font-size="83" text-decoration="line-through" transform="matrix(1 0 0 1 3123.56 1781)">121</text></g><g><text fill="#0D0D0D" font-family="DengXian,DengXian_MSFontService,sans-serif" font-weight="400" font-size="83" text-decoration="line-through" transform="matrix(1 0 0 1 2922.17 1781)">110</text></g><g><text font-family="DengXian,DengXian_MSFontService,sans-serif" font-weight="400" font-size="83" text-decoration="line-through" transform="matrix(1 0 0 1 2720.79 1781)">104</text></g><g><text font-family="DengXian,DengXian_MSFontService,sans-serif" font-weight="400" font-size="83" text-decoration="line-through" transform="matrix(1 0 0 1 2519.4 1781)">97</text></g><g><text font-family="DengXian,DengXian_MSFontService,sans-serif" font-weight="400" font-size="83" text-decoration="line-through" transform="matrix(1 0 0 1 2318.01 1781)">95</text></g><g><text font-family="DengXian,DengXian_MSFontService,sans-serif" font-weight="400" font-size="83" text-decoration="line-through" transform="matrix(1 0 0 1 2116.62 1781)">86</text></g><g><text font-family="DengXian,DengXian_MSFontService,sans-serif" font-weight="400" font-size="83" text-decoration="line-through" transform="matrix(1 0 0 1 1915.23 1781)">78</text></g><g><text font-family="DengXian,DengXian_MSFontService,sans-serif" font-weight="400" font-size="83" transform="matrix(1 0 0 1 1713.85 1781)">77</text></g><g><text font-family="DengXian,DengXian_MSFontService,sans-serif" font-weight="400" font-size="83" transform="matrix(1 0 0 1 1512.46 1781)">59</text></g><g><text fill="#0D0D0D" font-family="DengXian,DengXian_MSFontService,sans-serif" font-weight="400" font-size="83" transform="matrix(1 0 0 1 1311.07 1781)">45</text></g><g><text fill="#0D0D0D" font-family="DengXian,DengXian_MSFontService,sans-serif" font-weight="400" font-size="83" transform="matrix(1 0 0 1 1109.68 1781)">22</text></g><g><text fill="#0D0D0D" font-family="DengXian,DengXian_MSFontService,sans-serif" font-weight="400" font-size="83" transform="matrix(1 0 0 1 908.296 1781)">15</text></g><g><text fill="#7F7F7F" font-family="DengXian,DengXian_MSFontService,sans-serif" font-weight="400" font-size="83" transform="matrix(1 0 0 1 706.909 1781)">0</text></g><g><text fill="#0D0D0D" font-family="DengXian,DengXian_MSFontService,sans-serif" font-weight="400" font-size="83" transform="matrix(1 0 0 1 335.5 1781)">前缀和</text></g><g><text fill="#0070C0" font-family="DengXian,DengXian_MSFontService,sans-serif" font-weight="400" font-size="83" transform="matrix(1 0 0 1 1915.23 1915)">10</text></g><g><text fill="#0070C0" font-family="DengXian,DengXian_MSFontService,sans-serif" font-weight="400" font-size="83" transform="matrix(1 0 0 1 3929.11 2048)">168</text></g><g><text fill="#0070C0" font-family="DengXian,DengXian_MSFontService,sans-serif" font-weight="400" font-size="83" transform="matrix(1 0 0 1 3727.72 2048)">156</text></g><g><text fill="#0070C0" font-family="DengXian,DengXian_MSFontService,sans-serif" font-weight="400" font-size="83" transform="matrix(1 0 0 1 3526.34 2048)">139</text></g><g><text fill="#0070C0" font-family="DengXian,DengXian_MSFontService,sans-serif" font-weight="400" font-size="83" transform="matrix(1 0 0 1 3324.95 2048)">134</text></g><g><text fill="#0070C0" font-family="DengXian,DengXian_MSFontService,sans-serif" font-weight="400" font-size="83" transform="matrix(1 0 0 1 3123.56 2048)">130</text></g><g><text fill="#0070C0" font-family="DengXian,DengXian_MSFontService,sans-serif" font-weight="400" font-size="83" transform="matrix(1 0 0 1 2922.17 2048)">119</text></g><g><text fill="#0070C0" font-family="DengXian,DengXian_MSFontService,sans-serif" font-weight="400" font-size="83" transform="matrix(1 0 0 1 2720.79 2048)">113</text></g><g><text fill="#0070C0" font-family="DengXian,DengXian_MSFontService,sans-serif" font-weight="400" font-size="83" transform="matrix(1 0 0 1 2519.4 2048)">106</text></g><g><text fill="#0070C0" font-family="DengXian,DengXian_MSFontService,sans-serif" font-weight="400" font-size="83" transform="matrix(1 0 0 1 2318.01 2048)">104</text></g><g><text fill="#0070C0" font-family="DengXian,DengXian_MSFontService,sans-serif" font-weight="400" font-size="83" transform="matrix(1 0 0 1 2116.62 2048)">95</text></g><g><text fill="#0070C0" font-family="DengXian,DengXian_MSFontService,sans-serif" font-weight="400" font-size="83" transform="matrix(1 0 0 1 1915.23 2048)">87</text></g><g><text font-family="DengXian,DengXian_MSFontService,sans-serif" font-weight="400" font-size="83" transform="matrix(1 0 0 1 1713.85 2048)">77</text></g><g><text font-family="DengXian,DengXian_MSFontService,sans-serif" font-weight="400" font-size="83" transform="matrix(1 0 0 1 1512.46 2048)">59</text></g><g><text font-family="DengXian,DengXian_MSFontService,sans-serif" font-weight="400" font-size="83" transform="matrix(1 0 0 1 1311.07 2048)">45</text></g><g><text fill="#0D0D0D" font-family="DengXian,DengXian_MSFontService,sans-serif" font-weight="400" font-size="83" transform="matrix(1 0 0 1 1109.68 2048)">22</text></g><g><text fill="#0D0D0D" font-family="DengXian,DengXian_MSFontService,sans-serif" font-weight="400" font-size="83" transform="matrix(1 0 0 1 908.296 2048)">15</text></g><g><text fill="#7F7F7F" font-family="DengXian,DengXian_MSFontService,sans-serif" font-weight="400" font-size="83" transform="matrix(1 0 0 1 706.909 2048)">0</text></g><g><text fill="#0D0D0D" font-family="DengXian,DengXian_MSFontService,sans-serif" font-weight="400" font-size="83" transform="matrix(1 0 0 1 335.5 2048)">新前缀</text></g><path d="M2720.5 1848.83C2720.5 1838.71 2728.71 1830.5 2738.83 1830.5L2880 1830.5 2880 1830.5 3119.25 1830.5 3659.17 1830.5C3669.29 1830.5 3677.5 1838.71 3677.5 1848.83L3677.5 1894.67 3677.5 1894.67 3677.5 1922.17 3677.5 1922.17C3677.5 1932.29 3669.29 1940.5 3659.17 1940.5L3119.25 1940.5 2880 1940.5 2880 1940.5 2738.83 1940.5C2728.71 1940.5 2720.5 1932.29 2720.5 1922.17L2720.5 1922.17 2638.87 1941.38 2720.5 1894.67Z" stroke="#2F528F" stroke-width="4.58333" stroke-miterlimit="8" fill="#4472C4" fill-rule="evenodd"/><text fill="#FFFFFF" font-family="DengXian,DengXian_MSFontService,sans-serif" font-weight="400" font-size="83" transform="matrix(1 0 0 1 2757.94 1913)">更新前缀和得不偿失</text></g></svg>