<svg width="3834" height="384" xmlns="http://www.w3.org/2000/svg" xmlns:xlink="http://www.w3.org/1999/xlink" xml:space="preserve" overflow="hidden"><defs><radialGradient cx="5154930" cy="19051.2" r="5155071" fy="19051" gradientUnits="userSpaceOnUse" spreadMethod="pad" id="stroke0" gradientTransform="matrix(0.000360892 0 0 0.000360892 1254 1831)"><stop offset="0" stop-color="#FF0000"/><stop offset="0.00699301" stop-color="#FE0100"/><stop offset="0.013986" stop-color="#FE0300"/><stop offset="0.020979" stop-color="#FE0500"/><stop offset="0.027972" stop-color="#FE0700"/><stop offset="0.034965" stop-color="#FE0900"/><stop offset="0.041958" stop-color="#FE0B00"/><stop offset="0.048951" stop-color="#FE0C00"/><stop offset="0.0559441" stop-color="#FE0E00"/><stop offset="0.0629371" stop-color="#FE1000"/><stop offset="0.0699301" stop-color="#FE1200"/><stop offset="0.0769231" stop-color="#FE1400"/><stop offset="0.0839161" stop-color="#FE1500"/><stop offset="0.0909091" stop-color="#FE1700"/><stop offset="0.0979021" stop-color="#FE1900"/><stop offset="0.104895" stop-color="#FE1B00"/><stop offset="0.111888" stop-color="#FD1C00"/><stop offset="0.118881" stop-color="#FD1E00"/><stop offset="0.125874" stop-color="#FD2000"/><stop offset="0.132867" stop-color="#FD2100"/><stop offset="0.13986" stop-color="#FD2300"/><stop offset="0.146853" stop-color="#FD2500"/><stop offset="0.153846" stop-color="#FD2600"/><stop offset="0.160839" stop-color="#FC2800"/><stop offset="0.167832" stop-color="#FC2900"/><stop offset="0.174825" stop-color="#FC2B00"/><stop offset="0.181818" stop-color="#FC2D00"/><stop offset="0.188811" stop-color="#FC2E00"/><stop offset="0.195804" stop-color="#FB3000"/><stop offset="0.202797" stop-color="#FB3100"/><stop offset="0.20979" stop-color="#FB3300"/><stop offset="0.216783" stop-color="#FB3400"/><stop offset="0.223776" stop-color="#FB3600"/><stop offset="0.230769" stop-color="#FA3700"/><stop offset="0.237762" stop-color="#FA3900"/><stop offset="0.244755" stop-color="#FA3A00"/><stop offset="0.251748" stop-color="#FA3C00"/><stop offset="0.258741" stop-color="#F93D00"/><stop offset="0.265734" stop-color="#F93F00"/><stop offset="0.272727" stop-color="#F94000"/><stop offset="0.27972" stop-color="#F94200"/><stop offset="0.286713" stop-color="#F84300"/><stop offset="0.293706" stop-color="#F84400"/><stop offset="0.300699" stop-color="#F84600"/><stop offset="0.307692" stop-color="#F74700"/><stop offset="0.314685" stop-color="#F74900"/><stop offset="0.321678" stop-color="#F74A00"/><stop offset="0.328671" stop-color="#F74B00"/><stop offset="0.335664" stop-color="#F64D00"/><stop offset="0.342657" stop-color="#F64E00"/><stop offset="0.34965" stop-color="#F64F00"/><stop offset="0.356643" stop-color="#F55100"/><stop offset="0.363636" stop-color="#F55200"/><stop offset="0.370629" stop-color="#F55300"/><stop offset="0.377622" stop-color="#F45400"/><stop offset="0.384615" stop-color="#F45600"/><stop offset="0.391608" stop-color="#F35700"/><stop offset="0.398601" stop-color="#F35800"/><stop offset="0.405594" stop-color="#F35900"/><stop offset="0.412587" stop-color="#F25A00"/><stop offset="0.41958" stop-color="#F25C00"/><stop offset="0.426573" stop-color="#F25D00"/><stop offset="0.433566" stop-color="#F15E00"/><stop offset="0.440559" stop-color="#F15F00"/><stop offset="0.447552" stop-color="#F06000"/><stop offset="0.454545" stop-color="#F06100"/><stop offset="0.461538" stop-color="#EF6200"/><stop offset="0.468531" stop-color="#EF6300"/><stop offset="0.475524" stop-color="#EF6500"/><stop offset="0.482517" stop-color="#EE6600"/><stop offset="0.48951" stop-color="#EE6700"/><stop offset="0.496504" stop-color="#ED6800"/><stop offset="0.503497" stop-color="#ED6900"/><stop offset="0.51049" stop-color="#EC6A00"/><stop offset="0.517483" stop-color="#EC6B00"/><stop offset="0.524476" stop-color="#EB6C00"/><stop offset="0.531469" stop-color="#EB6D00"/><stop offset="0.538462" stop-color="#EA6E00"/><stop offset="0.545455" stop-color="#EA6F00"/><stop offset="0.552448" stop-color="#E97000"/><stop offset="0.559441" stop-color="#E97100"/><stop offset="0.566434" stop-color="#E87100"/><stop offset="0.573427" stop-color="#E87200"/><stop offset="0.58042" stop-color="#E77300"/><stop offset="0.587413" stop-color="#E77400"/><stop offset="0.594406" stop-color="#E67500"/><stop offset="0.601399" stop-color="#E67600"/><stop offset="0.608392" stop-color="#E57700"/><stop offset="0.615385" stop-color="#E57700"/><stop offset="0.622378" stop-color="#E47800"/><stop offset="0.629371" stop-color="#E47900"/><stop offset="0.636364" stop-color="#E37A00"/><stop offset="0.643357" stop-color="#E37B00"/><stop offset="0.65035" stop-color="#E27B00"/><stop offset="0.657343" stop-color="#E17C00"/><stop offset="0.664336" stop-color="#E17D00"/><stop offset="0.671329" stop-color="#E07E00"/><stop offset="0.678322" stop-color="#E07E00"/><stop offset="0.685315" stop-color="#DF7F00"/><stop offset="0.692308" stop-color="#DE8000"/><stop offset="0.699301" stop-color="#DE8000"/><stop offset="0.706294" stop-color="#DD8100"/><stop offset="0.713287" stop-color="#DD8200"/><stop offset="0.72028" stop-color="#DC8200"/><stop offset="0.727273" stop-color="#DB8300"/><stop offset="0.734266" stop-color="#DB8300"/><stop offset="0.741259" stop-color="#DA8400"/><stop offset="0.748252" stop-color="#D98500"/><stop offset="0.755245" stop-color="#D98500"/><stop offset="0.762238" stop-color="#D88600"/><stop offset="0.769231" stop-color="#D78600"/><stop offset="0.776224" stop-color="#D78700"/><stop offset="0.783217" stop-color="#D68700"/><stop offset="0.79021" stop-color="#D58800"/><stop offset="0.797203" stop-color="#D58800"/><stop offset="0.804196" stop-color="#D48900"/><stop offset="0.811189" stop-color="#D38900"/><stop offset="0.818182" stop-color="#D38A00"/><stop offset="0.825175" stop-color="#D28A00"/><stop offset="0.832168" stop-color="#D18A00"/><stop offset="0.839161" stop-color="#D08B00"/><stop offset="0.846154" stop-color="#D08B00"/><stop offset="0.853147" stop-color="#CF8C00"/><stop offset="0.86014" stop-color="#CE8C00"/><stop offset="0.867133" stop-color="#CE8C00"/><stop offset="0.874126" stop-color="#CD8D00"/><stop offset="0.881119" stop-color="#CC8D00"/><stop offset="0.888112" stop-color="#CB8D00"/><stop offset="0.895105" stop-color="#CB8D00"/><stop offset="0.902098" stop-color="#CA8E00"/><stop offset="0.909091" stop-color="#C98E00"/><stop offset="0.916084" stop-color="#C88E00"/><stop offset="0.923077" stop-color="#C78E00"/><stop offset="0.93007" stop-color="#C78F00"/><stop offset="0.937063" stop-color="#C68F00"/><stop offset="0.944056" stop-color="#C58F00"/><stop offset="0.951049" stop-color="#C48F00"/><stop offset="0.958042" stop-color="#C38F00"/><stop offset="0.965035" stop-color="#C38F00"/><stop offset="0.972028" stop-color="#C28F00"/><stop offset="0.979021" stop-color="#C18F00"/><stop offset="0.986014" stop-color="#C08F00"/><stop offset="0.993007" stop-color="#BF8F00"/><stop offset="1" stop-color="#BF9000"/></radialGradient></defs><g transform="translate(-264 -1598)"><path d="M303 1831 4017.86 1831" stroke="#4472C4" stroke-width="13.75" stroke-miterlimit="8" fill="none" fill-rule="evenodd"/><path d="M319.979 1872.12C318.114 1872.12 316.554 1872.67 315.298 1873.78 314.041 1874.89 313.028 1876.48 312.258 1878.56 311.488 1880.64 310.941 1883.17 310.617 1886.16 310.293 1889.14 310.13 1892.51 310.13 1896.27 310.13 1905.08 310.948 1911.54 312.582 1915.66 314.217 1919.78 316.75 1921.84 320.181 1921.84 323.45 1921.84 325.875 1919.9 327.456 1916.03 329.036 1912.15 329.827 1906.15 329.827 1898.01 329.827 1891.8 329.422 1886.77 328.611 1882.92 327.8 1879.07 326.672 1876.3 325.227 1874.63 323.781 1872.95 322.032 1872.12 319.979 1872.12ZM320.181 1868.67C326.098 1868.67 330.502 1870.95 333.393 1875.52 336.284 1880.09 337.73 1886.99 337.73 1896.23 337.73 1905.79 336.183 1913.03 333.089 1917.93 329.996 1922.84 325.477 1925.29 319.533 1925.29 313.697 1925.29 309.354 1922.99 306.503 1918.4 303.653 1913.8 302.228 1906.83 302.228 1897.49 302.228 1892.51 302.667 1888.22 303.545 1884.6 304.423 1880.98 305.652 1877.99 307.233 1875.62 308.813 1873.26 310.711 1871.51 312.927 1870.37 315.142 1869.24 317.561 1868.67 320.181 1868.67Z" fill-rule="evenodd"/><text fill="#000000" fill-opacity="0" font-family="Arial,Arial_MSFontService,sans-serif" font-size="56.6167" x="302.228" y="1918.21">0</text><path d="M4063.12 1902.49C4064.82 1902.49 4066.17 1903.05 4067.15 1904.17 4068.14 1905.29 4068.63 1906.76 4068.63 1908.57 4068.63 1910 4068.31 1911.6 4067.66 1913.35L4068.15 1913.52C4070.8 1909.79 4073.31 1907.02 4075.71 1905.23 4078.1 1903.43 4080.56 1902.53 4083.1 1902.53 4085.61 1902.53 4087.55 1903.25 4088.9 1904.7 4090.25 1906.15 4090.92 1908.15 4090.92 1910.72 4090.92 1912.42 4090.53 1914.84 4089.75 1917.97L4087.11 1928.59C4086.38 1931.54 4086.02 1933.62 4086.02 1934.83 4086.02 1935.91 4086.2 1936.7 4086.55 1937.18 4086.9 1937.67 4087.45 1937.91 4088.21 1937.91 4089.02 1937.91 4089.88 1937.58 4090.8 1936.92 4091.72 1936.26 4093.02 1934.99 4094.69 1933.13L4097 1935.4C4094.68 1937.89 4092.65 1939.7 4090.92 1940.85 4089.19 1942 4087.22 1942.57 4085.01 1942.57 4083.25 1942.57 4081.85 1941.94 4080.79 1940.69 4079.74 1939.43 4079.21 1937.83 4079.21 1935.89 4079.21 1934.13 4079.66 1931.55 4080.55 1928.15L4082.33 1921.13C4082.98 1918.59 4083.41 1916.72 4083.61 1915.5 4083.81 1914.29 4083.91 1913.3 4083.91 1912.54 4083.91 1910.68 4083.6 1909.33 4082.98 1908.51 4082.36 1907.69 4081.35 1907.27 4079.94 1907.27 4078.81 1907.27 4077.58 1907.73 4076.27 1908.63 4074.96 1909.54 4073.57 1910.9 4072.1 1912.72 4070.63 1914.55 4069.44 1916.32 4068.55 1918.03 4067.66 1919.75 4066.93 1921.86 4066.36 1924.38L4062.51 1941.92 4055.5 1941.92 4061.42 1916.23C4062.01 1913.64 4062.31 1911.64 4062.31 1910.23 4062.31 1909.15 4062.14 1908.37 4061.78 1907.88 4061.43 1907.4 4060.88 1907.15 4060.12 1907.15 4059.29 1907.15 4058.4 1907.5 4057.47 1908.19 4056.54 1908.87 4055.26 1910.12 4053.64 1911.93L4051.33 1909.66C4053.81 1907.07 4055.88 1905.23 4057.53 1904.13 4059.18 1903.04 4061.04 1902.49 4063.12 1902.49Z" fill-rule="evenodd"/><text fill="#000000" fill-opacity="0" font-family="Arial,Arial_MSFontService,sans-serif" font-size="40.0815" x="4051.33" y="1937.56">𝑛</text><path d="M1254 1831 3107.5 1831" stroke="url(#stroke0)" stroke-width="13.75" stroke-miterlimit="8" fill="none" fill-rule="evenodd"/><path d="M920.365 1879.62C921.202 1879.62 921.939 1879.71 922.574 1879.9 923.209 1880.09 923.769 1880.38 924.255 1880.78 924.742 1881.17 925.174 1881.67 925.552 1882.3 925.931 1882.92 926.295 1883.76 926.647 1884.83 926.998 1885.9 927.329 1887.22 927.64 1888.8 927.95 1890.38 928.227 1892.02 928.47 1893.72L928.876 1893.72C931.469 1890.08 933.435 1887.41 934.772 1885.72 936.11 1884.03 937.238 1882.77 938.156 1881.95 939.075 1881.13 939.96 1880.55 940.811 1880.21 941.662 1879.87 942.79 1879.7 944.195 1879.7 945.465 1879.7 946.505 1879.86 947.316 1880.19L945.694 1887.52 942.858 1887.52C942.695 1886.39 942.223 1885.82 941.439 1885.82 941.196 1885.82 940.939 1885.86 940.669 1885.94 940.399 1886.02 940.068 1886.2 939.676 1886.47 939.284 1886.74 938.71 1887.27 937.954 1888.05 937.197 1888.83 936.346 1889.79 935.401 1890.93 934.455 1892.06 933.482 1893.25 932.483 1894.49L929.727 1897.94C930.213 1900.53 930.672 1902.78 931.105 1904.67 931.537 1906.56 931.922 1908.13 932.26 1909.39 932.597 1910.64 932.895 1911.64 933.151 1912.37 933.408 1913.1 933.685 1913.64 933.982 1914.01 934.279 1914.37 934.583 1914.63 934.894 1914.78 935.205 1914.93 935.563 1915 935.968 1915 936.697 1915 937.407 1914.72 938.096 1914.15 938.785 1913.58 939.777 1912.3 941.074 1910.3L943.709 1912.04C941.817 1914.85 940.108 1916.83 938.582 1917.98 937.055 1919.13 935.238 1919.7 933.131 1919.7 931.969 1919.7 930.983 1919.49 930.172 1919.07 929.362 1918.65 928.659 1917.99 928.065 1917.07 927.471 1916.15 926.944 1914.72 926.484 1912.77 925.647 1909.31 925.134 1906.67 924.944 1904.83L924.539 1904.83C921.675 1908.85 919.548 1911.74 918.156 1913.5 916.765 1915.26 915.616 1916.55 914.711 1917.39 913.806 1918.23 912.928 1918.82 912.077 1919.15 911.226 1919.49 910.098 1919.66 908.693 1919.66 907.423 1919.66 906.383 1919.5 905.572 1919.18L907.193 1911.84 910.03 1911.84C910.193 1912.97 910.665 1913.54 911.449 1913.54 911.827 1913.54 912.226 1913.44 912.644 1913.24 913.063 1913.04 913.664 1912.55 914.448 1911.78 915.231 1911.01 916.312 1909.8 917.69 1908.15 919.068 1906.5 921.067 1904.03 923.688 1900.74 923.283 1898.6 922.864 1896.55 922.432 1894.57 921.999 1892.6 921.554 1890.77 921.094 1889.06 920.635 1887.36 920.257 1886.25 919.96 1885.72 919.662 1885.19 919.345 1884.83 919.007 1884.63 918.669 1884.42 918.244 1884.32 917.731 1884.32 917.163 1884.32 916.65 1884.45 916.191 1884.71 915.731 1884.96 915.231 1885.41 914.691 1886.04 914.151 1886.68 913.435 1887.67 912.543 1889.02L909.909 1887.28C911.611 1884.71 913.246 1882.8 914.813 1881.53 916.38 1880.26 918.23 1879.62 920.365 1879.62Z" fill-rule="evenodd"/><text fill="#000000" fill-opacity="0" font-family="Arial,Arial_MSFontService,sans-serif" font-size="40.0815" x="905.572" y="1914.69">𝑥</text><path d="M2742.95 1879.66C2744.05 1879.66 2745 1879.81 2745.78 1880.11 2746.32 1880.32 2746.86 1880.68 2747.4 1881.18 2747.94 1881.68 2748.42 1882.38 2748.84 1883.27 2749.26 1884.16 2749.63 1885.16 2749.94 1886.27 2750.25 1887.37 2750.59 1888.97 2750.97 1891.05 2751.62 1894.53 2752.25 1898.2 2752.85 1902.05 2753.46 1905.9 2753.98 1909.48 2754.41 1912.77 2757.04 1908.99 2759.26 1905.29 2761.08 1901.67 2762.91 1898.05 2764.22 1894.9 2765.01 1892.22 2765.81 1889.55 2766.21 1887.37 2766.21 1885.7 2766.21 1884.43 2765.94 1883.57 2765.4 1883.11 2764.86 1882.65 2763.94 1882.38 2762.64 1882.3L2763.05 1880.31 2773.71 1880.31 2774.8 1882.34C2772.75 1887.96 2769.96 1893.97 2766.45 1900.37 2762.99 1906.64 2759.03 1912.88 2754.58 1919.09 2750.31 1925.01 2746.75 1929.29 2743.92 1931.94 2741.95 1933.75 2740.04 1935.05 2738.2 1935.83 2736.74 1936.43 2735.19 1936.72 2733.54 1936.72 2732.98 1936.72 2732.32 1936.68 2731.58 1936.58 2730.83 1936.49 2730.26 1936.36 2729.85 1936.2L2731.6 1928.33 2734.8 1928.33C2734.8 1930.06 2735.39 1930.93 2736.58 1930.93 2738.15 1930.93 2739.97 1929.95 2742.05 1927.99 2744.13 1926.03 2746.58 1923.08 2749.39 1919.13 2748.61 1914.41 2747.54 1908.71 2746.19 1902.03 2744.76 1894.9 2743.81 1890.48 2743.35 1888.78 2742.78 1886.73 2742.19 1885.42 2741.57 1884.85 2741.19 1884.5 2740.72 1884.32 2740.15 1884.32 2739.28 1884.32 2738.47 1884.67 2737.72 1885.38 2736.96 1886.08 2736.03 1887.29 2734.92 1889.02L2732.29 1887.28C2734.15 1884.5 2735.89 1882.53 2737.51 1881.38 2739.14 1880.23 2740.95 1879.66 2742.95 1879.66Z" fill-rule="evenodd"/><text fill="#000000" fill-opacity="0" font-family="Arial,Arial_MSFontService,sans-serif" font-size="57.0625" x="2729.85" y="1929.59">𝑦</text><path d="M1742.85 1879.9C1740.04 1879.9 1737.59 1881.08 1735.5 1883.43 1733.4 1885.78 1731.76 1889.14 1730.55 1893.52 1729.35 1897.9 1728.75 1901.67 1728.75 1904.83 1728.75 1907.8 1729.37 1909.99 1730.59 1911.41 1731.82 1912.83 1733.68 1913.54 1736.17 1913.54 1738.81 1913.54 1741.17 1912.35 1743.22 1909.97 1745.27 1907.6 1746.89 1904.27 1748.08 1899.98 1749.27 1895.7 1749.87 1891.94 1749.87 1888.7 1749.87 1885.78 1749.3 1883.58 1748.16 1882.11 1747.03 1880.64 1745.26 1879.9 1742.85 1879.9ZM1763.88 1877.31 1774.49 1877.31 1776.92 1909.28C1780.73 1903.07 1783.48 1898.34 1785.17 1895.1 1786.86 1891.86 1788.11 1889.05 1788.92 1886.69 1789.73 1884.33 1790.35 1881.86 1790.79 1879.29L1791.23 1877.31 1797.07 1877.31 1800.03 1909.32C1804.24 1903.33 1807.45 1898.09 1809.65 1893.62 1811.85 1889.15 1812.95 1885.51 1812.95 1882.7 1812.95 1881.43 1812.68 1880.56 1812.14 1880.1 1811.6 1879.65 1810.68 1879.38 1809.39 1879.29L1809.79 1877.31 1820.25 1877.31 1821.34 1879.33C1820.4 1881.74 1819.64 1883.59 1819.07 1884.89 1818.51 1886.18 1817.76 1887.74 1816.84 1889.57 1815.93 1891.39 1814.95 1893.21 1813.93 1895.02 1812.9 1896.83 1811.69 1898.82 1810.3 1901 1808.91 1903.17 1807.35 1905.54 1805.62 1908.09 1803.89 1910.64 1801.85 1913.51 1799.5 1916.7L1794.68 1916.7 1793.01 1899.76C1792.88 1898.44 1792.74 1896.71 1792.59 1894.57 1792.44 1892.44 1792.34 1890.79 1792.28 1889.63L1791.84 1889.59C1790.38 1893.18 1788.39 1897.18 1785.88 1901.58 1783.37 1905.99 1780.26 1911.03 1776.56 1916.7L1771.13 1916.7 1768.05 1886.18C1767.89 1884.62 1767.68 1883.35 1767.44 1882.37 1767.2 1881.4 1766.79 1880.67 1766.23 1880.19 1765.66 1879.7 1764.73 1879.4 1763.43 1879.29ZM1743.66 1876.66C1747.99 1876.66 1751.28 1877.84 1753.55 1880.21 1755.82 1882.57 1756.96 1885.95 1756.96 1890.36 1756.96 1893.49 1756.41 1896.84 1755.32 1900.41 1754.22 1903.98 1752.72 1906.97 1750.82 1909.41 1748.91 1911.84 1746.64 1913.67 1743.99 1914.9 1741.34 1916.13 1738.3 1916.74 1734.87 1916.74 1730.68 1916.74 1727.43 1915.57 1725.12 1913.22 1722.81 1910.86 1721.66 1907.49 1721.66 1903.08 1721.66 1900.92 1721.98 1898.42 1722.63 1895.59 1723.47 1891.75 1724.87 1888.4 1726.85 1885.54 1728.82 1882.67 1731.25 1880.48 1734.14 1878.95 1737.03 1877.42 1740.21 1876.66 1743.66 1876.66ZM1681.97 1876.62C1683.67 1876.62 1685.01 1877.18 1686 1878.3 1686.99 1879.42 1687.48 1880.89 1687.48 1882.7 1687.48 1884.13 1687.15 1885.72 1686.51 1887.48L1686.99 1887.64C1689.64 1883.91 1692.16 1881.15 1694.55 1879.35 1696.94 1877.56 1699.41 1876.66 1701.95 1876.66 1704.46 1876.66 1706.39 1877.38 1707.74 1878.83 1709.09 1880.27 1709.77 1882.28 1709.77 1884.85 1709.77 1886.55 1709.38 1888.97 1708.59 1892.1L1705.96 1902.72C1705.23 1905.66 1704.86 1907.74 1704.86 1908.96 1704.86 1910.04 1705.04 1910.82 1705.39 1911.31 1705.74 1911.8 1706.3 1912.04 1707.05 1912.04 1707.86 1912.04 1708.73 1911.71 1709.65 1911.05 1710.57 1910.39 1711.86 1909.12 1713.54 1907.26L1715.85 1909.53C1713.52 1912.01 1711.5 1913.83 1709.77 1914.98 1708.04 1916.13 1706.07 1916.7 1703.85 1916.7 1702.09 1916.7 1700.69 1916.07 1699.64 1914.82 1698.58 1913.56 1698.06 1911.96 1698.06 1910.01 1698.06 1908.26 1698.5 1905.68 1699.39 1902.27L1701.18 1895.26C1701.82 1892.72 1702.25 1890.84 1702.45 1889.63 1702.66 1888.41 1702.76 1887.43 1702.76 1886.67 1702.76 1884.81 1702.45 1883.46 1701.82 1882.64 1701.2 1881.81 1700.19 1881.4 1698.79 1881.4 1697.65 1881.4 1696.43 1881.85 1695.12 1882.76 1693.81 1883.66 1692.42 1885.03 1690.94 1886.85 1689.47 1888.68 1688.29 1890.45 1687.4 1892.16 1686.51 1893.88 1685.78 1895.99 1685.21 1898.5L1681.36 1916.05 1674.35 1916.05 1680.26 1890.36C1680.86 1887.76 1681.16 1885.76 1681.16 1884.36 1681.16 1883.28 1680.98 1882.5 1680.63 1882.01 1680.28 1881.52 1679.72 1881.28 1678.97 1881.28 1678.13 1881.28 1677.24 1881.62 1676.31 1882.31 1675.38 1883 1674.1 1884.25 1672.48 1886.06L1670.17 1883.79C1672.66 1881.2 1674.73 1879.35 1676.37 1878.26 1678.02 1877.17 1679.89 1876.62 1681.97 1876.62Z" fill-rule="evenodd"/><text fill="#000000" fill-opacity="0" font-family="Arial,Arial_MSFontService,sans-serif" font-size="40.1221" x="1670.17" y="1911.73">𝑛𝑜𝑤</text><path d="M2723.5 1714.5 2723.5 1956.27" stroke="#4472C4" stroke-width="9.16667" stroke-miterlimit="8" stroke-dasharray="36.6667 27.5" fill="none" fill-rule="evenodd"/><path d="M897.5 1736.5 897.5 1959.28" stroke="#4472C4" stroke-width="9.16667" stroke-miterlimit="8" stroke-dasharray="36.6667 27.5" fill="none" fill-rule="evenodd"/><path d="M1284.48 1876.66C1286.99 1876.66 1289.28 1876.81 1291.35 1877.11 1293.41 1877.4 1295.47 1877.92 1297.53 1878.65L1295.7 1887.16 1292.42 1887.16C1292.12 1884.75 1291.33 1882.93 1290.05 1881.69 1288.77 1880.44 1286.75 1879.82 1283.99 1879.82 1281.86 1879.82 1280.13 1880.37 1278.8 1881.46 1277.48 1882.56 1276.82 1884 1276.82 1885.78 1276.82 1886.75 1276.99 1887.61 1277.33 1888.35 1277.66 1889.09 1278.35 1889.91 1279.37 1890.8 1280.4 1891.7 1281.99 1892.79 1284.15 1894.09 1285.86 1895.11 1287.22 1896.05 1288.25 1896.9 1289.27 1897.75 1290.08 1898.6 1290.68 1899.44 1291.27 1900.27 1291.71 1901.16 1291.98 1902.09 1292.25 1903.02 1292.38 1904.15 1292.38 1905.47 1292.38 1907.88 1291.74 1909.94 1290.46 1911.66 1289.17 1913.37 1287.43 1914.65 1285.23 1915.48 1283.03 1916.32 1280.52 1916.74 1277.71 1916.74 1275.47 1916.74 1273.27 1916.57 1271.1 1916.23 1268.94 1915.9 1266.54 1915.32 1263.89 1914.51L1265.84 1905.68 1269 1905.68C1269.1 1908.27 1269.83 1910.23 1271.19 1911.55 1272.54 1912.88 1274.68 1913.54 1277.63 1913.54 1280.2 1913.54 1282.2 1912.97 1283.65 1911.82 1285.09 1910.67 1285.82 1909.04 1285.82 1906.93 1285.82 1905.72 1285.61 1904.67 1285.21 1903.79 1284.8 1902.91 1284.14 1902.07 1283.22 1901.26 1282.3 1900.45 1280.84 1899.44 1278.85 1898.22 1276.74 1896.95 1275.1 1895.8 1273.92 1894.78 1272.75 1893.75 1271.86 1892.63 1271.27 1891.43 1270.67 1890.23 1270.37 1888.84 1270.37 1887.28 1270.37 1885.14 1270.95 1883.27 1272.1 1881.66 1273.25 1880.06 1274.89 1878.82 1277.02 1877.96 1279.16 1877.09 1281.64 1876.66 1284.48 1876.66ZM1256.74 1858.1 1259.13 1858.1 1249.16 1902.96C1248.56 1905.64 1248.27 1907.64 1248.27 1908.96 1248.27 1910.04 1248.44 1910.82 1248.79 1911.31 1249.14 1911.8 1249.7 1912.04 1250.45 1912.04 1251.26 1912.04 1252.13 1911.71 1253.05 1911.05 1253.97 1910.39 1255.26 1909.12 1256.94 1907.26L1259.25 1909.53C1256.63 1912.28 1254.49 1914.17 1252.82 1915.18 1251.16 1916.19 1249.31 1916.7 1247.25 1916.7 1245.5 1916.7 1244.09 1916.06 1243.04 1914.78 1241.98 1913.49 1241.46 1911.85 1241.46 1909.85 1241.46 1908.04 1241.84 1905.42 1242.59 1901.99L1249.85 1869.53C1250.17 1868.09 1250.4 1866.95 1250.54 1866.1 1250.67 1865.25 1250.74 1864.46 1250.74 1863.73 1250.74 1862.92 1250.59 1862.31 1250.29 1861.89 1249.99 1861.47 1249.57 1861.16 1249.02 1860.98 1248.46 1860.79 1247.47 1860.65 1246.04 1860.57L1246.52 1858.46Z" fill-rule="evenodd"/><text fill="#000000" fill-opacity="0" font-family="Arial,Arial_MSFontService,sans-serif" font-size="58.6431" x="1241.46" y="1909.41">𝑙𝑠</text><path d="M3168.71 1879.66C3171.22 1879.66 3173.51 1879.81 3175.58 1880.11 3177.64 1880.4 3179.7 1880.92 3181.76 1881.65L3179.93 1890.16 3176.65 1890.16C3176.35 1887.75 3175.56 1885.93 3174.28 1884.69 3173 1883.44 3170.98 1882.82 3168.22 1882.82 3166.09 1882.82 3164.36 1883.37 3163.03 1884.46 3161.71 1885.56 3161.05 1887 3161.05 1888.78 3161.05 1889.75 3161.22 1890.61 3161.56 1891.35 3161.89 1892.1 3162.58 1892.91 3163.6 1893.8 3164.63 1894.7 3166.22 1895.79 3168.38 1897.09 3170.09 1898.11 3171.45 1899.05 3172.48 1899.9 3173.5 1900.76 3174.31 1901.6 3174.91 1902.44 3175.5 1903.27 3175.94 1904.16 3176.21 1905.09 3176.48 1906.02 3176.61 1907.15 3176.61 1908.48 3176.61 1910.88 3175.97 1912.94 3174.69 1914.66 3173.4 1916.37 3171.66 1917.65 3169.46 1918.49 3167.26 1919.32 3164.75 1919.74 3161.94 1919.74 3159.7 1919.74 3157.5 1919.57 3155.33 1919.24 3153.17 1918.9 3150.77 1918.32 3148.12 1917.51L3150.07 1908.68 3153.23 1908.68C3153.34 1911.27 3154.06 1913.23 3155.42 1914.55 3156.77 1915.88 3158.91 1916.54 3161.86 1916.54 3164.43 1916.54 3166.43 1915.97 3167.88 1914.82 3169.32 1913.67 3170.05 1912.04 3170.05 1909.93 3170.05 1908.72 3169.84 1907.67 3169.44 1906.79 3169.03 1905.92 3168.37 1905.07 3167.45 1904.26 3166.53 1903.45 3165.07 1902.44 3163.08 1901.22 3160.97 1899.95 3159.33 1898.8 3158.15 1897.78 3156.98 1896.75 3156.09 1895.64 3155.5 1894.43 3154.9 1893.23 3154.6 1891.85 3154.6 1890.28 3154.6 1888.14 3155.18 1886.27 3156.33 1884.67 3157.48 1883.06 3159.12 1881.82 3161.25 1880.96 3163.39 1880.09 3165.87 1879.66 3168.71 1879.66ZM3119.82 1879.62C3121.52 1879.62 3122.87 1880.18 3123.85 1881.3 3124.84 1882.42 3125.33 1883.89 3125.33 1885.7 3125.33 1887.05 3125.07 1888.44 3124.56 1889.87L3125.09 1890.08C3127.74 1886.48 3130.28 1883.85 3132.73 1882.17 3135.17 1880.5 3137.65 1879.66 3140.16 1879.66 3142.14 1879.66 3143.78 1879.81 3145.11 1880.11L3143.16 1889.18 3138.99 1889.18C3138.83 1888.05 3138.6 1887.17 3138.3 1886.55 3138 1885.93 3137.65 1885.5 3137.25 1885.25 3136.84 1885.01 3136.33 1884.89 3135.71 1884.89 3134.73 1884.89 3133.67 1885.31 3132.53 1886.15 3131.38 1886.98 3130.09 1888.29 3128.65 1890.08 3127.22 1891.86 3126.08 1893.58 3125.23 1895.22 3124.38 1896.87 3123.67 1898.97 3123.1 1901.51L3119.25 1919.05 3112.24 1919.05 3118.12 1893.36C3118.5 1891.74 3118.74 1890.48 3118.85 1889.59 3118.96 1888.7 3119.01 1887.96 3119.01 1887.36 3119.01 1886.28 3118.83 1885.5 3118.48 1885.01 3118.13 1884.52 3117.58 1884.28 3116.82 1884.28 3115.98 1884.28 3115.1 1884.63 3114.17 1885.31 3113.23 1886 3111.96 1887.25 3110.34 1889.06L3108.03 1886.79C3110.51 1884.2 3112.59 1882.36 3114.27 1881.26 3115.94 1880.17 3117.79 1879.62 3119.82 1879.62Z" fill-rule="evenodd"/><text fill="#000000" fill-opacity="0" font-family="Arial,Arial_MSFontService,sans-serif" font-size="40.1221" x="3108.03" y="1914.73">𝑟𝑠</text><path d="M2172.5 1702.5 2172.5 1944.27" stroke="#C00000" stroke-width="9.16667" stroke-miterlimit="8" stroke-dasharray="36.6667 27.5" fill="none" fill-rule="evenodd"/><path d="M2237.96 1652.29C2240.47 1652.29 2242.76 1652.44 2244.83 1652.74 2246.89 1653.03 2248.95 1653.55 2251.01 1654.28L2249.18 1662.79 2245.9 1662.79C2245.6 1660.38 2244.81 1658.56 2243.53 1657.32 2242.25 1656.07 2240.23 1655.45 2237.47 1655.45 2235.34 1655.45 2233.61 1656 2232.28 1657.09 2230.96 1658.19 2230.3 1659.63 2230.3 1661.41 2230.3 1662.38 2230.47 1663.24 2230.81 1663.98 2231.14 1664.73 2231.83 1665.54 2232.85 1666.44 2233.88 1667.33 2235.47 1668.42 2237.63 1669.72 2239.34 1670.74 2240.7 1671.68 2241.73 1672.53 2242.75 1673.39 2243.56 1674.23 2244.16 1675.07 2244.75 1675.91 2245.19 1676.79 2245.46 1677.72 2245.73 1678.65 2245.86 1679.78 2245.86 1681.11 2245.86 1683.51 2245.22 1685.57 2243.94 1687.29 2242.65 1689 2240.91 1690.28 2238.71 1691.12 2236.51 1691.95 2234 1692.37 2231.19 1692.37 2228.95 1692.37 2226.75 1692.2 2224.58 1691.87 2222.42 1691.53 2220.02 1690.95 2217.37 1690.14L2219.32 1681.31 2222.48 1681.31C2222.59 1683.9 2223.31 1685.86 2224.67 1687.19 2226.02 1688.51 2228.16 1689.17 2231.11 1689.17 2233.68 1689.17 2235.68 1688.6 2237.13 1687.45 2238.57 1686.3 2239.3 1684.67 2239.3 1682.57 2239.3 1681.35 2239.09 1680.3 2238.69 1679.42 2238.28 1678.55 2237.62 1677.7 2236.7 1676.89 2235.78 1676.08 2234.32 1675.07 2232.33 1673.85 2230.22 1672.58 2228.58 1671.43 2227.4 1670.41 2226.23 1669.38 2225.34 1668.27 2224.75 1667.06 2224.15 1665.86 2223.85 1664.48 2223.85 1662.91 2223.85 1660.78 2224.43 1658.9 2225.58 1657.3 2226.73 1655.69 2228.37 1654.45 2230.5 1653.59 2232.64 1652.72 2235.12 1652.29 2237.96 1652.29ZM2210.22 1633.73 2212.61 1633.73 2202.64 1678.59C2202.04 1681.27 2201.75 1683.27 2201.75 1684.59 2201.75 1685.67 2201.92 1686.46 2202.27 1686.94 2202.62 1687.43 2203.18 1687.67 2203.93 1687.67 2204.74 1687.67 2205.61 1687.34 2206.53 1686.68 2207.45 1686.02 2208.74 1684.75 2210.42 1682.89L2212.73 1685.16C2210.11 1687.92 2207.97 1689.8 2206.3 1690.81 2204.64 1691.83 2202.79 1692.33 2200.73 1692.33 2198.98 1692.33 2197.57 1691.69 2196.52 1690.41 2195.46 1689.12 2194.94 1687.48 2194.94 1685.48 2194.94 1683.67 2195.32 1681.05 2196.07 1677.62L2203.33 1645.16C2203.65 1643.73 2203.88 1642.59 2204.02 1641.73 2204.15 1640.88 2204.22 1640.09 2204.22 1639.36 2204.22 1638.55 2204.07 1637.94 2203.77 1637.52 2203.47 1637.1 2203.05 1636.8 2202.5 1636.61 2201.94 1636.42 2200.95 1636.28 2199.52 1636.2L2200 1634.09Z" fill-rule="evenodd"/><text fill="#000000" fill-opacity="0" font-family="Arial,Arial_MSFontService,sans-serif" font-size="58.6431" x="2194.94" y="1685.04">𝑙𝑠</text><path d="M2306.36 1671.26 2312.52 1677.42 2268.75 1677.42C2266.16 1677.42 2263.67 1677.74 2261.29 1678.39L2258.37 1675.47 2302.14 1675.47ZM2277.18 1624.25 2284.64 1627.81 2282.04 1629.76 2281.39 1641.75 2319.33 1641.75 2323.54 1637.54 2329.7 1643.7 2281.39 1643.7 2280.42 1658.94 2318.68 1658.94 2321.27 1655.05 2327.11 1659.26 2324.19 1661.86C2323.76 1669.85 2323.11 1676.82 2322.25 1682.77 2321.38 1688.71 2319.81 1692.71 2317.54 1694.76 2315.27 1696.82 2312.3 1698.28 2308.63 1699.14 2308.84 1696.33 2305.28 1693.85 2297.93 1691.68L2298.25 1690.06C2303.01 1691.14 2307.11 1691.68 2310.57 1691.68 2314.03 1691.68 2316.3 1688.5 2317.38 1682.12 2318.46 1675.74 2319.11 1668.66 2319.33 1660.88L2280.75 1660.88 2278.15 1664.13 2272.96 1660.23 2275.56 1657.97C2276.42 1644.78 2276.91 1636.78 2277.02 1633.97 2277.12 1631.16 2277.18 1627.92 2277.18 1624.25Z" fill-rule="evenodd"/><text fill="#000000" fill-opacity="0" font-family="Arial,Arial_MSFontService,sans-serif" font-size="74.8945" x="2258.37" y="1689.78">与</text><path d="M2397.62 1652.29C2400.14 1652.29 2402.43 1652.44 2404.49 1652.74 2406.56 1653.03 2408.62 1653.55 2410.67 1654.28L2408.85 1662.79 2405.57 1662.79C2405.27 1660.38 2404.48 1658.56 2403.2 1657.32 2401.91 1656.07 2399.89 1655.45 2397.14 1655.45 2395 1655.45 2393.28 1656 2391.95 1657.09 2390.63 1658.19 2389.97 1659.63 2389.97 1661.41 2389.97 1662.38 2390.13 1663.24 2390.47 1663.98 2390.81 1664.73 2391.49 1665.54 2392.52 1666.44 2393.55 1667.33 2395.14 1668.42 2397.3 1669.72 2399 1670.74 2400.37 1671.68 2401.39 1672.53 2402.42 1673.39 2403.23 1674.23 2403.83 1675.07 2404.42 1675.91 2404.85 1676.79 2405.12 1677.72 2405.39 1678.65 2405.53 1679.78 2405.53 1681.11 2405.53 1683.51 2404.89 1685.57 2403.6 1687.29 2402.32 1689 2400.58 1690.28 2398.37 1691.12 2396.17 1691.95 2393.67 1692.37 2390.86 1692.37 2388.61 1692.37 2386.41 1692.2 2384.25 1691.87 2382.09 1691.53 2379.68 1690.95 2377.04 1690.14L2378.98 1681.31 2382.14 1681.31C2382.25 1683.9 2382.98 1685.86 2384.33 1687.19 2385.68 1688.51 2387.83 1689.17 2390.78 1689.17 2393.34 1689.17 2395.35 1688.6 2396.79 1687.45 2398.24 1686.3 2398.96 1684.67 2398.96 1682.57 2398.96 1681.35 2398.76 1680.3 2398.35 1679.42 2397.95 1678.55 2397.29 1677.7 2396.37 1676.89 2395.45 1676.08 2393.99 1675.07 2391.99 1673.85 2389.88 1672.58 2388.24 1671.43 2387.07 1670.41 2385.89 1669.38 2385.01 1668.27 2384.41 1667.06 2383.82 1665.86 2383.52 1664.48 2383.52 1662.91 2383.52 1660.78 2384.1 1658.9 2385.24 1657.3 2386.39 1655.69 2388.03 1654.45 2390.17 1653.59 2392.3 1652.72 2394.79 1652.29 2397.62 1652.29ZM2348.74 1652.25C2350.44 1652.25 2351.78 1652.81 2352.77 1653.93 2353.75 1655.05 2354.25 1656.52 2354.25 1658.33 2354.25 1659.68 2353.99 1661.07 2353.48 1662.5L2354 1662.71C2356.65 1659.11 2359.2 1656.48 2361.64 1654.8 2364.09 1653.13 2366.57 1652.29 2369.08 1652.29 2371.05 1652.29 2372.7 1652.44 2374.03 1652.74L2372.08 1661.82 2367.91 1661.82C2367.74 1660.68 2367.51 1659.8 2367.22 1659.18 2366.92 1658.56 2366.57 1658.13 2366.16 1657.88 2365.76 1657.64 2365.24 1657.52 2364.62 1657.52 2363.65 1657.52 2362.59 1657.94 2361.44 1658.78 2360.29 1659.61 2359 1660.92 2357.57 1662.71 2356.14 1664.49 2355 1666.21 2354.15 1667.85 2353.3 1669.5 2352.59 1671.6 2352.02 1674.14L2348.17 1691.68 2341.16 1691.68 2347.03 1665.99C2347.41 1664.37 2347.66 1663.11 2347.76 1662.22 2347.87 1661.33 2347.93 1660.59 2347.93 1659.99 2347.93 1658.91 2347.75 1658.13 2347.4 1657.64 2347.05 1657.15 2346.49 1656.91 2345.74 1656.91 2344.9 1656.91 2344.01 1657.26 2343.08 1657.95 2342.15 1658.63 2340.87 1659.88 2339.25 1661.69L2336.94 1659.42C2339.43 1656.83 2341.51 1654.99 2343.18 1653.89 2344.86 1652.8 2346.71 1652.25 2348.74 1652.25Z" fill-rule="evenodd"/><text fill="#000000" fill-opacity="0" font-family="Arial,Arial_MSFontService,sans-serif" font-size="40.1221" x="2336.94" y="1687.36">𝑟𝑠</text><text font-family="DengXian,DengXian_MSFontService,sans-serif" font-weight="400" font-size="83" transform="matrix(1 0 0 1 2189.34 1791)">的</text><path d="M2393.74 1754.45C2390.99 1754.45 2388.51 1755.57 2386.32 1757.8 2384.14 1760.03 2382.41 1763.03 2381.16 1766.81 2379.9 1770.6 2379.27 1774.37 2379.27 1778.12 2379.27 1780.93 2379.66 1783.03 2380.43 1784.42 2381.2 1785.81 2382.49 1786.51 2384.3 1786.51 2385.14 1786.51 2385.99 1786.33 2386.85 1785.96 2387.72 1785.6 2388.61 1785.01 2389.55 1784.2 2390.48 1783.39 2391.4 1782.4 2392.3 1781.24 2393.21 1780.08 2394.04 1778.91 2394.79 1777.74 2395.55 1776.56 2396.25 1775.17 2396.9 1773.56 2397.55 1771.95 2398.1 1770.02 2398.56 1767.75L2398.93 1766C2399.33 1764.06 2399.54 1762.22 2399.54 1760.49 2399.54 1758.38 2399.09 1756.85 2398.2 1755.89 2397.31 1754.93 2395.82 1754.45 2393.74 1754.45ZM2357.66 1751.58 2360.05 1751.58 2354.22 1777.59C2353.62 1780.24 2353.33 1782.24 2353.33 1783.59 2353.33 1784.67 2353.5 1785.46 2353.85 1785.94 2354.2 1786.43 2354.76 1786.67 2355.52 1786.67 2356.33 1786.67 2357.19 1786.34 2358.11 1785.68 2359.03 1785.02 2360.32 1783.75 2362 1781.89L2364.31 1784.16C2361.66 1786.94 2359.51 1788.83 2357.87 1789.83 2356.22 1790.83 2354.37 1791.33 2352.31 1791.33 2350.56 1791.33 2349.15 1790.69 2348.1 1789.41 2347.04 1788.12 2346.52 1786.48 2346.52 1784.48 2346.52 1782.43 2346.9 1779.81 2347.65 1776.62L2350.69 1763.37C2351.31 1760.67 2351.62 1758.64 2351.62 1757.29 2351.62 1756.07 2351.33 1755.25 2350.75 1754.82 2350.17 1754.39 2349.03 1754.14 2347.33 1754.09L2347.77 1751.94ZM2284.61 1751.25C2286.31 1751.25 2287.66 1751.81 2288.64 1752.93 2289.63 1754.05 2290.12 1755.52 2290.12 1757.33 2290.12 1758.82 2289.81 1760.4 2289.19 1762.07L2289.68 1762.23C2292.16 1758.53 2294.63 1755.78 2297.09 1753.99 2299.55 1752.19 2302.04 1751.29 2304.55 1751.29 2307.14 1751.29 2309.12 1752.03 2310.47 1753.5 2311.82 1754.97 2312.49 1757.1 2312.49 1759.88L2312.49 1760.45C2312.49 1760.64 2312.48 1760.84 2312.45 1761.06 2314.78 1757.76 2317.09 1755.31 2319.4 1753.7 2321.71 1752.1 2324.11 1751.29 2326.6 1751.29 2329.08 1751.29 2331 1752.01 2332.35 1753.44 2333.7 1754.87 2334.38 1756.88 2334.38 1759.48 2334.38 1761.18 2333.99 1763.6 2333.2 1766.73L2330.57 1777.35C2329.84 1780.3 2329.47 1782.38 2329.47 1783.59 2329.47 1784.67 2329.65 1785.46 2330 1785.94 2330.35 1786.43 2330.91 1786.67 2331.66 1786.67 2332.47 1786.67 2333.34 1786.34 2334.26 1785.68 2335.18 1785.02 2336.47 1783.75 2338.15 1781.89L2340.46 1784.16C2338.13 1786.62 2336.11 1788.43 2334.38 1789.59 2332.65 1790.75 2330.68 1791.33 2328.46 1791.33 2326.7 1791.33 2325.3 1790.7 2324.25 1789.45 2323.19 1788.19 2322.67 1786.59 2322.67 1784.65 2322.67 1782.89 2323.11 1780.31 2324 1776.9L2325.79 1769.89C2326.43 1767.35 2326.86 1765.48 2327.06 1764.26 2327.27 1763.04 2327.37 1762.06 2327.37 1761.3 2327.37 1759.44 2327.06 1758.09 2326.43 1757.27 2325.81 1756.45 2324.8 1756.03 2323.4 1756.03 2322.26 1756.03 2321.04 1756.46 2319.75 1757.31 2318.45 1758.16 2317.09 1759.48 2315.65 1761.28 2314.22 1763.08 2313.05 1764.85 2312.15 1766.59 2311.24 1768.33 2310.52 1770.46 2309.98 1772.97L2306.29 1790.68 2299.28 1790.68 2303.94 1770.1C2304.51 1767.58 2304.89 1765.73 2305.1 1764.52 2305.3 1763.32 2305.4 1762.29 2305.4 1761.42 2305.4 1759.48 2305.06 1758.09 2304.37 1757.27 2303.68 1756.45 2302.6 1756.03 2301.15 1756.03 2300.12 1756.03 2298.95 1756.46 2297.64 1757.31 2296.33 1758.16 2294.93 1759.53 2293.45 1761.4 2291.96 1763.28 2290.8 1765.08 2289.96 1766.81 2289.12 1768.54 2288.42 1770.65 2287.85 1773.14L2284 1790.68 2276.99 1790.68 2282.91 1764.99C2283.5 1762.4 2283.8 1760.4 2283.8 1758.99 2283.8 1757.91 2283.62 1757.13 2283.27 1756.64 2282.92 1756.15 2282.37 1755.91 2281.61 1755.91 2280.77 1755.91 2279.89 1756.26 2278.96 1756.95 2278.02 1757.63 2276.75 1758.88 2275.13 1760.69L2272.82 1758.42C2275.19 1755.94 2277.24 1754.12 2278.96 1752.97 2280.67 1751.83 2282.56 1751.25 2284.61 1751.25ZM2356.57 1736.05 2363.74 1736.05 2361.88 1743.92 2354.7 1743.92ZM2410.72 1732.73 2413.11 1732.73 2403.02 1777.59C2402.43 1780.24 2402.13 1782.24 2402.13 1783.59 2402.13 1784.67 2402.31 1785.46 2402.66 1785.94 2403.01 1786.43 2403.56 1786.67 2404.32 1786.67 2405.13 1786.67 2405.99 1786.34 2406.91 1785.68 2407.83 1785.02 2409.13 1783.75 2410.8 1781.89L2413.11 1784.16C2410.63 1786.78 2408.53 1788.63 2406.83 1789.71 2405.13 1790.79 2403.29 1791.33 2401.32 1791.33 2399.64 1791.33 2398.31 1790.78 2397.31 1789.67 2396.31 1788.56 2395.81 1787.09 2395.81 1785.25 2395.81 1783.77 2396.12 1782.19 2396.74 1780.51L2396.21 1780.35C2393.62 1784.13 2391.16 1786.9 2388.84 1788.66 2386.51 1790.41 2384.06 1791.29 2381.46 1791.29 2378.49 1791.29 2376.19 1790.17 2374.55 1787.93 2372.92 1785.69 2372.1 1782.54 2372.1 1778.49 2372.1 1773.84 2373.01 1769.37 2374.84 1765.09 2376.66 1760.81 2379.16 1757.43 2382.35 1754.96 2385.54 1752.49 2389.09 1751.25 2393.01 1751.25 2394.66 1751.25 2396.18 1751.42 2397.57 1751.76 2398.96 1752.1 2400.39 1752.68 2401.85 1753.52L2403.95 1744.16C2404.17 1743.27 2404.36 1742.28 2404.52 1741.2 2404.68 1740.12 2404.76 1739.17 2404.76 1738.36 2404.76 1737.55 2404.62 1736.94 2404.32 1736.52 2404.02 1736.1 2403.6 1735.8 2403.04 1735.61 2402.49 1735.42 2401.5 1735.28 2400.06 1735.2L2400.55 1733.09Z" fill-rule="evenodd"/><text fill="#000000" fill-opacity="0" font-family="Arial,Arial_MSFontService,sans-serif" font-size="58.6025" x="2272.82" y="1784.01">𝑚𝑖𝑑</text></g></svg>