<svg width="3834" height="268" xmlns="http://www.w3.org/2000/svg" xmlns:xlink="http://www.w3.org/1999/xlink" xml:space="preserve" overflow="hidden"><g transform="translate(-264 -965)"><path d="M303 1082 4017.86 1082" stroke="#4472C4" stroke-width="13.75" stroke-miterlimit="8" fill="none" fill-rule="evenodd"/><path d="M319.979 1122.9C318.114 1122.9 316.554 1123.46 315.298 1124.57 314.041 1125.67 313.028 1127.27 312.258 1129.35 311.488 1131.43 310.941 1133.96 310.617 1136.95 310.293 1139.93 310.13 1143.3 310.13 1147.06 310.13 1155.87 310.948 1162.33 312.582 1166.45 314.217 1170.57 316.75 1172.63 320.181 1172.63 323.45 1172.63 325.875 1170.69 327.456 1166.82 329.036 1162.94 329.827 1156.93 329.827 1148.8 329.827 1142.59 329.422 1137.55 328.611 1133.7 327.8 1129.85 326.672 1127.09 325.227 1125.42 323.781 1123.74 322.032 1122.9 319.979 1122.9ZM320.181 1119.46C326.098 1119.46 330.502 1121.74 333.393 1126.31 336.284 1130.87 337.73 1137.78 337.73 1147.02 337.73 1156.58 336.183 1163.82 333.089 1168.72 329.996 1173.62 325.477 1176.08 319.533 1176.08 313.697 1176.08 309.354 1173.78 306.503 1169.19 303.653 1164.59 302.228 1157.62 302.228 1148.27 302.228 1143.3 302.667 1139.01 303.545 1135.39 304.423 1131.77 305.652 1128.77 307.233 1126.41 308.813 1124.05 310.711 1122.3 312.927 1121.16 315.142 1120.03 317.561 1119.46 320.181 1119.46Z" fill-rule="evenodd"/><text fill="#000000" fill-opacity="0" font-family="Arial,Arial_MSFontService,sans-serif" font-size="56.6167" x="302.228" y="1169">0</text><path d="M4063.12 1153.28C4064.82 1153.28 4066.17 1153.84 4067.15 1154.96 4068.14 1156.08 4068.63 1157.55 4068.63 1159.36 4068.63 1160.79 4068.31 1162.38 4067.66 1164.14L4068.15 1164.3C4070.8 1160.57 4073.31 1157.81 4075.71 1156.02 4078.1 1154.22 4080.56 1153.32 4083.1 1153.32 4085.61 1153.32 4087.55 1154.04 4088.9 1155.49 4090.25 1156.93 4090.92 1158.94 4090.92 1161.51 4090.92 1163.21 4090.53 1165.63 4089.75 1168.76L4087.11 1179.38C4086.38 1182.32 4086.02 1184.4 4086.02 1185.62 4086.02 1186.7 4086.2 1187.48 4086.55 1187.97 4086.9 1188.46 4087.45 1188.7 4088.21 1188.7 4089.02 1188.7 4089.88 1188.37 4090.8 1187.71 4091.72 1187.05 4093.02 1185.78 4094.69 1183.92L4097 1186.19C4094.68 1188.67 4092.65 1190.49 4090.92 1191.64 4089.19 1192.79 4087.22 1193.36 4085.01 1193.36 4083.25 1193.36 4081.85 1192.73 4080.79 1191.48 4079.74 1190.22 4079.21 1188.62 4079.21 1186.67 4079.21 1184.92 4079.66 1182.34 4080.55 1178.93L4082.33 1171.92C4082.98 1169.38 4083.41 1167.5 4083.61 1166.29 4083.81 1165.07 4083.91 1164.09 4083.91 1163.33 4083.91 1161.47 4083.6 1160.12 4082.98 1159.3 4082.36 1158.47 4081.35 1158.06 4079.94 1158.06 4078.81 1158.06 4077.58 1158.51 4076.27 1159.42 4074.96 1160.32 4073.57 1161.69 4072.1 1163.51 4070.63 1165.34 4069.44 1167.11 4068.55 1168.82 4067.66 1170.54 4066.93 1172.65 4066.36 1175.16L4062.51 1192.71 4055.5 1192.71 4061.42 1167.02C4062.01 1164.42 4062.31 1162.43 4062.31 1161.02 4062.31 1159.94 4062.14 1159.16 4061.78 1158.67 4061.43 1158.18 4060.88 1157.94 4060.12 1157.94 4059.29 1157.94 4058.4 1158.28 4057.47 1158.97 4056.54 1159.66 4055.26 1160.91 4053.64 1162.72L4051.33 1160.45C4053.81 1157.86 4055.88 1156.02 4057.53 1154.92 4059.18 1153.83 4061.04 1153.28 4063.12 1153.28Z" fill-rule="evenodd"/><text fill="#000000" fill-opacity="0" font-family="Arial,Arial_MSFontService,sans-serif" font-size="40.0815" x="4051.33" y="1188.35">𝑛</text><path d="M1254 1082 2427.86 1082" stroke="#FF0000" stroke-width="13.75" stroke-miterlimit="8" fill="none" fill-rule="evenodd"/><path d="M920.365 1130.41C921.202 1130.41 921.939 1130.5 922.574 1130.69 923.209 1130.88 923.769 1131.17 924.255 1131.56 924.742 1131.96 925.174 1132.46 925.552 1133.08 925.931 1133.7 926.295 1134.55 926.647 1135.62 926.998 1136.68 927.329 1138.01 927.64 1139.59 927.95 1141.17 928.227 1142.81 928.47 1144.51L928.876 1144.51C931.469 1140.86 933.435 1138.2 934.772 1136.51 936.11 1134.82 937.238 1133.56 938.156 1132.74 939.075 1131.91 939.96 1131.33 940.811 1131 941.662 1130.66 942.79 1130.49 944.195 1130.49 945.465 1130.49 946.505 1130.65 947.316 1130.98L945.694 1138.31 942.858 1138.31C942.695 1137.18 942.223 1136.61 941.439 1136.61 941.196 1136.61 940.939 1136.65 940.669 1136.73 940.399 1136.81 940.068 1136.99 939.676 1137.26 939.284 1137.53 938.71 1138.05 937.954 1138.84 937.197 1139.62 936.346 1140.58 935.401 1141.72 934.455 1142.85 933.482 1144.04 932.483 1145.28L929.727 1148.73C930.213 1151.32 930.672 1153.56 931.105 1155.45 931.537 1157.35 931.922 1158.92 932.26 1160.18 932.597 1161.43 932.895 1162.43 933.151 1163.15 933.408 1163.88 933.685 1164.43 933.982 1164.8 934.279 1165.16 934.583 1165.42 934.894 1165.57 935.205 1165.71 935.563 1165.79 935.968 1165.79 936.697 1165.79 937.407 1165.51 938.096 1164.94 938.785 1164.37 939.777 1163.09 941.074 1161.09L943.709 1162.83C941.817 1165.64 940.108 1167.62 938.582 1168.77 937.055 1169.92 935.238 1170.49 933.131 1170.49 931.969 1170.49 930.983 1170.28 930.172 1169.86 929.362 1169.44 928.659 1168.77 928.065 1167.86 927.471 1166.94 926.944 1165.51 926.484 1163.56 925.647 1160.1 925.134 1157.45 924.944 1155.62L924.539 1155.62C921.675 1159.64 919.548 1162.53 918.156 1164.29 916.765 1166.05 915.616 1167.34 914.711 1168.18 913.806 1169.02 912.928 1169.61 912.077 1169.94 911.226 1170.28 910.098 1170.45 908.693 1170.45 907.423 1170.45 906.383 1170.29 905.572 1169.96L907.193 1162.63 910.03 1162.63C910.193 1163.76 910.665 1164.33 911.449 1164.33 911.827 1164.33 912.226 1164.23 912.644 1164.03 913.063 1163.82 913.664 1163.34 914.448 1162.57 915.231 1161.8 916.312 1160.59 917.69 1158.94 919.068 1157.29 921.067 1154.82 923.688 1151.52 923.283 1149.39 922.864 1147.34 922.432 1145.36 921.999 1143.39 921.554 1141.55 921.094 1139.85 920.635 1138.15 920.257 1137.03 919.96 1136.51 919.662 1135.98 919.345 1135.62 919.007 1135.41 918.669 1135.21 918.244 1135.11 917.731 1135.11 917.163 1135.11 916.65 1135.24 916.191 1135.49 915.731 1135.75 915.231 1136.2 914.691 1136.83 914.151 1137.47 913.435 1138.46 912.543 1139.81L909.909 1138.07C911.611 1135.5 913.246 1133.58 914.813 1132.31 916.38 1131.04 918.23 1130.41 920.365 1130.41Z" fill-rule="evenodd"/><text fill="#000000" fill-opacity="0" font-family="Arial,Arial_MSFontService,sans-serif" font-size="40.0815" x="905.572" y="1165.48">𝑥</text><path d="M2742.95 1130.45C2744.05 1130.45 2745 1130.6 2745.78 1130.89 2746.32 1131.11 2746.86 1131.47 2747.4 1131.97 2747.94 1132.47 2748.42 1133.16 2748.84 1134.06 2749.26 1134.95 2749.63 1135.95 2749.94 1137.06 2750.25 1138.16 2750.59 1139.76 2750.97 1141.84 2751.62 1145.32 2752.25 1148.99 2752.85 1152.84 2753.46 1156.69 2753.98 1160.26 2754.41 1163.56 2757.04 1159.78 2759.26 1156.08 2761.08 1152.46 2762.91 1148.83 2764.22 1145.69 2765.01 1143.01 2765.81 1140.34 2766.21 1138.16 2766.21 1136.49 2766.21 1135.22 2765.94 1134.35 2765.4 1133.89 2764.86 1133.43 2763.94 1133.16 2762.64 1133.08L2763.05 1131.1 2773.71 1131.1 2774.8 1133.12C2772.75 1138.74 2769.96 1144.76 2766.45 1151.16 2762.99 1157.43 2759.03 1163.67 2754.58 1169.88 2750.31 1175.8 2746.75 1180.08 2743.92 1182.73 2741.95 1184.54 2740.04 1185.84 2738.2 1186.62 2736.74 1187.21 2735.19 1187.51 2733.54 1187.51 2732.98 1187.51 2732.32 1187.46 2731.58 1187.37 2730.83 1187.28 2730.26 1187.15 2729.85 1186.98L2731.6 1179.12 2734.8 1179.12C2734.8 1180.85 2735.39 1181.72 2736.58 1181.72 2738.15 1181.72 2739.97 1180.74 2742.05 1178.78 2744.13 1176.82 2746.58 1173.87 2749.39 1169.92 2748.61 1165.19 2747.54 1159.49 2746.19 1152.82 2744.76 1145.69 2743.81 1141.27 2743.35 1139.57 2742.78 1137.51 2742.19 1136.2 2741.57 1135.64 2741.19 1135.29 2740.72 1135.11 2740.15 1135.11 2739.28 1135.11 2738.47 1135.46 2737.72 1136.16 2736.96 1136.87 2736.03 1138.08 2734.92 1139.81L2732.29 1138.07C2734.15 1135.29 2735.89 1133.32 2737.51 1132.17 2739.14 1131.02 2740.95 1130.45 2742.95 1130.45Z" fill-rule="evenodd"/><text fill="#000000" fill-opacity="0" font-family="Arial,Arial_MSFontService,sans-serif" font-size="57.0625" x="2729.85" y="1180.38">𝑦</text><path d="M1742.85 1130.69C1740.04 1130.69 1737.59 1131.87 1735.5 1134.22 1733.4 1136.57 1731.76 1139.93 1730.55 1144.31 1729.35 1148.68 1728.75 1152.45 1728.75 1155.61 1728.75 1158.59 1729.37 1160.78 1730.59 1162.2 1731.82 1163.62 1733.68 1164.33 1736.17 1164.33 1738.81 1164.33 1741.17 1163.14 1743.22 1160.76 1745.27 1158.38 1746.89 1155.05 1748.08 1150.77 1749.27 1146.49 1749.87 1142.73 1749.87 1139.48 1749.87 1136.57 1749.3 1134.37 1748.16 1132.9 1747.03 1131.43 1745.26 1130.69 1742.85 1130.69ZM1763.88 1128.1 1774.49 1128.1 1776.92 1160.07C1780.73 1153.86 1783.48 1149.13 1785.17 1145.89 1786.86 1142.65 1788.11 1139.84 1788.92 1137.48 1789.73 1135.11 1790.35 1132.65 1790.79 1130.08L1791.23 1128.1 1797.07 1128.1 1800.03 1160.11C1804.24 1154.11 1807.45 1148.88 1809.65 1144.41 1811.85 1139.94 1812.95 1136.3 1812.95 1133.49 1812.95 1132.22 1812.68 1131.35 1812.14 1130.89 1811.6 1130.43 1810.68 1130.16 1809.39 1130.08L1809.79 1128.1 1820.25 1128.1 1821.34 1130.12C1820.4 1132.53 1819.64 1134.38 1819.07 1135.67 1818.51 1136.97 1817.76 1138.53 1816.84 1140.36 1815.93 1142.18 1814.95 1144 1813.93 1145.81 1812.9 1147.62 1811.69 1149.61 1810.3 1151.78 1808.91 1153.96 1807.35 1156.32 1805.62 1158.88 1803.89 1161.43 1801.85 1164.3 1799.5 1167.49L1794.68 1167.49 1793.01 1150.55C1792.88 1149.22 1792.74 1147.5 1792.59 1145.36 1792.44 1143.23 1792.34 1141.58 1792.28 1140.42L1791.84 1140.38C1790.38 1143.97 1788.39 1147.97 1785.88 1152.37 1783.37 1156.78 1780.26 1161.82 1776.56 1167.49L1771.13 1167.49 1768.05 1136.97C1767.89 1135.4 1767.68 1134.13 1767.44 1133.16 1767.2 1132.19 1766.79 1131.46 1766.23 1130.97 1765.66 1130.49 1764.73 1130.19 1763.43 1130.08ZM1743.66 1127.45C1747.99 1127.45 1751.28 1128.63 1753.55 1130.99 1755.82 1133.36 1756.96 1136.74 1756.96 1141.15 1756.96 1144.28 1756.41 1147.63 1755.32 1151.2 1754.22 1154.76 1752.72 1157.76 1750.82 1160.19 1748.91 1162.63 1746.64 1164.46 1743.99 1165.69 1741.34 1166.91 1738.3 1167.53 1734.87 1167.53 1730.68 1167.53 1727.43 1166.35 1725.12 1164 1722.81 1161.65 1721.66 1158.28 1721.66 1153.87 1721.66 1151.71 1721.98 1149.21 1722.63 1146.37 1723.47 1142.54 1724.87 1139.19 1726.85 1136.32 1728.82 1133.46 1731.25 1131.26 1734.14 1129.74 1737.03 1128.21 1740.21 1127.45 1743.66 1127.45ZM1681.97 1127.41C1683.67 1127.41 1685.01 1127.97 1686 1129.09 1686.99 1130.21 1687.48 1131.68 1687.48 1133.49 1687.48 1134.92 1687.15 1136.51 1686.51 1138.27L1686.99 1138.43C1689.64 1134.7 1692.16 1131.94 1694.55 1130.14 1696.94 1128.35 1699.41 1127.45 1701.95 1127.45 1704.46 1127.45 1706.39 1128.17 1707.74 1129.62 1709.09 1131.06 1709.77 1133.07 1709.77 1135.63 1709.77 1137.34 1709.38 1139.75 1708.59 1142.89L1705.96 1153.51C1705.23 1156.45 1704.86 1158.53 1704.86 1159.75 1704.86 1160.83 1705.04 1161.61 1705.39 1162.1 1705.74 1162.59 1706.3 1162.83 1707.05 1162.83 1707.86 1162.83 1708.73 1162.5 1709.65 1161.84 1710.57 1161.17 1711.86 1159.91 1713.54 1158.05L1715.85 1160.32C1713.52 1162.8 1711.5 1164.62 1709.77 1165.77 1708.04 1166.91 1706.07 1167.49 1703.85 1167.49 1702.09 1167.49 1700.69 1166.86 1699.64 1165.6 1698.58 1164.35 1698.06 1162.75 1698.06 1160.8 1698.06 1159.05 1698.5 1156.47 1699.39 1153.06L1701.18 1146.05C1701.82 1143.51 1702.25 1141.63 1702.45 1140.42 1702.66 1139.2 1702.76 1138.21 1702.76 1137.46 1702.76 1135.59 1702.45 1134.25 1701.82 1133.43 1701.2 1132.6 1700.19 1132.19 1698.79 1132.19 1697.65 1132.19 1696.43 1132.64 1695.12 1133.55 1693.81 1134.45 1692.42 1135.82 1690.94 1137.64 1689.47 1139.46 1688.29 1141.23 1687.4 1142.95 1686.51 1144.67 1685.78 1146.78 1685.21 1149.29L1681.36 1166.84 1674.35 1166.84 1680.26 1141.15C1680.86 1138.55 1681.16 1136.55 1681.16 1135.15 1681.16 1134.07 1680.98 1133.28 1680.63 1132.8 1680.28 1132.31 1679.72 1132.07 1678.97 1132.07 1678.13 1132.07 1677.24 1132.41 1676.31 1133.1 1675.38 1133.79 1674.1 1135.04 1672.48 1136.85L1670.17 1134.58C1672.66 1131.99 1674.73 1130.14 1676.37 1129.05 1678.02 1127.95 1679.89 1127.41 1681.97 1127.41Z" fill-rule="evenodd"/><text fill="#000000" fill-opacity="0" font-family="Arial,Arial_MSFontService,sans-serif" font-size="40.1221" x="1670.17" y="1162.51">𝑛𝑜𝑤</text><path d="M2723.5 965.5 2723.5 1207.27" stroke="#4472C4" stroke-width="9.16667" stroke-miterlimit="8" stroke-dasharray="36.6667 27.5" fill="none" fill-rule="evenodd"/><path d="M897.5 987.5 897.5 1210.28" stroke="#4472C4" stroke-width="9.16667" stroke-miterlimit="8" stroke-dasharray="36.6667 27.5" fill="none" fill-rule="evenodd"/><path d="M1284.48 1127.45C1286.99 1127.45 1289.28 1127.6 1291.35 1127.89 1293.41 1128.19 1295.47 1128.7 1297.53 1129.43L1295.7 1137.94 1292.42 1137.94C1292.12 1135.54 1291.33 1133.72 1290.05 1132.47 1288.77 1131.23 1286.75 1130.61 1283.99 1130.61 1281.86 1130.61 1280.13 1131.16 1278.8 1132.25 1277.48 1133.34 1276.82 1134.78 1276.82 1136.57 1276.82 1137.54 1276.99 1138.4 1277.33 1139.14 1277.66 1139.88 1278.35 1140.7 1279.37 1141.59 1280.4 1142.48 1281.99 1143.58 1284.15 1144.87 1285.86 1145.9 1287.22 1146.84 1288.25 1147.69 1289.27 1148.54 1290.08 1149.39 1290.68 1150.22 1291.27 1151.06 1291.71 1151.95 1291.98 1152.88 1292.25 1153.81 1292.38 1154.94 1292.38 1156.26 1292.38 1158.67 1291.74 1160.73 1290.46 1162.44 1289.17 1164.16 1287.43 1165.44 1285.23 1166.27 1283.03 1167.11 1280.52 1167.53 1277.71 1167.53 1275.47 1167.53 1273.27 1167.36 1271.1 1167.02 1268.94 1166.69 1266.54 1166.11 1263.89 1165.3L1265.84 1156.47 1269 1156.47C1269.1 1159.06 1269.83 1161.02 1271.19 1162.34 1272.54 1163.67 1274.68 1164.33 1277.63 1164.33 1280.2 1164.33 1282.2 1163.75 1283.65 1162.61 1285.09 1161.46 1285.82 1159.83 1285.82 1157.72 1285.82 1156.51 1285.61 1155.46 1285.21 1154.58 1284.8 1153.7 1284.14 1152.86 1283.22 1152.05 1282.3 1151.24 1280.84 1150.22 1278.85 1149.01 1276.74 1147.74 1275.1 1146.59 1273.92 1145.56 1272.75 1144.54 1271.86 1143.42 1271.27 1142.22 1270.67 1141.02 1270.37 1139.63 1270.37 1138.07 1270.37 1135.93 1270.95 1134.06 1272.1 1132.45 1273.25 1130.85 1274.89 1129.61 1277.02 1128.74 1279.16 1127.88 1281.64 1127.45 1284.48 1127.45ZM1256.74 1108.89 1259.13 1108.89 1249.16 1153.75C1248.56 1156.42 1248.27 1158.42 1248.27 1159.75 1248.27 1160.83 1248.44 1161.61 1248.79 1162.1 1249.14 1162.59 1249.7 1162.83 1250.45 1162.83 1251.26 1162.83 1252.13 1162.5 1253.05 1161.84 1253.97 1161.17 1255.26 1159.91 1256.94 1158.05L1259.25 1160.32C1256.63 1163.07 1254.49 1164.96 1252.82 1165.97 1251.16 1166.98 1249.31 1167.49 1247.25 1167.49 1245.5 1167.49 1244.09 1166.85 1243.04 1165.56 1241.98 1164.28 1241.46 1162.64 1241.46 1160.64 1241.46 1158.83 1241.84 1156.21 1242.59 1152.78L1249.85 1120.32C1250.17 1118.88 1250.4 1117.74 1250.54 1116.89 1250.67 1116.04 1250.74 1115.25 1250.74 1114.52 1250.74 1113.71 1250.59 1113.09 1250.29 1112.68 1249.99 1112.26 1249.57 1111.95 1249.02 1111.76 1248.46 1111.57 1247.47 1111.44 1246.04 1111.36L1246.52 1109.25Z" fill-rule="evenodd"/><text fill="#000000" fill-opacity="0" font-family="Arial,Arial_MSFontService,sans-serif" font-size="58.6431" x="1241.46" y="1160.2">𝑙𝑠</text><path d="M2506.45 1136.03C2508.96 1136.03 2511.25 1136.18 2513.32 1136.48 2515.39 1136.78 2517.45 1137.29 2519.5 1138.02L2517.68 1146.53 2514.39 1146.53C2514.1 1144.13 2513.3 1142.3 2512.02 1141.06 2510.74 1139.82 2508.72 1139.2 2505.96 1139.2 2503.83 1139.2 2502.1 1139.74 2500.78 1140.84 2499.45 1141.93 2498.79 1143.37 2498.79 1145.15 2498.79 1146.13 2498.96 1146.98 2499.3 1147.73 2499.63 1148.47 2500.32 1149.29 2501.34 1150.18 2502.37 1151.07 2503.96 1152.16 2506.12 1153.46 2507.83 1154.49 2509.19 1155.43 2510.22 1156.28 2511.24 1157.13 2512.06 1157.97 2512.65 1158.81 2513.24 1159.65 2513.68 1160.53 2513.95 1161.47 2514.22 1162.4 2514.35 1163.53 2514.35 1164.85 2514.35 1167.25 2513.71 1169.31 2512.43 1171.03 2511.14 1172.75 2509.4 1174.02 2507.2 1174.86 2505 1175.7 2502.49 1176.12 2499.68 1176.12 2497.44 1176.12 2495.24 1175.95 2493.07 1175.61 2490.91 1175.27 2488.51 1174.7 2485.86 1173.89L2487.81 1165.05 2490.97 1165.05C2491.08 1167.65 2491.81 1169.6 2493.16 1170.93 2494.51 1172.25 2496.65 1172.91 2499.6 1172.91 2502.17 1172.91 2504.17 1172.34 2505.62 1171.19 2507.06 1170.04 2507.79 1168.42 2507.79 1166.31 2507.79 1165.09 2507.58 1164.05 2507.18 1163.17 2506.77 1162.29 2506.11 1161.45 2505.19 1160.63 2504.27 1159.82 2502.81 1158.81 2500.82 1157.6 2498.71 1156.33 2497.07 1155.18 2495.89 1154.15 2494.72 1153.12 2493.83 1152.01 2493.24 1150.81 2492.64 1149.6 2492.35 1148.22 2492.35 1146.65 2492.35 1144.52 2492.92 1142.65 2494.07 1141.04 2495.22 1139.43 2496.86 1138.2 2498.99 1137.33 2501.13 1136.47 2503.61 1136.03 2506.45 1136.03ZM2457.56 1135.99C2459.26 1135.99 2460.61 1136.55 2461.59 1137.68 2462.58 1138.8 2463.07 1140.26 2463.07 1142.07 2463.07 1143.42 2462.82 1144.82 2462.3 1146.25L2462.83 1146.45C2465.48 1142.86 2468.02 1140.22 2470.47 1138.55 2472.91 1136.87 2475.39 1136.03 2477.91 1136.03 2479.88 1136.03 2481.53 1136.18 2482.85 1136.48L2480.9 1145.56 2476.73 1145.56C2476.57 1144.42 2476.34 1143.55 2476.04 1142.92 2475.74 1142.3 2475.39 1141.87 2474.99 1141.63 2474.58 1141.38 2474.07 1141.26 2473.45 1141.26 2472.47 1141.26 2471.41 1141.68 2470.27 1142.52 2469.12 1143.36 2467.83 1144.67 2466.4 1146.45 2464.96 1148.23 2463.82 1149.95 2462.97 1151.6 2462.12 1153.25 2461.41 1155.34 2460.84 1157.88L2456.99 1175.43 2449.98 1175.43 2455.86 1149.73C2456.24 1148.11 2456.48 1146.86 2456.59 1145.96 2456.7 1145.07 2456.75 1144.33 2456.75 1143.73 2456.75 1142.65 2456.57 1141.87 2456.22 1141.38 2455.87 1140.9 2455.32 1140.65 2454.56 1140.65 2453.72 1140.65 2452.84 1141 2451.91 1141.69 2450.97 1142.38 2449.7 1143.63 2448.08 1145.44L2445.77 1143.17C2448.25 1140.57 2450.33 1138.73 2452.01 1137.64 2453.68 1136.54 2455.53 1135.99 2457.56 1135.99Z" fill-rule="evenodd"/><text fill="#000000" fill-opacity="0" font-family="Arial,Arial_MSFontService,sans-serif" font-size="40.1221" x="2445.77" y="1171.1">𝑟𝑠</text></g></svg>