<svg width="3834" height="268" xmlns="http://www.w3.org/2000/svg" xmlns:xlink="http://www.w3.org/1999/xlink" xml:space="preserve" overflow="hidden"><g transform="translate(-264 -847)"><path d="M303 964 4017.86 964" stroke="#4472C4" stroke-width="13.75" stroke-miterlimit="8" fill="none" fill-rule="evenodd"/><path d="M319.979 1005.05C318.114 1005.05 316.554 1005.6 315.298 1006.71 314.041 1007.82 313.028 1009.41 312.258 1011.49 311.488 1013.57 310.941 1016.1 310.617 1019.09 310.293 1022.08 310.13 1025.45 310.13 1029.2 310.13 1038.01 310.948 1044.47 312.582 1048.59 314.217 1052.71 316.75 1054.77 320.181 1054.77 323.45 1054.77 325.875 1052.84 327.456 1048.96 329.036 1045.08 329.827 1039.08 329.827 1030.94 329.827 1024.73 329.422 1019.7 328.611 1015.85 327.8 1012 326.672 1009.23 325.227 1007.56 323.781 1005.88 322.032 1005.05 319.979 1005.05ZM320.181 1001.6C326.098 1001.6 330.502 1003.89 333.393 1008.45 336.284 1013.02 337.73 1019.92 337.73 1029.16 337.73 1038.73 336.183 1045.96 333.089 1050.86 329.996 1055.77 325.477 1058.22 319.533 1058.22 313.697 1058.22 309.354 1055.92 306.503 1051.33 303.653 1046.74 302.228 1039.77 302.228 1030.42 302.228 1025.45 302.667 1021.15 303.545 1017.53 304.423 1013.91 305.652 1010.92 307.233 1008.55 308.813 1006.19 310.711 1004.44 312.927 1003.3 315.142 1002.17 317.561 1001.6 320.181 1001.6Z" fill-rule="evenodd"/><text fill="#000000" fill-opacity="0" font-family="Arial,Arial_MSFontService,sans-serif" font-size="56.6167" x="302.228" y="1051.14">0</text><path d="M4063.12 1035.42C4064.82 1035.42 4066.17 1035.98 4067.15 1037.1 4068.14 1038.23 4068.63 1039.69 4068.63 1041.5 4068.63 1042.93 4068.31 1044.53 4067.66 1046.28L4068.15 1046.45C4070.8 1042.72 4073.31 1039.96 4075.71 1038.16 4078.1 1036.36 4080.56 1035.46 4083.1 1035.46 4085.61 1035.46 4087.55 1036.19 4088.9 1037.63 4090.25 1039.08 4090.92 1041.08 4090.92 1043.65 4090.92 1045.35 4090.53 1047.77 4089.75 1050.9L4087.11 1061.52C4086.38 1064.47 4086.02 1066.55 4086.02 1067.76 4086.02 1068.84 4086.2 1069.63 4086.55 1070.11 4086.9 1070.6 4087.45 1070.84 4088.21 1070.84 4089.02 1070.84 4089.88 1070.51 4090.8 1069.85 4091.72 1069.19 4093.02 1067.93 4094.69 1066.06L4097 1068.33C4094.68 1070.82 4092.65 1072.63 4090.92 1073.78 4089.19 1074.93 4087.22 1075.5 4085.01 1075.5 4083.25 1075.5 4081.85 1074.88 4080.79 1073.62 4079.74 1072.36 4079.21 1070.76 4079.21 1068.82 4079.21 1067.06 4079.66 1064.48 4080.55 1061.08L4082.33 1054.07C4082.98 1051.53 4083.41 1049.65 4083.61 1048.43 4083.81 1047.22 4083.91 1046.23 4083.91 1045.47 4083.91 1043.61 4083.6 1042.27 4082.98 1041.44 4082.36 1040.62 4081.35 1040.21 4079.94 1040.21 4078.81 1040.21 4077.58 1040.66 4076.27 1041.56 4074.96 1042.47 4073.57 1043.83 4072.1 1045.66 4070.63 1047.48 4069.44 1049.25 4068.55 1050.97 4067.66 1052.68 4066.93 1054.8 4066.36 1057.31L4062.51 1074.86 4055.5 1074.86 4061.42 1049.16C4062.01 1046.57 4062.31 1044.57 4062.31 1043.16 4062.31 1042.08 4062.14 1041.3 4061.78 1040.81 4061.43 1040.33 4060.88 1040.08 4060.12 1040.08 4059.29 1040.08 4058.4 1040.43 4057.47 1041.12 4056.54 1041.81 4055.26 1043.06 4053.64 1044.87L4051.33 1042.6C4053.81 1040 4055.88 1038.16 4057.53 1037.06 4059.18 1035.97 4061.04 1035.42 4063.12 1035.42Z" fill-rule="evenodd"/><text fill="#000000" fill-opacity="0" font-family="Arial,Arial_MSFontService,sans-serif" font-size="40.0815" x="4051.33" y="1070.49">𝑛</text><path d="M1254 964 2427.86 964" stroke="#FF0000" stroke-width="13.75" stroke-miterlimit="8" fill="none" fill-rule="evenodd"/><path d="M920.365 1012.55C921.202 1012.55 921.939 1012.65 922.574 1012.84 923.209 1013.02 923.769 1013.32 924.255 1013.71 924.742 1014.1 925.174 1014.61 925.552 1015.23 925.931 1015.85 926.295 1016.69 926.647 1017.76 926.998 1018.83 927.329 1020.15 927.64 1021.73 927.95 1023.31 928.227 1024.95 928.47 1026.66L928.876 1026.66C931.469 1023.01 933.435 1020.34 934.772 1018.65 936.11 1016.96 937.238 1015.71 938.156 1014.88 939.075 1014.06 939.96 1013.48 940.811 1013.14 941.662 1012.8 942.79 1012.63 944.195 1012.63 945.465 1012.63 946.505 1012.8 947.316 1013.12L945.694 1020.45 942.858 1020.45C942.695 1019.32 942.223 1018.75 941.439 1018.75 941.196 1018.75 940.939 1018.79 940.669 1018.87 940.399 1018.96 940.068 1019.13 939.676 1019.4 939.284 1019.67 938.71 1020.2 937.954 1020.98 937.197 1021.77 936.346 1022.72 935.401 1023.86 934.455 1024.99 933.482 1026.18 932.483 1027.43L929.727 1030.87C930.213 1033.46 930.672 1035.71 931.105 1037.6 931.537 1039.49 931.922 1041.06 932.26 1042.32 932.597 1043.58 932.895 1044.57 933.151 1045.3 933.408 1046.03 933.685 1046.57 933.982 1046.94 934.279 1047.3 934.583 1047.56 934.894 1047.71 935.205 1047.86 935.563 1047.93 935.968 1047.93 936.697 1047.93 937.407 1047.65 938.096 1047.08 938.785 1046.51 939.777 1045.23 941.074 1043.23L943.709 1044.97C941.817 1047.78 940.108 1049.76 938.582 1050.91 937.055 1052.06 935.238 1052.63 933.131 1052.63 931.969 1052.63 930.983 1052.42 930.172 1052.01 929.362 1051.59 928.659 1050.92 928.065 1050 927.471 1049.08 926.944 1047.65 926.484 1045.7 925.647 1042.24 925.134 1039.6 924.944 1037.76L924.539 1037.76C921.675 1041.79 919.548 1044.68 918.156 1046.43 916.765 1048.19 915.616 1049.49 914.711 1050.32 913.806 1051.16 912.928 1051.75 912.077 1052.09 911.226 1052.42 910.098 1052.59 908.693 1052.59 907.423 1052.59 906.383 1052.43 905.572 1052.11L907.193 1044.77 910.03 1044.77C910.193 1045.91 910.665 1046.47 911.449 1046.47 911.827 1046.47 912.226 1046.37 912.644 1046.17 913.063 1045.97 913.664 1045.48 914.448 1044.71 915.231 1043.94 916.312 1042.73 917.69 1041.08 919.068 1039.44 921.067 1036.96 923.688 1033.67 923.283 1031.53 922.864 1029.48 922.432 1027.51 921.999 1025.53 921.554 1023.7 921.094 1021.99 920.635 1020.29 920.257 1019.18 919.96 1018.65 919.662 1018.12 919.345 1017.76 919.007 1017.56 918.669 1017.35 918.244 1017.25 917.731 1017.25 917.163 1017.25 916.65 1017.38 916.191 1017.64 915.731 1017.89 915.231 1018.34 914.691 1018.98 914.151 1019.61 913.435 1020.6 912.543 1021.95L909.909 1020.21C911.611 1017.64 913.246 1015.73 914.813 1014.46 916.38 1013.19 918.23 1012.55 920.365 1012.55Z" fill-rule="evenodd"/><text fill="#000000" fill-opacity="0" font-family="Arial,Arial_MSFontService,sans-serif" font-size="40.0815" x="905.572" y="1047.62">𝑥</text><path d="M2742.95 1012.59C2744.05 1012.59 2745 1012.74 2745.78 1013.04 2746.32 1013.25 2746.86 1013.61 2747.4 1014.11 2747.94 1014.61 2748.42 1015.31 2748.84 1016.2 2749.26 1017.09 2749.63 1018.09 2749.94 1019.2 2750.25 1020.31 2750.59 1021.9 2750.97 1023.98 2751.62 1027.47 2752.25 1031.13 2752.85 1034.98 2753.46 1038.83 2753.98 1042.41 2754.41 1045.7 2757.04 1041.92 2759.26 1038.22 2761.08 1034.6 2762.91 1030.98 2764.22 1027.83 2765.01 1025.16 2765.81 1022.48 2766.21 1020.31 2766.21 1018.63 2766.21 1017.36 2765.94 1016.5 2765.4 1016.04 2764.86 1015.58 2763.94 1015.31 2762.64 1015.23L2763.05 1013.24 2773.71 1013.24 2774.8 1015.27C2772.75 1020.89 2769.96 1026.9 2766.45 1033.3 2762.99 1039.57 2759.03 1045.81 2754.58 1052.03 2750.31 1057.94 2746.75 1062.22 2743.92 1064.87 2741.95 1066.68 2740.04 1067.98 2738.2 1068.76 2736.74 1069.36 2735.19 1069.65 2733.54 1069.65 2732.98 1069.65 2732.32 1069.61 2731.58 1069.51 2730.83 1069.42 2730.26 1069.29 2729.85 1069.13L2731.6 1061.27 2734.8 1061.27C2734.8 1062.99 2735.39 1063.86 2736.58 1063.86 2738.15 1063.86 2739.97 1062.88 2742.05 1060.92 2744.13 1058.96 2746.58 1056.01 2749.39 1052.07 2748.61 1047.34 2747.54 1041.64 2746.19 1034.96 2744.76 1027.83 2743.81 1023.41 2743.35 1021.71 2742.78 1019.66 2742.19 1018.35 2741.57 1017.78 2741.19 1017.43 2740.72 1017.25 2740.15 1017.25 2739.28 1017.25 2738.47 1017.6 2737.72 1018.31 2736.96 1019.01 2736.03 1020.23 2734.92 1021.95L2732.29 1020.21C2734.15 1017.43 2735.89 1015.46 2737.51 1014.31 2739.14 1013.17 2740.95 1012.59 2742.95 1012.59Z" fill-rule="evenodd"/><text fill="#000000" fill-opacity="0" font-family="Arial,Arial_MSFontService,sans-serif" font-size="57.0625" x="2729.85" y="1062.52">𝑦</text><path d="M1742.85 1012.83C1740.04 1012.83 1737.59 1014.01 1735.5 1016.36 1733.4 1018.71 1731.76 1022.07 1730.55 1026.45 1729.35 1030.83 1728.75 1034.6 1728.75 1037.76 1728.75 1040.73 1729.37 1042.93 1730.59 1044.34 1731.82 1045.76 1733.68 1046.47 1736.17 1046.47 1738.81 1046.47 1741.17 1045.28 1743.22 1042.9 1745.27 1040.53 1746.89 1037.2 1748.08 1032.91 1749.27 1028.63 1749.87 1024.87 1749.87 1021.63 1749.87 1018.71 1749.3 1016.51 1748.16 1015.04 1747.03 1013.57 1745.26 1012.83 1742.85 1012.83ZM1763.88 1010.24 1774.49 1010.24 1776.92 1042.22C1780.73 1036 1783.48 1031.27 1785.17 1028.03 1786.86 1024.79 1788.11 1021.99 1788.92 1019.62 1789.73 1017.26 1790.35 1014.79 1790.79 1012.23L1791.23 1010.24 1797.07 1010.24 1800.03 1042.26C1804.24 1036.26 1807.45 1031.02 1809.65 1026.55 1811.85 1022.08 1812.95 1018.44 1812.95 1015.63 1812.95 1014.36 1812.68 1013.5 1812.14 1013.04 1811.6 1012.58 1810.68 1012.31 1809.39 1012.23L1809.79 1010.24 1820.25 1010.24 1821.34 1012.27C1820.4 1014.67 1819.64 1016.52 1819.07 1017.82 1818.51 1019.12 1817.76 1020.68 1816.84 1022.5 1815.93 1024.32 1814.95 1026.14 1813.93 1027.95 1812.9 1029.76 1811.69 1031.75 1810.3 1033.93 1808.91 1036.1 1807.35 1038.47 1805.62 1041.02 1803.89 1043.57 1801.85 1046.44 1799.5 1049.63L1794.68 1049.63 1793.01 1032.69C1792.88 1031.37 1792.74 1029.64 1792.59 1027.5 1792.44 1025.37 1792.34 1023.72 1792.28 1022.56L1791.84 1022.52C1790.38 1026.11 1788.39 1030.11 1785.88 1034.52 1783.37 1038.92 1780.26 1043.96 1776.56 1049.63L1771.13 1049.63 1768.05 1019.12C1767.89 1017.55 1767.68 1016.28 1767.44 1015.31 1767.2 1014.33 1766.79 1013.6 1766.23 1013.12 1765.66 1012.63 1764.73 1012.33 1763.43 1012.23ZM1743.66 1009.59C1747.99 1009.59 1751.28 1010.77 1753.55 1013.14 1755.82 1015.5 1756.96 1018.89 1756.96 1023.29 1756.96 1026.42 1756.41 1029.77 1755.32 1033.34 1754.22 1036.91 1752.72 1039.91 1750.82 1042.34 1748.91 1044.77 1746.64 1046.6 1743.99 1047.83 1741.34 1049.06 1738.3 1049.67 1734.87 1049.67 1730.68 1049.67 1727.43 1048.5 1725.12 1046.15 1722.81 1043.8 1721.66 1040.42 1721.66 1036.02 1721.66 1033.85 1721.98 1031.35 1722.63 1028.52 1723.47 1024.68 1724.87 1021.33 1726.85 1018.47 1728.82 1015.6 1731.25 1013.41 1734.14 1011.88 1737.03 1010.35 1740.21 1009.59 1743.66 1009.59ZM1681.97 1009.55C1683.67 1009.55 1685.01 1010.11 1686 1011.23 1686.99 1012.35 1687.48 1013.82 1687.48 1015.63 1687.48 1017.06 1687.15 1018.66 1686.51 1020.41L1686.99 1020.57C1689.64 1016.85 1692.16 1014.08 1694.55 1012.29 1696.94 1010.49 1699.41 1009.59 1701.95 1009.59 1704.46 1009.59 1706.39 1010.31 1707.74 1011.76 1709.09 1013.21 1709.77 1015.21 1709.77 1017.78 1709.77 1019.48 1709.38 1021.9 1708.59 1025.03L1705.96 1035.65C1705.23 1038.6 1704.86 1040.68 1704.86 1041.89 1704.86 1042.97 1705.04 1043.76 1705.39 1044.24 1705.74 1044.73 1706.3 1044.97 1707.05 1044.97 1707.86 1044.97 1708.73 1044.64 1709.65 1043.98 1710.57 1043.32 1711.86 1042.05 1713.54 1040.19L1715.85 1042.46C1713.52 1044.94 1711.5 1046.76 1709.77 1047.91 1708.04 1049.06 1706.07 1049.63 1703.85 1049.63 1702.09 1049.63 1700.69 1049 1699.64 1047.75 1698.58 1046.49 1698.06 1044.89 1698.06 1042.95 1698.06 1041.19 1698.5 1038.61 1699.39 1035.2L1701.18 1028.19C1701.82 1025.65 1702.25 1023.78 1702.45 1022.56 1702.66 1021.34 1702.76 1020.36 1702.76 1019.6 1702.76 1017.74 1702.45 1016.39 1701.82 1015.57 1701.2 1014.75 1700.19 1014.33 1698.79 1014.33 1697.65 1014.33 1696.43 1014.79 1695.12 1015.69 1693.81 1016.6 1692.42 1017.96 1690.94 1019.78 1689.47 1021.61 1688.29 1023.38 1687.4 1025.09 1686.51 1026.81 1685.78 1028.92 1685.21 1031.44L1681.36 1048.98 1674.35 1048.98 1680.26 1023.29C1680.86 1020.7 1681.16 1018.7 1681.16 1017.29 1681.16 1016.21 1680.98 1015.43 1680.63 1014.94 1680.28 1014.45 1679.72 1014.21 1678.97 1014.21 1678.13 1014.21 1677.24 1014.56 1676.31 1015.24 1675.38 1015.93 1674.1 1017.18 1672.48 1018.99L1670.17 1016.72C1672.66 1014.13 1674.73 1012.29 1676.37 1011.19 1678.02 1010.1 1679.89 1009.55 1681.97 1009.55Z" fill-rule="evenodd"/><text fill="#000000" fill-opacity="0" font-family="Arial,Arial_MSFontService,sans-serif" font-size="40.1221" x="1670.17" y="1044.66">𝑛𝑜𝑤</text><path d="M2723.5 847.5 2723.5 1089.27" stroke="#4472C4" stroke-width="9.16667" stroke-miterlimit="8" stroke-dasharray="36.6667 27.5" fill="none" fill-rule="evenodd"/><path d="M897.5 869.5 897.5 1092.28" stroke="#4472C4" stroke-width="9.16667" stroke-miterlimit="8" stroke-dasharray="36.6667 27.5" fill="none" fill-rule="evenodd"/><path d="M1284.48 1009.59C1286.99 1009.59 1289.28 1009.74 1291.35 1010.04 1293.41 1010.33 1295.47 1010.85 1297.53 1011.58L1295.7 1020.09 1292.42 1020.09C1292.12 1017.68 1291.33 1015.86 1290.05 1014.62 1288.77 1013.37 1286.75 1012.75 1283.99 1012.75 1281.86 1012.75 1280.13 1013.3 1278.8 1014.39 1277.48 1015.49 1276.82 1016.93 1276.82 1018.71 1276.82 1019.68 1276.99 1020.54 1277.33 1021.28 1277.66 1022.03 1278.35 1022.84 1279.37 1023.74 1280.4 1024.63 1281.99 1025.72 1284.15 1027.02 1285.86 1028.04 1287.22 1028.98 1288.25 1029.83 1289.27 1030.69 1290.08 1031.53 1290.68 1032.37 1291.27 1033.21 1291.71 1034.09 1291.98 1035.02 1292.25 1035.95 1292.38 1037.08 1292.38 1038.41 1292.38 1040.81 1291.74 1042.87 1290.46 1044.59 1289.17 1046.3 1287.43 1047.58 1285.23 1048.42 1283.03 1049.25 1280.52 1049.67 1277.71 1049.67 1275.47 1049.67 1273.27 1049.5 1271.1 1049.17 1268.94 1048.83 1266.54 1048.25 1263.89 1047.44L1265.84 1038.61 1269 1038.61C1269.1 1041.2 1269.83 1043.16 1271.19 1044.49 1272.54 1045.81 1274.68 1046.47 1277.63 1046.47 1280.2 1046.47 1282.2 1045.9 1283.65 1044.75 1285.09 1043.6 1285.82 1041.97 1285.82 1039.87 1285.82 1038.65 1285.61 1037.6 1285.21 1036.72 1284.8 1035.85 1284.14 1035 1283.22 1034.19 1282.3 1033.38 1280.84 1032.37 1278.85 1031.15 1276.74 1029.88 1275.1 1028.73 1273.92 1027.71 1272.75 1026.68 1271.86 1025.57 1271.27 1024.36 1270.67 1023.16 1270.37 1021.78 1270.37 1020.21 1270.37 1018.08 1270.95 1016.2 1272.1 1014.6 1273.25 1012.99 1274.89 1011.75 1277.02 1010.89 1279.16 1010.02 1281.64 1009.59 1284.48 1009.59ZM1256.74 991.03 1259.13 991.03 1249.16 1035.89C1248.56 1038.57 1248.27 1040.57 1248.27 1041.89 1248.27 1042.97 1248.44 1043.76 1248.79 1044.24 1249.14 1044.73 1249.7 1044.97 1250.45 1044.97 1251.26 1044.97 1252.13 1044.64 1253.05 1043.98 1253.97 1043.32 1255.26 1042.05 1256.94 1040.19L1259.25 1042.46C1256.63 1045.21 1254.49 1047.1 1252.82 1048.11 1251.16 1049.13 1249.31 1049.63 1247.25 1049.63 1245.5 1049.63 1244.09 1048.99 1243.04 1047.71 1241.98 1046.42 1241.46 1044.78 1241.46 1042.78 1241.46 1040.97 1241.84 1038.35 1242.59 1034.92L1249.85 1002.46C1250.17 1001.03 1250.4 999.885 1250.54 999.034 1250.67 998.183 1250.74 997.393 1250.74 996.663 1250.74 995.853 1250.59 995.238 1250.29 994.819 1249.99 994.4 1249.57 994.096 1249.02 993.907 1248.46 993.718 1247.47 993.583 1246.04 993.502L1246.52 991.395Z" fill-rule="evenodd"/><text fill="#000000" fill-opacity="0" font-family="Arial,Arial_MSFontService,sans-serif" font-size="58.6431" x="1241.46" y="1042.34">𝑙𝑠</text><path d="M2506.45 1018.18C2508.96 1018.18 2511.25 1018.33 2513.32 1018.62 2515.39 1018.92 2517.45 1019.43 2519.5 1020.16L2517.68 1028.67 2514.39 1028.67C2514.1 1026.27 2513.3 1024.45 2512.02 1023.2 2510.74 1021.96 2508.72 1021.34 2505.96 1021.34 2503.83 1021.34 2502.1 1021.89 2500.78 1022.98 2499.45 1024.07 2498.79 1025.51 2498.79 1027.3 2498.79 1028.27 2498.96 1029.13 2499.3 1029.87 2499.63 1030.61 2500.32 1031.43 2501.34 1032.32 2502.37 1033.21 2503.96 1034.31 2506.12 1035.6 2507.83 1036.63 2509.19 1037.57 2510.22 1038.42 2511.24 1039.27 2512.06 1040.12 2512.65 1040.95 2513.24 1041.79 2513.68 1042.68 2513.95 1043.61 2514.22 1044.54 2514.35 1045.67 2514.35 1046.99 2514.35 1049.4 2513.71 1051.46 2512.43 1053.17 2511.14 1054.89 2509.4 1056.17 2507.2 1057 2505 1057.84 2502.49 1058.26 2499.68 1058.26 2497.44 1058.26 2495.24 1058.09 2493.07 1057.75 2490.91 1057.42 2488.51 1056.84 2485.86 1056.03L2487.81 1047.2 2490.97 1047.2C2491.08 1049.79 2491.81 1051.75 2493.16 1053.07 2494.51 1054.4 2496.65 1055.06 2499.6 1055.06 2502.17 1055.06 2504.17 1054.48 2505.62 1053.34 2507.06 1052.19 2507.79 1050.56 2507.79 1048.45 2507.79 1047.24 2507.58 1046.19 2507.18 1045.31 2506.77 1044.43 2506.11 1043.59 2505.19 1042.78 2504.27 1041.97 2502.81 1040.95 2500.82 1039.74 2498.71 1038.47 2497.07 1037.32 2495.89 1036.29 2494.72 1035.27 2493.83 1034.15 2493.24 1032.95 2492.64 1031.75 2492.35 1030.36 2492.35 1028.8 2492.35 1026.66 2492.92 1024.79 2494.07 1023.18 2495.22 1021.58 2496.86 1020.34 2498.99 1019.47 2501.13 1018.61 2503.61 1018.18 2506.45 1018.18ZM2457.56 1018.14C2459.26 1018.14 2460.61 1018.7 2461.59 1019.82 2462.58 1020.94 2463.07 1022.41 2463.07 1024.22 2463.07 1025.57 2462.82 1026.96 2462.3 1028.39L2462.83 1028.59C2465.48 1025 2468.02 1022.37 2470.47 1020.69 2472.91 1019.02 2475.39 1018.18 2477.91 1018.18 2479.88 1018.18 2481.53 1018.33 2482.85 1018.62L2480.9 1027.7 2476.73 1027.7C2476.57 1026.57 2476.34 1025.69 2476.04 1025.07 2475.74 1024.45 2475.39 1024.01 2474.99 1023.77 2474.58 1023.53 2474.07 1023.41 2473.45 1023.41 2472.47 1023.41 2471.41 1023.82 2470.27 1024.66 2469.12 1025.5 2467.83 1026.81 2466.4 1028.59 2464.96 1030.38 2463.82 1032.09 2462.97 1033.74 2462.12 1035.39 2461.41 1037.48 2460.84 1040.02L2456.99 1057.57 2449.98 1057.57 2455.86 1031.88C2456.24 1030.26 2456.48 1029 2456.59 1028.11 2456.7 1027.22 2456.75 1026.47 2456.75 1025.88 2456.75 1024.8 2456.57 1024.01 2456.22 1023.53 2455.87 1023.04 2455.32 1022.8 2454.56 1022.8 2453.72 1022.8 2452.84 1023.14 2451.91 1023.83 2450.97 1024.52 2449.7 1025.77 2448.08 1027.58L2445.77 1025.31C2448.25 1022.72 2450.33 1020.87 2452.01 1019.78 2453.68 1018.68 2455.53 1018.14 2457.56 1018.14Z" fill-rule="evenodd"/><text fill="#000000" fill-opacity="0" font-family="Arial,Arial_MSFontService,sans-serif" font-size="40.1221" x="2445.77" y="1053.24">𝑟𝑠</text></g></svg>