<svg width="3834" height="268" xmlns="http://www.w3.org/2000/svg" xmlns:xlink="http://www.w3.org/1999/xlink" xml:space="preserve" overflow="hidden"><g transform="translate(-264 -1787)"><path d="M303 1904 4017.86 1904" stroke="#4472C4" stroke-width="13.75" stroke-miterlimit="8" fill="none" fill-rule="evenodd"/><path d="M319.979 1945.1C318.114 1945.1 316.554 1945.66 315.298 1946.76 314.041 1947.87 313.028 1949.47 312.258 1951.55 311.488 1953.63 310.941 1956.16 310.617 1959.15 310.293 1962.13 310.13 1965.5 310.13 1969.26 310.13 1978.06 310.948 1984.53 312.582 1988.65 314.217 1992.77 316.75 1994.83 320.181 1994.83 323.45 1994.83 325.875 1992.89 327.456 1989.01 329.036 1985.14 329.827 1979.13 329.827 1971 329.827 1964.79 329.422 1959.75 328.611 1955.9 327.8 1952.05 326.672 1949.29 325.227 1947.62 323.781 1945.94 322.032 1945.1 319.979 1945.1ZM320.181 1941.66C326.098 1941.66 330.502 1943.94 333.393 1948.51 336.284 1953.07 337.73 1959.98 337.73 1969.22 337.73 1978.78 336.183 1986.01 333.089 1990.92 329.996 1995.82 325.477 1998.27 319.533 1998.27 313.697 1998.27 309.354 1995.98 306.503 1991.38 303.653 1986.79 302.228 1979.82 302.228 1970.47 302.228 1965.5 302.667 1961.21 303.545 1957.58 304.423 1953.96 305.652 1950.97 307.233 1948.61 308.813 1946.24 310.711 1944.49 312.927 1943.36 315.142 1942.22 317.561 1941.66 320.181 1941.66Z" fill-rule="evenodd"/><text fill="#000000" fill-opacity="0" font-family="Arial,Arial_MSFontService,sans-serif" font-size="56.6167" x="302.228" y="1991.2">0</text><path d="M4063.12 1975.48C4064.82 1975.48 4066.17 1976.04 4067.15 1977.16 4068.14 1978.28 4068.63 1979.75 4068.63 1981.56 4068.63 1982.99 4068.31 1984.58 4067.66 1986.34L4068.15 1986.5C4070.8 1982.77 4073.31 1980.01 4075.71 1978.21 4078.1 1976.42 4080.56 1975.52 4083.1 1975.52 4085.61 1975.52 4087.55 1976.24 4088.9 1977.69 4090.25 1979.13 4090.92 1981.14 4090.92 1983.71 4090.92 1985.41 4090.53 1987.83 4089.75 1990.96L4087.11 2001.58C4086.38 2004.52 4086.02 2006.6 4086.02 2007.82 4086.02 2008.9 4086.2 2009.68 4086.55 2010.17 4086.9 2010.66 4087.45 2010.9 4088.21 2010.9 4089.02 2010.9 4089.88 2010.57 4090.8 2009.91 4091.72 2009.24 4093.02 2007.98 4094.69 2006.12L4097 2008.39C4094.68 2010.87 4092.65 2012.69 4090.92 2013.84 4089.19 2014.99 4087.22 2015.56 4085.01 2015.56 4083.25 2015.56 4081.85 2014.93 4080.79 2013.68 4079.74 2012.42 4079.21 2010.82 4079.21 2008.87 4079.21 2007.12 4079.66 2004.54 4080.55 2001.13L4082.33 1994.12C4082.98 1991.58 4083.41 1989.7 4083.61 1988.49 4083.81 1987.27 4083.91 1986.29 4083.91 1985.53 4083.91 1983.66 4083.6 1982.32 4082.98 1981.5 4082.36 1980.67 4081.35 1980.26 4079.94 1980.26 4078.81 1980.26 4077.58 1980.71 4076.27 1981.62 4074.96 1982.52 4073.57 1983.89 4072.1 1985.71 4070.63 1987.54 4069.44 1989.3 4068.55 1991.02 4067.66 1992.74 4066.93 1994.85 4066.36 1997.36L4062.51 2014.91 4055.5 2014.91 4061.42 1989.22C4062.01 1986.62 4062.31 1984.62 4062.31 1983.22 4062.31 1982.14 4062.14 1981.35 4061.78 1980.87 4061.43 1980.38 4060.88 1980.14 4060.12 1980.14 4059.29 1980.14 4058.4 1980.48 4057.47 1981.17 4056.54 1981.86 4055.26 1983.11 4053.64 1984.92L4051.33 1982.65C4053.81 1980.06 4055.88 1978.21 4057.53 1977.12 4059.18 1976.03 4061.04 1975.48 4063.12 1975.48Z" fill-rule="evenodd"/><text fill="#000000" fill-opacity="0" font-family="Arial,Arial_MSFontService,sans-serif" font-size="40.0815" x="4051.33" y="2010.55">𝑛</text><path d="M1254 1904 2427.86 1904" stroke="#FF0000" stroke-width="13.75" stroke-miterlimit="8" fill="none" fill-rule="evenodd"/><path d="M1476.65 1952.61C1477.49 1952.61 1478.22 1952.7 1478.86 1952.89 1479.49 1953.08 1480.05 1953.37 1480.54 1953.76 1481.03 1954.15 1481.46 1954.66 1481.84 1955.28 1482.21 1955.9 1482.58 1956.75 1482.93 1957.81 1483.28 1958.88 1483.61 1960.21 1483.92 1961.79 1484.23 1963.37 1484.51 1965.01 1484.75 1966.71L1485.16 1966.71C1487.75 1963.06 1489.72 1960.4 1491.06 1958.71 1492.39 1957.02 1493.52 1955.76 1494.44 1954.94 1495.36 1954.11 1496.24 1953.53 1497.1 1953.19 1497.95 1952.86 1499.07 1952.69 1500.48 1952.69 1501.75 1952.69 1502.79 1952.85 1503.6 1953.17L1501.98 1960.51 1499.14 1960.51C1498.98 1959.38 1498.51 1958.81 1497.72 1958.81 1497.48 1958.81 1497.22 1958.85 1496.95 1958.93 1496.68 1959.01 1496.35 1959.19 1495.96 1959.46 1495.57 1959.73 1494.99 1960.25 1494.24 1961.04 1493.48 1961.82 1492.63 1962.78 1491.68 1963.91 1490.74 1965.05 1489.77 1966.24 1488.77 1967.48L1486.01 1970.93C1486.5 1973.52 1486.96 1975.76 1487.39 1977.65 1487.82 1979.54 1488.21 1981.12 1488.54 1982.37 1488.88 1983.63 1489.18 1984.62 1489.44 1985.35 1489.69 1986.08 1489.97 1986.63 1490.27 1986.99 1490.56 1987.36 1490.87 1987.62 1491.18 1987.76 1491.49 1987.91 1491.85 1987.99 1492.25 1987.99 1492.98 1987.99 1493.69 1987.7 1494.38 1987.14 1495.07 1986.57 1496.06 1985.29 1497.36 1983.29L1499.99 1985.03C1498.1 1987.84 1496.39 1989.82 1494.87 1990.97 1493.34 1992.11 1491.52 1992.69 1489.42 1992.69 1488.25 1992.69 1487.27 1992.48 1486.46 1992.06 1485.65 1991.64 1484.94 1990.97 1484.35 1990.05 1483.75 1989.14 1483.23 1987.7 1482.77 1985.76 1481.93 1982.3 1481.42 1979.65 1481.23 1977.82L1480.82 1977.82C1477.96 1981.84 1475.83 1984.73 1474.44 1986.49 1473.05 1988.24 1471.9 1989.54 1471 1990.38 1470.09 1991.22 1469.21 1991.8 1468.36 1992.14 1467.51 1992.48 1466.38 1992.65 1464.98 1992.65 1463.71 1992.65 1462.67 1992.49 1461.86 1992.16L1463.48 1984.83 1466.31 1984.83C1466.48 1985.96 1466.95 1986.53 1467.73 1986.53 1468.11 1986.53 1468.51 1986.43 1468.93 1986.22 1469.35 1986.02 1469.95 1985.54 1470.73 1984.77 1471.52 1984 1472.6 1982.79 1473.97 1981.14 1475.35 1979.49 1477.35 1977.02 1479.97 1973.72 1479.57 1971.59 1479.15 1969.53 1478.72 1967.56 1478.28 1965.59 1477.84 1963.75 1477.38 1962.05 1476.92 1960.35 1476.54 1959.23 1476.24 1958.71 1475.95 1958.18 1475.63 1957.81 1475.29 1957.61 1474.95 1957.41 1474.53 1957.31 1474.01 1957.31 1473.45 1957.31 1472.93 1957.44 1472.47 1957.69 1472.02 1957.95 1471.52 1958.4 1470.98 1959.03 1470.43 1959.67 1469.72 1960.66 1468.83 1962.01L1466.19 1960.27C1467.9 1957.7 1469.53 1955.78 1471.1 1954.51 1472.66 1953.24 1474.51 1952.61 1476.65 1952.61Z" fill-rule="evenodd"/><text fill="#000000" fill-opacity="0" font-family="Arial,Arial_MSFontService,sans-serif" font-size="40.0815" x="1461.86" y="1987.68">𝑥</text><path d="M2139.52 1952.65C2140.63 1952.65 2141.57 1952.8 2142.36 1953.09 2142.9 1953.31 2143.44 1953.67 2143.98 1954.17 2144.52 1954.67 2145 1955.36 2145.42 1956.25 2145.83 1957.15 2146.2 1958.15 2146.51 1959.25 2146.82 1960.36 2147.16 1961.96 2147.54 1964.04 2148.19 1967.52 2148.82 1971.19 2149.43 1975.04 2150.04 1978.89 2150.56 1982.46 2150.99 1985.76 2153.61 1981.98 2155.83 1978.27 2157.65 1974.65 2159.48 1971.03 2160.79 1967.89 2161.59 1965.21 2162.38 1962.54 2162.78 1960.36 2162.78 1958.69 2162.78 1957.42 2162.51 1956.55 2161.97 1956.09 2161.43 1955.63 2160.51 1955.36 2159.21 1955.28L2159.62 1953.3 2170.28 1953.3 2171.37 1955.32C2169.32 1960.94 2166.54 1966.95 2163.02 1973.36 2159.57 1979.63 2155.61 1985.87 2151.15 1992.08 2146.88 1998 2143.33 2002.28 2140.49 2004.93 2138.52 2006.74 2136.61 2008.04 2134.78 2008.82 2133.32 2009.41 2131.76 2009.71 2130.12 2009.71 2129.55 2009.71 2128.89 2009.66 2128.15 2009.57 2127.41 2009.47 2126.83 2009.35 2126.43 2009.18L2128.17 2001.32 2131.37 2001.32C2131.37 2003.05 2131.97 2003.91 2133.16 2003.91 2134.72 2003.91 2136.55 2002.94 2138.63 2000.98 2140.71 1999.02 2143.15 1996.07 2145.96 1992.12 2145.18 1987.39 2144.11 1981.69 2142.76 1975.02 2141.33 1967.89 2140.38 1963.47 2139.92 1961.77 2139.36 1959.71 2138.76 1958.4 2138.14 1957.84 2137.76 1957.48 2137.29 1957.31 2136.72 1957.31 2135.86 1957.31 2135.05 1957.66 2134.29 1958.36 2133.53 1959.06 2132.6 1960.28 2131.49 1962.01L2128.86 1960.27C2130.72 1957.48 2132.47 1955.52 2134.09 1954.37 2135.71 1953.22 2137.52 1952.65 2139.52 1952.65Z" fill-rule="evenodd"/><text fill="#000000" fill-opacity="0" font-family="Arial,Arial_MSFontService,sans-serif" font-size="57.0625" x="2126.43" y="2002.58">𝑦</text><path d="M1742.85 1952.89C1740.04 1952.89 1737.59 1954.06 1735.5 1956.41 1733.4 1958.77 1731.76 1962.13 1730.55 1966.51 1729.35 1970.88 1728.75 1974.65 1728.75 1977.81 1728.75 1980.79 1729.37 1982.98 1730.59 1984.4 1731.82 1985.82 1733.68 1986.53 1736.17 1986.53 1738.81 1986.53 1741.17 1985.34 1743.22 1982.96 1745.27 1980.58 1746.89 1977.25 1748.08 1972.97 1749.27 1968.69 1749.87 1964.93 1749.87 1961.68 1749.87 1958.77 1749.3 1956.57 1748.16 1955.1 1747.03 1953.62 1745.26 1952.89 1742.85 1952.89ZM1763.88 1950.3 1774.49 1950.3 1776.92 1982.27C1780.73 1976.06 1783.48 1971.33 1785.17 1968.09 1786.86 1964.84 1788.11 1962.04 1788.92 1959.68 1789.73 1957.31 1790.35 1954.85 1790.79 1952.28L1791.23 1950.3 1797.07 1950.3 1800.03 1982.31C1804.24 1976.31 1807.45 1971.08 1809.65 1966.61 1811.85 1962.14 1812.95 1958.5 1812.95 1955.69 1812.95 1954.42 1812.68 1953.55 1812.14 1953.09 1811.6 1952.63 1810.68 1952.36 1809.39 1952.28L1809.79 1950.3 1820.25 1950.3 1821.34 1952.32C1820.4 1954.73 1819.64 1956.58 1819.07 1957.87 1818.51 1959.17 1817.76 1960.73 1816.84 1962.55 1815.93 1964.38 1814.95 1966.2 1813.93 1968.01 1812.9 1969.82 1811.69 1971.81 1810.3 1973.98 1808.91 1976.16 1807.35 1978.52 1805.62 1981.08 1803.89 1983.63 1801.85 1986.5 1799.5 1989.69L1794.68 1989.69 1793.01 1972.75C1792.88 1971.42 1792.74 1969.69 1792.59 1967.56 1792.44 1965.43 1792.34 1963.78 1792.28 1962.62L1791.84 1962.57C1790.38 1966.17 1788.39 1970.17 1785.88 1974.57 1783.37 1978.97 1780.26 1984.01 1776.56 1989.69L1771.13 1989.69 1768.05 1959.17C1767.89 1957.6 1767.68 1956.33 1767.44 1955.36 1767.2 1954.39 1766.79 1953.66 1766.23 1953.17 1765.66 1952.69 1764.73 1952.39 1763.43 1952.28ZM1743.66 1949.65C1747.99 1949.65 1751.28 1950.83 1753.55 1953.19 1755.82 1955.56 1756.96 1958.94 1756.96 1963.34 1756.96 1966.48 1756.41 1969.83 1755.32 1973.4 1754.22 1976.96 1752.72 1979.96 1750.82 1982.39 1748.91 1984.82 1746.64 1986.65 1743.99 1987.88 1741.34 1989.11 1738.3 1989.73 1734.87 1989.73 1730.68 1989.73 1727.43 1988.55 1725.12 1986.2 1722.81 1983.85 1721.66 1980.47 1721.66 1976.07 1721.66 1973.91 1721.98 1971.41 1722.63 1968.57 1723.47 1964.74 1724.87 1961.39 1726.85 1958.52 1728.82 1955.66 1731.25 1953.46 1734.14 1951.94 1737.03 1950.41 1740.21 1949.65 1743.66 1949.65ZM1681.97 1949.61C1683.67 1949.61 1685.01 1950.17 1686 1951.29 1686.99 1952.41 1687.48 1953.88 1687.48 1955.69 1687.48 1957.12 1687.15 1958.71 1686.51 1960.47L1686.99 1960.63C1689.64 1956.9 1692.16 1954.14 1694.55 1952.34 1696.94 1950.54 1699.41 1949.65 1701.95 1949.65 1704.46 1949.65 1706.39 1950.37 1707.74 1951.81 1709.09 1953.26 1709.77 1955.27 1709.77 1957.83 1709.77 1959.54 1709.38 1961.95 1708.59 1965.09L1705.96 1975.71C1705.23 1978.65 1704.86 1980.73 1704.86 1981.95 1704.86 1983.03 1705.04 1983.81 1705.39 1984.3 1705.74 1984.78 1706.3 1985.03 1707.05 1985.03 1707.86 1985.03 1708.73 1984.7 1709.65 1984.03 1710.57 1983.37 1711.86 1982.11 1713.54 1980.24L1715.85 1982.51C1713.52 1985 1711.5 1986.82 1709.77 1987.97 1708.04 1989.11 1706.07 1989.69 1703.85 1989.69 1702.09 1989.69 1700.69 1989.06 1699.64 1987.8 1698.58 1986.55 1698.06 1984.95 1698.06 1983 1698.06 1981.24 1698.5 1978.66 1699.39 1975.26L1701.18 1968.25C1701.82 1965.71 1702.25 1963.83 1702.45 1962.62 1702.66 1961.4 1702.76 1960.41 1702.76 1959.66 1702.76 1957.79 1702.45 1956.45 1701.82 1955.62 1701.2 1954.8 1700.19 1954.39 1698.79 1954.39 1697.65 1954.39 1696.43 1954.84 1695.12 1955.75 1693.81 1956.65 1692.42 1958.02 1690.94 1959.84 1689.47 1961.66 1688.29 1963.43 1687.4 1965.15 1686.51 1966.86 1685.78 1968.98 1685.21 1971.49L1681.36 1989.04 1674.35 1989.04 1680.26 1963.34C1680.86 1960.75 1681.16 1958.75 1681.16 1957.35 1681.16 1956.27 1680.98 1955.48 1680.63 1955 1680.28 1954.51 1679.72 1954.27 1678.97 1954.27 1678.13 1954.27 1677.24 1954.61 1676.31 1955.3 1675.38 1955.99 1674.1 1957.24 1672.48 1959.05L1670.17 1956.78C1672.66 1954.19 1674.73 1952.34 1676.37 1951.25 1678.02 1950.15 1679.89 1949.61 1681.97 1949.61Z" fill-rule="evenodd"/><text fill="#000000" fill-opacity="0" font-family="Arial,Arial_MSFontService,sans-serif" font-size="40.1221" x="1670.17" y="1984.71">𝑛𝑜𝑤</text><path d="M2119.5 1787.5 2119.5 2029.27" stroke="#4472C4" stroke-width="9.16667" stroke-miterlimit="8" stroke-dasharray="36.6667 27.5" fill="none" fill-rule="evenodd"/><path d="M1454.5 1809.5 1454.5 2032.28" stroke="#4472C4" stroke-width="9.16667" stroke-miterlimit="8" stroke-dasharray="36.6667 27.5" fill="none" fill-rule="evenodd"/><path d="M1284.48 1949.65C1286.99 1949.65 1289.28 1949.8 1291.35 1950.09 1293.41 1950.39 1295.47 1950.9 1297.53 1951.63L1295.7 1960.14 1292.42 1960.14C1292.12 1957.74 1291.33 1955.91 1290.05 1954.67 1288.77 1953.43 1286.75 1952.81 1283.99 1952.81 1281.86 1952.81 1280.13 1953.35 1278.8 1954.45 1277.48 1955.54 1276.82 1956.98 1276.82 1958.77 1276.82 1959.74 1276.99 1960.6 1277.33 1961.34 1277.66 1962.08 1278.35 1962.9 1279.37 1963.79 1280.4 1964.68 1281.99 1965.78 1284.15 1967.07 1285.86 1968.1 1287.22 1969.04 1288.25 1969.89 1289.27 1970.74 1290.08 1971.59 1290.68 1972.42 1291.27 1973.26 1291.71 1974.15 1291.98 1975.08 1292.25 1976.01 1292.38 1977.14 1292.38 1978.46 1292.38 1980.87 1291.74 1982.93 1290.46 1984.64 1289.17 1986.36 1287.43 1987.63 1285.23 1988.47 1283.03 1989.31 1280.52 1989.73 1277.71 1989.73 1275.47 1989.73 1273.27 1989.56 1271.1 1989.22 1268.94 1988.88 1266.54 1988.31 1263.89 1987.5L1265.84 1978.66 1269 1978.66C1269.1 1981.26 1269.83 1983.22 1271.19 1984.54 1272.54 1985.86 1274.68 1986.53 1277.63 1986.53 1280.2 1986.53 1282.2 1985.95 1283.65 1984.8 1285.09 1983.66 1285.82 1982.03 1285.82 1979.92 1285.82 1978.7 1285.61 1977.66 1285.21 1976.78 1284.8 1975.9 1284.14 1975.06 1283.22 1974.25 1282.3 1973.44 1280.84 1972.42 1278.85 1971.21 1276.74 1969.94 1275.1 1968.79 1273.92 1967.76 1272.75 1966.74 1271.86 1965.62 1271.27 1964.42 1270.67 1963.22 1270.37 1961.83 1270.37 1960.26 1270.37 1958.13 1270.95 1956.26 1272.1 1954.65 1273.25 1953.04 1274.89 1951.81 1277.02 1950.94 1279.16 1950.08 1281.64 1949.65 1284.48 1949.65ZM1256.74 1931.09 1259.13 1931.09 1249.16 1975.95C1248.56 1978.62 1248.27 1980.62 1248.27 1981.95 1248.27 1983.03 1248.44 1983.81 1248.79 1984.3 1249.14 1984.78 1249.7 1985.03 1250.45 1985.03 1251.26 1985.03 1252.13 1984.7 1253.05 1984.03 1253.97 1983.37 1255.26 1982.11 1256.94 1980.24L1259.25 1982.51C1256.63 1985.27 1254.49 1987.15 1252.82 1988.17 1251.16 1989.18 1249.31 1989.69 1247.25 1989.69 1245.5 1989.69 1244.09 1989.05 1243.04 1987.76 1241.98 1986.48 1241.46 1984.84 1241.46 1982.84 1241.46 1981.03 1241.84 1978.41 1242.59 1974.98L1249.85 1942.51C1250.17 1941.08 1250.4 1939.94 1250.54 1939.09 1250.67 1938.24 1250.74 1937.45 1250.74 1936.72 1250.74 1935.91 1250.59 1935.29 1250.29 1934.87 1249.99 1934.46 1249.57 1934.15 1249.02 1933.96 1248.46 1933.77 1247.47 1933.64 1246.04 1933.56L1246.52 1931.45Z" fill-rule="evenodd"/><text fill="#000000" fill-opacity="0" font-family="Arial,Arial_MSFontService,sans-serif" font-size="58.6431" x="1241.46" y="1982.4">𝑙𝑠</text><path d="M2506.45 1958.23C2508.96 1958.23 2511.25 1958.38 2513.32 1958.68 2515.39 1958.98 2517.45 1959.49 2519.5 1960.22L2517.68 1968.73 2514.39 1968.73C2514.1 1966.33 2513.3 1964.5 2512.02 1963.26 2510.74 1962.02 2508.72 1961.39 2505.96 1961.39 2503.83 1961.39 2502.1 1961.94 2500.78 1963.04 2499.45 1964.13 2498.79 1965.57 2498.79 1967.35 2498.79 1968.32 2498.96 1969.18 2499.3 1969.93 2499.63 1970.67 2500.32 1971.49 2501.34 1972.38 2502.37 1973.27 2503.96 1974.36 2506.12 1975.66 2507.83 1976.69 2509.19 1977.63 2510.22 1978.48 2511.24 1979.33 2512.06 1980.17 2512.65 1981.01 2513.24 1981.85 2513.68 1982.73 2513.95 1983.66 2514.22 1984.6 2514.35 1985.72 2514.35 1987.05 2514.35 1989.45 2513.71 1991.51 2512.43 1993.23 2511.14 1994.94 2509.4 1996.22 2507.2 1997.06 2505 1997.9 2502.49 1998.31 2499.68 1998.31 2497.44 1998.31 2495.24 1998.15 2493.07 1997.81 2490.91 1997.47 2488.51 1996.9 2485.86 1996.09L2487.81 1987.25 2490.97 1987.25C2491.08 1989.84 2491.81 1991.8 2493.16 1993.13 2494.51 1994.45 2496.65 1995.11 2499.6 1995.11 2502.17 1995.11 2504.17 1994.54 2505.62 1993.39 2507.06 1992.24 2507.79 1990.61 2507.79 1988.51 2507.79 1987.29 2507.58 1986.24 2507.18 1985.37 2506.77 1984.49 2506.11 1983.64 2505.19 1982.83 2504.27 1982.02 2502.81 1981.01 2500.82 1979.79 2498.71 1978.52 2497.07 1977.38 2495.89 1976.35 2494.72 1975.32 2493.83 1974.21 2493.24 1973.01 2492.64 1971.8 2492.35 1970.42 2492.35 1968.85 2492.35 1966.72 2492.92 1964.85 2494.07 1963.24 2495.22 1961.63 2496.86 1960.39 2498.99 1959.53 2501.13 1958.67 2503.61 1958.23 2506.45 1958.23ZM2457.56 1958.19C2459.26 1958.19 2460.61 1958.75 2461.59 1959.87 2462.58 1961 2463.07 1962.46 2463.07 1964.27 2463.07 1965.62 2462.82 1967.01 2462.3 1968.45L2462.83 1968.65C2465.48 1965.06 2468.02 1962.42 2470.47 1960.75 2472.91 1959.07 2475.39 1958.23 2477.91 1958.23 2479.88 1958.23 2481.53 1958.38 2482.85 1958.68L2480.9 1967.76 2476.73 1967.76C2476.57 1966.62 2476.34 1965.74 2476.04 1965.12 2475.74 1964.5 2475.39 1964.07 2474.99 1963.83 2474.58 1963.58 2474.07 1963.46 2473.45 1963.46 2472.47 1963.46 2471.41 1963.88 2470.27 1964.72 2469.12 1965.56 2467.83 1966.87 2466.4 1968.65 2464.96 1970.43 2463.82 1972.15 2462.97 1973.8 2462.12 1975.44 2461.41 1977.54 2460.84 1980.08L2456.99 1997.63 2449.98 1997.63 2455.86 1971.93C2456.24 1970.31 2456.48 1969.05 2456.59 1968.16 2456.7 1967.27 2456.75 1966.53 2456.75 1965.93 2456.75 1964.85 2456.57 1964.07 2456.22 1963.58 2455.87 1963.1 2455.32 1962.85 2454.56 1962.85 2453.72 1962.85 2452.84 1963.2 2451.91 1963.89 2450.97 1964.58 2449.7 1965.83 2448.08 1967.64L2445.77 1965.37C2448.25 1962.77 2450.33 1960.93 2452.01 1959.83 2453.68 1958.74 2455.53 1958.19 2457.56 1958.19Z" fill-rule="evenodd"/><text fill="#000000" fill-opacity="0" font-family="Arial,Arial_MSFontService,sans-serif" font-size="40.1221" x="2445.77" y="1993.3">𝑟𝑠</text></g></svg>