<svg width="3601" height="866" xmlns="http://www.w3.org/2000/svg" xmlns:xlink="http://www.w3.org/1999/xlink" xml:space="preserve" overflow="hidden"><g transform="translate(-326 -1168)"><path d="M699.837 1182.68 699.837 2004.42" stroke="#000000" stroke-width="4.58333" stroke-linejoin="round" stroke-miterlimit="10" fill="none" fill-rule="evenodd"/><path d="M901.225 1732.17 901.225 2004.42" stroke="#000000" stroke-width="4.58333" stroke-linejoin="round" stroke-miterlimit="10" fill="none" fill-rule="evenodd"/><path d="M1102.61 1594.8 1102.61 2004.42" stroke="#000000" stroke-width="4.58333" stroke-linejoin="round" stroke-miterlimit="10" fill="none" fill-rule="evenodd"/><path d="M1304 1732.17 1304 2004.42" stroke="#000000" stroke-width="4.58333" stroke-linejoin="round" stroke-miterlimit="10" fill="none" fill-rule="evenodd"/><path d="M1505.39 1457.43 1505.39 2004.42" stroke="#000000" stroke-width="4.58333" stroke-linejoin="round" stroke-miterlimit="10" fill="none" fill-rule="evenodd"/><path d="M1706.78 1732.17 1706.78 2004.42" stroke="#000000" stroke-width="4.58333" stroke-linejoin="round" stroke-miterlimit="10" fill="none" fill-rule="evenodd"/><path d="M1908.16 1594.8 1908.16 2004.42" stroke="#000000" stroke-width="4.58333" stroke-linejoin="round" stroke-miterlimit="10" fill="none" fill-rule="evenodd"/><path d="M2109.55 1732.17 2109.55 2004.42" stroke="#000000" stroke-width="4.58333" stroke-linejoin="round" stroke-miterlimit="10" fill="none" fill-rule="evenodd"/><path d="M2310.94 1320.06 2310.94 2004.42" stroke="#000000" stroke-width="4.58333" stroke-linejoin="round" stroke-miterlimit="10" fill="none" fill-rule="evenodd"/><path d="M2512.33 1732.17 2512.33 2004.42" stroke="#000000" stroke-width="4.58333" stroke-linejoin="round" stroke-miterlimit="10" fill="none" fill-rule="evenodd"/><path d="M2713.71 1594.8 2713.71 2004.42" stroke="#000000" stroke-width="4.58333" stroke-linejoin="round" stroke-miterlimit="10" fill="none" fill-rule="evenodd"/><path d="M2915.1 1732.17 2915.1 2004.42" stroke="#000000" stroke-width="4.58333" stroke-linejoin="round" stroke-miterlimit="10" fill="none" fill-rule="evenodd"/><path d="M3116.49 1457.43 3116.49 2004.42" stroke="#000000" stroke-width="4.58333" stroke-linejoin="round" stroke-miterlimit="10" fill="none" fill-rule="evenodd"/><path d="M3317.88 1732.17 3317.88 2004.42" stroke="#000000" stroke-width="4.58333" stroke-linejoin="round" stroke-miterlimit="10" fill="none" fill-rule="evenodd"/><path d="M3519.26 1594.8 3519.26 2004.42" stroke="#000000" stroke-width="4.58333" stroke-linejoin="round" stroke-miterlimit="10" fill="none" fill-rule="evenodd"/><path d="M3720.65 1732.17 3720.65 2004.42" stroke="#000000" stroke-width="4.58333" stroke-linejoin="round" stroke-miterlimit="10" fill="none" fill-rule="evenodd"/><path d="M697.545 1322.35 3924.33 1322.35" stroke="#000000" stroke-width="4.58333" stroke-linejoin="round" stroke-miterlimit="10" fill="none" fill-rule="evenodd"/><path d="M697.545 1459.72 3924.33 1459.72" stroke="#000000" stroke-width="4.58333" stroke-linejoin="round" stroke-miterlimit="10" fill="none" fill-rule="evenodd"/><path d="M697.545 1597.09 3924.33 1597.09" stroke="#000000" stroke-width="4.58333" stroke-linejoin="round" stroke-miterlimit="10" fill="none" fill-rule="evenodd"/><path d="M326.137 1734.47 3924.33 1734.47" stroke="#000000" stroke-width="4.58333" stroke-linejoin="round" stroke-miterlimit="10" fill="none" fill-rule="evenodd"/><path d="M326.137 1868.3 3924.33 1868.3" stroke="#000000" stroke-width="4.58333" stroke-linejoin="round" stroke-miterlimit="10" fill="none" fill-rule="evenodd"/><path d="M328.428 1182.68 328.428 2004.42" stroke="#000000" stroke-width="4.58333" stroke-linejoin="round" stroke-miterlimit="10" fill="none" fill-rule="evenodd"/><path d="M3922.04 1182.68 3922.04 2004.42" stroke="#000000" stroke-width="4.58333" stroke-linejoin="round" stroke-miterlimit="10" fill="none" fill-rule="evenodd"/><path d="M326.137 1184.98 3924.33 1184.98" stroke="#000000" stroke-width="4.58333" stroke-linejoin="round" stroke-miterlimit="10" fill="none" fill-rule="evenodd"/><path d="M326.137 2002.13 3924.33 2002.13" stroke="#000000" stroke-width="4.58333" stroke-linejoin="round" stroke-miterlimit="10" fill="none" fill-rule="evenodd"/><text font-family="DengXian,DengXian_MSFontService,sans-serif" font-weight="400" font-size="83" transform="matrix(1 0 0 1 2113 1278)">159</text><path d="M2275.43 1219.91 2276.53 1223.03C2270.21 1225.11 2265.53 1229.17 2262.49 1235.21 2259.45 1241.25 2257.93 1248.84 2257.93 1257.97 2257.93 1267.42 2259.45 1275.22 2262.49 1281.35 2265.53 1287.49 2270.17 1291.59 2276.41 1293.67L2275.43 1296.79C2267.52 1294.71 2261.45 1290.23 2257.24 1283.36 2253.02 1276.48 2250.92 1268.15 2250.92 1258.37 2250.92 1248.62 2253.03 1240.29 2257.26 1233.39 2261.49 1226.49 2267.55 1221.99 2275.43 1219.91Z" fill-rule="evenodd"/><text fill="#000000" fill-opacity="0" font-family="Arial,Arial_MSFontService,sans-serif" font-size="76.8804" x="2250.92" y="1287.18">(</text><path d="M2304.18 1222.51 2306.41 1222.51C2306.24 1225.1 2306.16 1228.69 2306.16 1233.29L2306.16 1267.9C2306.16 1269.46 2306.25 1270.65 2306.43 1271.44 2306.6 1272.24 2306.91 1272.89 2307.36 1273.39 2307.8 1273.89 2308.45 1274.28 2309.28 1274.56 2310.12 1274.85 2311.17 1275.06 2312.44 1275.21 2313.71 1275.36 2315.39 1275.46 2317.47 1275.52L2317.47 1278.48 2287.52 1278.48 2287.52 1275.52C2290.52 1275.38 2292.66 1275.2 2293.94 1274.97 2295.23 1274.74 2296.21 1274.4 2296.88 1273.94 2297.56 1273.48 2298.05 1272.83 2298.36 1271.99 2298.67 1271.15 2298.83 1269.79 2298.83 1267.9L2298.83 1235.03C2298.83 1233.95 2298.64 1233.16 2298.26 1232.66 2297.88 1232.16 2297.33 1231.91 2296.6 1231.91 2295.73 1231.91 2294.5 1232.36 2292.91 1233.25 2291.32 1234.14 2289.34 1235.37 2286.99 1236.93L2285.21 1233.81Z" fill="#0070C0" fill-rule="evenodd"/><text fill="#000000" fill-opacity="0" font-family="Arial,Arial_MSFontService,sans-serif" font-size="55.9683" x="2285.21" y="1271.48">1</text><path d="M2342.43 1247.67C2345.67 1247.67 2349.54 1249.09 2354.02 1251.93 2358.51 1254.77 2361.91 1256.19 2364.23 1256.19 2366.53 1256.19 2368.45 1255.58 2369.99 1254.36 2371.53 1253.15 2373.08 1251.25 2374.65 1248.69L2377.89 1250.88C2376.73 1253.28 2374.89 1255.71 2372.38 1258.15 2369.87 1260.6 2366.82 1261.82 2363.22 1261.82 2359.76 1261.82 2355.81 1260.4 2351.37 1257.56 2346.92 1254.73 2343.53 1253.31 2341.17 1253.31 2339.2 1253.31 2337.47 1253.93 2335.99 1255.17 2334.5 1256.41 2333.19 1258.23 2332.06 1260.6L2328.9 1258.82C2330.27 1255.63 2332.1 1252.98 2334.37 1250.86 2336.64 1248.73 2339.32 1247.67 2342.43 1247.67Z" fill="#0070C0" fill-rule="evenodd"/><text fill="#000000" fill-opacity="0" font-family="Arial,Arial_MSFontService,sans-serif" font-size="14.144" x="2328.9" y="1260.05">~</text><path d="M2453.68 1249.3C2452.36 1249.3 2451.08 1249.44 2449.85 1249.74 2448.62 1250.04 2447.47 1250.47 2446.39 1251.04 2445.31 1251.61 2444.25 1252.32 2443.23 1253.19 2442.9 1253.48 2442.66 1253.79 2442.5 1254.12 2442.23 1254.63 2442.05 1255.27 2441.97 1256.02 2441.89 1256.78 2441.85 1258.05 2441.85 1259.83 2441.85 1264.99 2442.71 1268.92 2444.44 1271.63 2446.17 1274.33 2448.79 1275.68 2452.3 1275.68 2454.33 1275.68 2456.03 1275.33 2457.41 1274.63 2458.79 1273.92 2459.9 1272.96 2460.75 1271.73 2461.61 1270.5 2462.21 1269.05 2462.58 1267.39 2462.94 1265.73 2463.13 1263.93 2463.13 1261.98 2463.13 1257.98 2462.3 1254.87 2460.65 1252.64 2459.01 1250.41 2456.68 1249.3 2453.68 1249.3ZM2464.1 1222.51 2465.76 1224.74 2465.76 1226.72C2461.6 1226.72 2457.91 1227.61 2454.7 1229.4 2451.48 1231.18 2448.81 1233.8 2446.69 1237.26 2444.57 1240.72 2443.08 1244.82 2442.21 1249.58L2442.62 1249.74C2444.89 1248.12 2447.12 1246.93 2449.33 1246.18 2451.53 1245.42 2453.91 1245.04 2456.48 1245.04 2459.53 1245.04 2462.13 1245.71 2464.28 1247.05 2466.43 1248.38 2468.04 1250.26 2469.12 1252.68 2470.2 1255.1 2470.74 1257.93 2470.74 1261.17 2470.74 1264.68 2470.07 1267.78 2468.72 1270.47 2467.37 1273.16 2465.28 1275.27 2462.46 1276.81 2459.63 1278.35 2456.16 1279.12 2452.02 1279.12 2446.1 1279.12 2441.64 1277.29 2438.63 1273.61 2435.61 1269.94 2434.11 1264.52 2434.11 1257.36 2434.11 1252.55 2434.86 1248.05 2436.38 1243.86 2437.89 1239.68 2440.04 1236.02 2442.82 1232.9 2445.6 1229.78 2448.83 1227.32 2452.51 1225.53 2456.18 1223.73 2460.05 1222.72 2464.1 1222.51ZM2409.02 1222.51 2411.25 1222.51C2411.09 1225.1 2411.01 1228.69 2411.01 1233.29L2411.01 1267.9C2411.01 1269.46 2411.09 1270.65 2411.27 1271.44 2411.45 1272.24 2411.76 1272.89 2412.2 1273.39 2412.65 1273.89 2413.29 1274.28 2414.13 1274.56 2414.96 1274.85 2416.02 1275.06 2417.29 1275.21 2418.56 1275.36 2420.23 1275.46 2422.31 1275.52L2422.31 1278.48 2392.36 1278.48 2392.36 1275.52C2395.36 1275.38 2397.5 1275.2 2398.79 1274.97 2400.07 1274.74 2401.05 1274.4 2401.73 1273.94 2402.4 1273.48 2402.89 1272.83 2403.2 1271.99 2403.52 1271.15 2403.67 1269.79 2403.67 1267.9L2403.67 1235.03C2403.67 1233.95 2403.48 1233.16 2403.1 1232.66 2402.73 1232.16 2402.17 1231.91 2401.44 1231.91 2400.58 1231.91 2399.35 1232.36 2397.75 1233.25 2396.16 1234.14 2394.19 1235.37 2391.84 1236.93L2390.05 1233.81Z" fill="#0070C0" fill-rule="evenodd"/><text fill="#000000" fill-opacity="0" font-family="Arial,Arial_MSFontService,sans-serif" font-size="56.6167" x="2390.05" y="1272.05">16</text><path d="M2477.14 1219.91C2485.03 1221.99 2491.09 1226.49 2495.32 1233.39 2499.55 1240.29 2501.66 1248.62 2501.66 1258.37 2501.66 1268.15 2499.55 1276.48 2495.34 1283.36 2491.12 1290.23 2485.06 1294.71 2477.14 1296.79L2476.17 1293.67C2482.41 1291.59 2487.05 1287.49 2490.09 1281.35 2493.13 1275.22 2494.65 1267.42 2494.65 1257.97 2494.65 1248.84 2493.14 1241.25 2490.11 1235.21 2487.08 1229.17 2482.4 1225.11 2476.05 1223.03Z" fill-rule="evenodd"/><text fill="#000000" fill-opacity="0" font-family="Arial,Arial_MSFontService,sans-serif" font-size="76.8804" x="2476.05" y="1287.18">)</text><text font-family="DengXian,DengXian_MSFontService,sans-serif" font-weight="400" font-size="83" transform="matrix(1 0 0 1 472.883 1487)">树</text><text font-family="DengXian,DengXian_MSFontService,sans-serif" font-weight="400" font-size="83" transform="matrix(1 0 0 1 2940.32 1416)">64</text><path d="M3059.21 1357.29 3060.31 1360.41C3053.99 1362.49 3049.31 1366.55 3046.27 1372.58 3043.23 1378.62 3041.71 1386.21 3041.71 1395.34 3041.71 1404.8 3043.23 1412.59 3046.27 1418.73 3049.31 1424.86 3053.95 1428.97 3060.19 1431.05L3059.21 1434.17C3051.3 1432.09 3045.23 1427.61 3041.02 1420.73 3036.8 1413.86 3034.7 1405.53 3034.7 1395.75 3034.7 1385.99 3036.81 1377.66 3041.04 1370.76 3045.27 1363.86 3051.33 1359.37 3059.21 1357.29Z" fill-rule="evenodd"/><text fill="#000000" fill-opacity="0" font-family="Arial,Arial_MSFontService,sans-serif" font-size="76.8804" x="3034.7" y="1424.56">(</text><path d="M3084.55 1363.32C3082.53 1363.32 3080.81 1363.68 3079.41 1364.38 3078 1365.08 3076.86 1366.05 3075.98 1367.28 3075.1 1368.51 3074.46 1369.95 3074.06 1371.61 3073.65 1373.27 3073.45 1375.08 3073.45 1377.02 3073.45 1381.05 3074.27 1384.17 3075.92 1386.38 3077.57 1388.6 3079.89 1389.71 3082.89 1389.71 3083.92 1389.71 3084.9 1389.62 3085.83 1389.44 3086.76 1389.27 3087.67 1389.01 3088.56 1388.67 3089.46 1388.34 3090.33 1387.9 3091.18 1387.38 3092.03 1386.85 3092.79 1386.29 3093.47 1385.7 3093.71 1385.48 3093.93 1385.2 3094.12 1384.84 3094.31 1384.49 3094.45 1384.03 3094.56 1383.47 3094.67 1382.9 3094.72 1382.01 3094.72 1380.79 3094.72 1377.09 3094.35 1373.92 3093.61 1371.29 3092.87 1368.65 3091.73 1366.67 3090.21 1365.33 3088.68 1363.99 3086.79 1363.32 3084.55 1363.32ZM3085 1359.88C3090.67 1359.88 3094.99 1361.84 3097.97 1365.76 3100.94 1369.67 3102.42 1375.31 3102.42 1382.66 3102.42 1389.38 3101.33 1395.21 3099.14 1400.14 3096.95 1405.07 3093.89 1408.91 3089.94 1411.65 3086 1414.4 3081.39 1416.01 3076.12 1416.5L3074.46 1414.27 3074.46 1412.28C3078.24 1412.28 3081.52 1411.44 3084.29 1409.77 3087.06 1408.09 3089.29 1405.61 3090.98 1402.33 3092.66 1399.05 3093.79 1394.75 3094.36 1389.42L3093.95 1389.26C3091.68 1390.88 3089.45 1392.07 3087.25 1392.83 3085.05 1393.58 3082.66 1393.96 3080.09 1393.96 3077.04 1393.96 3074.44 1393.29 3072.29 1391.96 3070.14 1390.62 3068.53 1388.74 3067.45 1386.32 3066.37 1383.91 3065.83 1381.08 3065.83 1377.83 3065.83 1375.4 3066.23 1373.1 3067.04 1370.92 3067.85 1368.75 3069.06 1366.84 3070.65 1365.21 3072.25 1363.57 3074.24 1362.28 3076.63 1361.32 3079.02 1360.36 3081.81 1359.88 3085 1359.88Z" fill="#0070C0" fill-rule="evenodd"/><text fill="#000000" fill-opacity="0" font-family="Arial,Arial_MSFontService,sans-serif" font-size="56.6167" x="3065.83" y="1409.42">9</text><path d="M3126.21 1385.05C3129.45 1385.05 3133.32 1386.47 3137.8 1389.3 3142.29 1392.14 3145.69 1393.56 3148.01 1393.56 3150.31 1393.56 3152.23 1392.95 3153.77 1391.73 3155.31 1390.52 3156.86 1388.63 3158.43 1386.06L3161.67 1388.25C3160.51 1390.65 3158.67 1393.08 3156.16 1395.52 3153.65 1397.97 3150.6 1399.19 3147 1399.19 3143.54 1399.19 3139.59 1397.77 3135.15 1394.94 3130.7 1392.1 3127.31 1390.68 3124.95 1390.68 3122.98 1390.68 3121.25 1391.3 3119.77 1392.54 3118.28 1393.79 3116.97 1395.6 3115.84 1397.98L3112.68 1396.19C3114.05 1393 3115.88 1390.35 3118.15 1388.23 3120.42 1386.11 3123.1 1385.05 3126.21 1385.05Z" fill="#0070C0" fill-rule="evenodd"/><text fill="#000000" fill-opacity="0" font-family="Arial,Arial_MSFontService,sans-serif" font-size="14.144" x="3112.68" y="1397.42">~</text><path d="M3237.46 1386.67C3236.14 1386.67 3234.86 1386.82 3233.63 1387.11 3232.4 1387.41 3231.25 1387.84 3230.17 1388.41 3229.09 1388.98 3228.03 1389.69 3227.01 1390.56 3226.68 1390.86 3226.44 1391.17 3226.28 1391.49 3226.01 1392 3225.83 1392.64 3225.75 1393.4 3225.67 1394.15 3225.63 1395.42 3225.63 1397.21 3225.63 1402.37 3226.49 1406.3 3228.22 1409 3229.95 1411.7 3232.57 1413.05 3236.08 1413.05 3238.11 1413.05 3239.81 1412.7 3241.19 1412 3242.57 1411.3 3243.68 1410.33 3244.53 1409.1 3245.39 1407.87 3245.99 1406.43 3246.36 1404.76 3246.72 1403.1 3246.91 1401.3 3246.91 1399.35 3246.91 1395.35 3246.08 1392.24 3244.43 1390.01 3242.79 1387.78 3240.46 1386.67 3237.46 1386.67ZM3247.88 1359.88 3249.54 1362.11 3249.54 1364.09C3245.38 1364.09 3241.69 1364.99 3238.48 1366.77 3235.26 1368.55 3232.59 1371.17 3230.47 1374.63 3228.35 1378.09 3226.86 1382.2 3225.99 1386.95L3226.4 1387.11C3228.67 1385.49 3230.9 1384.3 3233.11 1383.55 3235.31 1382.79 3237.69 1382.41 3240.26 1382.41 3243.31 1382.41 3245.91 1383.08 3248.06 1384.42 3250.21 1385.76 3251.82 1387.63 3252.9 1390.05 3253.98 1392.47 3254.52 1395.3 3254.52 1398.54 3254.52 1402.06 3253.85 1405.16 3252.5 1407.84 3251.15 1410.53 3249.06 1412.65 3246.24 1414.19 3243.41 1415.73 3239.93 1416.5 3235.8 1416.5 3229.88 1416.5 3225.42 1414.66 3222.41 1410.98 3219.39 1407.31 3217.89 1401.89 3217.89 1394.73 3217.89 1389.92 3218.64 1385.43 3220.16 1381.24 3221.67 1377.05 3223.82 1373.4 3226.6 1370.27 3229.38 1367.15 3232.61 1364.7 3236.29 1362.9 3239.96 1361.1 3243.83 1360.1 3247.88 1359.88ZM3192.8 1359.88 3195.03 1359.88C3194.87 1362.47 3194.79 1366.07 3194.79 1370.66L3194.79 1405.27C3194.79 1406.84 3194.87 1408.02 3195.05 1408.82 3195.22 1409.61 3195.54 1410.26 3195.98 1410.76 3196.43 1411.26 3197.07 1411.65 3197.91 1411.94 3198.74 1412.22 3199.8 1412.44 3201.07 1412.59 3202.34 1412.73 3204.01 1412.84 3206.09 1412.89L3206.09 1415.85 3176.14 1415.85 3176.14 1412.89C3179.14 1412.75 3181.28 1412.57 3182.57 1412.34 3183.85 1412.11 3184.83 1411.77 3185.51 1411.31 3186.18 1410.85 3186.67 1410.2 3186.98 1409.36 3187.3 1408.53 3187.45 1407.16 3187.45 1405.27L3187.45 1372.4C3187.45 1371.32 3187.26 1370.53 3186.88 1370.03 3186.5 1369.53 3185.95 1369.28 3185.22 1369.28 3184.36 1369.28 3183.13 1369.73 3181.53 1370.62 3179.94 1371.51 3177.97 1372.74 3175.62 1374.31L3173.83 1371.19Z" fill="#0070C0" fill-rule="evenodd"/><text fill="#000000" fill-opacity="0" font-family="Arial,Arial_MSFontService,sans-serif" font-size="56.6167" x="3173.83" y="1409.42">16</text><path d="M3260.92 1357.29C3268.81 1359.37 3274.87 1363.86 3279.1 1370.76 3283.33 1377.66 3285.44 1385.99 3285.44 1395.75 3285.44 1405.53 3283.33 1413.86 3279.12 1420.73 3274.9 1427.61 3268.84 1432.09 3260.92 1434.17L3259.95 1431.05C3266.19 1428.97 3270.83 1424.86 3273.87 1418.73 3276.91 1412.59 3278.43 1404.8 3278.43 1395.34 3278.43 1386.21 3276.92 1378.62 3273.89 1372.58 3270.86 1366.55 3266.18 1362.49 3259.83 1360.41Z" fill-rule="evenodd"/><text fill="#000000" fill-opacity="0" font-family="Arial,Arial_MSFontService,sans-serif" font-size="76.8804" x="3259.83" y="1424.56">)</text><text font-family="DengXian,DengXian_MSFontService,sans-serif" font-weight="400" font-size="83" transform="matrix(1 0 0 1 1352.13 1416)">95</text><path d="M1471.03 1357.29 1472.12 1360.41C1465.8 1362.49 1461.12 1366.55 1458.08 1372.58 1455.04 1378.62 1453.52 1386.21 1453.52 1395.34 1453.52 1404.8 1455.04 1412.59 1458.08 1418.73 1461.12 1424.86 1465.76 1428.97 1472 1431.05L1471.03 1434.17C1463.11 1432.09 1457.05 1427.61 1452.83 1420.73 1448.62 1413.86 1446.51 1405.53 1446.51 1395.75 1446.51 1385.99 1448.62 1377.66 1452.85 1370.76 1457.08 1363.86 1463.14 1359.37 1471.03 1357.29Z" fill-rule="evenodd"/><text fill="#000000" fill-opacity="0" font-family="Arial,Arial_MSFontService,sans-serif" font-size="76.8804" x="1446.51" y="1424.56">(</text><path d="M1499.77 1359.88 1502 1359.88C1501.84 1362.47 1501.76 1366.07 1501.76 1370.66L1501.76 1405.27C1501.76 1406.84 1501.85 1408.02 1502.02 1408.82 1502.2 1409.61 1502.51 1410.26 1502.95 1410.76 1503.4 1411.26 1504.04 1411.65 1504.88 1411.94 1505.72 1412.22 1506.77 1412.44 1508.04 1412.59 1509.31 1412.73 1510.98 1412.84 1513.06 1412.89L1513.06 1415.85 1483.11 1415.85 1483.11 1412.89C1486.11 1412.75 1488.26 1412.57 1489.54 1412.34 1490.82 1412.11 1491.8 1411.77 1492.48 1411.31 1493.15 1410.85 1493.65 1410.2 1493.96 1409.36 1494.27 1408.53 1494.42 1407.16 1494.42 1405.27L1494.42 1372.4C1494.42 1371.32 1494.23 1370.53 1493.85 1370.03 1493.48 1369.53 1492.92 1369.28 1492.19 1369.28 1491.33 1369.28 1490.1 1369.73 1488.5 1370.62 1486.91 1371.51 1484.94 1372.74 1482.59 1374.31L1480.8 1371.19Z" fill="#0070C0" fill-rule="evenodd"/><text fill="#000000" fill-opacity="0" font-family="Arial,Arial_MSFontService,sans-serif" font-size="55.9683" x="1480.8" y="1408.85">1</text><path d="M1538.03 1385.05C1541.27 1385.05 1545.13 1386.47 1549.62 1389.3 1554.1 1392.14 1557.51 1393.56 1559.83 1393.56 1562.13 1393.56 1564.04 1392.95 1565.58 1391.73 1567.12 1390.52 1568.68 1388.63 1570.25 1386.06L1573.49 1388.25C1572.33 1390.65 1570.49 1393.08 1567.98 1395.52 1565.46 1397.97 1562.41 1399.19 1558.82 1399.19 1555.36 1399.19 1551.41 1397.77 1546.96 1394.94 1542.52 1392.1 1539.12 1390.68 1536.77 1390.68 1534.8 1390.68 1533.07 1391.3 1531.58 1392.54 1530.1 1393.79 1528.79 1395.6 1527.65 1397.98L1524.49 1396.19C1525.87 1393 1527.69 1390.35 1529.96 1388.23 1532.23 1386.11 1534.92 1385.05 1538.03 1385.05Z" fill="#0070C0" fill-rule="evenodd"/><text fill="#000000" fill-opacity="0" font-family="Arial,Arial_MSFontService,sans-serif" font-size="14.144" x="1524.49" y="1397.42">~</text><path d="M1601.41 1388.86C1599.41 1388.86 1597.73 1389.17 1596.37 1389.79 1595 1390.41 1593.9 1391.25 1593.04 1392.3 1592.19 1393.36 1591.59 1394.59 1591.22 1396.01 1590.86 1397.43 1590.67 1398.95 1590.67 1400.57 1590.67 1402.33 1590.88 1403.97 1591.28 1405.49 1591.69 1407.02 1592.33 1408.34 1593.21 1409.44 1594.08 1410.55 1595.21 1411.43 1596.59 1412.08 1597.97 1412.73 1599.64 1413.05 1601.62 1413.05 1603.83 1413.05 1605.73 1412.6 1607.31 1411.69 1608.89 1410.79 1610.09 1409.44 1610.92 1407.66 1611.74 1405.88 1612.15 1403.77 1612.15 1401.34 1612.15 1398.75 1611.71 1396.51 1610.82 1394.63 1609.92 1392.75 1608.67 1391.32 1607.05 1390.34 1605.43 1389.35 1603.55 1388.86 1601.41 1388.86ZM1601.62 1363.32C1598.21 1363.32 1595.61 1364.25 1593.81 1366.1 1592.02 1367.95 1591.12 1370.58 1591.12 1373.98 1591.12 1375.58 1591.31 1377.08 1591.69 1378.48 1592.07 1379.89 1592.67 1381.1 1593.51 1382.13 1594.35 1383.16 1595.44 1383.97 1596.77 1384.58 1598.11 1385.19 1599.75 1385.49 1601.7 1385.49 1603.94 1385.49 1605.82 1385.05 1607.35 1384.18 1608.88 1383.3 1610.01 1382.01 1610.76 1380.33 1611.5 1378.64 1611.87 1376.68 1611.87 1374.47 1611.87 1372.04 1611.43 1369.98 1610.55 1368.29 1609.67 1366.6 1608.47 1365.35 1606.93 1364.54 1605.39 1363.73 1603.62 1363.32 1601.62 1363.32ZM1601.7 1359.88C1605.59 1359.88 1608.86 1360.43 1611.5 1361.52 1614.15 1362.62 1616.15 1364.2 1617.48 1366.26 1618.82 1368.33 1619.49 1370.81 1619.49 1373.7 1619.49 1376.67 1618.76 1379.23 1617.3 1381.38 1615.84 1383.53 1613.59 1385.28 1610.53 1386.63L1610.61 1387.15C1613.67 1388.34 1615.98 1390.08 1617.54 1392.36 1619.11 1394.65 1619.89 1397.39 1619.89 1400.61 1619.89 1403.77 1619.14 1406.55 1617.62 1408.96 1616.11 1411.36 1613.92 1413.22 1611.04 1414.53 1608.16 1415.84 1604.8 1416.5 1600.97 1416.5 1597.37 1416.5 1594.22 1415.9 1591.5 1414.69 1588.79 1413.49 1586.68 1411.73 1585.18 1409.42 1583.68 1407.11 1582.93 1404.39 1582.93 1401.26 1582.93 1398.91 1583.34 1396.87 1584.15 1395.14 1584.96 1393.41 1586.02 1391.98 1587.33 1390.86 1588.64 1389.74 1590.3 1388.72 1592.29 1387.8L1592.21 1387.28C1586.4 1384.76 1583.5 1380.45 1583.5 1374.35 1583.5 1371.57 1584.26 1369.08 1585.79 1366.89 1587.32 1364.7 1589.49 1362.99 1592.32 1361.74 1595.14 1360.5 1598.27 1359.88 1601.7 1359.88Z" fill="#0070C0" fill-rule="evenodd"/><text fill="#000000" fill-opacity="0" font-family="Arial,Arial_MSFontService,sans-serif" font-size="56.6167" x="1582.93" y="1409.42">8</text><path d="M1626.9 1357.29C1634.79 1359.37 1640.85 1363.86 1645.08 1370.76 1649.31 1377.66 1651.42 1385.99 1651.42 1395.75 1651.42 1405.53 1649.31 1413.86 1645.1 1420.73 1640.88 1427.61 1634.82 1432.09 1626.9 1434.17L1625.93 1431.05C1632.17 1428.97 1636.81 1424.86 1639.85 1418.73 1642.89 1412.59 1644.41 1404.8 1644.41 1395.34 1644.41 1386.21 1642.9 1378.62 1639.87 1372.58 1636.84 1366.55 1632.16 1362.49 1625.81 1360.41Z" fill-rule="evenodd"/><text fill="#000000" fill-opacity="0" font-family="Arial,Arial_MSFontService,sans-serif" font-size="76.8804" x="1625.81" y="1424.56">)</text><text font-family="DengXian,DengXian_MSFontService,sans-serif" font-weight="400" font-size="83" transform="matrix(1 0 0 1 3320.18 1553)">38</text><path d="M3439.07 1494.66 3440.17 1497.78C3433.85 1499.86 3429.16 1503.92 3426.12 1509.96 3423.09 1516 3421.57 1523.58 3421.57 1532.71 3421.57 1542.17 3423.09 1549.96 3426.12 1556.1 3429.16 1562.23 3433.8 1566.34 3440.05 1568.42L3439.07 1571.54C3431.16 1569.46 3425.09 1564.98 3420.88 1558.1 3416.66 1551.23 3414.55 1542.9 3414.55 1533.12 3414.55 1523.37 3416.67 1515.04 3420.9 1508.13 3425.12 1501.23 3431.18 1496.74 3439.07 1494.66Z" fill-rule="evenodd"/><text fill="#000000" fill-opacity="0" font-family="Arial,Arial_MSFontService,sans-serif" font-size="76.8804" x="3414.55" y="1561.93">(</text><path d="M3510.78 1497.25C3513.83 1497.25 3516.5 1497.72 3518.8 1498.67 3521.1 1499.62 3522.85 1500.97 3524.07 1502.74 3525.28 1504.51 3525.89 1506.63 3525.89 1509.09 3525.89 1511.38 3525.43 1513.4 3524.51 1515.15 3523.6 1516.89 3522.31 1518.41 3520.64 1519.7 3518.98 1521 3516.83 1522.27 3514.18 1523.51L3514.18 1523.88C3515.83 1524.18 3517.42 1524.68 3518.94 1525.4 3520.47 1526.11 3521.83 1527.04 3523.01 1528.17 3524.2 1529.31 3525.16 1530.67 3525.87 1532.25 3526.59 1533.83 3526.95 1535.63 3526.95 1537.66 3526.95 1540.79 3526.26 1543.57 3524.9 1546.01 3523.53 1548.44 3521.45 1550.36 3518.64 1551.76 3515.83 1553.17 3512.41 1553.87 3508.38 1553.87 3506.06 1553.87 3503.55 1553.61 3500.87 1553.08 3498.18 1552.55 3495.71 1551.86 3493.47 1550.99L3493.47 1542.4 3498.33 1542.4C3499.28 1545.21 3500.53 1547.25 3502.08 1548.52 3503.64 1549.79 3505.75 1550.42 3508.42 1550.42 3511.94 1550.42 3514.59 1549.46 3516.39 1547.55 3518.19 1545.63 3519.08 1542.79 3519.08 1539.04 3519.08 1535.09 3517.89 1532.08 3515.52 1530 3513.14 1527.92 3509.65 1526.88 3505.06 1526.88L3501.41 1526.88 3501.41 1523.31C3505.06 1523.1 3508.13 1522.39 3510.63 1521.2 3513.13 1520.02 3514.99 1518.49 3516.21 1516.62 3517.42 1514.76 3518.03 1512.67 3518.03 1510.34 3518.03 1507.34 3517.23 1505.03 3515.64 1503.41 3514.04 1501.79 3511.72 1500.98 3508.67 1500.98 3506.13 1500.98 3504.06 1501.67 3502.47 1503.05 3500.87 1504.43 3499.7 1506.53 3498.94 1509.37L3494.08 1509.37 3494.08 1501.67C3497.21 1500.18 3500.14 1499.08 3502.87 1498.35 3505.6 1497.62 3508.24 1497.25 3510.78 1497.25ZM3467.81 1497.25 3470.04 1497.25C3469.88 1499.85 3469.8 1503.44 3469.8 1508.03L3469.8 1542.64C3469.8 1544.21 3469.89 1545.39 3470.06 1546.19 3470.24 1546.99 3470.55 1547.63 3471 1548.13 3471.44 1548.63 3472.08 1549.03 3472.92 1549.31 3473.76 1549.59 3474.81 1549.81 3476.08 1549.96 3477.35 1550.11 3479.03 1550.21 3481.11 1550.26L3481.11 1553.22 3451.16 1553.22 3451.16 1550.26C3454.16 1550.13 3456.3 1549.94 3457.58 1549.71 3458.87 1549.49 3459.84 1549.14 3460.52 1548.68 3461.2 1548.22 3461.69 1547.57 3462 1546.74 3462.31 1545.9 3462.47 1544.53 3462.47 1542.64L3462.47 1509.78C3462.47 1508.69 3462.28 1507.9 3461.9 1507.4 3461.52 1506.9 3460.97 1506.65 3460.24 1506.65 3459.37 1506.65 3458.14 1507.1 3456.55 1507.99 3454.95 1508.88 3452.98 1510.11 3450.63 1511.68L3448.85 1508.56Z" fill="#0070C0" fill-rule="evenodd"/><text fill="#000000" fill-opacity="0" font-family="Arial,Arial_MSFontService,sans-serif" font-size="56.6167" x="3448.85" y="1546.79">13</text><path d="M3551.9 1522.42C3555.15 1522.42 3559.01 1523.84 3563.49 1526.68 3567.98 1529.51 3571.38 1530.93 3573.71 1530.93 3576 1530.93 3577.92 1530.32 3579.46 1529.11 3581 1527.89 3582.56 1526 3584.12 1523.43L3587.36 1525.62C3586.2 1528.03 3584.37 1530.45 3581.85 1532.9 3579.34 1535.34 3576.29 1536.56 3572.69 1536.56 3569.24 1536.56 3565.28 1535.15 3560.84 1532.31 3556.39 1529.47 3553 1528.05 3550.65 1528.05 3548.67 1528.05 3546.95 1528.67 3545.46 1529.92 3543.97 1531.16 3542.66 1532.97 3541.53 1535.35L3538.37 1533.56C3539.74 1530.38 3541.57 1527.72 3543.84 1525.6 3546.11 1523.48 3548.8 1522.42 3551.9 1522.42Z" fill="#0070C0" fill-rule="evenodd"/><text fill="#000000" fill-opacity="0" font-family="Arial,Arial_MSFontService,sans-serif" font-size="14.144" x="3538.37" y="1534.8">~</text><path d="M3663.15 1524.04C3661.83 1524.04 3660.55 1524.19 3659.32 1524.49 3658.1 1524.78 3656.94 1525.22 3655.86 1525.78 3654.78 1526.35 3653.73 1527.07 3652.7 1527.93 3652.37 1528.23 3652.13 1528.54 3651.97 1528.86 3651.7 1529.38 3651.52 1530.01 3651.44 1530.77 3651.36 1531.52 3651.32 1532.79 3651.32 1534.58 3651.32 1539.74 3652.19 1543.67 3653.91 1546.37 3655.64 1549.07 3658.26 1550.42 3661.78 1550.42 3663.8 1550.42 3665.51 1550.07 3666.88 1549.37 3668.26 1548.67 3669.38 1547.7 3670.23 1546.47 3671.08 1545.24 3671.69 1543.8 3672.05 1542.14 3672.42 1540.47 3672.6 1538.67 3672.6 1536.73 3672.6 1532.73 3671.77 1529.61 3670.13 1527.38 3668.48 1525.16 3666.15 1524.04 3663.15 1524.04ZM3673.57 1497.25 3675.23 1499.48 3675.23 1501.47C3671.07 1501.47 3667.38 1502.36 3664.17 1504.14 3660.95 1505.93 3658.28 1508.55 3656.16 1512 3654.04 1515.46 3652.55 1519.57 3651.69 1524.32L3652.09 1524.49C3654.36 1522.87 3656.6 1521.68 3658.8 1520.92 3661 1520.16 3663.38 1519.79 3665.95 1519.79 3669 1519.79 3671.6 1520.45 3673.75 1521.79 3675.9 1523.13 3677.51 1525.01 3678.6 1527.42 3679.68 1529.84 3680.22 1532.67 3680.22 1535.92 3680.22 1539.43 3679.54 1542.53 3678.19 1545.22 3676.84 1547.9 3674.75 1550.02 3671.93 1551.56 3669.11 1553.1 3665.63 1553.87 3661.49 1553.87 3655.58 1553.87 3651.11 1552.03 3648.1 1548.36 3645.09 1544.68 3643.58 1539.27 3643.58 1532.11 3643.58 1527.3 3644.34 1522.8 3645.85 1518.61 3647.36 1514.42 3649.51 1510.77 3652.29 1507.65 3655.08 1504.53 3658.3 1502.07 3661.98 1500.27 3665.65 1498.47 3669.52 1497.47 3673.57 1497.25ZM3618.49 1497.25 3620.72 1497.25C3620.56 1499.85 3620.48 1503.44 3620.48 1508.03L3620.48 1542.64C3620.48 1544.21 3620.57 1545.39 3620.74 1546.19 3620.92 1546.99 3621.23 1547.63 3621.67 1548.13 3622.12 1548.63 3622.76 1549.03 3623.6 1549.31 3624.44 1549.59 3625.49 1549.81 3626.76 1549.96 3628.03 1550.11 3629.7 1550.21 3631.79 1550.26L3631.79 1553.22 3601.84 1553.22 3601.84 1550.26C3604.83 1550.13 3606.98 1549.94 3608.26 1549.71 3609.54 1549.49 3610.52 1549.14 3611.2 1548.68 3611.87 1548.22 3612.37 1547.57 3612.68 1546.74 3612.99 1545.9 3613.14 1544.53 3613.14 1542.64L3613.14 1509.78C3613.14 1508.69 3612.95 1507.9 3612.58 1507.4 3612.2 1506.9 3611.64 1506.65 3610.91 1506.65 3610.05 1506.65 3608.82 1507.1 3607.23 1507.99 3605.63 1508.88 3603.66 1510.11 3601.31 1511.68L3599.53 1508.56Z" fill="#0070C0" fill-rule="evenodd"/><text fill="#000000" fill-opacity="0" font-family="Arial,Arial_MSFontService,sans-serif" font-size="56.6167" x="3599.53" y="1546.79">16</text><path d="M3686.61 1494.66C3694.5 1496.74 3700.56 1501.23 3704.79 1508.13 3709.02 1515.04 3711.13 1523.37 3711.13 1533.12 3711.13 1542.9 3709.02 1551.23 3704.81 1558.1 3700.59 1564.98 3694.53 1569.46 3686.61 1571.54L3685.64 1568.42C3691.88 1566.34 3696.52 1562.23 3699.56 1556.1 3702.6 1549.96 3704.12 1542.17 3704.12 1532.71 3704.12 1523.58 3702.61 1516 3699.58 1509.96 3696.55 1503.92 3691.87 1499.86 3685.52 1497.78Z" fill-rule="evenodd"/><text fill="#000000" fill-opacity="0" font-family="Arial,Arial_MSFontService,sans-serif" font-size="76.8804" x="3685.52" y="1561.93">)</text><text font-family="DengXian,DengXian_MSFontService,sans-serif" font-weight="400" font-size="83" transform="matrix(1 0 0 1 2537.54 1553)">26</text><path d="M2656.44 1494.66 2657.53 1497.78C2651.21 1499.86 2646.53 1503.92 2643.49 1509.96 2640.45 1516 2638.93 1523.58 2638.93 1532.71 2638.93 1542.17 2640.45 1549.96 2643.49 1556.1 2646.53 1562.23 2651.17 1566.34 2657.41 1568.42L2656.44 1571.54C2648.52 1569.46 2642.46 1564.98 2638.24 1558.1 2634.03 1551.23 2631.92 1542.9 2631.92 1533.12 2631.92 1523.37 2634.03 1515.04 2638.26 1508.13 2642.49 1501.23 2648.55 1496.74 2656.44 1494.66Z" fill-rule="evenodd"/><text fill="#000000" fill-opacity="0" font-family="Arial,Arial_MSFontService,sans-serif" font-size="76.8804" x="2631.92" y="1561.93">(</text><path d="M2681.78 1500.7C2679.75 1500.7 2678.03 1501.05 2676.63 1501.75 2675.22 1502.45 2674.08 1503.42 2673.21 1504.65 2672.33 1505.88 2671.69 1507.32 2671.28 1508.98 2670.87 1510.65 2670.67 1512.45 2670.67 1514.4 2670.67 1518.42 2671.5 1521.54 2673.14 1523.76 2674.79 1525.97 2677.12 1527.08 2680.11 1527.08 2681.14 1527.08 2682.12 1526.99 2683.05 1526.82 2683.99 1526.64 2684.9 1526.38 2685.79 1526.05 2686.68 1525.71 2687.55 1525.28 2688.4 1524.75 2689.25 1524.22 2690.02 1523.66 2690.69 1523.07 2690.94 1522.85 2691.15 1522.57 2691.34 1522.22 2691.53 1521.87 2691.68 1521.41 2691.79 1520.84 2691.9 1520.27 2691.95 1519.38 2691.95 1518.16 2691.95 1514.46 2691.58 1511.29 2690.83 1508.66 2690.09 1506.03 2688.96 1504.04 2687.43 1502.7 2685.9 1501.37 2684.02 1500.7 2681.78 1500.7ZM2682.22 1497.25C2687.9 1497.25 2692.22 1499.21 2695.19 1503.13 2698.16 1507.05 2699.65 1512.68 2699.65 1520.03 2699.65 1526.76 2698.55 1532.59 2696.37 1537.52 2694.18 1542.45 2691.11 1546.28 2687.17 1549.03 2683.22 1551.77 2678.62 1553.38 2673.35 1553.87L2671.69 1551.64 2671.69 1549.65C2675.47 1549.65 2678.74 1548.82 2681.51 1547.14 2684.28 1545.47 2686.51 1542.99 2688.2 1539.7 2689.89 1536.42 2691.02 1532.12 2691.58 1526.8L2691.18 1526.63C2688.91 1528.26 2686.67 1529.44 2684.47 1530.2 2682.27 1530.96 2679.89 1531.34 2677.32 1531.34 2674.27 1531.34 2671.67 1530.67 2669.52 1529.33 2667.37 1527.99 2665.75 1526.11 2664.67 1523.7 2663.59 1521.28 2663.05 1518.45 2663.05 1515.21 2663.05 1512.77 2663.46 1510.47 2664.27 1508.3 2665.08 1506.12 2666.28 1504.22 2667.88 1502.58 2669.47 1500.95 2671.46 1499.65 2673.85 1498.69 2676.24 1497.73 2679.03 1497.25 2682.22 1497.25Z" fill="#0070C0" fill-rule="evenodd"/><text fill="#000000" fill-opacity="0" font-family="Arial,Arial_MSFontService,sans-serif" font-size="56.6167" x="2663.05" y="1546.79">9</text><path d="M2723.44 1522.42C2726.68 1522.42 2730.54 1523.84 2735.03 1526.68 2739.51 1529.51 2742.92 1530.93 2745.24 1530.93 2747.54 1530.93 2749.45 1530.32 2750.99 1529.11 2752.53 1527.89 2754.09 1526 2755.66 1523.43L2758.9 1525.62C2757.74 1528.03 2755.9 1530.45 2753.39 1532.9 2750.87 1535.34 2747.82 1536.56 2744.23 1536.56 2740.77 1536.56 2736.82 1535.15 2732.37 1532.31 2727.93 1529.47 2724.53 1528.05 2722.18 1528.05 2720.21 1528.05 2718.48 1528.67 2716.99 1529.92 2715.51 1531.16 2714.2 1532.97 2713.06 1535.35L2709.9 1533.56C2711.28 1530.38 2713.1 1527.72 2715.37 1525.6 2717.64 1523.48 2720.33 1522.42 2723.44 1522.42Z" fill="#0070C0" fill-rule="evenodd"/><text fill="#000000" fill-opacity="0" font-family="Arial,Arial_MSFontService,sans-serif" font-size="14.144" x="2709.9" y="1534.8">~</text><path d="M2833.15 1497.25C2838.17 1497.25 2841.97 1498.35 2844.54 1500.56 2847.1 1502.76 2848.39 1505.95 2848.39 1510.14 2848.39 1511.57 2848.24 1512.89 2847.96 1514.09 2847.68 1515.29 2847.23 1516.48 2846.62 1517.66 2846.01 1518.83 2845.2 1520.1 2844.17 1521.45 2843.14 1522.8 2842.01 1524.17 2840.77 1525.56 2839.52 1526.95 2837.38 1529.27 2834.32 1532.51 2829.19 1537.94 2825.42 1542.68 2823.02 1546.74L2838.29 1546.74C2839.62 1546.74 2840.69 1546.66 2841.5 1546.49 2842.31 1546.33 2842.95 1546.06 2843.44 1545.68 2843.93 1545.3 2844.31 1544.81 2844.6 1544.2 2844.88 1543.6 2845.24 1542.66 2845.67 1541.39L2849.11 1541.39 2848.43 1553.22 2815.07 1553.22 2815.07 1551.28C2816.23 1548.44 2817.8 1545.53 2819.77 1542.56 2821.75 1539.59 2824.54 1536.09 2828.16 1532.07 2831.3 1528.61 2833.55 1525.99 2834.93 1524.2 2836.44 1522.26 2837.57 1520.58 2838.31 1519.16 2839.06 1517.74 2839.59 1516.4 2839.92 1515.15 2840.24 1513.89 2840.4 1512.63 2840.4 1511.36 2840.4 1509.33 2840.08 1507.54 2839.43 1505.99 2838.78 1504.43 2837.79 1503.21 2836.45 1502.32 2835.11 1501.43 2833.43 1500.98 2831.4 1500.98 2826.35 1500.98 2822.95 1503.79 2821.19 1509.41L2816.29 1509.41 2816.29 1501.63C2819.56 1500.09 2822.62 1498.97 2825.47 1498.29 2828.32 1497.6 2830.88 1497.25 2833.15 1497.25ZM2790.02 1497.25 2792.25 1497.25C2792.09 1499.85 2792.01 1503.44 2792.01 1508.03L2792.01 1542.64C2792.01 1544.21 2792.1 1545.39 2792.27 1546.19 2792.45 1546.99 2792.76 1547.63 2793.21 1548.13 2793.65 1548.63 2794.29 1549.03 2795.13 1549.31 2795.97 1549.59 2797.02 1549.81 2798.29 1549.96 2799.56 1550.11 2801.24 1550.21 2803.32 1550.26L2803.32 1553.22 2773.37 1553.22 2773.37 1550.26C2776.37 1550.13 2778.51 1549.94 2779.79 1549.71 2781.07 1549.49 2782.05 1549.14 2782.73 1548.68 2783.41 1548.22 2783.9 1547.57 2784.21 1546.74 2784.52 1545.9 2784.68 1544.53 2784.68 1542.64L2784.68 1509.78C2784.68 1508.69 2784.49 1507.9 2784.11 1507.4 2783.73 1506.9 2783.18 1506.65 2782.45 1506.65 2781.58 1506.65 2780.35 1507.1 2778.76 1507.99 2777.16 1508.88 2775.19 1510.11 2772.84 1511.68L2771.06 1508.56Z" fill="#0070C0" fill-rule="evenodd"/><text fill="#000000" fill-opacity="0" font-family="Arial,Arial_MSFontService,sans-serif" font-size="55.9683" x="2771.06" y="1546.22">12</text><path d="M2858.15 1494.66C2866.03 1496.74 2872.09 1501.23 2876.32 1508.13 2880.55 1515.04 2882.66 1523.37 2882.66 1533.12 2882.66 1542.9 2880.56 1551.23 2876.34 1558.1 2872.13 1564.98 2866.06 1569.46 2858.15 1571.54L2857.17 1568.42C2863.41 1566.34 2868.05 1562.23 2871.09 1556.1 2874.13 1549.96 2875.65 1542.17 2875.65 1532.71 2875.65 1523.58 2874.14 1516 2871.11 1509.96 2868.09 1503.92 2863.4 1499.86 2857.05 1497.78Z" fill-rule="evenodd"/><text fill="#000000" fill-opacity="0" font-family="Arial,Arial_MSFontService,sans-serif" font-size="76.8804" x="2857.05" y="1561.93">)</text><text font-family="DengXian,DengXian_MSFontService,sans-serif" font-weight="400" font-size="83" transform="matrix(1 0 0 1 1754.91 1553)">36</text><path d="M1873.81 1494.66 1874.9 1497.78C1868.58 1499.86 1863.9 1503.92 1860.86 1509.96 1857.82 1516 1856.3 1523.58 1856.3 1532.71 1856.3 1542.17 1857.82 1549.96 1860.86 1556.1 1863.9 1562.23 1868.54 1566.34 1874.78 1568.42L1873.81 1571.54C1865.89 1569.46 1859.82 1564.98 1855.61 1558.1 1851.39 1551.23 1849.29 1542.9 1849.29 1533.12 1849.29 1523.37 1851.4 1515.04 1855.63 1508.13 1859.86 1501.23 1865.92 1496.74 1873.81 1494.66Z" fill-rule="evenodd"/><text fill="#000000" fill-opacity="0" font-family="Arial,Arial_MSFontService,sans-serif" font-size="76.8804" x="1849.29" y="1561.93">(</text><path d="M1911.02 1495.23 1914.18 1495.23 1913.57 1504.63 1890.27 1504.63 1890.27 1522.42C1891.67 1521.83 1893.2 1521.38 1894.85 1521.08 1896.49 1520.79 1898.14 1520.64 1899.79 1520.64 1903.01 1520.64 1905.86 1521.29 1908.34 1522.6 1910.83 1523.91 1912.75 1525.78 1914.1 1528.19 1915.45 1530.61 1916.12 1533.42 1916.12 1536.6 1916.12 1540.22 1915.37 1543.33 1913.85 1545.93 1912.34 1548.52 1910.15 1550.49 1907.29 1551.84 1904.42 1553.19 1901.03 1553.87 1897.12 1553.87 1892.44 1553.87 1887.55 1552.91 1882.45 1550.99L1882.45 1542.4 1887.35 1542.4C1888.16 1545.16 1889.38 1547.18 1891.02 1548.48 1892.65 1549.78 1894.77 1550.42 1897.36 1550.42 1900.95 1550.42 1903.67 1549.34 1905.51 1547.18 1907.34 1545.02 1908.26 1541.79 1908.26 1537.5 1908.26 1534.63 1907.77 1532.26 1906.8 1530.38 1905.83 1528.51 1904.52 1527.15 1902.87 1526.31 1901.22 1525.47 1899.3 1525.05 1897.12 1525.05 1895.28 1525.05 1893.7 1525.17 1892.37 1525.4 1891.05 1525.63 1889.63 1525.99 1888.12 1526.47L1884.88 1524.57 1884.88 1497.9 1907.21 1497.9C1908.13 1497.9 1908.79 1497.83 1909.19 1497.68 1909.6 1497.53 1909.92 1497.3 1910.17 1496.99 1910.41 1496.68 1910.69 1496.09 1911.02 1495.23Z" fill="#0070C0" fill-rule="evenodd"/><text fill="#000000" fill-opacity="0" font-family="Arial,Arial_MSFontService,sans-serif" font-size="58.6431" x="1882.45" y="1546.54">5</text><path d="M1940.8 1522.42C1944.04 1522.42 1947.91 1523.84 1952.39 1526.68 1956.88 1529.51 1960.28 1530.93 1962.61 1530.93 1964.9 1530.93 1966.82 1530.32 1968.36 1529.11 1969.9 1527.89 1971.45 1526 1973.02 1523.43L1976.26 1525.62C1975.1 1528.03 1973.26 1530.45 1970.75 1532.9 1968.24 1535.34 1965.19 1536.56 1961.59 1536.56 1958.13 1536.56 1954.18 1535.15 1949.74 1532.31 1945.29 1529.47 1941.9 1528.05 1939.55 1528.05 1937.57 1528.05 1935.84 1528.67 1934.36 1529.92 1932.87 1531.16 1931.56 1532.97 1930.43 1535.35L1927.27 1533.56C1928.64 1530.38 1930.47 1527.72 1932.74 1525.6 1935.01 1523.48 1937.69 1522.42 1940.8 1522.42Z" fill="#0070C0" fill-rule="evenodd"/><text fill="#000000" fill-opacity="0" font-family="Arial,Arial_MSFontService,sans-serif" font-size="14.144" x="1927.27" y="1534.8">~</text><path d="M2004.19 1526.23C2002.19 1526.23 2000.51 1526.54 1999.14 1527.16 1997.78 1527.78 1996.67 1528.62 1995.82 1529.67 1994.97 1530.73 1994.36 1531.96 1994 1533.38 1993.63 1534.8 1993.45 1536.32 1993.45 1537.94 1993.45 1539.7 1993.65 1541.34 1994.06 1542.87 1994.46 1544.39 1995.1 1545.71 1995.98 1546.82 1996.86 1547.92 1997.99 1548.8 1999.37 1549.45 2000.74 1550.1 2002.42 1550.42 2004.39 1550.42 2006.61 1550.42 2008.51 1549.97 2010.09 1549.07 2011.67 1548.16 2012.87 1546.82 2013.69 1545.03 2014.52 1543.25 2014.93 1541.14 2014.93 1538.71 2014.93 1536.12 2014.48 1533.88 2013.59 1532 2012.7 1530.13 2011.44 1528.69 2009.82 1527.71 2008.2 1526.72 2006.32 1526.23 2004.19 1526.23ZM2004.39 1500.7C2000.99 1500.7 1998.39 1501.62 1996.59 1503.47 1994.79 1505.32 1993.9 1507.95 1993.9 1511.36 1993.9 1512.95 1994.08 1514.45 1994.46 1515.85 1994.84 1517.26 1995.45 1518.47 1996.29 1519.5 1997.12 1520.53 1998.21 1521.35 1999.55 1521.95 2000.89 1522.56 2002.53 1522.87 2004.47 1522.87 2006.72 1522.87 2008.6 1522.43 2010.13 1521.55 2011.65 1520.67 2012.79 1519.39 2013.53 1517.7 2014.27 1516.01 2014.65 1514.06 2014.65 1511.84 2014.65 1509.41 2014.21 1507.35 2013.33 1505.66 2012.45 1503.97 2011.24 1502.72 2009.7 1501.91 2008.16 1501.1 2006.39 1500.7 2004.39 1500.7ZM2004.47 1497.25C2008.36 1497.25 2011.63 1497.8 2014.28 1498.89 2016.93 1499.99 2018.92 1501.57 2020.26 1503.64 2021.6 1505.7 2022.26 1508.18 2022.26 1511.07 2022.26 1514.04 2021.53 1516.6 2020.08 1518.75 2018.62 1520.9 2016.36 1522.65 2013.31 1524L2013.39 1524.53C2016.44 1525.72 2018.75 1527.45 2020.32 1529.73 2021.89 1532.02 2022.67 1534.77 2022.67 1537.98 2022.67 1541.14 2021.91 1543.93 2020.4 1546.33 2018.89 1548.74 2016.69 1550.59 2013.81 1551.9 2010.94 1553.21 2007.58 1553.87 2003.74 1553.87 2000.15 1553.87 1997 1553.27 1994.28 1552.07 1991.56 1550.86 1989.46 1549.11 1987.96 1546.8 1986.46 1544.49 1985.71 1541.76 1985.71 1538.63 1985.71 1536.28 1986.11 1534.24 1986.92 1532.51 1987.73 1530.78 1988.8 1529.36 1990.11 1528.24 1991.42 1527.11 1993.07 1526.09 1995.07 1525.18L1994.99 1524.65C1989.18 1522.14 1986.28 1517.83 1986.28 1511.72 1986.28 1508.94 1987.04 1506.45 1988.57 1504.26 1990.09 1502.07 1992.27 1500.36 1995.09 1499.12 1997.91 1497.87 2001.04 1497.25 2004.47 1497.25Z" fill="#0070C0" fill-rule="evenodd"/><text fill="#000000" fill-opacity="0" font-family="Arial,Arial_MSFontService,sans-serif" font-size="56.6167" x="1985.71" y="1546.79">8</text><path d="M2029.68 1494.66C2037.57 1496.74 2043.63 1501.23 2047.85 1508.13 2052.08 1515.04 2054.2 1523.37 2054.2 1533.12 2054.2 1542.9 2052.09 1551.23 2047.87 1558.1 2043.66 1564.98 2037.59 1569.46 2029.68 1571.54L2028.7 1568.42C2034.95 1566.34 2039.59 1562.23 2042.63 1556.1 2045.67 1549.96 2047.19 1542.17 2047.19 1532.71 2047.19 1523.58 2045.67 1516 2042.65 1509.96 2039.62 1503.92 2034.93 1499.86 2028.58 1497.78Z" fill-rule="evenodd"/><text fill="#000000" fill-opacity="0" font-family="Arial,Arial_MSFontService,sans-serif" font-size="76.8804" x="2028.58" y="1561.93">)</text><text font-family="DengXian,DengXian_MSFontService,sans-serif" font-weight="400" font-size="83" transform="matrix(1 0 0 1 949.357 1553)">59</text><path d="M1068.25 1494.66 1069.35 1497.78C1063.03 1499.86 1058.35 1503.92 1055.31 1509.96 1052.27 1516 1050.75 1523.58 1050.75 1532.71 1050.75 1542.17 1052.27 1549.96 1055.31 1556.1 1058.35 1562.23 1062.99 1566.34 1069.23 1568.42L1068.25 1571.54C1060.34 1569.46 1054.27 1564.98 1050.06 1558.1 1045.84 1551.23 1043.74 1542.9 1043.74 1533.12 1043.74 1523.37 1045.85 1515.04 1050.08 1508.13 1054.31 1501.23 1060.37 1496.74 1068.25 1494.66Z" fill-rule="evenodd"/><text fill="#000000" fill-opacity="0" font-family="Arial,Arial_MSFontService,sans-serif" font-size="76.8804" x="1043.74" y="1561.93">(</text><path d="M1097 1497.25 1099.23 1497.25C1099.06 1499.85 1098.98 1503.44 1098.98 1508.03L1098.98 1542.64C1098.98 1544.21 1099.07 1545.39 1099.25 1546.19 1099.42 1546.99 1099.73 1547.63 1100.18 1548.13 1100.62 1548.63 1101.27 1549.03 1102.1 1549.31 1102.94 1549.59 1103.99 1549.81 1105.26 1549.96 1106.53 1550.11 1108.21 1550.21 1110.29 1550.26L1110.29 1553.22 1080.34 1553.22 1080.34 1550.26C1083.34 1550.13 1085.48 1549.94 1086.76 1549.71 1088.05 1549.49 1089.03 1549.14 1089.7 1548.68 1090.38 1548.22 1090.87 1547.57 1091.18 1546.74 1091.49 1545.9 1091.65 1544.53 1091.65 1542.64L1091.65 1509.78C1091.65 1508.69 1091.46 1507.9 1091.08 1507.4 1090.7 1506.9 1090.15 1506.65 1089.42 1506.65 1088.55 1506.65 1087.32 1507.1 1085.73 1507.99 1084.14 1508.88 1082.16 1510.11 1079.81 1511.68L1078.03 1508.56Z" fill="#0070C0" fill-rule="evenodd"/><text fill="#000000" fill-opacity="0" font-family="Arial,Arial_MSFontService,sans-serif" font-size="55.9683" x="1078.03" y="1546.22">1</text><path d="M1135.25 1522.42C1138.49 1522.42 1142.36 1523.84 1146.84 1526.68 1151.33 1529.51 1154.73 1530.93 1157.05 1530.93 1159.35 1530.93 1161.27 1530.32 1162.81 1529.11 1164.35 1527.89 1165.9 1526 1167.47 1523.43L1170.71 1525.62C1169.55 1528.03 1167.71 1530.45 1165.2 1532.9 1162.69 1535.34 1159.63 1536.56 1156.04 1536.56 1152.58 1536.56 1148.63 1535.15 1144.19 1532.31 1139.74 1529.47 1136.35 1528.05 1133.99 1528.05 1132.02 1528.05 1130.29 1528.67 1128.81 1529.92 1127.32 1531.16 1126.01 1532.97 1124.88 1535.35L1121.71 1533.56C1123.09 1530.38 1124.92 1527.72 1127.19 1525.6 1129.46 1523.48 1132.14 1522.42 1135.25 1522.42Z" fill="#0070C0" fill-rule="evenodd"/><text fill="#000000" fill-opacity="0" font-family="Arial,Arial_MSFontService,sans-serif" font-size="14.144" x="1121.71" y="1534.8">~</text><path d="M1201.31 1506.78 1185.47 1531.94 1185.47 1532.51 1201.31 1532.51 1201.31 1522.42C1201.31 1519.88 1201.35 1517.04 1201.43 1513.89 1201.52 1510.74 1201.61 1508.37 1201.72 1506.78ZM1202.49 1497.62 1208.28 1497.62 1208.28 1532.51 1209.13 1532.51C1210.7 1532.51 1211.82 1532.4 1212.5 1532.17 1213.17 1531.94 1213.73 1531.53 1214.18 1530.95 1214.63 1530.37 1215.04 1529.42 1215.42 1528.09L1218.5 1528.09 1218.01 1536.44 1208.28 1536.44 1208.28 1543.09C1208.28 1544.9 1208.34 1546.22 1208.47 1547.06 1208.59 1547.9 1208.79 1548.56 1209.07 1549.05 1209.36 1549.53 1209.78 1549.94 1210.33 1550.26 1210.88 1550.59 1211.78 1550.91 1213.03 1551.23L1213.03 1553.22 1196.57 1553.22 1196.57 1551.23C1198.25 1550.8 1199.37 1550.32 1199.94 1549.8 1200.5 1549.27 1200.87 1548.52 1201.05 1547.55 1201.23 1546.57 1201.31 1545.09 1201.31 1543.09L1201.31 1536.44 1178.78 1536.44 1178.78 1533.4Z" fill="#0070C0" fill-rule="evenodd"/><text fill="#000000" fill-opacity="0" font-family="Arial,Arial_MSFontService,sans-serif" font-size="55.6035" x="1178.78" y="1546.27">4</text><path d="M1224.13 1494.66C1232.02 1496.74 1238.07 1501.23 1242.3 1508.13 1246.53 1515.04 1248.65 1523.37 1248.65 1533.12 1248.65 1542.9 1246.54 1551.23 1242.32 1558.1 1238.11 1564.98 1232.04 1569.46 1224.13 1571.54L1223.15 1568.42C1229.4 1566.34 1234.04 1562.23 1237.08 1556.1 1240.11 1549.96 1241.63 1542.17 1241.63 1532.71 1241.63 1523.58 1240.12 1516 1237.1 1509.96 1234.07 1503.92 1229.38 1499.86 1223.03 1497.78Z" fill-rule="evenodd"/><text fill="#000000" fill-opacity="0" font-family="Arial,Arial_MSFontService,sans-serif" font-size="76.8804" x="1223.03" y="1561.93">)</text><text font-family="DengXian,DengXian_MSFontService,sans-serif" font-weight="400" font-size="83" transform="matrix(1 0 0 1 3677.11 1691)">29</text><text font-family="DengXian,DengXian_MSFontService,sans-serif" font-weight="400" font-size="83" transform="matrix(1 0 0 1 3296.11 1691)">9</text><text font-family="DengXian,DengXian_MSFontService,sans-serif" font-weight="400" font-size="83" transform="matrix(1 0 0 1 2871.56 1691)">17</text><text font-family="DengXian,DengXian_MSFontService,sans-serif" font-weight="400" font-size="83" transform="matrix(1 0 0 1 2490.56 1691)">9</text><text font-family="DengXian,DengXian_MSFontService,sans-serif" font-weight="400" font-size="83" transform="matrix(1 0 0 1 2066.01 1691)">17</text><text font-family="DengXian,DengXian_MSFontService,sans-serif" font-weight="400" font-size="83" transform="matrix(1 0 0 1 1663.23 1691)">19</text><text font-family="DengXian,DengXian_MSFontService,sans-serif" font-weight="400" font-size="83" transform="matrix(1 0 0 1 1260.46 1691)">37</text><text font-family="DengXian,DengXian_MSFontService,sans-serif" font-weight="400" font-size="83" transform="matrix(1 0 0 1 857.683 1691)">22</text><text font-family="DengXian,DengXian_MSFontService,sans-serif" font-weight="400" font-size="83" transform="matrix(1 0 0 1 3777.8 1828)">12</text><text font-family="DengXian,DengXian_MSFontService,sans-serif" font-weight="400" font-size="83" transform="matrix(1 0 0 1 3576.42 1828)">17</text><text font-family="DengXian,DengXian_MSFontService,sans-serif" font-weight="400" font-size="83" transform="matrix(1 0 0 1 3396.8 1828)">5</text><text font-family="DengXian,DengXian_MSFontService,sans-serif" font-weight="400" font-size="83" transform="matrix(1 0 0 1 3195.41 1828)">4</text><text font-family="DengXian,DengXian_MSFontService,sans-serif" font-weight="400" font-size="83" transform="matrix(1 0 0 1 2972.25 1828)">11</text><text font-family="DengXian,DengXian_MSFontService,sans-serif" font-weight="400" font-size="83" transform="matrix(1 0 0 1 2792.64 1828)">6</text><text font-family="DengXian,DengXian_MSFontService,sans-serif" font-weight="400" font-size="83" transform="matrix(1 0 0 1 2591.25 1828)">7</text><text font-family="DengXian,DengXian_MSFontService,sans-serif" font-weight="400" font-size="83" transform="matrix(1 0 0 1 2389.86 1828)">2</text><text font-family="DengXian,DengXian_MSFontService,sans-serif" font-weight="400" font-size="83" transform="matrix(1 0 0 1 2188.47 1828)">9</text><text font-family="DengXian,DengXian_MSFontService,sans-serif" font-weight="400" font-size="83" transform="matrix(1 0 0 1 1987.09 1828)">8</text><text font-family="DengXian,DengXian_MSFontService,sans-serif" font-weight="400" font-size="83" transform="matrix(1 0 0 1 1785.7 1828)">1</text><text font-family="DengXian,DengXian_MSFontService,sans-serif" font-weight="400" font-size="83" transform="matrix(1 0 0 1 1562.54 1828)">18</text><text font-family="DengXian,DengXian_MSFontService,sans-serif" font-weight="400" font-size="83" transform="matrix(1 0 0 1 1361.15 1828)">14</text><text font-family="DengXian,DengXian_MSFontService,sans-serif" font-weight="400" font-size="83" transform="matrix(1 0 0 1 1159.76 1828)">23</text><text font-family="DengXian,DengXian_MSFontService,sans-serif" font-weight="400" font-size="83" transform="matrix(1 0 0 1 980.148 1828)">7</text><text font-family="DengXian,DengXian_MSFontService,sans-serif" font-weight="400" font-size="83" transform="matrix(1 0 0 1 756.989 1828)">15</text><text font-family="DengXian,DengXian_MSFontService,sans-serif" font-weight="400" font-size="83" transform="matrix(1 0 0 1 431.633 1828)">数值</text><text fill="#0070C0" font-family="DengXian,DengXian_MSFontService,sans-serif" font-weight="400" font-size="83" transform="matrix(1 0 0 1 3777.8 1962)">16</text><text fill="#0070C0" font-family="DengXian,DengXian_MSFontService,sans-serif" font-weight="400" font-size="83" transform="matrix(1 0 0 1 3576.42 1962)">15</text><text fill="#0070C0" font-family="DengXian,DengXian_MSFontService,sans-serif" font-weight="400" font-size="83" transform="matrix(1 0 0 1 3375.03 1962)">14</text><text fill="#0070C0" font-family="DengXian,DengXian_MSFontService,sans-serif" font-weight="400" font-size="83" transform="matrix(1 0 0 1 3173.64 1962)">13</text><text fill="#0070C0" font-family="DengXian,DengXian_MSFontService,sans-serif" font-weight="400" font-size="83" transform="matrix(1 0 0 1 2972.25 1962)">12</text><text fill="#0070C0" font-family="DengXian,DengXian_MSFontService,sans-serif" font-weight="400" font-size="83" transform="matrix(1 0 0 1 2770.87 1962)">11</text><text fill="#0070C0" font-family="DengXian,DengXian_MSFontService,sans-serif" font-weight="400" font-size="83" transform="matrix(1 0 0 1 2569.48 1962)">10</text><text fill="#0070C0" font-family="DengXian,DengXian_MSFontService,sans-serif" font-weight="400" font-size="83" transform="matrix(1 0 0 1 2389.86 1962)">9</text><text fill="#0070C0" font-family="DengXian,DengXian_MSFontService,sans-serif" font-weight="400" font-size="83" transform="matrix(1 0 0 1 2188.47 1962)">8</text><text fill="#0070C0" font-family="DengXian,DengXian_MSFontService,sans-serif" font-weight="400" font-size="83" transform="matrix(1 0 0 1 1987.09 1962)">7</text><text fill="#0070C0" font-family="DengXian,DengXian_MSFontService,sans-serif" font-weight="400" font-size="83" transform="matrix(1 0 0 1 1785.7 1962)">6</text><text fill="#0070C0" font-family="DengXian,DengXian_MSFontService,sans-serif" font-weight="400" font-size="83" transform="matrix(1 0 0 1 1584.31 1962)">5</text><text fill="#0070C0" font-family="DengXian,DengXian_MSFontService,sans-serif" font-weight="400" font-size="83" transform="matrix(1 0 0 1 1382.92 1962)">4</text><text fill="#0070C0" font-family="DengXian,DengXian_MSFontService,sans-serif" font-weight="400" font-size="83" transform="matrix(1 0 0 1 1181.54 1962)">3</text><text fill="#0070C0" font-family="DengXian,DengXian_MSFontService,sans-serif" font-weight="400" font-size="83" transform="matrix(1 0 0 1 980.148 1962)">2</text><text fill="#0070C0" font-family="DengXian,DengXian_MSFontService,sans-serif" font-weight="400" font-size="83" transform="matrix(1 0 0 1 778.76 1962)">1</text><text font-family="DengXian,DengXian_MSFontService,sans-serif" font-weight="400" font-size="83" transform="matrix(1 0 0 1 431.633 1962)">序号</text></g></svg>