<svg width="3834" height="767" xmlns="http://www.w3.org/2000/svg" xmlns:xlink="http://www.w3.org/1999/xlink" xml:space="preserve" overflow="hidden"><g transform="translate(-264 -1424)"><path d="M303 1671 4017.86 1671" stroke="#4472C4" stroke-width="13.75" stroke-miterlimit="8" fill="none" fill-rule="evenodd"/><path d="M319.979 1711.75C318.114 1711.75 316.554 1712.3 315.298 1713.41 314.041 1714.51 313.028 1716.11 312.258 1718.19 311.488 1720.27 310.941 1722.8 310.617 1725.79 310.293 1728.77 310.13 1732.14 310.13 1735.9 310.13 1744.71 310.948 1751.17 312.582 1755.29 314.217 1759.41 316.75 1761.47 320.181 1761.47 323.45 1761.47 325.875 1759.53 327.456 1755.66 329.036 1751.78 329.827 1745.77 329.827 1737.64 329.827 1731.43 329.422 1726.4 328.611 1722.55 327.8 1718.7 326.672 1715.93 325.227 1714.26 323.781 1712.58 322.032 1711.75 319.979 1711.75ZM320.181 1708.3C326.098 1708.3 330.502 1710.58 333.393 1715.15 336.284 1719.72 337.73 1726.62 337.73 1735.86 337.73 1745.42 336.183 1752.66 333.089 1757.56 329.996 1762.47 325.477 1764.92 319.533 1764.92 313.697 1764.92 309.354 1762.62 306.503 1758.03 303.653 1753.43 302.228 1746.46 302.228 1737.12 302.228 1732.14 302.667 1727.85 303.545 1724.23 304.423 1720.61 305.652 1717.62 307.233 1715.25 308.813 1712.89 310.711 1711.14 312.927 1710 315.142 1708.87 317.561 1708.3 320.181 1708.3Z" fill-rule="evenodd"/><text fill="#000000" fill-opacity="0" font-family="Arial,Arial_MSFontService,sans-serif" font-size="56.6167" x="302.228" y="1757.84">0</text><path d="M4063.12 1742.12C4064.82 1742.12 4066.17 1742.68 4067.15 1743.8 4068.14 1744.92 4068.63 1746.39 4068.63 1748.2 4068.63 1749.63 4068.31 1751.23 4067.66 1752.98L4068.15 1753.14C4070.8 1749.42 4073.31 1746.65 4075.71 1744.86 4078.1 1743.06 4080.56 1742.16 4083.1 1742.16 4085.61 1742.16 4087.55 1742.88 4088.9 1744.33 4090.25 1745.78 4090.92 1747.78 4090.92 1750.35 4090.92 1752.05 4090.53 1754.47 4089.75 1757.6L4087.11 1768.22C4086.38 1771.17 4086.02 1773.25 4086.02 1774.46 4086.02 1775.54 4086.2 1776.33 4086.55 1776.81 4086.9 1777.3 4087.45 1777.54 4088.21 1777.54 4089.02 1777.54 4089.88 1777.21 4090.8 1776.55 4091.72 1775.89 4093.02 1774.62 4094.69 1772.76L4097 1775.03C4094.68 1777.52 4092.65 1779.33 4090.92 1780.48 4089.19 1781.63 4087.22 1782.2 4085.01 1782.2 4083.25 1782.2 4081.85 1781.57 4080.79 1780.32 4079.74 1779.06 4079.21 1777.46 4079.21 1775.52 4079.21 1773.76 4079.66 1771.18 4080.55 1767.78L4082.33 1760.76C4082.98 1758.22 4083.41 1756.35 4083.61 1755.13 4083.81 1753.91 4083.91 1752.93 4083.91 1752.17 4083.91 1750.31 4083.6 1748.96 4082.98 1748.14 4082.36 1747.32 4081.35 1746.9 4079.94 1746.9 4078.81 1746.9 4077.58 1747.36 4076.27 1748.26 4074.96 1749.17 4073.57 1750.53 4072.1 1752.35 4070.63 1754.18 4069.44 1755.95 4068.55 1757.66 4067.66 1759.38 4066.93 1761.49 4066.36 1764.01L4062.51 1781.55 4055.5 1781.55 4061.42 1755.86C4062.01 1753.27 4062.31 1751.27 4062.31 1749.86 4062.31 1748.78 4062.14 1748 4061.78 1747.51 4061.43 1747.03 4060.88 1746.78 4060.12 1746.78 4059.29 1746.78 4058.4 1747.13 4057.47 1747.82 4056.54 1748.5 4055.26 1749.75 4053.64 1751.56L4051.33 1749.29C4053.81 1746.7 4055.88 1744.86 4057.53 1743.76 4059.18 1742.67 4061.04 1742.12 4063.12 1742.12Z" fill-rule="evenodd"/><text fill="#000000" fill-opacity="0" font-family="Arial,Arial_MSFontService,sans-serif" font-size="40.0815" x="4051.33" y="1777.19">­ЮЉЏ</text><path d="M1254 1671 1840.93 1671" stroke="#00B050" stroke-width="13.75" stroke-miterlimit="8" fill="none" fill-rule="evenodd"/><path d="M1476.65 1719.25C1477.49 1719.25 1478.22 1719.34 1478.86 1719.53 1479.49 1719.72 1480.05 1720.01 1480.54 1720.41 1481.03 1720.8 1481.46 1721.3 1481.84 1721.93 1482.21 1722.55 1482.58 1723.39 1482.93 1724.46 1483.28 1725.53 1483.61 1726.85 1483.92 1728.43 1484.23 1730.01 1484.51 1731.65 1484.75 1733.35L1485.16 1733.35C1487.75 1729.71 1489.72 1727.04 1491.06 1725.35 1492.39 1723.66 1493.52 1722.4 1494.44 1721.58 1495.36 1720.76 1496.24 1720.18 1497.1 1719.84 1497.95 1719.5 1499.07 1719.33 1500.48 1719.33 1501.75 1719.33 1502.79 1719.49 1503.6 1719.82L1501.98 1727.15 1499.14 1727.15C1498.98 1726.02 1498.51 1725.45 1497.72 1725.45 1497.48 1725.45 1497.22 1725.49 1496.95 1725.57 1496.68 1725.65 1496.35 1725.83 1495.96 1726.1 1495.57 1726.37 1494.99 1726.9 1494.24 1727.68 1493.48 1728.46 1492.63 1729.42 1491.68 1730.56 1490.74 1731.69 1489.77 1732.88 1488.77 1734.12L1486.01 1737.57C1486.5 1740.16 1486.96 1742.4 1487.39 1744.3 1487.82 1746.19 1488.21 1747.76 1488.54 1749.02 1488.88 1750.27 1489.18 1751.27 1489.44 1752 1489.69 1752.73 1489.97 1753.27 1490.27 1753.64 1490.56 1754 1490.87 1754.26 1491.18 1754.41 1491.49 1754.56 1491.85 1754.63 1492.25 1754.63 1492.98 1754.63 1493.69 1754.35 1494.38 1753.78 1495.07 1753.21 1496.06 1751.93 1497.36 1749.93L1499.99 1751.67C1498.1 1754.48 1496.39 1756.46 1494.87 1757.61 1493.34 1758.76 1491.52 1759.33 1489.42 1759.33 1488.25 1759.33 1487.27 1759.12 1486.46 1758.7 1485.65 1758.28 1484.94 1757.62 1484.35 1756.7 1483.75 1755.78 1483.23 1754.35 1482.77 1752.4 1481.93 1748.94 1481.42 1746.3 1481.23 1744.46L1480.82 1744.46C1477.96 1748.48 1475.83 1751.37 1474.44 1753.13 1473.05 1754.89 1471.9 1756.18 1471 1757.02 1470.09 1757.86 1469.21 1758.45 1468.36 1758.78 1467.51 1759.12 1466.38 1759.29 1464.98 1759.29 1463.71 1759.29 1462.67 1759.13 1461.86 1758.8L1463.48 1751.47 1466.31 1751.47C1466.48 1752.6 1466.95 1753.17 1467.73 1753.17 1468.11 1753.17 1468.51 1753.07 1468.93 1752.87 1469.35 1752.67 1469.95 1752.18 1470.73 1751.41 1471.52 1750.64 1472.6 1749.43 1473.97 1747.78 1475.35 1746.13 1477.35 1743.66 1479.97 1740.36 1479.57 1738.23 1479.15 1736.18 1478.72 1734.2 1478.28 1732.23 1477.84 1730.4 1477.38 1728.69 1476.92 1726.99 1476.54 1725.88 1476.24 1725.35 1475.95 1724.82 1475.63 1724.46 1475.29 1724.26 1474.95 1724.05 1474.53 1723.95 1474.01 1723.95 1473.45 1723.95 1472.93 1724.08 1472.47 1724.34 1472.02 1724.59 1471.52 1725.04 1470.98 1725.67 1470.43 1726.31 1469.72 1727.3 1468.83 1728.65L1466.19 1726.91C1467.9 1724.34 1469.53 1722.42 1471.1 1721.16 1472.66 1719.89 1474.51 1719.25 1476.65 1719.25Z" fill-rule="evenodd"/><text fill="#000000" fill-opacity="0" font-family="Arial,Arial_MSFontService,sans-serif" font-size="40.0815" x="1461.86" y="1754.32">­ЮЉЦ</text><path d="M2139.52 1719.29C2140.63 1719.29 2141.57 1719.44 2142.36 1719.74 2142.9 1719.95 2143.44 1720.31 2143.98 1720.81 2144.52 1721.31 2145 1722.01 2145.42 1722.9 2145.83 1723.79 2146.2 1724.79 2146.51 1725.9 2146.82 1727 2147.16 1728.6 2147.54 1730.68 2148.19 1734.16 2148.82 1737.83 2149.43 1741.68 2150.04 1745.53 2150.56 1749.11 2150.99 1752.4 2153.61 1748.62 2155.83 1744.92 2157.65 1741.3 2159.48 1737.68 2160.79 1734.53 2161.59 1731.85 2162.38 1729.18 2162.78 1727 2162.78 1725.33 2162.78 1724.06 2162.51 1723.19 2161.97 1722.74 2161.43 1722.28 2160.51 1722.01 2159.21 1721.93L2159.62 1719.94 2170.28 1719.94 2171.37 1721.97C2169.32 1727.59 2166.54 1733.6 2163.02 1740 2159.57 1746.27 2155.61 1752.51 2151.15 1758.72 2146.88 1764.64 2143.33 1768.92 2140.49 1771.57 2138.52 1773.38 2136.61 1774.68 2134.78 1775.46 2133.32 1776.06 2131.76 1776.35 2130.12 1776.35 2129.55 1776.35 2128.89 1776.31 2128.15 1776.21 2127.41 1776.12 2126.83 1775.99 2126.43 1775.83L2128.17 1767.96 2131.37 1767.96C2131.37 1769.69 2131.97 1770.56 2133.16 1770.56 2134.72 1770.56 2136.55 1769.58 2138.63 1767.62 2140.71 1765.66 2143.15 1762.71 2145.96 1758.76 2145.18 1754.04 2144.11 1748.34 2142.76 1741.66 2141.33 1734.53 2140.38 1730.11 2139.92 1728.41 2139.36 1726.36 2138.76 1725.05 2138.14 1724.48 2137.76 1724.13 2137.29 1723.95 2136.72 1723.95 2135.86 1723.95 2135.05 1724.3 2134.29 1725.01 2133.53 1725.71 2132.6 1726.92 2131.49 1728.65L2128.86 1726.91C2130.72 1724.13 2132.47 1722.16 2134.09 1721.01 2135.71 1719.86 2137.52 1719.29 2139.52 1719.29Z" fill-rule="evenodd"/><text fill="#000000" fill-opacity="0" font-family="Arial,Arial_MSFontService,sans-serif" font-size="57.0625" x="2126.43" y="1769.22">­ЮЉд</text><path d="M1075.15 1847.15C1072.37 1847.15 1069.87 1848.28 1067.66 1850.52 1065.44 1852.76 1063.71 1855.77 1062.47 1859.54 1061.22 1863.3 1060.6 1867.07 1060.6 1870.82 1060.6 1873.63 1060.99 1875.73 1061.76 1877.12 1062.53 1878.52 1063.82 1879.21 1065.63 1879.21 1067.41 1879.21 1069.16 1878.44 1070.88 1876.9 1072.59 1875.36 1074.36 1873.17 1076.19 1870.32 1078.01 1867.46 1079.3 1864.18 1080.06 1860.45L1080.42 1858.7C1080.66 1857.6 1080.83 1856.64 1080.91 1855.83 1080.99 1855.02 1081.03 1854.14 1081.03 1853.19 1081.03 1851.11 1080.58 1849.59 1079.69 1848.61 1078.8 1847.64 1077.29 1847.15 1075.15 1847.15ZM1146.55 1843.99C1147.66 1843.99 1148.6 1844.14 1149.39 1844.44 1149.93 1844.65 1150.47 1845.01 1151.01 1845.51 1151.55 1846.01 1152.03 1846.71 1152.45 1847.6 1152.86 1848.49 1153.23 1849.49 1153.54 1850.6 1153.85 1851.71 1154.19 1853.3 1154.57 1855.38 1155.22 1858.87 1155.85 1862.53 1156.46 1866.38 1157.07 1870.23 1157.59 1873.81 1158.02 1877.1 1160.64 1873.32 1162.86 1869.62 1164.68 1866 1166.51 1862.38 1167.82 1859.23 1168.62 1856.56 1169.41 1853.88 1169.81 1851.71 1169.81 1850.03 1169.81 1848.76 1169.54 1847.9 1169 1847.44 1168.46 1846.98 1167.54 1846.71 1166.24 1846.63L1166.65 1844.64 1177.31 1844.64 1178.4 1846.67C1176.35 1852.29 1173.57 1858.3 1170.05 1864.7 1166.6 1870.97 1162.64 1877.21 1158.18 1883.43 1153.91 1889.34 1150.36 1893.63 1147.52 1896.27 1145.55 1898.08 1143.64 1899.38 1141.81 1900.16 1140.35 1900.76 1138.79 1901.06 1137.15 1901.06 1136.58 1901.06 1135.92 1901.01 1135.18 1900.91 1134.44 1900.82 1133.86 1900.69 1133.46 1900.53L1135.2 1892.67 1138.4 1892.67C1138.4 1894.4 1139 1895.26 1140.19 1895.26 1141.75 1895.26 1143.58 1894.28 1145.66 1892.32 1147.74 1890.36 1150.18 1887.41 1152.99 1883.47 1152.21 1878.74 1151.14 1873.04 1149.79 1866.36 1148.36 1859.23 1147.41 1854.81 1146.95 1853.11 1146.39 1851.06 1145.79 1849.75 1145.17 1849.18 1144.79 1848.83 1144.32 1848.65 1143.75 1848.65 1142.89 1848.65 1142.08 1849 1141.32 1849.71 1140.56 1850.41 1139.63 1851.63 1138.52 1853.35L1135.89 1851.61C1137.75 1848.83 1139.5 1846.86 1141.12 1845.72 1142.74 1844.57 1144.55 1843.99 1146.55 1843.99ZM1117.79 1843.99C1120.3 1843.99 1122.59 1844.14 1124.66 1844.44 1126.73 1844.74 1128.79 1845.25 1130.84 1845.98L1129.01 1854.49 1125.73 1854.49C1125.44 1852.08 1124.64 1850.26 1123.36 1849.02 1122.08 1847.78 1120.06 1847.15 1117.3 1847.15 1115.17 1847.15 1113.44 1847.7 1112.11 1848.8 1110.79 1849.89 1110.13 1851.33 1110.13 1853.11 1110.13 1854.08 1110.3 1854.94 1110.64 1855.68 1110.97 1856.43 1111.66 1857.25 1112.68 1858.14 1113.71 1859.03 1115.3 1860.12 1117.46 1861.42 1119.17 1862.45 1120.53 1863.39 1121.56 1864.24 1122.58 1865.09 1123.4 1865.93 1123.99 1866.77 1124.58 1867.61 1125.02 1868.49 1125.29 1869.42 1125.56 1870.36 1125.69 1871.48 1125.69 1872.81 1125.69 1875.21 1125.05 1877.27 1123.77 1878.99 1122.48 1880.7 1120.74 1881.98 1118.54 1882.82 1116.34 1883.66 1113.83 1884.07 1111.02 1884.07 1108.78 1884.07 1106.58 1883.91 1104.41 1883.57 1102.25 1883.23 1099.85 1882.66 1097.2 1881.85L1099.15 1873.01 1102.31 1873.01C1102.42 1875.6 1103.15 1877.56 1104.5 1878.89 1105.85 1880.21 1107.99 1880.87 1110.94 1880.87 1113.51 1880.87 1115.51 1880.3 1116.96 1879.15 1118.4 1878 1119.13 1876.37 1119.13 1874.27 1119.13 1873.05 1118.92 1872 1118.52 1871.13 1118.11 1870.25 1117.45 1869.4 1116.53 1868.59 1115.61 1867.78 1114.15 1866.77 1112.16 1865.55 1110.05 1864.28 1108.41 1863.14 1107.23 1862.11 1106.06 1861.08 1105.17 1859.97 1104.58 1858.77 1103.98 1857.56 1103.69 1856.18 1103.69 1854.61 1103.69 1852.48 1104.26 1850.61 1105.41 1849 1106.56 1847.39 1108.2 1846.15 1110.33 1845.29 1112.47 1844.43 1114.95 1843.99 1117.79 1843.99ZM1074.34 1843.95C1076.1 1843.95 1077.74 1844.15 1079.27 1844.54 1080.79 1844.93 1082.37 1845.63 1083.99 1846.63L1087.72 1843.95 1090.31 1844.6 1084.35 1870.3C1083.76 1872.86 1083.46 1874.86 1083.46 1876.29 1083.46 1877.37 1083.64 1878.16 1083.99 1878.64 1084.34 1879.13 1084.89 1879.37 1085.65 1879.37 1086.46 1879.37 1087.32 1879.04 1088.24 1878.38 1089.16 1877.72 1090.46 1876.46 1092.13 1874.59L1094.44 1876.86C1092.01 1879.45 1089.94 1881.3 1088.22 1882.39 1086.51 1883.49 1084.65 1884.03 1082.65 1884.03 1080.98 1884.03 1079.64 1883.48 1078.64 1882.37 1077.64 1881.26 1077.14 1879.79 1077.14 1877.95 1077.14 1876.47 1077.45 1874.89 1078.07 1873.21L1077.54 1873.05C1074.95 1876.83 1072.49 1879.6 1070.17 1881.36 1067.84 1883.12 1065.39 1883.99 1062.79 1883.99 1059.82 1883.99 1057.52 1882.87 1055.88 1880.63 1054.25 1878.39 1053.43 1875.24 1053.43 1871.19 1053.43 1866.54 1054.34 1862.07 1056.17 1857.79 1057.99 1853.51 1060.5 1850.13 1063.68 1847.66 1066.87 1845.19 1070.42 1843.95 1074.34 1843.95ZM1044.05 1825.43 1046.44 1825.43 1036.47 1870.3C1035.87 1872.97 1035.58 1874.97 1035.58 1876.29 1035.58 1877.37 1035.75 1878.16 1036.1 1878.64 1036.45 1879.13 1037.01 1879.37 1037.76 1879.37 1038.57 1879.37 1039.44 1879.04 1040.36 1878.38 1041.28 1877.72 1042.57 1876.46 1044.25 1874.59L1046.56 1876.86C1043.94 1879.62 1041.8 1881.5 1040.14 1882.51 1038.47 1883.53 1036.62 1884.03 1034.56 1884.03 1032.81 1884.03 1031.4 1883.39 1030.35 1882.11 1029.29 1880.83 1028.77 1879.18 1028.77 1877.18 1028.77 1875.37 1029.15 1872.75 1029.9 1869.32L1037.16 1836.86C1037.48 1835.43 1037.71 1834.29 1037.85 1833.44 1037.98 1832.58 1038.05 1831.79 1038.05 1831.06 1038.05 1830.25 1037.9 1829.64 1037.6 1829.22 1037.31 1828.8 1036.88 1828.5 1036.33 1828.31 1035.77 1828.12 1034.78 1827.98 1033.35 1827.9L1033.83 1825.8Z" stroke="#000000" stroke-linejoin="round" stroke-miterlimit="10" fill="#00B050" fill-rule="evenodd"/><text fill="#000000" fill-opacity="0" font-family="Arial,Arial_MSFontService,sans-serif" font-size="75.624" x="1028.77" y="1891.6">­ЮЉЎ­ЮЉј­ЮЉа­ЮЉд</text><path d="M1531.42 1821.06 1549.5 1821.06 1549.5 1898.35 1531.42 1898.35 1531.42 1895.23 1542.77 1895.23 1542.77 1824.18 1531.42 1824.18ZM1190.24 1821.06 1208.32 1821.06 1208.32 1824.18 1196.97 1824.18 1196.97 1895.23 1208.32 1895.23 1208.32 1898.35 1190.24 1898.35Z" stroke="#000000" stroke-linejoin="round" stroke-miterlimit="10" fill="#00B050" fill-rule="evenodd"/><path d="M1283.53 1847.23C1280.72 1847.23 1278.27 1848.41 1276.17 1850.76 1274.08 1853.11 1272.43 1856.48 1271.23 1860.85 1270.03 1865.23 1269.43 1869 1269.43 1872.16 1269.43 1875.13 1270.04 1877.33 1271.27 1878.74 1272.5 1880.16 1274.36 1880.87 1276.84 1880.87 1279.49 1880.87 1281.84 1879.68 1283.9 1877.31 1285.95 1874.93 1287.57 1871.6 1288.76 1867.32 1289.95 1863.03 1290.54 1859.27 1290.54 1856.03 1290.54 1853.11 1289.97 1850.92 1288.84 1849.44 1287.7 1847.97 1285.94 1847.23 1283.53 1847.23ZM1304.55 1844.64 1315.17 1844.64 1317.6 1876.62C1321.41 1870.4 1324.16 1865.67 1325.85 1862.43 1327.54 1859.19 1328.79 1856.39 1329.6 1854.02 1330.41 1851.66 1331.03 1849.19 1331.46 1846.63L1331.91 1844.64 1337.74 1844.64 1340.7 1876.66C1344.92 1870.66 1348.13 1865.43 1350.33 1860.95 1352.53 1856.48 1353.63 1852.84 1353.63 1850.03 1353.63 1848.76 1353.36 1847.9 1352.82 1847.44 1352.28 1846.98 1351.36 1846.71 1350.06 1846.63L1350.47 1844.64 1360.93 1844.64 1362.02 1846.67C1361.07 1849.07 1360.32 1850.92 1359.75 1852.22 1359.18 1853.52 1358.44 1855.08 1357.52 1856.9 1356.6 1858.72 1355.63 1860.54 1354.6 1862.35 1353.58 1864.16 1352.37 1866.15 1350.98 1868.33 1349.58 1870.5 1348.02 1872.87 1346.29 1875.42 1344.57 1877.97 1342.53 1880.85 1340.18 1884.03L1335.35 1884.03 1333.69 1867.09C1333.56 1865.77 1333.41 1864.04 1333.27 1861.91 1333.12 1859.77 1333.02 1858.12 1332.96 1856.96L1332.52 1856.92C1331.06 1860.51 1329.07 1864.51 1326.56 1868.92 1324.05 1873.32 1320.94 1878.36 1317.24 1884.03L1311.81 1884.03 1308.73 1853.52C1308.56 1851.95 1308.36 1850.68 1308.12 1849.71 1307.87 1848.73 1307.47 1848.01 1306.9 1847.52 1306.33 1847.03 1305.4 1846.74 1304.11 1846.63ZM1284.34 1843.99C1288.66 1843.99 1291.96 1845.17 1294.23 1847.54 1296.5 1849.9 1297.63 1853.29 1297.63 1857.69 1297.63 1860.83 1297.09 1864.18 1295.99 1867.74 1294.9 1871.31 1293.4 1874.31 1291.49 1876.74 1289.59 1879.17 1287.31 1881 1284.67 1882.23 1282.02 1883.46 1278.98 1884.07 1275.55 1884.07 1271.36 1884.07 1268.11 1882.9 1265.8 1880.55 1263.49 1878.2 1262.33 1874.82 1262.33 1870.42 1262.33 1868.26 1262.66 1865.76 1263.31 1862.92 1264.14 1859.08 1265.55 1855.73 1267.52 1852.87 1269.49 1850 1271.93 1847.81 1274.82 1846.28 1277.71 1844.76 1280.88 1843.99 1284.34 1843.99ZM1222.64 1843.95C1224.34 1843.95 1225.69 1844.51 1226.68 1845.63 1227.66 1846.76 1228.15 1848.22 1228.15 1850.03 1228.15 1851.46 1227.83 1853.06 1227.18 1854.81L1227.67 1854.98C1230.32 1851.25 1232.84 1848.48 1235.23 1846.69 1237.62 1844.89 1240.08 1843.99 1242.62 1843.99 1245.14 1843.99 1247.07 1844.72 1248.42 1846.16 1249.77 1847.61 1250.44 1849.61 1250.44 1852.18 1250.44 1853.88 1250.05 1856.3 1249.27 1859.43L1246.64 1870.05C1245.91 1873 1245.54 1875.08 1245.54 1876.29 1245.54 1877.37 1245.72 1878.16 1246.07 1878.64 1246.42 1879.13 1246.97 1879.37 1247.73 1879.37 1248.54 1879.37 1249.4 1879.04 1250.32 1878.38 1251.24 1877.72 1252.54 1876.46 1254.21 1874.59L1256.52 1876.86C1254.2 1879.35 1252.17 1881.16 1250.44 1882.31 1248.72 1883.46 1246.74 1884.03 1244.53 1884.03 1242.77 1884.03 1241.37 1883.41 1240.31 1882.15 1239.26 1880.89 1238.73 1879.29 1238.73 1877.35 1238.73 1875.59 1239.18 1873.01 1240.07 1869.61L1241.85 1862.59C1242.5 1860.06 1242.93 1858.18 1243.13 1856.96 1243.33 1855.75 1243.43 1854.76 1243.43 1854 1243.43 1852.14 1243.12 1850.79 1242.5 1849.97 1241.88 1849.15 1240.87 1848.73 1239.46 1848.73 1238.33 1848.73 1237.1 1849.19 1235.79 1850.09 1234.48 1851 1233.09 1852.36 1231.62 1854.19 1230.15 1856.01 1228.97 1857.78 1228.07 1859.49 1227.18 1861.21 1226.45 1863.32 1225.89 1865.84L1222.03 1883.39 1215.02 1883.39 1220.94 1857.69C1221.54 1855.1 1221.83 1853.1 1221.83 1851.69 1221.83 1850.61 1221.66 1849.83 1221.31 1849.34 1220.95 1848.86 1220.4 1848.61 1219.64 1848.61 1218.81 1848.61 1217.92 1848.96 1216.99 1849.65 1216.06 1850.34 1214.78 1851.58 1213.16 1853.4L1210.85 1851.13C1213.34 1848.53 1215.4 1846.69 1217.05 1845.59 1218.7 1844.5 1220.56 1843.95 1222.64 1843.95Z" stroke="#000000" stroke-linejoin="round" stroke-miterlimit="10" fill="#00B050" fill-rule="evenodd"/><text fill="#000000" fill-opacity="0" font-family="Arial,Arial_MSFontService,sans-serif" font-size="40.1221" x="1210.85" y="1879.06">­ЮЉЏ­ЮЉю­ЮЉц</text><path d="M1455.48 1833.54 1455.48 1839.62 1427.92 1859.51 1455.48 1879.41 1455.48 1885.49 1422.49 1862.35 1422.49 1856.68ZM1426.62 1833.54 1426.62 1839.62 1399.06 1859.51 1426.62 1879.41 1426.62 1885.49 1393.63 1862.35 1393.63 1856.68Z" stroke="#000000" stroke-linejoin="round" stroke-miterlimit="10" fill="#00B050" fill-rule="evenodd"/><text fill="#000000" fill-opacity="0" font-family="Arial,Arial_MSFontService,sans-serif" font-size="51.9561" x="1393.63" y="1879">РЅф</text><path d="M1510.03 1827.42 1512.26 1827.42C1512.09 1830.01 1512.01 1833.6 1512.01 1838.2L1512.01 1872.81C1512.01 1874.37 1512.1 1875.56 1512.28 1876.35 1512.45 1877.15 1512.76 1877.8 1513.21 1878.3 1513.65 1878.8 1514.3 1879.19 1515.13 1879.47 1515.97 1879.76 1517.02 1879.97 1518.29 1880.12 1519.56 1880.27 1521.24 1880.37 1523.32 1880.43L1523.32 1883.39 1493.37 1883.39 1493.37 1880.43C1496.37 1880.29 1498.51 1880.11 1499.79 1879.88 1501.08 1879.65 1502.06 1879.31 1502.73 1878.85 1503.41 1878.39 1503.9 1877.74 1504.21 1876.9 1504.52 1876.06 1504.68 1874.7 1504.68 1872.81L1504.68 1839.94C1504.68 1838.86 1504.49 1838.07 1504.11 1837.57 1503.73 1837.07 1503.18 1836.82 1502.45 1836.82 1501.58 1836.82 1500.35 1837.27 1498.76 1838.16 1497.17 1839.05 1495.19 1840.28 1492.84 1841.84L1491.06 1838.72Z" stroke="#000000" stroke-linejoin="round" stroke-miterlimit="10" fill="#00B050" fill-rule="evenodd"/><text fill="#000000" fill-opacity="0" font-family="Arial,Arial_MSFontService,sans-serif" font-size="55.9683" x="1491.06" y="1876.39">1</text><path d="M1605.01 1833.62 1610.77 1833.62 1610.77 1856.96 1632.86 1856.96 1632.86 1862.35 1610.77 1862.35 1610.77 1885.7 1605.01 1885.7 1605.01 1862.35 1582.93 1862.35 1582.93 1856.96 1605.01 1856.96Z" stroke="#000000" stroke-linejoin="round" stroke-miterlimit="10" fill="#00B050" fill-rule="evenodd"/><text fill="#000000" fill-opacity="0" font-family="Arial,Arial_MSFontService,sans-serif" font-size="52.0776" x="1582.93" y="1879.19">+</text><path d="M1644.8 1865.39 1694.73 1865.39 1694.73 1870.78 1644.8 1870.78ZM1644.8 1848.57 1694.73 1848.57 1694.73 1853.96 1644.8 1853.96Z" stroke="#000000" stroke-linejoin="round" stroke-miterlimit="10" fill="#00B050" fill-rule="evenodd"/><text fill="#000000" fill-opacity="0" font-family="Arial,Arial_MSFontService,sans-serif" font-size="22.209" x="1644.8" y="1868.01">=</text><path d="M1761.93 1843.79C1763.88 1843.79 1765.28 1844.3 1766.15 1845.31 1767.01 1846.32 1767.44 1847.68 1767.44 1849.38 1767.44 1850.68 1767.22 1852.17 1766.76 1853.84 1766.3 1855.52 1765.65 1857.29 1764.81 1859.15 1763.97 1861.01 1762.97 1862.93 1761.81 1864.88 1760.65 1866.84 1759.37 1868.75 1757.96 1870.6 1756.56 1872.45 1755.06 1874.19 1753.46 1875.83 1751.87 1877.46 1750.21 1878.89 1748.5 1880.1 1746.78 1881.32 1745.04 1882.28 1743.27 1883 1741.5 1883.72 1739.74 1884.07 1737.98 1884.07 1737.2 1884.07 1736.54 1883.88 1736.02 1883.49 1735.49 1883.09 1735.06 1882.54 1734.74 1881.83 1734.42 1881.11 1734.19 1880.26 1734.05 1879.29 1733.92 1878.32 1733.85 1877.25 1733.85 1876.09 1733.85 1874.55 1733.94 1872.9 1734.13 1871.15 1734.32 1869.39 1734.56 1867.62 1734.86 1865.84L1736.56 1854.61C1736.67 1853.96 1736.76 1853.35 1736.83 1852.77 1736.89 1852.19 1736.93 1851.76 1736.93 1851.49 1736.93 1850.65 1736.79 1849.96 1736.52 1849.42 1736.25 1848.88 1735.79 1848.61 1735.14 1848.61 1734.63 1848.61 1734.08 1848.77 1733.48 1849.08 1732.89 1849.39 1732.29 1849.79 1731.68 1850.27 1731.07 1850.76 1730.48 1851.28 1729.92 1851.83 1729.35 1852.39 1728.82 1852.91 1728.34 1853.4L1726.39 1851.13C1727.23 1850.26 1728.12 1849.4 1729.07 1848.55 1730.01 1847.7 1731.01 1846.93 1732.06 1846.24 1733.12 1845.55 1734.23 1845 1735.39 1844.58 1736.55 1844.16 1737.74 1843.95 1738.95 1843.95 1739.98 1843.95 1740.82 1844.12 1741.47 1844.46 1742.12 1844.8 1742.62 1845.24 1742.99 1845.8 1743.35 1846.35 1743.6 1846.96 1743.74 1847.62 1743.87 1848.28 1743.94 1848.94 1743.94 1849.59 1743.94 1849.96 1743.93 1850.33 1743.9 1850.68 1743.87 1851.03 1743.83 1851.36 1743.78 1851.65L1741.51 1866.32C1741.26 1867.86 1741.06 1869.37 1740.9 1870.84 1740.74 1872.31 1740.66 1873.62 1740.66 1874.75 1740.66 1875.89 1740.72 1876.81 1740.86 1877.51 1740.99 1878.21 1741.25 1878.56 1741.63 1878.56 1742.52 1878.56 1743.64 1878.2 1744.99 1877.49 1746.34 1876.77 1747.76 1875.79 1749.25 1874.53 1750.73 1873.27 1752.22 1871.79 1753.71 1870.07 1755.19 1868.36 1756.53 1866.5 1757.72 1864.5 1758.91 1862.5 1759.87 1860.39 1760.62 1858.18 1761.36 1855.96 1761.73 1853.73 1761.73 1851.49 1761.73 1850.52 1761.52 1849.77 1761.1 1849.24 1760.68 1848.71 1760.03 1848.45 1759.14 1848.45 1758 1848.45 1756.95 1848.89 1756 1849.77 1755.04 1850.65 1754.04 1851.8 1753.02 1853.23L1750.71 1851.17C1751.36 1850.19 1752.12 1849.26 1753 1848.37 1753.87 1847.48 1754.81 1846.69 1755.79 1846.02 1756.78 1845.34 1757.8 1844.8 1758.85 1844.4 1759.91 1843.99 1760.93 1843.79 1761.93 1843.79Z" stroke="#000000" stroke-linejoin="round" stroke-miterlimit="10" fill="#00B050" fill-rule="evenodd"/><text fill="#000000" fill-opacity="0" font-family="Arial,Arial_MSFontService,sans-serif" font-size="40.2842" x="1726.39" y="1879.04">­ЮЉБ</text><path d="M2119.5 1554.5 2119.5 1796.27" stroke="#4472C4" stroke-width="9.16667" stroke-miterlimit="8" stroke-dasharray="36.6667 27.5" fill="none" fill-rule="evenodd"/><path d="M1454.5 1576.5 1454.5 1799.28" stroke="#4472C4" stroke-width="9.16667" stroke-miterlimit="8" stroke-dasharray="36.6667 27.5" fill="none" fill-rule="evenodd"/><path d="M1284.48 1716.29C1286.99 1716.29 1289.28 1716.44 1291.35 1716.74 1293.41 1717.03 1295.47 1717.55 1297.53 1718.28L1295.7 1726.79 1292.42 1726.79C1292.12 1724.38 1291.33 1722.56 1290.05 1721.31 1288.77 1720.07 1286.75 1719.45 1283.99 1719.45 1281.86 1719.45 1280.13 1720 1278.8 1721.09 1277.48 1722.19 1276.82 1723.62 1276.82 1725.41 1276.82 1726.38 1276.99 1727.24 1277.33 1727.98 1277.66 1728.72 1278.35 1729.54 1279.37 1730.43 1280.4 1731.33 1281.99 1732.42 1284.15 1733.72 1285.86 1734.74 1287.22 1735.68 1288.25 1736.53 1289.27 1737.38 1290.08 1738.23 1290.68 1739.07 1291.27 1739.9 1291.71 1740.79 1291.98 1741.72 1292.25 1742.65 1292.38 1743.78 1292.38 1745.1 1292.38 1747.51 1291.74 1749.57 1290.46 1751.28 1289.17 1753 1287.43 1754.28 1285.23 1755.11 1283.03 1755.95 1280.52 1756.37 1277.71 1756.37 1275.47 1756.37 1273.27 1756.2 1271.1 1755.86 1268.94 1755.53 1266.54 1754.95 1263.89 1754.14L1265.84 1745.31 1269 1745.31C1269.1 1747.9 1269.83 1749.86 1271.19 1751.18 1272.54 1752.51 1274.68 1753.17 1277.63 1753.17 1280.2 1753.17 1282.2 1752.6 1283.65 1751.45 1285.09 1750.3 1285.82 1748.67 1285.82 1746.56 1285.82 1745.35 1285.61 1744.3 1285.21 1743.42 1284.8 1742.54 1284.14 1741.7 1283.22 1740.89 1282.3 1740.08 1280.84 1739.07 1278.85 1737.85 1276.74 1736.58 1275.1 1735.43 1273.92 1734.41 1272.75 1733.38 1271.86 1732.26 1271.27 1731.06 1270.67 1729.86 1270.37 1728.47 1270.37 1726.91 1270.37 1724.77 1270.95 1722.9 1272.1 1721.29 1273.25 1719.69 1274.89 1718.45 1277.02 1717.59 1279.16 1716.72 1281.64 1716.29 1284.48 1716.29ZM1256.74 1697.73 1259.13 1697.73 1249.16 1742.59C1248.56 1745.27 1248.27 1747.27 1248.27 1748.59 1248.27 1749.67 1248.44 1750.45 1248.79 1750.94 1249.14 1751.43 1249.7 1751.67 1250.45 1751.67 1251.26 1751.67 1252.13 1751.34 1253.05 1750.68 1253.97 1750.02 1255.26 1748.75 1256.94 1746.89L1259.25 1749.16C1256.63 1751.91 1254.49 1753.8 1252.82 1754.81 1251.16 1755.82 1249.31 1756.33 1247.25 1756.33 1245.5 1756.33 1244.09 1755.69 1243.04 1754.41 1241.98 1753.12 1241.46 1751.48 1241.46 1749.48 1241.46 1747.67 1241.84 1745.05 1242.59 1741.62L1249.85 1709.16C1250.17 1707.72 1250.4 1706.58 1250.54 1705.73 1250.67 1704.88 1250.74 1704.09 1250.74 1703.36 1250.74 1702.55 1250.59 1701.94 1250.29 1701.52 1249.99 1701.1 1249.57 1700.79 1249.02 1700.61 1248.46 1700.42 1247.47 1700.28 1246.04 1700.2L1246.52 1698.09Z" fill-rule="evenodd"/><text fill="#000000" fill-opacity="0" font-family="Arial,Arial_MSFontService,sans-serif" font-size="58.6431" x="1241.46" y="1749.04">­ЮЉЎ­ЮЉа</text><path d="M2506.45 1724.88C2508.96 1724.88 2511.25 1725.02 2513.32 1725.32 2515.39 1725.62 2517.45 1726.13 2519.5 1726.86L2517.68 1735.37 2514.39 1735.37C2514.1 1732.97 2513.3 1731.14 2512.02 1729.9 2510.74 1728.66 2508.72 1728.04 2505.96 1728.04 2503.83 1728.04 2502.1 1728.58 2500.78 1729.68 2499.45 1730.77 2498.79 1732.21 2498.79 1733.99 2498.79 1734.97 2498.96 1735.83 2499.3 1736.57 2499.63 1737.31 2500.32 1738.13 2501.34 1739.02 2502.37 1739.91 2503.96 1741.01 2506.12 1742.3 2507.83 1743.33 2509.19 1744.27 2510.22 1745.12 2511.24 1745.97 2512.06 1746.82 2512.65 1747.65 2513.24 1748.49 2513.68 1749.38 2513.95 1750.31 2514.22 1751.24 2514.35 1752.37 2514.35 1753.69 2514.35 1756.1 2513.71 1758.16 2512.43 1759.87 2511.14 1761.59 2509.4 1762.86 2507.2 1763.7 2505 1764.54 2502.49 1764.96 2499.68 1764.96 2497.44 1764.96 2495.24 1764.79 2493.07 1764.45 2490.91 1764.11 2488.51 1763.54 2485.86 1762.73L2487.81 1753.89 2490.97 1753.89C2491.08 1756.49 2491.81 1758.45 2493.16 1759.77 2494.51 1761.09 2496.65 1761.76 2499.6 1761.76 2502.17 1761.76 2504.17 1761.18 2505.62 1760.03 2507.06 1758.89 2507.79 1757.26 2507.79 1755.15 2507.79 1753.93 2507.58 1752.89 2507.18 1752.01 2506.77 1751.13 2506.11 1750.29 2505.19 1749.48 2504.27 1748.67 2502.81 1747.65 2500.82 1746.44 2498.71 1745.17 2497.07 1744.02 2495.89 1742.99 2494.72 1741.97 2493.83 1740.85 2493.24 1739.65 2492.64 1738.45 2492.35 1737.06 2492.35 1735.49 2492.35 1733.36 2492.92 1731.49 2494.07 1729.88 2495.22 1728.27 2496.86 1727.04 2498.99 1726.17 2501.13 1725.31 2503.61 1724.88 2506.45 1724.88ZM2457.56 1724.84C2459.26 1724.84 2460.61 1725.4 2461.59 1726.52 2462.58 1727.64 2463.07 1729.1 2463.07 1730.91 2463.07 1732.27 2462.82 1733.66 2462.3 1735.09L2462.83 1735.29C2465.48 1731.7 2468.02 1729.06 2470.47 1727.39 2472.91 1725.71 2475.39 1724.88 2477.91 1724.88 2479.88 1724.88 2481.53 1725.02 2482.85 1725.32L2480.9 1734.4 2476.73 1734.4C2476.57 1733.27 2476.34 1732.39 2476.04 1731.77 2475.74 1731.14 2475.39 1730.71 2474.99 1730.47 2474.58 1730.23 2474.07 1730.1 2473.45 1730.1 2472.47 1730.1 2471.41 1730.52 2470.27 1731.36 2469.12 1732.2 2467.83 1733.51 2466.4 1735.29 2464.96 1737.08 2463.82 1738.79 2462.97 1740.44 2462.12 1742.09 2461.41 1744.18 2460.84 1746.72L2456.99 1764.27 2449.98 1764.27 2455.86 1738.57C2456.24 1736.95 2456.48 1735.7 2456.59 1734.81 2456.7 1733.91 2456.75 1733.17 2456.75 1732.58 2456.75 1731.5 2456.57 1730.71 2456.22 1730.23 2455.87 1729.74 2455.32 1729.5 2454.56 1729.5 2453.72 1729.5 2452.84 1729.84 2451.91 1730.53 2450.97 1731.22 2449.7 1732.47 2448.08 1734.28L2445.77 1732.01C2448.25 1729.42 2450.33 1727.57 2452.01 1726.48 2453.68 1725.38 2455.53 1724.84 2457.56 1724.84Z" fill-rule="evenodd"/><text fill="#000000" fill-opacity="0" font-family="Arial,Arial_MSFontService,sans-serif" font-size="40.1221" x="2445.77" y="1759.94">­ЮЉЪ­ЮЉа</text><text fill="#0070C0" font-family="DengXian,DengXian_MSFontService,sans-serif" font-weight="400" font-size="83" transform="matrix(1 0 0 1 1460.64 1526)">ТЄњТаЄУ«░СИІС╝а</text><path d="M1899.32 1470.21 1901.55 1470.21C1901.39 1472.8 1901.31 1476.4 1901.31 1480.99L1901.31 1515.6C1901.31 1517.17 1901.4 1518.35 1901.57 1519.15 1901.75 1519.94 1902.06 1520.59 1902.5 1521.09 1902.95 1521.59 1903.59 1521.98 1904.43 1522.27 1905.27 1522.55 1906.32 1522.77 1907.59 1522.92 1908.86 1523.06 1910.53 1523.17 1912.61 1523.22L1912.61 1526.18 1882.66 1526.18 1882.66 1523.22C1885.66 1523.09 1887.8 1522.9 1889.09 1522.67 1890.37 1522.44 1891.35 1522.1 1892.03 1521.64 1892.7 1521.18 1893.2 1520.53 1893.51 1519.69 1893.82 1518.86 1893.97 1517.49 1893.97 1515.6L1893.97 1482.73C1893.97 1481.65 1893.78 1480.86 1893.4 1480.36 1893.03 1479.86 1892.47 1479.61 1891.74 1479.61 1890.88 1479.61 1889.65 1480.06 1888.05 1480.95 1886.46 1481.84 1884.49 1483.07 1882.14 1484.64L1880.35 1481.52Z" fill="#0070C0" fill-rule="evenodd"/><text fill="#000000" fill-opacity="0" font-family="Arial,Arial_MSFontService,sans-serif" font-size="55.9683" x="1880.35" y="1519.18">1</text><text fill="#0070C0" font-family="DengXian,DengXian_MSFontService,sans-serif" font-weight="400" font-size="83" transform="matrix(1 0 0 1 1918.97 1526)">т▒ѓ№╝ї</text><path d="M2135.95 1489.95C2133.17 1489.95 2130.67 1491.07 2128.45 1493.31 2126.24 1495.55 2124.51 1498.56 2123.27 1502.33 2122.02 1506.1 2121.4 1509.86 2121.4 1513.62 2121.4 1516.43 2121.79 1518.53 2122.56 1519.92 2123.33 1521.31 2124.62 1522 2126.43 1522 2128.21 1522 2129.96 1521.23 2131.68 1519.69 2133.39 1518.15 2135.16 1515.96 2136.99 1513.11 2138.81 1510.26 2140.1 1506.97 2140.86 1503.24L2141.22 1501.5C2141.46 1500.39 2141.63 1499.43 2141.71 1498.62 2141.79 1497.81 2141.83 1496.93 2141.83 1495.99 2141.83 1493.91 2141.38 1492.38 2140.49 1491.41 2139.6 1490.43 2138.09 1489.95 2135.95 1489.95ZM2165.5 1487.43 2194.31 1487.43 2195.08 1489.46 2175.75 1511.67C2172 1515.97 2168.74 1519.61 2165.98 1522.61L2166.23 1522.9 2175.39 1522.9C2177.01 1522.9 2178.25 1522.81 2179.12 1522.63 2179.98 1522.46 2180.74 1522.13 2181.38 1521.64 2182.03 1521.15 2182.7 1520.42 2183.39 1519.43 2184.08 1518.44 2184.94 1516.9 2185.96 1514.79L2189.57 1514.79 2187.1 1526.18 2157.76 1526.18 2156.99 1524.19 2179.16 1498.66C2182.29 1495.07 2184.59 1492.51 2186.05 1491L2185.8 1490.72 2176.32 1490.72C2174.91 1490.72 2173.89 1490.81 2173.24 1491 2172.59 1491.19 2171.94 1491.52 2171.29 1491.99 2170.65 1492.47 2169.95 1493.17 2169.21 1494.1 2168.46 1495.03 2167.63 1496.36 2166.71 1498.09L2163.11 1498.09ZM2209.35 1486.79C2210.46 1486.79 2211.4 1486.93 2212.19 1487.23 2212.73 1487.45 2213.27 1487.81 2213.81 1488.31 2214.35 1488.81 2214.83 1489.5 2215.24 1490.39 2215.66 1491.28 2216.03 1492.28 2216.34 1493.39 2216.65 1494.5 2216.99 1496.09 2217.37 1498.17 2218.02 1501.66 2218.65 1505.33 2219.26 1509.18 2219.86 1513.03 2220.39 1516.6 2220.82 1519.9 2223.44 1516.11 2225.66 1512.41 2227.48 1508.79 2229.31 1505.17 2230.62 1502.02 2231.42 1499.35 2232.21 1496.67 2232.61 1494.5 2232.61 1492.82 2232.61 1491.55 2232.34 1490.69 2231.8 1490.23 2231.26 1489.77 2230.34 1489.5 2229.04 1489.42L2229.45 1487.43 2240.11 1487.43 2241.2 1489.46C2239.15 1495.08 2236.37 1501.09 2232.85 1507.5 2229.4 1513.76 2225.44 1520.01 2220.98 1526.22 2216.71 1532.14 2213.16 1536.42 2210.32 1539.07 2208.35 1540.88 2206.44 1542.17 2204.61 1542.96 2203.15 1543.55 2201.59 1543.85 2199.95 1543.85 2199.38 1543.85 2198.72 1543.8 2197.98 1543.71 2197.24 1543.61 2196.66 1543.48 2196.26 1543.32L2198 1535.46 2201.2 1535.46C2201.2 1537.19 2201.8 1538.05 2202.99 1538.05 2204.55 1538.05 2206.38 1537.07 2208.46 1535.12 2210.54 1533.16 2212.98 1530.2 2215.79 1526.26 2215.01 1521.53 2213.94 1515.83 2212.59 1509.16 2211.16 1502.02 2210.21 1497.61 2209.75 1495.9 2209.19 1493.85 2208.59 1492.54 2207.97 1491.97 2207.59 1491.62 2207.12 1491.45 2206.55 1491.45 2205.69 1491.45 2204.88 1491.8 2204.12 1492.5 2203.36 1493.2 2202.43 1494.42 2201.32 1496.15L2198.69 1494.41C2200.55 1491.62 2202.3 1489.66 2203.92 1488.51 2205.54 1487.36 2207.35 1486.79 2209.35 1486.79ZM2135.14 1486.75C2136.9 1486.75 2138.54 1486.94 2140.07 1487.33 2141.59 1487.73 2143.17 1488.42 2144.79 1489.42L2148.52 1486.75 2151.11 1487.39 2145.15 1513.09C2144.56 1515.66 2144.26 1517.65 2144.26 1519.09 2144.26 1520.17 2144.44 1520.95 2144.79 1521.44 2145.14 1521.92 2145.69 1522.17 2146.45 1522.17 2147.26 1522.17 2148.12 1521.84 2149.04 1521.17 2149.96 1520.51 2151.26 1519.25 2152.93 1517.38L2155.24 1519.65C2152.81 1522.25 2150.74 1524.09 2149.02 1525.19 2147.31 1526.28 2145.45 1526.83 2143.45 1526.83 2141.77 1526.83 2140.44 1526.27 2139.44 1525.17 2138.44 1524.06 2137.94 1522.59 2137.94 1520.75 2137.94 1519.26 2138.25 1517.68 2138.87 1516.01L2138.34 1515.84C2135.75 1519.63 2133.29 1522.4 2130.97 1524.15 2128.64 1525.91 2126.19 1526.79 2123.59 1526.79 2120.62 1526.79 2118.32 1525.67 2116.68 1523.42 2115.05 1521.18 2114.23 1518.03 2114.23 1513.98 2114.23 1509.33 2115.14 1504.87 2116.97 1500.59 2118.79 1496.3 2121.29 1492.93 2124.48 1490.45 2127.67 1487.98 2131.22 1486.75 2135.14 1486.75ZM2104.85 1468.22 2107.24 1468.22 2097.27 1513.09C2096.67 1515.76 2096.38 1517.76 2096.38 1519.09 2096.38 1520.17 2096.55 1520.95 2096.9 1521.44 2097.25 1521.92 2097.81 1522.17 2098.56 1522.17 2099.37 1522.17 2100.24 1521.84 2101.16 1521.17 2102.08 1520.51 2103.37 1519.25 2105.05 1517.38L2107.36 1519.65C2104.74 1522.41 2102.6 1524.29 2100.93 1525.31 2099.27 1526.32 2097.42 1526.83 2095.36 1526.83 2093.61 1526.83 2092.2 1526.19 2091.15 1524.9 2090.09 1523.62 2089.57 1521.98 2089.57 1519.98 2089.57 1518.17 2089.95 1515.55 2090.7 1512.12L2097.96 1479.65C2098.28 1478.22 2098.51 1477.08 2098.65 1476.23 2098.78 1475.38 2098.85 1474.59 2098.85 1473.86 2098.85 1473.05 2098.7 1472.43 2098.4 1472.01 2098.1 1471.6 2097.68 1471.29 2097.13 1471.1 2096.57 1470.91 2095.58 1470.78 2094.15 1470.7L2094.63 1468.59Z" fill="#0070C0" fill-rule="evenodd"/><text fill="#000000" fill-opacity="0" font-family="Arial,Arial_MSFontService,sans-serif" font-size="75.624" x="2089.57" y="1534.4">­ЮЉЎ­ЮЉј­ЮЉД­ЮЉд</text><path d="M2428.94 1463.86 2447.01 1463.86 2447.01 1541.14 2428.94 1541.14 2428.94 1538.02 2440.29 1538.02 2440.29 1466.98 2428.94 1466.98ZM2252.76 1463.86 2270.84 1463.86 2270.84 1466.98 2259.49 1466.98 2259.49 1538.02 2270.84 1538.02 2270.84 1541.14 2252.76 1541.14Z" fill="#0070C0" fill-rule="evenodd"/><path d="M2346.05 1490.03C2343.24 1490.03 2340.79 1491.2 2338.69 1493.55 2336.6 1495.9 2334.95 1499.27 2333.75 1503.65 2332.55 1508.02 2331.95 1511.79 2331.95 1514.95 2331.95 1517.92 2332.56 1520.12 2333.79 1521.54 2335.02 1522.96 2336.88 1523.67 2339.36 1523.67 2342.01 1523.67 2344.36 1522.48 2346.41 1520.1 2348.47 1517.72 2350.09 1514.39 2351.28 1510.11 2352.47 1505.83 2353.06 1502.07 2353.06 1498.82 2353.06 1495.9 2352.49 1493.71 2351.36 1492.24 2350.22 1490.76 2348.45 1490.03 2346.05 1490.03ZM2367.07 1487.43 2377.69 1487.43 2380.12 1519.41C2383.93 1513.2 2386.68 1508.47 2388.37 1505.23 2390.06 1501.98 2391.31 1499.18 2392.12 1496.82 2392.93 1494.45 2393.55 1491.99 2393.98 1489.42L2394.43 1487.43 2400.26 1487.43 2403.22 1519.45C2407.44 1513.45 2410.64 1508.22 2412.85 1503.75 2415.05 1499.28 2416.15 1495.63 2416.15 1492.82 2416.15 1491.55 2415.88 1490.69 2415.34 1490.23 2414.8 1489.77 2413.88 1489.5 2412.58 1489.42L2412.99 1487.43 2423.44 1487.43 2424.54 1489.46C2423.59 1491.87 2422.84 1493.72 2422.27 1495.01 2421.7 1496.31 2420.96 1497.87 2420.04 1499.69 2419.12 1501.52 2418.15 1503.33 2417.12 1505.15 2416.09 1506.96 2414.89 1508.95 2413.49 1511.12 2412.1 1513.3 2410.54 1515.66 2408.81 1518.22 2407.08 1520.77 2405.04 1523.64 2402.69 1526.83L2397.87 1526.83 2396.21 1509.89C2396.07 1508.56 2395.93 1506.83 2395.78 1504.7 2395.63 1502.56 2395.53 1500.92 2395.48 1499.76L2395.03 1499.71C2393.57 1503.31 2391.59 1507.31 2389.08 1511.71 2386.56 1516.11 2383.46 1521.15 2379.75 1526.83L2374.32 1526.83 2371.24 1496.31C2371.08 1494.74 2370.88 1493.47 2370.64 1492.5 2370.39 1491.53 2369.99 1490.8 2369.42 1490.31 2368.85 1489.83 2367.92 1489.53 2366.62 1489.42ZM2346.86 1486.79C2351.18 1486.79 2354.48 1487.97 2356.75 1490.33 2359.02 1492.7 2360.15 1496.08 2360.15 1500.48 2360.15 1503.62 2359.61 1506.97 2358.51 1510.54 2357.42 1514.1 2355.92 1517.1 2354.01 1519.53 2352.11 1521.96 2349.83 1523.79 2347.18 1525.02 2344.54 1526.25 2341.5 1526.87 2338.06 1526.87 2333.88 1526.87 2330.63 1525.69 2328.32 1523.34 2326.01 1520.99 2324.85 1517.61 2324.85 1513.21 2324.85 1511.05 2325.18 1508.55 2325.83 1505.71 2326.66 1501.88 2328.07 1498.53 2330.04 1495.66 2332.01 1492.8 2334.44 1490.6 2337.34 1489.08 2340.23 1487.55 2343.4 1486.79 2346.86 1486.79ZM2285.16 1486.75C2286.86 1486.75 2288.21 1487.31 2289.19 1488.43 2290.18 1489.55 2290.67 1491.01 2290.67 1492.82 2290.67 1494.26 2290.35 1495.85 2289.7 1497.61L2290.19 1497.77C2292.83 1494.04 2295.35 1491.28 2297.74 1489.48 2300.14 1487.68 2302.6 1486.79 2305.14 1486.79 2307.65 1486.79 2309.59 1487.51 2310.94 1488.95 2312.29 1490.4 2312.96 1492.41 2312.96 1494.97 2312.96 1496.67 2312.57 1499.09 2311.79 1502.23L2309.15 1512.85C2308.42 1515.79 2308.06 1517.87 2308.06 1519.09 2308.06 1520.17 2308.23 1520.95 2308.59 1521.44 2308.94 1521.92 2309.49 1522.17 2310.25 1522.17 2311.06 1522.17 2311.92 1521.84 2312.84 1521.17 2313.76 1520.51 2315.06 1519.25 2316.73 1517.38L2319.04 1519.65C2316.72 1522.14 2314.69 1523.96 2312.96 1525.1 2311.23 1526.25 2309.26 1526.83 2307.05 1526.83 2305.29 1526.83 2303.88 1526.2 2302.83 1524.94 2301.78 1523.69 2301.25 1522.09 2301.25 1520.14 2301.25 1518.38 2301.7 1515.8 2302.59 1512.4L2304.37 1505.39C2305.02 1502.85 2305.45 1500.97 2305.65 1499.76 2305.85 1498.54 2305.95 1497.55 2305.95 1496.8 2305.95 1494.93 2305.64 1493.59 2305.02 1492.76 2304.4 1491.94 2303.39 1491.53 2301.98 1491.53 2300.85 1491.53 2299.62 1491.98 2298.31 1492.89 2297 1493.79 2295.61 1495.16 2294.14 1496.98 2292.67 1498.8 2291.48 1500.57 2290.59 1502.29 2289.7 1504 2288.97 1506.12 2288.4 1508.63L2284.55 1526.18 2277.54 1526.18 2283.46 1500.48C2284.05 1497.89 2284.35 1495.89 2284.35 1494.49 2284.35 1493.41 2284.18 1492.62 2283.82 1492.14 2283.47 1491.65 2282.92 1491.41 2282.16 1491.41 2281.32 1491.41 2280.44 1491.75 2279.51 1492.44 2278.58 1493.13 2277.3 1494.38 2275.68 1496.19L2273.37 1493.92C2275.85 1491.33 2277.92 1489.48 2279.57 1488.39 2281.22 1487.29 2283.08 1486.75 2285.16 1486.75Z" fill="#0070C0" fill-rule="evenodd"/><text fill="#000000" fill-opacity="0" font-family="Arial,Arial_MSFontService,sans-serif" font-size="40.1221" x="2273.37" y="1521.85">­ЮЉЏ­ЮЉю­ЮЉц</text><path d="M2485.03 1508.18 2534.96 1508.18 2534.96 1513.57 2485.03 1513.57ZM2485.03 1491.37 2534.96 1491.37 2534.96 1496.76 2485.03 1496.76Z" fill="#0070C0" fill-rule="evenodd"/><text fill="#000000" fill-opacity="0" font-family="Arial,Arial_MSFontService,sans-serif" font-size="22.209" x="2485.03" y="1510.8">=</text><path d="M2586.76 1473.66C2584.9 1473.66 2583.33 1474.21 2582.08 1475.32 2580.82 1476.42 2579.81 1478.02 2579.04 1480.1 2578.27 1482.18 2577.72 1484.71 2577.4 1487.7 2577.07 1490.68 2576.91 1494.05 2576.91 1497.81 2576.91 1506.62 2577.73 1513.08 2579.36 1517.2 2581 1521.32 2583.53 1523.38 2586.96 1523.38 2590.23 1523.38 2592.66 1521.44 2594.24 1517.57 2595.82 1513.69 2596.61 1507.68 2596.61 1499.55 2596.61 1493.34 2596.2 1488.31 2595.39 1484.46 2594.58 1480.61 2593.45 1477.84 2592.01 1476.17 2590.56 1474.49 2588.81 1473.66 2586.76 1473.66ZM2586.96 1470.21C2592.88 1470.21 2597.28 1472.49 2600.17 1477.06 2603.06 1481.63 2604.51 1488.53 2604.51 1497.77 2604.51 1507.33 2602.96 1514.57 2599.87 1519.47 2596.78 1524.38 2592.26 1526.83 2586.31 1526.83 2580.48 1526.83 2576.13 1524.53 2573.28 1519.94 2570.43 1515.34 2569.01 1508.37 2569.01 1499.03 2569.01 1494.05 2569.45 1489.76 2570.33 1486.14 2571.2 1482.52 2572.43 1479.53 2574.01 1477.16 2575.59 1474.8 2577.49 1473.05 2579.71 1471.91 2581.92 1470.78 2584.34 1470.21 2586.96 1470.21Z" fill="#0070C0" fill-rule="evenodd"/><text fill="#000000" fill-opacity="0" font-family="Arial,Arial_MSFontService,sans-serif" font-size="56.6167" x="2569.01" y="1519.75">0</text><path d="M1841 1672 2427.93 1672" stroke="#FFC000" stroke-width="13.75" stroke-miterlimit="8" fill="none" fill-rule="evenodd"/><path d="M2016.37 1847.94C2013.59 1847.94 2011.09 1849.06 2008.87 1851.3 2006.66 1853.54 2004.93 1856.55 2003.69 1860.32 2002.44 1864.09 2001.82 1867.85 2001.82 1871.61 2001.82 1874.42 2002.21 1876.52 2002.98 1877.91 2003.75 1879.3 2005.04 1879.99 2006.85 1879.99 2008.63 1879.99 2010.38 1879.22 2012.1 1877.68 2013.81 1876.14 2015.58 1873.95 2017.41 1871.1 2019.23 1868.25 2020.52 1864.96 2021.28 1861.23L2021.64 1859.49C2021.88 1858.38 2022.05 1857.42 2022.13 1856.61 2022.21 1855.8 2022.25 1854.92 2022.25 1853.98 2022.25 1851.9 2021.8 1850.37 2020.91 1849.4 2020.02 1848.42 2018.51 1847.94 2016.37 1847.94ZM2087.77 1844.78C2088.88 1844.78 2089.82 1844.92 2090.6 1845.22 2091.15 1845.44 2091.69 1845.8 2092.23 1846.3 2092.77 1846.8 2093.25 1847.49 2093.66 1848.38 2094.08 1849.27 2094.45 1850.27 2094.76 1851.38 2095.07 1852.49 2095.41 1854.08 2095.79 1856.16 2096.44 1859.65 2097.07 1863.32 2097.68 1867.17 2098.28 1871.02 2098.81 1874.59 2099.24 1877.89 2101.86 1874.1 2104.08 1870.4 2105.9 1866.78 2107.73 1863.16 2109.04 1860.01 2109.84 1857.34 2110.63 1854.66 2111.03 1852.49 2111.03 1850.81 2111.03 1849.54 2110.76 1848.68 2110.22 1848.22 2109.68 1847.76 2108.76 1847.49 2107.46 1847.41L2107.87 1845.42 2118.53 1845.42 2119.62 1847.45C2117.57 1853.07 2114.79 1859.08 2111.27 1865.49 2107.82 1871.75 2103.86 1877.99 2099.4 1884.21 2095.13 1890.13 2091.58 1894.41 2088.74 1897.06 2086.77 1898.87 2084.86 1900.16 2083.03 1900.95 2081.57 1901.54 2080.01 1901.84 2078.37 1901.84 2077.8 1901.84 2077.14 1901.79 2076.4 1901.7 2075.66 1901.6 2075.08 1901.47 2074.68 1901.31L2076.42 1893.45 2079.62 1893.45C2079.62 1895.18 2080.22 1896.04 2081.41 1896.04 2082.97 1896.04 2084.8 1895.06 2086.88 1893.1 2088.96 1891.15 2091.4 1888.19 2094.21 1884.25 2093.43 1879.52 2092.36 1873.82 2091.01 1867.15 2089.58 1860.01 2088.63 1855.6 2088.17 1853.89 2087.61 1851.84 2087.01 1850.53 2086.39 1849.96 2086.01 1849.61 2085.54 1849.44 2084.97 1849.44 2084.11 1849.44 2083.3 1849.79 2082.54 1850.49 2081.78 1851.19 2080.85 1852.41 2079.74 1854.14L2077.11 1852.4C2078.97 1849.61 2080.72 1847.65 2082.34 1846.5 2083.96 1845.35 2085.77 1844.78 2087.77 1844.78ZM2059.01 1844.78C2061.52 1844.78 2063.81 1844.92 2065.88 1845.22 2067.94 1845.52 2070 1846.03 2072.06 1846.76L2070.23 1855.27 2066.95 1855.27C2066.65 1852.87 2065.86 1851.04 2064.58 1849.8 2063.3 1848.56 2061.28 1847.94 2058.52 1847.94 2056.39 1847.94 2054.66 1848.48 2053.33 1849.58 2052.01 1850.67 2051.35 1852.11 2051.35 1853.89 2051.35 1854.87 2051.52 1855.73 2051.86 1856.47 2052.19 1857.21 2052.88 1858.03 2053.9 1858.92 2054.93 1859.81 2056.52 1860.91 2058.68 1862.2 2060.39 1863.23 2061.75 1864.17 2062.78 1865.02 2063.8 1865.87 2064.61 1866.71 2065.21 1867.55 2065.8 1868.39 2066.24 1869.27 2066.51 1870.21 2066.78 1871.14 2066.91 1872.27 2066.91 1873.59 2066.91 1876 2066.27 1878.06 2064.99 1879.77 2063.7 1881.49 2061.96 1882.76 2059.76 1883.6 2057.56 1884.44 2055.05 1884.86 2052.24 1884.86 2050 1884.86 2047.8 1884.69 2045.63 1884.35 2043.47 1884.01 2041.07 1883.44 2038.42 1882.63L2040.37 1873.79 2043.53 1873.79C2043.64 1876.39 2044.36 1878.35 2045.72 1879.67 2047.07 1880.99 2049.21 1881.66 2052.16 1881.66 2054.73 1881.66 2056.73 1881.08 2058.18 1879.93 2059.62 1878.79 2060.35 1877.16 2060.35 1875.05 2060.35 1873.83 2060.14 1872.79 2059.74 1871.91 2059.33 1871.03 2058.67 1870.19 2057.75 1869.38 2056.83 1868.57 2055.37 1867.55 2053.38 1866.34 2051.27 1865.07 2049.63 1863.92 2048.45 1862.89 2047.28 1861.86 2046.39 1860.75 2045.8 1859.55 2045.2 1858.35 2044.9 1856.96 2044.9 1855.39 2044.9 1853.26 2045.48 1851.39 2046.63 1849.78 2047.78 1848.17 2049.42 1846.94 2051.55 1846.07 2053.69 1845.21 2056.17 1844.78 2059.01 1844.78ZM2015.56 1844.74C2017.32 1844.74 2018.96 1844.93 2020.49 1845.32 2022.01 1845.71 2023.59 1846.41 2025.21 1847.41L2028.94 1844.74 2031.53 1845.38 2025.57 1871.08C2024.98 1873.65 2024.68 1875.64 2024.68 1877.08 2024.68 1878.16 2024.86 1878.94 2025.21 1879.43 2025.56 1879.91 2026.11 1880.16 2026.87 1880.16 2027.68 1880.16 2028.54 1879.83 2029.46 1879.16 2030.38 1878.5 2031.68 1877.24 2033.35 1875.37L2035.66 1877.64C2033.23 1880.24 2031.16 1882.08 2029.44 1883.18 2027.73 1884.27 2025.87 1884.82 2023.87 1884.82 2022.19 1884.82 2020.86 1884.26 2019.86 1883.16 2018.86 1882.05 2018.36 1880.58 2018.36 1878.74 2018.36 1877.25 2018.67 1875.67 2019.29 1874L2018.76 1873.83C2016.17 1877.62 2013.71 1880.39 2011.39 1882.14 2009.06 1883.9 2006.61 1884.78 2004.01 1884.78 2001.04 1884.78 1998.74 1883.66 1997.1 1881.41 1995.47 1879.17 1994.65 1876.02 1994.65 1871.97 1994.65 1867.32 1995.56 1862.86 1997.39 1858.58 1999.21 1854.29 2001.71 1850.92 2004.9 1848.44 2008.09 1845.97 2011.64 1844.74 2015.56 1844.74ZM1985.27 1826.21 1987.66 1826.21 1977.69 1871.08C1977.09 1873.75 1976.8 1875.75 1976.8 1877.08 1976.8 1878.16 1976.97 1878.94 1977.32 1879.43 1977.67 1879.91 1978.23 1880.16 1978.98 1880.16 1979.79 1880.16 1980.66 1879.83 1981.58 1879.16 1982.5 1878.5 1983.79 1877.24 1985.47 1875.37L1987.78 1877.64C1985.16 1880.4 1983.02 1882.28 1981.35 1883.3 1979.69 1884.31 1977.84 1884.82 1975.78 1884.82 1974.03 1884.82 1972.62 1884.18 1971.57 1882.89 1970.51 1881.61 1969.99 1879.97 1969.99 1877.97 1969.99 1876.16 1970.37 1873.54 1971.12 1870.11L1978.38 1837.64C1978.7 1836.21 1978.93 1835.07 1979.07 1834.22 1979.2 1833.37 1979.27 1832.58 1979.27 1831.85 1979.27 1831.04 1979.12 1830.42 1978.82 1830 1978.52 1829.58 1978.1 1829.28 1977.55 1829.09 1976.99 1828.9 1976 1828.77 1974.57 1828.69L1975.05 1826.58Z" stroke="#000000" stroke-linejoin="round" stroke-miterlimit="10" fill="#FFC000" fill-rule="evenodd"/><text fill="#000000" fill-opacity="0" font-family="Arial,Arial_MSFontService,sans-serif" font-size="75.624" x="1969.99" y="1892.39">­ЮЉЎ­ЮЉј­ЮЉа­ЮЉд</text><path d="M2544.83 1821.85 2562.9 1821.85 2562.9 1899.13 2544.83 1899.13 2544.83 1896.01 2556.18 1896.01 2556.18 1824.97 2544.83 1824.97ZM2131.46 1821.85 2149.54 1821.85 2149.54 1824.97 2138.19 1824.97 2138.19 1896.01 2149.54 1896.01 2149.54 1899.13 2131.46 1899.13Z" stroke="#000000" stroke-linejoin="round" stroke-miterlimit="10" fill="#FFC000" fill-rule="evenodd"/><path d="M2224.75 1848.02C2221.94 1848.02 2219.49 1849.19 2217.39 1851.54 2215.3 1853.89 2213.65 1857.26 2212.45 1861.64 2211.25 1866.01 2210.65 1869.78 2210.65 1872.94 2210.65 1875.91 2211.26 1878.11 2212.49 1879.53 2213.72 1880.95 2215.58 1881.66 2218.06 1881.66 2220.71 1881.66 2223.06 1880.47 2225.11 1878.09 2227.17 1875.71 2228.79 1872.38 2229.98 1868.1 2231.17 1863.82 2231.76 1860.05 2231.76 1856.81 2231.76 1853.89 2231.19 1851.7 2230.06 1850.23 2228.92 1848.75 2227.15 1848.02 2224.75 1848.02ZM2245.77 1845.42 2256.39 1845.42 2258.82 1877.4C2262.63 1871.19 2265.38 1866.46 2267.07 1863.22 2268.76 1859.97 2270.01 1857.17 2270.82 1854.81 2271.63 1852.44 2272.25 1849.98 2272.68 1847.41L2273.13 1845.42 2278.96 1845.42 2281.92 1877.44C2286.14 1871.44 2289.34 1866.21 2291.55 1861.74 2293.75 1857.27 2294.85 1853.62 2294.85 1850.81 2294.85 1849.54 2294.58 1848.68 2294.04 1848.22 2293.5 1847.76 2292.58 1847.49 2291.28 1847.41L2291.69 1845.42 2302.14 1845.42 2303.24 1847.45C2302.29 1849.86 2301.54 1851.71 2300.97 1853 2300.4 1854.3 2299.66 1855.86 2298.74 1857.68 2297.82 1859.51 2296.85 1861.32 2295.82 1863.13 2294.8 1864.95 2293.59 1866.94 2292.2 1869.11 2290.8 1871.29 2289.24 1873.65 2287.51 1876.2 2285.78 1878.76 2283.75 1881.63 2281.39 1884.82L2276.57 1884.82 2274.91 1867.88C2274.78 1866.55 2274.63 1864.82 2274.48 1862.69 2274.34 1860.55 2274.23 1858.91 2274.18 1857.74L2273.73 1857.7C2272.28 1861.3 2270.29 1865.3 2267.78 1869.7 2265.26 1874.1 2262.16 1879.14 2258.46 1884.82L2253.03 1884.82 2249.95 1854.3C2249.78 1852.73 2249.58 1851.46 2249.34 1850.49 2249.09 1849.52 2248.69 1848.79 2248.12 1848.3 2247.55 1847.82 2246.62 1847.52 2245.33 1847.41ZM2225.56 1844.78C2229.88 1844.78 2233.18 1845.96 2235.45 1848.32 2237.72 1850.69 2238.85 1854.07 2238.85 1858.47 2238.85 1861.61 2238.31 1864.96 2237.21 1868.53 2236.12 1872.09 2234.62 1875.09 2232.71 1877.52 2230.81 1879.95 2228.53 1881.78 2225.88 1883.01 2223.24 1884.24 2220.2 1884.86 2216.77 1884.86 2212.58 1884.86 2209.33 1883.68 2207.02 1881.33 2204.71 1878.98 2203.55 1875.6 2203.55 1871.2 2203.55 1869.04 2203.88 1866.54 2204.53 1863.7 2205.36 1859.87 2206.77 1856.52 2208.74 1853.65 2210.71 1850.79 2213.15 1848.59 2216.04 1847.07 2218.93 1845.54 2222.1 1844.78 2225.56 1844.78ZM2163.86 1844.74C2165.56 1844.74 2166.91 1845.3 2167.89 1846.42 2168.88 1847.54 2169.37 1849 2169.37 1850.81 2169.37 1852.25 2169.05 1853.84 2168.4 1855.6L2168.89 1855.76C2171.54 1852.03 2174.05 1849.27 2176.45 1847.47 2178.84 1845.67 2181.3 1844.78 2183.84 1844.78 2186.35 1844.78 2188.29 1845.5 2189.64 1846.94 2190.99 1848.39 2191.66 1850.4 2191.66 1852.96 2191.66 1854.66 2191.27 1857.08 2190.49 1860.22L2187.85 1870.84C2187.12 1873.78 2186.76 1875.86 2186.76 1877.08 2186.76 1878.16 2186.94 1878.94 2187.29 1879.43 2187.64 1879.91 2188.19 1880.16 2188.95 1880.16 2189.76 1880.16 2190.62 1879.83 2191.54 1879.16 2192.46 1878.5 2193.76 1877.24 2195.43 1875.37L2197.74 1877.64C2195.42 1880.13 2193.39 1881.95 2191.66 1883.09 2189.93 1884.24 2187.96 1884.82 2185.75 1884.82 2183.99 1884.82 2182.59 1884.19 2181.53 1882.93 2180.48 1881.68 2179.95 1880.08 2179.95 1878.13 2179.95 1876.37 2180.4 1873.79 2181.29 1870.39L2183.07 1863.38C2183.72 1860.84 2184.15 1858.96 2184.35 1857.74 2184.55 1856.53 2184.65 1855.54 2184.65 1854.79 2184.65 1852.92 2184.34 1851.58 2183.72 1850.75 2183.1 1849.93 2182.09 1849.52 2180.68 1849.52 2179.55 1849.52 2178.32 1849.97 2177.01 1850.88 2175.7 1851.78 2174.31 1853.14 2172.84 1854.97 2171.37 1856.79 2170.18 1858.56 2169.29 1860.28 2168.4 1861.99 2167.67 1864.11 2167.1 1866.62L2163.25 1884.17 2156.24 1884.17 2162.16 1858.47C2162.75 1855.88 2163.05 1853.88 2163.05 1852.48 2163.05 1851.4 2162.88 1850.61 2162.52 1850.13 2162.17 1849.64 2161.62 1849.4 2160.86 1849.4 2160.03 1849.4 2159.14 1849.74 2158.21 1850.43 2157.28 1851.12 2156 1852.37 2154.38 1854.18L2152.07 1851.91C2154.55 1849.32 2156.62 1847.47 2158.27 1846.38 2159.92 1845.28 2161.78 1844.74 2163.86 1844.74Z" stroke="#000000" stroke-linejoin="round" stroke-miterlimit="10" fill="#FFC000" fill-rule="evenodd"/><text fill="#000000" fill-opacity="0" font-family="Arial,Arial_MSFontService,sans-serif" font-size="40.1221" x="2152.07" y="1879.84">­ЮЉЏ­ЮЉю­ЮЉц</text><path d="M2396.7 1834.32 2396.7 1840.4 2369.14 1860.3 2396.7 1880.2 2396.7 1886.28 2363.71 1863.13 2363.71 1857.46ZM2367.84 1834.32 2367.84 1840.4 2340.28 1860.3 2367.84 1880.2 2367.84 1886.28 2334.85 1863.13 2334.85 1857.46Z" stroke="#000000" stroke-linejoin="round" stroke-miterlimit="10" fill="#FFC000" fill-rule="evenodd"/><text fill="#000000" fill-opacity="0" font-family="Arial,Arial_MSFontService,sans-serif" font-size="51.9561" x="2334.85" y="1879.78">РЅф</text><path d="M2451.25 1828.2 2453.47 1828.2C2453.31 1830.79 2453.23 1834.39 2453.23 1838.98L2453.23 1873.59C2453.23 1875.16 2453.32 1876.34 2453.49 1877.14 2453.67 1877.93 2453.98 1878.58 2454.43 1879.08 2454.87 1879.58 2455.51 1879.97 2456.35 1880.26 2457.19 1880.54 2458.24 1880.76 2459.51 1880.91 2460.78 1881.05 2462.46 1881.16 2464.54 1881.21L2464.54 1884.17 2434.59 1884.17 2434.59 1881.21C2437.59 1881.07 2439.73 1880.89 2441.01 1880.66 2442.3 1880.43 2443.28 1880.09 2443.95 1879.63 2444.63 1879.17 2445.12 1878.52 2445.43 1877.68 2445.74 1876.85 2445.9 1875.48 2445.9 1873.59L2445.9 1840.72C2445.9 1839.64 2445.71 1838.85 2445.33 1838.35 2444.95 1837.85 2444.4 1837.6 2443.67 1837.6 2442.8 1837.6 2441.57 1838.05 2439.98 1838.94 2438.39 1839.83 2436.41 1841.06 2434.06 1842.63L2432.28 1839.51Z" stroke="#000000" stroke-linejoin="round" stroke-miterlimit="10" fill="#FFC000" fill-rule="evenodd"/><text fill="#000000" fill-opacity="0" font-family="Arial,Arial_MSFontService,sans-serif" font-size="55.9683" x="2432.28" y="1877.17">1</text><path d="M2480.91 1826.17 2487.15 1826.17 2487.15 1901.6 2480.91 1901.6Z" stroke="#000000" stroke-linejoin="round" stroke-miterlimit="10" fill="#FFC000" fill-rule="evenodd"/><text fill="#000000" fill-opacity="0" font-family="Arial,Arial_MSFontService,sans-serif" font-size="75.4214" x="2480.91" y="1892.17">|</text><path d="M2523.43 1828.2 2525.66 1828.2C2525.5 1830.79 2525.42 1834.39 2525.42 1838.98L2525.42 1873.59C2525.42 1875.16 2525.51 1876.34 2525.68 1877.14 2525.86 1877.93 2526.17 1878.58 2526.61 1879.08 2527.06 1879.58 2527.7 1879.97 2528.54 1880.26 2529.38 1880.54 2530.43 1880.76 2531.7 1880.91 2532.97 1881.05 2534.65 1881.16 2536.73 1881.21L2536.73 1884.17 2506.78 1884.17 2506.78 1881.21C2509.78 1881.07 2511.92 1880.89 2513.2 1880.66 2514.48 1880.43 2515.46 1880.09 2516.14 1879.63 2516.81 1879.17 2517.31 1878.52 2517.62 1877.68 2517.93 1876.85 2518.08 1875.48 2518.08 1873.59L2518.08 1840.72C2518.08 1839.64 2517.89 1838.85 2517.52 1838.35 2517.14 1837.85 2516.58 1837.6 2515.85 1837.6 2514.99 1837.6 2513.76 1838.05 2512.17 1838.94 2510.57 1839.83 2508.6 1841.06 2506.25 1842.63L2504.47 1839.51Z" stroke="#000000" stroke-linejoin="round" stroke-miterlimit="10" fill="#FFC000" fill-rule="evenodd"/><text fill="#000000" fill-opacity="0" font-family="Arial,Arial_MSFontService,sans-serif" font-size="55.9683" x="2504.47" y="1877.17">1</text><path d="M2618.42 1834.4 2624.18 1834.4 2624.18 1857.74 2646.26 1857.74 2646.26 1863.13 2624.18 1863.13 2624.18 1886.48 2618.42 1886.48 2618.42 1863.13 2596.33 1863.13 2596.33 1857.74 2618.42 1857.74Z" stroke="#000000" stroke-linejoin="round" stroke-miterlimit="10" fill="#FFC000" fill-rule="evenodd"/><text fill="#000000" fill-opacity="0" font-family="Arial,Arial_MSFontService,sans-serif" font-size="52.0776" x="2596.33" y="1879.97">+</text><path d="M2658.21 1866.17 2708.14 1866.17 2708.14 1871.56 2658.21 1871.56ZM2658.21 1849.36 2708.14 1849.36 2708.14 1854.75 2658.21 1854.75Z" stroke="#000000" stroke-linejoin="round" stroke-miterlimit="10" fill="#FFC000" fill-rule="evenodd"/><text fill="#000000" fill-opacity="0" font-family="Arial,Arial_MSFontService,sans-serif" font-size="22.209" x="2658.21" y="1868.79">=</text><path d="M2775.34 1844.57C2777.29 1844.57 2778.69 1845.08 2779.56 1846.09 2780.42 1847.11 2780.85 1848.46 2780.85 1850.17 2780.85 1851.46 2780.62 1852.95 2780.16 1854.62 2779.7 1856.3 2779.06 1858.07 2778.22 1859.93 2777.38 1861.8 2776.38 1863.71 2775.22 1865.67 2774.06 1867.63 2772.77 1869.53 2771.37 1871.38 2769.96 1873.23 2768.46 1874.98 2766.87 1876.61 2765.28 1878.24 2763.62 1879.67 2761.91 1880.89 2760.19 1882.1 2758.45 1883.07 2756.68 1883.78 2754.91 1884.5 2753.14 1884.86 2751.39 1884.86 2750.61 1884.86 2749.95 1884.66 2749.42 1884.27 2748.9 1883.88 2748.47 1883.32 2748.15 1882.61 2747.82 1881.89 2747.59 1881.05 2747.46 1880.08 2747.32 1879.1 2747.25 1878.04 2747.25 1876.87 2747.25 1875.33 2747.35 1873.69 2747.54 1871.93 2747.73 1870.17 2747.97 1868.4 2748.27 1866.62L2749.97 1855.39C2750.08 1854.75 2750.17 1854.13 2750.23 1853.55 2750.3 1852.97 2750.33 1852.54 2750.33 1852.27 2750.33 1851.44 2750.2 1850.75 2749.93 1850.21 2749.66 1849.67 2749.2 1849.4 2748.55 1849.4 2748.04 1849.4 2747.48 1849.55 2746.89 1849.86 2746.3 1850.17 2745.69 1850.57 2745.09 1851.06 2744.48 1851.54 2743.89 1852.06 2743.32 1852.62 2742.76 1853.17 2742.23 1853.69 2741.74 1854.18L2739.8 1851.91C2740.64 1851.04 2741.53 1850.19 2742.47 1849.34 2743.42 1848.48 2744.42 1847.71 2745.47 1847.03 2746.53 1846.34 2747.63 1845.78 2748.79 1845.36 2749.96 1844.94 2751.15 1844.74 2752.36 1844.74 2753.39 1844.74 2754.23 1844.9 2754.87 1845.24 2755.52 1845.58 2756.03 1846.03 2756.39 1846.58 2756.76 1847.13 2757.01 1847.74 2757.14 1848.4 2757.28 1849.07 2757.35 1849.72 2757.35 1850.37 2757.35 1850.75 2757.33 1851.11 2757.31 1851.46 2757.28 1851.81 2757.24 1852.14 2757.18 1852.44L2754.91 1867.11C2754.67 1868.65 2754.47 1870.15 2754.31 1871.63 2754.14 1873.1 2754.06 1874.4 2754.06 1875.54 2754.06 1876.67 2754.13 1877.59 2754.27 1878.29 2754.4 1878.99 2754.66 1879.35 2755.04 1879.35 2755.93 1879.35 2757.05 1878.99 2758.4 1878.27 2759.75 1877.56 2761.17 1876.57 2762.66 1875.31 2764.14 1874.06 2765.63 1872.57 2767.11 1870.86 2768.6 1869.14 2769.94 1867.28 2771.13 1865.28 2772.31 1863.28 2773.28 1861.18 2774.02 1858.96 2774.77 1856.75 2775.14 1854.52 2775.14 1852.27 2775.14 1851.3 2774.93 1850.55 2774.51 1850.02 2774.09 1849.5 2773.44 1849.23 2772.54 1849.23 2771.41 1849.23 2770.36 1849.67 2769.4 1850.55 2768.44 1851.43 2767.45 1852.58 2766.42 1854.02L2764.11 1851.95C2764.76 1850.98 2765.53 1850.04 2766.4 1849.15 2767.28 1848.26 2768.21 1847.48 2769.2 1846.8 2770.19 1846.13 2771.21 1845.59 2772.26 1845.18 2773.31 1844.78 2774.34 1844.57 2775.34 1844.57Z" stroke="#000000" stroke-linejoin="round" stroke-miterlimit="10" fill="#FFC000" fill-rule="evenodd"/><text fill="#000000" fill-opacity="0" font-family="Arial,Arial_MSFontService,sans-serif" font-size="40.2842" x="2739.8" y="1879.82">­ЮЉБ</text><path d="M1887.5 2004.33C1887.5 1983.99 1903.99 1967.5 1924.33 1967.5L2002.67 1967.5 1945.18 1931.04 2175.42 1967.5 2541.67 1967.5C2562.01 1967.5 2578.5 1983.99 2578.5 2004.33L2578.5 2004.33 2578.5 2004.33 2578.5 2059.58 2578.5 2151.67C2578.5 2172.01 2562.01 2188.5 2541.67 2188.5L2175.42 2188.5 2002.67 2188.5 2002.67 2188.5 1924.33 2188.5C1903.99 2188.5 1887.5 2172.01 1887.5 2151.67L1887.5 2059.58 1887.5 2004.33 1887.5 2004.33Z" stroke="#2F528F" stroke-width="4.58333" stroke-miterlimit="8" fill="#4472C4" fill-rule="evenodd"/><path d="M2023.57 2069.05C2020.76 2069.05 2018.31 2070.22 2016.21 2072.57 2014.12 2074.92 2012.47 2078.29 2011.27 2082.66 2010.07 2087.04 2009.46 2090.81 2009.46 2093.97 2009.46 2096.94 2010.08 2099.14 2011.31 2100.56 2012.54 2101.98 2014.4 2102.68 2016.88 2102.68 2019.53 2102.68 2021.88 2101.5 2023.93 2099.12 2025.99 2096.74 2027.61 2093.41 2028.8 2089.13 2029.98 2084.85 2030.58 2081.08 2030.58 2077.84 2030.58 2074.92 2030.01 2072.73 2028.88 2071.26 2027.74 2069.78 2025.97 2069.05 2023.57 2069.05ZM2044.59 2066.45 2055.21 2066.45 2057.64 2098.43C2061.45 2092.21 2064.2 2087.49 2065.89 2084.24 2067.57 2081 2068.82 2078.2 2069.63 2075.83 2070.45 2073.47 2071.07 2071.01 2071.5 2068.44L2071.94 2066.45 2077.78 2066.45 2080.74 2098.47C2084.95 2092.47 2088.16 2087.24 2090.36 2082.77 2092.57 2078.29 2093.67 2074.65 2093.67 2071.84 2093.67 2070.57 2093.4 2069.71 2092.86 2069.25 2092.32 2068.79 2091.4 2068.52 2090.1 2068.44L2090.51 2066.45 2100.96 2066.45 2102.06 2068.48C2101.11 2070.88 2100.35 2072.73 2099.79 2074.03 2099.22 2075.33 2098.48 2076.89 2097.56 2078.71 2096.64 2080.54 2095.67 2082.35 2094.64 2084.16 2093.61 2085.97 2092.4 2087.97 2091.01 2090.14 2089.62 2092.32 2088.06 2094.68 2086.33 2097.23 2084.6 2099.79 2082.56 2102.66 2080.21 2105.85L2075.39 2105.85 2073.73 2088.91C2073.59 2087.58 2073.45 2085.85 2073.3 2083.72 2073.15 2081.58 2073.05 2079.94 2073 2078.77L2072.55 2078.73C2071.09 2082.33 2069.11 2086.32 2066.6 2090.73 2064.08 2095.13 2060.98 2100.17 2057.27 2105.85L2051.84 2105.85 2048.76 2075.33C2048.6 2073.76 2048.4 2072.49 2048.16 2071.52 2047.91 2070.55 2047.51 2069.82 2046.94 2069.33 2046.37 2068.84 2045.44 2068.55 2044.14 2068.44ZM2024.38 2065.8C2028.7 2065.8 2032 2066.99 2034.27 2069.35 2036.54 2071.71 2037.67 2075.1 2037.67 2079.5 2037.67 2082.64 2037.12 2085.99 2036.03 2089.55 2034.94 2093.12 2033.44 2096.12 2031.53 2098.55 2029.63 2100.98 2027.35 2102.81 2024.7 2104.04 2022.05 2105.27 2019.02 2105.89 2015.58 2105.89 2011.4 2105.89 2008.15 2104.71 2005.84 2102.36 2003.53 2100.01 2002.37 2096.63 2002.37 2092.23 2002.37 2090.07 2002.7 2087.57 2003.34 2084.73 2004.18 2080.89 2005.59 2077.54 2007.56 2074.68 2009.53 2071.82 2011.96 2069.62 2014.85 2068.09 2017.75 2066.57 2020.92 2065.8 2024.38 2065.8ZM1962.68 2065.76C1964.38 2065.76 1965.73 2066.32 1966.71 2067.45 1967.7 2068.57 1968.19 2070.03 1968.19 2071.84 1968.19 2073.27 1967.87 2074.87 1967.22 2076.63L1967.71 2076.79C1970.35 2073.06 1972.87 2070.3 1975.26 2068.5 1977.66 2066.7 1980.12 2065.8 1982.66 2065.8 1985.17 2065.8 1987.1 2066.53 1988.46 2067.97 1989.81 2069.42 1990.48 2071.42 1990.48 2073.99 1990.48 2075.69 1990.09 2078.11 1989.31 2081.25L1986.67 2091.86C1985.94 2094.81 1985.58 2096.89 1985.58 2098.1 1985.58 2099.19 1985.75 2099.97 1986.1 2100.46 1986.46 2100.94 1987.01 2101.18 1987.77 2101.18 1988.58 2101.18 1989.44 2100.85 1990.36 2100.19 1991.28 2099.53 1992.58 2098.27 1994.25 2096.4L1996.56 2098.67C1994.24 2101.16 1992.21 2102.97 1990.48 2104.12 1988.75 2105.27 1986.78 2105.85 1984.56 2105.85 1982.81 2105.85 1981.4 2105.22 1980.35 2103.96 1979.3 2102.7 1978.77 2101.1 1978.77 2099.16 1978.77 2097.4 1979.22 2094.82 1980.11 2091.42L1981.89 2084.41C1982.54 2081.87 1982.96 2079.99 1983.17 2078.77 1983.37 2077.56 1983.47 2076.57 1983.47 2075.81 1983.47 2073.95 1983.16 2072.61 1982.54 2071.78 1981.92 2070.96 1980.9 2070.55 1979.5 2070.55 1978.36 2070.55 1977.14 2071 1975.83 2071.9 1974.52 2072.81 1973.13 2074.17 1971.66 2076 1970.18 2077.82 1969 2079.59 1968.11 2081.31 1967.22 2083.02 1966.49 2085.14 1965.92 2087.65L1962.07 2105.2 1955.06 2105.2 1960.98 2079.5C1961.57 2076.91 1961.87 2074.91 1961.87 2073.5 1961.87 2072.42 1961.69 2071.64 1961.34 2071.15 1960.99 2070.67 1960.44 2070.42 1959.68 2070.42 1958.84 2070.42 1957.96 2070.77 1957.03 2071.46 1956.09 2072.15 1954.82 2073.4 1953.2 2075.21L1950.89 2072.94C1953.37 2070.34 1955.44 2068.5 1957.09 2067.41 1958.74 2066.31 1960.6 2065.76 1962.68 2065.76Z" fill="#FFFFFF" fill-rule="evenodd"/><text fill="#000000" fill-opacity="0" font-family="Arial,Arial_MSFontService,sans-serif" font-size="40.1221" x="1950.89" y="2100.87">­ЮЉЏ­ЮЉю­ЮЉц</text><path d="M2116.33 2085.62 2116.33 2104.18 2134.16 2104.18 2134.16 2085.62ZM2152.77 2075.98C2157.09 2080.46 2161.44 2085.53 2165.82 2091.17L2161.24 2094.66C2157.59 2089.01 2153.44 2083.89 2148.79 2079.3ZM2116.33 2063.05 2116.33 2081.61 2134.16 2081.61 2134.16 2063.05ZM2122.82 2041.2 2128.69 2042.78C2129.53 2043 2129.95 2043.24 2129.95 2043.51 2130 2043.87 2129.67 2044.26 2128.94 2044.69 2127.88 2045.37 2127.11 2046.47 2126.63 2048.01 2125.3 2051.71 2123.95 2055.33 2122.57 2058.87L2131.61 2058.87C2133.99 2058.87 2136.5 2058.71 2139.15 2058.39 2138.82 2061.71 2138.66 2064.45 2138.66 2066.61L2138.66 2106.21C2138.66 2108.02 2138.82 2110.32 2139.15 2113.1L2133.6 2113.1C2133.87 2111.37 2134.03 2109.79 2134.08 2108.36L2116.17 2108.36C2116.17 2110.22 2116.33 2112.63 2116.66 2115.57L2111.35 2115.57C2111.7 2112.19 2111.87 2109.71 2111.87 2108.11L2111.87 2066.61C2111.87 2064.56 2111.7 2061.82 2111.35 2058.39 2113.51 2058.71 2115.7 2058.87 2117.91 2058.87 2120.24 2052.8 2121.87 2046.91 2122.82 2041.2ZM2153.78 2040.72 2159.74 2042.78C2160.52 2043.06 2160.86 2043.3 2160.75 2043.51 2160.75 2043.81 2160.3 2044.28 2159.41 2044.93 2158.63 2045.45 2157.99 2046.42 2157.51 2047.85 2156.13 2051.77 2154.78 2055.31 2153.46 2058.47L2170.03 2058.47C2172.03 2058.47 2174.35 2058.31 2177 2057.98 2176.68 2061.47 2176.52 2064.32 2176.52 2066.53L2176.11 2104.95C2176.16 2109.44 2175.03 2112.48 2172.71 2114.07 2170.49 2115.86 2165.87 2117.1 2158.85 2117.8 2158.6 2115.77 2157.76 2113.65 2156.33 2111.44 2158.31 2111.63 2160.07 2111.72 2161.64 2111.72 2164.51 2111.72 2166.64 2111.4 2168.05 2110.75 2170.21 2109.8 2171.29 2107.79 2171.29 2104.71L2171.94 2062.6 2151.79 2062.6C2149.79 2066.39 2147.71 2069.94 2145.55 2073.26 2143.5 2072.07 2141.51 2071.13 2139.59 2070.42 2146.57 2063.78 2151.29 2053.88 2153.78 2040.72Z" fill="#FFFFFF" fill-rule="evenodd"/><text fill="#000000" fill-opacity="0" font-family="Arial,Arial_MSFontService,sans-serif" font-size="77.083" x="2111.35" y="2108.17">уџё</text><text fill="#FFFFFF" font-family="DengXian,DengXian_MSFontService,sans-serif" font-weight="400" font-size="83" transform="matrix(1 0 0 1 2184.81 2105)">тидтЈ│тГљТаЉ</text></g></svg>