<?xml version="1.0" encoding="utf-8" standalone="no"?>
<!DOCTYPE svg PUBLIC "-//W3C//DTD SVG 1.1//EN"
  "http://www.w3.org/Graphics/SVG/1.1/DTD/svg11.dtd">
<svg xmlns:xlink="http://www.w3.org/1999/xlink" width="720pt" height="504pt" viewBox="0 0 720 504" xmlns="http://www.w3.org/2000/svg" version="1.1">
 <metadata>
  <rdf:RDF xmlns:dc="http://purl.org/dc/elements/1.1/" xmlns:cc="http://creativecommons.org/ns#" xmlns:rdf="http://www.w3.org/1999/02/22-rdf-syntax-ns#">
   <cc:Work>
    <dc:type rdf:resource="http://purl.org/dc/dcmitype/StillImage"/>
    <dc:date>2025-06-04T20:57:47.294663</dc:date>
    <dc:format>image/svg+xml</dc:format>
    <dc:creator>
     <cc:Agent>
      <dc:title>Matplotlib v3.10.1, https://matplotlib.org/</dc:title>
     </cc:Agent>
    </dc:creator>
   </cc:Work>
  </rdf:RDF>
 </metadata>
 <defs>
  <style type="text/css">*{stroke-linejoin: round; stroke-linecap: butt}</style>
 </defs>
 <g id="figure_1">
  <g id="patch_1">
   <path d="M 0 504 
L 720 504 
L 720 0 
L 0 0 
z
" style="fill: #ffffff"/>
  </g>
  <g id="axes_1">
   <g id="patch_2">
    <path d="M 352.589352 57.140015 
Q 277.545996 102.494827 204.416344 146.693032 
" clip-path="url(#p1735dd80ee)" style="fill: none; stroke: #000000; stroke-width: 2; stroke-linecap: round"/>
    <path d="M 208.874181 146.335699 
L 204.416344 146.693032 
L 206.80518 142.912362 
z
" clip-path="url(#p1735dd80ee)" style="stroke: #000000; stroke-width: 2; stroke-linecap: round"/>
   </g>
   <g id="patch_3">
    <path d="M 360 61.32079 
Q 360 102.494331 360 141.431805 
" clip-path="url(#p1735dd80ee)" style="fill: none; stroke: #000000; stroke-width: 2; stroke-linecap: round"/>
    <path d="M 362 137.431805 
L 360 141.431805 
L 358 137.431805 
z
" clip-path="url(#p1735dd80ee)" style="stroke: #000000; stroke-width: 2; stroke-linecap: round"/>
   </g>
   <g id="patch_4">
    <path d="M 367.410648 57.140015 
Q 442.454004 102.494827 515.583656 146.693032 
" clip-path="url(#p1735dd80ee)" style="fill: none; stroke: #000000; stroke-width: 2; stroke-linecap: round"/>
    <path d="M 513.19482 142.912362 
L 515.583656 146.693032 
L 511.125819 146.335699 
z
" clip-path="url(#p1735dd80ee)" style="stroke: #000000; stroke-width: 2; stroke-linecap: round"/>
   </g>
   <g id="patch_5">
    <path d="M 189.570194 159.000959 
Q 153.861514 202.164287 119.578178 243.604711 
" clip-path="url(#p1735dd80ee)" style="fill: none; stroke: #000000; stroke-width: 2; stroke-linecap: round"/>
    <path d="M 123.668922 241.797555 
L 119.578178 243.604711 
L 120.5869 239.247822 
z
" clip-path="url(#p1735dd80ee)" style="stroke: #000000; stroke-width: 2; stroke-linecap: round"/>
   </g>
   <g id="patch_6">
    <path d="M 109.322565 260.002632 
Q 92.01907 301.834277 75.57028 341.59965 
" clip-path="url(#p1735dd80ee)" style="fill: none; stroke: #000000; stroke-width: 2; stroke-linecap: round"/>
    <path d="M 78.947353 338.667862 
L 75.57028 341.59965 
L 75.251093 337.138919 
z
" clip-path="url(#p1735dd80ee)" style="stroke: #000000; stroke-width: 2; stroke-linecap: round"/>
   </g>
   <g id="patch_7">
    <path d="M 360 160.990211 
Q 360 202.163753 360 241.101227 
" clip-path="url(#p1735dd80ee)" style="fill: none; stroke: #000000; stroke-width: 2; stroke-linecap: round"/>
    <path d="M 362 237.101227 
L 360 241.101227 
L 358 237.101227 
z
" clip-path="url(#p1735dd80ee)" style="stroke: #000000; stroke-width: 2; stroke-linecap: round"/>
   </g>
   <g id="patch_8">
    <path d="M 354.481647 258.670381 
Q 318.772966 301.833708 284.48963 343.274133 
" clip-path="url(#p1735dd80ee)" style="fill: none; stroke: #000000; stroke-width: 2; stroke-linecap: round"/>
    <path d="M 288.580374 341.466977 
L 284.48963 343.274133 
L 285.498352 338.917244 
z
" clip-path="url(#p1735dd80ee)" style="stroke: #000000; stroke-width: 2; stroke-linecap: round"/>
   </g>
   <g id="patch_9">
    <path d="M 365.518353 258.670381 
Q 401.227034 301.833708 435.51037 343.274133 
" clip-path="url(#p1735dd80ee)" style="fill: none; stroke: #000000; stroke-width: 2; stroke-linecap: round"/>
    <path d="M 434.501648 338.917244 
L 435.51037 343.274133 
L 431.419626 341.466977 
z
" clip-path="url(#p1735dd80ee)" style="stroke: #000000; stroke-width: 2; stroke-linecap: round"/>
   </g>
   <g id="patch_10">
    <path d="M 530.429806 159.000959 
Q 566.138486 202.164287 600.421822 243.604711 
" clip-path="url(#p1735dd80ee)" style="fill: none; stroke: #000000; stroke-width: 2; stroke-linecap: round"/>
    <path d="M 599.4131 239.247822 
L 600.421822 243.604711 
L 596.331078 241.797555 
z
" clip-path="url(#p1735dd80ee)" style="stroke: #000000; stroke-width: 2; stroke-linecap: round"/>
   </g>
   <g id="patch_11">
    <path d="M 610.677435 260.002632 
Q 627.98093 301.834277 644.42972 341.59965 
" clip-path="url(#p1735dd80ee)" style="fill: none; stroke: #000000; stroke-width: 2; stroke-linecap: round"/>
    <path d="M 644.748907 337.138919 
L 644.42972 341.59965 
L 641.052647 338.667862 
z
" clip-path="url(#p1735dd80ee)" style="stroke: #000000; stroke-width: 2; stroke-linecap: round"/>
   </g>
   <g id="patch_12">
    <path d="M 445.765983 359.672054 
Q 463.069478 401.503698 479.518268 441.269071 
" clip-path="url(#p1735dd80ee)" style="fill: none; stroke: #000000; stroke-width: 2; stroke-linecap: round"/>
    <path d="M 479.837454 436.80834 
L 479.518268 441.269071 
L 476.141195 438.337284 
z
" clip-path="url(#p1735dd80ee)" style="stroke: #000000; stroke-width: 2; stroke-linecap: round"/>
   </g>
   <g id="patch_13">
    <path d="M 196.300041 150.736905 
Q 257.991911 70.144347 358.02633 52.992768 
" clip-path="url(#p1735dd80ee)" style="fill: none; stroke-dasharray: 7.4,3.2; stroke-dashoffset: 0; stroke: #0000ff; stroke-width: 2; stroke-linecap: round"/>
   </g>
   <g id="patch_14">
    <path d="M 348.078372 59.092907 
Q 352.151019 54.576105 355.876893 53.623794 
" clip-path="url(#p1735dd80ee)" style="fill: none; stroke: #0000ff; stroke-width: 2; stroke-linecap: round"/>
    <path d="M 342.764848 50.782269 
L 355.876893 53.623794 
L 345.736446 62.408515 
z
" clip-path="url(#p1735dd80ee)" style="fill: #0000ff; stroke: #0000ff; stroke-width: 2; stroke-linecap: round"/>
   </g>
   <g id="patch_15">
    <path d="M 360.731865 150.466035 
Q 379.202988 102.493351 360.729927 54.520667 
" clip-path="url(#p1735dd80ee)" style="fill: none; stroke-dasharray: 7.4,3.2; stroke-dashoffset: 0; stroke: #0000ff; stroke-width: 2; stroke-linecap: round"/>
   </g>
   <g id="patch_16">
    <path d="M 360.581329 58.723082 
Q 361.013023 56.649655 361.037103 56.765503 
" clip-path="url(#p1735dd80ee)" style="fill: none; stroke: #0000ff; stroke-width: 2; stroke-linecap: round"/>
    <path d="M 357.604758 69.73543 
L 361.037103 56.765503 
L 369.353638 67.293335 
z
" clip-path="url(#p1735dd80ee)" style="fill: #0000ff; stroke: #0000ff; stroke-width: 2; stroke-linecap: round"/>
   </g>
   <g id="patch_17">
    <path d="M 523.968436 150.565536 
Q 471.826486 53.895898 361.99682 52.675443 
" clip-path="url(#p1735dd80ee)" style="fill: none; stroke-dasharray: 7.4,3.2; stroke-dashoffset: 0; stroke: #0000ff; stroke-width: 2; stroke-linecap: round"/>
   </g>
   <g id="patch_18">
    <path d="M 372.167371 58.919135 
Q 368.502792 53.491665 364.215828 53.017249 
" clip-path="url(#p1735dd80ee)" style="fill: none; stroke: #0000ff; stroke-width: 2; stroke-linecap: round"/>
    <path d="M 375.483056 60.300763 
L 364.215828 53.017249 
L 376.802977 48.373575 
z
" clip-path="url(#p1735dd80ee)" style="fill: #0000ff; stroke: #0000ff; stroke-width: 2; stroke-linecap: round"/>
   </g>
   <g id="patch_19">
    <path d="M 114.310087 250.903505 
Q 226.498034 177.78872 358.03749 152.701987 
" clip-path="url(#p1735dd80ee)" style="fill: none; stroke-dasharray: 7.4,3.2; stroke-dashoffset: 0; stroke: #0000ff; stroke-width: 2; stroke-linecap: round"/>
   </g>
   <g id="patch_20">
    <path d="M 341.901048 159.238113 
Q 349.438975 154.67103 355.855742 153.226591 
" clip-path="url(#p1735dd80ee)" style="fill: none; stroke: #0000ff; stroke-width: 2; stroke-linecap: round"/>
    <path d="M 342.831034 150.008366 
L 355.855742 153.226591 
L 345.466337 161.715423 
z
" clip-path="url(#p1735dd80ee)" style="fill: #0000ff; stroke: #0000ff; stroke-width: 2; stroke-linecap: round"/>
   </g>
   <g id="patch_21">
    <path d="M 72.693323 350.14083 
Q 186.136164 216.22419 358.043345 251.592355 
" clip-path="url(#p1735dd80ee)" style="fill: none; stroke-dasharray: 7.4,3.2; stroke-dashoffset: 0; stroke: #0000ff; stroke-width: 2; stroke-linecap: round"/>
   </g>
   <g id="patch_22">
    <path d="M 338.243865 258.485568 
Q 346.380287 249.980219 355.817486 251.333066 
" clip-path="url(#p1735dd80ee)" style="fill: none; stroke: #0000ff; stroke-width: 2; stroke-linecap: round"/>
    <path d="M 344.790329 243.690959 
L 355.817486 251.333066 
L 343.087506 255.569527 
z
" clip-path="url(#p1735dd80ee)" style="fill: #0000ff; stroke: #0000ff; stroke-width: 2; stroke-linecap: round"/>
   </g>
   <g id="patch_23">
    <path d="M 361.24332 250.43354 
Q 438.492311 152.330459 361.243132 54.227378 
" clip-path="url(#p1735dd80ee)" style="fill: none; stroke-dasharray: 7.4,3.2; stroke-dashoffset: 0; stroke: #0000ff; stroke-width: 2; stroke-linecap: round"/>
   </g>
   <g id="patch_24">
    <path d="M 361.166589 66.984743 
Q 365.211436 60.635995 362.369371 56.173315 
" clip-path="url(#p1735dd80ee)" style="fill: none; stroke: #0000ff; stroke-width: 2; stroke-linecap: round"/>
    <path d="M 363.754541 69.518026 
L 362.369371 56.173315 
L 373.876242 63.072005 
z
" clip-path="url(#p1735dd80ee)" style="fill: #0000ff; stroke: #0000ff; stroke-width: 2; stroke-linecap: round"/>
   </g>
   <g id="patch_25">
    <path d="M 276.151914 350.232774 
Q 197.129022 268.208096 195.117869 154.327816 
" clip-path="url(#p1735dd80ee)" style="fill: none; stroke-dasharray: 7.4,3.2; stroke-dashoffset: 0; stroke: #0000ff; stroke-width: 2; stroke-linecap: round"/>
   </g>
   <g id="patch_26">
    <path d="M 200.344969 166.793891 
Q 195.816561 161.365754 195.386819 156.551672 
" clip-path="url(#p1735dd80ee)" style="fill: none; stroke: #0000ff; stroke-width: 2; stroke-linecap: round"/>
    <path d="M 190.477553 169.037629 
L 195.386819 156.551672 
L 202.430025 167.970658 
z
" clip-path="url(#p1735dd80ee)" style="fill: #0000ff; stroke: #0000ff; stroke-width: 2; stroke-linecap: round"/>
   </g>
   <g id="patch_27">
    <path d="M 442.986493 349.743374 
Q 489.943498 177.700668 361.44288 54.042864 
" clip-path="url(#p1735dd80ee)" style="fill: none; stroke-dasharray: 7.4,3.2; stroke-dashoffset: 0; stroke: #0000ff; stroke-width: 2; stroke-linecap: round"/>
   </g>
   <g id="patch_28">
    <path d="M 367.071542 74.637841 
Q 369.534634 62.90212 362.920913 55.731221 
" clip-path="url(#p1735dd80ee)" style="fill: none; stroke: #0000ff; stroke-width: 2; stroke-linecap: round"/>
    <path d="M 366.646046 68.620107 
L 362.920913 55.731221 
L 375.467101 60.484446 
z
" clip-path="url(#p1735dd80ee)" style="fill: #0000ff; stroke: #0000ff; stroke-width: 2; stroke-linecap: round"/>
   </g>
   <g id="patch_29">
    <path d="M 607.148848 250.011191 
Q 582.467175 29.745059 361.987661 52.451941 
" clip-path="url(#p1735dd80ee)" style="fill: none; stroke-dasharray: 7.4,3.2; stroke-dashoffset: 0; stroke: #0000ff; stroke-width: 2; stroke-linecap: round"/>
   </g>
   <g id="patch_30">
    <path d="M 379.517131 66.627179 
Q 377.007366 51.807195 364.22545 52.402163 
" clip-path="url(#p1735dd80ee)" style="fill: none; stroke: #0000ff; stroke-width: 2; stroke-linecap: round"/>
    <path d="M 376.491455 57.837706 
L 364.22545 52.402163 
L 375.933487 45.850685 
z
" clip-path="url(#p1735dd80ee)" style="fill: #0000ff; stroke: #0000ff; stroke-width: 2; stroke-linecap: round"/>
   </g>
   <g id="patch_31">
    <path d="M 648.808573 349.678743 
Q 682.597541 30.071965 361.990834 52.518724 
" clip-path="url(#p1735dd80ee)" style="fill: none; stroke-dasharray: 7.4,3.2; stroke-dashoffset: 0; stroke: #0000ff; stroke-width: 2; stroke-linecap: round"/>
   </g>
   <g id="patch_32">
    <path d="M 383.264252 74.592369 
Q 384.81049 51.818946 364.233916 52.482853 
" clip-path="url(#p1735dd80ee)" style="fill: none; stroke: #0000ff; stroke-width: 2; stroke-linecap: round"/>
    <path d="M 376.421164 58.092751 
L 364.233916 52.482853 
L 376.034184 46.098993 
z
" clip-path="url(#p1735dd80ee)" style="fill: #0000ff; stroke: #0000ff; stroke-width: 2; stroke-linecap: round"/>
   </g>
   <g id="patch_33">
    <path d="M 484.410558 449.476114 
Q 580.122464 202.896124 361.654129 53.785698 
" clip-path="url(#p1735dd80ee)" style="fill: none; stroke-dasharray: 7.4,3.2; stroke-dashoffset: 0; stroke: #0000ff; stroke-width: 2; stroke-linecap: round"/>
   </g>
   <g id="patch_34">
    <path d="M 370.581323 82.675679 
Q 376.547531 65.007359 363.414979 55.160564 
" clip-path="url(#p1735dd80ee)" style="fill: none; stroke: #0000ff; stroke-width: 2; stroke-linecap: round"/>
    <path d="M 369.416511 67.159798 
L 363.414979 55.160564 
L 376.615285 57.558879 
z
" clip-path="url(#p1735dd80ee)" style="fill: #0000ff; stroke: #0000ff; stroke-width: 2; stroke-linecap: round"/>
   </g>
   <g id="PathCollection_1">
    <defs>
     <path id="mbe5a70ce2d" d="M 0 35.355339 
C 9.376346 35.355339 18.369923 31.630078 25 25 
C 31.630078 18.369923 35.355339 9.376346 35.355339 0 
C 35.355339 -9.376346 31.630078 -18.369923 25 -25 
C 18.369923 -31.630078 9.376346 -35.355339 0 -35.355339 
C -9.376346 -35.355339 -18.369923 -31.630078 -25 -25 
C -31.630078 -18.369923 -35.355339 -9.376346 -35.355339 0 
C -35.355339 9.376346 -31.630078 18.369923 -25 25 
C -18.369923 31.630078 -9.376346 35.355339 0 35.355339 
z
" style="stroke: #000000"/>
    </defs>
    <g clip-path="url(#p1735dd80ee)">
     <use xlink:href="#mbe5a70ce2d" x="360" y="52.661157" style="fill: #ffffff; stroke: #000000"/>
     <use xlink:href="#mbe5a70ce2d" x="195.088548" y="152.330579" style="fill: #ffffff; stroke: #000000"/>
     <use xlink:href="#mbe5a70ce2d" x="360" y="152.330579" style="fill: #ffffff; stroke: #000000"/>
     <use xlink:href="#mbe5a70ce2d" x="524.911452" y="152.330579" style="fill: #ffffff; stroke: #000000"/>
     <use xlink:href="#mbe5a70ce2d" x="112.632822" y="252" style="fill: #ffffff; stroke: #000000"/>
     <use xlink:href="#mbe5a70ce2d" x="360" y="252" style="fill: #ffffff; stroke: #000000"/>
     <use xlink:href="#mbe5a70ce2d" x="442.455726" y="351.669421" style="fill: #ffffff; stroke: #000000"/>
     <use xlink:href="#mbe5a70ce2d" x="607.367178" y="252" style="fill: #ffffff; stroke: #000000"/>
     <use xlink:href="#mbe5a70ce2d" x="71.404959" y="351.669421" style="fill: #ffffff; stroke: #000000"/>
     <use xlink:href="#mbe5a70ce2d" x="277.544274" y="351.669421" style="fill: #ffffff; stroke: #000000"/>
     <use xlink:href="#mbe5a70ce2d" x="648.595041" y="351.669421" style="fill: #ffffff; stroke: #000000"/>
     <use xlink:href="#mbe5a70ce2d" x="483.683589" y="451.338843" style="fill: #ffffff; stroke: #000000"/>
    </g>
   </g>
   <g id="PathCollection_2">
    <defs>
     <path id="ma931b69369" d="M 0 35.355339 
C 9.376346 35.355339 18.369923 31.630078 25 25 
C 31.630078 18.369923 35.355339 9.376346 35.355339 0 
C 35.355339 -9.376346 31.630078 -18.369923 25 -25 
C 18.369923 -31.630078 9.376346 -35.355339 0 -35.355339 
C -9.376346 -35.355339 -18.369923 -31.630078 -25 -25 
C -31.630078 -18.369923 -35.355339 -9.376346 -35.355339 0 
C -35.355339 9.376346 -31.630078 18.369923 -25 25 
C -18.369923 31.630078 -9.376346 35.355339 0 35.355339 
z
" style="stroke: #000000"/>
    </defs>
    <g clip-path="url(#p1735dd80ee)">
     <use xlink:href="#ma931b69369" x="277.544274" y="351.669421" style="fill: #adff2f; stroke: #000000"/>
     <use xlink:href="#ma931b69369" x="483.683589" y="451.338843" style="fill: #adff2f; stroke: #000000"/>
     <use xlink:href="#ma931b69369" x="648.595041" y="351.669421" style="fill: #adff2f; stroke: #000000"/>
     <use xlink:href="#ma931b69369" x="71.404959" y="351.669421" style="fill: #adff2f; stroke: #000000"/>
    </g>
   </g>
   <g id="text_1">
    <g clip-path="url(#p1735dd80ee)">
     <!-- root -->
     <g transform="translate(327.93 61.491157) scale(0.32 -0.32)">
      <defs>
       <path id="DejaVuSans-72" d="M 2631 2963 
Q 2534 3019 2420 3045 
Q 2306 3072 2169 3072 
Q 1681 3072 1420 2755 
Q 1159 2438 1159 1844 
L 1159 0 
L 581 0 
L 581 3500 
L 1159 3500 
L 1159 2956 
Q 1341 3275 1631 3429 
Q 1922 3584 2338 3584 
Q 2397 3584 2469 3576 
Q 2541 3569 2628 3553 
L 2631 2963 
z
" transform="scale(0.015625)"/>
       <path id="DejaVuSans-6f" d="M 1959 3097 
Q 1497 3097 1228 2736 
Q 959 2375 959 1747 
Q 959 1119 1226 758 
Q 1494 397 1959 397 
Q 2419 397 2687 759 
Q 2956 1122 2956 1747 
Q 2956 2369 2687 2733 
Q 2419 3097 1959 3097 
z
M 1959 3584 
Q 2709 3584 3137 3096 
Q 3566 2609 3566 1747 
Q 3566 888 3137 398 
Q 2709 -91 1959 -91 
Q 1206 -91 779 398 
Q 353 888 353 1747 
Q 353 2609 779 3096 
Q 1206 3584 1959 3584 
z
" transform="scale(0.015625)"/>
       <path id="DejaVuSans-74" d="M 1172 4494 
L 1172 3500 
L 2356 3500 
L 2356 3053 
L 1172 3053 
L 1172 1153 
Q 1172 725 1289 603 
Q 1406 481 1766 481 
L 2356 481 
L 2356 0 
L 1766 0 
Q 1100 0 847 248 
Q 594 497 594 1153 
L 594 3053 
L 172 3053 
L 172 3500 
L 594 3500 
L 594 4494 
L 1172 4494 
z
" transform="scale(0.015625)"/>
      </defs>
      <use xlink:href="#DejaVuSans-72"/>
      <use xlink:href="#DejaVuSans-6f" transform="translate(38.863281 0)"/>
      <use xlink:href="#DejaVuSans-6f" transform="translate(100.044922 0)"/>
      <use xlink:href="#DejaVuSans-74" transform="translate(161.226562 0)"/>
     </g>
    </g>
   </g>
   <g id="text_2">
    <g clip-path="url(#p1735dd80ee)">
     <!-- a -->
     <g transform="translate(185.283548 161.160579) scale(0.32 -0.32)">
      <defs>
       <path id="DejaVuSans-61" d="M 2194 1759 
Q 1497 1759 1228 1600 
Q 959 1441 959 1056 
Q 959 750 1161 570 
Q 1363 391 1709 391 
Q 2188 391 2477 730 
Q 2766 1069 2766 1631 
L 2766 1759 
L 2194 1759 
z
M 3341 1997 
L 3341 0 
L 2766 0 
L 2766 531 
Q 2569 213 2275 61 
Q 1981 -91 1556 -91 
Q 1019 -91 701 211 
Q 384 513 384 1019 
Q 384 1609 779 1909 
Q 1175 2209 1959 2209 
L 2766 2209 
L 2766 2266 
Q 2766 2663 2505 2880 
Q 2244 3097 1772 3097 
Q 1472 3097 1187 3025 
Q 903 2953 641 2809 
L 641 3341 
Q 956 3463 1253 3523 
Q 1550 3584 1831 3584 
Q 2591 3584 2966 3190 
Q 3341 2797 3341 1997 
z
" transform="scale(0.015625)"/>
      </defs>
      <use xlink:href="#DejaVuSans-61"/>
     </g>
    </g>
   </g>
   <g id="text_3">
    <g clip-path="url(#p1735dd80ee)">
     <!-- s -->
     <g transform="translate(351.665 161.160579) scale(0.32 -0.32)">
      <defs>
       <path id="DejaVuSans-73" d="M 2834 3397 
L 2834 2853 
Q 2591 2978 2328 3040 
Q 2066 3103 1784 3103 
Q 1356 3103 1142 2972 
Q 928 2841 928 2578 
Q 928 2378 1081 2264 
Q 1234 2150 1697 2047 
L 1894 2003 
Q 2506 1872 2764 1633 
Q 3022 1394 3022 966 
Q 3022 478 2636 193 
Q 2250 -91 1575 -91 
Q 1294 -91 989 -36 
Q 684 19 347 128 
L 347 722 
Q 666 556 975 473 
Q 1284 391 1588 391 
Q 1994 391 2212 530 
Q 2431 669 2431 922 
Q 2431 1156 2273 1281 
Q 2116 1406 1581 1522 
L 1381 1569 
Q 847 1681 609 1914 
Q 372 2147 372 2553 
Q 372 3047 722 3315 
Q 1072 3584 1716 3584 
Q 2034 3584 2315 3537 
Q 2597 3491 2834 3397 
z
" transform="scale(0.015625)"/>
      </defs>
      <use xlink:href="#DejaVuSans-73"/>
     </g>
    </g>
   </g>
   <g id="text_4">
    <g clip-path="url(#p1735dd80ee)">
     <!-- b -->
     <g transform="translate(514.753952 161.160579) scale(0.32 -0.32)">
      <defs>
       <path id="DejaVuSans-62" d="M 3116 1747 
Q 3116 2381 2855 2742 
Q 2594 3103 2138 3103 
Q 1681 3103 1420 2742 
Q 1159 2381 1159 1747 
Q 1159 1113 1420 752 
Q 1681 391 2138 391 
Q 2594 391 2855 752 
Q 3116 1113 3116 1747 
z
M 1159 2969 
Q 1341 3281 1617 3432 
Q 1894 3584 2278 3584 
Q 2916 3584 3314 3078 
Q 3713 2572 3713 1747 
Q 3713 922 3314 415 
Q 2916 -91 2278 -91 
Q 1894 -91 1617 61 
Q 1341 213 1159 525 
L 1159 0 
L 581 0 
L 581 4863 
L 1159 4863 
L 1159 2969 
z
" transform="scale(0.015625)"/>
      </defs>
      <use xlink:href="#DejaVuSans-62"/>
     </g>
    </g>
   </g>
   <g id="text_5">
    <g clip-path="url(#p1735dd80ee)">
     <!-- s -->
     <g transform="translate(104.297822 260.83) scale(0.32 -0.32)">
      <use xlink:href="#DejaVuSans-73"/>
     </g>
    </g>
   </g>
   <g id="text_6">
    <g clip-path="url(#p1735dd80ee)">
     <!-- p -->
     <g transform="translate(349.8425 260.83) scale(0.32 -0.32)">
      <defs>
       <path id="DejaVuSans-70" d="M 1159 525 
L 1159 -1331 
L 581 -1331 
L 581 3500 
L 1159 3500 
L 1159 2969 
Q 1341 3281 1617 3432 
Q 1894 3584 2278 3584 
Q 2916 3584 3314 3078 
Q 3713 2572 3713 1747 
Q 3713 922 3314 415 
Q 2916 -91 2278 -91 
Q 1894 -91 1617 61 
Q 1341 213 1159 525 
z
M 3116 1747 
Q 3116 2381 2855 2742 
Q 2594 3103 2138 3103 
Q 1681 3103 1420 2742 
Q 1159 2381 1159 1747 
Q 1159 1113 1420 752 
Q 1681 391 2138 391 
Q 2594 391 2855 752 
Q 3116 1113 3116 1747 
z
" transform="scale(0.015625)"/>
      </defs>
      <use xlink:href="#DejaVuSans-70"/>
     </g>
    </g>
   </g>
   <g id="text_7">
    <g clip-path="url(#p1735dd80ee)">
     <!-- p -->
     <g transform="translate(61.247459 360.499421) scale(0.32 -0.32)">
      <use xlink:href="#DejaVuSans-70"/>
     </g>
    </g>
   </g>
   <g id="text_8">
    <g clip-path="url(#p1735dd80ee)">
     <!-- a -->
     <g transform="translate(267.739274 360.499421) scale(0.32 -0.32)">
      <use xlink:href="#DejaVuSans-61"/>
     </g>
    </g>
   </g>
   <g id="text_9">
    <g clip-path="url(#p1735dd80ee)">
     <!-- e -->
     <g transform="translate(432.610726 360.499421) scale(0.32 -0.32)">
      <defs>
       <path id="DejaVuSans-65" d="M 3597 1894 
L 3597 1613 
L 953 1613 
Q 991 1019 1311 708 
Q 1631 397 2203 397 
Q 2534 397 2845 478 
Q 3156 559 3463 722 
L 3463 178 
Q 3153 47 2828 -22 
Q 2503 -91 2169 -91 
Q 1331 -91 842 396 
Q 353 884 353 1716 
Q 353 2575 817 3079 
Q 1281 3584 2069 3584 
Q 2775 3584 3186 3129 
Q 3597 2675 3597 1894 
z
M 3022 2063 
Q 3016 2534 2758 2815 
Q 2500 3097 2075 3097 
Q 1594 3097 1305 2825 
Q 1016 2553 972 2059 
L 3022 2063 
z
" transform="scale(0.015625)"/>
      </defs>
      <use xlink:href="#DejaVuSans-65"/>
     </g>
    </g>
   </g>
   <g id="text_10">
    <g clip-path="url(#p1735dd80ee)">
     <!-- c -->
     <g transform="translate(598.569678 260.83) scale(0.32 -0.32)">
      <defs>
       <path id="DejaVuSans-63" d="M 3122 3366 
L 3122 2828 
Q 2878 2963 2633 3030 
Q 2388 3097 2138 3097 
Q 1578 3097 1268 2742 
Q 959 2388 959 1747 
Q 959 1106 1268 751 
Q 1578 397 2138 397 
Q 2388 397 2633 464 
Q 2878 531 3122 666 
L 3122 134 
Q 2881 22 2623 -34 
Q 2366 -91 2075 -91 
Q 1284 -91 818 406 
Q 353 903 353 1747 
Q 353 2603 823 3093 
Q 1294 3584 2113 3584 
Q 2378 3584 2631 3529 
Q 2884 3475 3122 3366 
z
" transform="scale(0.015625)"/>
      </defs>
      <use xlink:href="#DejaVuSans-63"/>
     </g>
    </g>
   </g>
   <g id="text_11">
    <g clip-path="url(#p1735dd80ee)">
     <!-- d -->
     <g transform="translate(638.437541 360.499421) scale(0.32 -0.32)">
      <defs>
       <path id="DejaVuSans-64" d="M 2906 2969 
L 2906 4863 
L 3481 4863 
L 3481 0 
L 2906 0 
L 2906 525 
Q 2725 213 2448 61 
Q 2172 -91 1784 -91 
Q 1150 -91 751 415 
Q 353 922 353 1747 
Q 353 2572 751 3078 
Q 1150 3584 1784 3584 
Q 2172 3584 2448 3432 
Q 2725 3281 2906 2969 
z
M 947 1747 
Q 947 1113 1208 752 
Q 1469 391 1925 391 
Q 2381 391 2643 752 
Q 2906 1113 2906 1747 
Q 2906 2381 2643 2742 
Q 2381 3103 1925 3103 
Q 1469 3103 1208 2742 
Q 947 2381 947 1747 
z
" transform="scale(0.015625)"/>
      </defs>
      <use xlink:href="#DejaVuSans-64"/>
     </g>
    </g>
   </g>
   <g id="text_12">
    <g clip-path="url(#p1735dd80ee)">
     <!-- x -->
     <g transform="translate(474.213589 460.168843) scale(0.32 -0.32)">
      <defs>
       <path id="DejaVuSans-78" d="M 3513 3500 
L 2247 1797 
L 3578 0 
L 2900 0 
L 1881 1375 
L 863 0 
L 184 0 
L 1544 1831 
L 300 3500 
L 978 3500 
L 1906 2253 
L 2834 3500 
L 3513 3500 
z
" transform="scale(0.015625)"/>
      </defs>
      <use xlink:href="#DejaVuSans-78"/>
     </g>
    </g>
   </g>
  </g>
 </g>
 <defs>
  <clipPath id="p1735dd80ee">
   <rect x="10.8" y="10.8" width="698.4" height="482.4"/>
  </clipPath>
 </defs>
</svg>
