<svg width="370" height="281" xmlns="http://www.w3.org/2000/svg" xmlns:xlink="http://www.w3.org/1999/xlink" xml:space="preserve" overflow="hidden"><g transform="translate(-88 -375)"><path d="M0 270.528C0.0604764 265.001 4.59 260.57 10.117 260.63 15.5586 260.69 19.9554 265.087 20.015 270.528 20.0754 276.055 15.644 280.585 10.117 280.645 4.59 280.706 0.0604765 276.274 6.24385e-08 270.747-0.000798699 270.674-0.000798699 270.601 6.24385e-08 270.528Z" stroke="#000000" stroke-width="1.19814" stroke-linecap="square" stroke-miterlimit="3" fill="none" fill-rule="evenodd" transform="matrix(1 0 0 1.00166 269.945 126.051)"/><path d="M0 270.528C0.0604764 265.001 4.59 260.57 10.117 260.63 15.5586 260.69 19.9554 265.087 20.015 270.528 20.0754 276.055 15.644 280.585 10.117 280.645 4.59 280.706 0.0604765 276.274 6.24385e-08 270.747-0.000798699 270.674-0.000798699 270.601 6.24385e-08 270.528Z" stroke="#000000" stroke-width="1.19814" stroke-linecap="square" stroke-miterlimit="3" fill="none" fill-rule="evenodd" transform="matrix(1 0 0 1.00166 164.86 176.174)"/><path d="M0 270.528C0.0604764 265.001 4.59 260.57 10.117 260.63 15.5586 260.69 19.9554 265.087 20.015 270.528 20.0754 276.055 15.644 280.585 10.117 280.645 4.59 280.706 0.0604765 276.274 6.24385e-08 270.747-0.000798699 270.674-0.000798699 270.601 6.24385e-08 270.528Z" stroke="#000000" stroke-width="1.19814" stroke-linecap="square" stroke-miterlimit="3" fill="none" fill-rule="evenodd" transform="matrix(1 0 0 1.00166 234.916 176.174)"/><path d="M0 270.528C0.0604764 265.001 4.59 260.57 10.117 260.63 15.5586 260.69 19.9554 265.087 20.015 270.528 20.0754 276.055 15.644 280.585 10.117 280.645 4.59 280.706 0.0604765 276.274 6.24385e-08 270.747-0.000798699 270.674-0.000798699 270.601 6.24385e-08 270.528Z" stroke="#000000" stroke-width="1.19814" stroke-linecap="square" stroke-miterlimit="3" fill="none" fill-rule="evenodd" transform="matrix(1 0 0 1.00166 304.973 176.174)"/><path d="M0 270.528C0.0604764 265.001 4.59 260.57 10.117 260.63 15.5586 260.69 19.9554 265.087 20.015 270.528 20.0754 276.055 15.644 280.585 10.117 280.645 4.59 280.706 0.0604765 276.274 6.24385e-08 270.747-0.000798699 270.674-0.000798699 270.601 6.24385e-08 270.528Z" stroke="#000000" stroke-width="1.19814" stroke-linecap="square" stroke-miterlimit="3" fill="none" fill-rule="evenodd" transform="matrix(1 0 0 1.00166 375.03 176.174)"/><path d="M0 280.533-83.133 321.12" stroke="#4672C4" stroke-width="1.19814" stroke-linecap="round" stroke-linejoin="round" stroke-miterlimit="3" fill="none" fill-rule="evenodd" transform="matrix(1 0 0 1.00166 269.945 116.026)"/><path d="M5.41733 2.70866 0 0 5.41733-2.70866 5.41733 2.70866" fill="#4672C4" fill-rule="evenodd" transform="matrix(0.898335 -0.439311 0.438583 0.899825 181.945 440.058)"/><path d="M-48.5907 290.514-39.4081 290.514-39.4081 313.518-48.5907 313.518Z" fill="#FFFFFF" fill-rule="evenodd" transform="matrix(1 0 0 1.00166 269.945 116.026)"/><text fill="#3C63AC" font-family="Calibri,Calibri_MSFontService,sans-serif" font-weight="400" font-size="32" transform="matrix(0.599071 0 0 0.600065 221.354 424)">a</text><path d="M0 280.533-24.4481 309.36" stroke="#4672C4" stroke-width="1.19814" stroke-linecap="round" stroke-linejoin="round" stroke-miterlimit="3" fill="none" fill-rule="evenodd" transform="matrix(1 0 0 1.00166 272.875 123.115)"/><path d="M5.41935 2.70968 0 0 5.41935-2.70968 5.41935 2.70968" fill="#4672C4" fill-rule="evenodd" transform="matrix(0.646354 -0.763394 0.76213 0.647426 244.924 437.126)"/><path d="M-19.0112 285.51-8.93933 285.51-8.93933 308.514-19.0112 308.514Z" fill="#FFFFFF" fill-rule="evenodd" transform="matrix(1 0 0 1.00166 272.875 123.115)"/><text fill="#3C63AC" font-family="Calibri,Calibri_MSFontService,sans-serif" font-weight="400" font-size="32" transform="matrix(0.599071 0 0 0.600065 253.866 426)">b</text><path d="M0 280.533 24.4481 309.36" stroke="#4672C4" stroke-width="1.19814" stroke-linecap="round" stroke-linejoin="round" stroke-miterlimit="3" fill="none" fill-rule="evenodd" transform="matrix(1 0 0 1.00166 287.03 123.115)"/><path d="M5.41935 2.70968 0 0 5.41935-2.70968 5.41935 2.70968" fill="#4672C4" fill-rule="evenodd" transform="matrix(-0.646354 -0.763394 0.76213 -0.647426 314.981 437.126)"/><path d="M9.20604 285.51 18.7444 285.51 18.7444 308.514 9.20604 308.514Z" fill="#FFFFFF" fill-rule="evenodd" transform="matrix(1 0 0 1.00166 287.03 123.115)"/><text fill="#3C63AC" font-family="Calibri,Calibri_MSFontService,sans-serif" font-weight="400" font-size="32" transform="matrix(0.599071 0 0 0.600065 296.238 426)">e</text><path d="M0 280.533 90.0883 318.466" stroke="#4672C4" stroke-width="1.19814" stroke-linecap="round" stroke-linejoin="round" stroke-miterlimit="3" fill="none" fill-rule="evenodd" transform="matrix(1 0 0 1.00166 289.961 116.026)"/><path d="M5.41695 2.70848 0 0 5.41695-2.70848 5.41695 2.70848" fill="#4672C4" fill-rule="evenodd" transform="matrix(-0.9214 -0.388615 0.387971 -0.922929 385.04 437.125)"/><path d="M42.5023 289.049 52.5741 289.049 52.5741 312.053 42.5023 312.053Z" fill="#FFFFFF" fill-rule="evenodd" transform="matrix(1 0 0 1.00166 289.961 116.026)"/><text fill="#3C63AC" font-family="Calibri,Calibri_MSFontService,sans-serif" font-weight="400" font-size="32" transform="matrix(0.599071 0 0 0.600065 332.465 423)">h</text><path d="M0 270.528C0.0604764 265.001 4.59 260.57 10.117 260.63 15.5586 260.69 19.9554 265.087 20.015 270.528 20.0754 276.055 15.644 280.585 10.117 280.645 4.59 280.706 0.0604765 276.274 6.24385e-08 270.747-0.000798699 270.674-0.000798699 270.601 6.24385e-08 270.528Z" stroke="#000000" stroke-width="1.19814" stroke-linecap="square" stroke-miterlimit="3" fill="none" fill-rule="evenodd" transform="matrix(1 0 0 1.00166 153.184 233.544)"/><path d="M0 270.528C0.0604764 265.001 4.59 260.57 10.117 260.63 15.5586 260.69 19.9554 265.087 20.015 270.528 20.0754 276.055 15.644 280.585 10.117 280.645 4.59 280.706 0.0604765 276.274 6.24385e-08 270.747-0.000798699 270.674-0.000798699 270.601 6.24385e-08 270.528Z" stroke="#000000" stroke-width="1.19814" stroke-linecap="square" stroke-miterlimit="3" fill="none" fill-rule="evenodd" transform="matrix(1 0 0 1.00166 234.916 233.544)"/><path d="M0 270.528C0.0604764 265.001 4.59 260.57 10.117 260.63 15.5586 260.69 19.9554 265.087 20.015 270.528 20.0754 276.055 15.644 280.585 10.117 280.645 4.59 280.706 0.0604765 276.274 6.24385e-08 270.747-0.000798699 270.674-0.000798699 270.601 6.24385e-08 270.528Z" stroke="#000000" stroke-width="1.19814" stroke-linecap="square" stroke-miterlimit="3" fill="none" fill-rule="evenodd" transform="matrix(1 0 0 1.00166 304.973 233.544)"/><path d="M0 270.528C0.0604764 265.001 4.59 260.57 10.117 260.63 15.5586 260.69 19.9554 265.087 20.015 270.528 20.0754 276.055 15.644 280.585 10.117 280.645 4.59 280.706 0.0604765 276.274 6.24385e-08 270.747-0.000798699 270.674-0.000798699 270.601 6.24385e-08 270.528Z" stroke="#000000" stroke-width="1.19814" stroke-linecap="square" stroke-miterlimit="3" fill="none" fill-rule="evenodd" transform="matrix(1 0 0 1.00166 386.705 233.544)"/><path d="M0 280.533-10.0584 312.625" stroke="#4672C4" stroke-width="1.19814" stroke-linecap="round" stroke-linejoin="round" stroke-miterlimit="3" fill="none" fill-rule="evenodd" transform="matrix(1 0 0 1.00166 174.868 176.174)"/><path d="M5.4164 2.7082 0 0 5.4164-2.7082 5.4164 2.7082" fill="#4672C4" fill-rule="evenodd" transform="matrix(0.299032 -0.955671 0.954088 0.299528 163.19 494.494)"/><path d="M-10.874 287.662-0.802155 287.662-0.802155 310.667-10.874 310.667Z" fill="#FFFFFF" fill-rule="evenodd" transform="matrix(1 0 0 1.00166 174.868 176.174)"/><text fill="#3C63AC" font-family="Calibri,Calibri_MSFontService,sans-serif" font-weight="400" font-size="32" transform="matrix(0.599071 0 0 0.600065 163.995 482)">b</text><path d="M-4.24741 280.533-4.24741 312.379" stroke="#4672C4" stroke-width="1.19814" stroke-linecap="round" stroke-linejoin="round" stroke-miterlimit="3" fill="none" fill-rule="evenodd" transform="matrix(1 0 0 1.00166 249.17 176.174)"/><path d="M5.4156 2.7078 0 0 5.4156-2.7078 5.4156 2.7078" fill="#4672C4" fill-rule="evenodd" transform="matrix(-6.12323e-17 -1.00166 1 -6.13339e-17 244.923 494.496)"/><path d="M-8.29851 287.662-0.192302 287.662-0.192302 310.667-8.29851 310.667Z" fill="#FFFFFF" fill-rule="evenodd" transform="matrix(1 0 0 1.00166 249.17 176.174)"/><text fill="#3C63AC" font-family="Calibri,Calibri_MSFontService,sans-serif" font-weight="400" font-size="32" transform="matrix(0.599071 0 0 0.600065 240.873 482)">c</text><path d="M-4.24741 280.533-4.24741 312.379" stroke="#4672C4" stroke-width="1.19814" stroke-linecap="round" stroke-linejoin="round" stroke-miterlimit="3" fill="none" fill-rule="evenodd" transform="matrix(1 0 0 1.00166 319.226 176.174)"/><path d="M5.4156 2.7078 0 0 5.4156-2.7078 5.4156 2.7078" fill="#4672C4" fill-rule="evenodd" transform="matrix(-6.12323e-17 -1.00166 1 -6.13339e-17 314.979 494.496)"/><path d="M-7.1704 287.662-1.32019 287.662-1.32019 310.667-7.1704 310.667Z" fill="#FFFFFF" fill-rule="evenodd" transform="matrix(1 0 0 1.00166 319.226 176.174)"/><text fill="#3C63AC" font-family="Calibri,Calibri_MSFontService,sans-serif" font-weight="400" font-size="32" transform="matrix(0.599071 0 0 0.600065 312.055 482)">f</text><path d="M0 280.533 10.0584 312.625" stroke="#4672C4" stroke-width="1.19814" stroke-linecap="round" stroke-linejoin="round" stroke-miterlimit="3" fill="none" fill-rule="evenodd" transform="matrix(1 0 0 1.00166 385.037 176.174)"/><path d="M5.4164 2.7082 0 0 5.4164-2.7082 5.4164 2.7082" fill="#4672C4" fill-rule="evenodd" transform="matrix(-0.299032 -0.955671 0.954088 -0.299528 396.715 494.494)"/><path d="M3.63828 287.662 8.03774 287.662 8.03774 310.667 3.63828 310.667Z" fill="#FFFFFF" fill-rule="evenodd" transform="matrix(1 0 0 1.00166 385.037 176.174)"/><text fill="#3C63AC" font-family="Calibri,Calibri_MSFontService,sans-serif" font-weight="400" font-size="32" transform="matrix(0.599071 0 0 0.600065 388.673 482)">l</text><path d="M0 270.528C0.0604764 265.001 4.59 260.57 10.117 260.63 15.5586 260.69 19.9554 265.087 20.015 270.528 20.0754 276.055 15.644 280.585 10.117 280.645 4.59 280.706 0.0604765 276.274 6.24385e-08 270.747-0.000798699 270.674-0.000798699 270.601 6.24385e-08 270.528Z" stroke="#000000" stroke-width="1.19814" stroke-linecap="square" stroke-miterlimit="3" fill="none" fill-rule="evenodd" transform="matrix(1 0 0 1.00166 141.508 301.401)"/><path d="M0 270.528C0.0604764 265.001 4.59 260.57 10.117 260.63 15.5586 260.69 19.9554 265.087 20.015 270.528 20.0754 276.055 15.644 280.585 10.117 280.645 4.59 280.706 0.0604765 276.274 6.24385e-08 270.747-0.000798699 270.674-0.000798699 270.601 6.24385e-08 270.528Z" stroke="#000000" stroke-width="1.19814" stroke-linecap="square" stroke-miterlimit="3" fill="none" fill-rule="evenodd" transform="matrix(1 0 0 1.00166 239.921 301.401)"/><path d="M0 270.528C0.0604764 265.001 4.59 260.57 10.117 260.63 15.5586 260.69 19.9554 265.087 20.015 270.528 20.0754 276.055 15.644 280.585 10.117 280.645 4.59 280.706 0.0604765 276.274 6.24385e-08 270.747-0.000798699 270.674-0.000798699 270.601 6.24385e-08 270.528Z" stroke="#000000" stroke-width="1.19814" stroke-linecap="square" stroke-miterlimit="3" fill="none" fill-rule="evenodd" transform="matrix(1 0 0 1.00166 309.977 301.401)"/><path d="M0 270.528C0.0604764 265.001 4.59 260.57 10.117 260.63 15.5586 260.69 19.9554 265.087 20.015 270.528 20.0754 276.055 15.644 280.585 10.117 280.645 4.59 280.706 0.0604765 276.274 6.24385e-08 270.747-0.000798699 270.674-0.000798699 270.601 6.24385e-08 270.528Z" stroke="#000000" stroke-width="1.19814" stroke-linecap="square" stroke-miterlimit="3" fill="none" fill-rule="evenodd" transform="matrix(1 0 0 1.00166 391.709 301.401)"/><path d="M0 270.528C0.0604764 265.001 4.59 260.57 10.117 260.63 15.5586 260.69 19.9554 265.087 20.015 270.528 20.0754 276.055 15.644 280.585 10.117 280.645 4.59 280.706 0.0604765 276.274 6.24385e-08 270.747-0.000798699 270.674-0.000798699 270.601 6.24385e-08 270.528Z" stroke="#000000" stroke-width="1.19814" stroke-linecap="square" stroke-miterlimit="3" fill="none" fill-rule="evenodd" transform="matrix(1 0 0 1.00166 169.864 301.401)"/><path d="M0 280.533-10.3879 323.001" stroke="#4672C4" stroke-width="1.19814" stroke-linecap="round" stroke-linejoin="round" stroke-miterlimit="3" fill="none" fill-rule="evenodd" transform="matrix(1 0 0 1.00166 163.192 233.544)"/><path d="M5.41611 2.70805 0 0 5.41611-2.70805 5.41611 2.70805" fill="#4672C4" fill-rule="evenodd" transform="matrix(0.237577 -0.972884 0.971272 0.237972 151.518 562.35)"/><path d="M-9.89114 292.897-1.78493 292.897-1.78493 315.901-9.89114 315.901Z" fill="#FFFFFF" fill-rule="evenodd" transform="matrix(1 0 0 1.00166 163.192 233.544)"/><text fill="#3C63AC" font-family="Calibri,Calibri_MSFontService,sans-serif" font-weight="400" font-size="32" transform="matrix(0.599071 0 0 0.600065 153.301 544)">c</text><path d="M0 280.533 14.8929 323.151" stroke="#4672C4" stroke-width="1.19814" stroke-linecap="round" stroke-linejoin="round" stroke-miterlimit="3" fill="none" fill-rule="evenodd" transform="matrix(1 0 0 1.00166 163.192 233.544)"/><path d="M5.41657 2.70829 0 0 5.41657-2.70829 5.41657 2.70829" fill="#4672C4" fill-rule="evenodd" transform="matrix(-0.32983 -0.945415 0.94385 -0.330377 179.872 562.352)"/><path d="M3.30412 292.897 13.3759 292.897 13.3759 315.901 3.30412 315.901Z" fill="#FFFFFF" fill-rule="evenodd" transform="matrix(1 0 0 1.00166 163.192 233.544)"/><text fill="#3C63AC" font-family="Calibri,Calibri_MSFontService,sans-serif" font-weight="400" font-size="32" transform="matrix(0.599071 0 0 0.600065 166.499 544)">d</text><path d="M1.7433 280.533 6.18241 322.875" stroke="#4672C4" stroke-width="1.19814" stroke-linecap="round" stroke-linejoin="round" stroke-miterlimit="3" fill="none" fill-rule="evenodd" transform="matrix(1 0 0 1.00166 243.181 233.544)"/><path d="M5.4157 2.70785 0 0 5.4157-2.70785 5.4157 2.70785" fill="#4672C4" fill-rule="evenodd" transform="matrix(-0.104265 -0.996181 0.994531 -0.104438 249.928 562.35)"/><path d="M-0.79054 292.897 9.28128 292.897 9.28128 315.901-0.79054 315.901Z" fill="#FFFFFF" fill-rule="evenodd" transform="matrix(1 0 0 1.00166 243.181 233.544)"/><text fill="#3C63AC" font-family="Calibri,Calibri_MSFontService,sans-serif" font-weight="400" font-size="32" transform="matrix(0.599071 0 0 0.600065 242.39 544)">d</text><path d="M1.7433 280.533 6.18241 322.875" stroke="#4672C4" stroke-width="1.19814" stroke-linecap="round" stroke-linejoin="round" stroke-miterlimit="3" fill="none" fill-rule="evenodd" transform="matrix(1 0 0 1.00166 313.238 233.544)"/><path d="M5.4157 2.70785 0 0 5.4157-2.70785 5.4157 2.70785" fill="#4672C4" fill-rule="evenodd" transform="matrix(-0.104265 -0.996181 0.994531 -0.104438 319.985 562.35)"/><path d="M-0.266313 292.897 8.75719 292.897 8.75719 315.901-0.266313 315.901Z" fill="#FFFFFF" fill-rule="evenodd" transform="matrix(1 0 0 1.00166 313.238 233.544)"/><text fill="#3C63AC" font-family="Calibri,Calibri_MSFontService,sans-serif" font-weight="400" font-size="32" transform="matrix(0.599071 0 0 0.600065 312.974 544)">g</text><path d="M1.7433 280.533 6.18241 322.875" stroke="#4672C4" stroke-width="1.19814" stroke-linecap="round" stroke-linejoin="round" stroke-miterlimit="3" fill="none" fill-rule="evenodd" transform="matrix(1 0 0 1.00166 394.97 233.544)"/><path d="M5.4157 2.70785 0 0 5.4157-2.70785 5.4157 2.70785" fill="#4672C4" fill-rule="evenodd" transform="matrix(-0.104265 -0.996181 0.994531 -0.104438 401.717 562.35)"/><path d="M-0.79054 292.897 9.28128 292.897 9.28128 315.901-0.79054 315.901Z" fill="#FFFFFF" fill-rule="evenodd" transform="matrix(1 0 0 1.00166 394.97 233.544)"/><text fill="#3C63AC" font-family="Calibri,Calibri_MSFontService,sans-serif" font-weight="400" font-size="32" transform="matrix(0.599071 0 0 0.600065 394.179 544)">n</text><path d="M0 270.528C0.0604764 265.001 4.59 260.57 10.117 260.63 15.5586 260.69 19.9554 265.087 20.015 270.528 20.0754 276.055 15.644 280.585 10.117 280.645 4.59 280.706 0.0604765 276.274 6.24385e-08 270.747-0.000798699 270.674-0.000798699 270.601 6.24385e-08 270.528Z" stroke="#000000" stroke-width="1.19814" stroke-linecap="square" stroke-miterlimit="3" fill="none" fill-rule="evenodd" transform="matrix(1 0 0 1.00166 129.832 362.999)"/><path d="M0 280.533-8.26718 316.98" stroke="#4672C4" stroke-width="1.19814" stroke-linecap="round" stroke-linejoin="round" stroke-miterlimit="3" fill="none" fill-rule="evenodd" transform="matrix(1 0 0 1.00166 151.516 301.401)"/><path d="M5.41604 2.70802 0 0 5.41604-2.70802 5.41604 2.70802" fill="#4672C4" fill-rule="evenodd" transform="matrix(0.221187 -0.976766 0.975148 0.221554 142.051 624.198)"/><path d="M-9.76725 289.896 0.304567 289.896 0.304567 312.9-9.76725 312.9Z" fill="#FFFFFF" fill-rule="evenodd" transform="matrix(1 0 0 1.00166 151.516 301.401)"/><text fill="#3C63AC" font-family="Calibri,Calibri_MSFontService,sans-serif" font-weight="400" font-size="32" transform="matrix(0.599071 0 0 0.600065 141.751 609)">d</text></g></svg>