<svg width="2348" height="851" xmlns="http://www.w3.org/2000/svg" xmlns:xlink="http://www.w3.org/1999/xlink" xml:space="preserve" overflow="hidden"><g transform="translate(-632 -884)"><path d="M1227.97 890.737 1227.97 1059.77" stroke="#999999" stroke-width="4.58333" stroke-linejoin="round" stroke-miterlimit="10" fill="none" fill-rule="evenodd"/><path d="M1310.47 890.737 1310.47 1059.77" stroke="#999999" stroke-width="4.58333" stroke-linejoin="round" stroke-miterlimit="10" fill="none" fill-rule="evenodd"/><path d="M1392.97 890.737 1392.97 1059.77" stroke="#999999" stroke-width="4.58333" stroke-linejoin="round" stroke-miterlimit="10" fill="none" fill-rule="evenodd"/><path d="M1475.47 890.737 1475.47 1059.77" stroke="#999999" stroke-width="4.58333" stroke-linejoin="round" stroke-miterlimit="10" fill="none" fill-rule="evenodd"/><path d="M1557.97 890.737 1557.97 1059.77" stroke="#5C5C5C" stroke-width="3.4375" stroke-linejoin="round" stroke-miterlimit="10" fill="none" fill-rule="evenodd"/><path d="M1887.97 890.737 1887.97 1059.77" stroke="#5C5C5C" stroke-width="3.4375" stroke-linejoin="round" stroke-miterlimit="10" fill="none" fill-rule="evenodd"/><path d="M1145.47 890.737 1145.47 1059.77" stroke="#999999" stroke-width="4.58333" stroke-linejoin="round" stroke-miterlimit="10" fill="none" fill-rule="evenodd"/><path d="M1970.47 890.737 1970.47 1059.77" stroke="#999999" stroke-width="4.58333" stroke-linejoin="round" stroke-miterlimit="10" fill="none" fill-rule="evenodd"/><path d="M1143.18 893.029 1559.69 893.029" stroke="#999999" stroke-width="4.58333" stroke-linejoin="round" stroke-miterlimit="10" fill="none" fill-rule="evenodd"/><path d="M1886.25 893.029 1972.76 893.029" stroke="#999999" stroke-width="4.58333" stroke-linejoin="round" stroke-miterlimit="10" fill="none" fill-rule="evenodd"/><path d="M1143.18 1057.48 1559.69 1057.48" stroke="#999999" stroke-width="4.58333" stroke-linejoin="round" stroke-miterlimit="10" fill="none" fill-rule="evenodd"/><path d="M1886.25 1057.48 1972.76 1057.48" stroke="#999999" stroke-width="4.58333" stroke-linejoin="round" stroke-miterlimit="10" fill="none" fill-rule="evenodd"/><g><text font-family="Calibri,Calibri_MSFontService,sans-serif" font-weight="400" font-size="83" transform="matrix(1 0 0 1 1907.45 1013)">b</text></g><text font-family="Calibri,Calibri_MSFontService,sans-serif" font-weight="400" font-size="92" transform="matrix(1 0 0 1 1632.22 1017)">...</text><g><text font-family="Calibri,Calibri_MSFontService,sans-serif" font-weight="400" font-size="92" transform="matrix(1 0 0 1 1492.65 1017)">b</text></g><g><text font-family="Calibri,Calibri_MSFontService,sans-serif" font-weight="400" font-size="92" transform="matrix(1 0 0 1 1412.16 1017)">a</text></g><g><text font-family="Calibri,Calibri_MSFontService,sans-serif" font-weight="400" font-size="92" transform="matrix(1 0 0 1 1332.24 1017)">c</text></g><g><text font-family="Calibri,Calibri_MSFontService,sans-serif" font-weight="400" font-size="92" transform="matrix(1 0 0 1 1245.15 1017)">b</text></g><g><text font-family="Calibri,Calibri_MSFontService,sans-serif" font-weight="400" font-size="92" transform="matrix(1 0 0 1 1164.66 1017)">a</text></g><path d="M1227.97 1103.22 1227.97 1272.25" stroke="#5C5C5C" stroke-width="4.58333" stroke-linejoin="round" stroke-miterlimit="10" fill="none" fill-rule="evenodd"/><path d="M1310.47 1103.22 1310.47 1272.25" stroke="#5C5C5C" stroke-width="4.58333" stroke-linejoin="round" stroke-miterlimit="10" fill="none" fill-rule="evenodd"/><path d="M1392.97 1103.22 1392.97 1272.25" stroke="#5C5C5C" stroke-width="4.58333" stroke-linejoin="round" stroke-miterlimit="10" fill="none" fill-rule="evenodd"/><path d="M1475.47 1103.22 1475.47 1272.25" stroke="#5C5C5C" stroke-width="4.58333" stroke-linejoin="round" stroke-miterlimit="10" fill="none" fill-rule="evenodd"/><path d="M1557.97 1103.22 1557.97 1272.25" stroke="#5C5C5C" stroke-width="3.4375" stroke-linejoin="round" stroke-miterlimit="10" fill="none" fill-rule="evenodd"/><path d="M1640.47 1103.79 1640.47 1271.68" stroke="#5C5C5C" stroke-width="3.4375" stroke-linejoin="round" stroke-miterlimit="10" fill="none" fill-rule="evenodd"/><path d="M1145.47 1103.22 1145.47 1272.25" stroke="#5C5C5C" stroke-width="4.58333" stroke-linejoin="round" stroke-miterlimit="10" fill="none" fill-rule="evenodd"/><path d="M1143.18 1105.51 1559.69 1105.51" stroke="#5C5C5C" stroke-width="4.58333" stroke-linejoin="round" stroke-miterlimit="10" fill="none" fill-rule="evenodd"/><path d="M1559.69 1105.51 1642.19 1105.51" stroke="#5C5C5C" stroke-width="3.4375" stroke-linejoin="round" stroke-miterlimit="10" fill="none" fill-rule="evenodd"/><path d="M1143.18 1269.96 1559.69 1269.96" stroke="#5C5C5C" stroke-width="4.58333" stroke-linejoin="round" stroke-miterlimit="10" fill="none" fill-rule="evenodd"/><path d="M1559.69 1269.96 1642.19 1269.96" stroke="#5C5C5C" stroke-width="3.4375" stroke-linejoin="round" stroke-miterlimit="10" fill="none" fill-rule="evenodd"/><g><text fill="#CC0000" font-family="Calibri,Calibri_MSFontService,sans-serif" font-weight="400" font-size="92" transform="matrix(1 0 0 1 1575.15 1229)">d</text></g><g><text fill="#678F00" font-family="Calibri,Calibri_MSFontService,sans-serif" font-weight="400" font-size="92" transform="matrix(1 0 0 1 1492.65 1229)">b</text></g><g><text fill="#678F00" font-family="Calibri,Calibri_MSFontService,sans-serif" font-weight="400" font-size="92" transform="matrix(1 0 0 1 1412.16 1229)">a</text></g><g><text fill="#678F00" font-family="Calibri,Calibri_MSFontService,sans-serif" font-weight="400" font-size="92" transform="matrix(1 0 0 1 1332.24 1229)">c</text></g><g><text fill="#678F00" font-family="Calibri,Calibri_MSFontService,sans-serif" font-weight="400" font-size="92" transform="matrix(1 0 0 1 1245.15 1229)">b</text></g><g><text fill="#678F00" font-family="Calibri,Calibri_MSFontService,sans-serif" font-weight="400" font-size="92" transform="matrix(1 0 0 1 1164.66 1229)">a</text></g><path d="M1227.97 1247.59 1310.47 1247.59 1310.47 1412.04 1227.97 1412.04Z" fill="#E9E9E9" fill-rule="evenodd"/><path d="M1310.47 1247.59 1392.97 1247.59 1392.97 1412.04 1310.47 1412.04Z" fill="#E9E9E9" fill-rule="evenodd"/><path d="M1392.97 1247.59 1475.47 1247.59 1475.47 1412.04 1392.97 1412.04Z" fill="#E9E9E9" fill-rule="evenodd"/><path d="M1475.47 1247.59 1557.97 1247.59 1557.97 1412.04 1475.47 1412.04Z" fill="#E9E9E9" fill-rule="evenodd"/><path d="M1557.97 1247.59 1640.47 1247.59 1640.47 1412.04 1557.97 1412.04Z" fill="#E9E9E9" fill-rule="evenodd"/><path d="M1640.47 1247.59 1722.97 1247.59 1722.97 1412.04 1640.47 1412.04Z" fill="#E9E9E9" fill-rule="evenodd"/><path d="M1227.97 1247.59 1227.97 1412.04" stroke="#5C5C5C" stroke-width="4.58333" stroke-linejoin="round" stroke-miterlimit="10" fill="none" fill-rule="evenodd"/><path d="M1310.47 1247.59 1310.47 1412.04" stroke="#5C5C5C" stroke-width="4.58333" stroke-linejoin="round" stroke-miterlimit="10" fill="none" fill-rule="evenodd"/><path d="M1392.97 1247.59 1392.97 1412.04" stroke="#5C5C5C" stroke-width="4.58333" stroke-linejoin="round" stroke-miterlimit="10" fill="none" fill-rule="evenodd"/><path d="M1475.47 1247.59 1475.47 1412.04" stroke="#5C5C5C" stroke-width="4.58333" stroke-linejoin="round" stroke-miterlimit="10" fill="none" fill-rule="evenodd"/><path d="M1557.97 1247.59 1557.97 1412.04" stroke="#5C5C5C" stroke-width="3.4375" stroke-linejoin="round" stroke-miterlimit="10" fill="none" fill-rule="evenodd"/><path d="M1640.47 1247.59 1640.47 1412.04" stroke="#5C5C5C" stroke-width="3.4375" stroke-linejoin="round" stroke-miterlimit="10" fill="none" fill-rule="evenodd"/><path d="M1722.97 1247.59 1722.97 1412.04" stroke="#5C5C5C" stroke-width="3.4375" stroke-linejoin="round" stroke-miterlimit="10" fill="none" fill-rule="evenodd"/><g><text fill="#9D9D9D" font-family="Calibri,Calibri_MSFontService,sans-serif" font-weight="400" font-size="83" transform="matrix(1 0 0 1 1920.97 1368)">X</text></g><g><text fill="#9D9D9D" font-family="Calibri,Calibri_MSFontService,sans-serif" font-weight="400" font-size="83" transform="matrix(1 0 0 1 1659.95 1368)">d</text></g><g><text fill="#9D9D9D" font-family="Calibri,Calibri_MSFontService,sans-serif" font-weight="400" font-size="92" transform="matrix(1 0 0 1 1575.15 1371)">b</text></g><g><text fill="#9D9D9D" font-family="Calibri,Calibri_MSFontService,sans-serif" font-weight="400" font-size="92" transform="matrix(1 0 0 1 1494.66 1371)">a</text></g><g><text fill="#9D9D9D" font-family="Calibri,Calibri_MSFontService,sans-serif" font-weight="400" font-size="92" transform="matrix(1 0 0 1 1414.74 1371)">c</text></g><g><text fill="#9D9D9D" font-family="Calibri,Calibri_MSFontService,sans-serif" font-weight="400" font-size="92" transform="matrix(1 0 0 1 1327.65 1371)">b</text></g><g><text fill="#9D9D9D" font-family="Calibri,Calibri_MSFontService,sans-serif" font-weight="400" font-size="92" transform="matrix(1 0 0 1 1247.16 1371)">a</text></g><path d="M1310.47 1389.68 1392.97 1389.68 1392.97 1554.13 1310.47 1554.13Z" fill="#E9E9E9" fill-rule="evenodd"/><path d="M1392.97 1389.68 1475.47 1389.68 1475.47 1554.13 1392.97 1554.13Z" fill="#E9E9E9" fill-rule="evenodd"/><path d="M1475.47 1389.68 1557.97 1389.68 1557.97 1554.13 1475.47 1554.13Z" fill="#E9E9E9" fill-rule="evenodd"/><path d="M1557.97 1389.68 1640.47 1389.68 1640.47 1554.13 1557.97 1554.13Z" fill="#E9E9E9" fill-rule="evenodd"/><path d="M1640.47 1389.68 1722.97 1389.68 1722.97 1554.13 1640.47 1554.13Z" fill="#E9E9E9" fill-rule="evenodd"/><path d="M1722.97 1389.68 1805.47 1389.68 1805.47 1554.13 1722.97 1554.13Z" fill="#E9E9E9" fill-rule="evenodd"/><path d="M1310.47 1389.68 1310.47 1554.13" stroke="#5C5C5C" stroke-width="4.58333" stroke-linejoin="round" stroke-miterlimit="10" fill="none" fill-rule="evenodd"/><path d="M1392.97 1389.68 1392.97 1554.13" stroke="#5C5C5C" stroke-width="4.58333" stroke-linejoin="round" stroke-miterlimit="10" fill="none" fill-rule="evenodd"/><path d="M1475.47 1389.68 1475.47 1554.13" stroke="#5C5C5C" stroke-width="4.58333" stroke-linejoin="round" stroke-miterlimit="10" fill="none" fill-rule="evenodd"/><path d="M1557.97 1389.68 1557.97 1554.13" stroke="#5C5C5C" stroke-width="3.4375" stroke-linejoin="round" stroke-miterlimit="10" fill="none" fill-rule="evenodd"/><path d="M1640.47 1389.68 1640.47 1554.13" stroke="#5C5C5C" stroke-width="3.4375" stroke-linejoin="round" stroke-miterlimit="10" fill="none" fill-rule="evenodd"/><path d="M1722.97 1389.68 1722.97 1554.13" stroke="#5C5C5C" stroke-width="3.4375" stroke-linejoin="round" stroke-miterlimit="10" fill="none" fill-rule="evenodd"/><path d="M1805.47 1389.68 1805.47 1554.13" stroke="#5C5C5C" stroke-width="3.4375" stroke-linejoin="round" stroke-miterlimit="10" fill="none" fill-rule="evenodd"/><g><text fill="#9D9D9D" font-family="Calibri,Calibri_MSFontService,sans-serif" font-weight="400" font-size="83" transform="matrix(1 0 0 1 1907.73 1510)">X</text></g><g><text fill="#9D9D9D" font-family="Calibri,Calibri_MSFontService,sans-serif" font-weight="400" font-size="83" transform="matrix(1 0 0 1 1742.45 1510)">d</text></g><g><text fill="#9D9D9D" font-family="Calibri,Calibri_MSFontService,sans-serif" font-weight="400" font-size="83" transform="matrix(1 0 0 1 1659.95 1510)">b</text></g><g><text fill="#9D9D9D" font-family="Calibri,Calibri_MSFontService,sans-serif" font-weight="400" font-size="92" transform="matrix(1 0 0 1 1577.16 1513)">a</text></g><g><text fill="#9D9D9D" font-family="Calibri,Calibri_MSFontService,sans-serif" font-weight="400" font-size="92" transform="matrix(1 0 0 1 1497.24 1513)">c</text></g><g><text fill="#9D9D9D" font-family="Calibri,Calibri_MSFontService,sans-serif" font-weight="400" font-size="92" transform="matrix(1 0 0 1 1410.15 1513)">b</text></g><g><text fill="#9D9D9D" font-family="Calibri,Calibri_MSFontService,sans-serif" font-weight="400" font-size="92" transform="matrix(1 0 0 1 1329.66 1513)">a</text></g><path d="M1392.97 1529.47 1392.97 1698.5" stroke="#5C5C5C" stroke-width="4.58333" stroke-linejoin="round" stroke-miterlimit="10" fill="none" fill-rule="evenodd"/><path d="M1475.47 1529.47 1475.47 1698.5" stroke="#5C5C5C" stroke-width="4.58333" stroke-linejoin="round" stroke-miterlimit="10" fill="none" fill-rule="evenodd"/><path d="M1557.97 1529.47 1557.97 1698.5" stroke="#5C5C5C" stroke-width="3.4375" stroke-linejoin="round" stroke-miterlimit="10" fill="none" fill-rule="evenodd"/><path d="M1390.68 1531.76 1559.69 1531.76" stroke="#5C5C5C" stroke-width="4.58333" stroke-linejoin="round" stroke-miterlimit="10" fill="none" fill-rule="evenodd"/><path d="M1390.68 1696.21 1559.69 1696.21" stroke="#5C5C5C" stroke-width="4.58333" stroke-linejoin="round" stroke-miterlimit="10" fill="none" fill-rule="evenodd"/><text fill="#CC0000" font-family="Calibri,Calibri_MSFontService,sans-serif" font-weight="400" font-size="92" transform="matrix(1 0 0 1 1632.22 1655)">...</text><g><text fill="#678F00" font-family="Calibri,Calibri_MSFontService,sans-serif" font-weight="400" font-size="92" transform="matrix(1 0 0 1 1492.65 1655)">b</text></g><g><text fill="#678F00" font-family="Calibri,Calibri_MSFontService,sans-serif" font-weight="400" font-size="92" transform="matrix(1 0 0 1 1412.16 1655)">a</text></g><text font-family="Microsoft YaHei,Microsoft YaHei_MSFontService,sans-serif" font-weight="400" font-size="83" transform="matrix(1 0 0 1 2097.42 1645)">跳到这里开始尝试</text><path d="M2079.3 1615.08 1950.42 1615.08 1950.42 1605.92 2079.3 1605.92ZM1955 1624.25 1927.5 1610.5 1955 1596.75Z"/><text font-family="Microsoft YaHei,Microsoft YaHei_MSFontService,sans-serif" font-weight="400" font-size="83" transform="matrix(1 0 0 1 834.533 1002)">主串：</text><text font-family="Microsoft YaHei,Microsoft YaHei_MSFontService,sans-serif" font-weight="400" font-size="83" transform="matrix(1 0 0 1 752.033 1220)">模式串：</text></g></svg>