<svg width="1820" height="427" xmlns="http://www.w3.org/2000/svg" xmlns:xlink="http://www.w3.org/1999/xlink" xml:space="preserve" overflow="hidden"><g transform="translate(-693 -1622)"><rect x="694.5" y="1623.5" width="227" height="192" stroke="#5B5249" stroke-width="3.4375" stroke-miterlimit="8" fill="none"/><text fill="#5B5249" font-family="Times New Roman,Times New Roman_MSFontService,sans-serif" font-weight="400" font-size="92" transform="matrix(1 0 0 1 784.609 1753)">1</text><rect x="921.5" y="1623.5" width="227" height="192" stroke="#5B5249" stroke-width="3.4375" stroke-miterlimit="8" fill="none"/><text fill="#5B5249" font-family="Times New Roman,Times New Roman_MSFontService,sans-serif" font-weight="400" font-size="92" transform="matrix(1 0 0 1 988.281 1753)">…</text><rect x="1148.5" y="1623.5" width="226" height="192" stroke="#5B5249" stroke-width="3.4375" stroke-miterlimit="8" fill="#E1EBF7"/><path d="M1252.11 1709.41 1254.76 1709.41 1248.29 1738.25C1247.63 1741.18 1247.3 1743.4 1247.3 1744.9 1247.3 1746.09 1247.5 1746.96 1247.89 1747.5 1248.28 1748.04 1248.89 1748.31 1249.73 1748.31 1250.63 1748.31 1251.59 1747.94 1252.6 1747.21 1253.62 1746.48 1255.06 1745.08 1256.92 1743.01L1259.48 1745.53C1256.54 1748.61 1254.16 1750.71 1252.33 1751.81 1250.51 1752.92 1248.46 1753.48 1246.18 1753.48 1244.23 1753.48 1242.68 1752.77 1241.51 1751.34 1240.34 1749.92 1239.76 1748.1 1239.76 1745.89 1239.76 1743.61 1240.17 1740.7 1241.01 1737.17L1244.38 1722.48C1245.07 1719.49 1245.42 1717.24 1245.42 1715.74 1245.42 1714.39 1245.09 1713.48 1244.45 1713 1243.81 1712.52 1242.54 1712.25 1240.65 1712.19L1241.15 1709.81ZM1250.9 1692.2 1258.85 1692.2 1256.78 1700.92 1248.83 1700.92Z" fill="#5B5249" fill-rule="evenodd"/><text fill="#000000" fill-opacity="0" font-family="Arial,Arial_MSFontService,sans-serif" font-size="61.2734" x="1239.76" y="1745.82">𝑖</text><rect x="1375.5" y="1623.5" width="227" height="192" stroke="#5B5249" stroke-width="3.4375" stroke-miterlimit="8" fill="#E1EBF7"/><text fill="#5B5249" font-family="Times New Roman,Times New Roman_MSFontService,sans-serif" font-weight="400" font-size="92" transform="matrix(1 0 0 1 1442.6 1753)">…</text><rect x="1602.5" y="1623.5" width="226" height="192" stroke="#5B5249" stroke-width="3.4375" stroke-miterlimit="8" fill="#E1EBF7"/><path d="M1624.26 1709.41 1626.91 1709.41 1620.45 1738.25C1619.79 1741.18 1619.46 1743.4 1619.46 1744.9 1619.46 1746.09 1619.65 1746.96 1620.04 1747.5 1620.43 1748.04 1621.05 1748.31 1621.88 1748.31 1622.78 1748.31 1623.74 1747.94 1624.76 1747.21 1625.78 1746.48 1627.21 1745.08 1629.07 1743.01L1631.63 1745.53C1628.7 1748.61 1626.32 1750.71 1624.49 1751.81 1622.66 1752.92 1620.61 1753.48 1618.33 1753.48 1616.39 1753.48 1614.83 1752.77 1613.66 1751.34 1612.49 1749.92 1611.91 1748.1 1611.91 1745.89 1611.91 1743.61 1612.33 1740.7 1613.17 1737.17L1616.54 1722.48C1617.23 1719.49 1617.57 1717.24 1617.57 1715.74 1617.57 1714.39 1617.25 1713.48 1616.61 1713 1615.96 1712.52 1614.7 1712.25 1612.81 1712.19L1613.3 1709.81ZM1623.05 1692.2 1631 1692.2 1628.94 1700.92 1620.99 1700.92Z" fill="#5B5249" fill-rule="evenodd"/><text fill="#000000" fill-opacity="0" font-family="Arial,Arial_MSFontService,sans-serif" font-size="61.2734" x="1611.91" y="1745.82">𝑖</text><path d="M1689.3 1697.59 1695.68 1697.59 1695.68 1723.47 1720.16 1723.47 1720.16 1729.44 1695.68 1729.44 1695.68 1755.32 1689.3 1755.32 1689.3 1729.44 1664.82 1729.44 1664.82 1723.47 1689.3 1723.47Z" fill="#5B5249" fill-rule="evenodd"/><text fill="#000000" fill-opacity="0" font-family="Arial,Arial_MSFontService,sans-serif" font-size="57.7246" x="1664.82" y="1748.1">+</text><path d="M1761.4 1709.05C1763.28 1709.05 1764.77 1709.67 1765.87 1710.91 1766.96 1712.16 1767.51 1713.78 1767.51 1715.79 1767.51 1717.37 1767.15 1719.14 1766.43 1721.09L1766.97 1721.27C1769.9 1717.14 1772.7 1714.07 1775.35 1712.08 1778 1710.09 1780.73 1709.09 1783.54 1709.09 1786.33 1709.09 1788.47 1709.9 1789.97 1711.5 1791.46 1713.1 1792.21 1715.32 1792.21 1718.17 1792.21 1720.06 1791.78 1722.74 1790.91 1726.21L1787.99 1737.98C1787.18 1741.24 1786.78 1743.55 1786.78 1744.9 1786.78 1746.09 1786.97 1746.96 1787.36 1747.5 1787.75 1748.04 1788.37 1748.31 1789.2 1748.31 1790.1 1748.31 1791.06 1747.94 1792.08 1747.21 1793.1 1746.48 1794.53 1745.08 1796.39 1743.01L1798.95 1745.53C1796.38 1748.28 1794.13 1750.29 1792.21 1751.57 1790.3 1752.84 1788.11 1753.48 1785.66 1753.48 1783.71 1753.48 1782.15 1752.78 1780.98 1751.39 1779.82 1750 1779.23 1748.22 1779.23 1746.06 1779.23 1744.12 1779.73 1741.26 1780.71 1737.48L1782.69 1729.71C1783.41 1726.9 1783.88 1724.82 1784.11 1723.47 1784.33 1722.12 1784.44 1721.03 1784.44 1720.19 1784.44 1718.12 1784.1 1716.63 1783.41 1715.72 1782.72 1714.81 1781.6 1714.35 1780.04 1714.35 1778.78 1714.35 1777.43 1714.85 1775.97 1715.85 1774.52 1716.86 1772.98 1718.37 1771.35 1720.39 1769.72 1722.41 1768.41 1724.38 1767.42 1726.28 1766.43 1728.18 1765.62 1730.52 1764.99 1733.31L1760.72 1752.76 1752.95 1752.76 1759.51 1724.28C1760.17 1721.4 1760.5 1719.19 1760.5 1717.63 1760.5 1716.43 1760.3 1715.56 1759.91 1715.02 1759.53 1714.48 1758.91 1714.22 1758.07 1714.22 1757.14 1714.22 1756.16 1714.6 1755.13 1715.36 1754.1 1716.12 1752.68 1717.51 1750.89 1719.52L1748.32 1717C1751.08 1714.13 1753.37 1712.08 1755.2 1710.87 1757.02 1709.66 1759.09 1709.05 1761.4 1709.05Z" fill="#5B5249" fill-rule="evenodd"/><text fill="#000000" fill-opacity="0" font-family="Arial,Arial_MSFontService,sans-serif" font-size="44.4277" x="1748.32" y="1747.92">𝑛</text><rect x="1828.5" y="1623.5" width="227" height="192" stroke="#5B5249" stroke-width="3.4375" stroke-miterlimit="8" fill="none"/><path d="M1950.99 1742.34 1960.06 1742.34 1960.06 1752.76 1950.99 1752.76ZM1928.98 1742.34 1938.05 1742.34 1938.05 1752.76 1928.98 1752.76ZM1906.97 1742.34 1916.04 1742.34 1916.04 1752.76 1906.97 1752.76Z" fill="#5B5249" fill-rule="evenodd"/><text fill="#000000" fill-opacity="0" font-family="Arial,Arial_MSFontService,sans-serif" font-size="10.4219" x="1906.97" y="1751.46">…</text><rect x="694.5" y="1843.5" width="227" height="192" stroke="#5B5249" stroke-width="3.4375" stroke-miterlimit="8" fill="none"/><text fill="#5B5249" font-family="Times New Roman,Times New Roman_MSFontService,sans-serif" font-weight="400" font-size="92" transform="matrix(1 0 0 1 784.609 1973)">1</text><rect x="921.5" y="1843.5" width="227" height="192" stroke="#5B5249" stroke-width="3.4375" stroke-miterlimit="8" fill="none"/><text fill="#5B5249" font-family="Times New Roman,Times New Roman_MSFontService,sans-serif" font-weight="400" font-size="92" transform="matrix(1 0 0 1 988.281 1973)">…</text><rect x="1148.5" y="1843.5" width="226" height="192" stroke="#5B5249" stroke-width="3.4375" stroke-miterlimit="8" fill="none"/><text fill="#5B5249" font-family="Times New Roman,Times New Roman_MSFontService,sans-serif" font-weight="400" font-size="92" transform="matrix(1 0 0 1 1215.16 1973)">…</text><rect x="1377.5" y="1843.5" width="227" height="192" stroke="#5B5249" stroke-width="3.4375" stroke-miterlimit="8" fill="#E1EBF7"/><path d="M1485.06 1929.41 1487.62 1929.41 1478.27 1973.52C1477.31 1978.07 1476.01 1981.74 1474.37 1984.51 1472.72 1987.28 1470.58 1989.36 1467.94 1990.75 1465.31 1992.14 1462.16 1992.84 1458.51 1992.84 1457.01 1992.84 1455.74 1992.69 1454.69 1992.39L1455.72 1988.44C1456.35 1988.68 1457.49 1988.8 1459.14 1988.8 1460.57 1988.8 1461.79 1988.58 1462.8 1988.14 1463.8 1987.71 1464.74 1986.99 1465.61 1985.99 1466.47 1984.98 1467.27 1983.58 1468.01 1981.79 1468.74 1979.99 1469.42 1977.67 1470.05 1974.82L1477.33 1942.48C1478.02 1939.43 1478.36 1937.18 1478.36 1935.74 1478.36 1934.39 1478.04 1933.48 1477.4 1933 1476.75 1932.52 1475.49 1932.25 1473.6 1932.19L1474.1 1929.81ZM1483.84 1912.2 1491.79 1912.2 1489.73 1920.92 1481.78 1920.92Z" fill="#5B5249" fill-rule="evenodd"/><text fill="#000000" fill-opacity="0" font-family="Arial,Arial_MSFontService,sans-serif" font-size="80.6348" x="1454.69" y="1982.76">𝑗</text><rect x="1604.5" y="1843.5" width="226" height="192" stroke="#5B5249" stroke-width="3.4375" stroke-miterlimit="8" fill="#E1EBF7"/><text fill="#5B5249" font-family="Times New Roman,Times New Roman_MSFontService,sans-serif" font-weight="400" font-size="92" transform="matrix(1 0 0 1 1671.48 1973)">…</text><rect x="1830.5" y="1843.5" width="227" height="192" stroke="#5B5249" stroke-width="3.4375" stroke-miterlimit="8" fill="#E1EBF7"/><path d="M1856.35 1929.41 1858.91 1929.41 1849.57 1973.52C1848.61 1978.07 1847.31 1981.74 1845.66 1984.51 1844.01 1987.28 1841.87 1989.36 1839.24 1990.75 1836.6 1992.14 1833.46 1992.84 1829.8 1992.84 1828.31 1992.84 1827.03 1992.69 1825.99 1992.39L1827.02 1988.44C1827.65 1988.68 1828.79 1988.8 1830.43 1988.8 1831.87 1988.8 1833.09 1988.58 1834.09 1988.14 1835.1 1987.71 1836.03 1986.99 1836.9 1985.99 1837.77 1984.98 1838.57 1983.58 1839.3 1981.79 1840.04 1979.99 1840.72 1977.67 1841.35 1974.82L1848.63 1942.48C1849.31 1939.43 1849.66 1937.18 1849.66 1935.74 1849.66 1934.39 1849.34 1933.48 1848.69 1933 1848.05 1932.52 1846.78 1932.25 1844.9 1932.19L1845.39 1929.81ZM1855.14 1912.2 1863.09 1912.2 1861.02 1920.92 1853.07 1920.92Z" fill="#5B5249" fill-rule="evenodd"/><text fill="#000000" fill-opacity="0" font-family="Arial,Arial_MSFontService,sans-serif" font-size="80.6348" x="1825.99" y="1982.76">𝑗</text><path d="M1919.51 1917.59 1925.89 1917.59 1925.89 1943.47 1950.37 1943.47 1950.37 1949.44 1925.89 1949.44 1925.89 1975.32 1919.51 1975.32 1919.51 1949.44 1895.03 1949.44 1895.03 1943.47 1919.51 1943.47Z" fill="#5B5249" fill-rule="evenodd"/><text fill="#000000" fill-opacity="0" font-family="Arial,Arial_MSFontService,sans-serif" font-size="57.7246" x="1895.03" y="1968.1">+</text><path d="M1991.61 1929.05C1993.49 1929.05 1994.98 1929.67 1996.08 1930.91 1997.17 1932.16 1997.72 1933.78 1997.72 1935.79 1997.72 1937.37 1997.36 1939.14 1996.64 1941.09L1997.18 1941.27C2000.11 1937.14 2002.9 1934.07 2005.55 1932.08 2008.21 1930.09 2010.94 1929.09 2013.75 1929.09 2016.54 1929.09 2018.68 1929.9 2020.18 1931.5 2021.67 1933.1 2022.42 1935.32 2022.42 1938.17 2022.42 1940.06 2021.99 1942.74 2021.12 1946.21L2018.2 1957.98C2017.39 1961.24 2016.99 1963.55 2016.99 1964.9 2016.99 1966.09 2017.18 1966.96 2017.57 1967.5 2017.96 1968.04 2018.57 1968.31 2019.41 1968.31 2020.31 1968.31 2021.27 1967.94 2022.29 1967.21 2023.31 1966.48 2024.74 1965.08 2026.6 1963.01L2029.16 1965.53C2026.59 1968.28 2024.34 1970.29 2022.42 1971.57 2020.51 1972.84 2018.32 1973.48 2015.86 1973.48 2013.92 1973.48 2012.36 1972.78 2011.19 1971.39 2010.02 1970 2009.44 1968.22 2009.44 1966.06 2009.44 1964.12 2009.93 1961.26 2010.92 1957.48L2012.9 1949.71C2013.62 1946.9 2014.09 1944.82 2014.31 1943.47 2014.54 1942.12 2014.65 1941.03 2014.65 1940.19 2014.65 1938.12 2014.31 1936.63 2013.62 1935.72 2012.93 1934.81 2011.81 1934.35 2010.25 1934.35 2008.99 1934.35 2007.64 1934.85 2006.18 1935.85 2004.73 1936.86 2003.19 1938.37 2001.56 1940.39 1999.92 1942.41 1998.61 1944.38 1997.63 1946.28 1996.64 1948.18 1995.83 1950.52 1995.2 1953.31L1990.93 1972.76 1983.16 1972.76 1989.72 1944.28C1990.38 1941.4 1990.71 1939.19 1990.71 1937.63 1990.71 1936.43 1990.51 1935.56 1990.12 1935.02 1989.73 1934.48 1989.12 1934.22 1988.28 1934.22 1987.35 1934.22 1986.37 1934.6 1985.34 1935.36 1984.31 1936.12 1982.89 1937.51 1981.09 1939.52L1978.53 1937C1981.29 1934.13 1983.58 1932.08 1985.41 1930.87 1987.23 1929.66 1989.3 1929.05 1991.61 1929.05Z" fill="#5B5249" fill-rule="evenodd"/><text fill="#000000" fill-opacity="0" font-family="Arial,Arial_MSFontService,sans-serif" font-size="44.4277" x="1978.53" y="1967.92">𝑛</text><rect x="2054.5" y="1623.5" width="227" height="192" stroke="#5B5249" stroke-width="3.4375" stroke-miterlimit="8" fill="none"/><path d="M2177.29 1742.34 2186.37 1742.34 2186.37 1752.76 2177.29 1752.76ZM2155.28 1742.34 2164.35 1742.34 2164.35 1752.76 2155.28 1752.76ZM2133.27 1742.34 2142.34 1742.34 2142.34 1752.76 2133.27 1752.76Z" fill="#5B5249" fill-rule="evenodd"/><text fill="#000000" fill-opacity="0" font-family="Arial,Arial_MSFontService,sans-serif" font-size="10.4219" x="2133.27" y="1751.46">…</text><rect x="2281.5" y="1623.5" width="227" height="192" stroke="#5B5249" stroke-width="3.4375" stroke-miterlimit="8" fill="none"/><path d="M2395.86 1709.05C2397.74 1709.05 2399.23 1709.67 2400.33 1710.91 2401.42 1712.16 2401.97 1713.78 2401.97 1715.79 2401.97 1717.37 2401.61 1719.14 2400.89 1721.09L2401.43 1721.27C2404.36 1717.14 2407.15 1714.07 2409.8 1712.08 2412.45 1710.09 2415.19 1709.09 2418 1709.09 2420.79 1709.09 2422.93 1709.9 2424.43 1711.5 2425.92 1713.1 2426.67 1715.32 2426.67 1718.17 2426.67 1720.06 2426.24 1722.74 2425.37 1726.21L2422.45 1737.98C2421.64 1741.24 2421.24 1743.55 2421.24 1744.9 2421.24 1746.09 2421.43 1746.96 2421.82 1747.5 2422.21 1748.04 2422.82 1748.31 2423.66 1748.31 2424.56 1748.31 2425.52 1747.94 2426.54 1747.21 2427.56 1746.48 2428.99 1745.08 2430.85 1743.01L2433.41 1745.53C2430.83 1748.28 2428.59 1750.29 2426.67 1751.57 2424.76 1752.84 2422.57 1753.48 2420.11 1753.48 2418.17 1753.48 2416.61 1752.78 2415.44 1751.39 2414.27 1750 2413.69 1748.22 2413.69 1746.06 2413.69 1744.12 2414.18 1741.26 2415.17 1737.48L2417.15 1729.71C2417.87 1726.9 2418.34 1724.82 2418.56 1723.47 2418.79 1722.12 2418.9 1721.03 2418.9 1720.19 2418.9 1718.12 2418.56 1716.63 2417.87 1715.72 2417.18 1714.81 2416.06 1714.35 2414.5 1714.35 2413.24 1714.35 2411.89 1714.85 2410.43 1715.85 2408.98 1716.86 2407.44 1718.37 2405.81 1720.39 2404.17 1722.41 2402.86 1724.38 2401.88 1726.28 2400.89 1728.18 2400.08 1730.52 2399.45 1733.31L2395.18 1752.76 2387.41 1752.76 2393.97 1724.28C2394.63 1721.4 2394.96 1719.19 2394.96 1717.63 2394.96 1716.43 2394.76 1715.56 2394.37 1715.02 2393.98 1714.48 2393.37 1714.22 2392.53 1714.22 2391.6 1714.22 2390.62 1714.6 2389.59 1715.36 2388.56 1716.12 2387.14 1717.51 2385.34 1719.52L2382.78 1717C2385.54 1714.13 2387.83 1712.08 2389.66 1710.87 2391.48 1709.66 2393.55 1709.05 2395.86 1709.05ZM2356.54 1690.72C2362.11 1690.72 2366.31 1691.94 2369.16 1694.38 2372 1696.82 2373.43 1700.36 2373.43 1705.01 2373.43 1706.59 2373.27 1708.05 2372.95 1709.39 2372.64 1710.72 2372.15 1712.04 2371.47 1713.34 2370.8 1714.64 2369.89 1716.04 2368.75 1717.54 2367.62 1719.04 2366.36 1720.56 2364.98 1722.1 2363.6 1723.64 2361.22 1726.21 2357.84 1729.8 2352.15 1735.82 2347.97 1741.08 2345.3 1745.57L2362.24 1745.57C2363.71 1745.57 2364.89 1745.48 2365.79 1745.3 2366.69 1745.12 2367.41 1744.82 2367.95 1744.4 2368.48 1743.98 2368.91 1743.44 2369.23 1742.76 2369.54 1742.09 2369.94 1741.05 2370.42 1739.64L2374.23 1739.64 2373.47 1752.76 2336.5 1752.76 2336.5 1750.6C2337.79 1747.46 2339.52 1744.24 2341.71 1740.94 2343.9 1737.65 2347 1733.77 2351.01 1729.31 2354.48 1725.48 2356.98 1722.57 2358.51 1720.59 2360.19 1718.44 2361.44 1716.57 2362.26 1715 2363.09 1713.43 2363.68 1711.95 2364.04 1710.55 2364.4 1709.16 2364.58 1707.76 2364.58 1706.35 2364.58 1704.11 2364.22 1702.12 2363.5 1700.4 2362.78 1698.68 2361.68 1697.32 2360.2 1696.34 2358.71 1695.35 2356.85 1694.85 2354.6 1694.85 2349 1694.85 2345.23 1697.97 2343.28 1704.2L2337.85 1704.2 2337.85 1695.57C2341.47 1693.87 2344.86 1692.63 2348.02 1691.87 2351.18 1691.1 2354.02 1690.72 2356.54 1690.72Z" fill="#5B5249" fill-rule="evenodd"/><text fill="#000000" fill-opacity="0" font-family="Arial,Arial_MSFontService,sans-serif" font-size="62.7559" x="2336.5" y="1745.63">2𝑛</text><rect x="2057.5" y="1843.5" width="227" height="192" stroke="#5B5249" stroke-width="3.4375" stroke-miterlimit="8" fill="none"/><path d="M2179.58 1962.34 2188.66 1962.34 2188.66 1972.76 2179.58 1972.76ZM2157.57 1962.34 2166.65 1962.34 2166.65 1972.76 2157.57 1972.76ZM2135.56 1962.34 2144.64 1962.34 2144.64 1972.76 2135.56 1972.76Z" fill="#5B5249" fill-rule="evenodd"/><text fill="#000000" fill-opacity="0" font-family="Arial,Arial_MSFontService,sans-serif" font-size="10.4219" x="2135.56" y="1971.46">…</text><rect x="2284.5" y="1843.5" width="227" height="192" stroke="#5B5249" stroke-width="3.4375" stroke-miterlimit="8" fill="none"/><path d="M2398.15 1929.05C2400.03 1929.05 2401.52 1929.67 2402.62 1930.91 2403.71 1932.16 2404.26 1933.78 2404.26 1935.79 2404.26 1937.37 2403.9 1939.14 2403.18 1941.09L2403.72 1941.27C2406.65 1937.14 2409.45 1934.07 2412.1 1932.08 2414.75 1930.09 2417.48 1929.09 2420.29 1929.09 2423.08 1929.09 2425.22 1929.9 2426.72 1931.5 2428.22 1933.1 2428.96 1935.32 2428.96 1938.17 2428.96 1940.06 2428.53 1942.74 2427.66 1946.21L2424.74 1957.98C2423.93 1961.24 2423.53 1963.55 2423.53 1964.9 2423.53 1966.09 2423.72 1966.96 2424.11 1967.5 2424.5 1968.04 2425.12 1968.31 2425.95 1968.31 2426.85 1968.31 2427.81 1967.94 2428.83 1967.21 2429.85 1966.48 2431.28 1965.08 2433.14 1963.01L2435.7 1965.53C2433.13 1968.28 2430.88 1970.29 2428.96 1971.57 2427.05 1972.84 2424.86 1973.48 2422.41 1973.48 2420.46 1973.48 2418.9 1972.78 2417.73 1971.39 2416.57 1970 2415.98 1968.22 2415.98 1966.06 2415.98 1964.12 2416.48 1961.26 2417.46 1957.48L2419.44 1949.71C2420.16 1946.9 2420.63 1944.82 2420.86 1943.47 2421.08 1942.12 2421.19 1941.03 2421.19 1940.19 2421.19 1938.12 2420.85 1936.63 2420.16 1935.72 2419.47 1934.81 2418.35 1934.35 2416.79 1934.35 2415.53 1934.35 2414.18 1934.85 2412.72 1935.85 2411.27 1936.86 2409.73 1938.37 2408.1 1940.39 2406.47 1942.41 2405.16 1944.38 2404.17 1946.28 2403.18 1948.18 2402.37 1950.52 2401.74 1953.31L2397.47 1972.76 2389.7 1972.76 2396.26 1944.28C2396.92 1941.4 2397.25 1939.19 2397.25 1937.63 2397.25 1936.43 2397.05 1935.56 2396.67 1935.02 2396.28 1934.48 2395.66 1934.22 2394.82 1934.22 2393.89 1934.22 2392.91 1934.6 2391.88 1935.36 2390.85 1936.12 2389.43 1937.51 2387.64 1939.52L2385.08 1937C2387.83 1934.13 2390.12 1932.08 2391.95 1930.87 2393.78 1929.66 2395.84 1929.05 2398.15 1929.05ZM2358.83 1910.72C2364.4 1910.72 2368.61 1911.94 2371.45 1914.38 2374.3 1916.82 2375.72 1920.36 2375.72 1925.01 2375.72 1926.59 2375.56 1928.05 2375.25 1929.39 2374.93 1930.72 2374.44 1932.04 2373.76 1933.34 2373.09 1934.64 2372.18 1936.04 2371.05 1937.54 2369.91 1939.04 2368.65 1940.56 2367.27 1942.1 2365.89 1943.64 2363.51 1946.21 2360.13 1949.8 2354.44 1955.82 2350.26 1961.08 2347.6 1965.57L2364.53 1965.57C2366 1965.57 2367.18 1965.48 2368.08 1965.3 2368.98 1965.12 2369.7 1964.82 2370.24 1964.4 2370.78 1963.98 2371.2 1963.44 2371.52 1962.76 2371.83 1962.09 2372.23 1961.05 2372.71 1959.64L2376.53 1959.64 2375.76 1972.76 2338.79 1972.76 2338.79 1970.6C2340.08 1967.46 2341.82 1964.24 2344 1960.94 2346.19 1957.65 2349.29 1953.77 2353.3 1949.31 2356.78 1945.48 2359.28 1942.57 2360.8 1940.59 2362.48 1938.44 2363.73 1936.57 2364.55 1935 2365.38 1933.43 2365.97 1931.95 2366.33 1930.55 2366.69 1929.16 2366.87 1927.76 2366.87 1926.35 2366.87 1924.11 2366.51 1922.12 2365.79 1920.4 2365.07 1918.68 2363.97 1917.32 2362.49 1916.34 2361.01 1915.35 2359.14 1914.85 2356.9 1914.85 2351.3 1914.85 2347.52 1917.97 2345.58 1924.2L2340.14 1924.2 2340.14 1915.57C2343.76 1913.87 2347.16 1912.63 2350.31 1911.87 2353.47 1911.1 2356.31 1910.72 2358.83 1910.72Z" fill="#5B5249" fill-rule="evenodd"/><text fill="#000000" fill-opacity="0" font-family="Arial,Arial_MSFontService,sans-serif" font-size="62.7559" x="2338.79" y="1965.63">2𝑛</text></g></svg>