<svg width="3933" height="1373" xmlns="http://www.w3.org/2000/svg" xmlns:xlink="http://www.w3.org/1999/xlink" xml:space="preserve" overflow="hidden"><g transform="translate(-248 -895)"><path d="M3171.38 901.542 3171.38 1573.46" stroke="#000000" stroke-width="4.58333" stroke-linejoin="round" stroke-miterlimit="10" fill="none" fill-rule="evenodd"/><path d="M3422.4 901.542 3422.4 1573.46" stroke="#000000" stroke-width="4.58333" stroke-linejoin="round" stroke-miterlimit="10" fill="none" fill-rule="evenodd"/><path d="M3673.42 901.542 3673.42 1573.46" stroke="#000000" stroke-width="4.58333" stroke-linejoin="round" stroke-miterlimit="10" fill="none" fill-rule="evenodd"/><path d="M3924.44 901.542 3924.44 1573.46" stroke="#000000" stroke-width="4.58333" stroke-linejoin="round" stroke-miterlimit="10" fill="none" fill-rule="evenodd"/><path d="M2561.97 1035.83 4177.75 1035.83" stroke="#000000" stroke-width="4.58333" stroke-linejoin="round" stroke-miterlimit="10" fill="none" fill-rule="evenodd"/><path d="M2561.97 1169.67 4177.75 1169.67" stroke="#000000" stroke-width="4.58333" stroke-linejoin="round" stroke-miterlimit="10" fill="none" fill-rule="evenodd"/><path d="M2561.97 1303.5 4177.75 1303.5" stroke="#000000" stroke-width="4.58333" stroke-linejoin="round" stroke-miterlimit="10" fill="none" fill-rule="evenodd"/><path d="M2561.97 1437.33 4177.75 1437.33" stroke="#000000" stroke-width="4.58333" stroke-linejoin="round" stroke-miterlimit="10" fill="none" fill-rule="evenodd"/><path d="M2564.26 901.542 2564.26 1573.46" stroke="#000000" stroke-width="4.58333" stroke-linejoin="round" stroke-miterlimit="10" fill="none" fill-rule="evenodd"/><path d="M4175.46 901.542 4175.46 1573.46" stroke="#000000" stroke-width="4.58333" stroke-linejoin="round" stroke-miterlimit="10" fill="none" fill-rule="evenodd"/><path d="M2561.97 903.833 4177.75 903.833" stroke="#000000" stroke-width="4.58333" stroke-linejoin="round" stroke-miterlimit="10" fill="none" fill-rule="evenodd"/><path d="M2561.97 1571.17 4177.75 1571.17" stroke="#000000" stroke-width="4.58333" stroke-linejoin="round" stroke-miterlimit="10" fill="none" fill-rule="evenodd"/><g><text font-family="Times New Roman,Times New Roman_MSFontService,sans-serif" font-weight="400" font-size="83" transform="matrix(1 0 0 1 3971.75 1000)">2</text></g><text font-family="Times New Roman,Times New Roman_MSFontService,sans-serif" font-weight="400" font-size="55" transform="matrix(1 0 0 1 4013 975)">0</text><g><text font-family="Times New Roman,Times New Roman_MSFontService,sans-serif" font-weight="400" font-size="83" transform="matrix(1 0 0 1 4040.5 1000)">=1</text></g><g><text font-family="Times New Roman,Times New Roman_MSFontService,sans-serif" font-weight="400" font-size="83" transform="matrix(1 0 0 1 3720.73 1000)">2</text></g><text font-family="Times New Roman,Times New Roman_MSFontService,sans-serif" font-weight="400" font-size="55" transform="matrix(1 0 0 1 3761.98 975)">1</text><g><text font-family="Times New Roman,Times New Roman_MSFontService,sans-serif" font-weight="400" font-size="83" transform="matrix(1 0 0 1 3789.48 1000)">=2</text></g><g><text font-family="Times New Roman,Times New Roman_MSFontService,sans-serif" font-weight="400" font-size="83" transform="matrix(1 0 0 1 3469.71 1000)">2</text></g><text font-family="Times New Roman,Times New Roman_MSFontService,sans-serif" font-weight="400" font-size="55" transform="matrix(1 0 0 1 3510.96 975)">2</text><g><text font-family="Times New Roman,Times New Roman_MSFontService,sans-serif" font-weight="400" font-size="83" transform="matrix(1 0 0 1 3538.46 1000)">=4</text></g><g><text font-family="Times New Roman,Times New Roman_MSFontService,sans-serif" font-weight="400" font-size="83" transform="matrix(1 0 0 1 3218.69 1000)">2</text></g><text font-family="Times New Roman,Times New Roman_MSFontService,sans-serif" font-weight="400" font-size="55" transform="matrix(1 0 0 1 3259.94 975)">3</text><g><text font-family="Times New Roman,Times New Roman_MSFontService,sans-serif" font-weight="400" font-size="83" transform="matrix(1 0 0 1 3287.44 1000)">=8</text></g><text font-family="Times New Roman,Times New Roman_MSFontService,sans-serif" font-weight="400" font-size="83" transform="matrix(1 0 0 1 4029.33 1132)">1</text><text font-family="Times New Roman,Times New Roman_MSFontService,sans-serif" font-weight="400" font-size="83" transform="matrix(1 0 0 1 3778.31 1132)">1</text><text font-family="Times New Roman,Times New Roman_MSFontService,sans-serif" font-weight="400" font-size="83" transform="matrix(1 0 0 1 3527.29 1132)">1</text><text font-family="Times New Roman,Times New Roman_MSFontService,sans-serif" font-weight="400" font-size="83" transform="matrix(1 0 0 1 3276.26 1132)">0</text><g><text font-family="Microsoft YaHei,Microsoft YaHei_MSFontService,sans-serif" font-weight="400" font-size="83" transform="matrix(1 0 0 1 2597.26 1131)">大小为</text></g><text font-family="Times New Roman,Times New Roman_MSFontService,sans-serif" font-weight="400" font-size="83" transform="matrix(1 0 0 1 2844.76 1131)">7</text><text font-family="Microsoft YaHei,Microsoft YaHei_MSFontService,sans-serif" font-weight="400" font-size="83" transform="matrix(1 0 0 1 2886.01 1131)">的堆</text><text font-family="Times New Roman,Times New Roman_MSFontService,sans-serif" font-weight="400" font-size="83" transform="matrix(1 0 0 1 4029.33 1266)">1</text><text font-family="Times New Roman,Times New Roman_MSFontService,sans-serif" font-weight="400" font-size="83" transform="matrix(1 0 0 1 3778.31 1266)">0</text><text font-family="Times New Roman,Times New Roman_MSFontService,sans-serif" font-weight="400" font-size="83" transform="matrix(1 0 0 1 3527.29 1266)">0</text><text font-family="Times New Roman,Times New Roman_MSFontService,sans-serif" font-weight="400" font-size="83" transform="matrix(1 0 0 1 3276.26 1266)">1</text><g><text font-family="Microsoft YaHei,Microsoft YaHei_MSFontService,sans-serif" font-weight="400" font-size="83" transform="matrix(1 0 0 1 2597.26 1265)">大小为</text></g><text font-family="Times New Roman,Times New Roman_MSFontService,sans-serif" font-weight="400" font-size="83" transform="matrix(1 0 0 1 2844.76 1265)">9</text><text font-family="Microsoft YaHei,Microsoft YaHei_MSFontService,sans-serif" font-weight="400" font-size="83" transform="matrix(1 0 0 1 2886.01 1265)">的堆</text><text font-family="Times New Roman,Times New Roman_MSFontService,sans-serif" font-weight="400" font-size="83" transform="matrix(1 0 0 1 4029.33 1400)">1</text><text font-family="Times New Roman,Times New Roman_MSFontService,sans-serif" font-weight="400" font-size="83" transform="matrix(1 0 0 1 3778.31 1400)">1</text><text font-family="Times New Roman,Times New Roman_MSFontService,sans-serif" font-weight="400" font-size="83" transform="matrix(1 0 0 1 3527.29 1400)">1</text><text font-family="Times New Roman,Times New Roman_MSFontService,sans-serif" font-weight="400" font-size="83" transform="matrix(1 0 0 1 3276.26 1400)">0</text><g><text font-family="Microsoft YaHei,Microsoft YaHei_MSFontService,sans-serif" font-weight="400" font-size="83" transform="matrix(1 0 0 1 2597.26 1399)">大小为</text></g><text font-family="Times New Roman,Times New Roman_MSFontService,sans-serif" font-weight="400" font-size="83" transform="matrix(1 0 0 1 2844.76 1399)">12</text><text font-family="Microsoft YaHei,Microsoft YaHei_MSFontService,sans-serif" font-weight="400" font-size="83" transform="matrix(1 0 0 1 2927.26 1399)">的堆</text><text font-family="Times New Roman,Times New Roman_MSFontService,sans-serif" font-weight="400" font-size="83" transform="matrix(1 0 0 1 4029.33 1534)">1</text><text font-family="Times New Roman,Times New Roman_MSFontService,sans-serif" font-weight="400" font-size="83" transform="matrix(1 0 0 1 3778.31 1534)">0</text><text font-family="Times New Roman,Times New Roman_MSFontService,sans-serif" font-weight="400" font-size="83" transform="matrix(1 0 0 1 3527.29 1534)">0</text><text font-family="Times New Roman,Times New Roman_MSFontService,sans-serif" font-weight="400" font-size="83" transform="matrix(1 0 0 1 3276.26 1534)">1</text><g><text font-family="Microsoft YaHei,Microsoft YaHei_MSFontService,sans-serif" font-weight="400" font-size="83" transform="matrix(1 0 0 1 2597.26 1533)">大小为</text></g><text font-family="Times New Roman,Times New Roman_MSFontService,sans-serif" font-weight="400" font-size="83" transform="matrix(1 0 0 1 2844.76 1533)">9</text><text font-family="Microsoft YaHei,Microsoft YaHei_MSFontService,sans-serif" font-weight="400" font-size="83" transform="matrix(1 0 0 1 2886.01 1533)">的堆</text><text font-family="Microsoft YaHei,Microsoft YaHei_MSFontService,sans-serif" font-weight="400" font-size="83" transform="matrix(1 0 0 1 1686.1 1719)">这个游戏中第</text><text font-family="Times New Roman,Times New Roman_MSFontService,sans-serif" font-weight="400" font-size="83" transform="matrix(1 0 0 1 2181.1 1719)">3</text><text font-family="Microsoft YaHei,Microsoft YaHei_MSFontService,sans-serif" font-weight="400" font-size="83" transform="matrix(1 0 0 1 2222.35 1719)">位、第</text><text font-family="Times New Roman,Times New Roman_MSFontService,sans-serif" font-weight="400" font-size="83" transform="matrix(1 0 0 1 2469.85 1719)">2</text><text font-family="Microsoft YaHei,Microsoft YaHei_MSFontService,sans-serif" font-weight="400" font-size="83" transform="matrix(1 0 0 1 2511.1 1719)">位和第</text><text font-family="Times New Roman,Times New Roman_MSFontService,sans-serif" font-weight="400" font-size="83" transform="matrix(1 0 0 1 2758.6 1719)">0</text><text font-family="Microsoft YaHei,Microsoft YaHei_MSFontService,sans-serif" font-weight="400" font-size="83" transform="matrix(1 0 0 1 2799.85 1719)">位是</text><text font-family="Microsoft YaHei,Microsoft YaHei_MSFontService,sans-serif" font-weight="400" font-size="83" transform="matrix(1 0 0 1 1686.1 1818)">不平衡的。玩家</text><text font-family="Times New Roman,Times New Roman_MSFontService,sans-serif" font-weight="400" font-size="83" transform="matrix(1 0 0 1 2263.6 1818)">Ⅰ</text><text font-family="Microsoft YaHei,Microsoft YaHei_MSFontService,sans-serif" font-weight="400" font-size="83" transform="matrix(1 0 0 1 2291.1 1818)">可以从大小为</text><text font-family="Times New Roman,Times New Roman_MSFontService,sans-serif" font-weight="400" font-size="83" transform="matrix(1 0 0 1 2786.1 1818)">12</text><text font-family="Microsoft YaHei,Microsoft YaHei_MSFontService,sans-serif" font-weight="400" font-size="83" transform="matrix(1 0 0 1 2868.6 1818)">的</text><text font-family="Microsoft YaHei,Microsoft YaHei_MSFontService,sans-serif" font-weight="400" font-size="83" transform="matrix(1 0 0 1 1686.1 1917)">堆中取走</text><text font-family="Times New Roman,Times New Roman_MSFontService,sans-serif" font-weight="400" font-size="83" transform="matrix(1 0 0 1 2016.1 1917)">5</text><text font-family="Microsoft YaHei,Microsoft YaHei_MSFontService,sans-serif" font-weight="400" font-size="83" transform="matrix(1 0 0 1 2057.35 1917)">枚硬币，留下</text><text font-family="Times New Roman,Times New Roman_MSFontService,sans-serif" font-weight="400" font-size="83" transform="matrix(1 0 0 1 2552.35 1917)">7</text><text font-family="Microsoft YaHei,Microsoft YaHei_MSFontService,sans-serif" font-weight="400" font-size="83" transform="matrix(1 0 0 1 2593.6 1917)">枚硬币。</text><path d="M858.084 908.769 858.084 1580.69" stroke="#000000" stroke-width="4.58333" stroke-linejoin="round" stroke-miterlimit="10" fill="none" fill-rule="evenodd"/><path d="M1109.1 908.769 1109.1 1580.69" stroke="#000000" stroke-width="4.58333" stroke-linejoin="round" stroke-miterlimit="10" fill="none" fill-rule="evenodd"/><path d="M1360.13 908.769 1360.13 1580.69" stroke="#000000" stroke-width="4.58333" stroke-linejoin="round" stroke-miterlimit="10" fill="none" fill-rule="evenodd"/><path d="M1611.15 908.769 1611.15 1580.69" stroke="#000000" stroke-width="4.58333" stroke-linejoin="round" stroke-miterlimit="10" fill="none" fill-rule="evenodd"/><path d="M248.673 1043.06 1864.46 1043.06" stroke="#000000" stroke-width="4.58333" stroke-linejoin="round" stroke-miterlimit="10" fill="none" fill-rule="evenodd"/><path d="M248.673 1176.89 1864.46 1176.89" stroke="#000000" stroke-width="4.58333" stroke-linejoin="round" stroke-miterlimit="10" fill="none" fill-rule="evenodd"/><path d="M248.673 1310.73 1864.46 1310.73" stroke="#000000" stroke-width="4.58333" stroke-linejoin="round" stroke-miterlimit="10" fill="none" fill-rule="evenodd"/><path d="M248.673 1444.56 1864.46 1444.56" stroke="#000000" stroke-width="4.58333" stroke-linejoin="round" stroke-miterlimit="10" fill="none" fill-rule="evenodd"/><path d="M250.965 908.769 250.965 1580.69" stroke="#000000" stroke-width="4.58333" stroke-linejoin="round" stroke-miterlimit="10" fill="none" fill-rule="evenodd"/><path d="M1862.17 908.769 1862.17 1580.69" stroke="#000000" stroke-width="4.58333" stroke-linejoin="round" stroke-miterlimit="10" fill="none" fill-rule="evenodd"/><path d="M248.673 911.061 1864.46 911.061" stroke="#000000" stroke-width="4.58333" stroke-linejoin="round" stroke-miterlimit="10" fill="none" fill-rule="evenodd"/><path d="M248.673 1578.39 1864.46 1578.39" stroke="#000000" stroke-width="4.58333" stroke-linejoin="round" stroke-miterlimit="10" fill="none" fill-rule="evenodd"/><g><text font-family="Times New Roman,Times New Roman_MSFontService,sans-serif" font-weight="400" font-size="83" transform="matrix(1 0 0 1 1658.45 1008)">2</text></g><text font-family="Times New Roman,Times New Roman_MSFontService,sans-serif" font-weight="400" font-size="55" transform="matrix(1 0 0 1 1699.7 983)">0</text><g><text font-family="Times New Roman,Times New Roman_MSFontService,sans-serif" font-weight="400" font-size="83" transform="matrix(1 0 0 1 1727.2 1008)">=1</text></g><g><text font-family="Times New Roman,Times New Roman_MSFontService,sans-serif" font-weight="400" font-size="83" transform="matrix(1 0 0 1 1407.43 1008)">2</text></g><text font-family="Times New Roman,Times New Roman_MSFontService,sans-serif" font-weight="400" font-size="55" transform="matrix(1 0 0 1 1448.68 983)">1</text><g><text font-family="Times New Roman,Times New Roman_MSFontService,sans-serif" font-weight="400" font-size="83" transform="matrix(1 0 0 1 1476.18 1008)">=2</text></g><g><text font-family="Times New Roman,Times New Roman_MSFontService,sans-serif" font-weight="400" font-size="83" transform="matrix(1 0 0 1 1156.41 1008)">2</text></g><text font-family="Times New Roman,Times New Roman_MSFontService,sans-serif" font-weight="400" font-size="55" transform="matrix(1 0 0 1 1197.66 983)">2</text><g><text font-family="Times New Roman,Times New Roman_MSFontService,sans-serif" font-weight="400" font-size="83" transform="matrix(1 0 0 1 1225.16 1008)">=4</text></g><g><text font-family="Times New Roman,Times New Roman_MSFontService,sans-serif" font-weight="400" font-size="83" transform="matrix(1 0 0 1 905.391 1008)">2</text></g><text font-family="Times New Roman,Times New Roman_MSFontService,sans-serif" font-weight="400" font-size="55" transform="matrix(1 0 0 1 946.641 983)">3</text><g><text font-family="Times New Roman,Times New Roman_MSFontService,sans-serif" font-weight="400" font-size="83" transform="matrix(1 0 0 1 974.141 1008)">=8</text></g><text font-family="Times New Roman,Times New Roman_MSFontService,sans-serif" font-weight="400" font-size="83" transform="matrix(1 0 0 1 1716.03 1140)">1</text><text font-family="Times New Roman,Times New Roman_MSFontService,sans-serif" font-weight="400" font-size="83" transform="matrix(1 0 0 1 1465.01 1140)">1</text><text font-family="Times New Roman,Times New Roman_MSFontService,sans-serif" font-weight="400" font-size="83" transform="matrix(1 0 0 1 1213.99 1140)">1</text><text font-family="Times New Roman,Times New Roman_MSFontService,sans-serif" font-weight="400" font-size="83" transform="matrix(1 0 0 1 962.969 1140)">0</text><g><text font-family="Microsoft YaHei,Microsoft YaHei_MSFontService,sans-serif" font-weight="400" font-size="83" transform="matrix(1 0 0 1 283.965 1139)">大小为</text></g><text font-family="Times New Roman,Times New Roman_MSFontService,sans-serif" font-weight="400" font-size="83" transform="matrix(1 0 0 1 531.465 1139)">7</text><text font-family="Microsoft YaHei,Microsoft YaHei_MSFontService,sans-serif" font-weight="400" font-size="83" transform="matrix(1 0 0 1 572.715 1139)">的堆</text><text font-family="Times New Roman,Times New Roman_MSFontService,sans-serif" font-weight="400" font-size="83" transform="matrix(1 0 0 1 1716.03 1273)">1</text><text font-family="Times New Roman,Times New Roman_MSFontService,sans-serif" font-weight="400" font-size="83" transform="matrix(1 0 0 1 1465.01 1273)">0</text><text font-family="Times New Roman,Times New Roman_MSFontService,sans-serif" font-weight="400" font-size="83" transform="matrix(1 0 0 1 1213.99 1273)">0</text><text font-family="Times New Roman,Times New Roman_MSFontService,sans-serif" font-weight="400" font-size="83" transform="matrix(1 0 0 1 962.969 1273)">1</text><g><text font-family="Microsoft YaHei,Microsoft YaHei_MSFontService,sans-serif" font-weight="400" font-size="83" transform="matrix(1 0 0 1 283.965 1272)">大小为</text></g><text font-family="Times New Roman,Times New Roman_MSFontService,sans-serif" font-weight="400" font-size="83" transform="matrix(1 0 0 1 531.465 1272)">9</text><text font-family="Microsoft YaHei,Microsoft YaHei_MSFontService,sans-serif" font-weight="400" font-size="83" transform="matrix(1 0 0 1 572.715 1272)">的堆</text><text font-family="Times New Roman,Times New Roman_MSFontService,sans-serif" font-weight="400" font-size="83" transform="matrix(1 0 0 1 1716.03 1407)">0</text><text font-family="Times New Roman,Times New Roman_MSFontService,sans-serif" font-weight="400" font-size="83" transform="matrix(1 0 0 1 1465.01 1407)">0</text><text font-family="Times New Roman,Times New Roman_MSFontService,sans-serif" font-weight="400" font-size="83" transform="matrix(1 0 0 1 1213.99 1407)">1</text><text font-family="Times New Roman,Times New Roman_MSFontService,sans-serif" font-weight="400" font-size="83" transform="matrix(1 0 0 1 962.969 1407)">1</text><g><text font-family="Microsoft YaHei,Microsoft YaHei_MSFontService,sans-serif" font-weight="400" font-size="83" transform="matrix(1 0 0 1 283.965 1406)">大小为</text></g><text font-family="Times New Roman,Times New Roman_MSFontService,sans-serif" font-weight="400" font-size="83" transform="matrix(1 0 0 1 531.465 1406)">12</text><text font-family="Microsoft YaHei,Microsoft YaHei_MSFontService,sans-serif" font-weight="400" font-size="83" transform="matrix(1 0 0 1 613.965 1406)">的堆</text><text font-family="Times New Roman,Times New Roman_MSFontService,sans-serif" font-weight="400" font-size="83" transform="matrix(1 0 0 1 1716.03 1541)">1</text><text font-family="Times New Roman,Times New Roman_MSFontService,sans-serif" font-weight="400" font-size="83" transform="matrix(1 0 0 1 1465.01 1541)">0</text><text font-family="Times New Roman,Times New Roman_MSFontService,sans-serif" font-weight="400" font-size="83" transform="matrix(1 0 0 1 1213.99 1541)">0</text><text font-family="Times New Roman,Times New Roman_MSFontService,sans-serif" font-weight="400" font-size="83" transform="matrix(1 0 0 1 962.969 1541)">1</text><g><text font-family="Microsoft YaHei,Microsoft YaHei_MSFontService,sans-serif" font-weight="400" font-size="83" transform="matrix(1 0 0 1 283.965 1540)">大小为</text></g><text font-family="Times New Roman,Times New Roman_MSFontService,sans-serif" font-weight="400" font-size="83" transform="matrix(1 0 0 1 531.465 1540)">9</text><text font-family="Microsoft YaHei,Microsoft YaHei_MSFontService,sans-serif" font-weight="400" font-size="83" transform="matrix(1 0 0 1 572.715 1540)">的堆</text><text font-family="Microsoft YaHei,Microsoft YaHei_MSFontService,sans-serif" font-weight="400" font-size="83" transform="matrix(1 0 0 1 801.704 2198)">非平衡游戏</text><path d="M1288.45 2089.52 1293.64 2096 1275.81 2096 1275.81 2131.02C1275.81 2132.96 1276.89 2133.93 1279.05 2133.93L1284.56 2133.93C1286.07 2133.93 1286.99 2132.53 1287.32 2129.72 1287.64 2126.91 1288.02 2122.8 1288.45 2117.4L1289.75 2117.4C1289.96 2122.8 1290.23 2126.75 1290.56 2129.23 1290.88 2131.72 1292.02 2133.18 1293.96 2133.61 1292.88 2136.42 1290.5 2137.82 1286.83 2137.82L1276.78 2137.82C1273.1 2137.61 1271.27 2135.77 1271.27 2132.31L1271.27 2096 1263.49 2096C1262.84 2109.62 1260.51 2119.61 1256.51 2125.99 1252.52 2132.37 1244.79 2137.28 1233.33 2140.74L1233.01 2139.77C1242.09 2135.66 1248.46 2130.69 1252.14 2124.86 1255.81 2119.02 1257.97 2109.4 1258.62 2096 1255.81 2096 1253.22 2096.32 1250.84 2096.97L1247.92 2094.06 1283.59 2094.06ZM1244.68 2069.41 1250.19 2075.25 1235.93 2075.25 1235.93 2096 1238.84 2096 1242.74 2092.43 1247.6 2097.95 1235.93 2097.95 1235.93 2119.99 1249.54 2116.1 1249.87 2117.4C1232.36 2123.88 1222.63 2128.42 1220.69 2131.02L1217.12 2124.86C1220.58 2123.99 1225.23 2122.8 1231.06 2121.29L1231.06 2097.95 1229.77 2097.95C1226.96 2097.95 1224.36 2098.27 1221.99 2098.92L1219.07 2096 1231.06 2096 1231.06 2075.25 1228.79 2075.25C1225.98 2075.25 1223.39 2075.57 1221.01 2076.22L1218.09 2073.31 1240.79 2073.31ZM1282.61 2068.77 1287.8 2074.93 1263.16 2074.93C1260.35 2074.93 1257.76 2075.25 1255.38 2075.9L1252.46 2072.98 1278.72 2072.98Z" fill-rule="evenodd"/><text fill="#000000" fill-opacity="0" font-family="Arial,Arial_MSFontService,sans-serif" font-size="71.9766" x="1217.12" y="2131.75">玩</text><path d="M1356.36 2084.98 1361.87 2090.81 1338.2 2090.81C1336.69 2092.11 1334.96 2093.73 1333.02 2095.68 1334.31 2096.76 1336.04 2098.38 1338.2 2100.54 1340.37 2102.7 1342.09 2104.86 1343.39 2107.02 1348.36 2103.78 1351.82 2101.4 1353.77 2099.89 1355.71 2098.38 1357.44 2096.65 1358.95 2094.7L1364.14 2100.22 1360.58 2100.54C1357.55 2101.84 1354.31 2103.24 1350.85 2104.75 1353.01 2111.89 1355.98 2117.34 1359.76 2121.13 1363.55 2124.91 1368.57 2127.34 1374.84 2128.42L1374.84 2129.4C1371.82 2129.61 1369.65 2130.91 1368.36 2133.29 1362.74 2130.26 1358.52 2126.59 1355.71 2122.26 1352.9 2117.94 1350.74 2112.43 1349.23 2105.73 1347.71 2106.38 1345.99 2107.24 1344.04 2108.32 1344.9 2110.7 1345.66 2113.29 1346.31 2116.1 1346.96 2118.91 1347.28 2122.26 1347.28 2126.15 1347.28 2130.04 1346.58 2133.29 1345.18 2135.88 1343.77 2138.47 1340.91 2140.53 1336.58 2142.04 1335.93 2139.23 1332.58 2136.85 1326.53 2134.91L1326.53 2133.61C1331.94 2134.69 1335.5 2135.18 1337.23 2135.07 1338.96 2134.96 1340.2 2134.26 1340.96 2132.96 1341.72 2131.66 1342.2 2129.72 1342.42 2127.13 1342.64 2124.53 1342.42 2120.75 1341.77 2115.78 1339.39 2119.02 1334.58 2122.91 1327.34 2127.45 1320.1 2131.99 1311.29 2135.66 1300.92 2138.47L1300.59 2137.18C1309.46 2134.15 1317.08 2130.53 1323.45 2126.31 1329.83 2122.1 1335.5 2116.97 1340.47 2110.91 1340.04 2108.54 1339.18 2106.48 1337.88 2104.75 1335.93 2107.13 1332.26 2110.16 1326.86 2113.83 1321.45 2117.51 1313.78 2120.97 1303.84 2124.21L1303.51 2122.91C1310.21 2120.32 1316.54 2117.02 1322.48 2113.02 1328.42 2109.02 1332.8 2105.19 1335.61 2101.51 1334.31 2099.78 1333.02 2098.27 1331.72 2096.97 1328.91 2099.35 1325.13 2101.73 1320.37 2104.11 1315.62 2106.48 1310 2108.65 1303.51 2110.59L1303.19 2109.29C1310.75 2106.48 1316.81 2103.51 1321.34 2100.38 1325.88 2097.24 1329.45 2094.06 1332.04 2090.81L1318.43 2090.81 1315.83 2091.46 1313.24 2088.87 1352.47 2088.87ZM1310.65 2073.95 1312.27 2073.95 1312.27 2077.84 1365.44 2077.84 1368.68 2074.28 1374.52 2080.11C1371.49 2080.11 1367.82 2082.6 1363.49 2087.57L1362.52 2086.92 1366.09 2079.79 1312.27 2079.79C1312.48 2083.25 1311.94 2085.46 1310.65 2086.44 1309.35 2087.41 1308.16 2087.9 1307.08 2087.9 1306.43 2087.9 1305.78 2087.68 1305.13 2087.25 1304.49 2086.81 1304.16 2086.49 1304.16 2086.27 1304.16 2085.63 1304.92 2084.65 1306.43 2083.36 1308.59 2081.63 1310 2078.49 1310.65 2073.95ZM1331.4 2065.85C1336.37 2067.15 1339.39 2068.39 1340.47 2069.58 1341.55 2070.77 1342.09 2071.79 1342.09 2072.66 1342.09 2073.52 1341.72 2074.55 1340.96 2075.74 1340.2 2076.93 1339.61 2077.52 1339.18 2077.52 1338.53 2077.52 1337.99 2076.66 1337.56 2074.93 1336.48 2072.33 1334.21 2069.52 1330.75 2066.5Z" fill-rule="evenodd"/><text fill="#000000" fill-opacity="0" font-family="Arial,Arial_MSFontService,sans-serif" font-size="76.1914" x="1300.59" y="2132.52">家</text><path d="M1381.27 2078.98 1404.82 2078.98 1404.82 2080.48 1402.83 2080.48C1400.59 2080.48 1398.95 2081.14 1397.93 2082.46 1397.25 2083.33 1396.91 2085.41 1396.91 2088.71L1396.91 2124.21C1396.91 2126.99 1397.09 2128.83 1397.44 2129.72 1397.71 2130.39 1398.28 2130.98 1399.14 2131.46 1400.31 2132.11 1401.53 2132.43 1402.83 2132.43L1404.82 2132.43 1404.82 2133.93 1381.27 2133.93 1381.27 2132.43 1383.22 2132.43C1385.49 2132.43 1387.13 2131.77 1388.16 2130.45 1388.81 2129.58 1389.13 2127.5 1389.13 2124.21L1389.13 2088.71C1389.13 2085.92 1388.96 2084.09 1388.61 2083.19 1388.34 2082.52 1387.78 2081.94 1386.95 2081.45 1385.76 2080.8 1384.51 2080.48 1383.22 2080.48L1381.27 2080.48Z" fill-rule="evenodd"/><text fill="#000000" fill-opacity="0" font-family="Arial,Arial_MSFontService,sans-serif" font-size="54.9551" x="1381.27" y="2127.06">Ⅰ</text><path d="M1382.63 2153.62 1402.45 2173.43 1402.45 2176.03 1382.63 2195.85 1380 2193.62 1386.52 2185.79 1353.56 2185.79 1340.2 2185.79 1323.28 2185.79 1309.95 2185.79 1293.01 2185.79 1279.68 2185.79 1262.76 2185.79 1249.4 2185.79 1219.15 2185.79 1219.15 2180.4 1249.4 2180.4 1262.76 2180.4 1279.68 2180.4 1293.01 2180.4 1309.95 2180.4 1323.28 2180.4 1340.2 2180.4 1353.56 2180.4 1390.7 2180.4 1395.28 2174.73 1390.62 2168.98 1353.56 2168.98 1340.2 2168.98 1323.28 2168.98 1309.95 2168.98 1293.01 2168.98 1279.68 2168.98 1262.76 2168.98 1249.4 2168.98 1219.15 2168.98 1219.15 2163.59 1249.4 2163.59 1262.76 2163.59 1279.68 2163.59 1293.01 2163.59 1309.95 2163.59 1323.28 2163.59 1340.2 2163.59 1353.56 2163.59 1386.48 2163.59 1380 2155.84Z" fill-rule="evenodd"/><text font-family="Microsoft YaHei,Microsoft YaHei_MSFontService,sans-serif" font-weight="400" font-size="83" transform="matrix(1 0 0 1 1406.7 2198)">平衡游戏</text><path d="M1810.95 2089.52 1816.14 2096 1798.31 2096 1798.31 2131.02C1798.31 2132.96 1799.39 2133.93 1801.55 2133.93L1807.06 2133.93C1808.57 2133.93 1809.49 2132.53 1809.82 2129.72 1810.14 2126.91 1810.52 2122.8 1810.95 2117.4L1812.25 2117.4C1812.46 2122.8 1812.73 2126.75 1813.06 2129.23 1813.38 2131.72 1814.52 2133.18 1816.46 2133.61 1815.38 2136.42 1813 2137.82 1809.33 2137.82L1799.28 2137.82C1795.6 2137.61 1793.77 2135.77 1793.77 2132.31L1793.77 2096 1785.99 2096C1785.34 2109.62 1783.01 2119.61 1779.01 2125.99 1775.02 2132.37 1767.29 2137.28 1755.83 2140.74L1755.51 2139.77C1764.59 2135.66 1770.96 2130.69 1774.64 2124.86 1778.31 2119.02 1780.47 2109.4 1781.12 2096 1778.31 2096 1775.72 2096.32 1773.34 2096.97L1770.42 2094.06 1806.09 2094.06ZM1767.18 2069.41 1772.69 2075.25 1758.43 2075.25 1758.43 2096 1761.34 2096 1765.24 2092.43 1770.1 2097.95 1758.43 2097.95 1758.43 2119.99 1772.04 2116.1 1772.37 2117.4C1754.86 2123.88 1745.13 2128.42 1743.19 2131.02L1739.62 2124.86C1743.08 2123.99 1747.73 2122.8 1753.56 2121.29L1753.56 2097.95 1752.27 2097.95C1749.46 2097.95 1746.86 2098.27 1744.49 2098.92L1741.57 2096 1753.56 2096 1753.56 2075.25 1751.29 2075.25C1748.48 2075.25 1745.89 2075.57 1743.51 2076.22L1740.59 2073.31 1763.29 2073.31ZM1805.11 2068.77 1810.3 2074.93 1785.66 2074.93C1782.85 2074.93 1780.26 2075.25 1777.88 2075.9L1774.96 2072.98 1801.22 2072.98Z" fill-rule="evenodd"/><text fill="#000000" fill-opacity="0" font-family="Arial,Arial_MSFontService,sans-serif" font-size="71.9766" x="1739.62" y="2131.75">玩</text><path d="M1878.86 2084.98 1884.37 2090.81 1860.7 2090.81C1859.19 2092.11 1857.46 2093.73 1855.52 2095.68 1856.81 2096.76 1858.54 2098.38 1860.7 2100.54 1862.87 2102.7 1864.59 2104.86 1865.89 2107.02 1870.86 2103.78 1874.32 2101.4 1876.27 2099.89 1878.21 2098.38 1879.94 2096.65 1881.45 2094.7L1886.64 2100.22 1883.08 2100.54C1880.05 2101.84 1876.81 2103.24 1873.35 2104.75 1875.51 2111.89 1878.48 2117.34 1882.26 2121.13 1886.05 2124.91 1891.07 2127.34 1897.34 2128.42L1897.34 2129.4C1894.32 2129.61 1892.15 2130.91 1890.86 2133.29 1885.24 2130.26 1881.02 2126.59 1878.21 2122.26 1875.4 2117.94 1873.24 2112.43 1871.73 2105.73 1870.21 2106.38 1868.49 2107.24 1866.54 2108.32 1867.4 2110.7 1868.16 2113.29 1868.81 2116.1 1869.46 2118.91 1869.78 2122.26 1869.78 2126.15 1869.78 2130.04 1869.08 2133.29 1867.68 2135.88 1866.27 2138.47 1863.41 2140.53 1859.08 2142.04 1858.43 2139.23 1855.08 2136.85 1849.03 2134.91L1849.03 2133.61C1854.44 2134.69 1858 2135.18 1859.73 2135.07 1861.46 2134.96 1862.7 2134.26 1863.46 2132.96 1864.22 2131.66 1864.7 2129.72 1864.92 2127.13 1865.14 2124.53 1864.92 2120.75 1864.27 2115.78 1861.89 2119.02 1857.08 2122.91 1849.84 2127.45 1842.6 2131.99 1833.79 2135.66 1823.42 2138.47L1823.09 2137.18C1831.96 2134.15 1839.58 2130.53 1845.95 2126.31 1852.33 2122.1 1858 2116.97 1862.97 2110.91 1862.54 2108.54 1861.68 2106.48 1860.38 2104.75 1858.43 2107.13 1854.76 2110.16 1849.36 2113.83 1843.95 2117.51 1836.28 2120.97 1826.34 2124.21L1826.01 2122.91C1832.71 2120.32 1839.04 2117.02 1844.98 2113.02 1850.92 2109.02 1855.3 2105.19 1858.11 2101.51 1856.81 2099.78 1855.52 2098.27 1854.22 2096.97 1851.41 2099.35 1847.63 2101.73 1842.87 2104.11 1838.12 2106.48 1832.5 2108.65 1826.01 2110.59L1825.69 2109.29C1833.25 2106.48 1839.31 2103.51 1843.84 2100.38 1848.38 2097.24 1851.95 2094.06 1854.54 2090.81L1840.93 2090.81 1838.33 2091.46 1835.74 2088.87 1874.97 2088.87ZM1833.15 2073.95 1834.77 2073.95 1834.77 2077.84 1887.94 2077.84 1891.18 2074.28 1897.02 2080.11C1893.99 2080.11 1890.32 2082.6 1885.99 2087.57L1885.02 2086.92 1888.59 2079.79 1834.77 2079.79C1834.98 2083.25 1834.44 2085.46 1833.15 2086.44 1831.85 2087.41 1830.66 2087.9 1829.58 2087.9 1828.93 2087.9 1828.28 2087.68 1827.63 2087.25 1826.99 2086.81 1826.66 2086.49 1826.66 2086.27 1826.66 2085.63 1827.42 2084.65 1828.93 2083.36 1831.09 2081.63 1832.5 2078.49 1833.15 2073.95ZM1853.9 2065.85C1858.87 2067.15 1861.89 2068.39 1862.97 2069.58 1864.05 2070.77 1864.59 2071.79 1864.59 2072.66 1864.59 2073.52 1864.22 2074.55 1863.46 2075.74 1862.7 2076.93 1862.11 2077.52 1861.68 2077.52 1861.03 2077.52 1860.49 2076.66 1860.06 2074.93 1858.98 2072.33 1856.71 2069.52 1853.25 2066.5Z" fill-rule="evenodd"/><text fill="#000000" fill-opacity="0" font-family="Arial,Arial_MSFontService,sans-serif" font-size="76.1914" x="1823.09" y="2132.52">家</text><path d="M1929.75 2078.98 1953.3 2078.98 1953.3 2080.48 1951.31 2080.48C1949.07 2080.48 1947.43 2081.14 1946.41 2082.46 1945.73 2083.33 1945.39 2085.41 1945.39 2088.71L1945.39 2124.21C1945.39 2126.99 1945.57 2128.83 1945.92 2129.72 1946.19 2130.39 1946.76 2130.98 1947.62 2131.46 1948.78 2132.11 1950.01 2132.43 1951.31 2132.43L1953.3 2132.43 1953.3 2133.93 1929.75 2133.93 1929.75 2132.43 1931.69 2132.43C1933.96 2132.43 1935.61 2131.77 1936.64 2130.45 1937.29 2129.58 1937.61 2127.5 1937.61 2124.21L1937.61 2088.71C1937.61 2085.92 1937.44 2084.09 1937.08 2083.19 1936.81 2082.52 1936.26 2081.94 1935.42 2081.45 1934.23 2080.8 1932.99 2080.48 1931.69 2080.48L1929.75 2080.48ZM1903.77 2078.98 1927.32 2078.98 1927.32 2080.48 1925.33 2080.48C1923.09 2080.48 1921.45 2081.14 1920.43 2082.46 1919.75 2083.33 1919.41 2085.41 1919.41 2088.71L1919.41 2124.21C1919.41 2126.99 1919.59 2128.83 1919.94 2129.72 1920.21 2130.39 1920.78 2130.98 1921.64 2131.46 1922.81 2132.11 1924.03 2132.43 1925.33 2132.43L1927.32 2132.43 1927.32 2133.93 1903.77 2133.93 1903.77 2132.43 1905.72 2132.43C1907.99 2132.43 1909.63 2131.77 1910.66 2130.45 1911.31 2129.58 1911.63 2127.5 1911.63 2124.21L1911.63 2088.71C1911.63 2085.92 1911.46 2084.09 1911.11 2083.19 1910.84 2082.52 1910.28 2081.94 1909.45 2081.45 1908.26 2080.8 1907.01 2080.48 1905.72 2080.48L1903.77 2080.48Z" fill-rule="evenodd"/><text fill="#000000" fill-opacity="0" font-family="Arial,Arial_MSFontService,sans-serif" font-size="54.9551" x="1903.77" y="2127.06">Ⅱ</text><path d="M1930.91 2153.62 1950.73 2173.43 1950.73 2176.03 1930.91 2195.85 1928.28 2193.62 1934.8 2185.79 1902.73 2185.79 1888.48 2185.79 1873.38 2185.79 1859.13 2185.79 1844 2185.79 1829.77 2185.79 1814.62 2185.79 1800.39 2185.79 1785.26 2185.79 1771.01 2185.79 1741.65 2185.79 1741.65 2180.4 1771.01 2180.4 1785.26 2180.4 1800.39 2180.4 1814.62 2180.4 1829.77 2180.4 1844 2180.4 1859.13 2180.4 1873.38 2180.4 1888.48 2180.4 1902.73 2180.4 1938.98 2180.4 1943.56 2174.73 1938.9 2168.98 1902.73 2168.98 1888.48 2168.98 1873.38 2168.98 1859.13 2168.98 1844 2168.98 1829.77 2168.98 1814.62 2168.98 1800.39 2168.98 1785.26 2168.98 1771.01 2168.98 1741.65 2168.98 1741.65 2163.59 1771.01 2163.59 1785.26 2163.59 1800.39 2163.59 1814.62 2163.59 1829.77 2163.59 1844 2163.59 1859.13 2163.59 1873.38 2163.59 1888.48 2163.59 1902.73 2163.59 1934.76 2163.59 1928.28 2155.84Z" fill-rule="evenodd"/><text font-family="Microsoft YaHei,Microsoft YaHei_MSFontService,sans-serif" font-weight="400" font-size="83" transform="matrix(1 0 0 1 1954.99 2198)">非平衡游戏</text><path d="M2441.73 2089.52 2446.92 2096 2429.09 2096 2429.09 2131.02C2429.09 2132.96 2430.17 2133.93 2432.33 2133.93L2437.84 2133.93C2439.35 2133.93 2440.27 2132.53 2440.6 2129.72 2440.92 2126.91 2441.3 2122.8 2441.73 2117.4L2443.03 2117.4C2443.24 2122.8 2443.51 2126.75 2443.84 2129.23 2444.16 2131.72 2445.3 2133.18 2447.24 2133.61 2446.16 2136.42 2443.79 2137.82 2440.11 2137.82L2430.06 2137.82C2426.39 2137.61 2424.55 2135.77 2424.55 2132.31L2424.55 2096 2416.77 2096C2416.12 2109.62 2413.79 2119.61 2409.8 2125.99 2405.8 2132.37 2398.07 2137.28 2386.61 2140.74L2386.29 2139.77C2395.37 2135.66 2401.74 2130.69 2405.42 2124.86 2409.09 2119.02 2411.26 2109.4 2411.9 2096 2409.09 2096 2406.5 2096.32 2404.12 2096.97L2401.2 2094.06 2436.87 2094.06ZM2397.96 2069.41 2403.47 2075.25 2389.21 2075.25 2389.21 2096 2392.13 2096 2396.02 2092.43 2400.88 2097.95 2389.21 2097.95 2389.21 2119.99 2402.83 2116.1 2403.15 2117.4C2385.64 2123.88 2375.92 2128.42 2373.97 2131.02L2370.4 2124.86C2373.86 2123.99 2378.51 2122.8 2384.34 2121.29L2384.34 2097.95 2383.05 2097.95C2380.24 2097.95 2377.64 2098.27 2375.27 2098.92L2372.35 2096 2384.34 2096 2384.34 2075.25 2382.08 2075.25C2379.27 2075.25 2376.67 2075.57 2374.29 2076.22L2371.38 2073.31 2394.07 2073.31ZM2435.9 2068.77 2441.08 2074.93 2416.44 2074.93C2413.63 2074.93 2411.04 2075.25 2408.66 2075.9L2405.74 2072.98 2432.01 2072.98Z" fill-rule="evenodd"/><text fill="#000000" fill-opacity="0" font-family="Arial,Arial_MSFontService,sans-serif" font-size="71.9766" x="2370.4" y="2131.75">玩</text><path d="M2509.64 2084.98 2515.15 2090.81 2491.49 2090.81C2489.97 2092.11 2488.24 2093.73 2486.3 2095.68 2487.59 2096.76 2489.32 2098.38 2491.49 2100.54 2493.65 2102.7 2495.38 2104.86 2496.67 2107.02 2501.64 2103.78 2505.1 2101.4 2507.05 2099.89 2508.99 2098.38 2510.72 2096.65 2512.24 2094.7L2517.42 2100.22 2513.86 2100.54C2510.83 2101.84 2507.59 2103.24 2504.13 2104.75 2506.29 2111.89 2509.26 2117.34 2513.05 2121.13 2516.83 2124.91 2521.85 2127.34 2528.12 2128.42L2528.12 2129.4C2525.1 2129.61 2522.93 2130.91 2521.64 2133.29 2516.02 2130.26 2511.8 2126.59 2508.99 2122.26 2506.18 2117.94 2504.02 2112.43 2502.51 2105.73 2501 2106.38 2499.27 2107.24 2497.32 2108.32 2498.19 2110.7 2498.94 2113.29 2499.59 2116.1 2500.24 2118.91 2500.56 2122.26 2500.56 2126.15 2500.56 2130.04 2499.86 2133.29 2498.46 2135.88 2497.05 2138.47 2494.19 2140.53 2489.86 2142.04 2489.22 2139.23 2485.87 2136.85 2479.81 2134.91L2479.81 2133.61C2485.22 2134.69 2488.78 2135.18 2490.51 2135.07 2492.24 2134.96 2493.48 2134.26 2494.24 2132.96 2495 2131.66 2495.48 2129.72 2495.7 2127.13 2495.92 2124.53 2495.7 2120.75 2495.05 2115.78 2492.67 2119.02 2487.87 2122.91 2480.62 2127.45 2473.38 2131.99 2464.58 2135.66 2454.2 2138.47L2453.88 2137.18C2462.74 2134.15 2470.36 2130.53 2476.73 2126.31 2483.11 2122.1 2488.78 2116.97 2493.76 2110.91 2493.32 2108.54 2492.46 2106.48 2491.16 2104.75 2489.22 2107.13 2485.54 2110.16 2480.14 2113.83 2474.73 2117.51 2467.06 2120.97 2457.12 2124.21L2456.79 2122.91C2463.49 2120.32 2469.82 2117.02 2475.76 2113.02 2481.71 2109.02 2486.08 2105.19 2488.89 2101.51 2487.59 2099.78 2486.3 2098.27 2485 2096.97 2482.19 2099.35 2478.41 2101.73 2473.65 2104.11 2468.9 2106.48 2463.28 2108.65 2456.79 2110.59L2456.47 2109.29C2464.04 2106.48 2470.09 2103.51 2474.63 2100.38 2479.17 2097.24 2482.73 2094.06 2485.33 2090.81L2471.71 2090.81 2469.11 2091.46 2466.52 2088.87 2505.75 2088.87ZM2463.93 2073.95 2465.55 2073.95 2465.55 2077.84 2518.72 2077.84 2521.96 2074.28 2527.8 2080.11C2524.77 2080.11 2521.1 2082.6 2516.77 2087.57L2515.8 2086.92 2519.37 2079.79 2465.55 2079.79C2465.76 2083.25 2465.22 2085.46 2463.93 2086.44 2462.63 2087.41 2461.44 2087.9 2460.36 2087.9 2459.71 2087.9 2459.06 2087.68 2458.42 2087.25 2457.77 2086.81 2457.44 2086.49 2457.44 2086.27 2457.44 2085.63 2458.2 2084.65 2459.71 2083.36 2461.87 2081.63 2463.28 2078.49 2463.93 2073.95ZM2484.68 2065.85C2489.65 2067.15 2492.67 2068.39 2493.76 2069.58 2494.84 2070.77 2495.38 2071.79 2495.38 2072.66 2495.38 2073.52 2495 2074.55 2494.24 2075.74 2493.48 2076.93 2492.89 2077.52 2492.46 2077.52 2491.81 2077.52 2491.27 2076.66 2490.84 2074.93 2489.76 2072.33 2487.49 2069.52 2484.03 2066.5Z" fill-rule="evenodd"/><text fill="#000000" fill-opacity="0" font-family="Arial,Arial_MSFontService,sans-serif" font-size="76.1914" x="2453.88" y="2132.52">家</text><path d="M2534.55 2078.98 2558.1 2078.98 2558.1 2080.48 2556.11 2080.48C2553.87 2080.48 2552.24 2081.14 2551.21 2082.46 2550.53 2083.33 2550.2 2085.41 2550.2 2088.71L2550.2 2124.21C2550.2 2126.99 2550.37 2128.83 2550.72 2129.72 2550.99 2130.39 2551.56 2130.98 2552.43 2131.46 2553.59 2132.11 2554.82 2132.43 2556.11 2132.43L2558.1 2132.43 2558.1 2133.93 2534.55 2133.93 2534.55 2132.43 2536.5 2132.43C2538.77 2132.43 2540.42 2131.77 2541.44 2130.45 2542.09 2129.58 2542.41 2127.5 2542.41 2124.21L2542.41 2088.71C2542.41 2085.92 2542.24 2084.09 2541.89 2083.19 2541.62 2082.52 2541.06 2081.94 2540.23 2081.45 2539.04 2080.8 2537.79 2080.48 2536.5 2080.48L2534.55 2080.48Z" fill-rule="evenodd"/><text fill="#000000" fill-opacity="0" font-family="Arial,Arial_MSFontService,sans-serif" font-size="54.9551" x="2534.55" y="2127.06">Ⅰ</text><path d="M2535.91 2153.62 2555.73 2173.43 2555.73 2176.03 2535.91 2195.85 2533.28 2193.62 2539.8 2185.79 2506.84 2185.79 2493.48 2185.79 2476.57 2185.79 2463.23 2185.79 2446.29 2185.79 2432.96 2185.79 2416.04 2185.79 2402.69 2185.79 2372.43 2185.79 2372.43 2180.4 2402.69 2180.4 2416.04 2180.4 2432.96 2180.4 2446.29 2180.4 2463.23 2180.4 2476.57 2180.4 2493.48 2180.4 2506.84 2180.4 2543.98 2180.4 2548.56 2174.73 2543.9 2168.98 2506.84 2168.98 2493.48 2168.98 2476.57 2168.98 2463.23 2168.98 2446.29 2168.98 2432.96 2168.98 2416.04 2168.98 2402.69 2168.98 2372.43 2168.98 2372.43 2163.59 2402.69 2163.59 2416.04 2163.59 2432.96 2163.59 2446.29 2163.59 2463.23 2163.59 2476.57 2163.59 2493.48 2163.59 2506.84 2163.59 2539.76 2163.59 2533.28 2155.84Z" fill-rule="evenodd"/><text font-family="Times New Roman,Times New Roman_MSFontService,sans-serif" font-weight="400" font-size="83" transform="matrix(1 0 0 1 2559.99 2198)">…</text><path d="M2737.36 2089.52 2742.54 2096 2724.71 2096 2724.71 2131.02C2724.71 2132.96 2725.79 2133.93 2727.95 2133.93L2733.47 2133.93C2734.98 2133.93 2735.9 2132.53 2736.22 2129.72 2736.55 2126.91 2736.92 2122.8 2737.36 2117.4L2738.65 2117.4C2738.87 2122.8 2739.14 2126.75 2739.46 2129.23 2739.79 2131.72 2740.92 2133.18 2742.87 2133.61 2741.79 2136.42 2739.41 2137.82 2735.74 2137.82L2725.68 2137.82C2722.01 2137.61 2720.17 2135.77 2720.17 2132.31L2720.17 2096 2712.39 2096C2711.74 2109.62 2709.42 2119.61 2705.42 2125.99 2701.42 2132.37 2693.7 2137.28 2682.24 2140.74L2681.92 2139.77C2690.99 2135.66 2697.37 2130.69 2701.04 2124.86 2704.72 2119.02 2706.88 2109.4 2707.53 2096 2704.72 2096 2702.12 2096.32 2699.75 2096.97L2696.83 2094.06 2732.49 2094.06ZM2693.59 2069.41 2699.1 2075.25 2684.83 2075.25 2684.83 2096 2687.75 2096 2691.64 2092.43 2696.51 2097.95 2684.83 2097.95 2684.83 2119.99 2698.45 2116.1 2698.77 2117.4C2681.27 2123.88 2671.54 2128.42 2669.59 2131.02L2666.03 2124.86C2669.49 2123.99 2674.13 2122.8 2679.97 2121.29L2679.97 2097.95 2678.67 2097.95C2675.86 2097.95 2673.27 2098.27 2670.89 2098.92L2667.97 2096 2679.97 2096 2679.97 2075.25 2677.7 2075.25C2674.89 2075.25 2672.3 2075.57 2669.92 2076.22L2667 2073.31 2689.7 2073.31ZM2731.52 2068.77 2736.71 2074.93 2712.07 2074.93C2709.26 2074.93 2706.66 2075.25 2704.29 2075.9L2701.37 2072.98 2727.63 2072.98Z" fill-rule="evenodd"/><text fill="#000000" fill-opacity="0" font-family="Arial,Arial_MSFontService,sans-serif" font-size="71.9766" x="2666.03" y="2131.75">玩</text><path d="M2805.27 2084.98 2810.78 2090.81 2787.11 2090.81C2785.6 2092.11 2783.87 2093.73 2781.92 2095.68 2783.22 2096.76 2784.95 2098.38 2787.11 2100.54 2789.27 2102.7 2791 2104.86 2792.3 2107.02 2797.27 2103.78 2800.73 2101.4 2802.67 2099.89 2804.62 2098.38 2806.35 2096.65 2807.86 2094.7L2813.05 2100.22 2809.48 2100.54C2806.46 2101.84 2803.21 2103.24 2799.76 2104.75 2801.92 2111.89 2804.89 2117.34 2808.67 2121.13 2812.45 2124.91 2817.48 2127.34 2823.75 2128.42L2823.75 2129.4C2820.72 2129.61 2818.56 2130.91 2817.26 2133.29 2811.64 2130.26 2807.43 2126.59 2804.62 2122.26 2801.81 2117.94 2799.65 2112.43 2798.13 2105.73 2796.62 2106.38 2794.89 2107.24 2792.95 2108.32 2793.81 2110.7 2794.57 2113.29 2795.22 2116.1 2795.86 2118.91 2796.19 2122.26 2796.19 2126.15 2796.19 2130.04 2795.49 2133.29 2794.08 2135.88 2792.68 2138.47 2789.81 2140.53 2785.49 2142.04 2784.84 2139.23 2781.49 2136.85 2775.44 2134.91L2775.44 2133.61C2780.84 2134.69 2784.41 2135.18 2786.14 2135.07 2787.87 2134.96 2789.11 2134.26 2789.87 2132.96 2790.62 2131.66 2791.11 2129.72 2791.33 2127.13 2791.54 2124.53 2791.33 2120.75 2790.68 2115.78 2788.3 2119.02 2783.49 2122.91 2776.25 2127.45 2769.01 2131.99 2760.2 2135.66 2749.83 2138.47L2749.5 2137.18C2758.36 2134.15 2765.98 2130.53 2772.36 2126.31 2778.73 2122.1 2784.41 2116.97 2789.38 2110.91 2788.95 2108.54 2788.08 2106.48 2786.79 2104.75 2784.84 2107.13 2781.17 2110.16 2775.76 2113.83 2770.36 2117.51 2762.69 2120.97 2752.74 2124.21L2752.42 2122.91C2759.12 2120.32 2765.44 2117.02 2771.39 2113.02 2777.33 2109.02 2781.71 2105.19 2784.52 2101.51 2783.22 2099.78 2781.92 2098.27 2780.63 2096.97 2777.82 2099.35 2774.03 2101.73 2769.28 2104.11 2764.52 2106.48 2758.9 2108.65 2752.42 2110.59L2752.09 2109.29C2759.66 2106.48 2765.71 2103.51 2770.25 2100.38 2774.79 2097.24 2778.36 2094.06 2780.95 2090.81L2767.33 2090.81 2764.74 2091.46 2762.15 2088.87 2801.38 2088.87ZM2759.55 2073.95 2761.17 2073.95 2761.17 2077.84 2814.34 2077.84 2817.59 2074.28 2823.42 2080.11C2820.4 2080.11 2816.72 2082.6 2812.4 2087.57L2811.43 2086.92 2814.99 2079.79 2761.17 2079.79C2761.39 2083.25 2760.85 2085.46 2759.55 2086.44 2758.26 2087.41 2757.07 2087.9 2755.99 2087.9 2755.34 2087.9 2754.69 2087.68 2754.04 2087.25 2753.39 2086.81 2753.07 2086.49 2753.07 2086.27 2753.07 2085.63 2753.82 2084.65 2755.34 2083.36 2757.5 2081.63 2758.9 2078.49 2759.55 2073.95ZM2780.3 2065.85C2785.27 2067.15 2788.3 2068.39 2789.38 2069.58 2790.46 2070.77 2791 2071.79 2791 2072.66 2791 2073.52 2790.62 2074.55 2789.87 2075.74 2789.11 2076.93 2788.52 2077.52 2788.08 2077.52 2787.43 2077.52 2786.89 2076.66 2786.46 2074.93 2785.38 2072.33 2783.11 2069.52 2779.65 2066.5Z" fill-rule="evenodd"/><text fill="#000000" fill-opacity="0" font-family="Arial,Arial_MSFontService,sans-serif" font-size="76.1914" x="2749.5" y="2132.52">家</text><path d="M2830.18 2078.98 2853.72 2078.98 2853.72 2080.48 2851.74 2080.48C2849.5 2080.48 2847.86 2081.14 2846.83 2082.46 2846.16 2083.33 2845.82 2085.41 2845.82 2088.71L2845.82 2124.21C2845.82 2126.99 2846 2128.83 2846.35 2129.72 2846.62 2130.39 2847.19 2130.98 2848.05 2131.46 2849.21 2132.11 2850.44 2132.43 2851.74 2132.43L2853.72 2132.43 2853.72 2133.93 2830.18 2133.93 2830.18 2132.43 2832.12 2132.43C2834.39 2132.43 2836.04 2131.77 2837.07 2130.45 2837.72 2129.58 2838.04 2127.5 2838.04 2124.21L2838.04 2088.71C2838.04 2085.92 2837.86 2084.09 2837.51 2083.19 2837.24 2082.52 2836.69 2081.94 2835.85 2081.45 2834.66 2080.8 2833.42 2080.48 2832.12 2080.48L2830.18 2080.48Z" fill-rule="evenodd"/><text fill="#000000" fill-opacity="0" font-family="Arial,Arial_MSFontService,sans-serif" font-size="54.9551" x="2830.18" y="2127.06">Ⅰ</text><path d="M2831.54 2153.62 2851.36 2173.43 2851.36 2176.03 2831.54 2195.85 2828.9 2193.62 2835.43 2185.79 2802.46 2185.79 2789.11 2185.79 2772.19 2185.79 2758.86 2185.79 2741.92 2185.79 2728.58 2185.79 2711.66 2185.79 2698.31 2185.79 2668.05 2185.79 2668.05 2180.4 2698.31 2180.4 2711.66 2180.4 2728.58 2180.4 2741.92 2180.4 2758.86 2180.4 2772.19 2180.4 2789.11 2180.4 2802.46 2180.4 2839.6 2180.4 2844.18 2174.73 2839.52 2168.98 2802.46 2168.98 2789.11 2168.98 2772.19 2168.98 2758.86 2168.98 2741.92 2168.98 2728.58 2168.98 2711.66 2168.98 2698.31 2168.98 2668.05 2168.98 2668.05 2163.59 2698.31 2163.59 2711.66 2163.59 2728.58 2163.59 2741.92 2163.59 2758.86 2163.59 2772.19 2163.59 2789.11 2163.59 2802.46 2163.59 2835.39 2163.59 2828.9 2155.84Z" fill-rule="evenodd"/><text font-family="Microsoft YaHei,Microsoft YaHei_MSFontService,sans-serif" font-weight="400" font-size="83" transform="matrix(1 0 0 1 2855.61 2198)">平衡游戏</text><text font-family="Times New Roman,Times New Roman_MSFontService,sans-serif" font-weight="400" font-size="83" transform="matrix(1 0 0 1 3185.61 2198)">(</text><text font-family="Microsoft YaHei,Microsoft YaHei_MSFontService,sans-serif" font-weight="400" font-size="83" transform="matrix(1 0 0 1 3213.11 2198)">游戏结束</text><text font-family="Times New Roman,Times New Roman_MSFontService,sans-serif" font-weight="400" font-size="83" transform="matrix(1 0 0 1 3543.11 2198)">)</text><path d="M1940.5 1173.25 2409 1173.25 2409 1134.5 2486.5 1212 2409 1289.5 2409 1250.75 1940.5 1250.75Z" stroke="#2F528F" stroke-width="4.58333" stroke-miterlimit="8" fill="#4472C4" fill-rule="evenodd"/></g></svg>