<svg width="2320" height="954" xmlns="http://www.w3.org/2000/svg" xmlns:xlink="http://www.w3.org/1999/xlink" xml:space="preserve" overflow="hidden"><g transform="translate(-523 -821)"><text font-family="DengXian,DengXian_MSFontService,sans-serif" font-weight="400" font-size="46" transform="matrix(1 0 0 1 1631.24 889)">●</text><text font-family="DengXian,DengXian_MSFontService,sans-serif" font-weight="400" font-size="46" transform="matrix(1 0 0 1 1527.31 889)">●</text><text font-family="DengXian,DengXian_MSFontService,sans-serif" font-weight="400" font-size="46" transform="matrix(1 0 0 1 1423.37 889)">●</text><text font-family="DengXian,DengXian_MSFontService,sans-serif" font-weight="400" font-size="46" transform="matrix(1 0 0 1 1319.43 889)">●</text><text font-family="DengXian,DengXian_MSFontService,sans-serif" font-weight="400" font-size="46" transform="matrix(1 0 0 1 1215.5 889)">●</text><text font-family="DengXian,DengXian_MSFontService,sans-serif" font-weight="400" font-size="46" transform="matrix(1 0 0 1 1111.56 889)">●</text><text font-family="DengXian,DengXian_MSFontService,sans-serif" font-weight="400" font-size="46" transform="matrix(1 0 0 1 1007.62 889)">●</text><text font-family="DengXian,DengXian_MSFontService,sans-serif" font-weight="400" font-size="46" transform="matrix(1 0 0 1 903.685 889)">●</text><text font-family="DengXian,DengXian_MSFontService,sans-serif" font-weight="400" font-size="46" transform="matrix(1 0 0 1 799.748 889)">●</text><text font-family="DengXian,DengXian_MSFontService,sans-serif" font-weight="400" font-size="46" transform="matrix(1 0 0 1 695.811 889)">●</text><text font-family="DengXian,DengXian_MSFontService,sans-serif" font-weight="400" font-size="46" transform="matrix(1 0 0 1 1631.24 993)">●</text><text font-family="DengXian,DengXian_MSFontService,sans-serif" font-weight="400" font-size="46" transform="matrix(1 0 0 1 1527.31 993)">●</text><text font-family="DengXian,DengXian_MSFontService,sans-serif" font-weight="400" font-size="46" transform="matrix(1 0 0 1 1423.37 993)">●</text><text font-family="DengXian,DengXian_MSFontService,sans-serif" font-weight="400" font-size="46" transform="matrix(1 0 0 1 1319.43 993)">●</text><text font-family="DengXian,DengXian_MSFontService,sans-serif" font-weight="400" font-size="46" transform="matrix(1 0 0 1 1215.5 993)">●</text><text font-family="DengXian,DengXian_MSFontService,sans-serif" font-weight="400" font-size="46" transform="matrix(1 0 0 1 1111.56 993)">●</text><text font-family="DengXian,DengXian_MSFontService,sans-serif" font-weight="400" font-size="46" transform="matrix(1 0 0 1 1007.62 993)">●</text><text font-family="DengXian,DengXian_MSFontService,sans-serif" font-weight="400" font-size="46" transform="matrix(1 0 0 1 903.685 993)">●</text><text font-family="DengXian,DengXian_MSFontService,sans-serif" font-weight="400" font-size="46" transform="matrix(1 0 0 1 799.748 993)">●</text><text font-family="DengXian,DengXian_MSFontService,sans-serif" font-weight="400" font-size="46" transform="matrix(1 0 0 1 695.811 993)">●</text><text font-family="DengXian,DengXian_MSFontService,sans-serif" font-weight="400" font-size="46" transform="matrix(1 0 0 1 1631.24 1097)">●</text><text font-family="DengXian,DengXian_MSFontService,sans-serif" font-weight="400" font-size="46" transform="matrix(1 0 0 1 1527.31 1097)">●</text><text font-family="DengXian,DengXian_MSFontService,sans-serif" font-weight="400" font-size="46" transform="matrix(1 0 0 1 1423.37 1097)">●</text><text font-family="DengXian,DengXian_MSFontService,sans-serif" font-weight="400" font-size="46" transform="matrix(1 0 0 1 1319.43 1097)">●</text><text font-family="DengXian,DengXian_MSFontService,sans-serif" font-weight="400" font-size="46" transform="matrix(1 0 0 1 1215.5 1097)">●</text><text font-family="DengXian,DengXian_MSFontService,sans-serif" font-weight="400" font-size="46" transform="matrix(1 0 0 1 1111.56 1097)">●</text><text font-family="DengXian,DengXian_MSFontService,sans-serif" font-weight="400" font-size="46" transform="matrix(1 0 0 1 1007.62 1097)">●</text><text font-family="DengXian,DengXian_MSFontService,sans-serif" font-weight="400" font-size="46" transform="matrix(1 0 0 1 903.685 1097)">●</text><text font-family="DengXian,DengXian_MSFontService,sans-serif" font-weight="400" font-size="46" transform="matrix(1 0 0 1 799.748 1097)">●</text><text font-family="DengXian,DengXian_MSFontService,sans-serif" font-weight="400" font-size="46" transform="matrix(1 0 0 1 695.811 1097)">●</text><text font-family="DengXian,DengXian_MSFontService,sans-serif" font-weight="400" font-size="46" transform="matrix(1 0 0 1 1631.24 1201)">●</text><text font-family="DengXian,DengXian_MSFontService,sans-serif" font-weight="400" font-size="46" transform="matrix(1 0 0 1 1527.31 1201)">●</text><text font-family="DengXian,DengXian_MSFontService,sans-serif" font-weight="400" font-size="46" transform="matrix(1 0 0 1 1423.37 1201)">●</text><text font-family="DengXian,DengXian_MSFontService,sans-serif" font-weight="400" font-size="46" transform="matrix(1 0 0 1 1319.43 1201)">●</text><text font-family="DengXian,DengXian_MSFontService,sans-serif" font-weight="400" font-size="46" transform="matrix(1 0 0 1 1215.5 1201)">●</text><text font-family="DengXian,DengXian_MSFontService,sans-serif" font-weight="400" font-size="46" transform="matrix(1 0 0 1 1111.56 1201)">●</text><text font-family="DengXian,DengXian_MSFontService,sans-serif" font-weight="400" font-size="46" transform="matrix(1 0 0 1 1007.62 1201)">●</text><text font-family="DengXian,DengXian_MSFontService,sans-serif" font-weight="400" font-size="46" transform="matrix(1 0 0 1 903.685 1201)">●</text><text font-family="DengXian,DengXian_MSFontService,sans-serif" font-weight="400" font-size="46" transform="matrix(1 0 0 1 799.748 1201)">●</text><text font-family="DengXian,DengXian_MSFontService,sans-serif" font-weight="400" font-size="46" transform="matrix(1 0 0 1 695.811 1201)">●</text><text font-family="DengXian,DengXian_MSFontService,sans-serif" font-weight="400" font-size="46" transform="matrix(1 0 0 1 1631.24 1305)">●</text><text font-family="DengXian,DengXian_MSFontService,sans-serif" font-weight="400" font-size="46" transform="matrix(1 0 0 1 1527.31 1305)">●</text><text font-family="DengXian,DengXian_MSFontService,sans-serif" font-weight="400" font-size="46" transform="matrix(1 0 0 1 1423.37 1305)">●</text><text font-family="DengXian,DengXian_MSFontService,sans-serif" font-weight="400" font-size="46" transform="matrix(1 0 0 1 1319.43 1305)">●</text><text font-family="DengXian,DengXian_MSFontService,sans-serif" font-weight="400" font-size="46" transform="matrix(1 0 0 1 1215.5 1305)">●</text><text font-family="DengXian,DengXian_MSFontService,sans-serif" font-weight="400" font-size="46" transform="matrix(1 0 0 1 1111.56 1305)">●</text><text font-family="DengXian,DengXian_MSFontService,sans-serif" font-weight="400" font-size="46" transform="matrix(1 0 0 1 1007.62 1305)">●</text><text font-family="DengXian,DengXian_MSFontService,sans-serif" font-weight="400" font-size="46" transform="matrix(1 0 0 1 903.685 1305)">●</text><text font-family="DengXian,DengXian_MSFontService,sans-serif" font-weight="400" font-size="46" transform="matrix(1 0 0 1 799.748 1305)">●</text><text font-family="DengXian,DengXian_MSFontService,sans-serif" font-weight="400" font-size="46" transform="matrix(1 0 0 1 695.811 1305)">●</text><text font-family="DengXian,DengXian_MSFontService,sans-serif" font-weight="400" font-size="46" transform="matrix(1 0 0 1 1631.24 1409)">●</text><text font-family="DengXian,DengXian_MSFontService,sans-serif" font-weight="400" font-size="46" transform="matrix(1 0 0 1 1527.31 1409)">●</text><text font-family="DengXian,DengXian_MSFontService,sans-serif" font-weight="400" font-size="46" transform="matrix(1 0 0 1 1423.37 1409)">●</text><text font-family="DengXian,DengXian_MSFontService,sans-serif" font-weight="400" font-size="46" transform="matrix(1 0 0 1 1319.43 1409)">●</text><text font-family="DengXian,DengXian_MSFontService,sans-serif" font-weight="400" font-size="46" transform="matrix(1 0 0 1 1215.5 1409)">●</text><text font-family="DengXian,DengXian_MSFontService,sans-serif" font-weight="400" font-size="46" transform="matrix(1 0 0 1 1111.56 1409)">●</text><text font-family="DengXian,DengXian_MSFontService,sans-serif" font-weight="400" font-size="46" transform="matrix(1 0 0 1 1007.62 1409)">●</text><text font-family="DengXian,DengXian_MSFontService,sans-serif" font-weight="400" font-size="46" transform="matrix(1 0 0 1 903.685 1409)">●</text><text font-family="DengXian,DengXian_MSFontService,sans-serif" font-weight="400" font-size="46" transform="matrix(1 0 0 1 799.748 1409)">●</text><text font-family="DengXian,DengXian_MSFontService,sans-serif" font-weight="400" font-size="46" transform="matrix(1 0 0 1 695.811 1409)">●</text><text font-family="DengXian,DengXian_MSFontService,sans-serif" font-weight="400" font-size="46" transform="matrix(1 0 0 1 1631.24 1513)">●</text><text font-family="DengXian,DengXian_MSFontService,sans-serif" font-weight="400" font-size="46" transform="matrix(1 0 0 1 1527.31 1513)">●</text><text font-family="DengXian,DengXian_MSFontService,sans-serif" font-weight="400" font-size="46" transform="matrix(1 0 0 1 1423.37 1513)">●</text><text font-family="DengXian,DengXian_MSFontService,sans-serif" font-weight="400" font-size="46" transform="matrix(1 0 0 1 1319.43 1513)">●</text><text font-family="DengXian,DengXian_MSFontService,sans-serif" font-weight="400" font-size="46" transform="matrix(1 0 0 1 1215.5 1513)">●</text><text font-family="DengXian,DengXian_MSFontService,sans-serif" font-weight="400" font-size="46" transform="matrix(1 0 0 1 1111.56 1513)">●</text><text font-family="DengXian,DengXian_MSFontService,sans-serif" font-weight="400" font-size="46" transform="matrix(1 0 0 1 1007.62 1513)">●</text><text font-family="DengXian,DengXian_MSFontService,sans-serif" font-weight="400" font-size="46" transform="matrix(1 0 0 1 903.685 1513)">●</text><text font-family="DengXian,DengXian_MSFontService,sans-serif" font-weight="400" font-size="46" transform="matrix(1 0 0 1 799.748 1513)">●</text><text font-family="DengXian,DengXian_MSFontService,sans-serif" font-weight="400" font-size="46" transform="matrix(1 0 0 1 695.811 1513)">●</text><text font-family="DengXian,DengXian_MSFontService,sans-serif" font-weight="400" font-size="46" transform="matrix(1 0 0 1 1631.24 1617)">●</text><text font-family="DengXian,DengXian_MSFontService,sans-serif" font-weight="400" font-size="46" transform="matrix(1 0 0 1 1527.31 1617)">●</text><text font-family="DengXian,DengXian_MSFontService,sans-serif" font-weight="400" font-size="46" transform="matrix(1 0 0 1 1423.37 1617)">●</text><text font-family="DengXian,DengXian_MSFontService,sans-serif" font-weight="400" font-size="46" transform="matrix(1 0 0 1 1319.43 1617)">●</text><text font-family="DengXian,DengXian_MSFontService,sans-serif" font-weight="400" font-size="46" transform="matrix(1 0 0 1 1215.5 1617)">●</text><text font-family="DengXian,DengXian_MSFontService,sans-serif" font-weight="400" font-size="46" transform="matrix(1 0 0 1 1111.56 1617)">●</text><text font-family="DengXian,DengXian_MSFontService,sans-serif" font-weight="400" font-size="46" transform="matrix(1 0 0 1 1007.62 1617)">●</text><text font-family="DengXian,DengXian_MSFontService,sans-serif" font-weight="400" font-size="46" transform="matrix(1 0 0 1 903.685 1617)">●</text><text font-family="DengXian,DengXian_MSFontService,sans-serif" font-weight="400" font-size="46" transform="matrix(1 0 0 1 799.748 1617)">●</text><text font-family="DengXian,DengXian_MSFontService,sans-serif" font-weight="400" font-size="46" transform="matrix(1 0 0 1 695.811 1617)">●</text><text font-family="DengXian,DengXian_MSFontService,sans-serif" font-weight="400" font-size="46" transform="matrix(1 0 0 1 1631.24 1721)">●</text><text font-family="DengXian,DengXian_MSFontService,sans-serif" font-weight="400" font-size="46" transform="matrix(1 0 0 1 1527.31 1721)">●</text><text font-family="DengXian,DengXian_MSFontService,sans-serif" font-weight="400" font-size="46" transform="matrix(1 0 0 1 1423.37 1721)">●</text><text font-family="DengXian,DengXian_MSFontService,sans-serif" font-weight="400" font-size="46" transform="matrix(1 0 0 1 1319.43 1721)">●</text><text font-family="DengXian,DengXian_MSFontService,sans-serif" font-weight="400" font-size="46" transform="matrix(1 0 0 1 1215.5 1721)">●</text><text font-family="DengXian,DengXian_MSFontService,sans-serif" font-weight="400" font-size="46" transform="matrix(1 0 0 1 1111.56 1721)">●</text><text font-family="DengXian,DengXian_MSFontService,sans-serif" font-weight="400" font-size="46" transform="matrix(1 0 0 1 1007.62 1721)">●</text><text font-family="DengXian,DengXian_MSFontService,sans-serif" font-weight="400" font-size="46" transform="matrix(1 0 0 1 903.685 1721)">●</text><text font-family="DengXian,DengXian_MSFontService,sans-serif" font-weight="400" font-size="46" transform="matrix(1 0 0 1 799.748 1721)">●</text><text font-family="DengXian,DengXian_MSFontService,sans-serif" font-weight="400" font-size="46" transform="matrix(1 0 0 1 695.811 1721)">●</text><path d="M713.5 1702.5 817.437 1702.5" stroke="#000000" stroke-width="9.16667" stroke-miterlimit="8" fill="none" fill-rule="evenodd"/><path d="M820.5 1598.5 820.5 1702.44" stroke="#000000" stroke-width="9.16667" stroke-miterlimit="8" fill="none" fill-rule="evenodd"/><path d="M822.5 1492.5 822.5 1596.44" stroke="#000000" stroke-width="9.16667" stroke-miterlimit="8" fill="none" fill-rule="evenodd"/><path d="M817.5 1494.5 921.437 1494.5" stroke="#000000" stroke-width="9.16667" stroke-miterlimit="8" fill="none" fill-rule="evenodd"/><path d="M924.5 1493.5 1028.44 1493.5" stroke="#000000" stroke-width="9.16667" stroke-miterlimit="8" fill="none" fill-rule="evenodd"/><path d="M1028.5 1493.5 1132.44 1493.5" stroke="#000000" stroke-width="9.16667" stroke-miterlimit="8" fill="none" fill-rule="evenodd"/><path d="M1134.5 1387.5 1134.5 1491.44" stroke="#000000" stroke-width="9.16667" stroke-miterlimit="8" fill="none" fill-rule="evenodd"/><path d="M1131.5 1280.5 1131.5 1384.44" stroke="#000000" stroke-width="9.16667" stroke-miterlimit="8" fill="none" fill-rule="evenodd"/><path d="M1131.5 1286.5 1235.44 1286.5" stroke="#000000" stroke-width="9.16667" stroke-miterlimit="8" fill="none" fill-rule="evenodd"/><path d="M1235.5 1179.5 1235.5 1283.44" stroke="#000000" stroke-width="9.16667" stroke-miterlimit="8" fill="none" fill-rule="evenodd"/><path d="M1235.5 1182.5 1339.44 1182.5" stroke="#000000" stroke-width="9.16667" stroke-miterlimit="8" fill="none" fill-rule="evenodd"/><path d="M1339.5 1182.5 1443.44 1182.5" stroke="#000000" stroke-width="9.16667" stroke-miterlimit="8" fill="none" fill-rule="evenodd"/><text font-family="Times New Roman,Times New Roman_MSFontService,sans-serif" font-weight="400" font-size="64" transform="matrix(1 0 0 1 562.432 1721)">(0,0)</text><text font-family="Times New Roman,Times New Roman_MSFontService,sans-serif" font-weight="400" font-size="64" transform="matrix(1 0 0 1 1387.03 1155)">(7,5)</text><text font-family="DengXian,DengXian_MSFontService,sans-serif" font-weight="400" font-size="46" transform="matrix(1 0 0 1 2722.74 990)">●</text><text font-family="DengXian,DengXian_MSFontService,sans-serif" font-weight="400" font-size="46" transform="matrix(1 0 0 1 2618.8 990)">●</text><text font-family="DengXian,DengXian_MSFontService,sans-serif" font-weight="400" font-size="46" transform="matrix(1 0 0 1 2514.86 990)">●</text><text font-family="DengXian,DengXian_MSFontService,sans-serif" font-weight="400" font-size="46" transform="matrix(1 0 0 1 2410.93 990)">●</text><text font-family="DengXian,DengXian_MSFontService,sans-serif" font-weight="400" font-size="46" transform="matrix(1 0 0 1 2306.99 990)">●</text><text font-family="DengXian,DengXian_MSFontService,sans-serif" font-weight="400" font-size="46" transform="matrix(1 0 0 1 2203.05 990)">●</text><text font-family="DengXian,DengXian_MSFontService,sans-serif" font-weight="400" font-size="46" transform="matrix(1 0 0 1 2099.12 990)">●</text><text font-family="DengXian,DengXian_MSFontService,sans-serif" font-weight="400" font-size="46" transform="matrix(1 0 0 1 2722.74 1094)">●</text><text font-family="DengXian,DengXian_MSFontService,sans-serif" font-weight="400" font-size="46" transform="matrix(1 0 0 1 2618.8 1094)">●</text><text font-family="DengXian,DengXian_MSFontService,sans-serif" font-weight="400" font-size="46" transform="matrix(1 0 0 1 2514.86 1094)">●</text><text font-family="DengXian,DengXian_MSFontService,sans-serif" font-weight="400" font-size="46" transform="matrix(1 0 0 1 2410.93 1094)">●</text><text font-family="DengXian,DengXian_MSFontService,sans-serif" font-weight="400" font-size="46" transform="matrix(1 0 0 1 2306.99 1094)">●</text><text font-family="DengXian,DengXian_MSFontService,sans-serif" font-weight="400" font-size="46" transform="matrix(1 0 0 1 2203.05 1094)">●</text><text font-family="DengXian,DengXian_MSFontService,sans-serif" font-weight="400" font-size="46" transform="matrix(1 0 0 1 2099.12 1094)">●</text><text font-family="DengXian,DengXian_MSFontService,sans-serif" font-weight="400" font-size="46" transform="matrix(1 0 0 1 2722.74 1198)">●</text><text font-family="DengXian,DengXian_MSFontService,sans-serif" font-weight="400" font-size="46" transform="matrix(1 0 0 1 2618.8 1198)">●</text><text font-family="DengXian,DengXian_MSFontService,sans-serif" font-weight="400" font-size="46" transform="matrix(1 0 0 1 2514.86 1198)">●</text><text font-family="DengXian,DengXian_MSFontService,sans-serif" font-weight="400" font-size="46" transform="matrix(1 0 0 1 2410.93 1198)">●</text><text font-family="DengXian,DengXian_MSFontService,sans-serif" font-weight="400" font-size="46" transform="matrix(1 0 0 1 2306.99 1198)">●</text><text font-family="DengXian,DengXian_MSFontService,sans-serif" font-weight="400" font-size="46" transform="matrix(1 0 0 1 2203.05 1198)">●</text><text font-family="DengXian,DengXian_MSFontService,sans-serif" font-weight="400" font-size="46" transform="matrix(1 0 0 1 2099.12 1198)">●</text><text font-family="DengXian,DengXian_MSFontService,sans-serif" font-weight="400" font-size="46" transform="matrix(1 0 0 1 2722.74 1302)">●</text><text font-family="DengXian,DengXian_MSFontService,sans-serif" font-weight="400" font-size="46" transform="matrix(1 0 0 1 2618.8 1302)">●</text><text font-family="DengXian,DengXian_MSFontService,sans-serif" font-weight="400" font-size="46" transform="matrix(1 0 0 1 2514.86 1302)">●</text><text font-family="DengXian,DengXian_MSFontService,sans-serif" font-weight="400" font-size="46" transform="matrix(1 0 0 1 2410.93 1302)">●</text><text font-family="DengXian,DengXian_MSFontService,sans-serif" font-weight="400" font-size="46" transform="matrix(1 0 0 1 2306.99 1302)">●</text><text font-family="DengXian,DengXian_MSFontService,sans-serif" font-weight="400" font-size="46" transform="matrix(1 0 0 1 2203.05 1302)">●</text><text font-family="DengXian,DengXian_MSFontService,sans-serif" font-weight="400" font-size="46" transform="matrix(1 0 0 1 2099.12 1302)">●</text><text font-family="DengXian,DengXian_MSFontService,sans-serif" font-weight="400" font-size="46" transform="matrix(1 0 0 1 2722.74 1406)">●</text><text font-family="DengXian,DengXian_MSFontService,sans-serif" font-weight="400" font-size="46" transform="matrix(1 0 0 1 2618.8 1406)">●</text><text font-family="DengXian,DengXian_MSFontService,sans-serif" font-weight="400" font-size="46" transform="matrix(1 0 0 1 2514.86 1406)">●</text><text font-family="DengXian,DengXian_MSFontService,sans-serif" font-weight="400" font-size="46" transform="matrix(1 0 0 1 2410.93 1406)">●</text><text font-family="DengXian,DengXian_MSFontService,sans-serif" font-weight="400" font-size="46" transform="matrix(1 0 0 1 2306.99 1406)">●</text><text font-family="DengXian,DengXian_MSFontService,sans-serif" font-weight="400" font-size="46" transform="matrix(1 0 0 1 2203.05 1406)">●</text><text font-family="DengXian,DengXian_MSFontService,sans-serif" font-weight="400" font-size="46" transform="matrix(1 0 0 1 2099.12 1406)">●</text><text font-family="DengXian,DengXian_MSFontService,sans-serif" font-weight="400" font-size="46" transform="matrix(1 0 0 1 2722.74 1510)">●</text><text font-family="DengXian,DengXian_MSFontService,sans-serif" font-weight="400" font-size="46" transform="matrix(1 0 0 1 2618.8 1510)">●</text><text font-family="DengXian,DengXian_MSFontService,sans-serif" font-weight="400" font-size="46" transform="matrix(1 0 0 1 2514.86 1510)">●</text><text font-family="DengXian,DengXian_MSFontService,sans-serif" font-weight="400" font-size="46" transform="matrix(1 0 0 1 2410.93 1510)">●</text><text font-family="DengXian,DengXian_MSFontService,sans-serif" font-weight="400" font-size="46" transform="matrix(1 0 0 1 2306.99 1510)">●</text><text font-family="DengXian,DengXian_MSFontService,sans-serif" font-weight="400" font-size="46" transform="matrix(1 0 0 1 2203.05 1510)">●</text><text font-family="DengXian,DengXian_MSFontService,sans-serif" font-weight="400" font-size="46" transform="matrix(1 0 0 1 2099.12 1510)">●</text><text font-family="DengXian,DengXian_MSFontService,sans-serif" font-weight="400" font-size="46" transform="matrix(1 0 0 1 2722.74 1613)">●</text><text font-family="DengXian,DengXian_MSFontService,sans-serif" font-weight="400" font-size="46" transform="matrix(1 0 0 1 2618.8 1613)">●</text><text font-family="DengXian,DengXian_MSFontService,sans-serif" font-weight="400" font-size="46" transform="matrix(1 0 0 1 2514.86 1613)">●</text><text font-family="DengXian,DengXian_MSFontService,sans-serif" font-weight="400" font-size="46" transform="matrix(1 0 0 1 2410.93 1613)">●</text><text font-family="DengXian,DengXian_MSFontService,sans-serif" font-weight="400" font-size="46" transform="matrix(1 0 0 1 2306.99 1613)">●</text><text font-family="DengXian,DengXian_MSFontService,sans-serif" font-weight="400" font-size="46" transform="matrix(1 0 0 1 2203.05 1613)">●</text><text font-family="DengXian,DengXian_MSFontService,sans-serif" font-weight="400" font-size="46" transform="matrix(1 0 0 1 2099.12 1613)">●</text><path d="M2741.2 968.664 2116.49 1593.37" stroke="#000000" stroke-width="9.16667" stroke-miterlimit="8" fill="none" fill-rule="evenodd"/><text font-family="Times New Roman,Times New Roman_MSFontService,sans-serif" font-weight="400" font-size="64" transform="matrix(1 0 0 1 2015.88 1664)">(0,0)</text><text font-family="Times New Roman,Times New Roman_MSFontService,sans-serif" font-weight="400" font-size="64" transform="matrix(1 0 0 1 2681.62 944)">(</text><text font-family="Times New Roman,Times New Roman_MSFontService,sans-serif" font-style="italic" font-weight="400" font-size="64" transform="matrix(1 0 0 1 2702.82 944)">n</text><text font-family="Times New Roman,Times New Roman_MSFontService,sans-serif" font-weight="400" font-size="64" transform="matrix(1 0 0 1 2734.9 944)">,</text><text font-family="Times New Roman,Times New Roman_MSFontService,sans-serif" font-style="italic" font-weight="400" font-size="64" transform="matrix(1 0 0 1 2750.94 944)">n</text><text font-family="Times New Roman,Times New Roman_MSFontService,sans-serif" font-weight="400" font-size="64" transform="matrix(1 0 0 1 2783.03 944)">)</text><path d="M2116.5 1592.5 2220.44 1592.5" stroke="#000000" stroke-width="9.16667" stroke-miterlimit="8" fill="none" fill-rule="evenodd"/><path d="M2223.5 1592.5 2327.44 1592.5" stroke="#FF0000" stroke-width="9.16667" stroke-miterlimit="8" fill="none" fill-rule="evenodd"/><path d="M2328.5 1486.5 2328.5 1590.44" stroke="#000000" stroke-width="9.16667" stroke-miterlimit="8" fill="none" fill-rule="evenodd"/><path d="M2432.5 1385.5 2432.5 1489.44" stroke="#FF0000" stroke-width="9.16667" stroke-miterlimit="8" fill="none" fill-rule="evenodd"/><path d="M2327.5 1490.5 2431.44 1490.5" stroke="#FF0000" stroke-width="9.16667" stroke-miterlimit="8" fill="none" fill-rule="evenodd"/><path d="M2430.5 1283.5 2534.44 1283.5" stroke="#00B050" stroke-width="9.16667" stroke-miterlimit="8" fill="none" fill-rule="evenodd"/><path d="M2433.5 1280.5 2433.5 1384.44" stroke="#000000" stroke-width="9.16667" stroke-miterlimit="8" fill="none" fill-rule="evenodd"/><path d="M2534.5 1283.5 2638.44 1283.5" stroke="#00B050" stroke-width="9.16667" stroke-miterlimit="8" fill="none" fill-rule="evenodd"/><path d="M2641.5 1283.5 2745.44 1283.5" stroke="#00B050" stroke-width="9.16667" stroke-miterlimit="8" fill="none" fill-rule="evenodd"/><path d="M2742.5 1176.5 2742.5 1280.44" stroke="#00B050" stroke-width="9.16667" stroke-miterlimit="8" fill="none" fill-rule="evenodd"/><path d="M2745.5 1072.5 2745.5 1176.44" stroke="#00B050" stroke-width="9.16667" stroke-miterlimit="8" fill="none" fill-rule="evenodd"/><path d="M2743.5 968.5 2743.5 1072.44" stroke="#00B050" stroke-width="9.16667" stroke-miterlimit="8" fill="none" fill-rule="evenodd"/><text font-family="Times New Roman,Times New Roman_MSFontService,sans-serif" font-weight="400" font-size="64" transform="matrix(1 0 0 1 2327.48 1256)">(</text><text font-family="Times New Roman,Times New Roman_MSFontService,sans-serif" font-style="italic" font-weight="400" font-size="64" transform="matrix(1 0 0 1 2348.68 1256)">k</text><text font-family="Times New Roman,Times New Roman_MSFontService,sans-serif" font-weight="400" font-size="64" transform="matrix(1 0 0 1 2377.33 1256)">,</text><text font-family="Times New Roman,Times New Roman_MSFontService,sans-serif" font-style="italic" font-weight="400" font-size="64" transform="matrix(1 0 0 1 2393.37 1256)">k</text><text font-family="Times New Roman,Times New Roman_MSFontService,sans-serif" font-weight="400" font-size="64" transform="matrix(1 0 0 1 2422.01 1256)">)</text><text font-family="Times New Roman,Times New Roman_MSFontService,sans-serif" font-weight="400" font-size="64" transform="matrix(1 0 0 1 2448.29 1446)">(</text><text font-family="Times New Roman,Times New Roman_MSFontService,sans-serif" font-style="italic" font-weight="400" font-size="64" transform="matrix(1 0 0 1 2469.48 1446)">k</text><text font-family="Times New Roman,Times New Roman_MSFontService,sans-serif" font-weight="400" font-size="64" transform="matrix(1 0 0 1 2498.13 1446)">,</text><text font-family="Times New Roman,Times New Roman_MSFontService,sans-serif" font-style="italic" font-weight="400" font-size="64" transform="matrix(1 0 0 1 2514.17 1446)">k</text><text font-family="Times New Roman,Times New Roman_MSFontService,sans-serif" font-weight="400" font-size="64" transform="matrix(1 0 0 1 2542.82 1446)">-</text><text font-family="Times New Roman,Times New Roman_MSFontService,sans-serif" font-weight="400" font-size="64" transform="matrix(1 0 0 1 2564.01 1446)">1)</text><text font-family="Times New Roman,Times New Roman_MSFontService,sans-serif" font-weight="400" font-size="64" transform="matrix(1 0 0 1 2175.82 1664)">(1,0)</text></g></svg>