<svg width="1405" height="1405" xmlns="http://www.w3.org/2000/svg" xmlns:xlink="http://www.w3.org/1999/xlink" xml:space="preserve" overflow="hidden"><g transform="translate(-2329 -609)"><path d="M3029.95 612.619C3215.29 611.817 3393.37 684.638 3525.04 815.075L3032.97 1311.81Z" stroke="#000000" stroke-width="2.29167" stroke-miterlimit="8" fill="#0070C0" fill-rule="evenodd"/><path d="M3732.16 1311.24C3732.96 1496.58 3660.14 1674.66 3529.71 1806.33L3032.97 1314.26Z" stroke="#000000" stroke-width="2.29167" stroke-miterlimit="8" fill="#FF0000" fill-rule="evenodd"/><path d="M2330.58 1314.22C2329.78 1128.88 2402.6 950.801 2533.04 819.127L3029.77 1311.2Z" stroke="#000000" stroke-width="2.29167" stroke-miterlimit="8" fill="#0070C0" fill-rule="evenodd"/><path d="M3034.39 2012.84C2849.05 2013.64 2670.98 1940.82 2539.3 1810.39L3031.37 1313.65Z" stroke="#000000" stroke-width="2.29167" stroke-miterlimit="8" fill="#0070C0" fill-rule="evenodd"/><path d="M2533.74 817.023C2664.29 685.343 2841.78 610.883 3027.2 610.008L3030.5 1309.5Z" stroke="#000000" stroke-width="2.29167" stroke-miterlimit="8" fill="#0070C0" fill-rule="evenodd"/><path d="M3523.8 815.424C3655.59 945.89 3730.12 1123.33 3730.99 1308.7L3031.5 1312Z" stroke="#000000" stroke-width="2.29167" stroke-miterlimit="8" fill="#FF0000" fill-rule="evenodd"/><path d="M2536.87 1807.4C2405.29 1676.95 2330.88 1499.59 2330.01 1314.3L3029 1311Z" stroke="#000000" stroke-width="2.29167" stroke-miterlimit="8" fill="#FF0000" fill-rule="evenodd"/><path d="M3528.4 1806.13C3397.95 1937.71 3220.59 2012.12 3035.3 2012.99L3032 1314Z" stroke="#000000" stroke-width="2.29167" stroke-miterlimit="8" fill="#FF0000" fill-rule="evenodd"/><path d="M3030.56 795.994C3166.64 795.406 3297.39 848.872 3394.07 944.642L3032.78 1309.35Z" stroke="#000000" stroke-width="2.29167" stroke-miterlimit="8" fill="#FF0000" fill-rule="evenodd"/><path d="M3546.14 1308.94C3546.73 1445.02 3493.26 1575.77 3397.49 1672.44L3032.78 1311.16Z" stroke="#000000" stroke-width="2.29167" stroke-miterlimit="8" fill="#0070C0" fill-rule="evenodd"/><path d="M2517.07 1311.12C2516.48 1175.04 2569.95 1044.29 2665.72 947.617L3030.43 1308.9Z" stroke="#000000" stroke-width="2.29167" stroke-miterlimit="8" fill="#FF0000" fill-rule="evenodd"/><path d="M3033.82 1824.07C2897.74 1824.65 2767 1771.19 2670.32 1675.42L3031.6 1310.71Z" stroke="#000000" stroke-width="2.29167" stroke-miterlimit="8" fill="#0070C0" fill-rule="evenodd"/><path d="M2666.51 946.152C2762.27 849.379 2892.51 794.649 3028.58 794.006L3031 1307.5Z" stroke="#000000" stroke-width="2.29167" stroke-miterlimit="8" fill="#0070C0" fill-rule="evenodd"/><path d="M3393.03 944.833C3489.69 1040.67 3544.35 1170.96 3544.99 1307.08L3031.5 1309.5Z" stroke="#000000" stroke-width="2.29167" stroke-miterlimit="8" fill="#FF0000" fill-rule="evenodd"/><path d="M2668.83 1673.31C2572.25 1577.57 2517.65 1447.41 2517.01 1311.42L3030 1309Z" stroke="#000000" stroke-width="2.29167" stroke-miterlimit="8" fill="#0070C0" fill-rule="evenodd"/><path d="M3396.49 1672.85C3300.73 1769.62 3170.49 1824.35 3034.42 1824.99L3032 1311.5Z" stroke="#000000" stroke-width="2.29167" stroke-miterlimit="8" fill="#0070C0" fill-rule="evenodd"/><path d="M3026.66 1315.54 2595.74 1132.63 2600.22 1122.08 3031.14 1305ZM2597.98 1127.36 2607.89 1162.68 2566.34 1113.93 2630.27 1109.94Z"/></g></svg>