<svg width="1004" height="391" xmlns="http://www.w3.org/2000/svg" xmlns:xlink="http://www.w3.org/1999/xlink" xml:space="preserve" overflow="hidden"><defs><filter id="fx0" x="-10%" y="-10%" width="120%" height="120%" filterUnits="userSpaceOnUse" primitiveUnits="userSpaceOnUse"><feComponentTransfer color-interpolation-filters="sRGB"><feFuncR type="discrete" tableValues="0 0"/><feFuncG type="discrete" tableValues="0 0"/><feFuncB type="discrete" tableValues="0 0"/><feFuncA type="linear" slope="0.4" intercept="0"/></feComponentTransfer><feGaussianBlur stdDeviation="1.74007 1.74007"/></filter><filter id="fx1" x="-10%" y="-10%" width="120%" height="120%" filterUnits="userSpaceOnUse" primitiveUnits="userSpaceOnUse"><feComponentTransfer color-interpolation-filters="sRGB"><feFuncR type="discrete" tableValues="0 0"/><feFuncG type="discrete" tableValues="0 0"/><feFuncB type="discrete" tableValues="0 0"/><feFuncA type="linear" slope="0.4" intercept="0"/></feComponentTransfer><feGaussianBlur stdDeviation="1.74007 1.74007"/></filter><filter id="fx2" x="-10%" y="-10%" width="120%" height="120%" filterUnits="userSpaceOnUse" primitiveUnits="userSpaceOnUse"><feComponentTransfer color-interpolation-filters="sRGB"><feFuncR type="discrete" tableValues="0 0"/><feFuncG type="discrete" tableValues="0 0"/><feFuncB type="discrete" tableValues="0 0"/><feFuncA type="linear" slope="0.4" intercept="0"/></feComponentTransfer><feGaussianBlur stdDeviation="1.74007 1.74007"/></filter><filter id="fx3" x="-10%" y="-10%" width="120%" height="120%" filterUnits="userSpaceOnUse" primitiveUnits="userSpaceOnUse"><feComponentTransfer color-interpolation-filters="sRGB"><feFuncR type="discrete" tableValues="0 0"/><feFuncG type="discrete" tableValues="0 0"/><feFuncB type="discrete" tableValues="0 0"/><feFuncA type="linear" slope="0.4" intercept="0"/></feComponentTransfer><feGaussianBlur stdDeviation="1.74007 1.74007"/></filter><filter id="fx4" x="-10%" y="-10%" width="120%" height="120%" filterUnits="userSpaceOnUse" primitiveUnits="userSpaceOnUse"><feComponentTransfer color-interpolation-filters="sRGB"><feFuncR type="discrete" tableValues="0 0"/><feFuncG type="discrete" tableValues="0 0"/><feFuncB type="discrete" tableValues="0 0"/><feFuncA type="linear" slope="0.4" intercept="0"/></feComponentTransfer><feGaussianBlur stdDeviation="1.74007 1.74007"/></filter><filter id="fx5" x="-10%" y="-10%" width="120%" height="120%" filterUnits="userSpaceOnUse" primitiveUnits="userSpaceOnUse"><feComponentTransfer color-interpolation-filters="sRGB"><feFuncR type="discrete" tableValues="0 0"/><feFuncG type="discrete" tableValues="0 0"/><feFuncB type="discrete" tableValues="0 0"/><feFuncA type="linear" slope="0.4" intercept="0"/></feComponentTransfer><feGaussianBlur stdDeviation="1.74007 1.74007"/></filter><clipPath id="clip6"><rect x="2287" y="253" width="1004" height="391"/></clipPath><clipPath id="clip7"><rect x="50" y="48" width="68" height="72"/></clipPath><clipPath id="clip8"><rect x="56" y="48" width="51" height="72"/></clipPath><clipPath id="clip9"><rect x="54" y="46" width="59" height="76"/></clipPath><clipPath id="clip10"><rect x="56" y="48" width="62" height="72"/></clipPath><clipPath id="clip11"><rect x="56" y="48" width="47" height="72"/></clipPath><clipPath id="clip12"><rect x="56" y="48" width="45" height="72"/></clipPath></defs><g clip-path="url(#clip6)" transform="translate(-2287 -253)"><path d="M2310.5 444C2310.5 412.796 2335.8 387.5 2367 387.5 2398.2 387.5 2423.5 412.796 2423.5 444 2423.5 475.204 2398.2 500.5 2367 500.5 2335.8 500.5 2310.5 475.204 2310.5 444Z" stroke="#2F528F" stroke-width="4.58333" stroke-miterlimit="8" fill="none" fill-rule="evenodd"/><g clip-path="url(#clip7)" filter="url(#fx0)" transform="translate(2285 364)"><g><path d="M46.1606 3.24219 39.3115-14.5898 13.5767-14.5898 6.72754 3.24219 0.972656 3.24219 23.2627-53.8608 29.7065-53.8608 51.875 3.24219ZM26.3833-49.3623C25.87-47.6872 25.3161-46.012 24.7217-44.3369 24.1273-42.6618 23.5194-41.0002 22.8979-39.352L15.1167-19.0884 37.7715-19.0884 30.0713-39.3926C29.4499-41.0677 28.842-42.7293 28.2476-44.3774 27.6532-46.0255 27.0858-47.6872 26.5454-49.3623Z" transform="matrix(1 0 0 1 56.9568 109)"/></g></g><text font-family="DengXian,DengXian_MSFontService,sans-serif" font-weight="400" font-size="83" transform="matrix(1 0 0 1 2340.02 471)">A</text><path d="M2566.5 331C2566.5 299.796 2591.8 274.5 2623 274.5 2654.2 274.5 2679.5 299.796 2679.5 331 2679.5 362.204 2654.2 387.5 2623 387.5 2591.8 387.5 2566.5 362.204 2566.5 331Z" stroke="#2F528F" stroke-width="4.58333" stroke-miterlimit="8" fill="none" fill-rule="evenodd"/><g clip-path="url(#clip8)" filter="url(#fx1)" transform="translate(2545 251)"><g><path d="M43.6074-12.7661C43.6074-7.68669 41.8107-3.74878 38.2173-0.952393 34.6239 1.84399 29.612 3.24219 23.1816 3.24219L7.49756 3.24219 7.49756-53.8608 20.75-53.8608C33.7728-53.8608 40.2842-49.2677 40.2842-40.0815 40.2842-36.6772 39.3385-33.8268 37.4473-31.5303 35.556-29.2337 32.8812-27.6937 29.4228-26.9102 33.7998-26.3968 37.2581-24.877 39.7978-22.3508 42.3376-19.8246 43.6074-16.6297 43.6074-12.7661ZM34.7725-39.5547C34.7725-42.986 33.5904-45.4987 31.2263-47.0928 28.8622-48.6868 25.3161-49.4839 20.5879-49.4839L12.9282-49.4839 12.9282-28.7339 20.6689-28.7339C25.2891-28.7339 28.7947-29.6593 31.1858-31.51 33.5769-33.3608 34.7725-36.0423 34.7725-39.5547ZM38.0957-13.0498C38.0957-16.7783 36.684-19.6152 33.8606-21.5605 31.0372-23.5059 27.0047-24.4785 21.7632-24.4785L12.9282-24.4785 12.9282-1.09424 22.3306-1.09424C27.5451-1.09424 31.4762-2.12093 34.124-4.17432 36.7718-6.2277 38.0957-9.1862 38.0957-13.0498Z" transform="matrix(1 0 0 1 56.144 109)"/></g></g><text font-family="DengXian,DengXian_MSFontService,sans-serif" font-weight="400" font-size="83" transform="matrix(1 0 0 1 2599.21 358)">B</text><path d="M2566.5 538C2566.5 506.796 2591.8 481.5 2623 481.5 2654.2 481.5 2679.5 506.796 2679.5 538 2679.5 569.204 2654.2 594.5 2623 594.5 2591.8 594.5 2566.5 569.204 2566.5 538Z" stroke="#2F528F" stroke-width="4.58333" stroke-miterlimit="8" fill="none" fill-rule="evenodd"/><g clip-path="url(#clip9)" filter="url(#fx2)" transform="translate(2542 458)"><g><path d="M28.5312 4.05273C21.1553 4.05273 15.3801 1.4117 11.2058-3.87036 7.03149-9.15242 4.94433-16.3866 4.94434-25.5728 4.94433-34.7589 7.07878-41.912 11.3477-47.032 15.6165-52.1519 21.5335-54.7119 29.0986-54.7119 33.9349-54.7119 38.0079-53.7393 41.3176-51.7939 44.6274-49.8486 47.2143-46.7415 49.0786-42.4727L44.0532-40.3652C42.6753-43.8236 40.7367-46.3092 38.2375-47.8223 35.7384-49.3353 32.6921-50.0918 29.0986-50.0918 23.1546-50.0918 18.5683-47.9168 15.3396-43.5669 12.1109-39.217 10.4966-33.2189 10.4966-25.5728 10.4966-17.7915 12.1109-11.6719 15.3396-7.21387 18.5683-2.75586 23.0465-0.526855 28.7744-0.526855 32.8001-0.526855 36.1099-1.49951 38.7036-3.44482 41.2974-5.39014 43.2292-8.03792 44.499-11.3882L49.2407-9.19971C45.4582-0.364746 38.555 4.05273 28.5312 4.05273Z" transform="matrix(1 0 0 1 56.5659 109)"/></g></g><text font-family="DengXian,DengXian_MSFontService,sans-serif" font-weight="400" font-size="83" transform="matrix(1 0 0 1 2596.63 565)">C</text><path d="M2868.5 444C2868.5 412.796 2893.8 387.5 2925 387.5 2956.2 387.5 2981.5 412.796 2981.5 444 2981.5 475.204 2956.2 500.5 2925 500.5 2893.8 500.5 2868.5 475.204 2868.5 444Z" stroke="#2F528F" stroke-width="4.58333" stroke-miterlimit="8" fill="none" fill-rule="evenodd"/><g clip-path="url(#clip10)" filter="url(#fx3)" transform="translate(2842 364)"><g><path d="M52.4019-25.9375C52.4019-19.9935 51.2873-14.806 49.0583-10.375 46.8293-5.94401 43.6615-2.56673 39.5547-0.243164 35.4479 2.0804 30.6792 3.24219 25.2485 3.24219L7.49756 3.24219 7.49756-53.8608 23.3032-53.8608C32.7866-53.8608 40.0072-51.4832 44.9651-46.728 49.9229-41.9728 52.4019-35.0426 52.4019-25.9375ZM46.8901-25.9375C46.8901-41.473 38.9603-49.2407 23.1006-49.2407L12.9282-49.2407 12.9282-1.37793 24.5596-1.37793C31.5303-1.37793 36.9947-3.53263 40.9529-7.84204 44.911-12.1514 46.8901-18.1833 46.8901-25.9375Z" transform="matrix(1 0 0 1 56.2014 109)"/></g></g><text font-family="DengXian,DengXian_MSFontService,sans-serif" font-weight="400" font-size="83" transform="matrix(1 0 0 1 2896.27 471)">D</text><path d="M3157.5 331C3157.5 299.796 3182.8 274.5 3214 274.5 3245.2 274.5 3270.5 299.796 3270.5 331 3270.5 362.204 3245.2 387.5 3214 387.5 3182.8 387.5 3157.5 362.204 3157.5 331Z" stroke="#2F528F" stroke-width="4.58333" stroke-miterlimit="8" fill="none" fill-rule="evenodd"/><g clip-path="url(#clip11)" filter="url(#fx4)" transform="translate(3138 251)"><g><path d="M7.49756 3.24219 7.49756-53.8608 37.2041-53.8608 37.2041-49.3218 12.9282-49.3218 12.9282-28.3691 34.7319-28.3691 34.7319-23.8706 12.9282-23.8706 12.9282-1.29687 38.8657-1.29687 38.8657 3.24219Z" transform="matrix(1 0 0 1 56.6797 109)"/></g></g><text font-family="DengXian,DengXian_MSFontService,sans-serif" font-weight="400" font-size="83" transform="matrix(1 0 0 1 3192.74 358)">E</text><path d="M3157.5 538C3157.5 506.796 3182.8 481.5 3214 481.5 3245.2 481.5 3270.5 506.796 3270.5 538 3270.5 569.204 3245.2 594.5 3214 594.5 3182.8 594.5 3157.5 569.204 3157.5 538Z" stroke="#2F528F" stroke-width="4.58333" stroke-miterlimit="8" fill="none" fill-rule="evenodd"/><g clip-path="url(#clip12)" filter="url(#fx5)" transform="translate(3139 458)"><g><path d="M7.49756 3.24219 7.49756-53.8608 37.5688-53.8608 37.5688-49.2812 12.9282-49.2812 12.9282-28.3691 35.8667-28.3691 35.8667-23.8706 12.9282-23.8706 12.9282 3.24219Z" transform="matrix(1 0 0 1 56.5391 109)"/></g></g><text font-family="DengXian,DengXian_MSFontService,sans-serif" font-weight="400" font-size="83" transform="matrix(1 0 0 1 3193.6 565)">F</text><path d="M0.952428-2.08437 139.621 61.2783 137.716 65.447-0.952428 2.08437ZM140.214 48.9515 159.512 72.8869 128.785 73.964Z" fill="#4472C4" transform="matrix(1 0 0 -1 2406.5 404.387)"/><path d="M2407.24 481.332 2545.07 528.47 2543.59 532.807 2405.76 485.669ZM2544.44 516.145 2566.01 538.054 2535.54 542.165Z" fill="#4472C4"/><path d="M2423.5 441.208 2846.08 441.209 2846.08 445.792 2423.5 445.792ZM2841.5 429.75 2869 443.5 2841.5 457.25Z" fill="#4472C4"/><path d="M2680.26 329.339 2864.92 394.591 2863.39 398.912 2678.74 333.661ZM2864.41 382.26 2885.76 404.387 2855.25 408.189Z" fill="#4472C4"/><path d="M2679.5 536.208 3135.08 536.209 3135.08 540.792 2679.5 540.792ZM3130.49 524.751 3157.99 538.501 3130.49 552.251Z" fill="#4472C4"/><path d="M0.811459-2.14319 171.885 62.6291 170.262 66.9155-0.811459 2.14319ZM171.656 50.2902 192.506 72.8869 161.919 76.0085Z" fill="#4472C4" transform="matrix(1 0 0 -1 2964.5 404.387)"/><path d="M2982.58 441.481 3138.38 525.064 3136.22 529.103 2980.42 445.519ZM3139.76 512.8 3157.49 537.917 3126.76 537.033Z" fill="#4472C4"/></g></svg>