<svg width="3942" height="790" xmlns="http://www.w3.org/2000/svg" xmlns:xlink="http://www.w3.org/1999/xlink" xml:space="preserve" overflow="hidden"><g transform="translate(-254 -1001)"><path d="M744.5 1157.83C744.5 1149.37 751.365 1142.5 759.834 1142.5L921.166 1142.5C929.635 1142.5 936.5 1149.37 936.5 1157.83L936.5 1219.17C936.5 1227.63 929.635 1234.5 921.166 1234.5L759.834 1234.5C751.365 1234.5 744.5 1227.63 744.5 1219.17Z" stroke="#2F528F" stroke-width="4.58333" stroke-miterlimit="8" fill="#F8CBAD" fill-rule="evenodd"/><text font-family="DengXian,DengXian_MSFontService,sans-serif" font-weight="400" font-size="83" transform="matrix(1 0 0 1 818.288 1215)">1</text><path d="M582.5 1324.83C582.5 1316.36 589.365 1309.5 597.834 1309.5L758.166 1309.5C766.635 1309.5 773.5 1316.36 773.5 1324.83L773.5 1386.17C773.5 1394.63 766.635 1401.5 758.166 1401.5L597.834 1401.5C589.365 1401.5 582.5 1394.63 582.5 1386.17Z" stroke="#2F528F" stroke-width="4.58333" stroke-miterlimit="8" fill="none" fill-rule="evenodd"/><text font-family="DengXian,DengXian_MSFontService,sans-serif" font-weight="400" font-size="83" transform="matrix(1 0 0 1 655.532 1383)">4</text><path d="M907.5 1324.83C907.5 1316.36 914.365 1309.5 922.834 1309.5L1084.17 1309.5C1092.64 1309.5 1099.5 1316.36 1099.5 1324.83L1099.5 1386.17C1099.5 1394.63 1092.64 1401.5 1084.17 1401.5L922.834 1401.5C914.365 1401.5 907.5 1394.63 907.5 1386.17Z" stroke="#2F528F" stroke-width="4.58333" stroke-miterlimit="8" fill="#F8CBAD" fill-rule="evenodd"/><text font-family="DengXian,DengXian_MSFontService,sans-serif" font-weight="400" font-size="83" transform="matrix(1 0 0 1 981.042 1383)">2</text><path d="M419.5 1492.67C419.5 1484.29 426.29 1477.5 434.667 1477.5L595.333 1477.5C603.709 1477.5 610.5 1484.29 610.5 1492.67L610.5 1553.33C610.5 1561.71 603.709 1568.5 595.333 1568.5L434.667 1568.5C426.29 1568.5 419.5 1561.71 419.5 1553.33Z" stroke="#2F528F" stroke-width="4.58333" stroke-miterlimit="8" fill="none" fill-rule="evenodd"/><text font-family="DengXian,DengXian_MSFontService,sans-serif" font-weight="400" font-size="83" transform="matrix(1 0 0 1 492.777 1550)">3</text><path d="M744.5 1492.67C744.5 1484.29 751.291 1477.5 759.667 1477.5L921.333 1477.5C929.709 1477.5 936.5 1484.29 936.5 1492.67L936.5 1553.33C936.5 1561.71 929.709 1568.5 921.333 1568.5L759.667 1568.5C751.291 1568.5 744.5 1561.71 744.5 1553.33Z" stroke="#2F528F" stroke-width="4.58333" stroke-miterlimit="8" fill="#C5E0B4" fill-rule="evenodd"/><text font-family="DengXian,DengXian_MSFontService,sans-serif" font-weight="400" font-size="83" transform="matrix(1 0 0 1 818.288 1550)">6</text><path d="M1070.5 1492.67C1070.5 1484.29 1077.29 1477.5 1085.67 1477.5L1246.33 1477.5C1254.71 1477.5 1261.5 1484.29 1261.5 1492.67L1261.5 1553.33C1261.5 1561.71 1254.71 1568.5 1246.33 1568.5L1085.67 1568.5C1077.29 1568.5 1070.5 1561.71 1070.5 1553.33Z" stroke="#2F528F" stroke-width="4.58333" stroke-miterlimit="8" fill="none" fill-rule="evenodd"/><text font-family="DengXian,DengXian_MSFontService,sans-serif" font-weight="400" font-size="83" transform="matrix(1 0 0 1 1143.8 1550)">1</text><path d="M256.5 1659.83C256.5 1651.37 263.365 1644.5 271.833 1644.5L433.167 1644.5C441.635 1644.5 448.5 1651.37 448.5 1659.83L448.5 1721.17C448.5 1729.63 441.635 1736.5 433.167 1736.5L271.833 1736.5C263.365 1736.5 256.5 1729.63 256.5 1721.17Z" stroke="#2F528F" stroke-width="4.58333" stroke-miterlimit="8" fill="none" fill-rule="evenodd"/><text font-family="DengXian,DengXian_MSFontService,sans-serif" font-weight="400" font-size="83" transform="matrix(1 0 0 1 330.022 1717)">2</text><path d="M582.5 1659.83C582.5 1651.37 589.365 1644.5 597.834 1644.5L758.166 1644.5C766.635 1644.5 773.5 1651.37 773.5 1659.83L773.5 1721.17C773.5 1729.64 766.635 1736.5 758.166 1736.5L597.834 1736.5C589.365 1736.5 582.5 1729.64 582.5 1721.17Z" stroke="#2F528F" stroke-width="4.58333" stroke-miterlimit="8" fill="none" fill-rule="evenodd"/><text font-family="DengXian,DengXian_MSFontService,sans-serif" font-weight="400" font-size="83" transform="matrix(1 0 0 1 655.532 1717)">5</text><path d="M907.5 1659.83C907.5 1651.37 914.365 1644.5 922.834 1644.5L1084.17 1644.5C1092.64 1644.5 1099.5 1651.37 1099.5 1659.83L1099.5 1721.17C1099.5 1729.63 1092.64 1736.5 1084.17 1736.5L922.834 1736.5C914.365 1736.5 907.5 1729.63 907.5 1721.17Z" stroke="#2F528F" stroke-width="4.58333" stroke-miterlimit="8" fill="none" fill-rule="evenodd"/><text font-family="DengXian,DengXian_MSFontService,sans-serif" font-weight="400" font-size="83" transform="matrix(1 0 0 1 981.042 1717)">3</text><path d="M1233.5 1659.83C1233.5 1651.37 1240.36 1644.5 1248.83 1644.5L1409.17 1644.5C1417.63 1644.5 1424.5 1651.37 1424.5 1659.83L1424.5 1721.17C1424.5 1729.64 1417.63 1736.5 1409.17 1736.5L1248.83 1736.5C1240.36 1736.5 1233.5 1729.64 1233.5 1721.17Z" stroke="#2F528F" stroke-width="4.58333" stroke-miterlimit="8" fill="none" fill-rule="evenodd"/><text font-family="DengXian,DengXian_MSFontService,sans-serif" font-weight="400" font-size="83" transform="matrix(1 0 0 1 1284.78 1717)">16</text><path d="M0.966538-2.07787 142.943 63.9637 141.01 68.1194-0.966538 2.07787ZM143.62 51.6413 162.755 75.7069 132.022 76.5757Z" fill="#4472C4" transform="matrix(-1 0 0 1 840.255 1234.5)"/><path d="M841.466 1232.42 983.443 1298.46 981.51 1302.62 839.533 1236.58ZM984.12 1286.14 1003.25 1310.21 972.521 1311.08Z" fill="#C00000"/><path d="M678.467 1399.42 820.443 1465.46 818.51 1469.62 676.534 1403.58ZM821.12 1453.14 840.255 1477.21 809.522 1478.08Z" fill="#4472C4"/><path d="M0.96654-2.07787 142.943 63.9636 141.01 68.1194-0.96654 2.07787ZM143.62 51.6412 162.755 75.7069 132.021 76.5757Z" fill="#4472C4" transform="matrix(-1 0 0 1 678.255 1401.5)"/><path d="M1.02777-2.04827 128.895 62.1124 126.84 66.2089-1.02777 2.04827ZM129.938 49.8155 148.35 74.4384 117.604 74.3948Z" fill="#C00000" transform="matrix(-1 0 0 1 988.85 1402.5)"/><path d="M1004.47 1399.42 1146.44 1465.46 1144.51 1469.62 1002.53 1403.58ZM1147.12 1453.14 1166.26 1477.21 1135.52 1478.08Z" fill="#4472C4"/><path d="M0.966542-2.07787 142.943 63.964 141.01 68.1198-0.966542 2.07787ZM143.62 51.6416 162.755 75.7073 132.022 76.576Z" fill="#4472C4" transform="matrix(-1 0 0 1 515.255 1568.5)"/><path d="M516.467 1566.42 658.443 1632.46 656.51 1636.62 514.534 1570.58ZM659.12 1620.14 678.255 1644.21 647.521 1645.08Z" fill="#4472C4"/><path d="M841.466 1566.42 983.443 1632.46 981.51 1636.62 839.533 1570.58ZM984.12 1620.14 1003.25 1644.21 972.521 1645.08Z" fill="#4472C4"/><path d="M0.966542-2.07787 142.943 63.964 141.01 68.1198-0.966542 2.07787ZM143.62 51.6416 162.755 75.7073 132.022 76.576Z" fill="#4472C4" transform="matrix(-1 0 0 1 840.255 1568.5)"/><path d="M0.966542-2.07787 142.943 63.964 141.01 68.1198-0.966542 2.07787ZM143.62 51.6416 162.755 75.7073 132.022 76.576Z" fill="#4472C4" transform="matrix(-1 0 0 1 1166.26 1568.5)"/><path d="M1167.47 1566.42 1309.44 1632.46 1307.51 1636.62 1165.53 1570.58ZM1310.12 1620.14 1329.25 1644.21 1298.52 1645.08Z" fill="#4472C4"/><path d="M1979.5 1158.83C1979.5 1150.37 1986.37 1143.5 1994.83 1143.5L2156.17 1143.5C2164.63 1143.5 2171.5 1150.37 2171.5 1158.83L2171.5 1220.17C2171.5 1228.63 2164.63 1235.5 2156.17 1235.5L1994.83 1235.5C1986.37 1235.5 1979.5 1228.63 1979.5 1220.17Z" stroke="#2F528F" stroke-width="4.58333" stroke-miterlimit="8" fill="#F8CBAD" fill-rule="evenodd"/><text font-family="DengXian,DengXian_MSFontService,sans-serif" font-weight="400" font-size="83" transform="matrix(1 0 0 1 2053.17 1217)">1</text><path d="M1816.5 1326.67C1816.5 1318.29 1823.29 1311.5 1831.67 1311.5L1993.33 1311.5C2001.71 1311.5 2008.5 1318.29 2008.5 1326.67L2008.5 1387.33C2008.5 1395.71 2001.71 1402.5 1993.33 1402.5L1831.67 1402.5C1823.29 1402.5 1816.5 1395.71 1816.5 1387.33Z" stroke="#2F528F" stroke-width="4.58333" stroke-miterlimit="8" fill="#F8CBAD" fill-rule="evenodd"/><text font-family="DengXian,DengXian_MSFontService,sans-serif" font-weight="400" font-size="83" transform="matrix(1 0 0 1 1890.41 1384)">4</text><path d="M2142.5 1326.67C2142.5 1318.29 2149.29 1311.5 2157.67 1311.5L2318.33 1311.5C2326.71 1311.5 2333.5 1318.29 2333.5 1326.67L2333.5 1387.33C2333.5 1395.71 2326.71 1402.5 2318.33 1402.5L2157.67 1402.5C2149.29 1402.5 2142.5 1395.71 2142.5 1387.33Z" stroke="#2F528F" stroke-width="4.58333" stroke-miterlimit="8" fill="none" fill-rule="evenodd"/><text font-family="DengXian,DengXian_MSFontService,sans-serif" font-weight="400" font-size="83" transform="matrix(1 0 0 1 2215.92 1384)">2</text><path d="M1654.5 1493.83C1654.5 1485.37 1661.37 1478.5 1669.83 1478.5L1830.17 1478.5C1838.64 1478.5 1845.5 1485.37 1845.5 1493.83L1845.5 1555.17C1845.5 1563.64 1838.64 1570.5 1830.17 1570.5L1669.83 1570.5C1661.37 1570.5 1654.5 1563.64 1654.5 1555.17Z" stroke="#2F528F" stroke-width="4.58333" stroke-miterlimit="8" fill="none" fill-rule="evenodd"/><text font-family="DengXian,DengXian_MSFontService,sans-serif" font-weight="400" font-size="83" transform="matrix(1 0 0 1 1727.66 1552)">3</text><path d="M1979.5 1493.83C1979.5 1485.37 1986.37 1478.5 1994.83 1478.5L2156.17 1478.5C2164.63 1478.5 2171.5 1485.37 2171.5 1493.83L2171.5 1555.17C2171.5 1563.63 2164.63 1570.5 2156.17 1570.5L1994.83 1570.5C1986.37 1570.5 1979.5 1563.63 1979.5 1555.17Z" stroke="#2F528F" stroke-width="4.58333" stroke-miterlimit="8" fill="#C5E0B4" fill-rule="evenodd"/><text font-family="DengXian,DengXian_MSFontService,sans-serif" font-weight="400" font-size="83" transform="matrix(1 0 0 1 2053.17 1552)">6</text><path d="M2305.5 1493.83C2305.5 1485.37 2312.37 1478.5 2320.83 1478.5L2481.17 1478.5C2489.64 1478.5 2496.5 1485.37 2496.5 1493.83L2496.5 1555.17C2496.5 1563.64 2489.64 1570.5 2481.17 1570.5L2320.83 1570.5C2312.37 1570.5 2305.5 1563.64 2305.5 1555.17Z" stroke="#2F528F" stroke-width="4.58333" stroke-miterlimit="8" fill="none" fill-rule="evenodd"/><text font-family="DengXian,DengXian_MSFontService,sans-serif" font-weight="400" font-size="83" transform="matrix(1 0 0 1 2378.68 1552)">1</text><path d="M1491.5 1661.67C1491.5 1653.29 1498.29 1646.5 1506.67 1646.5L1667.33 1646.5C1675.71 1646.5 1682.5 1653.29 1682.5 1661.67L1682.5 1722.33C1682.5 1730.71 1675.71 1737.5 1667.33 1737.5L1506.67 1737.5C1498.29 1737.5 1491.5 1730.71 1491.5 1722.33Z" stroke="#2F528F" stroke-width="4.58333" stroke-miterlimit="8" fill="none" fill-rule="evenodd"/><text font-family="DengXian,DengXian_MSFontService,sans-serif" font-weight="400" font-size="83" transform="matrix(1 0 0 1 1564.9 1719)">2</text><path d="M1816.5 1661.67C1816.5 1653.29 1823.29 1646.5 1831.67 1646.5L1993.33 1646.5C2001.71 1646.5 2008.5 1653.29 2008.5 1661.67L2008.5 1722.33C2008.5 1730.71 2001.71 1737.5 1993.33 1737.5L1831.67 1737.5C1823.29 1737.5 1816.5 1730.71 1816.5 1722.33Z" stroke="#2F528F" stroke-width="4.58333" stroke-miterlimit="8" fill="none" fill-rule="evenodd"/><text font-family="DengXian,DengXian_MSFontService,sans-serif" font-weight="400" font-size="83" transform="matrix(1 0 0 1 1890.41 1719)">5</text><path d="M2142.5 1661.67C2142.5 1653.29 2149.29 1646.5 2157.67 1646.5L2318.33 1646.5C2326.71 1646.5 2333.5 1653.29 2333.5 1661.67L2333.5 1722.33C2333.5 1730.71 2326.71 1737.5 2318.33 1737.5L2157.67 1737.5C2149.29 1737.5 2142.5 1730.71 2142.5 1722.33Z" stroke="#2F528F" stroke-width="4.58333" stroke-miterlimit="8" fill="none" fill-rule="evenodd"/><text font-family="DengXian,DengXian_MSFontService,sans-serif" font-weight="400" font-size="83" transform="matrix(1 0 0 1 2215.92 1719)">3</text><path d="M2467.5 1661.67C2467.5 1653.29 2474.29 1646.5 2482.67 1646.5L2644.33 1646.5C2652.71 1646.5 2659.5 1653.29 2659.5 1661.67L2659.5 1722.33C2659.5 1730.71 2652.71 1737.5 2644.33 1737.5L2482.67 1737.5C2474.29 1737.5 2467.5 1730.71 2467.5 1722.33Z" stroke="#2F528F" stroke-width="4.58333" stroke-miterlimit="8" fill="none" fill-rule="evenodd"/><text font-family="DengXian,DengXian_MSFontService,sans-serif" font-weight="400" font-size="83" transform="matrix(1 0 0 1 2519.66 1719)">16</text><path d="M0.966538-2.07787 142.943 63.9637 141.01 68.1194-0.966538 2.07787ZM143.62 51.6413 162.755 75.7069 132.022 76.5757Z" fill="#C00000" transform="matrix(-1 0 0 1 2075.26 1235.5)"/><path d="M2076.47 1233.42 2218.44 1299.46 2216.51 1303.62 2074.53 1237.58ZM2219.12 1287.14 2238.25 1311.21 2207.52 1312.08Z" fill="#4472C4"/><path d="M1913.47 1400.42 2055.44 1466.46 2053.51 1470.62 1911.53 1404.58ZM2056.12 1454.14 2075.26 1478.21 2044.52 1479.08Z" fill="#C00000"/><path d="M0.96654-2.07787 142.943 63.9636 141.01 68.1194-0.96654 2.07787ZM143.62 51.6412 162.755 75.7069 132.021 76.5757Z" fill="#4472C4" transform="matrix(-1 0 0 1 1912.25 1402.5)"/><path d="M1.02777-2.04827 128.895 62.1124 126.84 66.2089-1.02777 2.04827ZM129.938 49.8155 148.35 74.4384 117.604 74.3948Z" fill="#4472C4" transform="matrix(-1 0 0 1 2223.85 1404.5)"/><path d="M2239.47 1400.42 2381.44 1466.46 2379.51 1470.62 2237.53 1404.58ZM2382.12 1454.14 2401.26 1478.21 2370.52 1479.08Z" fill="#4472C4"/><path d="M0.966542-2.07787 142.943 63.964 141.01 68.1198-0.966542 2.07787ZM143.62 51.6416 162.755 75.7073 132.022 76.576Z" fill="#4472C4" transform="matrix(-1 0 0 1 1750.26 1570.5)"/><path d="M1750.47 1568.42 1892.44 1634.46 1890.51 1638.62 1748.53 1572.58ZM1893.12 1622.14 1912.25 1646.21 1881.52 1647.08Z" fill="#4472C4"/><path d="M2076.47 1568.42 2218.44 1634.46 2216.51 1638.62 2074.53 1572.58ZM2219.12 1622.14 2238.25 1646.21 2207.52 1647.08Z" fill="#4472C4"/><path d="M0.966542-2.07787 142.943 63.964 141.01 68.1198-0.966542 2.07787ZM143.62 51.6416 162.755 75.7073 132.022 76.576Z" fill="#4472C4" transform="matrix(-1 0 0 1 2075.26 1570.5)"/><path d="M0.966542-2.07787 142.943 63.964 141.01 68.1198-0.966542 2.07787ZM143.62 51.6416 162.755 75.7073 132.022 76.576Z" fill="#4472C4" transform="matrix(-1 0 0 1 2401.26 1570.5)"/><path d="M2401.47 1568.42 2543.44 1634.46 2541.51 1638.62 2399.53 1572.58ZM2544.12 1622.14 2563.25 1646.21 2532.52 1647.08Z" fill="#4472C4"/><rect x="310.5" y="1009.5" width="419" height="133" stroke="#C00000" stroke-width="4.58333" stroke-miterlimit="8" stroke-dasharray="18.3333 13.75" fill="#4472C4"/><path d="M595.072 1121.03 783.618 1505.49" stroke="#C00000" stroke-width="4.58333" stroke-miterlimit="8" stroke-dasharray="18.3333 13.75" fill="none" fill-rule="evenodd"/><text fill="#FFFFFF" font-family="DengXian,DengXian_MSFontService,sans-serif" font-weight="400" font-size="83" transform="matrix(1 0 0 1 349.642 1103)">1+2+6=9</text><rect x="1491.5" y="1009.5" width="471" height="133" stroke="#C00000" stroke-width="4.58333" stroke-miterlimit="8" stroke-dasharray="18.3333 13.75" fill="#4472C4"/><path d="M1811.39 1121.03 2023.33 1505.49" stroke="#C00000" stroke-width="4.58333" stroke-miterlimit="8" stroke-dasharray="18.3333 13.75" fill="none" fill-rule="evenodd"/><text fill="#FFFFFF" font-family="DengXian,DengXian_MSFontService,sans-serif" font-weight="400" font-size="83" transform="matrix(1 0 0 1 1534.97 1103)">1+4+6=11</text><text font-family="Arial,Arial_MSFontService,sans-serif" font-weight="400" font-size="83" transform="matrix(1 0 0 1 2373.21 1154)">•</text><text font-family="DengXian,DengXian_MSFontService,sans-serif" font-weight="400" font-size="83" transform="matrix(1 0 0 1 2455.71 1154)">动态：不同路线到达“</text><text font-family="DengXian,DengXian_MSFontService,sans-serif" font-weight="400" font-size="83" transform="matrix(1 0 0 1 3227.43 1154)">6</text><text font-family="DengXian,DengXian_MSFontService,sans-serif" font-weight="400" font-size="83" transform="matrix(1 0 0 1 3270.97 1154)">”，路径和不同</text><text font-family="Arial,Arial_MSFontService,sans-serif" font-weight="400" font-size="83" transform="matrix(1 0 0 1 2373.21 1289)">•</text><text font-family="DengXian,DengXian_MSFontService,sans-serif" font-weight="400" font-size="83" transform="matrix(1 0 0 1 2455.71 1289)">规划：记录到达“</text><text font-family="DengXian,DengXian_MSFontService,sans-serif" font-weight="400" font-size="83" transform="matrix(1 0 0 1 3062.43 1289)">6</text><text font-family="DengXian,DengXian_MSFontService,sans-serif" font-weight="400" font-size="83" transform="matrix(1 0 0 1 3105.97 1289)">”时最大的路线（</text><text font-family="DengXian,DengXian_MSFontService,sans-serif" font-weight="400" font-size="83" transform="matrix(1 0 0 1 3712.69 1289)">1</text><text font-family="DengXian,DengXian_MSFontService,sans-serif" font-weight="400" font-size="83" transform="matrix(1 0 0 1 3756.23 1289)">-</text><text font-family="DengXian,DengXian_MSFontService,sans-serif" font-weight="400" font-size="83" transform="matrix(1 0 0 1 3797.48 1289)">4</text><text font-family="DengXian,DengXian_MSFontService,sans-serif" font-weight="400" font-size="83" transform="matrix(1 0 0 1 3841.02 1289)">-</text><text font-family="DengXian,DengXian_MSFontService,sans-serif" font-weight="400" font-size="83" transform="matrix(1 0 0 1 3882.27 1289)">6</text><text font-family="DengXian,DengXian_MSFontService,sans-serif" font-weight="400" font-size="83" transform="matrix(1 0 0 1 3925.82 1289)">）</text><text font-family="DengXian,DengXian_MSFontService,sans-serif" font-weight="400" font-size="83" transform="matrix(1 0 0 1 2703.21 1388)">从“</text><text font-family="DengXian,DengXian_MSFontService,sans-serif" font-weight="400" font-size="83" transform="matrix(1 0 0 1 2814.93 1388)">6</text><text font-family="DengXian,DengXian_MSFontService,sans-serif" font-weight="400" font-size="83" transform="matrix(1 0 0 1 2858.47 1388)">”出发再向下时，之前路线被固定</text><text font-family="DengXian,DengXian_MSFontService,sans-serif" font-weight="400" font-size="83" transform="matrix(1 0 0 1 2703.21 1487)">会尝试</text><text font-family="DengXian,DengXian_MSFontService,sans-serif" font-weight="400" font-size="83" transform="matrix(1 0 0 1 2973.06 1487)">1</text><text font-family="DengXian,DengXian_MSFontService,sans-serif" font-weight="400" font-size="83" transform="matrix(1 0 0 1 3016.6 1487)">-</text><text font-family="DengXian,DengXian_MSFontService,sans-serif" font-weight="400" font-size="83" transform="matrix(1 0 0 1 3057.85 1487)">4</text><text font-family="DengXian,DengXian_MSFontService,sans-serif" font-weight="400" font-size="83" transform="matrix(1 0 0 1 3101.39 1487)">-</text><text font-family="DengXian,DengXian_MSFontService,sans-serif" font-weight="400" font-size="83" transform="matrix(1 0 0 1 3142.64 1487)">6</text><text font-family="DengXian,DengXian_MSFontService,sans-serif" font-weight="400" font-size="83" transform="matrix(1 0 0 1 3186.18 1487)">-</text><text font-family="DengXian,DengXian_MSFontService,sans-serif" font-weight="400" font-size="83" transform="matrix(1 0 0 1 3227.43 1487)">5</text><text font-family="DengXian,DengXian_MSFontService,sans-serif" font-weight="400" font-size="83" transform="matrix(1 0 0 1 3270.97 1487)">；</text><text font-family="DengXian,DengXian_MSFontService,sans-serif" font-weight="400" font-size="83" transform="matrix(1 0 0 1 3353.47 1487)">1</text><text font-family="DengXian,DengXian_MSFontService,sans-serif" font-weight="400" font-size="83" transform="matrix(1 0 0 1 3397.01 1487)">-</text><text font-family="DengXian,DengXian_MSFontService,sans-serif" font-weight="400" font-size="83" transform="matrix(1 0 0 1 3438.26 1487)">4</text><text font-family="DengXian,DengXian_MSFontService,sans-serif" font-weight="400" font-size="83" transform="matrix(1 0 0 1 3481.81 1487)">-</text><text font-family="DengXian,DengXian_MSFontService,sans-serif" font-weight="400" font-size="83" transform="matrix(1 0 0 1 3523.06 1487)">6</text><text font-family="DengXian,DengXian_MSFontService,sans-serif" font-weight="400" font-size="83" transform="matrix(1 0 0 1 3566.6 1487)">-</text><text font-family="DengXian,DengXian_MSFontService,sans-serif" font-weight="400" font-size="83" transform="matrix(1 0 0 1 3607.85 1487)">3</text><text font-family="DengXian,DengXian_MSFontService,sans-serif" font-weight="400" font-size="83" transform="matrix(1 0 0 1 2703.21 1586)">而不会再尝试</text><text font-family="DengXian,DengXian_MSFontService,sans-serif" font-weight="400" font-size="83" transform="matrix(1 0 0 1 3220.56 1586)">1</text><text font-family="DengXian,DengXian_MSFontService,sans-serif" font-weight="400" font-size="83" transform="matrix(1 0 0 1 3264.1 1586)">-</text><text font-family="DengXian,DengXian_MSFontService,sans-serif" font-weight="400" font-size="83" transform="matrix(1 0 0 1 3305.35 1586)">2</text><text font-family="DengXian,DengXian_MSFontService,sans-serif" font-weight="400" font-size="83" transform="matrix(1 0 0 1 3348.89 1586)">-</text><text font-family="DengXian,DengXian_MSFontService,sans-serif" font-weight="400" font-size="83" transform="matrix(1 0 0 1 3390.14 1586)">6</text><text font-family="DengXian,DengXian_MSFontService,sans-serif" font-weight="400" font-size="83" transform="matrix(1 0 0 1 3433.68 1586)">-</text><text font-family="DengXian,DengXian_MSFontService,sans-serif" font-weight="400" font-size="83" transform="matrix(1 0 0 1 3474.93 1586)">5 … </text><text font-family="DengXian,DengXian_MSFontService,sans-serif" font-weight="400" font-size="83" transform="matrix(1 0 0 1 3621.02 1586)">这样的路线</text></g></svg>