<svg width="1912" height="676" xmlns="http://www.w3.org/2000/svg" xmlns:xlink="http://www.w3.org/1999/xlink" xml:space="preserve" overflow="hidden"><defs><linearGradient x1="2902.5" y1="743" x2="2586.5" y2="743" gradientUnits="userSpaceOnUse" spreadMethod="reflect" id="fill0"><stop offset="0" stop-color="#C5E0B4"/><stop offset="0.02" stop-color="#C6DFB3"/><stop offset="0.04" stop-color="#C8DFB3"/><stop offset="0.06" stop-color="#CADFB3"/><stop offset="0.08" stop-color="#CCDFB3"/><stop offset="0.1" stop-color="#CEDFB3"/><stop offset="0.12" stop-color="#CFDFB3"/><stop offset="0.14" stop-color="#D1DFB3"/><stop offset="0.16" stop-color="#D3DFB3"/><stop offset="0.18" stop-color="#D4DFB3"/><stop offset="0.2" stop-color="#D6DEB3"/><stop offset="0.22" stop-color="#D7DEB3"/><stop offset="0.24" stop-color="#D9DEB3"/><stop offset="0.26" stop-color="#DBDEB3"/><stop offset="0.28" stop-color="#DCDEB3"/><stop offset="0.3" stop-color="#DDDDB3"/><stop offset="0.32" stop-color="#DFDDB3"/><stop offset="0.34" stop-color="#E0DDB3"/><stop offset="0.36" stop-color="#E1DCB2"/><stop offset="0.38" stop-color="#E3DCB2"/><stop offset="0.4" stop-color="#E4DCB2"/><stop offset="0.42" stop-color="#E5DBB2"/><stop offset="0.44" stop-color="#E6DBB2"/><stop offset="0.46" stop-color="#E7DBB2"/><stop offset="0.48" stop-color="#E9DAB2"/><stop offset="0.5" stop-color="#EADAB2"/><stop offset="0.52" stop-color="#EBD9B1"/><stop offset="0.54" stop-color="#ECD9B1"/><stop offset="0.56" stop-color="#EDD8B1"/><stop offset="0.58" stop-color="#EDD8B1"/><stop offset="0.6" stop-color="#EED7B1"/><stop offset="0.62" stop-color="#EFD7B1"/><stop offset="0.64" stop-color="#F0D6B0"/><stop offset="0.66" stop-color="#F1D6B0"/><stop offset="0.68" stop-color="#F1D5B0"/><stop offset="0.7" stop-color="#F2D5B0"/><stop offset="0.72" stop-color="#F3D4B0"/><stop offset="0.74" stop-color="#F3D4B0"/><stop offset="0.76" stop-color="#F4D3AF"/><stop offset="0.78" stop-color="#F5D2AF"/><stop offset="0.8" stop-color="#F5D2AF"/><stop offset="0.82" stop-color="#F5D1AF"/><stop offset="0.84" stop-color="#F6D0AE"/><stop offset="0.86" stop-color="#F6D0AE"/><stop offset="0.88" stop-color="#F7CFAE"/><stop offset="0.9" stop-color="#F7CEAE"/><stop offset="0.92" stop-color="#F7CEAE"/><stop offset="0.94" stop-color="#F7CDAD"/><stop offset="0.96" stop-color="#F7CCAD"/><stop offset="0.98" stop-color="#F7CBAD"/><stop offset="1" stop-color="#F8CBAD"/></linearGradient></defs><g transform="translate(-2096 -333)"><path d="M2586.5 377.834C2586.5 369.365 2593.36 362.5 2601.83 362.5L2887.17 362.5C2895.64 362.5 2902.5 369.365 2902.5 377.834L2902.5 439.166C2902.5 447.635 2895.64 454.5 2887.17 454.5L2601.83 454.5C2593.36 454.5 2586.5 447.635 2586.5 439.166Z" stroke="#2F528F" stroke-width="4.58333" stroke-miterlimit="8" fill="none" fill-rule="evenodd"/><text font-family="DengXian,DengXian_MSFontService,sans-serif" font-weight="400" font-size="83" transform="matrix(1 0 0 1 2667.52 435)">(1,1)</text><path d="M2424.5 544.833C2424.5 536.365 2431.36 529.5 2439.83 529.5L2724.17 529.5C2732.63 529.5 2739.5 536.365 2739.5 544.833L2739.5 606.167C2739.5 614.635 2732.63 621.5 2724.17 621.5L2439.83 621.5C2431.36 621.5 2424.5 614.635 2424.5 606.167Z" stroke="#2F528F" stroke-width="4.58333" stroke-miterlimit="8" fill="#F8CBAD" fill-rule="evenodd"/><text font-family="DengXian,DengXian_MSFontService,sans-serif" font-weight="400" font-size="83" transform="matrix(1 0 0 1 2504.77 603)">(2,1)</text><path d="M2749.5 544.833C2749.5 536.365 2756.37 529.5 2764.83 529.5L3050.17 529.5C3058.64 529.5 3065.5 536.365 3065.5 544.833L3065.5 606.166C3065.5 614.634 3058.64 621.499 3050.17 621.499L2764.83 621.499C2756.37 621.499 2749.5 614.634 2749.5 606.166Z" stroke="#2F528F" stroke-width="4.58333" stroke-miterlimit="8" fill="#C5E0B4" fill-rule="evenodd"/><text font-family="DengXian,DengXian_MSFontService,sans-serif" font-weight="400" font-size="83" transform="matrix(1 0 0 1 2830.28 603)">(2,2)</text><path d="M2261.5 712.667C2261.5 704.29 2268.29 697.5 2276.67 697.5L2562.33 697.5C2570.71 697.5 2577.5 704.29 2577.5 712.667L2577.5 773.333C2577.5 781.71 2570.71 788.5 2562.33 788.5L2276.67 788.5C2268.29 788.5 2261.5 781.71 2261.5 773.333Z" stroke="#2F528F" stroke-width="4.58333" stroke-miterlimit="8" fill="#F8CBAD" fill-rule="evenodd"/><text font-family="DengXian,DengXian_MSFontService,sans-serif" font-weight="400" font-size="83" transform="matrix(1 0 0 1 2342.01 770)">(3,1)</text><path d="M2586.5 712.667C2586.5 704.29 2593.29 697.5 2601.67 697.5L2887.33 697.5C2895.71 697.5 2902.5 704.29 2902.5 712.667L2902.5 773.333C2902.5 781.71 2895.71 788.5 2887.33 788.5L2601.67 788.5C2593.29 788.5 2586.5 781.71 2586.5 773.333Z" stroke="#2F528F" stroke-width="4.58333" stroke-miterlimit="8" fill="url(#fill0)" fill-rule="evenodd"/><text font-family="DengXian,DengXian_MSFontService,sans-serif" font-weight="400" font-size="83" transform="matrix(1 0 0 1 2667.52 770)">(3,2)</text><path d="M2912.5 712.667C2912.5 704.29 2919.29 697.5 2927.67 697.5L3213.33 697.5C3221.71 697.5 3228.5 704.29 3228.5 712.667L3228.5 773.333C3228.5 781.71 3221.71 788.5 3213.33 788.5L2927.67 788.5C2919.29 788.5 2912.5 781.71 2912.5 773.333Z" stroke="#2F528F" stroke-width="4.58333" stroke-miterlimit="8" fill="#C5E0B4" fill-rule="evenodd"/><text font-family="DengXian,DengXian_MSFontService,sans-serif" font-weight="400" font-size="83" transform="matrix(1 0 0 1 2993.03 770)">(3,3)</text><path d="M2098.5 879.834C2098.5 871.365 2105.36 864.5 2113.83 864.5L2399.17 864.5C2407.63 864.5 2414.5 871.365 2414.5 879.834L2414.5 941.166C2414.5 949.634 2407.63 956.5 2399.17 956.5L2113.83 956.5C2105.36 956.5 2098.5 949.634 2098.5 941.166Z" stroke="#2F528F" stroke-width="4.58333" stroke-miterlimit="8" fill="none" fill-rule="evenodd"/><text font-family="DengXian,DengXian_MSFontService,sans-serif" font-weight="400" font-size="83" transform="matrix(1 0 0 1 2179.26 937)">(4,1)</text><path d="M2424.5 879.834C2424.5 871.365 2431.36 864.5 2439.83 864.5L2724.17 864.5C2732.63 864.5 2739.5 871.365 2739.5 879.834L2739.5 941.167C2739.5 949.635 2732.63 956.5 2724.17 956.5L2439.83 956.5C2431.36 956.5 2424.5 949.635 2424.5 941.167Z" stroke="#2F528F" stroke-width="4.58333" stroke-miterlimit="8" fill="none" fill-rule="evenodd"/><text font-family="DengXian,DengXian_MSFontService,sans-serif" font-weight="400" font-size="83" transform="matrix(1 0 0 1 2504.77 937)">(4,2)</text><path d="M2749.5 879.834C2749.5 871.365 2756.37 864.5 2764.83 864.5L3050.17 864.5C3058.64 864.5 3065.5 871.365 3065.5 879.834L3065.5 941.166C3065.5 949.634 3058.64 956.5 3050.17 956.5L2764.83 956.5C2756.37 956.5 2749.5 949.634 2749.5 941.166Z" stroke="#2F528F" stroke-width="4.58333" stroke-miterlimit="8" fill="none" fill-rule="evenodd"/><text font-family="DengXian,DengXian_MSFontService,sans-serif" font-weight="400" font-size="83" transform="matrix(1 0 0 1 2830.28 937)">(4,3)</text><path d="M3075.5 879.834C3075.5 871.365 3082.36 864.5 3090.83 864.5L3375.17 864.5C3383.63 864.5 3390.5 871.365 3390.5 879.834L3390.5 941.167C3390.5 949.635 3383.63 956.5 3375.17 956.5L3090.83 956.5C3082.36 956.5 3075.5 949.635 3075.5 941.167Z" stroke="#2F528F" stroke-width="4.58333" stroke-miterlimit="8" fill="none" fill-rule="evenodd"/><text font-family="DengXian,DengXian_MSFontService,sans-serif" font-weight="400" font-size="83" transform="matrix(1 0 0 1 3155.79 937)">(4,4)</text><path d="M0.966538-2.07787 142.943 63.9637 141.01 68.1194-0.966538 2.07787ZM143.62 51.6413 162.755 75.7069 132.022 76.5757Z" fill="#4472C4" transform="matrix(-1 0 0 1 2745.26 454.5)"/><path d="M2745.47 452.422 2887.44 518.464 2885.51 522.619 2743.53 456.578ZM2888.12 506.141 2907.25 530.207 2876.52 531.076Z" fill="#4472C4"/><path d="M2583.47 619.422 2725.44 685.464 2723.51 689.619 2581.53 623.578ZM2726.12 673.141 2745.26 697.207 2714.52 698.076Z" fill="#4472C4"/><path d="M0.96654-2.07787 142.943 63.9636 141.01 68.1194-0.96654 2.07787ZM143.62 51.6412 162.755 75.7069 132.021 76.5757Z" fill="#4472C4" transform="matrix(-1 0 0 1 2582.26 621.5)"/><path d="M1.49645-1.73562 70.4758 57.7383 67.4829 61.2095-1.49645 1.73562ZM74.4868 46.0673 86.3356 74.4384 56.5294 66.8947Z" fill="#4472C4" transform="matrix(-1 0 0 1 2830.84 622.5)"/><path d="M2908.47 619.422 3050.44 685.464 3048.51 689.619 2906.53 623.578ZM3051.12 673.141 3070.26 697.207 3039.52 698.076Z" fill="#4472C4"/><path d="M0.966542-2.07787 142.943 63.964 141.01 68.1198-0.966542 2.07787ZM143.62 51.6416 162.755 75.7073 132.022 76.576Z" fill="#4472C4" transform="matrix(-1 0 0 1 2419.26 788.5)"/><path d="M2420.47 786.422 2562.44 852.464 2560.51 856.62 2418.53 790.578ZM2563.12 840.142 2582.26 864.207 2551.52 865.076Z" fill="#4472C4"/><path d="M2745.47 786.422 2887.44 852.464 2885.51 856.62 2743.53 790.578ZM2888.12 840.142 2907.25 864.207 2876.52 865.076Z" fill="#4472C4"/><path d="M0.966542-2.07787 142.943 63.964 141.01 68.1198-0.966542 2.07787ZM143.62 51.6416 162.755 75.7073 132.022 76.576Z" fill="#4472C4" transform="matrix(-1 0 0 1 2745.26 788.5)"/><path d="M0.966542-2.07787 142.943 63.964 141.01 68.1198-0.966542 2.07787ZM143.62 51.6416 162.755 75.7073 132.022 76.576Z" fill="#4472C4" transform="matrix(-1 0 0 1 3070.26 788.5)"/><path d="M3071.47 786.422 3213.44 852.464 3211.51 856.62 3069.53 790.578ZM3214.12 840.142 3233.25 864.207 3202.52 865.076Z" fill="#4472C4"/><path d="M3233.5 440.5C3233.5 423.932 3246.93 410.5 3263.5 410.5L3362.17 410.5 3362.17 410.5 3555.17 410.5 3975.5 410.5C3992.07 410.5 4005.5 423.932 4005.5 440.5L4005.5 515.5 4005.5 515.5 4005.5 560.5 4005.5 560.5C4005.5 577.068 3992.07 590.5 3975.5 590.5L3555.17 590.5 3362.17 590.5 3362.17 590.5 3263.5 590.5C3246.93 590.5 3233.5 577.068 3233.5 560.5L3233.5 560.5 3162.95 576.304 3233.5 515.5Z" stroke="#2F528F" stroke-width="4.58333" stroke-miterlimit="8" fill="#4472C4" fill-rule="evenodd"/><text fill="#FFFFFF" font-family="DengXian,DengXian_MSFontService,sans-serif" font-weight="400" font-size="83" transform="matrix(1 0 0 1 3330.12 527)">对每个格子编号</text></g></svg>