<svg width="1663" height="744" xmlns="http://www.w3.org/2000/svg" xmlns:xlink="http://www.w3.org/1999/xlink" xml:space="preserve" overflow="hidden"><g transform="translate(-2438 -124)"><rect x="2440.5" y="322.5" width="784" height="91.0001" stroke="#2F528F" stroke-width="4.58333" stroke-miterlimit="8" fill="#00B050"/><rect x="3224.5" y="322.5" width="90" height="91.0001" stroke="#2F528F" stroke-width="4.58333" stroke-miterlimit="8" fill="#FFC000"/><text fill="#FFFFFF" font-family="DengXian,DengXian_MSFontService,sans-serif" font-weight="400" font-size="83" transform="matrix(1 0 0 1 3246.99 395)">6</text><rect x="3314.5" y="322.5" width="784" height="91.0001" stroke="#2F528F" stroke-width="4.58333" stroke-miterlimit="8" fill="#0070C0"/><rect x="2440.5" y="506.5" width="296" height="91.0001" stroke="#2F528F" stroke-width="4.58333" stroke-miterlimit="8" fill="#C00000"/><path d="M3087.5 605.472C3087.5 629.78 3084.22 649.486 3080.16 649.486L2771.34 649.486C2767.28 649.486 2764 669.192 2764 693.5 2764 669.192 2760.72 649.486 2756.66 649.486L2447.84 649.486C2443.78 649.486 2440.5 629.78 2440.5 605.472" stroke="#4472C4" stroke-width="4.58333" stroke-miterlimit="8" fill="none" fill-rule="evenodd"/><text font-family="DengXian,DengXian_MSFontService,sans-serif" font-weight="400" font-size="83" transform="matrix(1 0 0 1 2596.55 796)">标记序列</text><rect x="2826.5" y="506.5" width="261" height="91.0001" stroke="#2F528F" stroke-width="4.58333" stroke-miterlimit="8" fill="#C00000"/><rect x="2736.5" y="506.5" width="90" height="91.0001" stroke="#2F528F" stroke-width="4.58333" stroke-miterlimit="8" fill="#00B0F0"/><text fill="#FFFFFF" font-family="DengXian,DengXian_MSFontService,sans-serif" font-weight="400" font-size="83" transform="matrix(1 0 0 1 2759.36 579)">7</text><path d="M0.864162-4.50113 465.996 84.7986 464.268 93.8008-0.864162 4.50113ZM463.224 74.9322 487.638 93.6205 458.039 101.939Z" fill="#4472C4" transform="matrix(-1 0 0 1 3269.14 413.5)"/><text font-family="DengXian,DengXian_MSFontService,sans-serif" font-weight="400" font-size="83" transform="matrix(1 0 0 1 3140.15 537)">替换</text><path d="M3223.5 301.5C3223.5 293.492 3224.58 287 3225.92 287L3266.08 287C3267.42 287 3268.5 280.508 3268.5 272.5 3268.5 280.508 3269.58 287 3270.92 287L3311.08 287C3312.42 287 3313.5 293.492 3313.5 301.5" stroke="#4472C4" stroke-width="4.58333" stroke-miterlimit="8" fill="none" fill-rule="evenodd"/><path d="M3155.81 214.607C3162.3 217.633 3166.84 219.903 3169.43 221.416 3172.03 222.929 3173.65 224.226 3174.3 225.307 3174.94 226.387 3175.27 227.36 3175.27 228.224 3175.27 229.089 3175.11 229.954 3174.78 230.818 3174.46 231.683 3174.08 232.115 3173.65 232.115 3173 232.115 3172.03 231.359 3170.73 229.846 3168.78 227.468 3166.78 225.252 3164.73 223.199 3162.68 221.146 3159.49 218.606 3155.17 215.58ZM3131.5 212.986 3136.69 218.174 3133.44 218.822C3123.72 225.523 3116.37 229.954 3111.4 232.115L3110.75 230.818C3115.29 228.008 3119.29 225.144 3122.74 222.226 3126.2 219.308 3129.12 216.228 3131.5 212.986ZM3153.22 181.861C3155.6 186.616 3158.41 190.507 3161.65 193.533 3164.68 189.642 3167.49 185.752 3170.08 181.861ZM3150.3 174.728C3151.17 176.89 3151.92 178.619 3152.57 179.916L3170.08 179.916 3173.32 176.674 3178.51 181.861C3176.13 182.293 3173.65 183.752 3171.05 186.238 3168.46 188.724 3165.65 191.48 3162.62 194.506 3166.3 197.316 3169.65 199.369 3172.67 200.666 3175.7 201.963 3179.16 202.935 3183.05 203.584L3183.05 204.557C3180.02 204.989 3177.86 206.394 3176.56 208.771 3168.35 204.448 3162.19 199.639 3158.08 194.344 3153.98 189.048 3150.95 182.618 3149.01 175.053ZM3061.14 174.08 3061.14 184.779 3065.03 184.779C3068.17 181.861 3071.3 178.484 3074.44 174.647L3074.87 174.08ZM3128.26 171.162 3134.42 174.728C3132.69 175.809 3130.96 177.538 3129.23 179.916L3140.9 179.916 3143.82 176.998 3148.36 181.537 3145.12 183.482C3143.6 186.076 3141.98 188.616 3140.25 191.101 3138.52 193.587 3136.69 195.911 3134.74 198.072L3151.6 198.072 3154.84 194.83 3160.03 200.017 3139.6 200.017 3136.04 200.666 3134.09 198.721C3130.63 202.179 3126.53 205.313 3121.77 208.123L3161.33 208.123 3165.54 203.908 3171.7 210.068 3148.36 210.068 3148.36 226.603C3148.36 230.494 3146.3 233.196 3142.2 234.709 3141.55 232.331 3138.2 230.062 3132.15 227.9L3132.15 226.603C3137.33 227.252 3140.58 227.576 3141.87 227.576 3143.17 227.576 3143.82 226.82 3143.82 225.307L3143.82 210.068 3125.34 210.068 3122.74 210.717 3120.8 208.771C3116.69 210.717 3112.8 212.554 3109.13 214.283L3108.48 213.31C3115.18 210.068 3121.29 206.015 3126.8 201.152 3132.31 196.289 3136.9 189.859 3140.58 181.861L3128.26 181.861C3127.39 182.726 3126.53 183.698 3125.66 184.779 3128.9 186.076 3130.9 187.157 3131.66 188.021 3132.42 188.886 3132.8 189.751 3132.8 190.615 3132.8 191.696 3132.53 192.668 3131.98 193.533 3131.44 194.398 3130.96 194.83 3130.53 194.83 3130.09 194.83 3129.66 194.182 3129.23 192.885 3128.58 190.939 3127.07 188.562 3124.69 185.752 3123.18 187.697 3121.23 189.751 3118.85 191.912 3121.66 193.641 3123.39 195.1 3124.04 196.289 3124.69 197.478 3125.01 198.288 3125.01 198.721 3125.01 199.585 3124.69 200.396 3124.04 201.152 3123.39 201.909 3122.85 202.287 3122.42 202.287 3121.77 202.287 3121.34 201.422 3121.12 199.693 3120.48 197.316 3119.39 195.046 3117.88 192.885 3115.5 195.046 3112.91 197.208 3110.1 199.369L3109.45 198.396C3113.34 194.722 3117.07 190.345 3120.64 185.265 3124.2 180.186 3126.74 175.485 3128.26 171.162ZM3240.73 169.541 3248.19 173.432 3245.27 175.701 3245.27 205.853C3245.27 208.015 3245.38 210.933 3245.6 214.607L3240.73 216.553C3240.95 209.42 3241.06 201.368 3241.06 192.398 3241.06 183.428 3240.95 175.809 3240.73 169.541ZM3177.54 164.678 3182.73 170.514C3181.21 170.514 3179.54 171 3177.7 171.973 3175.86 172.945 3173.86 174.62 3171.7 176.998L3170.73 176.349 3173.97 170.189 3118.85 170.189C3118.85 172.999 3118.58 174.999 3118.04 176.187 3117.5 177.376 3116.53 178.187 3115.13 178.619 3113.72 179.051 3112.75 178.943 3112.21 178.295 3111.67 177.646 3111.4 177.214 3111.4 176.998 3111.4 176.133 3112.15 175.053 3113.67 173.756 3115.61 172.243 3116.91 169.325 3117.56 165.002L3118.85 165.002 3118.85 168.244 3147.71 168.244 3173.97 168.244ZM3230.03 161.111 3236.19 167.271 3213.5 167.271 3219.33 170.838C3216.74 171.702 3214.04 173.648 3211.23 176.674 3208.2 179.916 3204.85 183.158 3201.18 186.4L3227.12 185.752C3225.17 182.726 3222.68 179.592 3219.66 176.349L3220.63 175.377C3229.71 181.645 3234.46 185.86 3234.9 188.021 3235.33 190.183 3235.01 191.804 3233.92 192.885 3232.84 193.965 3232.09 194.506 3231.65 194.506 3231.22 194.506 3230.9 194.073 3230.68 193.209 3230.03 191.696 3229.06 189.751 3227.76 187.373 3223.01 187.805 3218.36 188.237 3213.82 188.67L3219.01 191.264 3216.42 193.533 3216.42 203.908 3225.17 203.908 3229.06 200.017 3234.9 205.853 3216.42 205.853 3216.42 221.416 3234.9 217.849 3235.22 219.471C3210.58 225.739 3197.29 229.846 3195.34 231.791L3191.78 225.307C3195.45 224.874 3202.15 223.902 3211.88 222.389L3211.88 205.853 3199.56 205.853 3195.67 206.502 3193.07 203.908 3211.88 203.908 3211.88 188.67C3204.1 189.751 3199.45 190.939 3197.94 192.236L3195.02 186.4C3198.04 186.184 3201.18 184.023 3204.42 179.916 3207.66 175.809 3210.26 171.594 3212.2 167.271L3203.77 167.271C3200.96 167.271 3198.37 167.596 3195.99 168.244L3193.07 165.326 3225.82 165.326ZM3256.3 159.166 3263.43 162.408 3260.83 164.678 3260.83 224.01C3261.05 229.413 3258.67 232.872 3253.7 234.385 3253.27 231.142 3249.7 228.765 3243 227.252L3243 225.631C3246.24 226.063 3249.27 226.279 3252.08 226.279 3253.59 226.279 3254.78 226.117 3255.65 225.793 3256.51 225.469 3256.84 223.902 3256.62 221.092L3256.62 170.189C3256.62 166.947 3256.51 163.273 3256.3 159.166ZM3056.28 158.517 3064.39 161.435 3061.14 164.029 3061.14 172.135 3066.33 172.135 3070.55 168.568 3075.26 173.578 3079.14 168.548C3080.7 166.4 3082.27 164.137 3083.84 161.76L3089.35 166.623 3086.76 167.596C3080.49 174.296 3075.08 180.024 3070.55 184.779L3090.97 184.779 3095.19 180.889 3101.02 186.724 3068.92 186.724C3065.03 190.399 3061.03 193.857 3056.93 197.099L3083.51 197.099 3088.05 192.885 3093.89 199.045 3065.68 199.045C3064.6 201.855 3063.41 205.205 3062.12 209.096L3082.87 209.096 3085.46 205.853 3090.65 210.392 3088.05 212.014C3086.32 219.146 3085.08 224.01 3084.32 226.603 3083.57 229.197 3082.38 231.088 3080.76 232.277 3079.14 233.466 3075.84 234.277 3070.87 234.709 3070.65 231.683 3066.76 229.089 3059.2 226.928L3059.52 225.631C3068.17 227.576 3073.52 228.549 3075.57 228.549 3077.62 228.549 3079.03 227.684 3079.79 225.955 3080.54 224.226 3081.78 219.254 3083.51 211.041L3061.79 211.041 3059.52 213.635 3055.31 209.744 3058.23 207.474C3059.09 205.313 3059.85 202.503 3060.49 199.045L3058.23 200.017 3056.6 197.424C3052.28 200.666 3047.53 203.638 3042.34 206.34 3037.15 209.042 3032.07 211.257 3027.1 212.986L3026.78 211.689C3032.83 208.879 3038.88 205.475 3044.93 201.476 3050.98 197.478 3057.04 192.56 3063.09 186.724L3035.21 186.724C3032.4 186.724 3029.8 187.049 3027.42 187.697L3024.51 184.779 3056.6 184.779 3056.6 174.08 3046.88 174.08C3044.07 174.08 3041.47 174.404 3039.1 175.053L3036.18 172.135 3056.6 172.135C3056.6 165.218 3056.5 160.679 3056.28 158.517ZM3141.23 157.869C3145.55 159.382 3148.14 160.625 3149.01 161.598 3149.87 162.57 3150.3 163.381 3150.3 164.029 3150.3 164.894 3149.98 165.812 3149.33 166.785 3148.68 167.758 3148.14 168.244 3147.71 168.244 3147.28 168.244 3146.74 167.379 3146.09 165.65 3145.01 163.273 3143.28 161.003 3140.9 158.842Z" fill-rule="evenodd"/><text fill="#000000" fill-opacity="0" font-family="Arial,Arial_MSFontService,sans-serif" font-size="76.8398" x="3024.51" y="225.104">考察到</text><text font-family="DengXian,DengXian_MSFontService,sans-serif" font-weight="400" font-size="83" transform="matrix(1 0 0 1 3268.76 226)">的数字</text></g></svg>