<svg width="1726" height="826" xmlns="http://www.w3.org/2000/svg" xmlns:xlink="http://www.w3.org/1999/xlink" xml:space="preserve" overflow="hidden"><g transform="translate(-2375 -678)"><rect x="2406.5" y="1041.5" width="784" height="91.0001" stroke="#2F528F" stroke-width="4.58333" stroke-miterlimit="8" fill="#00B050"/><rect x="3190.5" y="1041.5" width="124" height="91.0001" stroke="#2F528F" stroke-width="4.58333" stroke-miterlimit="8" fill="#FFC000"/><rect x="3314.5" y="1041.5" width="784" height="91.0001" stroke="#2F528F" stroke-width="4.58333" stroke-miterlimit="8" fill="#0070C0"/><path d="M3190.5 1136.5C3190.5 1160.8 3187.22 1180.5 3183.17 1180.5L2805.83 1180.5C2801.78 1180.5 2798.5 1200.2 2798.5 1224.5 2798.5 1200.2 2795.22 1180.5 2791.17 1180.5L2413.83 1180.5C2409.78 1180.5 2406.5 1160.8 2406.5 1136.5" stroke="#4472C4" stroke-width="4.58333" stroke-miterlimit="8" fill="none" fill-rule="evenodd"/><path d="M3190.5 1031.5C3190.5 1007.2 3193.78 987.5 3197.83 987.5L3245.17 987.5C3249.22 987.5 3252.5 967.801 3252.5 943.5 3252.5 967.801 3255.78 987.5 3259.83 987.5L3307.17 987.5C3311.22 987.5 3314.5 1007.2 3314.5 1031.5" stroke="#4472C4" stroke-width="4.58333" stroke-miterlimit="8" fill="none" fill-rule="evenodd"/><path d="M4098.5 1145.5C4098.5 1169.8 4095.22 1189.5 4091.17 1189.5L3713.83 1189.5C3709.78 1189.5 3706.5 1209.2 3706.5 1233.5 3706.5 1209.2 3703.22 1189.5 3699.17 1189.5L3321.83 1189.5C3317.78 1189.5 3314.5 1169.8 3314.5 1145.5" stroke="#4472C4" stroke-width="4.58333" stroke-miterlimit="8" fill="none" fill-rule="evenodd"/><path d="M2530.32 1292.74C2527.56 1292.74 2525.09 1293.85 2522.9 1296.08 2520.71 1298.31 2518.99 1301.32 2517.73 1305.1 2516.48 1308.88 2515.85 1312.65 2515.85 1316.41 2515.85 1319.22 2516.23 1321.32 2517 1322.71 2517.77 1324.1 2519.06 1324.79 2520.87 1324.79 2521.71 1324.79 2522.56 1324.61 2523.43 1324.25 2524.29 1323.88 2525.19 1323.3 2526.12 1322.48 2527.05 1321.67 2527.97 1320.69 2528.88 1319.53 2529.78 1318.36 2530.61 1317.2 2531.37 1316.02 2532.13 1314.85 2532.83 1313.45 2533.48 1311.85 2534.13 1310.24 2534.68 1308.3 2535.14 1306.03L2535.5 1304.29C2535.91 1302.34 2536.11 1300.51 2536.11 1298.78 2536.11 1296.67 2535.67 1295.14 2534.77 1294.18 2533.88 1293.22 2532.4 1292.74 2530.32 1292.74ZM2547.3 1271.01 2549.69 1271.01 2539.6 1315.88C2539 1318.53 2538.7 1320.53 2538.7 1321.88 2538.7 1322.96 2538.88 1323.74 2539.23 1324.23 2539.58 1324.71 2540.14 1324.96 2540.89 1324.96 2541.7 1324.96 2542.57 1324.63 2543.49 1323.96 2544.41 1323.3 2545.7 1322.04 2547.38 1320.17L2549.69 1322.44C2547.2 1325.06 2545.11 1326.92 2543.41 1328 2541.7 1329.08 2539.87 1329.62 2537.89 1329.62 2536.22 1329.62 2534.88 1329.06 2533.88 1327.96 2532.88 1326.85 2532.38 1325.38 2532.38 1323.54 2532.38 1322.05 2532.69 1320.47 2533.31 1318.8L2532.79 1318.63C2530.19 1322.42 2527.74 1325.19 2525.41 1326.94 2523.09 1328.7 2520.63 1329.58 2518.04 1329.58 2515.06 1329.58 2512.76 1328.46 2511.13 1326.21 2509.49 1323.97 2508.67 1320.82 2508.67 1316.77 2508.67 1312.12 2509.59 1307.66 2511.41 1303.38 2513.23 1299.09 2515.74 1295.72 2518.93 1293.24 2522.12 1290.77 2525.67 1289.54 2529.59 1289.54 2531.23 1289.54 2532.75 1289.7 2534.15 1290.04 2535.54 1290.38 2536.96 1290.97 2538.42 1291.81L2540.53 1282.44C2540.74 1281.55 2540.93 1280.57 2541.1 1279.48 2541.26 1278.4 2541.34 1277.46 2541.34 1276.65 2541.34 1275.84 2541.19 1275.22 2540.89 1274.8 2540.6 1274.39 2540.17 1274.08 2539.62 1273.89 2539.06 1273.7 2538.07 1273.57 2536.64 1273.49L2537.12 1271.38Z" fill-rule="evenodd"/><text fill="#000000" fill-opacity="0" font-family="Arial,Arial_MSFontService,sans-serif" font-size="58.6025" x="2508.67" y="1322.29">𝑑</text><path d="M2771.79 1266.65 2789.86 1266.65 2789.86 1343.93 2771.79 1343.93 2771.79 1340.81 2783.14 1340.81 2783.14 1269.77 2771.79 1269.77ZM2563.82 1266.65 2581.9 1266.65 2581.9 1269.77 2570.55 1269.77 2570.55 1340.81 2581.9 1340.81 2581.9 1343.93 2563.82 1343.93Z" fill-rule="evenodd"/><path d="M2604.37 1289.86 2606.68 1289.86 2598.25 1329.66C2597.39 1333.76 2596.21 1337.07 2594.72 1339.57 2593.24 1342.07 2591.31 1343.94 2588.93 1345.2 2586.55 1346.46 2583.71 1347.08 2580.42 1347.08 2579.07 1347.08 2577.92 1346.95 2576.97 1346.68L2577.91 1343.11C2578.47 1343.33 2579.5 1343.44 2580.99 1343.44 2582.28 1343.44 2583.38 1343.24 2584.29 1342.85 2585.19 1342.46 2586.04 1341.81 2586.82 1340.9 2587.61 1340 2588.33 1338.74 2588.99 1337.11 2589.65 1335.49 2590.27 1333.4 2590.83 1330.83L2597.4 1301.65C2598.02 1298.9 2598.33 1296.87 2598.33 1295.57 2598.33 1294.36 2598.04 1293.53 2597.46 1293.1 2596.88 1292.67 2595.74 1292.43 2594.04 1292.37L2594.48 1290.22ZM2603.28 1274.34 2610.45 1274.34 2608.59 1282.2 2601.41 1282.2Z" fill-rule="evenodd"/><text fill="#000000" fill-opacity="0" font-family="Arial,Arial_MSFontService,sans-serif" font-size="72.7466" x="2576.97" y="1337.99">𝑗</text><path d="M2693.72 1280.09 2693.72 1286.17 2649.71 1305.26 2693.72 1324.35 2693.72 1330.43 2643.63 1308.1 2643.63 1302.42Z" fill-rule="evenodd"/><text fill="#000000" fill-opacity="0" font-family="Arial,Arial_MSFontService,sans-serif" font-size="50.335" x="2643.63" y="1324.14">&lt;</text><path d="M2743.49 1271.01 2745.84 1271.01 2737.9 1306.4 2739.2 1306.4C2741.22 1306.4 2743.5 1305.51 2746.03 1303.74 2748.55 1301.97 2750.57 1300.33 2752.09 1298.82 2753.6 1297.3 2754.36 1295.84 2754.36 1294.44 2754.36 1293.12 2753.44 1292.37 2751.6 1292.21L2752.05 1290.22 2765.18 1290.22 2765.95 1292.21C2763.7 1294.24 2761.33 1296.22 2758.81 1298.17L2748.76 1305.95 2752.73 1320.58C2753.06 1321.82 2753.35 1322.72 2753.61 1323.27 2753.86 1323.83 2754.16 1324.24 2754.5 1324.51 2754.83 1324.78 2755.29 1324.92 2755.85 1324.92 2756.56 1324.92 2757.39 1324.54 2758.37 1323.78 2759.34 1323.02 2760.45 1321.93 2761.69 1320.5L2764 1322.77C2761.57 1325.33 2759.56 1327.12 2757.96 1328.12 2756.37 1329.12 2754.83 1329.62 2753.34 1329.62 2751.5 1329.62 2750.05 1329.1 2748.97 1328.06 2747.88 1327.02 2747.03 1325.28 2746.41 1322.85L2743.74 1312.31C2743.47 1311.26 2743.2 1310.53 2742.93 1310.12 2742.66 1309.72 2742.35 1309.45 2741.99 1309.31 2741.64 1309.18 2741.02 1309.11 2740.13 1309.11L2737.33 1309.11 2733.12 1328.97 2726.11 1328.97 2736.52 1282.65C2736.87 1281.08 2737.12 1279.86 2737.27 1278.98 2737.42 1278.1 2737.5 1277.32 2737.5 1276.65 2737.5 1275.51 2737.15 1274.72 2736.46 1274.26 2735.77 1273.8 2734.54 1273.54 2732.75 1273.49L2733.24 1271.38Z" fill-rule="evenodd"/><text fill="#000000" fill-opacity="0" font-family="Arial,Arial_MSFontService,sans-serif" font-size="58.6025" x="2726.11" y="1322.29">𝑘</text><path d="M2813.51 1302.71 2813.51 1325.4 2830.37 1325.4 2830.37 1302.71ZM2844.64 1293.3C2849.82 1297.2 2852.85 1300.06 2853.71 1301.9 2854.58 1303.73 2855.01 1305.08 2855.01 1305.95 2855.01 1307.46 2854.58 1308.76 2853.71 1309.84 2852.85 1310.92 2852.2 1311.46 2851.77 1311.46 2850.9 1311.46 2850.26 1309.95 2849.82 1306.92 2848.96 1302.6 2847.01 1298.38 2843.99 1294.28ZM2813.51 1280.01 2813.51 1300.76 2830.37 1300.76 2830.37 1280.01ZM2850.47 1261.53 2857.6 1265.75C2855.88 1266.83 2853.17 1271.26 2849.5 1279.04L2867.01 1279.04 2870.57 1275.47 2875.44 1280.34 2872.52 1282.61C2872.09 1307.89 2871.49 1322.21 2870.74 1325.56 2869.98 1328.91 2868.9 1331.24 2867.49 1332.54 2866.09 1333.83 2863.87 1335.02 2860.85 1336.1 2859.77 1332.64 2856.2 1330.05 2850.15 1328.32L2850.15 1326.7C2855.55 1327.78 2859.44 1328.32 2861.82 1328.32 2864.2 1328.32 2865.66 1326.48 2866.2 1322.81 2866.74 1319.13 2867.22 1305.19 2867.66 1280.98L2848.85 1280.98C2844.96 1287.25 2840.85 1292.55 2836.53 1296.87L2835.56 1296.22C2840.1 1289.31 2843.45 1283.15 2845.61 1277.74 2847.77 1272.34 2849.39 1266.94 2850.47 1261.53ZM2820.64 1261.21 2827.78 1265.1C2825.61 1266.18 2822.7 1270.5 2819.02 1278.07L2829.72 1278.07 2832.96 1274.82 2837.83 1279.69 2834.58 1281.96C2834.58 1307.25 2834.69 1323.78 2834.91 1331.56L2830.37 1334.16 2830.37 1327.35 2813.51 1327.35 2813.51 1332.86 2808.97 1335.45C2809.19 1325.29 2809.3 1315.19 2809.3 1305.14 2809.3 1295.09 2809.19 1285.09 2808.97 1275.15L2813.83 1278.07 2817.08 1278.07C2819.24 1270.72 2820.43 1265.1 2820.64 1261.21Z" fill-rule="evenodd"/><text fill="#000000" fill-opacity="0" font-family="Arial,Arial_MSFontService,sans-serif" font-size="74.8945" x="2808.97" y="1326.74">的</text><text font-family="DengXian,DengXian_MSFontService,sans-serif" font-weight="400" font-size="83" transform="matrix(1 0 0 1 2881.42 1329)">最优解</text><path d="M2585.03 743.453C2582.28 743.453 2579.81 744.568 2577.62 746.797 2575.43 749.026 2573.71 752.032 2572.45 755.814 2571.19 759.597 2570.57 763.366 2570.57 767.121 2570.57 769.931 2570.95 772.032 2571.72 773.423 2572.49 774.815 2573.78 775.51 2575.59 775.51 2576.43 775.51 2577.28 775.328 2578.14 774.963 2579.01 774.599 2579.91 774.011 2580.84 773.2 2581.77 772.39 2582.69 771.404 2583.59 770.242 2584.5 769.08 2585.33 767.911 2586.09 766.736 2586.84 765.561 2587.55 764.169 2588.19 762.562 2588.84 760.954 2589.4 759.016 2589.86 756.746L2590.22 755.004C2590.63 753.058 2590.83 751.221 2590.83 749.492 2590.83 747.384 2590.38 745.851 2589.49 744.892 2588.6 743.933 2587.11 743.453 2585.03 743.453ZM2602.01 721.731 2604.41 721.731 2594.31 766.594C2593.72 769.242 2593.42 771.242 2593.42 772.592 2593.42 773.673 2593.6 774.457 2593.95 774.943 2594.3 775.429 2594.85 775.672 2595.61 775.672 2596.42 775.672 2597.29 775.341 2598.2 774.68 2599.12 774.018 2600.42 772.755 2602.1 770.89L2604.41 773.16C2601.92 775.781 2599.83 777.631 2598.12 778.712 2596.42 779.793 2594.58 780.333 2592.61 780.333 2590.94 780.333 2589.6 779.779 2588.6 778.672 2587.6 777.564 2587.1 776.091 2587.1 774.254 2587.1 772.768 2587.41 771.187 2588.03 769.512L2587.51 769.35C2584.91 773.133 2582.45 775.902 2580.13 777.658 2577.81 779.414 2575.35 780.293 2572.75 780.293 2569.78 780.293 2567.48 779.171 2565.84 776.929 2564.21 774.686 2563.39 771.539 2563.39 767.486 2563.39 762.839 2564.3 758.374 2566.13 754.092 2567.95 749.809 2570.46 746.432 2573.65 743.96 2576.83 741.488 2580.39 740.252 2584.3 740.252 2585.95 740.252 2587.47 740.42 2588.86 740.758 2590.25 741.096 2591.68 741.684 2593.14 742.521L2595.25 733.159C2595.46 732.268 2595.65 731.282 2595.81 730.201 2595.98 729.12 2596.06 728.174 2596.06 727.364 2596.06 726.553 2595.91 725.939 2595.61 725.52 2595.31 725.101 2594.89 724.797 2594.33 724.608 2593.78 724.419 2592.79 724.284 2591.36 724.203L2591.84 722.095Z" fill-rule="evenodd"/><text fill="#000000" fill-opacity="0" font-family="Arial,Arial_MSFontService,sans-serif" font-size="58.6025" x="2563.39" y="773.008">𝑑</text><path d="M2693.84 717.571C2701.73 719.651 2707.79 724.143 2712.02 731.046 2716.24 737.949 2718.36 746.277 2718.36 756.031 2718.36 765.812 2716.25 774.14 2712.04 781.016 2707.82 787.892 2701.76 792.371 2693.84 794.451L2692.87 791.33C2699.11 789.25 2703.75 785.143 2706.79 779.01 2709.83 772.877 2711.35 765.082 2711.35 755.626 2711.35 746.494 2709.83 738.908 2706.81 732.87 2703.78 726.831 2699.09 722.772 2692.75 720.691ZM2641.12 717.571 2642.21 720.691C2635.89 722.772 2631.21 726.831 2628.17 732.87 2625.13 738.908 2623.61 746.494 2623.61 755.626 2623.61 765.082 2625.13 772.877 2628.17 779.01 2631.21 785.143 2635.85 789.25 2642.09 791.33L2641.12 794.451C2633.2 792.371 2627.13 787.892 2622.92 781.016 2618.7 774.14 2616.6 765.812 2616.6 756.031 2616.6 746.277 2618.71 737.949 2622.94 731.046 2627.17 724.143 2633.23 719.651 2641.12 717.571Z" fill-rule="evenodd"/><path d="M2664.65 721.731 2667 721.731 2659.06 757.111 2660.36 757.111C2662.38 757.111 2664.66 756.226 2667.19 754.456 2669.71 752.687 2671.73 751.045 2673.25 749.532 2674.76 748.019 2675.51 746.56 2675.51 745.155 2675.51 743.831 2674.6 743.089 2672.76 742.926L2673.2 740.941 2686.34 740.941 2687.11 742.926C2684.86 744.953 2682.49 746.939 2679.97 748.884L2669.92 756.665 2673.89 771.296C2674.22 772.538 2674.51 773.437 2674.76 773.991 2675.02 774.544 2675.32 774.956 2675.66 775.227 2675.99 775.497 2676.45 775.632 2677.01 775.632 2677.72 775.632 2678.55 775.254 2679.53 774.497 2680.5 773.741 2681.61 772.646 2682.85 771.214L2685.16 773.484C2682.73 776.051 2680.72 777.834 2679.12 778.834 2677.53 779.833 2675.99 780.333 2674.5 780.333 2672.66 780.333 2671.21 779.813 2670.12 778.773 2669.04 777.733 2668.19 775.997 2667.57 773.565L2664.9 763.028C2664.63 761.974 2664.36 761.245 2664.09 760.839 2663.82 760.434 2663.51 760.164 2663.15 760.029 2662.8 759.894 2662.18 759.826 2661.29 759.826L2658.49 759.826 2654.28 779.685 2647.27 779.685 2657.68 733.362C2658.03 731.795 2658.28 730.572 2658.43 729.694 2658.58 728.816 2658.66 728.039 2658.66 727.364 2658.66 726.229 2658.31 725.432 2657.62 724.973 2656.93 724.513 2655.7 724.257 2653.91 724.203L2654.4 722.095Z" fill-rule="evenodd"/><text fill="#000000" fill-opacity="0" font-family="Arial,Arial_MSFontService,sans-serif" font-size="58.6025" x="2647.27" y="773.008">𝑘</text><path d="M2754.4 761.691 2804.33 761.691 2804.33 767.081 2754.4 767.081ZM2754.4 744.872 2804.33 744.872 2804.33 750.262 2754.4 750.262Z" fill-rule="evenodd"/><text fill="#000000" fill-opacity="0" font-family="Arial,Arial_MSFontService,sans-serif" font-size="22.209" x="2754.4" y="764.305">=</text><path d="M2928.82 761.204C2923.33 761.258 2919.23 761.988 2916.5 763.393 2913.77 764.798 2912.4 766.919 2912.4 769.755 2912.4 771.296 2912.72 772.511 2913.34 773.403 2913.96 774.295 2914.74 774.909 2915.69 775.247 2916.63 775.585 2917.75 775.754 2919.05 775.754 2920.89 775.754 2922.56 775.308 2924.06 774.416 2925.56 773.525 2926.72 772.39 2927.56 771.012 2928.4 769.634 2928.82 768.269 2928.82 766.919ZM2943.85 740.941 2959.74 740.941 2959.74 742.926C2957.61 743.251 2956.54 744.088 2956.54 745.439 2956.54 746.06 2956.68 746.682 2956.96 747.303 2957.25 747.925 2957.69 748.614 2958.28 749.37L2963.23 756.3 2968.49 749.613C2969.06 748.884 2969.52 748.175 2969.87 747.486 2970.22 746.797 2970.4 746.088 2970.4 745.358 2970.4 744.737 2970.17 744.223 2969.71 743.818 2969.25 743.413 2968.53 743.116 2967.56 742.926L2967.56 740.941 2980.81 740.941 2980.81 742.926C2979.79 743.224 2978.74 743.805 2977.67 744.669 2976.61 745.534 2975.3 746.925 2973.76 748.843L2965.37 759.137 2974.61 771.579C2975.94 773.362 2977.13 774.727 2978.18 775.672 2979.23 776.618 2980.29 777.294 2981.34 777.699L2981.34 779.685 2965.05 779.685 2965.05 777.699C2967.29 777.429 2968.41 776.591 2968.41 775.186 2968.41 774.619 2968.32 774.078 2968.13 773.565 2967.94 773.052 2967.59 772.457 2967.08 771.782L2961.2 763.595 2954.96 771.701C2954.5 772.295 2954.14 772.842 2953.88 773.342 2953.63 773.842 2953.5 774.403 2953.5 775.024 2953.5 775.754 2953.75 776.355 2954.25 776.828 2954.75 777.3 2955.54 777.591 2956.62 777.699L2956.62 779.685 2943.08 779.685 2943.08 777.699C2943.97 777.375 2944.78 776.969 2945.49 776.483 2946.21 775.997 2946.94 775.369 2947.68 774.599 2948.43 773.828 2949.41 772.701 2950.62 771.214L2959.05 760.758 2950.42 748.924C2949.23 747.303 2948.28 746.128 2947.58 745.399 2946.88 744.669 2946.23 744.115 2945.64 743.737 2945.04 743.359 2944.45 743.089 2943.85 742.926ZM2860.95 740.292C2863.65 740.292 2865.86 740.914 2867.56 742.156 2869.26 743.399 2870.44 745.304 2871.08 747.871 2873.11 745.817 2874.75 744.304 2876.01 743.332 2877.27 742.359 2878.55 741.609 2879.86 741.082 2881.17 740.556 2882.58 740.292 2884.09 740.292 2885.9 740.292 2887.46 740.556 2888.77 741.082 2890.09 741.609 2891.19 742.42 2892.1 743.514 2893 744.608 2893.67 745.979 2894.08 747.628 2894.5 749.276 2894.71 751.491 2894.71 754.274L2894.71 769.553C2894.71 771.606 2894.78 773.025 2894.91 773.808 2895.05 774.592 2895.25 775.2 2895.5 775.632 2895.76 776.064 2896.14 776.436 2896.66 776.746 2897.17 777.057 2898.04 777.375 2899.25 777.699L2899.25 779.685 2883.32 779.685 2883.32 777.699C2884.38 777.375 2885.13 777.091 2885.59 776.848 2886.05 776.605 2886.44 776.267 2886.75 775.835 2887.06 775.402 2887.3 774.734 2887.48 773.828 2887.65 772.923 2887.74 771.552 2887.74 769.715L2887.74 759.097C2887.74 756.8 2887.68 754.902 2887.56 753.403 2887.44 751.903 2887.25 750.708 2886.99 749.816 2886.74 748.924 2886.42 748.222 2886.06 747.709 2885.69 747.195 2885.28 746.749 2884.82 746.371 2884.36 745.993 2883.82 745.696 2883.2 745.48 2882.58 745.263 2881.76 745.155 2880.73 745.155 2879.65 745.155 2878.64 745.372 2877.71 745.804 2876.78 746.236 2875.77 746.966 2874.67 747.992 2873.58 749.019 2872.79 750.052 2872.3 751.093 2871.81 752.133 2871.57 753.355 2871.57 754.76L2871.57 769.553C2871.57 771.606 2871.64 773.025 2871.77 773.808 2871.91 774.592 2872.1 775.2 2872.36 775.632 2872.62 776.064 2873 776.436 2873.52 776.746 2874.03 777.057 2874.89 777.375 2876.11 777.699L2876.11 779.685 2860.18 779.685 2860.18 777.699C2861.24 777.375 2861.99 777.091 2862.45 776.848 2862.91 776.605 2863.3 776.267 2863.61 775.835 2863.92 775.402 2864.16 774.734 2864.34 773.828 2864.51 772.923 2864.6 771.552 2864.6 769.715L2864.6 759.097C2864.6 756.692 2864.53 754.733 2864.4 753.22 2864.26 751.707 2864.05 750.492 2863.77 749.573 2863.49 748.654 2863.12 747.911 2862.68 747.344 2862.23 746.776 2861.78 746.344 2861.32 746.047 2860.86 745.75 2860.32 745.527 2859.7 745.378 2859.08 745.23 2858.37 745.155 2857.59 745.155 2856.48 745.155 2855.44 745.405 2854.47 745.905 2853.5 746.405 2852.5 747.128 2851.49 748.073 2850.48 749.019 2849.71 750.005 2849.2 751.032 2848.69 752.059 2848.43 753.166 2848.43 754.355L2848.43 769.553C2848.43 771.093 2848.47 772.268 2848.55 773.079 2848.63 773.889 2848.76 774.524 2848.94 774.984 2849.11 775.443 2849.33 775.814 2849.61 776.098 2849.88 776.382 2850.26 776.652 2850.76 776.909 2851.26 777.165 2852.01 777.429 2853.01 777.699L2853.01 779.685 2837.12 779.685 2837.12 777.699C2838.15 777.375 2838.89 777.091 2839.33 776.848 2839.78 776.605 2840.16 776.267 2840.49 775.835 2840.81 775.402 2841.05 774.74 2841.22 773.849 2841.38 772.957 2841.46 771.566 2841.46 769.674L2841.46 752.005C2841.46 750.275 2841.43 748.884 2841.38 747.83 2841.32 746.776 2841.14 745.932 2840.81 745.297 2840.49 744.662 2839.99 744.19 2839.33 743.879 2838.67 743.568 2837.73 743.305 2836.51 743.089L2836.51 740.941 2846 740.576 2848.47 740.576 2848.02 747.182 2848.59 747.344C2850.21 745.723 2851.54 744.5 2852.58 743.676 2853.62 742.852 2854.63 742.19 2855.6 741.69 2856.58 741.19 2857.49 740.832 2858.34 740.616 2859.19 740.4 2860.06 740.292 2860.95 740.292ZM2924.44 740.252C2927.12 740.252 2929.26 740.677 2930.89 741.528 2932.51 742.379 2933.72 743.683 2934.53 745.439 2935.34 747.195 2935.75 749.843 2935.75 753.382L2935.75 767.486C2935.75 769.485 2935.76 770.897 2935.79 771.721 2935.82 772.545 2935.9 773.308 2936.03 774.011 2936.17 774.713 2936.37 775.274 2936.64 775.693 2936.91 776.112 2937.31 776.47 2937.84 776.767 2938.36 777.064 2939.22 777.375 2940.41 777.699L2940.41 779.685 2929.3 779.685 2929.51 773.889 2928.9 773.727C2926.55 776.132 2924.34 777.834 2922.27 778.834 2920.21 779.833 2918.01 780.333 2915.69 780.333 2913.63 780.333 2911.82 779.935 2910.26 779.138 2908.69 778.341 2907.49 777.219 2906.65 775.774 2905.81 774.328 2905.39 772.66 2905.39 770.769 2905.39 766.824 2907.35 763.778 2911.25 761.63 2915.15 759.482 2921.01 758.232 2928.82 757.881L2928.82 755.247C2928.82 752.437 2928.55 750.221 2928.01 748.6 2927.47 746.979 2926.62 745.79 2925.45 745.034 2924.29 744.277 2922.74 743.899 2920.79 743.899 2918.69 743.899 2916.99 744.453 2915.71 745.561 2914.42 746.668 2913.46 748.33 2912.81 750.546L2907.5 750.546 2907.5 745.277C2910.09 743.926 2912.26 742.933 2913.99 742.298 2915.71 741.663 2917.44 741.163 2919.17 740.799 2920.9 740.434 2922.66 740.252 2924.44 740.252Z" fill-rule="evenodd"/><text fill="#000000" fill-opacity="0" font-family="Arial,Arial_MSFontService,sans-serif" font-size="40.0815" x="2836.51" y="775.323">max</text><path d="M3739.16 706.087 3740.22 706.087C3746.57 706.222 3751.32 708.086 3754.46 711.68 3757.61 715.273 3759.18 720.974 3759.18 728.782 3759.18 731.673 3758.87 734.956 3758.23 738.63 3757.6 742.305 3757.28 744.764 3757.28 746.006 3757.28 748.411 3757.92 750.363 3759.2 751.863 3760.49 753.362 3762.43 754.166 3765.02 754.274L3765.02 757.597C3762.43 757.705 3760.49 758.502 3759.2 759.988 3757.92 761.474 3757.28 763.406 3757.28 765.784 3757.28 767.027 3757.6 769.465 3758.23 773.099 3758.87 776.733 3759.18 779.982 3759.18 782.846 3759.18 790.951 3757.61 796.78 3754.46 800.333 3751.32 803.886 3746.57 805.73 3740.22 805.865L3739.16 805.865 3739.16 802.785 3739.77 802.785C3743.69 802.785 3746.76 801.475 3748.97 798.854 3751.19 796.233 3752.29 791.411 3752.29 784.386 3752.29 781.981 3752.02 778.989 3751.48 775.409 3750.94 771.829 3750.67 769.269 3750.67 767.729 3750.67 764.784 3751.35 762.366 3752.7 760.475 3754.05 758.583 3755.66 757.192 3757.52 756.3L3757.52 755.571C3755.66 754.652 3754.05 753.241 3752.7 751.336 3751.35 749.431 3750.67 746.993 3750.67 744.021 3750.67 742.454 3750.94 739.867 3751.48 736.26 3752.02 732.653 3752.29 729.62 3752.29 727.161 3752.29 720.461 3751.19 715.787 3748.97 713.139 3746.76 710.491 3743.69 709.167 3739.77 709.167L3739.16 709.167ZM3010.76 706.087 3011.82 706.087 3011.82 709.167 3011.21 709.167C3007.29 709.167 3004.22 710.491 3002.01 713.139 2999.79 715.787 2998.69 720.461 2998.69 727.161 2998.69 729.62 2998.96 732.653 2999.5 736.26 3000.04 739.867 3000.31 742.454 3000.31 744.021 3000.31 746.993 2999.63 749.431 2998.28 751.336 2996.93 753.241 2995.32 754.652 2993.46 755.571L2993.46 756.3C2995.32 757.192 2996.93 758.583 2998.28 760.475 2999.63 762.366 3000.31 764.784 3000.31 767.729 3000.31 769.269 3000.04 771.829 2999.5 775.409 2998.96 778.989 2998.69 781.981 2998.69 784.386 2998.69 791.411 2999.79 796.233 3002.01 798.854 3004.22 801.475 3007.29 802.785 3011.21 802.785L3011.82 802.785 3011.82 805.865 3010.76 805.865C3004.41 805.73 2999.66 803.886 2996.52 800.333 2993.37 796.78 2991.8 790.951 2991.8 782.846 2991.8 779.982 2992.11 776.733 2992.75 773.099 2993.38 769.465 2993.7 767.027 2993.7 765.784 2993.7 763.406 2993.06 761.474 2991.78 759.988 2990.49 758.502 2988.55 757.705 2985.96 757.597L2985.96 754.274C2988.55 754.166 2990.49 753.362 2991.78 751.863 2993.06 750.363 2993.7 748.411 2993.7 746.006 2993.7 744.764 2993.38 742.305 2992.75 738.63 2992.11 734.956 2991.8 731.673 2991.8 728.782 2991.8 720.974 2993.37 715.273 2996.52 711.68 2999.66 708.086 3004.41 706.222 3010.76 706.087ZM3173.92 705.867 3180.16 705.867 3180.16 806.131 3173.92 806.131Z" fill-rule="evenodd"/><path d="M3039.95 743.453C3037.2 743.453 3034.72 744.568 3032.54 746.797 3030.35 749.026 3028.62 752.032 3027.37 755.814 3026.11 759.597 3025.48 763.366 3025.48 767.121 3025.48 769.931 3025.87 772.032 3026.64 773.423 3027.41 774.815 3028.7 775.51 3030.51 775.51 3031.35 775.51 3032.2 775.328 3033.06 774.963 3033.93 774.599 3034.83 774.011 3035.76 773.2 3036.69 772.39 3037.61 771.404 3038.51 770.242 3039.42 769.08 3040.25 767.911 3041.01 766.736 3041.76 765.561 3042.46 764.169 3043.11 762.562 3043.76 760.954 3044.32 759.016 3044.77 756.746L3045.14 755.004C3045.54 753.058 3045.75 751.221 3045.75 749.492 3045.75 747.384 3045.3 745.851 3044.41 744.892 3043.52 743.933 3042.03 743.453 3039.95 743.453ZM3056.93 721.731 3059.32 721.731 3049.23 766.594C3048.64 769.242 3048.34 771.242 3048.34 772.592 3048.34 773.673 3048.52 774.457 3048.87 774.943 3049.22 775.429 3049.77 775.672 3050.53 775.672 3051.34 775.672 3052.2 775.341 3053.12 774.68 3054.04 774.018 3055.34 772.755 3057.01 770.89L3059.32 773.16C3056.84 775.781 3054.74 777.631 3053.04 778.712 3051.34 779.793 3049.5 780.333 3047.53 780.333 3045.86 780.333 3044.52 779.779 3043.52 778.672 3042.52 777.564 3042.02 776.091 3042.02 774.254 3042.02 772.768 3042.33 771.187 3042.95 769.512L3042.42 769.35C3039.83 773.133 3037.37 775.902 3035.05 777.658 3032.72 779.414 3030.27 780.293 3027.67 780.293 3024.7 780.293 3022.4 779.171 3020.76 776.929 3019.13 774.686 3018.31 771.539 3018.31 767.486 3018.31 762.839 3019.22 758.374 3021.05 754.092 3022.87 749.809 3025.38 746.432 3028.56 743.96 3031.75 741.488 3035.3 740.252 3039.22 740.252 3040.87 740.252 3042.39 740.42 3043.78 740.758 3045.17 741.096 3046.6 741.684 3048.06 742.521L3050.17 733.159C3050.38 732.268 3050.57 731.282 3050.73 730.201 3050.89 729.12 3050.98 728.174 3050.98 727.364 3050.98 726.553 3050.83 725.939 3050.53 725.52 3050.23 725.101 3049.81 724.797 3049.25 724.608 3048.7 724.419 3047.71 724.284 3046.27 724.203L3046.76 722.095Z" fill-rule="evenodd"/><text fill="#000000" fill-opacity="0" font-family="Arial,Arial_MSFontService,sans-serif" font-size="58.6025" x="3018.31" y="773.008">𝑑</text><path d="M3132.3 717.571C3140.19 719.651 3146.25 724.143 3150.48 731.046 3154.71 737.949 3156.82 746.277 3156.82 756.031 3156.82 765.812 3154.72 774.14 3150.5 781.016 3146.29 787.892 3140.22 792.371 3132.3 794.451L3131.33 791.33C3137.57 789.25 3142.21 785.143 3145.25 779.01 3148.29 772.877 3149.81 765.082 3149.81 755.626 3149.81 746.494 3148.3 738.908 3145.27 732.87 3142.25 726.831 3137.56 722.772 3131.21 720.691ZM3096.03 717.571 3097.13 720.691C3090.81 722.772 3086.12 726.831 3083.09 732.87 3080.05 738.908 3078.53 746.494 3078.53 755.626 3078.53 765.082 3080.05 772.877 3083.09 779.01 3086.12 785.143 3090.77 789.25 3097.01 791.33L3096.03 794.451C3088.12 792.371 3082.05 787.892 3077.84 781.016 3073.62 774.14 3071.51 765.812 3071.51 756.031 3071.51 746.277 3073.63 737.949 3077.86 731.046 3082.09 724.143 3088.14 719.651 3096.03 717.571Z" fill-rule="evenodd"/><path d="M3119.37 740.576 3121.68 740.576 3113.25 780.374C3112.39 784.48 3111.21 787.783 3109.72 790.283 3108.24 792.782 3106.31 794.66 3103.93 795.916 3101.55 797.172 3098.71 797.8 3095.42 797.8 3094.07 797.8 3092.92 797.665 3091.97 797.395L3092.91 793.829C3093.47 794.045 3094.5 794.153 3095.99 794.153 3097.28 794.153 3098.38 793.957 3099.29 793.565 3100.19 793.174 3101.04 792.525 3101.82 791.62 3102.6 790.715 3103.33 789.452 3103.99 787.831 3104.65 786.21 3105.27 784.116 3105.83 781.549L3112.4 752.369C3113.02 749.613 3113.33 747.587 3113.33 746.29 3113.33 745.074 3113.04 744.25 3112.46 743.818 3111.88 743.386 3110.74 743.143 3109.03 743.089L3109.48 740.941ZM3118.28 725.054 3125.45 725.054 3123.58 732.916 3116.41 732.916Z" fill-rule="evenodd"/><text fill="#000000" fill-opacity="0" font-family="Arial,Arial_MSFontService,sans-serif" font-size="72.7466" x="3091.97" y="788.707">𝑗</text><path d="M3210.92 740.576 3213.23 740.576 3204.8 780.374C3203.94 784.48 3202.76 787.783 3201.28 790.283 3199.79 792.782 3197.86 794.66 3195.48 795.916 3193.1 797.172 3190.27 797.8 3186.97 797.8 3185.62 797.8 3184.47 797.665 3183.53 797.395L3184.46 793.829C3185.02 794.045 3186.05 794.153 3187.54 794.153 3188.83 794.153 3189.94 793.957 3190.84 793.565 3191.75 793.174 3192.59 792.525 3193.37 791.62 3194.16 790.715 3194.88 789.452 3195.54 787.831 3196.2 786.21 3196.82 784.116 3197.39 781.549L3203.95 752.369C3204.57 749.613 3204.88 747.587 3204.88 746.29 3204.88 745.074 3204.59 744.25 3204.01 743.818 3203.43 743.386 3202.29 743.143 3200.59 743.089L3201.03 740.941ZM3209.83 725.054 3217 725.054 3215.14 732.916 3207.96 732.916Z" fill-rule="evenodd"/><text fill="#000000" fill-opacity="0" font-family="Arial,Arial_MSFontService,sans-serif" font-size="72.7466" x="3183.53" y="788.707">𝑗</text><path d="M3300.27 730.809 3300.27 736.888 3256.26 755.976 3300.27 775.065 3300.27 781.144 3250.18 758.813 3250.18 753.139Z" fill-rule="evenodd"/><text fill="#000000" fill-opacity="0" font-family="Arial,Arial_MSFontService,sans-serif" font-size="50.335" x="3250.18" y="774.852">&lt;</text><path d="M3350.04 721.731 3352.4 721.731 3344.45 757.111 3345.75 757.111C3347.78 757.111 3350.05 756.226 3352.58 754.456 3355.1 752.687 3357.12 751.045 3358.64 749.532 3360.15 748.019 3360.91 746.56 3360.91 745.155 3360.91 743.831 3359.99 743.089 3358.15 742.926L3358.6 740.941 3371.73 740.941 3372.5 742.926C3370.25 744.953 3367.88 746.939 3365.36 748.884L3355.31 756.665 3359.29 771.296C3359.61 772.538 3359.9 773.437 3360.16 773.991 3360.41 774.544 3360.71 774.956 3361.05 775.227 3361.39 775.497 3361.84 775.632 3362.41 775.632 3363.11 775.632 3363.95 775.254 3364.92 774.497 3365.89 773.741 3367 772.646 3368.24 771.214L3370.55 773.484C3368.12 776.051 3366.11 777.834 3364.51 778.834 3362.92 779.833 3361.38 780.333 3359.89 780.333 3358.06 780.333 3356.6 779.813 3355.52 778.773 3354.44 777.733 3353.58 775.997 3352.96 773.565L3350.29 763.028C3350.02 761.974 3349.75 761.245 3349.48 760.839 3349.21 760.434 3348.9 760.164 3348.55 760.029 3348.19 759.894 3347.57 759.826 3346.68 759.826L3343.88 759.826 3339.67 779.685 3332.66 779.685 3343.07 733.362C3343.43 731.795 3343.68 730.572 3343.82 729.694 3343.97 728.816 3344.05 728.039 3344.05 727.364 3344.05 726.229 3343.7 725.432 3343.01 724.973 3342.32 724.513 3341.09 724.257 3339.31 724.203L3339.79 722.095Z" fill-rule="evenodd"/><text fill="#000000" fill-opacity="0" font-family="Arial,Arial_MSFontService,sans-serif" font-size="58.6025" x="3332.66" y="773.008">𝑘</text><path d="M3401.43 760.88 3401.43 780.657 3430.6 780.657 3430.6 760.88ZM3401.43 740.454 3401.43 758.935 3430.6 758.935 3430.6 740.454ZM3401.43 720.028 3401.43 738.509 3430.6 738.509 3430.6 720.028ZM3432.23 714.517 3438.06 718.732 3435.47 721.001 3435.47 780.657 3440.33 780.657 3445.84 775.146 3453.3 782.603 3388.13 782.603C3385.32 782.603 3382.73 782.927 3380.35 783.575L3377.43 780.657 3396.56 780.657 3396.56 727.161C3396.56 724.135 3396.45 720.028 3396.24 714.841L3401.43 718.083 3429.96 718.083Z" fill-rule="evenodd"/><text fill="#000000" fill-opacity="0" font-family="Arial,Arial_MSFontService,sans-serif" font-size="69.0586" x="3377.43" y="774.943">且</text><path d="M3490.61 732.268 3476.18 757.8 3492.03 757.8 3491.34 744.75C3491.26 742.967 3491.19 740.738 3491.14 738.063 3491.08 735.388 3491.06 733.456 3491.06 732.268ZM3490.86 723.716 3496.97 723.716 3499.89 768.904C3500.03 771.039 3500.27 772.707 3500.62 773.91 3500.97 775.112 3501.45 776.003 3502.06 776.584 3502.67 777.165 3503.55 777.537 3504.72 777.699L3504.27 779.685 3487.41 779.685 3487.86 777.699C3489.45 777.564 3490.64 776.942 3491.42 775.835 3492.21 774.727 3492.6 772.782 3492.6 769.999 3492.6 768.945 3492.56 767.797 3492.48 766.554L3492.19 761.326 3474.36 761.326 3472.13 765.297C3471.08 767.162 3470.31 768.763 3469.82 770.1 3469.34 771.437 3469.09 772.619 3469.09 773.646 3469.09 775.916 3470.46 777.267 3473.19 777.699L3472.74 779.685 3456.16 779.685 3456.61 777.699C3457.45 777.591 3458.24 777.26 3458.98 776.706 3459.72 776.152 3460.51 775.315 3461.35 774.193 3462.19 773.072 3463.36 771.214 3464.88 768.621Z" fill-rule="evenodd"/><text fill="#000000" fill-opacity="0" font-family="Arial,Arial_MSFontService,sans-serif" font-size="55.9683" x="3456.16" y="772.689">𝐴</text><path d="M3523.09 766.416 3525.14 766.416 3518.95 795.605C3518.45 797.869 3517.81 799.81 3517.03 801.428 3516.24 803.046 3515.28 804.372 3514.15 805.404 3513.02 806.437 3511.7 807.196 3510.19 807.683 3508.68 808.169 3506.95 808.413 3505.01 808.413 3504.49 808.413 3503.99 808.388 3503.52 808.338 3503.04 808.289 3502.61 808.214 3502.24 808.115L3502.98 804.987C3503.22 805.087 3503.54 805.151 3503.94 805.181 3504.33 805.211 3504.79 805.226 3505.31 805.226 3506.28 805.226 3507.15 805.097 3507.91 804.839 3508.68 804.58 3509.36 804.114 3509.97 803.439 3510.57 802.763 3511.12 801.835 3511.6 800.654 3512.09 799.472 3512.54 797.958 3512.96 796.111 3513.66 792.895 3514.32 789.876 3514.96 787.057 3515.59 784.237 3516.11 781.874 3516.52 779.968 3516.93 778.062 3517.25 776.543 3517.49 775.411 3517.73 774.279 3517.9 773.405 3518.01 772.79 3518.12 772.174 3518.18 771.737 3518.2 771.479 3518.22 771.221 3518.23 771.013 3518.23 770.854 3518.23 770.159 3517.97 769.647 3517.44 769.32 3516.92 768.992 3515.99 768.808 3514.66 768.769L3515.1 766.743ZM3521.98 754.412 3527.97 754.412 3526.51 760.816 3520.53 760.816Z" fill-rule="evenodd"/><text fill="#000000" fill-opacity="0" font-family="Arial,Arial_MSFontService,sans-serif" font-size="54.0005" x="3502.24" y="801.663">𝑗</text><path d="M3614.09 730.809 3614.09 736.888 3570.08 755.976 3614.09 775.065 3614.09 781.144 3564 758.813 3564 753.139Z" fill-rule="evenodd"/><text fill="#000000" fill-opacity="0" font-family="Arial,Arial_MSFontService,sans-serif" font-size="50.335" x="3564" y="774.852">&lt;</text><path d="M3676.67 732.268 3662.24 757.8 3678.09 757.8 3677.4 744.75C3677.32 742.967 3677.25 740.738 3677.2 738.063 3677.15 735.388 3677.12 733.456 3677.12 732.268ZM3676.92 723.716 3683.04 723.716 3685.95 768.904C3686.09 771.039 3686.33 772.707 3686.68 773.91 3687.03 775.112 3687.51 776.003 3688.12 776.584 3688.73 777.165 3689.61 777.537 3690.78 777.699L3690.33 779.685 3673.47 779.685 3673.92 777.699C3675.51 777.564 3676.7 776.942 3677.48 775.835 3678.27 774.727 3678.66 772.782 3678.66 769.999 3678.66 768.945 3678.62 767.797 3678.54 766.554L3678.25 761.326 3660.42 761.326 3658.19 765.297C3657.14 767.162 3656.37 768.763 3655.88 770.1 3655.4 771.437 3655.15 772.619 3655.15 773.646 3655.15 775.916 3656.52 777.267 3659.25 777.699L3658.8 779.685 3642.22 779.685 3642.67 777.699C3643.51 777.591 3644.3 777.26 3645.04 776.706 3645.78 776.152 3646.57 775.315 3647.41 774.193 3648.25 773.072 3649.42 771.214 3650.94 768.621Z" fill-rule="evenodd"/><text fill="#000000" fill-opacity="0" font-family="Arial,Arial_MSFontService,sans-serif" font-size="55.9683" x="3642.22" y="772.689">𝐴</text><path d="M3710.97 755.872 3713.11 755.872 3707.87 779.045 3708.71 779.045C3709.46 779.045 3710.28 778.886 3711.15 778.568 3712.02 778.25 3712.89 777.838 3713.76 777.332 3714.62 776.826 3715.45 776.255 3716.24 775.619 3717.04 774.984 3717.74 774.343 3718.34 773.698 3718.95 773.053 3719.43 772.442 3719.79 771.866 3720.14 771.29 3720.32 770.804 3720.32 770.407 3720.32 769.93 3720.16 769.543 3719.85 769.245 3719.53 768.947 3718.95 768.749 3718.12 768.65L3718.48 766.743 3729.2 766.743 3729.94 768.59C3728.69 769.662 3727.49 770.655 3726.34 771.568 3725.19 772.482 3724.06 773.361 3722.96 774.204 3721.86 775.048 3720.75 775.877 3719.65 776.692 3718.55 777.506 3717.42 778.35 3716.27 779.223 3716.75 780.732 3717.24 782.266 3717.73 783.825 3718.23 785.384 3718.72 786.928 3719.22 788.457 3719.46 789.271 3719.68 789.971 3719.89 790.557 3720.1 791.142 3720.32 791.619 3720.56 791.986 3720.8 792.354 3721.06 792.627 3721.34 792.805 3721.61 792.984 3721.95 793.073 3722.35 793.073 3722.63 793.073 3722.91 793.024 3723.21 792.924 3723.51 792.825 3723.84 792.646 3724.21 792.388 3724.58 792.13 3724.99 791.778 3725.46 791.331 3725.93 790.884 3726.46 790.323 3727.05 789.648L3729.08 791.584C3728.15 792.537 3727.28 793.361 3726.47 794.056 3725.67 794.751 3724.91 795.322 3724.18 795.769 3723.46 796.216 3722.76 796.543 3722.08 796.752 3721.41 796.96 3720.72 797.065 3720.03 797.065 3718.77 797.065 3717.77 796.752 3717 796.126 3716.24 795.501 3715.59 794.607 3715.05 793.446 3714.51 792.284 3714.02 790.879 3713.58 789.231 3713.13 787.583 3712.61 785.746 3712.01 783.721 3711.87 783.244 3711.74 782.862 3711.61 782.574 3711.48 782.286 3711.32 782.068 3711.12 781.919 3710.92 781.77 3710.67 781.676 3710.37 781.636 3710.08 781.596 3709.7 781.576 3709.24 781.576L3707.34 781.576 3704.06 796.528 3698.34 796.528 3705.55 764.539C3705.79 763.487 3705.96 762.658 3706.06 762.052 3706.16 761.446 3706.2 760.905 3706.2 760.429 3706.2 760.052 3706.14 759.724 3706.01 759.446 3705.88 759.168 3705.67 758.945 3705.37 758.776 3705.07 758.607 3704.68 758.483 3704.18 758.403 3703.68 758.324 3703.07 758.274 3702.33 758.255L3702.78 756.229Z" fill-rule="evenodd"/><text fill="#000000" fill-opacity="0" font-family="Arial,Arial_MSFontService,sans-serif" font-size="41.1929" x="3698.34" y="791.915">𝑘</text><path d="M3815.14 729.917 3820.89 729.917 3820.89 753.261 3842.98 753.261 3842.98 758.651 3820.89 758.651 3820.89 781.995 3815.14 781.995 3815.14 758.651 3793.05 758.651 3793.05 753.261 3815.14 753.261Z" fill-rule="evenodd"/><text fill="#000000" fill-opacity="0" font-family="Arial,Arial_MSFontService,sans-serif" font-size="52.0776" x="3793.05" y="775.485">+</text><path d="M3893.4 723.716 3895.63 723.716C3895.47 726.31 3895.39 729.904 3895.39 734.497L3895.39 769.107C3895.39 770.674 3895.47 771.856 3895.65 772.653 3895.83 773.45 3896.14 774.099 3896.58 774.599 3897.03 775.098 3897.67 775.49 3898.51 775.774 3899.34 776.057 3900.4 776.274 3901.67 776.422 3902.94 776.571 3904.61 776.672 3906.69 776.726L3906.69 779.685 3876.74 779.685 3876.74 776.726C3879.74 776.591 3881.88 776.409 3883.17 776.179 3884.45 775.949 3885.43 775.605 3886.11 775.146 3886.78 774.686 3887.27 774.038 3887.58 773.2 3887.9 772.363 3888.05 770.998 3888.05 769.107L3888.05 736.239C3888.05 735.159 3887.86 734.368 3887.48 733.869 3887.11 733.369 3886.55 733.119 3885.82 733.119 3884.96 733.119 3883.73 733.565 3882.13 734.456 3880.54 735.348 3878.57 736.577 3876.22 738.144L3874.43 735.024Z" fill-rule="evenodd"/><text fill="#000000" fill-opacity="0" font-family="Arial,Arial_MSFontService,sans-serif" font-size="55.9683" x="3874.43" y="772.689">1</text><text font-family="DengXian,DengXian_MSFontService,sans-serif" font-weight="400" font-size="83" transform="matrix(1 0 0 1 2441.18 887)">查看每一个</text><path d="M2874.6 847.563 2876.91 847.563 2868.48 887.361C2867.61 891.468 2866.44 894.771 2864.95 897.27 2863.46 899.769 2861.53 901.647 2859.16 902.903 2856.78 904.16 2853.94 904.788 2850.64 904.788 2849.29 904.788 2848.15 904.653 2847.2 904.383L2848.13 900.816C2848.7 901.032 2849.73 901.14 2851.21 901.14 2852.51 901.14 2853.61 900.945 2854.52 900.553 2855.42 900.161 2856.26 899.513 2857.05 898.607 2857.83 897.702 2858.55 896.439 2859.22 894.818 2859.88 893.197 2860.49 891.103 2861.06 888.536L2867.63 859.357C2868.25 856.601 2868.56 854.575 2868.56 853.278 2868.56 852.062 2868.27 851.238 2867.69 850.805 2867.11 850.373 2865.96 850.13 2864.26 850.076L2864.71 847.928ZM2873.5 832.041 2880.68 832.041 2878.81 839.904 2871.64 839.904Z" fill="#00B050" fill-rule="evenodd"/><text fill="#000000" fill-opacity="0" font-family="Arial,Arial_MSFontService,sans-serif" font-size="72.7466" x="2847.2" y="895.695">𝑗</text><path d="M2916.71 828.11 2917.81 831.231C2911.48 833.311 2906.8 837.371 2903.76 843.409 2900.72 849.448 2899.2 857.033 2899.2 866.165 2899.2 875.622 2900.72 883.417 2903.76 889.55 2906.8 895.683 2911.44 899.79 2917.68 901.87L2916.71 904.991C2908.79 902.91 2902.73 898.432 2898.51 891.556 2894.3 884.68 2892.19 876.351 2892.19 866.571 2892.19 856.817 2894.31 848.489 2898.53 841.586 2902.76 834.682 2908.82 830.191 2916.71 828.11Z" fill="#00B050" fill-rule="evenodd"/><text fill="#000000" fill-opacity="0" font-family="Arial,Arial_MSFontService,sans-serif" font-size="76.8804" x="2892.19" y="895.38">(</text><path d="M2940.18 847.563 2942.49 847.563 2934.06 887.361C2933.2 891.468 2932.02 894.771 2930.54 897.27 2929.05 899.769 2927.12 901.647 2924.74 902.903 2922.37 904.16 2919.53 904.788 2916.23 904.788 2914.88 904.788 2913.73 904.653 2912.79 904.383L2913.72 900.816C2914.29 901.032 2915.31 901.14 2916.8 901.14 2918.1 901.14 2919.2 900.945 2920.1 900.553 2921.01 900.161 2921.85 899.513 2922.64 898.607 2923.42 897.702 2924.14 896.439 2924.8 894.818 2925.47 893.197 2926.08 891.103 2926.65 888.536L2933.21 859.357C2933.83 856.601 2934.15 854.575 2934.15 853.278 2934.15 852.062 2933.85 851.238 2933.27 850.805 2932.69 850.373 2931.55 850.13 2929.85 850.076L2930.3 847.928ZM2939.09 832.041 2946.26 832.041 2944.4 839.904 2937.23 839.904Z" fill="#00B050" fill-rule="evenodd"/><text fill="#000000" fill-opacity="0" font-family="Arial,Arial_MSFontService,sans-serif" font-size="72.7466" x="2912.79" y="895.695">𝑗</text><path d="M3029.53 837.796 3029.53 843.875 2985.52 862.964 3029.53 882.052 3029.53 888.131 2979.44 865.801 2979.44 860.127Z" fill="#00B050" fill-rule="evenodd"/><text fill="#000000" fill-opacity="0" font-family="Arial,Arial_MSFontService,sans-serif" font-size="50.335" x="2979.44" y="881.839">&lt;</text><path d="M3079.31 828.718 3081.66 828.718 3073.71 864.098 3075.01 864.098C3077.04 864.098 3079.31 863.214 3081.84 861.444 3084.37 859.674 3086.39 858.033 3087.9 856.52 3089.41 855.007 3090.17 853.548 3090.17 852.143 3090.17 850.819 3089.25 850.076 3087.41 849.914L3087.86 847.928 3100.99 847.928 3101.76 849.914C3099.52 851.94 3097.14 853.926 3094.63 855.871L3084.58 863.653 3088.55 878.283C3088.87 879.526 3089.16 880.424 3089.42 880.978 3089.68 881.532 3089.97 881.944 3090.31 882.214 3090.65 882.484 3091.1 882.619 3091.67 882.619 3092.37 882.619 3093.21 882.241 3094.18 881.485 3095.15 880.728 3096.26 879.634 3097.5 878.202L3099.81 880.471C3097.38 883.038 3095.37 884.821 3093.78 885.821 3092.18 886.821 3090.64 887.321 3089.16 887.321 3087.32 887.321 3085.86 886.801 3084.78 885.76 3083.7 884.72 3082.85 882.984 3082.23 880.553L3079.55 870.015C3079.28 868.962 3079.01 868.232 3078.74 867.827 3078.47 867.422 3078.16 867.151 3077.81 867.016 3077.46 866.881 3076.84 866.814 3075.94 866.814L3073.15 866.814 3068.93 886.672 3061.92 886.672 3072.34 840.349C3072.69 838.782 3072.94 837.56 3073.09 836.682 3073.24 835.804 3073.31 835.027 3073.31 834.351 3073.31 833.217 3072.96 832.42 3072.28 831.96 3071.59 831.501 3070.35 831.244 3068.57 831.19L3069.05 829.083Z" fill="#00B050" fill-rule="evenodd"/><text fill="#000000" fill-opacity="0" font-family="Arial,Arial_MSFontService,sans-serif" font-size="58.6025" x="3061.92" y="879.995">𝑘</text><path d="M3108.49 828.11C3116.38 830.191 3122.44 834.682 3126.67 841.586 3130.9 848.489 3133.01 856.817 3133.01 866.571 3133.01 876.351 3130.91 884.68 3126.69 891.556 3122.48 898.432 3116.41 902.91 3108.49 904.991L3107.52 901.87C3113.76 899.79 3118.4 895.683 3121.44 889.55 3124.48 883.417 3126 875.622 3126 866.165 3126 857.033 3124.49 849.448 3121.46 843.409 3118.44 837.371 3113.75 833.311 3107.4 831.231Z" fill="#00B050" fill-rule="evenodd"/><text fill="#000000" fill-opacity="0" font-family="Arial,Arial_MSFontService,sans-serif" font-size="76.8804" x="3107.4" y="895.38">)</text><text font-family="DengXian,DengXian_MSFontService,sans-serif" font-weight="400" font-size="83" transform="matrix(1 0 0 1 3140.23 887)">，尝试将</text><path d="M3504.16 839.255 3489.73 864.787 3505.57 864.787 3504.89 851.738C3504.8 849.954 3504.74 847.725 3504.68 845.051 3504.63 842.376 3504.6 840.444 3504.6 839.255ZM3504.4 830.704 3510.52 830.704 3513.44 875.892C3513.57 878.026 3513.81 879.695 3514.17 880.897 3514.52 882.099 3515 882.991 3515.6 883.572 3516.21 884.153 3517.1 884.524 3518.26 884.686L3517.81 886.672 3500.95 886.672 3501.4 884.686C3502.99 884.551 3504.18 883.93 3504.97 882.822 3505.75 881.714 3506.14 879.769 3506.14 876.986 3506.14 875.932 3506.1 874.784 3506.02 873.541L3505.74 868.313 3487.9 868.313 3485.68 872.285C3484.62 874.149 3483.85 875.75 3483.37 877.087 3482.88 878.425 3482.64 879.607 3482.64 880.634 3482.64 882.903 3484 884.254 3486.73 884.686L3486.28 886.672 3469.71 886.672 3470.15 884.686C3470.99 884.578 3471.78 884.247 3472.52 883.693 3473.27 883.14 3474.06 882.302 3474.9 881.181 3475.73 880.059 3476.91 878.202 3478.42 875.608Z" fill-rule="evenodd"/><text fill="#000000" fill-opacity="0" font-family="Arial,Arial_MSFontService,sans-serif" font-size="55.9683" x="3469.71" y="879.676">𝐴</text><path d="M3538.45 862.859 3540.6 862.859 3535.36 886.032 3536.19 886.032C3536.94 886.032 3537.76 885.873 3538.63 885.555 3539.51 885.238 3540.38 884.826 3541.24 884.319 3542.1 883.813 3542.93 883.242 3543.73 882.607 3544.52 881.971 3545.22 881.331 3545.83 880.686 3546.43 880.04 3546.91 879.43 3547.27 878.854 3547.63 878.278 3547.81 877.792 3547.81 877.394 3547.81 876.918 3547.65 876.531 3547.33 876.233 3547.01 875.935 3546.44 875.736 3545.6 875.637L3545.96 873.731 3556.68 873.731 3557.43 875.577C3556.18 876.65 3554.97 877.643 3553.82 878.556 3552.67 879.469 3551.54 880.348 3550.44 881.192 3549.34 882.036 3548.24 882.865 3547.14 883.679 3546.03 884.493 3544.91 885.337 3543.76 886.211 3544.23 887.72 3544.72 889.254 3545.22 890.813 3545.71 892.371 3546.21 893.915 3546.7 895.444 3546.94 896.258 3547.17 896.958 3547.37 897.544 3547.58 898.13 3547.81 898.606 3548.04 898.974 3548.28 899.341 3548.54 899.614 3548.82 899.793 3549.1 899.971 3549.43 900.061 3549.83 900.061 3550.11 900.061 3550.4 900.011 3550.7 899.912 3550.99 899.813 3551.33 899.634 3551.69 899.376 3552.06 899.118 3552.48 898.765 3552.94 898.318 3553.41 897.872 3553.94 897.311 3554.54 896.636L3556.56 898.572C3555.63 899.525 3554.76 900.349 3553.96 901.044 3553.15 901.739 3552.39 902.31 3551.66 902.756 3550.94 903.203 3550.24 903.531 3549.56 903.739 3548.89 903.948 3548.2 904.052 3547.51 904.052 3546.26 904.052 3545.25 903.739 3544.49 903.114 3543.72 902.488 3543.07 901.595 3542.53 900.433 3542 899.272 3541.51 897.867 3541.06 896.219 3540.61 894.57 3540.09 892.734 3539.5 890.708 3539.36 890.232 3539.22 889.849 3539.09 889.562 3538.97 889.274 3538.8 889.055 3538.6 888.906 3538.4 888.757 3538.16 888.663 3537.86 888.623 3537.56 888.584 3537.18 888.564 3536.73 888.564L3534.82 888.564 3531.54 903.516 3525.82 903.516 3533.03 871.527C3533.27 870.474 3533.44 869.645 3533.54 869.04 3533.64 868.434 3533.69 867.893 3533.69 867.416 3533.69 867.039 3533.62 866.711 3533.49 866.433 3533.37 866.155 3533.15 865.932 3532.85 865.763 3532.56 865.594 3532.16 865.47 3531.66 865.391 3531.17 865.312 3530.55 865.262 3529.82 865.242L3530.26 863.217Z" fill-rule="evenodd"/><text fill="#000000" fill-opacity="0" font-family="Arial,Arial_MSFontService,sans-serif" font-size="41.1929" x="3525.82" y="898.903">𝑘</text><text font-family="DengXian,DengXian_MSFontService,sans-serif" font-weight="400" font-size="83" transform="matrix(1 0 0 1 3564.22 887)">“续在”</text><path d="M3821.57 839.255 3807.15 864.787 3822.99 864.787 3822.3 851.738C3822.22 849.954 3822.16 847.725 3822.1 845.051 3822.05 842.376 3822.02 840.444 3822.02 839.255ZM3821.82 830.704 3827.94 830.704 3830.86 875.892C3830.99 878.026 3831.23 879.695 3831.58 880.897 3831.94 882.099 3832.42 882.991 3833.02 883.572 3833.63 884.153 3834.52 884.524 3835.68 884.686L3835.23 886.672 3818.37 886.672 3818.82 884.686C3820.41 884.551 3821.6 883.93 3822.39 882.822 3823.17 881.714 3823.56 879.769 3823.56 876.986 3823.56 875.932 3823.52 874.784 3823.44 873.541L3823.16 868.313 3805.32 868.313 3803.09 872.285C3802.04 874.149 3801.27 875.75 3800.78 877.087 3800.3 878.425 3800.05 879.607 3800.05 880.634 3800.05 882.903 3801.42 884.254 3804.15 884.686L3803.7 886.672 3787.13 886.672 3787.57 884.686C3788.41 884.578 3789.2 884.247 3789.94 883.693 3790.69 883.14 3791.48 882.302 3792.31 881.181 3793.15 880.059 3794.33 878.202 3795.84 875.608Z" fill-rule="evenodd"/><text fill="#000000" fill-opacity="0" font-family="Arial,Arial_MSFontService,sans-serif" font-size="55.9683" x="3787.13" y="879.676">𝐴</text><path d="M3854.05 873.403 3856.1 873.403 3849.91 902.593C3849.41 904.856 3848.77 906.797 3847.99 908.416 3847.2 910.034 3846.25 911.359 3845.11 912.392 3843.98 913.424 3842.66 914.184 3841.15 914.67 3839.64 915.157 3837.92 915.4 3835.97 915.4 3835.45 915.4 3834.96 915.375 3834.48 915.326 3834 915.276 3833.58 915.202 3833.2 915.102L3833.94 911.975C3834.18 912.074 3834.5 912.139 3834.9 912.169 3835.29 912.198 3835.75 912.213 3836.27 912.213 3837.24 912.213 3838.11 912.084 3838.87 911.826 3839.64 911.568 3840.32 911.101 3840.93 910.426 3841.53 909.751 3842.08 908.823 3842.57 907.641 3843.05 906.46 3843.51 904.946 3843.92 903.099 3844.62 899.882 3845.28 896.864 3845.92 894.044 3846.55 891.225 3847.07 888.862 3847.48 886.955 3847.89 885.049 3848.21 883.53 3848.45 882.398 3848.69 881.266 3848.86 880.393 3848.97 879.777 3849.08 879.162 3849.15 878.725 3849.16 878.467 3849.18 878.208 3849.19 878 3849.19 877.841 3849.19 877.146 3848.93 876.635 3848.41 876.307 3847.88 875.98 3846.95 875.796 3845.62 875.756L3846.07 873.731ZM3852.95 861.4 3858.93 861.4 3857.47 867.804 3851.49 867.804Z" fill-rule="evenodd"/><text fill="#000000" fill-opacity="0" font-family="Arial,Arial_MSFontService,sans-serif" font-size="54.0005" x="3833.2" y="908.65">𝑗</text><text font-family="DengXian,DengXian_MSFontService,sans-serif" font-weight="400" font-size="83" transform="matrix(1 0 0 1 3866.01 887)">末尾</text><text font-family="DengXian,DengXian_MSFontService,sans-serif" font-weight="400" font-size="83" transform="matrix(1 0 0 1 3375.62 1333)">尚未计算的区域，</text><text font-family="DengXian,DengXian_MSFontService,sans-serif" font-weight="400" font-size="83" transform="matrix(1 0 0 1 3386.58 1432)">初始化为</text><path d="M3742.48 1395.59C3739.72 1395.59 3737.25 1396.71 3735.06 1398.93 3732.87 1401.16 3731.15 1404.17 3729.89 1407.95 3728.64 1411.73 3728.01 1415.5 3728.01 1419.26 3728.01 1422.07 3728.39 1424.17 3729.16 1425.56 3729.93 1426.95 3731.22 1427.65 3733.03 1427.65 3733.87 1427.65 3734.72 1427.47 3735.59 1427.1 3736.45 1426.74 3737.35 1426.15 3738.28 1425.34 3739.21 1424.53 3740.13 1423.54 3741.04 1422.38 3741.94 1421.22 3742.77 1420.05 3743.53 1418.87 3744.29 1417.7 3744.99 1416.31 3745.64 1414.7 3746.29 1413.09 3746.84 1411.15 3747.3 1408.88L3747.66 1407.14C3748.07 1405.2 3748.27 1403.36 3748.27 1401.63 3748.27 1399.52 3747.83 1397.99 3746.93 1397.03 3746.04 1396.07 3744.56 1395.59 3742.48 1395.59ZM3759.46 1373.87 3761.85 1373.87 3751.76 1418.73C3751.16 1421.38 3750.86 1423.38 3750.86 1424.73 3750.86 1425.81 3751.04 1426.59 3751.39 1427.08 3751.74 1427.57 3752.3 1427.81 3753.05 1427.81 3753.86 1427.81 3754.73 1427.48 3755.65 1426.82 3756.57 1426.15 3757.86 1424.89 3759.54 1423.03L3761.85 1425.3C3759.36 1427.92 3757.27 1429.77 3755.57 1430.85 3753.86 1431.93 3752.03 1432.47 3750.05 1432.47 3748.38 1432.47 3747.04 1431.92 3746.04 1430.81 3745.04 1429.7 3744.54 1428.23 3744.54 1426.39 3744.54 1424.91 3744.85 1423.32 3745.47 1421.65L3744.95 1421.49C3742.35 1425.27 3739.9 1428.04 3737.57 1429.8 3735.25 1431.55 3732.79 1432.43 3730.2 1432.43 3727.22 1432.43 3724.92 1431.31 3723.29 1429.07 3721.65 1426.82 3720.83 1423.68 3720.83 1419.62 3720.83 1414.98 3721.75 1410.51 3723.57 1406.23 3725.39 1401.95 3727.9 1398.57 3731.09 1396.1 3734.28 1393.62 3737.83 1392.39 3741.75 1392.39 3743.39 1392.39 3744.91 1392.56 3746.31 1392.9 3747.7 1393.23 3749.12 1393.82 3750.58 1394.66L3752.69 1385.3C3752.9 1384.41 3753.09 1383.42 3753.26 1382.34 3753.42 1381.26 3753.5 1380.31 3753.5 1379.5 3753.5 1378.69 3753.35 1378.08 3753.05 1377.66 3752.76 1377.24 3752.33 1376.93 3751.78 1376.75 3751.22 1376.56 3750.23 1376.42 3748.8 1376.34L3749.28 1374.23Z" fill-rule="evenodd"/><text fill="#000000" fill-opacity="0" font-family="Arial,Arial_MSFontService,sans-serif" font-size="58.6025" x="3720.83" y="1425.15">𝑑</text><path d="M3843.97 1369.5 3862.05 1369.5 3862.05 1446.79 3843.97 1446.79 3843.97 1443.67 3855.32 1443.67 3855.32 1372.62 3843.97 1372.62ZM3775.98 1369.5 3794.06 1369.5 3794.06 1372.62 3782.71 1372.62 3782.71 1443.67 3794.06 1443.67 3794.06 1446.79 3775.98 1446.79Z" fill-rule="evenodd"/><path d="M3811.63 1392.39C3812.46 1392.39 3813.2 1392.48 3813.84 1392.67 3814.47 1392.86 3815.03 1393.15 3815.52 1393.54 3816 1393.94 3816.44 1394.44 3816.81 1395.06 3817.19 1395.69 3817.56 1396.53 3817.91 1397.6 3818.26 1398.66 3818.59 1399.99 3818.9 1401.57 3819.21 1403.15 3819.49 1404.79 3819.73 1406.49L3820.14 1406.49C3822.73 1402.84 3824.7 1400.18 3826.03 1398.49 3827.37 1396.8 3828.5 1395.54 3829.42 1394.72 3830.34 1393.9 3831.22 1393.31 3832.07 1392.98 3832.92 1392.64 3834.05 1392.47 3835.46 1392.47 3836.73 1392.47 3837.77 1392.63 3838.58 1392.96L3836.96 1400.29 3834.12 1400.29C3833.96 1399.16 3833.48 1398.59 3832.7 1398.59 3832.46 1398.59 3832.2 1398.63 3831.93 1398.71 3831.66 1398.79 3831.33 1398.97 3830.94 1399.24 3830.55 1399.51 3829.97 1400.04 3829.22 1400.82 3828.46 1401.6 3827.61 1402.56 3826.66 1403.7 3825.72 1404.83 3824.74 1406.02 3823.74 1407.26L3820.99 1410.71C3821.48 1413.3 3821.93 1415.54 3822.37 1417.43 3822.8 1419.33 3823.18 1420.9 3823.52 1422.16 3823.86 1423.41 3824.16 1424.41 3824.41 1425.14 3824.67 1425.86 3824.95 1426.41 3825.24 1426.78 3825.54 1427.14 3825.85 1427.4 3826.16 1427.55 3826.47 1427.69 3826.82 1427.77 3827.23 1427.77 3827.96 1427.77 3828.67 1427.49 3829.36 1426.92 3830.05 1426.35 3831.04 1425.07 3832.34 1423.07L3834.97 1424.81C3833.08 1427.62 3831.37 1429.6 3829.84 1430.75 3828.32 1431.9 3826.5 1432.47 3824.39 1432.47 3823.23 1432.47 3822.25 1432.26 3821.43 1431.84 3820.62 1431.42 3819.92 1430.75 3819.33 1429.84 3818.73 1428.92 3818.21 1427.49 3817.75 1425.54 3816.91 1422.08 3816.4 1419.43 3816.21 1417.6L3815.8 1417.6C3812.94 1421.62 3810.81 1424.51 3809.42 1426.27 3808.03 1428.03 3806.88 1429.32 3805.97 1430.16 3805.07 1431 3804.19 1431.59 3803.34 1431.92 3802.49 1432.26 3801.36 1432.43 3799.96 1432.43 3798.69 1432.43 3797.65 1432.27 3796.83 1431.94L3798.46 1424.61 3801.29 1424.61C3801.45 1425.74 3801.93 1426.31 3802.71 1426.31 3803.09 1426.31 3803.49 1426.21 3803.91 1426.01 3804.33 1425.8 3804.93 1425.32 3805.71 1424.55 3806.49 1423.78 3807.57 1422.57 3808.95 1420.92 3810.33 1419.27 3812.33 1416.8 3814.95 1413.5 3814.54 1411.37 3814.13 1409.32 3813.69 1407.34 3813.26 1405.37 3812.82 1403.53 3812.36 1401.83 3811.9 1400.13 3811.52 1399.02 3811.22 1398.49 3810.92 1397.96 3810.61 1397.6 3810.27 1397.39 3809.93 1397.19 3809.51 1397.09 3808.99 1397.09 3808.43 1397.09 3807.91 1397.22 3807.45 1397.48 3806.99 1397.73 3806.49 1398.18 3805.95 1398.81 3805.41 1399.45 3804.7 1400.44 3803.81 1401.79L3801.17 1400.05C3802.87 1397.48 3804.51 1395.56 3806.07 1394.29 3807.64 1393.02 3809.49 1392.39 3811.63 1392.39Z" fill-rule="evenodd"/><text fill="#000000" fill-opacity="0" font-family="Arial,Arial_MSFontService,sans-serif" font-size="40.0815" x="3796.83" y="1427.46">𝑥</text><path d="M3900.06 1413.83 3949.99 1413.83 3949.99 1419.22 3900.06 1419.22ZM3900.06 1397.01 3949.99 1397.01 3949.99 1402.4 3900.06 1402.4Z" fill-rule="evenodd"/><text fill="#000000" fill-opacity="0" font-family="Arial,Arial_MSFontService,sans-serif" font-size="22.209" x="3900.06" y="1416.44">=</text><path d="M4005 1375.85 4007.22 1375.85C4007.06 1378.45 4006.98 1382.04 4006.98 1386.63L4006.98 1421.24C4006.98 1422.81 4007.07 1423.99 4007.24 1424.79 4007.42 1425.59 4007.73 1426.24 4008.18 1426.74 4008.62 1427.24 4009.26 1427.63 4010.1 1427.91 4010.94 1428.19 4011.99 1428.41 4013.26 1428.56 4014.53 1428.71 4016.21 1428.81 4018.29 1428.86L4018.29 1431.82 3988.34 1431.82 3988.34 1428.86C3991.34 1428.73 3993.48 1428.55 3994.76 1428.32 3996.05 1428.09 3997.02 1427.74 3997.7 1427.28 3998.38 1426.82 3998.87 1426.18 3999.18 1425.34 3999.49 1424.5 3999.65 1423.14 3999.65 1421.24L3999.65 1388.38C3999.65 1387.3 3999.46 1386.51 3999.08 1386.01 3998.7 1385.51 3998.15 1385.26 3997.42 1385.26 3996.55 1385.26 3995.32 1385.7 3993.73 1386.59 3992.13 1387.49 3990.16 1388.71 3987.81 1390.28L3986.03 1387.16Z" fill-rule="evenodd"/><text fill="#000000" fill-opacity="0" font-family="Arial,Arial_MSFontService,sans-serif" font-size="55.9683" x="3986.03" y="1424.83">1</text></g></svg>