<svg width="3331" height="1339" xmlns="http://www.w3.org/2000/svg" xmlns:xlink="http://www.w3.org/1999/xlink" xml:space="preserve" overflow="hidden"><defs><filter id="fx0" x="-10%" y="-10%" width="120%" height="120%" filterUnits="userSpaceOnUse" primitiveUnits="userSpaceOnUse"><feComponentTransfer color-interpolation-filters="sRGB"><feFuncR type="discrete" tableValues="0 0"/><feFuncG type="discrete" tableValues="0 0"/><feFuncB type="discrete" tableValues="0 0"/><feFuncA type="linear" slope="0.4" intercept="0"/></feComponentTransfer><feGaussianBlur stdDeviation="1.74007 1.74007"/></filter><filter id="fx1" x="-10%" y="-10%" width="120%" height="120%" filterUnits="userSpaceOnUse" primitiveUnits="userSpaceOnUse"><feComponentTransfer color-interpolation-filters="sRGB"><feFuncR type="discrete" tableValues="0 0"/><feFuncG type="discrete" tableValues="0 0"/><feFuncB type="discrete" tableValues="0 0"/><feFuncA type="linear" slope="0.4" intercept="0"/></feComponentTransfer><feGaussianBlur stdDeviation="1.74007 1.74007"/></filter><filter id="fx2" x="-10%" y="-10%" width="120%" height="120%" filterUnits="userSpaceOnUse" primitiveUnits="userSpaceOnUse"><feComponentTransfer color-interpolation-filters="sRGB"><feFuncR type="discrete" tableValues="0 0"/><feFuncG type="discrete" tableValues="0 0"/><feFuncB type="discrete" tableValues="0 0"/><feFuncA type="linear" slope="0.4" intercept="0"/></feComponentTransfer><feGaussianBlur stdDeviation="1.74007 1.74007"/></filter><filter id="fx3" x="-10%" y="-10%" width="120%" height="120%" filterUnits="userSpaceOnUse" primitiveUnits="userSpaceOnUse"><feComponentTransfer color-interpolation-filters="sRGB"><feFuncR type="discrete" tableValues="0 0"/><feFuncG type="discrete" tableValues="0 0"/><feFuncB type="discrete" tableValues="0 0"/><feFuncA type="linear" slope="0.4" intercept="0"/></feComponentTransfer><feGaussianBlur stdDeviation="1.74007 1.74007"/></filter><filter id="fx4" x="-10%" y="-10%" width="120%" height="120%" filterUnits="userSpaceOnUse" primitiveUnits="userSpaceOnUse"><feComponentTransfer color-interpolation-filters="sRGB"><feFuncR type="discrete" tableValues="0 0"/><feFuncG type="discrete" tableValues="0 0"/><feFuncB type="discrete" tableValues="0 0"/><feFuncA type="linear" slope="0.4" intercept="0"/></feComponentTransfer><feGaussianBlur stdDeviation="1.74007 1.74007"/></filter><filter id="fx5" x="-10%" y="-10%" width="120%" height="120%" filterUnits="userSpaceOnUse" primitiveUnits="userSpaceOnUse"><feComponentTransfer color-interpolation-filters="sRGB"><feFuncR type="discrete" tableValues="0 0"/><feFuncG type="discrete" tableValues="0 0"/><feFuncB type="discrete" tableValues="0 0"/><feFuncA type="linear" slope="0.4" intercept="0"/></feComponentTransfer><feGaussianBlur stdDeviation="1.74007 1.74007"/></filter><clipPath id="clip6"><rect x="54" y="48" width="49" height="72"/></clipPath><clipPath id="clip7"><rect x="54" y="46" width="51" height="74"/></clipPath><clipPath id="clip8"><rect x="52" y="46" width="51" height="76"/></clipPath><clipPath id="clip9"><rect x="50" y="48" width="55" height="72"/></clipPath><clipPath id="clip10"><rect x="54" y="48" width="49" height="74"/></clipPath><clipPath id="clip11"><rect x="54" y="46" width="49" height="74"/></clipPath></defs><g transform="translate(-239 -695)"><path d="M2521.5 1725C2521.5 1685.51 2553.51 1653.5 2593 1653.5 2632.49 1653.5 2664.5 1685.51 2664.5 1725 2664.5 1764.49 2632.49 1796.5 2593 1796.5 2553.51 1796.5 2521.5 1764.49 2521.5 1725Z" stroke="#C00000" stroke-width="4.58333" stroke-miterlimit="8" fill="none" fill-rule="evenodd"/><g clip-path="url(#clip6)" filter="url(#fx0)" transform="translate(2516 1645)"><g><path d="M6.28174 3.24219 6.28174-1.09424 20.8716-1.09424 20.8716-48.5518 7.82178-39.8789 7.82178-44.5395 21.439-53.8608 25.9375-53.8608 25.9375-1.09424 38.3794-1.09424 38.3794 3.24219Z" transform="matrix(1 0 0 1 56.4297 109)"/></g></g><text font-family="DengXian,DengXian_MSFontService,sans-serif" font-weight="400" font-size="83" transform="matrix(1 0 0 1 2570.49 1752)">1</text><path d="M2802.5 1474C2802.5 1434.51 2834.51 1402.5 2874 1402.5 2913.49 1402.5 2945.5 1434.51 2945.5 1474 2945.5 1513.49 2913.49 1545.5 2874 1545.5 2834.51 1545.5 2802.5 1513.49 2802.5 1474Z" stroke="#C00000" stroke-width="4.58333" stroke-miterlimit="8" fill="none" fill-rule="evenodd"/><g clip-path="url(#clip7)" filter="url(#fx1)" transform="translate(2797 1394)"><g><path d="M4.49853 3.24219 4.49853-0.405273C5.74137-3.53939 7.54484-6.65324 9.90893-9.74683 12.273-12.8404 15.7381-16.373 20.3042-20.3447 25.0054-24.3975 28.2948-27.8153 30.1726-30.5981 32.0504-33.381 32.9893-36.299 32.9893-39.352 32.9893-42.8644 32.0031-45.573 30.0308-47.4778 28.0584-49.3826 25.3161-50.335 21.8037-50.335 18.6156-50.335 16.0015-49.3961 13.9617-47.5183 11.9218-45.6405 10.7262-43.0671 10.375-39.7978L5.1875-40.4463C5.59277-44.7152 7.30168-48.16 10.3142-50.7808 13.3267-53.4015 17.1701-54.7119 21.8442-54.7119 27.0047-54.7119 31.0304-53.388 33.9214-50.7402 36.8123-48.0924 38.2578-44.4045 38.2578-39.6763 38.2578-37.2446 37.8255-34.9616 36.9609-32.8271 36.0963-30.6927 34.7995-28.565 33.0703-26.4441 31.3411-24.3232 28.3962-21.4119 24.2353-17.7104 16.9404-11.2261 12.3338-5.76839 10.4155-1.3374L39.1089-1.3374 39.1089 3.24219Z" transform="matrix(1 0 0 1 56.9021 109)"/></g></g><text font-family="DengXian,DengXian_MSFontService,sans-serif" font-weight="400" font-size="83" transform="matrix(1 0 0 1 2851.97 1501)">2</text><path d="M3138.5 1474C3138.5 1434.51 3170.51 1402.5 3210 1402.5 3249.49 1402.5 3281.5 1434.51 3281.5 1474 3281.5 1513.49 3249.49 1545.5 3210 1545.5 3170.51 1545.5 3138.5 1513.49 3138.5 1474Z" stroke="#C00000" stroke-width="4.58333" stroke-miterlimit="8" fill="none" fill-rule="evenodd"/><g clip-path="url(#clip8)" filter="url(#fx2)" transform="translate(3133 1394)"><g><path d="M39.1494-12.4824C39.1494-7.24088 37.6094-3.17464 34.5293-0.283691 31.4492 2.60726 27.0993 4.05273 21.4795 4.05273 10.6992 4.05273 4.68766-0.878093 3.44482-10.7397L8.67285-11.3071C9.61849-3.98519 13.8874-0.324219 21.4795-0.324219 25.5052-0.324219 28.5785-1.35091 30.6995-3.4043 32.8204-5.45768 33.8809-8.48372 33.8809-12.4824 33.8809-16.0488 32.6178-18.7642 30.0916-20.6284 27.5653-22.4927 24.0192-23.4248 19.4531-23.4248L15.5625-23.4248 15.5625-28.1665 19.3315-28.1665C21.8713-28.1665 24.1205-28.5853 26.0793-29.4228 28.0382-30.2604 29.585-31.4965 30.7197-33.1311 31.8545-34.7657 32.4219-36.7853 32.4219-39.1899 32.4219-42.7563 31.483-45.5122 29.6052-47.4575 27.7275-49.4028 24.9648-50.3755 21.3174-50.3755 18.0482-50.3755 15.3801-49.5312 13.3132-47.8425 11.2463-46.1539 10.0373-43.5669 9.68603-40.0815L4.57959-40.5273C5.09294-45.0394 6.82886-48.5315 9.78735-51.0037 12.7458-53.4758 16.6027-54.7119 21.3579-54.7119 26.5184-54.7119 30.5238-53.3948 33.3743-50.7605 36.2247-48.1262 37.6499-44.418 37.6499-39.6357 37.6499-36.1504 36.6502-33.2122 34.6509-30.821 32.6515-28.4299 29.8416-26.8426 26.2212-26.0591L26.2212-25.897C30.2739-25.3836 33.4418-23.9179 35.7248-21.4998 38.0079-19.0816 39.1494-16.0758 39.1494-12.4824Z" transform="matrix(1 0 0 1 56.6326 109)"/></g></g><text font-family="DengXian,DengXian_MSFontService,sans-serif" font-weight="400" font-size="83" transform="matrix(1 0 0 1 3187.7 1501)">3</text><path d="M3419.5 1725C3419.5 1685.51 3451.51 1653.5 3491 1653.5 3530.49 1653.5 3562.5 1685.51 3562.5 1725 3562.5 1764.49 3530.49 1796.5 3491 1796.5 3451.51 1796.5 3419.5 1764.49 3419.5 1725Z" stroke="#C00000" stroke-width="4.58333" stroke-miterlimit="8" fill="none" fill-rule="evenodd"/><g clip-path="url(#clip9)" filter="url(#fx3)" transform="translate(3414 1645)"><g><path d="M32.6245-10.4155 32.6245 3.24219 27.5586 3.24219 27.5586-10.4155 1.82373-10.4155 1.82373-14.4683 27.0723-53.8608 32.6245-53.8608 32.6245-14.6709 40.3652-14.6709 40.3652-10.4155ZM27.5586-47.0522 6.9707-14.6709 27.5586-14.6709Z" transform="matrix(1 0 0 1 56.8201 109)"/></g></g><text font-family="DengXian,DengXian_MSFontService,sans-serif" font-weight="400" font-size="83" transform="matrix(1 0 0 1 3468.88 1752)">4</text><path d="M2970.5 1928C2970.5 1888.51 3002.51 1856.5 3042 1856.5 3081.49 1856.5 3113.5 1888.51 3113.5 1928 3113.5 1967.49 3081.49 1999.5 3042 1999.5 3002.51 1999.5 2970.5 1967.49 2970.5 1928Z" stroke="#2F528F" stroke-width="4.58333" stroke-miterlimit="8" fill="none" fill-rule="evenodd"/><g clip-path="url(#clip10)" filter="url(#fx4)" transform="translate(2965 1848)"><g><path d="M39.5142-15.1572C39.5142-9.10514 37.9133-4.39046 34.7117-1.01318 31.51 2.36409 27.0317 4.05273 21.2769 4.05273 12.0636 4.05273 6.55192-0.202637 4.7417-8.71338L9.88867-9.52392C10.7262-6.20068 12.0771-3.82983 13.9414-2.41138 15.8057-0.99292 18.3724-0.283691 21.6416-0.283691 25.6673-0.283691 28.7744-1.55355 30.9629-4.09326 33.1514-6.63297 34.2456-10.2534 34.2456-14.9546 34.2456-18.9803 33.1716-22.1887 31.0237-24.5798 28.8757-26.9709 25.9375-28.1665 22.209-28.1665 20.0205-28.1665 18.0887-27.8355 16.4136-27.1736 14.7384-26.5116 13.0498-25.4242 11.3477-23.9111L6.5249-23.9111 8.3081-53.8608 36.6772-53.8608 36.6772-49.4839 12.9282-49.4839 11.5908-28.8149C13.4821-30.1929 15.3396-31.1453 17.1633-31.6721 18.9871-32.199 20.9391-32.4624 23.0195-32.4624 28.0719-32.4624 32.0841-30.9021 35.0561-27.7815 38.0282-24.6609 39.5142-20.4528 39.5142-15.1572Z" transform="matrix(1 0 0 1 56.625 109)"/></g></g><text font-family="DengXian,DengXian_MSFontService,sans-serif" font-weight="400" font-size="83" transform="matrix(1 0 0 1 3019.69 1955)">5</text><path d="M1.46476-1.76244 164.196 133.483 161.267 137.008-1.46476 1.76244ZM167.995 121.742 180.356 149.893 150.418 142.891Z" fill="#C00000" transform="matrix(1 0 0 -1 2643.5 1674.39)"/><path d="M2945.5 1472.21 3115.31 1472.21 3115.31 1476.79 2945.5 1476.79ZM3110.73 1460.75 3138.23 1474.5 3110.73 1488.25Z" fill="#C00000"/><path d="M2925.36 1522.38 3398.98 1714.22 3397.26 1718.47 2923.64 1526.62ZM3399.03 1701.88 3419.36 1724.95 3388.71 1727.37Z" fill="#4472C4"/><path d="M3261.97 1522.74 3424.42 1657.97 3421.49 1661.49 3259.03 1526.26ZM3428.23 1646.23 3440.57 1674.39 3410.64 1667.37Z" fill="#C00000"/><path d="M0.859949-2.1242 474.762 189.728 473.042 193.976-0.859949 2.1242ZM474.814 177.387 495.145 200.452 464.495 202.877Z" fill="#4472C4" transform="matrix(1 0 0 -1 2664.5 1724.95)"/><path d="M2664.5 1723.21 3396.97 1723.21 3396.97 1727.79 2664.5 1727.79ZM3392.39 1711.75 3419.89 1725.5 3392.39 1739.25Z" fill="#4472C4"/><path d="M2513.5 1926C2513.5 1886.51 2545.51 1854.5 2585 1854.5 2624.49 1854.5 2656.5 1886.51 2656.5 1926 2656.5 1965.49 2624.49 1997.5 2585 1997.5 2545.51 1997.5 2513.5 1965.49 2513.5 1926Z" stroke="#2F528F" stroke-width="4.58333" stroke-miterlimit="8" fill="none" fill-rule="evenodd"/><g clip-path="url(#clip11)" filter="url(#fx5)" transform="translate(2508 1846)"><g><path d="M39.5142-15.4409C39.5142-9.38883 38.0011-4.62687 34.9751-1.15503 31.9491 2.31681 27.8423 4.05273 22.6548 4.05273 16.8459 4.05273 12.4081 1.68864 9.34155-3.03955 6.27498-7.76774 4.7417-14.752 4.7417-23.9922 4.7417-34.2051 6.35604-41.8783 9.58472-47.0117 12.8134-52.1452 17.5754-54.7119 23.8706-54.7119 27.7072-54.7119 30.7873-53.8811 33.1108-52.2195 35.4344-50.5579 37.123-47.9709 38.1768-44.4585L33.2729-43.3643C31.841-48.0654 28.5988-50.416 23.5464-50.416 19.1154-50.416 15.7314-48.3153 13.3943-44.114 11.0572-39.9127 9.86165-33.7187 9.80762-25.5322 11.1585-28.0719 13.0025-30.0105 15.3396-31.3479 17.6767-32.6853 20.3447-33.354 23.3437-33.354 28.2881-33.354 32.2192-31.7532 35.1372-28.5515 38.0552-25.3498 39.5142-20.9797 39.5142-15.4409ZM34.3267-15.1167C34.3267-19.5207 33.2797-22.9722 31.1858-25.4714 29.0919-27.9706 26.1131-29.2202 22.2495-29.2202 20.0881-29.2202 18.1022-28.7204 16.292-27.7207 14.4818-26.721 13.0566-25.2891 12.0164-23.4248 10.9762-21.5605 10.4561-19.3991 10.4561-16.9404 10.4561-12.1042 11.5706-8.11222 13.7996-4.9646 16.0286-1.81698 18.9398-0.243164 22.5332-0.243164 26.2347-0.243164 29.1256-1.56706 31.2061-4.21484 33.2865-6.86263 34.3267-10.4966 34.3267-15.1167Z" transform="matrix(1 0 0 1 56.1941 108)"/></g></g><text font-family="DengXian,DengXian_MSFontService,sans-serif" font-weight="400" font-size="83" transform="matrix(1 0 0 1 2562.26 1953)">6</text><path d="M2665.47 1723.42 2971.84 1866.27 2969.9 1870.42 2663.53 1727.58ZM2972.52 1853.94 2991.64 1878.03 2960.9 1878.87Z" fill="#4472C4"/><path d="M2391.82 1629.3C2389.07 1629.3 2386.6 1630.42 2384.41 1632.65 2382.22 1634.87 2380.5 1637.88 2379.24 1641.66 2377.98 1645.45 2377.36 1649.21 2377.36 1652.97 2377.36 1655.78 2377.74 1657.88 2378.51 1659.27 2379.28 1660.66 2380.57 1661.36 2382.38 1661.36 2383.22 1661.36 2384.07 1661.18 2384.93 1660.81 2385.8 1660.45 2386.7 1659.86 2387.63 1659.05 2388.56 1658.24 2389.48 1657.25 2390.38 1656.09 2391.29 1654.93 2392.12 1653.76 2392.88 1652.59 2393.63 1651.41 2394.34 1650.02 2394.98 1648.41 2395.63 1646.8 2396.19 1644.86 2396.65 1642.6L2397.01 1640.85C2397.42 1638.91 2397.62 1637.07 2397.62 1635.34 2397.62 1633.23 2397.17 1631.7 2396.28 1630.74 2395.39 1629.78 2393.9 1629.3 2391.82 1629.3ZM2408.8 1607.58 2411.2 1607.58 2401.1 1652.44C2400.51 1655.09 2400.21 1657.09 2400.21 1658.44 2400.21 1659.52 2400.39 1660.31 2400.74 1660.79 2401.09 1661.28 2401.64 1661.52 2402.4 1661.52 2403.21 1661.52 2404.08 1661.19 2404.99 1660.53 2405.91 1659.87 2407.21 1658.6 2408.89 1656.74L2411.2 1659.01C2408.71 1661.63 2406.62 1663.48 2404.91 1664.56 2403.21 1665.64 2401.37 1666.18 2399.4 1666.18 2397.73 1666.18 2396.39 1665.63 2395.39 1664.52 2394.39 1663.41 2393.89 1661.94 2393.89 1660.1 2393.89 1658.62 2394.2 1657.04 2394.82 1655.36L2394.3 1655.2C2391.7 1658.98 2389.24 1661.75 2386.92 1663.51 2384.6 1665.26 2382.14 1666.14 2379.54 1666.14 2376.57 1666.14 2374.27 1665.02 2372.63 1662.78 2371 1660.54 2370.18 1657.39 2370.18 1653.34 2370.18 1648.69 2371.09 1644.22 2372.92 1639.94 2374.74 1635.66 2377.25 1632.28 2380.44 1629.81 2383.62 1627.34 2387.18 1626.1 2391.09 1626.1 2392.74 1626.1 2394.26 1626.27 2395.65 1626.61 2397.04 1626.95 2398.47 1627.53 2399.93 1628.37L2402.04 1619.01C2402.25 1618.12 2402.44 1617.13 2402.6 1616.05 2402.77 1614.97 2402.85 1614.02 2402.85 1613.21 2402.85 1612.4 2402.7 1611.79 2402.4 1611.37 2402.1 1610.95 2401.68 1610.65 2401.12 1610.46 2400.57 1610.27 2399.58 1610.13 2398.15 1610.05L2398.63 1607.94Z" fill-rule="evenodd"/><text fill="#000000" fill-opacity="0" font-family="Arial,Arial_MSFontService,sans-serif" font-size="58.6025" x="2370.18" y="1658.86">𝑑</text><path d="M2447.91 1606.97 2449 1610.09C2442.68 1612.17 2438 1616.23 2434.96 1622.27 2431.92 1628.31 2430.4 1635.89 2430.4 1645.03 2430.4 1654.48 2431.92 1662.28 2434.96 1668.41 2438 1674.54 2442.64 1678.65 2448.88 1680.73L2447.91 1683.85C2439.99 1681.77 2433.92 1677.29 2429.71 1670.42 2425.49 1663.54 2423.39 1655.21 2423.39 1645.43 2423.39 1635.68 2425.5 1627.35 2429.73 1620.45 2433.96 1613.54 2440.02 1609.05 2447.91 1606.97Z" fill-rule="evenodd"/><text fill="#000000" fill-opacity="0" font-family="Arial,Arial_MSFontService,sans-serif" font-size="76.8804" x="2423.39" y="1674.24">(</text><path d="M2476.65 1609.57 2478.88 1609.57C2478.71 1612.16 2478.63 1615.75 2478.63 1620.35L2478.63 1654.96C2478.63 1656.52 2478.72 1657.71 2478.9 1658.5 2479.07 1659.3 2479.38 1659.95 2479.83 1660.45 2480.27 1660.95 2480.92 1661.34 2481.75 1661.62 2482.59 1661.91 2483.64 1662.12 2484.91 1662.27 2486.18 1662.42 2487.86 1662.52 2489.94 1662.58L2489.94 1665.53 2459.99 1665.53 2459.99 1662.58C2462.99 1662.44 2465.13 1662.26 2466.41 1662.03 2467.7 1661.8 2468.68 1661.45 2469.35 1660.99 2470.03 1660.54 2470.52 1659.89 2470.83 1659.05 2471.14 1658.21 2471.3 1656.85 2471.3 1654.96L2471.3 1622.09C2471.3 1621.01 2471.11 1620.22 2470.73 1619.72 2470.35 1619.22 2469.8 1618.97 2469.07 1618.97 2468.2 1618.97 2466.97 1619.41 2465.38 1620.31 2463.79 1621.2 2461.81 1622.43 2459.46 1623.99L2457.68 1620.87Z" fill-rule="evenodd"/><text fill="#000000" fill-opacity="0" font-family="Arial,Arial_MSFontService,sans-serif" font-size="55.9683" x="2457.68" y="1658.54">1</text><path d="M2498.93 1606.97C2506.82 1609.05 2512.88 1613.54 2517.11 1620.45 2521.34 1627.35 2523.45 1635.68 2523.45 1645.43 2523.45 1655.21 2521.35 1663.54 2517.13 1670.42 2512.92 1677.29 2506.85 1681.77 2498.93 1683.85L2497.96 1680.73C2504.2 1678.65 2508.84 1674.54 2511.88 1668.41 2514.92 1662.28 2516.44 1654.48 2516.44 1645.03 2516.44 1635.89 2514.93 1628.31 2511.9 1622.27 2508.88 1616.23 2504.19 1612.17 2497.84 1610.09Z" fill-rule="evenodd"/><text fill="#000000" fill-opacity="0" font-family="Arial,Arial_MSFontService,sans-serif" font-size="76.8804" x="2497.84" y="1674.24">)</text><path d="M2656.52 1923.21 2948.03 1925.65 2948 1930.23 2656.48 1927.79ZM2943.55 1914.15 2970.93 1928.13 2943.32 1941.65Z" fill="#4472C4"/><rect x="802.5" y="703.5" width="1443" height="1069" stroke="#2F528F" stroke-width="9.16667" stroke-miterlimit="8" fill="none"/><text font-family="DengXian,DengXian_MSFontService,sans-serif" font-weight="400" font-size="83" transform="matrix(1 0 0 1 834.583 797)">1</text><rect x="1328.5" y="915.5" width="636" height="340" stroke="#2F528F" stroke-width="9.16667" stroke-miterlimit="8" fill="none"/><text font-family="DengXian,DengXian_MSFontService,sans-serif" font-weight="400" font-size="83" transform="matrix(1 0 0 1 1361.21 1009)">3</text><rect x="1605.5" y="954.5" width="250" height="262" stroke="#2F528F" stroke-width="9.16667" stroke-miterlimit="8" fill="none"/><text font-family="DengXian,DengXian_MSFontService,sans-serif" font-weight="400" font-size="83" transform="matrix(1 0 0 1 1637.58 1047)">4</text><rect x="1214.5" y="839.5" width="796" height="809" stroke="#2F528F" stroke-width="9.16667" stroke-miterlimit="8" fill="none"/><text font-family="DengXian,DengXian_MSFontService,sans-serif" font-weight="400" font-size="83" transform="matrix(1 0 0 1 1247.08 933)">2</text><rect x="256.5" y="1820.5" width="2046" height="170" stroke="#2F528F" stroke-width="9.16667" stroke-miterlimit="8" fill="none"/><text font-family="DengXian,DengXian_MSFontService,sans-serif" font-weight="400" font-size="83" transform="matrix(1 0 0 1 288.708 1914)">6</text><rect x="989.5" y="753.5" width="127" height="949" stroke="#2F528F" stroke-width="9.16667" stroke-miterlimit="8" fill="none"/><text font-family="DengXian,DengXian_MSFontService,sans-serif" font-weight="400" font-size="83" transform="matrix(1 0 0 1 1021.6 846)">5</text></g></svg>