<svg width="1822" height="542" xmlns="http://www.w3.org/2000/svg" xmlns:xlink="http://www.w3.org/1999/xlink" xml:space="preserve" overflow="hidden"><g transform="translate(-299 -1820)"><rect x="303" y="2040" width="1079" height="61.9999" fill="#4472C4"/><rect x="1382" y="2040" width="723" height="61.9999" fill="#00B050"/><rect x="303.5" y="2040.5" width="87" height="61.9998" stroke="#000000" stroke-width="9.16667" stroke-miterlimit="8" fill="none"/><rect x="1295.5" y="2040.5" width="87" height="61.9998" stroke="#000000" stroke-width="9.16667" stroke-miterlimit="8" fill="none"/><rect x="1382.5" y="2040.5" width="88" height="61.9998" stroke="#000000" stroke-width="9.16667" stroke-miterlimit="8" fill="none"/><rect x="2014.5" y="2040.5" width="86.9999" height="61.9998" stroke="#000000" stroke-width="9.16667" stroke-miterlimit="8" fill="none"/><path d="M376.339 1941.81C379.393 1941.81 382.067 1942.28 384.364 1943.23 386.66 1944.17 388.417 1945.53 389.632 1947.3 390.848 1949.07 391.456 1951.18 391.456 1953.64 391.456 1955.94 390.997 1957.96 390.078 1959.7 389.16 1961.44 387.869 1962.96 386.208 1964.26 384.546 1965.56 382.392 1966.83 379.744 1968.07L379.744 1968.43C381.392 1968.73 382.979 1969.24 384.506 1969.95 386.032 1970.67 387.39 1971.59 388.579 1972.73 389.768 1973.86 390.72 1975.22 391.436 1976.8 392.152 1978.38 392.51 1980.19 392.51 1982.21 392.51 1985.35 391.828 1988.13 390.463 1990.56 389.099 1992.99 387.012 1994.91 384.202 1996.32 381.392 1997.72 377.974 1998.42 373.948 1998.42 371.625 1998.42 369.119 1998.16 366.431 1997.63 363.742 1997.11 361.277 1996.41 359.034 1995.55L359.034 1986.95 363.898 1986.95C364.843 1989.76 366.093 1991.8 367.646 1993.07 369.2 1994.34 371.314 1994.98 373.989 1994.98 377.501 1994.98 380.156 1994.02 381.952 1992.1 383.749 1990.18 384.648 1987.35 384.648 1983.59 384.648 1979.65 383.459 1976.63 381.081 1974.55 378.704 1972.47 375.218 1971.43 370.625 1971.43L366.978 1971.43 366.978 1967.87C370.625 1967.65 373.698 1966.95 376.198 1965.76 378.697 1964.57 380.554 1963.04 381.77 1961.18 382.986 1959.31 383.594 1957.22 383.594 1954.9 383.594 1951.9 382.797 1949.59 381.203 1947.97 379.609 1946.35 377.285 1945.54 374.232 1945.54 371.692 1945.54 369.625 1946.22 368.031 1947.6 366.437 1948.98 365.262 1951.09 364.505 1953.92L359.642 1953.92 359.642 1946.22C362.776 1944.74 365.708 1943.63 368.437 1942.9 371.165 1942.17 373.8 1941.81 376.339 1941.81Z" fill-rule="evenodd"/><text fill="#000000" fill-opacity="0" font-family="Arial,Arial_MSFontService,sans-serif" font-size="56.6167" x="359.034" y="1991.35">3</text><path d="M428.794 1951.86 447.153 1970.18 465.511 1951.86 469.321 1955.63 451.165 1974.11 469.362 1992.51 465.309 1996.56 447.153 1978.04 428.429 1996.4 424.66 1992.59 443.181 1974.11 424.741 1955.91Z" fill-rule="evenodd"/><text fill="#000000" fill-opacity="0" font-family="Arial,Arial_MSFontService,sans-serif" font-size="44.7017" x="424.66" y="1990.97">×</text><path d="M520.687 1961.54C517.904 1961.54 515.405 1962.66 513.189 1964.91 510.974 1967.15 509.245 1970.16 508.002 1973.92 506.759 1977.69 506.137 1981.46 506.137 1985.21 506.137 1988.02 506.522 1990.12 507.292 1991.51 508.062 1992.9 509.353 1993.6 511.163 1993.6 512.946 1993.6 514.695 1992.83 516.411 1991.29 518.127 1989.75 519.896 1987.56 521.72 1984.7 523.544 1981.85 524.834 1978.56 525.591 1974.84L525.955 1973.09C526.198 1971.99 526.361 1971.03 526.442 1970.22 526.523 1969.41 526.563 1968.53 526.563 1967.58 526.563 1965.5 526.117 1963.98 525.226 1963 524.334 1962.03 522.821 1961.54 520.687 1961.54ZM519.876 1958.34C521.632 1958.34 523.274 1958.54 524.8 1958.93 526.327 1959.32 527.901 1960.02 529.522 1961.02L533.25 1958.34 535.844 1958.99 529.886 1984.68C529.292 1987.25 528.995 1989.25 528.995 1990.68 528.995 1991.76 529.17 1992.55 529.522 1993.03 529.873 1993.52 530.427 1993.76 531.183 1993.76 531.994 1993.76 532.858 1993.43 533.777 1992.77 534.696 1992.11 535.993 1990.84 537.668 1988.98L539.978 1991.25C537.546 1993.84 535.472 1995.69 533.757 1996.78 532.041 1997.88 530.184 1998.42 528.184 1998.42 526.509 1998.42 525.172 1997.87 524.172 1996.76 523.172 1995.65 522.673 1994.18 522.673 1992.34 522.673 1990.86 522.983 1989.28 523.605 1987.6L523.078 1987.44C520.484 1991.22 518.025 1993.99 515.702 1995.75 513.378 1997.5 510.92 1998.38 508.326 1998.38 505.354 1998.38 503.051 1997.26 501.416 1995.02 499.781 1992.78 498.964 1989.63 498.964 1985.58 498.964 1980.93 499.876 1976.46 501.7 1972.18 503.523 1967.9 506.029 1964.52 509.218 1962.05 512.406 1959.58 515.959 1958.34 519.876 1958.34Z" fill-rule="evenodd"/><text fill="#000000" fill-opacity="0" font-family="Arial,Arial_MSFontService,sans-serif" font-size="40.0815" x="498.964" y="1993.41">𝑎</text><path d="M1114.64 1963.12C1113.35 1963.12 1112.07 1963.54 1110.81 1964.36 1109.56 1965.18 1108.16 1966.55 1106.62 1968.45 1105.08 1970.36 1103.82 1972.31 1102.85 1974.31 1101.88 1976.31 1101.05 1978.86 1100.38 1981.97L1100.01 1983.67C1099.61 1985.56 1099.41 1987.4 1099.41 1989.18 1099.41 1991.32 1099.87 1992.86 1100.8 1993.8 1101.74 1994.75 1103.28 1995.22 1105.44 1995.22 1106.55 1995.22 1107.61 1995.04 1108.61 1994.67 1109.61 1994.31 1110.63 1993.71 1111.67 1992.87 1112.71 1992.03 1113.69 1990.93 1114.62 1989.57 1115.56 1988.2 1116.41 1986.52 1117.2 1984.52 1117.98 1982.52 1118.59 1980.38 1119.02 1978.1 1119.45 1975.82 1119.67 1973.63 1119.67 1971.55 1119.67 1968.74 1119.27 1966.64 1118.47 1965.23 1117.68 1963.83 1116.4 1963.12 1114.64 1963.12ZM1107.55 1939.82 1109.9 1939.82 1102.77 1968.19 1103.3 1968.35C1105.92 1964.84 1108.38 1962.3 1110.67 1960.73 1112.97 1959.17 1115.27 1958.38 1117.56 1958.38 1120.51 1958.38 1122.8 1959.5 1124.43 1961.75 1126.07 1963.99 1126.88 1967.15 1126.88 1971.23 1126.88 1975.69 1125.98 1980.07 1124.19 1984.38 1122.39 1988.69 1119.9 1992.11 1116.71 1994.63 1113.52 1997.16 1109.96 1998.42 1106.01 1998.42 1102.42 1998.42 1099.23 1997.55 1096.45 1995.79L1092.72 1998.42 1090.12 1997.77 1100.62 1951.45C1101.24 1948.7 1101.55 1946.7 1101.55 1945.45 1101.55 1944.32 1101.21 1943.52 1100.52 1943.06 1099.83 1942.6 1098.6 1942.35 1096.81 1942.29L1097.3 1940.19Z" fill-rule="evenodd"/><text fill="#000000" fill-opacity="0" font-family="Arial,Arial_MSFontService,sans-serif" font-size="58.6025" x="1090.12" y="1991.1">𝑏</text><path d="M1162.66 1951.86 1181.02 1970.18 1199.37 1951.86 1203.18 1955.63 1185.03 1974.11 1203.22 1992.51 1199.17 1996.56 1181.02 1978.04 1162.29 1996.4 1158.52 1992.59 1177.04 1974.11 1158.6 1955.91Z" fill-rule="evenodd"/><text fill="#000000" fill-opacity="0" font-family="Arial,Arial_MSFontService,sans-serif" font-size="44.7017" x="1158.52" y="1990.97">×</text><path d="M1297.55 1945.25C1295.69 1945.25 1294.13 1945.81 1292.87 1946.91 1291.61 1948.02 1290.6 1949.61 1289.83 1951.7 1289.06 1953.78 1288.51 1956.31 1288.19 1959.29 1287.86 1962.28 1287.7 1965.65 1287.7 1969.41 1287.7 1978.21 1288.52 1984.68 1290.15 1988.8 1291.79 1992.92 1294.32 1994.98 1297.75 1994.98 1301.02 1994.98 1303.45 1993.04 1305.03 1989.16 1306.61 1985.29 1307.4 1979.28 1307.4 1971.15 1307.4 1964.93 1306.99 1959.9 1306.18 1956.05 1305.37 1952.2 1304.24 1949.44 1302.8 1947.76 1301.35 1946.09 1299.6 1945.25 1297.55 1945.25ZM1297.75 1941.81C1303.67 1941.81 1308.07 1944.09 1310.96 1948.66 1313.86 1953.22 1315.3 1960.12 1315.3 1969.37 1315.3 1978.93 1313.75 1986.16 1310.66 1991.07 1307.57 1995.97 1303.05 1998.42 1297.1 1998.42 1291.27 1998.42 1286.93 1996.13 1284.08 1991.53 1281.22 1986.94 1279.8 1979.97 1279.8 1970.62 1279.8 1965.65 1280.24 1961.35 1281.12 1957.73 1281.99 1954.11 1283.22 1951.12 1284.8 1948.76 1286.39 1946.39 1288.28 1944.64 1290.5 1943.51 1292.71 1942.37 1295.13 1941.81 1297.75 1941.81ZM1254.75 1941.81 1256.98 1941.81C1256.82 1944.4 1256.74 1947.99 1256.74 1952.59L1256.74 1987.2C1256.74 1988.76 1256.83 1989.95 1257 1990.74 1257.18 1991.54 1257.49 1992.19 1257.93 1992.69 1258.38 1993.19 1259.02 1993.58 1259.86 1993.86 1260.7 1994.15 1261.75 1994.36 1263.02 1994.51 1264.29 1994.66 1265.96 1994.76 1268.05 1994.82L1268.05 1997.77 1238.1 1997.77 1238.1 1994.82C1241.09 1994.68 1243.24 1994.5 1244.52 1994.27 1245.8 1994.04 1246.78 1993.7 1247.46 1993.24 1248.13 1992.78 1248.63 1992.13 1248.94 1991.29 1249.25 1990.45 1249.4 1989.09 1249.4 1987.2L1249.4 1954.33C1249.4 1953.25 1249.21 1952.46 1248.84 1951.96 1248.46 1951.46 1247.9 1951.21 1247.17 1951.21 1246.31 1951.21 1245.08 1951.65 1243.49 1952.55 1241.89 1953.44 1239.92 1954.67 1237.57 1956.23L1235.79 1953.11Z" fill-rule="evenodd"/><text fill="#000000" fill-opacity="0" font-family="Arial,Arial_MSFontService,sans-serif" font-size="56.6167" x="1235.79" y="1991.35">10</text><path d="M1909.5 1961.54C1906.75 1961.54 1904.28 1962.66 1902.09 1964.89 1899.9 1967.12 1898.18 1970.12 1896.92 1973.9 1895.66 1977.69 1895.04 1981.46 1895.04 1985.21 1895.04 1988.02 1895.42 1990.12 1896.19 1991.51 1896.96 1992.9 1898.25 1993.6 1900.06 1993.6 1900.9 1993.6 1901.75 1993.42 1902.61 1993.05 1903.48 1992.69 1904.38 1992.1 1905.31 1991.29 1906.24 1990.48 1907.16 1989.49 1908.07 1988.33 1908.97 1987.17 1909.8 1986 1910.56 1984.83 1911.31 1983.65 1912.02 1982.26 1912.66 1980.65 1913.31 1979.04 1913.87 1977.11 1914.33 1974.84L1914.69 1973.09C1915.1 1971.15 1915.3 1969.31 1915.3 1967.58 1915.3 1965.47 1914.85 1963.94 1913.96 1962.98 1913.07 1962.02 1911.58 1961.54 1909.5 1961.54ZM1926.48 1939.82 1928.88 1939.82 1918.78 1984.68C1918.19 1987.33 1917.89 1989.33 1917.89 1990.68 1917.89 1991.76 1918.07 1992.55 1918.42 1993.03 1918.77 1993.52 1919.32 1993.76 1920.08 1993.76 1920.89 1993.76 1921.76 1993.43 1922.68 1992.77 1923.59 1992.11 1924.89 1990.84 1926.57 1988.98L1928.88 1991.25C1926.39 1993.87 1924.3 1995.72 1922.59 1996.8 1920.89 1997.88 1919.05 1998.42 1917.08 1998.42 1915.41 1998.42 1914.07 1997.87 1913.07 1996.76 1912.07 1995.65 1911.57 1994.18 1911.57 1992.34 1911.57 1990.86 1911.88 1989.28 1912.5 1987.6L1911.98 1987.44C1909.38 1991.22 1906.92 1993.99 1904.6 1995.75 1902.28 1997.5 1899.82 1998.38 1897.22 1998.38 1894.25 1998.38 1891.95 1997.26 1890.31 1995.02 1888.68 1992.78 1887.86 1989.63 1887.86 1985.58 1887.86 1980.93 1888.77 1976.46 1890.6 1972.18 1892.42 1967.9 1894.93 1964.52 1898.12 1962.05 1901.3 1959.58 1904.86 1958.34 1908.77 1958.34 1910.42 1958.34 1911.94 1958.51 1913.33 1958.85 1914.73 1959.19 1916.15 1959.77 1917.61 1960.61L1919.72 1951.25C1919.93 1950.36 1920.12 1949.37 1920.28 1948.29 1920.45 1947.21 1920.53 1946.26 1920.53 1945.45 1920.53 1944.64 1920.38 1944.03 1920.08 1943.61 1919.78 1943.19 1919.36 1942.89 1918.8 1942.7 1918.25 1942.51 1917.26 1942.37 1915.83 1942.29L1916.31 1940.19Z" fill-rule="evenodd"/><text fill="#000000" fill-opacity="0" font-family="Arial,Arial_MSFontService,sans-serif" font-size="58.6025" x="1887.86" y="1991.1">𝑑</text><path d="M1963.53 1951.86 1981.89 1970.18 2000.25 1951.86 2004.06 1955.63 1985.9 1974.11 2004.1 1992.51 2000.05 1996.56 1981.89 1978.04 1963.17 1996.4 1959.4 1992.59 1977.92 1974.11 1959.48 1955.91Z" fill-rule="evenodd"/><text fill="#000000" fill-opacity="0" font-family="Arial,Arial_MSFontService,sans-serif" font-size="44.7017" x="1959.4" y="1990.97">×</text><path d="M2054.29 1968.6C2052.97 1968.6 2051.69 1968.74 2050.46 1969.04 2049.23 1969.34 2048.08 1969.77 2047 1970.34 2045.92 1970.91 2044.86 1971.62 2043.84 1972.49 2043.51 1972.78 2043.27 1973.09 2043.11 1973.42 2042.84 1973.93 2042.66 1974.57 2042.58 1975.32 2042.5 1976.08 2042.46 1977.35 2042.46 1979.13 2042.46 1984.29 2043.32 1988.22 2045.05 1990.93 2046.78 1993.63 2049.4 1994.98 2052.91 1994.98 2054.94 1994.98 2056.64 1994.63 2058.02 1993.92 2059.4 1993.22 2060.51 1992.26 2061.36 1991.03 2062.21 1989.8 2062.82 1988.35 2063.19 1986.69 2063.55 1985.03 2063.73 1983.23 2063.73 1981.28 2063.73 1977.28 2062.91 1974.17 2061.26 1971.94 2059.61 1969.71 2057.29 1968.6 2054.29 1968.6ZM2064.71 1941.81 2066.37 1944.04 2066.37 1946.02C2062.21 1946.02 2058.52 1946.91 2055.3 1948.7 2052.09 1950.48 2049.42 1953.1 2047.3 1956.56 2045.18 1960.02 2043.69 1964.12 2042.82 1968.88L2043.23 1969.04C2045.5 1967.42 2047.73 1966.23 2049.94 1965.47 2052.14 1964.72 2054.52 1964.34 2057.09 1964.34 2060.14 1964.34 2062.74 1965.01 2064.89 1966.35 2067.04 1967.68 2068.65 1969.56 2069.73 1971.98 2070.81 1974.4 2071.35 1977.23 2071.35 1980.47 2071.35 1983.98 2070.68 1987.08 2069.33 1989.77 2067.98 1992.46 2065.89 1994.57 2063.07 1996.11 2060.24 1997.65 2056.76 1998.42 2052.63 1998.42 2046.71 1998.42 2042.25 1996.59 2039.24 1992.91 2036.22 1989.24 2034.72 1983.82 2034.72 1976.66 2034.72 1971.85 2035.47 1967.35 2036.99 1963.16 2038.5 1958.98 2040.65 1955.32 2043.43 1952.2 2046.21 1949.08 2049.44 1946.62 2053.12 1944.83 2056.79 1943.03 2060.65 1942.02 2064.71 1941.81Z" fill-rule="evenodd"/><text fill="#000000" fill-opacity="0" font-family="Arial,Arial_MSFontService,sans-serif" font-size="56.6167" x="2034.72" y="1991.35">6</text><path d="M1528.81 1945.25C1526.94 1945.25 1525.38 1945.81 1524.13 1946.91 1522.87 1948.02 1521.86 1949.61 1521.09 1951.7 1520.32 1953.78 1519.77 1956.31 1519.45 1959.29 1519.12 1962.28 1518.96 1965.65 1518.96 1969.41 1518.96 1978.21 1519.78 1984.68 1521.41 1988.8 1523.05 1992.92 1525.58 1994.98 1529.01 1994.98 1532.28 1994.98 1534.7 1993.04 1536.29 1989.16 1537.87 1985.29 1538.66 1979.28 1538.66 1971.15 1538.66 1964.93 1538.25 1959.9 1537.44 1956.05 1536.63 1952.2 1535.5 1949.44 1534.06 1947.76 1532.61 1946.09 1530.86 1945.25 1528.81 1945.25ZM1529.01 1941.81C1534.93 1941.81 1539.33 1944.09 1542.22 1948.66 1545.11 1953.22 1546.56 1960.12 1546.56 1969.37 1546.56 1978.93 1545.01 1986.16 1541.92 1991.07 1538.82 1995.97 1534.31 1998.42 1528.36 1998.42 1522.53 1998.42 1518.18 1996.13 1515.33 1991.53 1512.48 1986.94 1511.06 1979.97 1511.06 1970.62 1511.06 1965.65 1511.5 1961.35 1512.37 1957.73 1513.25 1954.11 1514.48 1951.12 1516.06 1948.76 1517.64 1946.39 1519.54 1944.64 1521.76 1943.51 1523.97 1942.37 1526.39 1941.81 1529.01 1941.81ZM1486.01 1941.81 1488.24 1941.81C1488.08 1944.4 1488 1947.99 1488 1952.59L1488 1987.2C1488 1988.76 1488.08 1989.95 1488.26 1990.74 1488.43 1991.54 1488.75 1992.19 1489.19 1992.69 1489.64 1993.19 1490.28 1993.58 1491.12 1993.86 1491.95 1994.15 1493.01 1994.36 1494.28 1994.51 1495.55 1994.66 1497.22 1994.76 1499.3 1994.82L1499.3 1997.77 1469.35 1997.77 1469.35 1994.82C1472.35 1994.68 1474.49 1994.5 1475.78 1994.27 1477.06 1994.04 1478.04 1993.7 1478.71 1993.24 1479.39 1992.78 1479.88 1992.13 1480.19 1991.29 1480.5 1990.45 1480.66 1989.09 1480.66 1987.2L1480.66 1954.33C1480.66 1953.25 1480.47 1952.46 1480.09 1951.96 1479.71 1951.46 1479.16 1951.21 1478.43 1951.21 1477.57 1951.21 1476.34 1951.65 1474.74 1952.55 1473.15 1953.44 1471.18 1954.67 1468.83 1956.23L1467.04 1953.11Z" fill-rule="evenodd"/><text fill="#000000" fill-opacity="0" font-family="Arial,Arial_MSFontService,sans-serif" font-size="56.6167" x="1467.04" y="1991.35">10</text><path d="M1581.26 1951.86 1599.62 1970.18 1617.98 1951.86 1621.79 1955.63 1603.63 1974.11 1621.83 1992.51 1617.77 1996.56 1599.62 1978.04 1580.89 1996.4 1577.12 1992.59 1595.64 1974.11 1577.2 1955.91Z" fill-rule="evenodd"/><text fill="#000000" fill-opacity="0" font-family="Arial,Arial_MSFontService,sans-serif" font-size="44.7017" x="1577.12" y="1990.97">×</text><path d="M1674 1958.38C1677.6 1958.38 1680.91 1958.79 1683.93 1959.6L1681.95 1968.76 1677.69 1968.76C1677.64 1966.7 1677.47 1965.22 1677.18 1964.3 1676.9 1963.38 1676.44 1962.69 1675.81 1962.23 1675.17 1961.77 1674.27 1961.54 1673.11 1961.54 1670.38 1961.54 1667.93 1962.63 1665.75 1964.81 1663.58 1966.98 1661.8 1970.06 1660.43 1974.05 1659.05 1978.03 1658.36 1981.86 1658.36 1985.54 1658.36 1988.29 1658.9 1990.34 1659.98 1991.68 1661.06 1993.01 1662.68 1993.68 1664.84 1993.68 1667.3 1993.68 1669.43 1993.22 1671.23 1992.28 1673.02 1991.35 1674.92 1989.89 1676.92 1987.89L1679.39 1990.36C1676.85 1993.17 1674.29 1995.22 1671.71 1996.52 1669.13 1997.82 1666.36 1998.46 1663.38 1998.46 1659.47 1998.46 1656.49 1997.3 1654.47 1994.98 1652.44 1992.65 1651.43 1989.28 1651.43 1984.85 1651.43 1981.96 1651.97 1978.78 1653.05 1975.32 1654.13 1971.86 1655.71 1968.82 1657.79 1966.2 1659.87 1963.58 1662.3 1961.62 1665.09 1960.33 1667.87 1959.03 1670.84 1958.38 1674 1958.38Z" fill-rule="evenodd"/><text fill="#000000" fill-opacity="0" font-family="Arial,Arial_MSFontService,sans-serif" font-size="40.0815" x="1651.43" y="1993.45">𝑐</text><path d="M386.103 1866.16 371.675 1891.69 387.521 1891.69 386.832 1878.64C386.751 1876.86 386.684 1874.63 386.63 1871.96 386.576 1869.28 386.549 1867.35 386.549 1866.16ZM386.346 1857.61 392.466 1857.61 395.383 1902.8C395.519 1904.93 395.762 1906.6 396.113 1907.8 396.464 1909 396.944 1909.9 397.552 1910.48 398.16 1911.06 399.044 1911.43 400.206 1911.59L399.76 1913.58 382.901 1913.58 383.347 1911.59C384.941 1911.46 386.13 1910.83 386.913 1909.73 387.697 1908.62 388.089 1906.67 388.089 1903.89 388.089 1902.84 388.048 1901.69 387.967 1900.45L387.683 1895.22 369.851 1895.22 367.622 1899.19C366.569 1901.05 365.799 1902.66 365.312 1903.99 364.826 1905.33 364.583 1906.51 364.583 1907.54 364.583 1909.81 365.947 1911.16 368.676 1911.59L368.23 1913.58 351.654 1913.58 352.1 1911.59C352.938 1911.48 353.728 1911.15 354.471 1910.6 355.214 1910.04 356.004 1909.21 356.842 1908.09 357.68 1906.96 358.855 1905.11 360.368 1902.51Z" fill-rule="evenodd"/><text fill="#000000" fill-opacity="0" font-family="Arial,Arial_MSFontService,sans-serif" font-size="55.9683" x="351.654" y="1906.58">𝐴</text><path d="M422.52 1892.06 424.337 1892.06C424.297 1893.15 424.267 1894.13 424.247 1894.99 424.227 1895.86 424.212 1896.69 424.203 1897.51 424.193 1898.32 424.188 1899.13 424.188 1899.92L424.188 1922.56C424.188 1923.17 424.207 1923.7 424.247 1924.15 424.287 1924.6 424.351 1924.98 424.441 1925.28 424.53 1925.59 424.649 1925.85 424.798 1926.07 424.947 1926.29 425.121 1926.48 425.319 1926.64 425.558 1926.88 425.875 1927.06 426.273 1927.19 426.67 1927.32 427.176 1927.43 427.792 1927.52 428.407 1927.61 429.147 1927.68 430.011 1927.73 430.874 1927.78 431.912 1927.81 433.123 1927.83L433.123 1930.42 409.504 1930.42 409.504 1927.83C410.675 1927.79 411.668 1927.75 412.482 1927.7 413.296 1927.65 413.991 1927.58 414.567 1927.49 415.143 1927.4 415.605 1927.3 415.952 1927.19 416.3 1927.08 416.602 1926.95 416.86 1926.79 417.138 1926.61 417.377 1926.41 417.575 1926.21 417.774 1926 417.933 1925.73 418.052 1925.42 418.171 1925.1 418.265 1924.71 418.335 1924.26 418.404 1923.8 418.439 1923.23 418.439 1922.56L418.439 1901.2C418.439 1900.43 418.29 1899.88 417.992 1899.56 417.694 1899.25 417.268 1899.09 416.712 1899.09 416.096 1899.09 415.183 1899.4 413.971 1900.04 412.76 1900.68 411.191 1901.62 409.265 1902.87 409.007 1902.41 408.769 1901.96 408.55 1901.5 408.332 1901.04 408.104 1900.58 407.865 1900.1 410.328 1898.75 412.765 1897.4 415.178 1896.06 417.59 1894.72 420.038 1893.39 422.52 1892.06Z" fill-rule="evenodd"/><text fill="#000000" fill-opacity="0" font-family="Arial,Arial_MSFontService,sans-serif" font-size="38.3633" x="407.865" y="1925.63">1</text><path d="M1141.02 1866.16 1126.59 1891.69 1142.44 1891.69 1141.75 1878.64C1141.67 1876.86 1141.6 1874.63 1141.55 1871.96 1141.49 1869.28 1141.47 1867.35 1141.47 1866.16ZM1141.26 1857.61 1147.38 1857.61 1150.3 1902.8C1150.44 1904.93 1150.68 1906.6 1151.03 1907.8 1151.38 1909 1151.86 1909.9 1152.47 1910.48 1153.08 1911.06 1153.96 1911.43 1155.12 1911.59L1154.68 1913.58 1137.82 1913.58 1138.27 1911.59C1139.86 1911.46 1141.05 1910.83 1141.83 1909.73 1142.62 1908.62 1143.01 1906.67 1143.01 1903.89 1143.01 1902.84 1142.97 1901.69 1142.89 1900.45L1142.6 1895.22 1124.77 1895.22 1122.54 1899.19C1121.49 1901.05 1120.72 1902.66 1120.23 1903.99 1119.74 1905.33 1119.5 1906.51 1119.5 1907.54 1119.5 1909.81 1120.87 1911.16 1123.59 1911.59L1123.15 1913.58 1106.57 1913.58 1107.02 1911.59C1107.86 1911.48 1108.65 1911.15 1109.39 1910.6 1110.13 1910.04 1110.92 1909.21 1111.76 1908.09 1112.6 1906.96 1113.77 1905.11 1115.29 1902.51Z" fill-rule="evenodd"/><text fill="#000000" fill-opacity="0" font-family="Arial,Arial_MSFontService,sans-serif" font-size="55.9683" x="1106.57" y="1906.58">𝐴</text><path d="M1175.32 1889.76 1177.46 1889.76 1172.22 1912.94 1173.06 1912.94C1173.81 1912.94 1174.62 1912.78 1175.5 1912.46 1176.37 1912.14 1177.24 1911.73 1178.1 1911.22 1178.97 1910.72 1179.8 1910.15 1180.59 1909.51 1181.39 1908.88 1182.09 1908.24 1182.69 1907.59 1183.3 1906.95 1183.78 1906.33 1184.14 1905.76 1184.49 1905.18 1184.67 1904.7 1184.67 1904.3 1184.67 1903.82 1184.51 1903.44 1184.2 1903.14 1183.88 1902.84 1183.3 1902.64 1182.47 1902.54L1182.83 1900.64 1193.55 1900.64 1194.29 1902.48C1193.04 1903.55 1191.84 1904.55 1190.69 1905.46 1189.54 1906.37 1188.41 1907.25 1187.31 1908.1 1186.21 1908.94 1185.1 1909.77 1184 1910.58 1182.9 1911.4 1181.77 1912.24 1180.62 1913.12 1181.1 1914.62 1181.58 1916.16 1182.08 1917.72 1182.58 1919.28 1183.07 1920.82 1183.57 1922.35 1183.81 1923.16 1184.03 1923.86 1184.24 1924.45 1184.45 1925.03 1184.67 1925.51 1184.91 1925.88 1185.15 1926.25 1185.41 1926.52 1185.68 1926.7 1185.96 1926.88 1186.3 1926.97 1186.7 1926.97 1186.98 1926.97 1187.26 1926.92 1187.56 1926.82 1187.86 1926.72 1188.19 1926.54 1188.56 1926.28 1188.93 1926.02 1189.34 1925.67 1189.81 1925.22 1190.28 1924.78 1190.81 1924.22 1191.4 1923.54L1193.43 1925.48C1192.5 1926.43 1191.63 1927.25 1190.82 1927.95 1190.02 1928.64 1189.25 1929.21 1188.53 1929.66 1187.8 1930.11 1187.1 1930.44 1186.43 1930.64 1185.75 1930.85 1185.07 1930.96 1184.37 1930.96 1183.12 1930.96 1182.12 1930.64 1181.35 1930.02 1180.59 1929.39 1179.94 1928.5 1179.4 1927.34 1178.86 1926.18 1178.37 1924.77 1177.93 1923.12 1177.48 1921.48 1176.96 1919.64 1176.36 1917.61 1176.22 1917.14 1176.09 1916.75 1175.96 1916.47 1175.83 1916.18 1175.67 1915.96 1175.47 1915.81 1175.27 1915.66 1175.02 1915.57 1174.72 1915.53 1174.43 1915.49 1174.05 1915.47 1173.59 1915.47L1171.69 1915.47 1168.41 1930.42 1162.69 1930.42 1169.9 1898.43C1170.14 1897.38 1170.31 1896.55 1170.41 1895.94 1170.5 1895.34 1170.55 1894.8 1170.55 1894.32 1170.55 1893.94 1170.49 1893.62 1170.36 1893.34 1170.23 1893.06 1170.02 1892.84 1169.72 1892.67 1169.42 1892.5 1169.03 1892.38 1168.53 1892.3 1168.03 1892.22 1167.42 1892.17 1166.68 1892.15L1167.13 1890.12Z" fill-rule="evenodd"/><text fill="#000000" fill-opacity="0" font-family="Arial,Arial_MSFontService,sans-serif" font-size="41.1929" x="1162.69" y="1925.81">𝑘</text><path d="M1507.05 1866.16 1492.62 1891.69 1508.47 1891.69 1507.78 1878.64C1507.7 1876.86 1507.63 1874.63 1507.58 1871.96 1507.52 1869.28 1507.5 1867.35 1507.5 1866.16ZM1507.29 1857.61 1513.41 1857.61 1516.33 1902.8C1516.47 1904.93 1516.71 1906.6 1517.06 1907.8 1517.41 1909 1517.89 1909.9 1518.5 1910.48 1519.11 1911.06 1519.99 1911.43 1521.15 1911.59L1520.71 1913.58 1503.85 1913.58 1504.29 1911.59C1505.89 1911.46 1507.08 1910.83 1507.86 1909.73 1508.64 1908.62 1509.04 1906.67 1509.04 1903.89 1509.04 1902.84 1509 1901.69 1508.91 1900.45L1508.63 1895.22 1490.8 1895.22 1488.57 1899.19C1487.52 1901.05 1486.75 1902.66 1486.26 1903.99 1485.77 1905.33 1485.53 1906.51 1485.53 1907.54 1485.53 1909.81 1486.89 1911.16 1489.62 1911.59L1489.18 1913.58 1472.6 1913.58 1473.05 1911.59C1473.89 1911.48 1474.68 1911.15 1475.42 1910.6 1476.16 1910.04 1476.95 1909.21 1477.79 1908.09 1478.63 1906.96 1479.8 1905.11 1481.32 1902.51Z" fill-rule="evenodd"/><text fill="#000000" fill-opacity="0" font-family="Arial,Arial_MSFontService,sans-serif" font-size="55.9683" x="1472.6" y="1906.58">𝐴</text><path d="M1541.35 1889.76 1543.49 1889.76 1538.25 1912.94 1539.08 1912.94C1539.84 1912.94 1540.65 1912.78 1541.53 1912.46 1542.4 1912.14 1543.27 1911.73 1544.13 1911.22 1545 1910.72 1545.83 1910.15 1546.62 1909.51 1547.41 1908.88 1548.11 1908.24 1548.72 1907.59 1549.33 1906.95 1549.81 1906.33 1550.16 1905.76 1550.52 1905.18 1550.7 1904.7 1550.7 1904.3 1550.7 1903.82 1550.54 1903.44 1550.22 1903.14 1549.91 1902.84 1549.33 1902.64 1548.5 1902.54L1548.85 1900.64 1559.58 1900.64 1560.32 1902.48C1559.07 1903.55 1557.87 1904.55 1556.72 1905.46 1555.57 1906.37 1554.44 1907.25 1553.34 1908.1 1552.23 1908.94 1551.13 1909.77 1550.03 1910.58 1548.93 1911.4 1547.8 1912.24 1546.65 1913.12 1547.13 1914.62 1547.61 1916.16 1548.11 1917.72 1548.61 1919.28 1549.1 1920.82 1549.6 1922.35 1549.84 1923.16 1550.06 1923.86 1550.27 1924.45 1550.48 1925.03 1550.7 1925.51 1550.94 1925.88 1551.18 1926.25 1551.44 1926.52 1551.71 1926.7 1551.99 1926.88 1552.33 1926.97 1552.73 1926.97 1553 1926.97 1553.29 1926.92 1553.59 1926.82 1553.89 1926.72 1554.22 1926.54 1554.59 1926.28 1554.95 1926.02 1555.37 1925.67 1555.84 1925.22 1556.31 1924.78 1556.84 1924.22 1557.43 1923.54L1559.46 1925.48C1558.52 1926.43 1557.66 1927.25 1556.85 1927.95 1556.05 1928.64 1555.28 1929.21 1554.56 1929.66 1553.83 1930.11 1553.13 1930.44 1552.46 1930.64 1551.78 1930.85 1551.1 1930.96 1550.4 1930.96 1549.15 1930.96 1548.14 1930.64 1547.38 1930.02 1546.61 1929.39 1545.96 1928.5 1545.43 1927.34 1544.89 1926.18 1544.4 1924.77 1543.95 1923.12 1543.51 1921.48 1542.99 1919.64 1542.39 1917.61 1542.25 1917.14 1542.12 1916.75 1541.99 1916.47 1541.86 1916.18 1541.7 1915.96 1541.5 1915.81 1541.3 1915.66 1541.05 1915.57 1540.75 1915.53 1540.45 1915.49 1540.08 1915.47 1539.62 1915.47L1537.71 1915.47 1534.44 1930.42 1528.72 1930.42 1535.93 1898.43C1536.17 1897.38 1536.33 1896.55 1536.43 1895.94 1536.53 1895.34 1536.58 1894.8 1536.58 1894.32 1536.58 1893.94 1536.52 1893.62 1536.39 1893.34 1536.26 1893.06 1536.05 1892.84 1535.75 1892.67 1535.45 1892.5 1535.05 1892.38 1534.56 1892.3 1534.06 1892.22 1533.44 1892.17 1532.71 1892.15L1533.16 1890.12Z" fill-rule="evenodd"/><text fill="#000000" fill-opacity="0" font-family="Arial,Arial_MSFontService,sans-serif" font-size="41.1929" x="1528.72" y="1925.81">𝑘</text><path d="M1583.47 1895.04 1588.3 1895.04 1588.3 1910.7 1603.04 1910.7 1603.04 1915.26 1588.3 1915.26 1588.3 1930.93 1583.47 1930.93 1583.47 1915.26 1568.73 1915.26 1568.73 1910.7 1583.47 1910.7Z" fill-rule="evenodd"/><text fill="#000000" fill-opacity="0" font-family="Arial,Arial_MSFontService,sans-serif" font-size="35.8911" x="1568.73" y="1926.44">+</text><path d="M1627.34 1892.06 1629.16 1892.06C1629.12 1893.15 1629.09 1894.13 1629.07 1894.99 1629.05 1895.86 1629.03 1896.69 1629.02 1897.51 1629.01 1898.32 1629.01 1899.13 1629.01 1899.92L1629.01 1922.56C1629.01 1923.17 1629.03 1923.7 1629.07 1924.15 1629.11 1924.6 1629.17 1924.98 1629.26 1925.28 1629.35 1925.59 1629.47 1925.85 1629.62 1926.07 1629.77 1926.29 1629.94 1926.48 1630.14 1926.64 1630.38 1926.88 1630.7 1927.06 1631.09 1927.19 1631.49 1927.32 1632 1927.43 1632.61 1927.52 1633.23 1927.61 1633.97 1927.68 1634.83 1927.73 1635.7 1927.78 1636.73 1927.81 1637.95 1927.83L1637.95 1930.42 1614.33 1930.42 1614.33 1927.83C1615.5 1927.79 1616.49 1927.75 1617.3 1927.7 1618.12 1927.65 1618.81 1927.58 1619.39 1927.49 1619.96 1927.4 1620.43 1927.3 1620.77 1927.19 1621.12 1927.08 1621.42 1926.95 1621.68 1926.79 1621.96 1926.61 1622.2 1926.41 1622.4 1926.21 1622.6 1926 1622.75 1925.73 1622.87 1925.42 1622.99 1925.1 1623.09 1924.71 1623.16 1924.26 1623.23 1923.8 1623.26 1923.23 1623.26 1922.56L1623.26 1901.2C1623.26 1900.43 1623.11 1899.88 1622.81 1899.56 1622.52 1899.25 1622.09 1899.09 1621.53 1899.09 1620.92 1899.09 1620 1899.4 1618.79 1900.04 1617.58 1900.68 1616.01 1901.62 1614.09 1902.87 1613.83 1902.41 1613.59 1901.96 1613.37 1901.5 1613.15 1901.04 1612.93 1900.58 1612.69 1900.1 1615.15 1898.75 1617.59 1897.4 1620 1896.06 1622.41 1894.72 1624.86 1893.39 1627.34 1892.06Z" fill-rule="evenodd"/><text fill="#000000" fill-opacity="0" font-family="Arial,Arial_MSFontService,sans-serif" font-size="38.3633" x="1612.69" y="1925.63">1</text><path d="M1926.2 1866.16 1911.77 1891.69 1927.62 1891.69 1926.93 1878.64C1926.85 1876.86 1926.78 1874.63 1926.73 1871.96 1926.67 1869.28 1926.65 1867.35 1926.65 1866.16ZM1926.44 1857.61 1932.56 1857.61 1935.48 1902.8C1935.62 1904.93 1935.86 1906.6 1936.21 1907.8 1936.56 1909 1937.04 1909.9 1937.65 1910.48 1938.26 1911.06 1939.14 1911.43 1940.3 1911.59L1939.86 1913.58 1923 1913.58 1923.44 1911.59C1925.04 1911.46 1926.23 1910.83 1927.01 1909.73 1927.79 1908.62 1928.19 1906.67 1928.19 1903.89 1928.19 1902.84 1928.15 1901.69 1928.06 1900.45L1927.78 1895.22 1909.95 1895.22 1907.72 1899.19C1906.67 1901.05 1905.9 1902.66 1905.41 1903.99 1904.92 1905.33 1904.68 1906.51 1904.68 1907.54 1904.68 1909.81 1906.04 1911.16 1908.77 1911.59L1908.33 1913.58 1891.75 1913.58 1892.2 1911.59C1893.04 1911.48 1893.83 1911.15 1894.57 1910.6 1895.31 1910.04 1896.1 1909.21 1896.94 1908.09 1897.78 1906.96 1898.95 1905.11 1900.47 1902.51Z" fill-rule="evenodd"/><text fill="#000000" fill-opacity="0" font-family="Arial,Arial_MSFontService,sans-serif" font-size="55.9683" x="1891.75" y="1906.58">𝐴</text><path d="M1955.26 1900.01C1956.73 1900.01 1957.86 1900.49 1958.67 1901.45 1959.47 1902.42 1959.87 1903.68 1959.87 1905.25 1959.87 1905.65 1959.84 1906.07 1959.77 1906.5 1959.7 1906.94 1959.57 1907.36 1959.4 1907.75L1959.81 1907.9C1961.74 1905.26 1963.64 1903.29 1965.52 1901.98 1967.39 1900.67 1969.33 1900.01 1971.34 1900.01 1973.44 1900.01 1975.02 1900.58 1976.06 1901.71 1977.1 1902.84 1977.62 1904.43 1977.62 1906.47 1977.62 1907.09 1977.54 1907.94 1977.36 1909.04 1977.18 1910.13 1976.95 1911.32 1976.67 1912.61 1976.39 1913.9 1976.1 1915.23 1975.78 1916.59 1975.46 1917.95 1975.16 1919.2 1974.88 1920.35 1974.61 1921.51 1974.38 1922.49 1974.2 1923.3 1974.02 1924.12 1973.93 1924.62 1973.93 1924.82 1973.93 1925.58 1974.07 1926.12 1974.35 1926.46 1974.63 1926.8 1975.07 1926.97 1975.69 1926.97 1976.07 1926.97 1976.44 1926.9 1976.81 1926.76 1977.17 1926.62 1977.56 1926.4 1977.95 1926.1 1978.35 1925.8 1978.79 1925.42 1979.26 1924.96 1979.74 1924.49 1980.28 1923.93 1980.87 1923.27L1982.93 1925.24C1981.95 1926.23 1981.06 1927.09 1980.25 1927.8 1979.43 1928.51 1978.64 1929.11 1977.88 1929.57 1977.11 1930.04 1976.35 1930.39 1975.6 1930.61 1974.84 1930.84 1974.04 1930.96 1973.19 1930.96 1972.47 1930.96 1971.81 1930.82 1971.21 1930.54 1970.6 1930.26 1970.08 1929.88 1969.64 1929.39 1969.21 1928.91 1968.87 1928.33 1968.63 1927.67 1968.39 1927 1968.27 1926.27 1968.27 1925.48 1968.27 1924.68 1968.36 1923.75 1968.53 1922.69 1968.69 1921.63 1968.95 1920.46 1969.28 1919.19 1969.64 1917.9 1969.97 1916.67 1970.28 1915.48 1970.59 1914.3 1970.86 1913.21 1971.09 1912.21 1971.32 1911.2 1971.49 1910.31 1971.62 1909.53 1971.75 1908.74 1971.82 1908.09 1971.82 1907.58 1971.82 1906.34 1971.58 1905.44 1971.12 1904.87 1970.65 1904.29 1969.9 1904 1968.87 1904 1968.27 1904 1967.63 1904.16 1966.95 1904.46 1966.26 1904.77 1965.57 1905.2 1964.88 1905.74 1964.18 1906.29 1963.5 1906.94 1962.84 1907.68 1962.17 1908.42 1961.56 1909.22 1961 1910.06 1960.45 1910.91 1959.96 1911.79 1959.53 1912.71 1959.1 1913.64 1958.79 1914.56 1958.59 1915.47L1955.26 1930.42 1949.42 1930.42 1953.89 1911C1954.14 1909.97 1954.33 1909.05 1954.45 1908.23 1954.57 1907.42 1954.63 1906.75 1954.63 1906.24 1954.63 1904.79 1954.04 1904.06 1952.87 1904.06 1952.52 1904.06 1952.15 1904.14 1951.79 1904.28 1951.42 1904.43 1951.03 1904.66 1950.62 1904.95 1950.22 1905.25 1949.78 1905.63 1949.3 1906.09 1948.82 1906.54 1948.29 1907.08 1947.69 1907.69L1945.64 1905.76C1946.63 1904.75 1947.54 1903.88 1948.36 1903.15 1949.18 1902.43 1949.97 1901.83 1950.71 1901.37 1951.46 1900.9 1952.2 1900.56 1952.93 1900.34 1953.67 1900.12 1954.44 1900.01 1955.26 1900.01Z" fill-rule="evenodd"/><text fill="#000000" fill-opacity="0" font-family="Arial,Arial_MSFontService,sans-serif" font-size="30.9468" x="1945.64" y="1927.09">𝑛</text><path d="M1382.5 2124.5C1382.5 2149.91 1379.07 2170.5 1374.83 2170.5L850.167 2170.5C845.932 2170.5 842.5 2191.09 842.5 2216.5 842.5 2191.09 839.068 2170.5 834.833 2170.5L310.167 2170.5C305.932 2170.5 302.5 2149.9 302.5 2124.5" stroke="#4472C4" stroke-width="4.58333" stroke-miterlimit="8" fill="none" fill-rule="evenodd"/><path d="M2105.5 2124.5C2105.5 2149.91 2102.07 2170.5 2097.83 2170.5L1754.67 2170.5C1750.43 2170.5 1747 2191.09 1747 2216.5 1747 2191.09 1743.57 2170.5 1739.33 2170.5L1396.17 2170.5C1391.93 2170.5 1388.5 2149.9 1388.5 2124.5" stroke="#4472C4" stroke-width="4.58333" stroke-miterlimit="8" fill="none" fill-rule="evenodd"/><path d="M1685.84 2269.68C1683.97 2269.68 1682.41 2270.23 1681.16 2271.34 1679.9 2272.45 1678.89 2274.04 1678.12 2276.12 1677.35 2278.2 1676.8 2280.74 1676.48 2283.72 1676.15 2286.71 1675.99 2290.08 1675.99 2293.83 1675.99 2302.64 1676.81 2309.1 1678.44 2313.22 1680.08 2317.35 1682.61 2319.41 1686.04 2319.41 1689.31 2319.41 1691.73 2317.47 1693.31 2313.59 1694.9 2309.71 1695.69 2303.71 1695.69 2295.58 1695.69 2289.36 1695.28 2284.33 1694.47 2280.48 1693.66 2276.63 1692.53 2273.87 1691.09 2272.19 1689.64 2270.52 1687.89 2269.68 1685.84 2269.68ZM1686.04 2266.23C1691.96 2266.23 1696.36 2268.52 1699.25 2273.08 1702.14 2277.65 1703.59 2284.55 1703.59 2293.79 1703.59 2303.36 1702.04 2310.59 1698.95 2315.49 1695.85 2320.4 1691.34 2322.85 1685.39 2322.85 1679.56 2322.85 1675.21 2320.55 1672.36 2315.96 1669.51 2311.37 1668.09 2304.4 1668.09 2295.05 1668.09 2290.08 1668.53 2285.78 1669.4 2282.16 1670.28 2278.54 1671.51 2275.55 1673.09 2273.18 1674.67 2270.82 1676.57 2269.07 1678.79 2267.94 1681 2266.8 1683.42 2266.23 1686.04 2266.23ZM1643.04 2266.23 1645.27 2266.23C1645.11 2268.83 1645.02 2272.42 1645.02 2277.01L1645.02 2311.62C1645.02 2313.19 1645.11 2314.37 1645.29 2315.17 1645.46 2315.97 1645.77 2316.62 1646.22 2317.12 1646.67 2317.62 1647.31 2318.01 1648.15 2318.29 1648.98 2318.57 1650.04 2318.79 1651.31 2318.94 1652.58 2319.09 1654.25 2319.19 1656.33 2319.24L1656.33 2322.2 1626.38 2322.2 1626.38 2319.24C1629.38 2319.11 1631.52 2318.93 1632.81 2318.7 1634.09 2318.47 1635.07 2318.12 1635.74 2317.66 1636.42 2317.2 1636.91 2316.55 1637.22 2315.72 1637.53 2314.88 1637.69 2313.52 1637.69 2311.62L1637.69 2278.76C1637.69 2277.68 1637.5 2276.89 1637.12 2276.39 1636.74 2275.89 1636.19 2275.64 1635.46 2275.64 1634.6 2275.64 1633.37 2276.08 1631.77 2276.97 1630.18 2277.86 1628.21 2279.09 1625.86 2280.66L1624.07 2277.54Z" fill-rule="evenodd"/><text fill="#000000" fill-opacity="0" font-family="Arial,Arial_MSFontService,sans-serif" font-size="56.6167" x="1624.07" y="2315.77">10</text><path d="M1738.29 2276.28 1756.65 2294.6 1775 2276.28 1778.81 2280.05 1760.66 2298.53 1778.85 2316.93 1774.8 2320.99 1756.65 2302.46 1737.92 2320.82 1734.15 2317.01 1752.67 2298.53 1734.23 2280.34Z" fill-rule="evenodd"/><text fill="#000000" fill-opacity="0" font-family="Arial,Arial_MSFontService,sans-serif" font-size="44.7017" x="1734.15" y="2315.4">×</text><path d="M1829.05 2293.02C1827.72 2293.02 1826.44 2293.17 1825.22 2293.47 1823.99 2293.76 1822.83 2294.2 1821.75 2294.76 1820.67 2295.33 1819.62 2296.05 1818.59 2296.91 1818.27 2297.21 1818.02 2297.52 1817.86 2297.84 1817.59 2298.36 1817.41 2298.99 1817.33 2299.75 1817.25 2300.51 1817.21 2301.78 1817.21 2303.56 1817.21 2308.72 1818.08 2312.65 1819.81 2315.35 1821.53 2318.05 1824.16 2319.41 1827.67 2319.41 1829.69 2319.41 1831.4 2319.05 1832.77 2318.35 1834.15 2317.65 1835.27 2316.68 1836.12 2315.45 1836.97 2314.22 1837.58 2312.78 1837.94 2311.12 1838.31 2309.46 1838.49 2307.65 1838.49 2305.71 1838.49 2301.71 1837.66 2298.59 1836.02 2296.37 1834.37 2294.14 1832.04 2293.02 1829.05 2293.02ZM1839.46 2266.23 1841.12 2268.46 1841.12 2270.45C1836.96 2270.45 1833.27 2271.34 1830.06 2273.12 1826.84 2274.91 1824.18 2277.53 1822.05 2280.99 1819.93 2284.44 1818.44 2288.55 1817.58 2293.31L1817.98 2293.47C1820.25 2291.85 1822.49 2290.66 1824.69 2289.9 1826.89 2289.14 1829.28 2288.77 1831.84 2288.77 1834.89 2288.77 1837.5 2289.44 1839.64 2290.77 1841.79 2292.11 1843.41 2293.99 1844.49 2296.41 1845.57 2298.82 1846.11 2301.65 1846.11 2304.9 1846.11 2308.41 1845.43 2311.51 1844.08 2314.2 1842.73 2316.89 1840.64 2319 1837.82 2320.54 1835 2322.08 1831.52 2322.85 1827.38 2322.85 1821.47 2322.85 1817 2321.01 1813.99 2317.34 1810.98 2313.66 1809.47 2308.25 1809.47 2301.09 1809.47 2296.28 1810.23 2291.78 1811.74 2287.59 1813.25 2283.4 1815.4 2279.75 1818.18 2276.63 1820.97 2273.51 1824.2 2271.05 1827.87 2269.25 1831.54 2267.46 1835.41 2266.45 1839.46 2266.23Z" fill-rule="evenodd"/><text fill="#000000" fill-opacity="0" font-family="Arial,Arial_MSFontService,sans-serif" font-size="56.6167" x="1809.47" y="2315.77">6</text><path d="M748.846 2266.23C751.899 2266.23 754.573 2266.71 756.87 2267.65 759.167 2268.6 760.923 2269.96 762.138 2271.72 763.354 2273.49 763.962 2275.61 763.962 2278.07 763.962 2280.36 763.503 2282.38 762.584 2284.13 761.666 2285.87 760.376 2287.39 758.714 2288.69 757.052 2289.98 754.898 2291.25 752.25 2292.5L752.25 2292.86C753.898 2293.16 755.485 2293.66 757.012 2294.38 758.538 2295.1 759.896 2296.02 761.085 2297.16 762.274 2298.29 763.226 2299.65 763.942 2301.23 764.658 2302.81 765.016 2304.61 765.016 2306.64 765.016 2309.77 764.334 2312.56 762.969 2314.99 761.605 2317.42 759.518 2319.34 756.708 2320.74 753.898 2322.15 750.48 2322.85 746.454 2322.85 744.131 2322.85 741.625 2322.59 738.937 2322.06 736.248 2321.53 733.783 2320.84 731.54 2319.97L731.54 2311.38 736.404 2311.38C737.349 2314.19 738.599 2316.23 740.152 2317.5 741.706 2318.77 743.82 2319.41 746.495 2319.41 750.007 2319.41 752.662 2318.45 754.459 2316.53 756.255 2314.61 757.154 2311.77 757.154 2308.02 757.154 2304.07 755.965 2301.06 753.587 2298.98 751.21 2296.9 747.724 2295.86 743.131 2295.86L739.484 2295.86 739.484 2292.29C743.131 2292.08 746.204 2291.37 748.704 2290.19 751.203 2289 753.06 2287.47 754.276 2285.61 755.492 2283.74 756.1 2281.65 756.1 2279.32 756.1 2276.32 755.303 2274.01 753.709 2272.39 752.115 2270.77 749.791 2269.96 746.738 2269.96 744.198 2269.96 742.131 2270.65 740.537 2272.03 738.943 2273.41 737.768 2275.51 737.012 2278.35L732.148 2278.35 732.148 2270.65C735.282 2269.16 738.214 2268.06 740.943 2267.33 743.672 2266.6 746.306 2266.23 748.846 2266.23Z" fill-rule="evenodd"/><text fill="#000000" fill-opacity="0" font-family="Arial,Arial_MSFontService,sans-serif" font-size="56.6167" x="731.54" y="2315.77">3</text><path d="M801.3 2276.28 819.659 2294.6 838.018 2276.28 841.827 2280.05 823.671 2298.53 841.868 2316.93 837.815 2320.99 819.659 2302.46 800.935 2320.82 797.166 2317.01 815.687 2298.53 797.247 2280.34Z" fill-rule="evenodd"/><text fill="#000000" fill-opacity="0" font-family="Arial,Arial_MSFontService,sans-serif" font-size="44.7017" x="797.166" y="2315.4">×</text><path d="M936.194 2269.68C934.33 2269.68 932.769 2270.23 931.513 2271.34 930.257 2272.45 929.243 2274.04 928.473 2276.12 927.703 2278.2 927.156 2280.74 926.832 2283.72 926.508 2286.71 926.346 2290.08 926.346 2293.83 926.346 2302.64 927.163 2309.1 928.798 2313.22 930.432 2317.35 932.965 2319.41 936.396 2319.41 939.666 2319.41 942.091 2317.47 943.671 2313.59 945.252 2309.71 946.042 2303.71 946.042 2295.58 946.042 2289.36 945.637 2284.33 944.826 2280.48 944.016 2276.63 942.888 2273.87 941.442 2272.19 939.997 2270.52 938.247 2269.68 936.194 2269.68ZM936.396 2266.23C942.313 2266.23 946.717 2268.52 949.608 2273.08 952.499 2277.65 953.945 2284.55 953.945 2293.79 953.945 2303.36 952.398 2310.59 949.304 2315.49 946.211 2320.4 941.692 2322.85 935.748 2322.85 929.912 2322.85 925.569 2320.55 922.718 2315.96 919.868 2311.37 918.443 2304.4 918.443 2295.05 918.443 2290.08 918.882 2285.78 919.76 2282.16 920.638 2278.54 921.867 2275.55 923.448 2273.18 925.029 2270.82 926.927 2269.07 929.142 2267.94 931.358 2266.8 933.776 2266.23 936.396 2266.23ZM893.395 2266.23 895.624 2266.23C895.462 2268.83 895.381 2272.42 895.381 2277.01L895.381 2311.62C895.381 2313.19 895.469 2314.37 895.645 2315.17 895.82 2315.97 896.131 2316.62 896.577 2317.12 897.023 2317.62 897.664 2318.01 898.502 2318.29 899.339 2318.57 900.393 2318.79 901.663 2318.94 902.933 2319.09 904.608 2319.19 906.688 2319.24L906.688 2322.2 876.739 2322.2 876.739 2319.24C879.738 2319.11 881.879 2318.93 883.162 2318.7 884.446 2318.47 885.425 2318.12 886.101 2317.66 886.776 2317.2 887.269 2316.55 887.58 2315.72 887.891 2314.88 888.046 2313.52 888.046 2311.62L888.046 2278.76C888.046 2277.68 887.857 2276.89 887.478 2276.39 887.1 2275.89 886.546 2275.64 885.817 2275.64 884.952 2275.64 883.723 2276.08 882.129 2276.97 880.535 2277.86 878.562 2279.09 876.212 2280.66L874.429 2277.54Z" fill-rule="evenodd"/><text fill="#000000" fill-opacity="0" font-family="Arial,Arial_MSFontService,sans-serif" font-size="56.6167" x="874.429" y="2315.77">10</text></g></svg>