<svg width="2437" height="692" xmlns="http://www.w3.org/2000/svg" xmlns:xlink="http://www.w3.org/1999/xlink" xml:space="preserve" overflow="hidden"><g transform="translate(-303 -1405)"><rect x="782.5" y="1740.5" width="904" height="90.0001" stroke="#2F528F" stroke-width="4.58333" stroke-miterlimit="8" fill="#00B050"/><rect x="1686.5" y="1740.5" width="124" height="90.0001" stroke="#2F528F" stroke-width="4.58333" stroke-miterlimit="8" fill="#FFC000"/><rect x="1810.5" y="1740.5" width="838" height="90.0001" stroke="#2F528F" stroke-width="4.58333" stroke-miterlimit="8" fill="#0070C0"/><path d="M1686.5 1835.5C1686.5 1859.8 1683.22 1879.5 1679.17 1879.5L1241.83 1879.5C1237.78 1879.5 1234.5 1899.2 1234.5 1923.5 1234.5 1899.2 1231.22 1879.5 1227.17 1879.5L789.833 1879.5C785.783 1879.5 782.5 1859.8 782.5 1835.5" stroke="#4472C4" stroke-width="4.58333" stroke-miterlimit="8" fill="none" fill-rule="evenodd"/><path d="M1686.5 1729.5C1686.5 1705.2 1689.78 1685.5 1693.83 1685.5L1741.17 1685.5C1745.22 1685.5 1748.5 1665.8 1748.5 1641.5 1748.5 1665.8 1751.78 1685.5 1755.83 1685.5L1803.17 1685.5C1807.22 1685.5 1810.5 1705.2 1810.5 1729.5" stroke="#4472C4" stroke-width="4.58333" stroke-miterlimit="8" fill="none" fill-rule="evenodd"/><path d="M2648.5 1844.5C2648.5 1868.8 2645.22 1888.5 2641.17 1888.5L2236.83 1888.5C2232.78 1888.5 2229.5 1908.2 2229.5 1932.5 2229.5 1908.2 2226.22 1888.5 2222.17 1888.5L1817.83 1888.5C1813.78 1888.5 1810.5 1868.8 1810.5 1844.5" stroke="#4472C4" stroke-width="4.58333" stroke-miterlimit="8" fill="none" fill-rule="evenodd"/><text font-family="DengXian,DengXian_MSFontService,sans-serif" font-weight="400" font-size="83" transform="matrix(1 0 0 1 780.528 2024)">仍为</text><path d="M971.425 1988.07C968.669 1988.07 966.197 1989.19 964.008 1991.42 961.82 1993.65 960.097 1996.65 958.841 2000.44 957.585 2004.22 956.957 2007.99 956.957 2011.74 956.957 2014.55 957.342 2016.65 958.112 2018.04 958.882 2019.44 960.172 2020.13 961.982 2020.13 962.82 2020.13 963.671 2019.95 964.535 2019.58 965.4 2019.22 966.298 2018.63 967.23 2017.82 968.162 2017.01 969.081 2016.02 969.986 2014.86 970.891 2013.7 971.722 2012.53 972.479 2011.36 973.235 2010.18 973.938 2008.79 974.586 2007.18 975.234 2005.58 975.788 2003.64 976.248 2001.37L976.612 1999.62C977.018 1997.68 977.22 1995.84 977.22 1994.11 977.22 1992.01 976.774 1990.47 975.883 1989.51 974.991 1988.55 973.505 1988.07 971.425 1988.07ZM988.406 1966.35 990.797 1966.35 980.706 2011.22C980.111 2013.86 979.814 2015.86 979.814 2017.21 979.814 2018.29 979.99 2019.08 980.341 2019.56 980.692 2020.05 981.246 2020.29 982.003 2020.29 982.813 2020.29 983.678 2019.96 984.596 2019.3 985.515 2018.64 986.812 2017.38 988.487 2015.51L990.797 2017.78C988.311 2020.4 986.217 2022.25 984.515 2023.33 982.813 2024.41 980.976 2024.95 979.003 2024.95 977.328 2024.95 975.991 2024.4 974.991 2023.29 973.992 2022.18 973.492 2020.71 973.492 2018.88 973.492 2017.39 973.802 2015.81 974.424 2014.13L973.897 2013.97C971.303 2017.75 968.845 2020.52 966.521 2022.28 964.198 2024.04 961.739 2024.91 959.145 2024.91 956.173 2024.91 953.87 2023.79 952.235 2021.55 950.601 2019.31 949.783 2016.16 949.783 2012.11 949.783 2007.46 950.695 2003 952.519 1998.71 954.343 1994.43 956.849 1991.05 960.037 1988.58 963.225 1986.11 966.778 1984.87 970.695 1984.87 972.344 1984.87 973.863 1985.04 975.255 1985.38 976.646 1985.72 978.071 1986.3 979.53 1987.14L981.638 1977.78C981.854 1976.89 982.043 1975.9 982.205 1974.82 982.367 1973.74 982.448 1972.8 982.448 1971.99 982.448 1971.17 982.3 1970.56 982.003 1970.14 981.705 1969.72 981.28 1969.42 980.726 1969.23 980.172 1969.04 979.179 1968.91 977.747 1968.82L978.233 1966.72Z" fill-rule="evenodd"/><text fill="#000000" fill-opacity="0" font-family="Arial,Arial_MSFontService,sans-serif" font-size="58.6025" x="949.783" y="2017.63">𝑑</text><path d="M1218.35 1961.98 1236.43 1961.98 1236.43 2039.27 1218.35 2039.27 1218.35 2036.15 1229.7 2036.15 1229.7 1965.1 1218.35 1965.1ZM1004.93 1961.98 1023.01 1961.98 1023.01 1965.1 1011.66 1965.1 1011.66 2036.15 1023.01 2036.15 1023.01 2039.27 1004.93 2039.27Z" fill-rule="evenodd"/><path d="M1045.68 1966.35 1048.03 1966.35 1040.09 2001.73 1041.39 2001.73C1043.41 2001.73 1045.69 2000.85 1048.22 1999.08 1050.74 1997.31 1052.76 1995.67 1054.27 1994.15 1055.79 1992.64 1056.54 1991.18 1056.54 1989.78 1056.54 1988.45 1055.62 1987.71 1053.79 1987.55L1054.23 1985.56 1067.36 1985.56 1068.13 1987.55C1065.89 1989.57 1063.51 1991.56 1061 1993.51L1050.95 2001.29 1054.92 2015.92C1055.25 2017.16 1055.54 2018.06 1055.79 2018.61 1056.05 2019.17 1056.35 2019.58 1056.69 2019.85 1057.02 2020.12 1057.48 2020.25 1058.04 2020.25 1058.75 2020.25 1059.58 2019.87 1060.56 2019.12 1061.53 2018.36 1062.64 2017.27 1063.88 2015.84L1066.19 2018.11C1063.76 2020.67 1061.74 2022.46 1060.15 2023.45 1058.56 2024.45 1057.02 2024.95 1055.53 2024.95 1053.69 2024.95 1052.23 2024.43 1051.15 2023.39 1050.07 2022.35 1049.22 2020.62 1048.6 2018.19L1045.93 2007.65C1045.66 2006.6 1045.39 2005.87 1045.11 2005.46 1044.84 2005.06 1044.53 2004.79 1044.18 2004.65 1043.83 2004.52 1043.21 2004.45 1042.32 2004.45L1039.52 2004.45 1035.31 2024.31 1028.3 2024.31 1038.71 1977.98C1039.06 1976.42 1039.31 1975.19 1039.46 1974.32 1039.61 1973.44 1039.68 1972.66 1039.68 1971.99 1039.68 1970.85 1039.34 1970.05 1038.65 1969.59 1037.96 1969.13 1036.73 1968.88 1034.94 1968.82L1035.43 1966.72Z" fill-rule="evenodd"/><text fill="#000000" fill-opacity="0" font-family="Arial,Arial_MSFontService,sans-serif" font-size="58.6025" x="1028.3" y="2017.63">𝑘</text><path d="M1096.61 1997.88 1146.54 1997.88 1146.54 2003.27 1096.61 2003.27Z" fill-rule="evenodd"/><text fill="#000000" fill-opacity="0" font-family="Arial,Arial_MSFontService,sans-serif" font-size="5.39014" x="1096.61" y="2002.6">−</text><path d="M1196.96 1968.34 1199.19 1968.34C1199.02 1970.93 1198.94 1974.52 1198.94 1979.12L1198.94 2013.73C1198.94 2015.3 1199.03 2016.48 1199.21 2017.27 1199.38 2018.07 1199.69 2018.72 1200.14 2019.22 1200.58 2019.72 1201.23 2020.11 1202.06 2020.4 1202.9 2020.68 1203.95 2020.89 1205.22 2021.04 1206.49 2021.19 1208.17 2021.29 1210.25 2021.35L1210.25 2024.31 1180.3 2024.31 1180.3 2021.35C1183.3 2021.21 1185.44 2021.03 1186.72 2020.8 1188.01 2020.57 1188.99 2020.23 1189.66 2019.77 1190.34 2019.31 1190.83 2018.66 1191.14 2017.82 1191.45 2016.98 1191.61 2015.62 1191.61 2013.73L1191.61 1980.86C1191.61 1979.78 1191.42 1978.99 1191.04 1978.49 1190.66 1977.99 1190.11 1977.74 1189.38 1977.74 1188.51 1977.74 1187.28 1978.19 1185.69 1979.08 1184.1 1979.97 1182.12 1981.2 1179.77 1982.77L1177.99 1979.64Z" fill-rule="evenodd"/><text fill="#000000" fill-opacity="0" font-family="Arial,Arial_MSFontService,sans-serif" font-size="55.9683" x="1177.99" y="2017.31">1</text><path d="M1351.73 1961.98 1369.8 1961.98 1369.8 2039.27 1351.73 2039.27 1351.73 2036.15 1363.07 2036.15 1363.07 1965.1 1351.73 1965.1ZM1254.72 1961.98 1272.8 1961.98 1272.8 1965.1 1261.45 1965.1 1261.45 2036.15 1272.8 2036.15 1272.8 2039.27 1254.72 2039.27Z" fill-rule="evenodd"/><path d="M1324.17 2014.9 1332.35 2014.9 1332.35 2024.31 1324.17 2024.31ZM1304.31 2014.9 1312.5 2014.9 1312.5 2024.31 1304.31 2024.31ZM1284.45 2014.9 1292.64 2014.9 1292.64 2024.31 1284.45 2024.31Z" fill-rule="evenodd"/><text fill="#000000" fill-opacity="0" font-family="Arial,Arial_MSFontService,sans-serif" font-size="9.40234" x="1284.45" y="2023.13">…</text><path d="M1393.45 1998.04 1393.45 2020.74 1410.31 2020.74 1410.31 1998.04ZM1424.57 1988.64C1429.76 1992.53 1432.79 1995.4 1433.65 1997.23 1434.52 1999.07 1434.95 2000.42 1434.95 2001.29 1434.95 2002.8 1434.52 2004.1 1433.65 2005.18 1432.79 2006.26 1432.14 2006.8 1431.71 2006.8 1430.84 2006.8 1430.19 2005.29 1429.76 2002.26 1428.9 1997.94 1426.95 1993.72 1423.93 1989.61ZM1393.45 1975.35 1393.45 1996.1 1410.31 1996.1 1410.31 1975.35ZM1430.41 1956.87 1437.54 1961.08C1435.81 1962.16 1433.11 1966.59 1429.44 1974.38L1446.95 1974.38 1450.51 1970.81 1455.37 1975.67 1452.46 1977.94C1452.02 2003.23 1451.43 2017.55 1450.67 2020.9 1449.92 2024.25 1448.84 2026.58 1447.43 2027.87 1446.03 2029.17 1443.81 2030.36 1440.78 2031.44 1439.7 2027.98 1436.14 2025.39 1430.09 2023.66L1430.09 2022.04C1435.49 2023.12 1439.38 2023.66 1441.76 2023.66 1444.14 2023.66 1445.59 2021.82 1446.13 2018.15 1446.67 2014.47 1447.16 2000.53 1447.59 1976.32L1428.79 1976.32C1424.9 1982.59 1420.79 1987.89 1416.47 1992.21L1415.5 1991.56C1420.03 1984.64 1423.39 1978.48 1425.55 1973.08 1427.71 1967.68 1429.33 1962.27 1430.41 1956.87ZM1400.58 1956.54 1407.71 1960.43C1405.55 1961.52 1402.64 1965.84 1398.96 1973.4L1409.66 1973.4 1412.9 1970.16 1417.77 1975.02 1414.52 1977.29C1414.52 2002.58 1414.63 2019.12 1414.85 2026.9L1410.31 2029.49 1410.31 2022.68 1393.45 2022.68 1393.45 2028.2 1388.91 2030.79C1389.13 2020.63 1389.23 2010.53 1389.23 2000.48 1389.23 1990.43 1389.13 1980.43 1388.91 1970.49L1393.77 1973.4 1397.02 1973.4C1399.18 1966.05 1400.37 1960.43 1400.58 1956.54Z" fill-rule="evenodd"/><text fill="#000000" fill-opacity="0" font-family="Arial,Arial_MSFontService,sans-serif" font-size="74.8945" x="1388.91" y="2022.08">的</text><path d="M1560.25 2008.74 1561.54 2008.74C1561.54 2015.01 1561.22 2019.23 1560.57 2021.39 1559.92 2023.55 1559 2024.79 1557.81 2025.12 1556.63 2025.44 1555.49 2025.6 1554.41 2025.6 1553.33 2025.6 1552.52 2025.39 1551.98 2024.95 1551.44 2024.52 1551.17 2024.09 1551.17 2023.66 1551.17 2023.01 1552.03 2021.93 1553.76 2020.42 1556.14 2018.69 1558.3 2014.8 1560.25 2008.74ZM1609.53 2008.09C1613.63 2010.47 1616.61 2012.47 1618.44 2014.09 1620.28 2015.71 1621.14 2017.44 1621.04 2019.28 1620.93 2021.12 1620.44 2022.47 1619.58 2023.33 1618.71 2024.2 1618.17 2024.63 1617.96 2024.63 1617.09 2024.63 1616.34 2023.33 1615.69 2020.74 1614.61 2017.5 1612.34 2013.61 1608.88 2009.07ZM1500.27 2007.45 1500.27 2022.36 1526.85 2022.36 1526.85 2007.45ZM1569.97 2005.5 1577.43 2009.07 1574.84 2011.01 1574.84 2020.42C1574.62 2023.87 1576.13 2025.39 1579.37 2024.95L1598.5 2024.95C1600.23 2025.17 1601.31 2023.93 1601.75 2021.23 1602.18 2018.52 1602.39 2015.44 1602.39 2011.99L1604.02 2011.99C1604.23 2014.8 1604.45 2017.28 1604.66 2019.44 1604.88 2021.6 1606.07 2023.01 1608.23 2023.66 1607.15 2027.12 1604.02 2028.84 1598.83 2028.84L1577.11 2028.84C1572.35 2029.06 1570.08 2026.68 1570.3 2021.71 1570.3 2014.58 1570.19 2009.18 1569.97 2005.5ZM1529.12 2002.26 1533.66 2006.15 1531.07 2008.09 1531.07 2023.66C1531.07 2025.82 1531.17 2027.44 1531.39 2028.52L1526.85 2030.47 1526.85 2024.31 1500.27 2024.31 1500.27 2028.84 1495.73 2030.79C1495.94 2027.33 1496.05 2023.01 1496.05 2017.82 1496.05 2012.63 1495.94 2007.55 1495.73 2002.58L1500.27 2005.5 1526.2 2005.5ZM1581 2000.96C1584.45 2002.48 1587.16 2003.88 1589.1 2005.18 1591.05 2006.47 1592.07 2007.93 1592.18 2009.55 1592.29 2011.18 1591.91 2012.47 1591.05 2013.44 1590.18 2014.42 1589.53 2014.9 1589.1 2014.9 1588.24 2014.9 1587.59 2014.04 1587.16 2012.31 1586.08 2009.5 1583.81 2006.04 1580.35 2001.93ZM1528.8 1990.26 1534.63 1996.1 1503.51 1996.1C1500.7 1996.1 1498.1 1996.42 1495.73 1997.07L1492.81 1994.15 1524.91 1994.15ZM1569.32 1988.32 1569.32 1997.4 1603.37 1997.4 1603.37 1988.32ZM1528.47 1978.27 1534.31 1984.1 1503.18 1984.1C1501.02 1984.1 1498.75 1984.43 1496.37 1985.08L1493.46 1982.16 1524.58 1982.16ZM1569.32 1977.94 1569.32 1986.37 1603.37 1986.37 1603.37 1977.94ZM1569.32 1967.24 1569.32 1976 1603.37 1976 1603.37 1967.24ZM1506.75 1956.87C1511.07 1959.46 1513.77 1961.46 1514.86 1962.87 1515.94 1964.27 1516.48 1965.3 1516.48 1965.95 1516.48 1967.24 1515.61 1968.76 1513.88 1970.49L1528.8 1970.49 1532.69 1966.59 1538.52 1972.43 1498.32 1972.43C1495.51 1972.43 1492.92 1972.76 1490.54 1973.4L1487.62 1970.49 1511.29 1970.49C1511.29 1966.38 1509.45 1962.16 1505.78 1957.84ZM1484.38 1956.54 1490.86 1960.43 1488.27 1962.06C1484.81 1969.62 1482.11 1975.35 1480.16 1979.24L1484.05 1981.51 1481.46 1983.45 1481.46 2031.11 1476.92 2032.74C1477.14 2028.41 1477.25 2024.74 1477.25 2021.71L1477.25 1985.08C1473.14 1991.13 1469.14 1995.99 1465.25 1999.67L1464.6 1998.69C1470.22 1990.91 1474.76 1982.75 1478.22 1974.21 1481.68 1965.68 1483.73 1959.79 1484.38 1956.54ZM1580.67 1955.9 1587.48 1958.81C1585.97 1959.68 1584.56 1960.65 1583.27 1961.73 1581.97 1962.81 1580.89 1964 1580.02 1965.3L1602.72 1965.3 1605.64 1961.73 1610.82 1965.95 1608.23 1968.22 1608.23 1987.99C1608.23 1992.32 1608.34 1996.64 1608.55 2000.96L1603.37 2002.91 1603.37 1999.34 1569.32 1999.34 1569.32 2001.93 1564.14 2003.56C1564.35 1998.8 1564.46 1992.15 1564.46 1983.62 1564.46 1975.08 1564.35 1968 1564.14 1962.38L1569.32 1965.3 1578.08 1965.3C1579.81 1961.19 1580.67 1958.06 1580.67 1955.9Z" fill-rule="evenodd"/><text fill="#000000" fill-opacity="0" font-family="Arial,Arial_MSFontService,sans-serif" font-size="76.8398" x="1464.6" y="2023.13">信息</text><path d="M798.339 1464.81C795.583 1464.81 793.111 1465.92 790.923 1468.15 788.734 1470.38 787.012 1473.39 785.756 1477.17 784.499 1480.95 783.871 1484.72 783.871 1488.48 783.871 1491.29 784.256 1493.39 785.026 1494.78 785.796 1496.17 787.086 1496.87 788.896 1496.87 789.734 1496.87 790.585 1496.69 791.45 1496.32 792.314 1495.96 793.213 1495.37 794.145 1494.56 795.077 1493.75 795.995 1492.76 796.901 1491.6 797.806 1490.44 798.636 1489.27 799.393 1488.09 800.15 1486.92 800.852 1485.53 801.5 1483.92 802.149 1482.31 802.703 1480.37 803.162 1478.1L803.527 1476.36C803.932 1474.42 804.135 1472.58 804.135 1470.85 804.135 1468.74 803.689 1467.21 802.797 1466.25 801.906 1465.29 800.42 1464.81 798.339 1464.81ZM815.32 1443.09 817.711 1443.09 807.62 1487.95C807.026 1490.6 806.728 1492.6 806.728 1493.95 806.728 1495.03 806.904 1495.81 807.255 1496.3 807.607 1496.79 808.16 1497.03 808.917 1497.03 809.727 1497.03 810.592 1496.7 811.511 1496.04 812.429 1495.37 813.726 1494.11 815.401 1492.25L817.711 1494.52C815.226 1497.14 813.132 1498.99 811.43 1500.07 809.727 1501.15 807.89 1501.69 805.918 1501.69 804.243 1501.69 802.905 1501.14 801.906 1500.03 800.906 1498.92 800.406 1497.45 800.406 1495.61 800.406 1494.13 800.717 1492.54 801.338 1490.87L800.811 1490.71C798.218 1494.49 795.759 1497.26 793.435 1499.02 791.112 1500.77 788.653 1501.65 786.06 1501.65 783.088 1501.65 780.784 1500.53 779.15 1498.29 777.515 1496.04 776.698 1492.9 776.698 1488.84 776.698 1484.2 777.61 1479.73 779.433 1475.45 781.257 1471.17 783.763 1467.79 786.951 1465.32 790.139 1462.84 793.692 1461.61 797.61 1461.61 799.258 1461.61 800.778 1461.78 802.169 1462.12 803.561 1462.45 804.986 1463.04 806.445 1463.88L808.552 1454.52C808.768 1453.62 808.957 1452.64 809.12 1451.56 809.282 1450.48 809.363 1449.53 809.363 1448.72 809.363 1447.91 809.214 1447.3 808.917 1446.88 808.62 1446.46 808.194 1446.15 807.64 1445.97 807.086 1445.78 806.094 1445.64 804.662 1445.56L805.148 1443.45Z" fill-rule="evenodd"/><text fill="#000000" fill-opacity="0" font-family="Arial,Arial_MSFontService,sans-serif" font-size="58.6025" x="776.698" y="1494.36">𝑑</text><path d="M985.91 1438.93C993.799 1441.01 999.858 1445.5 1004.09 1452.4 1008.31 1459.31 1010.43 1467.63 1010.43 1477.39 1010.43 1487.17 1008.32 1495.5 1004.11 1502.37 999.892 1509.25 993.826 1513.73 985.91 1515.81L984.937 1512.69C991.178 1510.61 995.819 1506.5 998.858 1500.37 1001.9 1494.23 1003.42 1486.44 1003.42 1476.98 1003.42 1467.85 1001.9 1460.27 998.879 1454.23 995.853 1448.19 991.165 1444.13 984.816 1442.05ZM854.421 1438.93 855.515 1442.05C849.193 1444.13 844.512 1448.19 841.472 1454.23 838.433 1460.27 836.913 1467.85 836.913 1476.98 836.913 1486.44 838.433 1494.23 841.472 1500.37 844.512 1506.5 849.152 1510.61 855.393 1512.69L854.421 1515.81C846.505 1513.73 840.439 1509.25 836.224 1502.37 832.009 1495.5 829.902 1487.17 829.902 1477.39 829.902 1467.63 832.016 1459.31 836.244 1452.4 840.473 1445.5 846.531 1441.01 854.421 1438.93Z" fill-rule="evenodd"/><path d="M877.959 1443.09 880.31 1443.09 872.366 1478.47 873.663 1478.47C875.69 1478.47 877.966 1477.58 880.492 1475.81 883.018 1474.04 885.038 1472.4 886.551 1470.89 888.064 1469.38 888.82 1467.92 888.82 1466.51 888.82 1465.19 887.902 1464.45 886.065 1464.28L886.51 1462.3 899.641 1462.3 900.411 1464.28C898.169 1466.31 895.791 1468.3 893.278 1470.24L883.228 1478.02 887.199 1492.65C887.524 1493.9 887.814 1494.79 888.071 1495.35 888.327 1495.9 888.625 1496.31 888.962 1496.58 889.3 1496.85 889.753 1496.99 890.32 1496.99 891.022 1496.99 891.86 1496.61 892.833 1495.85 893.805 1495.1 894.913 1494 896.156 1492.57L898.466 1494.84C896.034 1497.41 894.021 1499.19 892.427 1500.19 890.833 1501.19 889.293 1501.69 887.807 1501.69 885.97 1501.69 884.511 1501.17 883.43 1500.13 882.35 1499.09 881.498 1497.35 880.877 1494.92L878.202 1484.39C877.932 1483.33 877.662 1482.6 877.392 1482.2 877.122 1481.79 876.811 1481.52 876.46 1481.39 876.108 1481.25 875.487 1481.18 874.595 1481.18L871.799 1481.18 867.584 1501.04 860.573 1501.04 870.988 1454.72C871.34 1453.15 871.59 1451.93 871.738 1451.05 871.887 1450.17 871.961 1449.4 871.961 1448.72 871.961 1447.59 871.617 1446.79 870.928 1446.33 870.239 1445.87 869.003 1445.61 867.219 1445.56L867.706 1443.45Z" fill-rule="evenodd"/><text fill="#000000" fill-opacity="0" font-family="Arial,Arial_MSFontService,sans-serif" font-size="58.6025" x="860.573" y="1494.36">𝑘</text><path d="M909.942 1491.64 917.034 1491.64C917.412 1493.53 917.601 1495.39 917.601 1497.23 917.601 1499.12 917.277 1500.85 916.629 1502.42 915.98 1503.99 914.947 1505.55 913.528 1507.1 912.11 1508.65 910.158 1510.36 907.672 1512.23L905.484 1509.76C906.862 1508.46 907.861 1507.29 908.483 1506.25 909.104 1505.21 909.55 1504.03 909.82 1502.7 910.09 1501.38 910.225 1499.72 910.225 1497.72 910.225 1495.67 910.131 1493.64 909.942 1491.64Z" fill-rule="evenodd"/><text fill="#000000" fill-opacity="0" font-family="Arial,Arial_MSFontService,sans-serif" font-size="20.5879" x="905.484" y="1509.65">,</text><path d="M948.823 1461.65C949.93 1461.65 950.876 1461.8 951.659 1462.09 952.2 1462.31 952.74 1462.67 953.281 1463.17 953.821 1463.67 954.301 1464.36 954.719 1465.26 955.138 1466.15 955.503 1467.15 955.814 1468.26 956.124 1469.36 956.469 1470.96 956.847 1473.04 957.495 1476.52 958.124 1480.19 958.732 1484.04 959.339 1487.89 959.859 1491.46 960.292 1494.76 962.913 1490.98 965.135 1487.28 966.959 1483.66 968.782 1480.04 970.093 1476.89 970.89 1474.21 971.687 1471.54 972.085 1469.36 972.085 1467.69 972.085 1466.42 971.815 1465.55 971.275 1465.09 970.734 1464.63 969.816 1464.36 968.519 1464.28L968.924 1462.3 979.583 1462.3 980.677 1464.32C978.624 1469.94 975.841 1475.96 972.328 1482.36 968.87 1488.63 964.912 1494.87 960.454 1501.08 956.185 1507 952.632 1511.28 949.795 1513.93 947.823 1515.74 945.918 1517.04 944.081 1517.82 942.622 1518.41 941.068 1518.71 939.42 1518.71 938.853 1518.71 938.198 1518.66 937.455 1518.57 936.712 1518.48 936.138 1518.35 935.732 1518.18L937.475 1510.32 940.677 1510.32C940.677 1512.05 941.271 1512.92 942.46 1512.92 944.027 1512.92 945.851 1511.94 947.931 1509.98 950.011 1508.02 952.457 1505.07 955.266 1501.12 954.483 1496.39 953.416 1490.69 952.065 1484.02 950.633 1476.89 949.687 1472.47 949.228 1470.77 948.66 1468.71 948.066 1467.4 947.445 1466.84 947.066 1466.49 946.594 1466.31 946.026 1466.31 945.162 1466.31 944.351 1466.66 943.595 1467.36 942.838 1468.07 941.906 1469.28 940.798 1471.01L938.164 1469.27C940.028 1466.49 941.771 1464.52 943.392 1463.37 945.013 1462.22 946.823 1461.65 948.823 1461.65Z" fill-rule="evenodd"/><text fill="#000000" fill-opacity="0" font-family="Arial,Arial_MSFontService,sans-serif" font-size="57.0625" x="935.732" y="1511.58">𝑦</text><path d="M1046.47 1483.05 1096.4 1483.05 1096.4 1488.44 1046.47 1488.44ZM1046.47 1466.23 1096.4 1466.23 1096.4 1471.62 1046.47 1471.62Z" fill-rule="evenodd"/><text fill="#000000" fill-opacity="0" font-family="Arial,Arial_MSFontService,sans-serif" font-size="22.209" x="1046.47" y="1485.66">=</text><path d="M1220.89 1482.56C1215.4 1482.62 1211.3 1483.34 1208.57 1484.75 1205.84 1486.15 1204.47 1488.28 1204.47 1491.11 1204.47 1492.65 1204.79 1493.87 1205.41 1494.76 1206.03 1495.65 1206.81 1496.27 1207.76 1496.6 1208.7 1496.94 1209.82 1497.11 1211.12 1497.11 1212.96 1497.11 1214.63 1496.66 1216.13 1495.77 1217.63 1494.88 1218.79 1493.75 1219.63 1492.37 1220.47 1490.99 1220.89 1489.63 1220.89 1488.28ZM1235.92 1462.3 1251.81 1462.3 1251.81 1464.28C1249.68 1464.61 1248.61 1465.45 1248.61 1466.8 1248.61 1467.42 1248.75 1468.04 1249.03 1468.66 1249.32 1469.28 1249.76 1469.97 1250.35 1470.73L1255.3 1477.66 1260.56 1470.97C1261.13 1470.24 1261.59 1469.53 1261.94 1468.84 1262.29 1468.15 1262.47 1467.44 1262.47 1466.72 1262.47 1466.09 1262.24 1465.58 1261.78 1465.18 1261.32 1464.77 1260.6 1464.47 1259.63 1464.28L1259.63 1462.3 1272.88 1462.3 1272.88 1464.28C1271.86 1464.58 1270.81 1465.16 1269.74 1466.03 1268.68 1466.89 1267.37 1468.28 1265.83 1470.2L1257.44 1480.49 1266.68 1492.94C1268.01 1494.72 1269.2 1496.08 1270.25 1497.03 1271.3 1497.98 1272.36 1498.65 1273.41 1499.06L1273.41 1501.04 1257.12 1501.04 1257.12 1499.06C1259.36 1498.79 1260.48 1497.95 1260.48 1496.54 1260.48 1495.98 1260.39 1495.44 1260.2 1494.92 1260.01 1494.41 1259.66 1493.81 1259.15 1493.14L1253.27 1484.95 1247.03 1493.06C1246.57 1493.65 1246.21 1494.2 1245.95 1494.7 1245.7 1495.2 1245.57 1495.76 1245.57 1496.38 1245.57 1497.11 1245.82 1497.71 1246.32 1498.18 1246.82 1498.66 1247.61 1498.95 1248.69 1499.06L1248.69 1501.04 1235.15 1501.04 1235.15 1499.06C1236.05 1498.73 1236.85 1498.33 1237.56 1497.84 1238.28 1497.35 1239.01 1496.73 1239.75 1495.96 1240.5 1495.19 1241.48 1494.06 1242.69 1492.57L1251.12 1482.12 1242.49 1470.28C1241.3 1468.66 1240.35 1467.49 1239.65 1466.76 1238.95 1466.03 1238.3 1465.47 1237.71 1465.09 1237.11 1464.72 1236.52 1464.45 1235.92 1464.28ZM1153.02 1461.65C1155.72 1461.65 1157.93 1462.27 1159.63 1463.51 1161.33 1464.76 1162.51 1466.66 1163.16 1469.23 1165.18 1467.17 1166.82 1465.66 1168.08 1464.69 1169.34 1463.72 1170.62 1462.97 1171.93 1462.44 1173.24 1461.91 1174.65 1461.65 1176.16 1461.65 1177.97 1461.65 1179.53 1461.91 1180.85 1462.44 1182.16 1462.97 1183.26 1463.78 1184.17 1464.87 1185.07 1465.97 1185.74 1467.34 1186.15 1468.98 1186.57 1470.63 1186.78 1472.85 1186.78 1475.63L1186.78 1490.91C1186.78 1492.96 1186.85 1494.38 1186.99 1495.17 1187.12 1495.95 1187.32 1496.56 1187.57 1496.99 1187.83 1497.42 1188.21 1497.79 1188.73 1498.1 1189.24 1498.41 1190.11 1498.73 1191.32 1499.06L1191.32 1501.04 1175.39 1501.04 1175.39 1499.06C1176.45 1498.73 1177.2 1498.45 1177.66 1498.2 1178.12 1497.96 1178.51 1497.62 1178.82 1497.19 1179.13 1496.76 1179.37 1496.09 1179.55 1495.19 1179.72 1494.28 1179.81 1492.91 1179.81 1491.07L1179.81 1480.45C1179.81 1478.16 1179.75 1476.26 1179.63 1474.76 1179.51 1473.26 1179.32 1472.06 1179.06 1471.17 1178.81 1470.28 1178.49 1469.58 1178.13 1469.07 1177.77 1468.55 1177.35 1468.11 1176.89 1467.73 1176.43 1467.35 1175.89 1467.05 1175.27 1466.84 1174.65 1466.62 1173.83 1466.51 1172.8 1466.51 1171.72 1466.51 1170.71 1466.73 1169.78 1467.16 1168.85 1467.59 1167.84 1468.32 1166.74 1469.35 1165.65 1470.38 1164.86 1471.41 1164.37 1472.45 1163.88 1473.49 1163.64 1474.71 1163.64 1476.12L1163.64 1490.91C1163.64 1492.96 1163.71 1494.38 1163.84 1495.17 1163.98 1495.95 1164.17 1496.56 1164.43 1496.99 1164.69 1497.42 1165.07 1497.79 1165.59 1498.1 1166.1 1498.41 1166.96 1498.73 1168.18 1499.06L1168.18 1501.04 1152.25 1501.04 1152.25 1499.06C1153.31 1498.73 1154.06 1498.45 1154.52 1498.2 1154.98 1497.96 1155.37 1497.62 1155.68 1497.19 1155.99 1496.76 1156.23 1496.09 1156.41 1495.19 1156.58 1494.28 1156.67 1492.91 1156.67 1491.07L1156.67 1480.45C1156.67 1478.05 1156.6 1476.09 1156.47 1474.58 1156.33 1473.06 1156.12 1471.85 1155.84 1470.93 1155.56 1470.01 1155.19 1469.27 1154.75 1468.7 1154.3 1468.13 1153.85 1467.7 1153.39 1467.4 1152.93 1467.11 1152.39 1466.88 1151.77 1466.74 1151.15 1466.59 1150.44 1466.51 1149.66 1466.51 1148.55 1466.51 1147.51 1466.76 1146.54 1467.26 1145.57 1467.76 1144.57 1468.48 1143.56 1469.43 1142.55 1470.38 1141.78 1471.36 1141.27 1472.39 1140.76 1473.42 1140.5 1474.52 1140.5 1475.71L1140.5 1490.91C1140.5 1492.45 1140.54 1493.63 1140.62 1494.44 1140.7 1495.25 1140.83 1495.88 1141.01 1496.34 1141.18 1496.8 1141.41 1497.17 1141.68 1497.46 1141.95 1497.74 1142.33 1498.01 1142.83 1498.27 1143.33 1498.52 1144.08 1498.79 1145.08 1499.06L1145.08 1501.04 1129.19 1501.04 1129.19 1499.06C1130.22 1498.73 1130.96 1498.45 1131.4 1498.2 1131.85 1497.96 1132.23 1497.62 1132.56 1497.19 1132.88 1496.76 1133.12 1496.1 1133.29 1495.21 1133.45 1494.31 1133.53 1492.92 1133.53 1491.03L1133.53 1473.36C1133.53 1471.63 1133.5 1470.24 1133.45 1469.19 1133.39 1468.13 1133.21 1467.29 1132.88 1466.65 1132.56 1466.02 1132.06 1465.55 1131.4 1465.24 1130.74 1464.93 1129.8 1464.66 1128.59 1464.45L1128.59 1462.3 1138.07 1461.93 1140.54 1461.93 1140.09 1468.54 1140.66 1468.7C1142.28 1467.08 1143.61 1465.86 1144.65 1465.03 1145.69 1464.21 1146.7 1463.55 1147.67 1463.05 1148.65 1462.55 1149.56 1462.19 1150.41 1461.97 1151.26 1461.76 1152.13 1461.65 1153.02 1461.65ZM1216.51 1461.61C1219.19 1461.61 1221.33 1462.03 1222.96 1462.89 1224.58 1463.74 1225.79 1465.04 1226.6 1466.8 1227.41 1468.55 1227.82 1471.2 1227.82 1474.74L1227.82 1488.84C1227.82 1490.84 1227.83 1492.25 1227.86 1493.08 1227.89 1493.9 1227.97 1494.67 1228.1 1495.37 1228.24 1496.07 1228.44 1496.63 1228.71 1497.05 1228.98 1497.47 1229.38 1497.83 1229.91 1498.12 1230.43 1498.42 1231.29 1498.73 1232.48 1499.06L1232.48 1501.04 1221.37 1501.04 1221.58 1495.25 1220.97 1495.08C1218.62 1497.49 1216.41 1499.19 1214.34 1500.19 1212.28 1501.19 1210.08 1501.69 1207.76 1501.69 1205.7 1501.69 1203.89 1501.29 1202.33 1500.49 1200.76 1499.7 1199.56 1498.58 1198.72 1497.13 1197.88 1495.69 1197.46 1494.02 1197.46 1492.13 1197.46 1488.18 1199.42 1485.13 1203.32 1482.99 1207.22 1480.84 1213.08 1479.59 1220.89 1479.24L1220.89 1476.6C1220.89 1473.79 1220.62 1471.58 1220.08 1469.96 1219.54 1468.34 1218.69 1467.15 1217.52 1466.39 1216.36 1465.63 1214.81 1465.26 1212.86 1465.26 1210.76 1465.26 1209.06 1465.81 1207.78 1466.92 1206.49 1468.03 1205.53 1469.69 1204.88 1471.9L1199.57 1471.9 1199.57 1466.63C1202.16 1465.28 1204.33 1464.29 1206.06 1463.66 1207.78 1463.02 1209.51 1462.52 1211.24 1462.16 1212.97 1461.79 1214.73 1461.61 1216.51 1461.61Z" fill-rule="evenodd"/><text fill="#000000" fill-opacity="0" font-family="Arial,Arial_MSFontService,sans-serif" font-size="40.0815" x="1128.59" y="1496.68">max</text><path d="M1302.83 1442.32 1303.89 1442.32 1303.89 1445.4 1303.28 1445.4C1299.36 1445.4 1296.29 1446.42 1294.08 1448.46 1291.86 1450.5 1290.76 1453.85 1290.76 1458.53 1290.76 1460.42 1291.03 1462.76 1291.57 1465.54 1292.11 1468.32 1292.38 1470.31 1292.38 1471.5 1292.38 1473.79 1291.7 1475.68 1290.35 1477.15 1289 1478.62 1287.39 1479.71 1285.53 1480.41L1285.53 1481.14C1287.39 1481.85 1289 1482.93 1290.35 1484.41 1291.7 1485.88 1292.38 1487.76 1292.38 1490.06 1292.38 1491.25 1292.11 1493.23 1291.57 1496.02 1291.03 1498.8 1290.76 1501.14 1290.76 1503.03 1290.76 1507.94 1291.86 1511.42 1294.08 1513.46 1296.29 1515.5 1299.36 1516.52 1303.28 1516.52L1303.89 1516.52 1303.89 1519.6 1302.83 1519.6C1296.48 1519.5 1291.73 1518.04 1288.59 1515.25 1285.44 1512.45 1283.87 1508.13 1283.87 1502.3 1283.87 1500.06 1284.18 1497.5 1284.82 1494.64 1285.45 1491.77 1285.77 1489.86 1285.77 1488.88 1285.77 1487.02 1285.13 1485.5 1283.85 1484.32 1282.56 1483.15 1280.62 1482.52 1278.03 1482.44L1278.03 1479.12C1280.62 1479.04 1282.56 1478.41 1283.85 1477.23 1285.13 1476.06 1285.77 1474.54 1285.77 1472.67 1285.77 1471.7 1285.45 1469.78 1284.82 1466.92 1284.18 1464.05 1283.87 1461.5 1283.87 1459.26 1283.87 1453.67 1285.44 1449.47 1288.59 1446.67 1291.73 1443.88 1296.48 1442.43 1302.83 1442.32Z" fill-rule="evenodd"/><text fill="#000000" fill-opacity="0" font-family="Arial,Arial_MSFontService,sans-serif" font-size="77.2856" x="1278.03" y="1509.94">{</text><path d="M1332.16 1464.81C1329.4 1464.81 1326.93 1465.92 1324.74 1468.15 1322.56 1470.38 1320.83 1473.39 1319.58 1477.17 1318.32 1480.95 1317.69 1484.72 1317.69 1488.48 1317.69 1491.29 1318.08 1493.39 1318.85 1494.78 1319.62 1496.17 1320.91 1496.87 1322.72 1496.87 1323.55 1496.87 1324.41 1496.69 1325.27 1496.32 1326.14 1495.96 1327.03 1495.37 1327.97 1494.56 1328.9 1493.75 1329.82 1492.76 1330.72 1491.6 1331.63 1490.44 1332.46 1489.27 1333.21 1488.09 1333.97 1486.92 1334.67 1485.53 1335.32 1483.92 1335.97 1482.31 1336.52 1480.37 1336.98 1478.1L1337.35 1476.36C1337.75 1474.42 1337.96 1472.58 1337.96 1470.85 1337.96 1468.74 1337.51 1467.21 1336.62 1466.25 1335.73 1465.29 1334.24 1464.81 1332.16 1464.81ZM1349.14 1443.09 1351.53 1443.09 1341.44 1487.95C1340.85 1490.6 1340.55 1492.6 1340.55 1493.95 1340.55 1495.03 1340.72 1495.81 1341.08 1496.3 1341.43 1496.79 1341.98 1497.03 1342.74 1497.03 1343.55 1497.03 1344.41 1496.7 1345.33 1496.04 1346.25 1495.37 1347.55 1494.11 1349.22 1492.25L1351.53 1494.52C1349.05 1497.14 1346.95 1498.99 1345.25 1500.07 1343.55 1501.15 1341.71 1501.69 1339.74 1501.69 1338.06 1501.69 1336.73 1501.14 1335.73 1500.03 1334.73 1498.92 1334.23 1497.45 1334.23 1495.61 1334.23 1494.13 1334.54 1492.54 1335.16 1490.87L1334.63 1490.71C1332.04 1494.49 1329.58 1497.26 1327.26 1499.02 1324.93 1500.77 1322.47 1501.65 1319.88 1501.65 1316.91 1501.65 1314.6 1500.53 1312.97 1498.29 1311.34 1496.04 1310.52 1492.9 1310.52 1488.84 1310.52 1484.2 1311.43 1479.73 1313.25 1475.45 1315.08 1471.17 1317.58 1467.79 1320.77 1465.32 1323.96 1462.84 1327.51 1461.61 1331.43 1461.61 1333.08 1461.61 1334.6 1461.78 1335.99 1462.12 1337.38 1462.45 1338.81 1463.04 1340.27 1463.88L1342.37 1454.52C1342.59 1453.62 1342.78 1452.64 1342.94 1451.56 1343.1 1450.48 1343.18 1449.53 1343.18 1448.72 1343.18 1447.91 1343.03 1447.3 1342.74 1446.88 1342.44 1446.46 1342.01 1446.15 1341.46 1445.97 1340.91 1445.78 1339.91 1445.64 1338.48 1445.56L1338.97 1443.45Z" fill-rule="evenodd"/><text fill="#000000" fill-opacity="0" font-family="Arial,Arial_MSFontService,sans-serif" font-size="58.6025" x="1310.52" y="1494.36">𝑑</text><path d="M1862.47 1438.93C1870.36 1441.01 1876.42 1445.5 1880.65 1452.4 1884.88 1459.31 1886.99 1467.63 1886.99 1477.39 1886.99 1487.17 1884.88 1495.5 1880.67 1502.37 1876.45 1509.25 1870.39 1513.73 1862.47 1515.81L1861.5 1512.69C1867.74 1510.61 1872.38 1506.5 1875.42 1500.37 1878.46 1494.23 1879.98 1486.44 1879.98 1476.98 1879.98 1467.85 1878.47 1460.27 1875.44 1454.23 1872.42 1448.19 1867.73 1444.13 1861.38 1442.05ZM1388.24 1438.93 1389.34 1442.05C1383.01 1444.13 1378.33 1448.19 1375.29 1454.23 1372.25 1460.27 1370.73 1467.85 1370.73 1476.98 1370.73 1486.44 1372.25 1494.23 1375.29 1500.37 1378.33 1506.5 1382.97 1510.61 1389.21 1512.69L1388.24 1515.81C1380.33 1513.73 1374.26 1509.25 1370.04 1502.37 1365.83 1495.5 1363.72 1487.17 1363.72 1477.39 1363.72 1467.63 1365.84 1459.31 1370.07 1452.4 1374.29 1445.5 1380.35 1441.01 1388.24 1438.93Z" fill-rule="evenodd"/><path d="M1411.78 1443.09 1414.13 1443.09 1406.19 1478.47 1407.48 1478.47C1409.51 1478.47 1411.79 1477.58 1414.31 1475.81 1416.84 1474.04 1418.86 1472.4 1420.37 1470.89 1421.88 1469.38 1422.64 1467.92 1422.64 1466.51 1422.64 1465.19 1421.72 1464.45 1419.89 1464.28L1420.33 1462.3 1433.46 1462.3 1434.23 1464.28C1431.99 1466.31 1429.61 1468.3 1427.1 1470.24L1417.05 1478.02 1421.02 1492.65C1421.34 1493.9 1421.63 1494.79 1421.89 1495.35 1422.15 1495.9 1422.45 1496.31 1422.78 1496.58 1423.12 1496.85 1423.57 1496.99 1424.14 1496.99 1424.84 1496.99 1425.68 1496.61 1426.65 1495.85 1427.63 1495.1 1428.73 1494 1429.98 1492.57L1432.29 1494.84C1429.86 1497.41 1427.84 1499.19 1426.25 1500.19 1424.65 1501.19 1423.11 1501.69 1421.63 1501.69 1419.79 1501.69 1418.33 1501.17 1417.25 1500.13 1416.17 1499.09 1415.32 1497.35 1414.7 1494.92L1412.02 1484.39C1411.75 1483.33 1411.48 1482.6 1411.21 1482.2 1410.94 1481.79 1410.63 1481.52 1410.28 1481.39 1409.93 1481.25 1409.31 1481.18 1408.42 1481.18L1405.62 1481.18 1401.4 1501.04 1394.39 1501.04 1404.81 1454.72C1405.16 1453.15 1405.41 1451.93 1405.56 1451.05 1405.71 1450.17 1405.78 1449.4 1405.78 1448.72 1405.78 1447.59 1405.44 1446.79 1404.75 1446.33 1404.06 1445.87 1402.82 1445.61 1401.04 1445.56L1401.53 1443.45Z" fill-rule="evenodd"/><text fill="#000000" fill-opacity="0" font-family="Arial,Arial_MSFontService,sans-serif" font-size="58.6025" x="1394.39" y="1494.36">𝑘</text><path d="M1462.7 1474.62 1512.63 1474.62 1512.63 1480.01 1462.7 1480.01Z" fill="#FF0000" fill-rule="evenodd"/><text fill="#000000" fill-opacity="0" font-family="Arial,Arial_MSFontService,sans-serif" font-size="5.39014" x="1462.7" y="1479.33">−</text><path d="M1563.05 1445.07 1565.28 1445.07C1565.12 1447.67 1565.04 1451.26 1565.04 1455.85L1565.04 1490.46C1565.04 1492.03 1565.13 1493.21 1565.3 1494.01 1565.48 1494.81 1565.79 1495.46 1566.24 1495.96 1566.68 1496.46 1567.32 1496.85 1568.16 1497.13 1569 1497.41 1570.05 1497.63 1571.32 1497.78 1572.59 1497.93 1574.27 1498.03 1576.35 1498.08L1576.35 1501.04 1546.4 1501.04 1546.4 1498.08C1549.4 1497.95 1551.54 1497.77 1552.82 1497.54 1554.1 1497.31 1555.08 1496.96 1555.76 1496.5 1556.43 1496.04 1556.93 1495.39 1557.24 1494.56 1557.55 1493.72 1557.7 1492.36 1557.7 1490.46L1557.7 1457.6C1557.7 1456.52 1557.52 1455.73 1557.14 1455.23 1556.76 1454.73 1556.21 1454.48 1555.48 1454.48 1554.61 1454.48 1553.38 1454.92 1551.79 1455.81 1550.19 1456.7 1548.22 1457.93 1545.87 1459.5L1544.09 1456.38Z" fill="#FF0000" fill-rule="evenodd"/><text fill="#000000" fill-opacity="0" font-family="Arial,Arial_MSFontService,sans-serif" font-size="55.9683" x="1544.09" y="1494.05">1</text><path d="M1588.14 1491.64 1595.23 1491.64C1595.61 1493.53 1595.8 1495.39 1595.8 1497.23 1595.8 1499.12 1595.47 1500.85 1594.82 1502.42 1594.18 1503.99 1593.14 1505.55 1591.72 1507.1 1590.31 1508.65 1588.35 1510.36 1585.87 1512.23L1583.68 1509.76C1585.06 1508.46 1586.06 1507.29 1586.68 1506.25 1587.3 1505.21 1587.75 1504.03 1588.02 1502.7 1588.29 1501.38 1588.42 1499.72 1588.42 1497.72 1588.42 1495.67 1588.33 1493.64 1588.14 1491.64Z" fill-rule="evenodd"/><text fill="#000000" fill-opacity="0" font-family="Arial,Arial_MSFontService,sans-serif" font-size="20.5879" x="1583.68" y="1509.65">,</text><path d="M1627.02 1461.65C1628.13 1461.65 1629.07 1461.8 1629.86 1462.09 1630.4 1462.31 1630.94 1462.67 1631.48 1463.17 1632.02 1463.67 1632.5 1464.36 1632.92 1465.26 1633.33 1466.15 1633.7 1467.15 1634.01 1468.26 1634.32 1469.36 1634.66 1470.96 1635.04 1473.04 1635.69 1476.52 1636.32 1480.19 1636.93 1484.04 1637.54 1487.89 1638.06 1491.46 1638.49 1494.76 1641.11 1490.98 1643.33 1487.28 1645.15 1483.66 1646.98 1480.04 1648.29 1476.89 1649.09 1474.21 1649.88 1471.54 1650.28 1469.36 1650.28 1467.69 1650.28 1466.42 1650.01 1465.55 1649.47 1465.09 1648.93 1464.63 1648.01 1464.36 1646.71 1464.28L1647.12 1462.3 1657.78 1462.3 1658.87 1464.32C1656.82 1469.94 1654.04 1475.96 1650.52 1482.36 1647.07 1488.63 1643.11 1494.87 1638.65 1501.08 1634.38 1507 1630.83 1511.28 1627.99 1513.93 1626.02 1515.74 1624.11 1517.04 1622.28 1517.82 1620.82 1518.41 1619.26 1518.71 1617.62 1518.71 1617.05 1518.71 1616.39 1518.66 1615.65 1518.57 1614.91 1518.48 1614.33 1518.35 1613.93 1518.18L1615.67 1510.32 1618.87 1510.32C1618.87 1512.05 1619.47 1512.92 1620.66 1512.92 1622.22 1512.92 1624.05 1511.94 1626.13 1509.98 1628.21 1508.02 1630.65 1505.07 1633.46 1501.12 1632.68 1496.39 1631.61 1490.69 1630.26 1484.02 1628.83 1476.89 1627.88 1472.47 1627.42 1470.77 1626.86 1468.71 1626.26 1467.4 1625.64 1466.84 1625.26 1466.49 1624.79 1466.31 1624.22 1466.31 1623.36 1466.31 1622.55 1466.66 1621.79 1467.36 1621.03 1468.07 1620.1 1469.28 1618.99 1471.01L1616.36 1469.27C1618.22 1466.49 1619.97 1464.52 1621.59 1463.37 1623.21 1462.22 1625.02 1461.65 1627.02 1461.65Z" fill-rule="evenodd"/><text fill="#000000" fill-opacity="0" font-family="Arial,Arial_MSFontService,sans-serif" font-size="57.0625" x="1613.93" y="1511.58">𝑦</text><path d="M1685.84 1474.62 1735.77 1474.62 1735.77 1480.01 1685.84 1480.01Z" fill-rule="evenodd"/><text fill="#000000" fill-opacity="0" font-family="Arial,Arial_MSFontService,sans-serif" font-size="5.39014" x="1685.84" y="1479.33">−</text><path d="M1762.69 1462.3 1773.31 1462.3 1775.74 1494.27C1779.55 1488.06 1782.3 1483.33 1783.98 1480.09 1785.67 1476.85 1786.92 1474.04 1787.73 1471.68 1788.54 1469.32 1789.17 1466.85 1789.6 1464.28L1790.04 1462.3 1795.88 1462.3 1798.84 1494.31C1803.05 1488.32 1806.26 1483.08 1808.46 1478.61 1810.67 1474.14 1811.77 1470.5 1811.77 1467.69 1811.77 1466.42 1811.5 1465.55 1810.96 1465.09 1810.42 1464.63 1809.5 1464.36 1808.2 1464.28L1808.61 1462.3 1819.06 1462.3 1820.16 1464.32C1819.21 1466.73 1818.45 1468.58 1817.89 1469.88 1817.32 1471.17 1816.58 1472.73 1815.66 1474.56 1814.74 1476.38 1813.77 1478.2 1812.74 1480.01 1811.71 1481.82 1810.5 1483.81 1809.11 1485.99 1807.72 1488.16 1806.16 1490.52 1804.43 1493.08 1802.7 1495.63 1800.66 1498.5 1798.31 1501.69L1793.49 1501.69 1791.83 1484.75C1791.69 1483.43 1791.55 1481.7 1791.4 1479.56 1791.25 1477.43 1791.15 1475.78 1791.1 1474.62L1790.65 1474.58C1789.19 1478.17 1787.21 1482.17 1784.69 1486.57 1782.18 1490.98 1779.07 1496.02 1775.37 1501.69L1769.94 1501.69 1766.86 1471.17C1766.7 1469.61 1766.5 1468.34 1766.25 1467.36 1766.01 1466.39 1765.61 1465.66 1765.04 1465.18 1764.47 1464.69 1763.54 1464.39 1762.24 1464.28Z" fill-rule="evenodd"/><text fill="#000000" fill-opacity="0" font-family="Arial,Arial_MSFontService,sans-serif" font-size="39.3926" x="1762.24" y="1496.77">𝑤</text><path d="M1834.08 1477.23 1836.22 1477.23 1830.98 1500.4 1831.81 1500.4C1832.57 1500.4 1833.38 1500.24 1834.26 1499.93 1835.13 1499.61 1836 1499.2 1836.86 1498.69 1837.72 1498.18 1838.55 1497.61 1839.35 1496.98 1840.14 1496.34 1840.84 1495.7 1841.45 1495.06 1842.05 1494.41 1842.54 1493.8 1842.89 1493.22 1843.25 1492.65 1843.43 1492.16 1843.43 1491.76 1843.43 1491.29 1843.27 1490.9 1842.95 1490.6 1842.63 1490.3 1842.06 1490.11 1841.22 1490.01L1841.58 1488.1 1852.3 1488.1 1853.05 1489.95C1851.8 1491.02 1850.6 1492.01 1849.45 1492.93 1848.29 1493.84 1847.17 1494.72 1846.06 1495.56 1844.96 1496.41 1843.86 1497.23 1842.76 1498.05 1841.66 1498.86 1840.53 1499.71 1839.38 1500.58 1839.85 1502.09 1840.34 1503.62 1840.84 1505.18 1841.33 1506.74 1841.83 1508.28 1842.33 1509.81 1842.57 1510.63 1842.79 1511.33 1843 1511.91 1843.21 1512.5 1843.43 1512.98 1843.67 1513.34 1843.91 1513.71 1844.16 1513.98 1844.44 1514.16 1844.72 1514.34 1845.06 1514.43 1845.45 1514.43 1845.73 1514.43 1846.02 1514.38 1846.32 1514.28 1846.62 1514.18 1846.95 1514 1847.32 1513.75 1847.68 1513.49 1848.1 1513.13 1848.57 1512.69 1849.03 1512.24 1849.56 1511.68 1850.16 1511.01L1852.19 1512.94C1851.25 1513.89 1850.38 1514.72 1849.58 1515.41 1848.78 1516.11 1848.01 1516.68 1847.29 1517.13 1846.56 1517.57 1845.86 1517.9 1845.19 1518.11 1844.51 1518.32 1843.83 1518.42 1843.13 1518.42 1841.88 1518.42 1840.87 1518.11 1840.11 1517.48 1839.34 1516.86 1838.69 1515.96 1838.16 1514.8 1837.62 1513.64 1837.13 1512.24 1836.68 1510.59 1836.24 1508.94 1835.71 1507.1 1835.12 1505.08 1834.98 1504.6 1834.85 1504.22 1834.72 1503.93 1834.59 1503.64 1834.42 1503.42 1834.23 1503.28 1834.03 1503.13 1833.78 1503.03 1833.48 1502.99 1833.18 1502.95 1832.81 1502.93 1832.35 1502.93L1830.44 1502.93 1827.17 1517.89 1821.45 1517.89 1828.66 1485.9C1828.89 1484.84 1829.06 1484.01 1829.16 1483.41 1829.26 1482.8 1829.31 1482.26 1829.31 1481.79 1829.31 1481.41 1829.25 1481.08 1829.12 1480.8 1828.99 1480.53 1828.77 1480.3 1828.48 1480.13 1828.18 1479.96 1827.78 1479.84 1827.29 1479.76 1826.79 1479.68 1826.17 1479.63 1825.44 1479.61L1825.89 1477.59Z" fill-rule="evenodd"/><text fill="#000000" fill-opacity="0" font-family="Arial,Arial_MSFontService,sans-serif" font-size="41.1929" x="1821.45" y="1513.27">𝑘</text><path d="M1940.53 1451.27 1946.29 1451.27 1946.29 1474.62 1968.38 1474.62 1968.38 1480.01 1946.29 1480.01 1946.29 1503.35 1940.53 1503.35 1940.53 1480.01 1918.45 1480.01 1918.45 1474.62 1940.53 1474.62Z" fill-rule="evenodd"/><text fill="#000000" fill-opacity="0" font-family="Arial,Arial_MSFontService,sans-serif" font-size="52.0776" x="1918.45" y="1496.84">+</text><path d="M2031 1461.45C2032.94 1461.45 2034.35 1461.95 2035.21 1462.97 2036.08 1463.98 2036.51 1465.34 2036.51 1467.04 2036.51 1468.34 2036.28 1469.82 2035.82 1471.5 2035.36 1473.17 2034.71 1474.94 2033.87 1476.81 2033.04 1478.67 2032.04 1480.58 2030.88 1482.54 2029.71 1484.5 2028.43 1486.4 2027.03 1488.26 2025.62 1490.11 2024.12 1491.85 2022.53 1493.48 2020.93 1495.12 2019.28 1496.54 2017.56 1497.76 2015.85 1498.97 2014.1 1499.94 2012.33 1500.66 2010.56 1501.37 2008.8 1501.73 2007.05 1501.73 2006.26 1501.73 2005.61 1501.53 2005.08 1501.14 2004.55 1500.75 2004.13 1500.2 2003.8 1499.48 2003.48 1498.77 2003.25 1497.92 2003.11 1496.95 2002.98 1495.98 2002.91 1494.91 2002.91 1493.75 2002.91 1492.21 2003.01 1490.56 2003.19 1488.8 2003.38 1487.05 2003.63 1485.28 2003.92 1483.49L2005.63 1472.27C2005.73 1471.62 2005.82 1471 2005.89 1470.42 2005.96 1469.84 2005.99 1469.42 2005.99 1469.15 2005.99 1468.31 2005.86 1467.62 2005.59 1467.08 2005.32 1466.54 2004.86 1466.27 2004.21 1466.27 2003.69 1466.27 2003.14 1466.42 2002.55 1466.74 2001.95 1467.05 2001.35 1467.44 2000.74 1467.93 2000.14 1468.42 1999.55 1468.94 1998.98 1469.49 1998.41 1470.05 1997.89 1470.57 1997.4 1471.05L1995.45 1468.78C1996.29 1467.92 1997.18 1467.06 1998.13 1466.21 1999.07 1465.36 2000.07 1464.59 2001.13 1463.9 2002.18 1463.21 2003.29 1462.66 2004.45 1462.24 2005.61 1461.82 2006.8 1461.61 2008.02 1461.61 2009.04 1461.61 2009.88 1461.78 2010.53 1462.12 2011.18 1462.45 2011.69 1462.9 2012.05 1463.45 2012.41 1464.01 2012.66 1464.61 2012.8 1465.28 2012.94 1465.94 2013 1466.59 2013 1467.24 2013 1467.62 2012.99 1467.98 2012.96 1468.34 2012.94 1468.69 2012.89 1469.01 2012.84 1469.31L2010.57 1483.98C2010.33 1485.52 2010.13 1487.03 2009.96 1488.5 2009.8 1489.97 2009.72 1491.27 2009.72 1492.41 2009.72 1493.54 2009.79 1494.46 2009.92 1495.17 2010.06 1495.87 2010.31 1496.22 2010.69 1496.22 2011.58 1496.22 2012.71 1495.86 2014.06 1495.15 2015.41 1494.43 2016.83 1493.44 2018.31 1492.19 2019.8 1490.93 2021.28 1489.44 2022.77 1487.73 2024.26 1486.01 2025.59 1484.16 2026.78 1482.16 2027.97 1480.16 2028.94 1478.05 2029.68 1475.83 2030.42 1473.62 2030.79 1471.39 2030.79 1469.15 2030.79 1468.17 2030.58 1467.42 2030.17 1466.9 2029.75 1466.37 2029.09 1466.11 2028.2 1466.11 2027.07 1466.11 2026.02 1466.55 2025.06 1467.42 2024.1 1468.3 2023.11 1469.46 2022.08 1470.89L2019.77 1468.82C2020.42 1467.85 2021.18 1466.92 2022.06 1466.03 2022.94 1465.13 2023.87 1464.35 2024.86 1463.68 2025.84 1463 2026.86 1462.46 2027.92 1462.05 2028.97 1461.65 2030 1461.45 2031 1461.45Z" fill-rule="evenodd"/><text fill="#000000" fill-opacity="0" font-family="Arial,Arial_MSFontService,sans-serif" font-size="40.2842" x="1995.45" y="1496.7">𝑣</text><path d="M2052.59 1477.23 2054.73 1477.23 2049.49 1500.4 2050.32 1500.4C2051.08 1500.4 2051.89 1500.24 2052.77 1499.93 2053.64 1499.61 2054.51 1499.2 2055.37 1498.69 2056.24 1498.18 2057.06 1497.61 2057.86 1496.98 2058.65 1496.34 2059.35 1495.7 2059.96 1495.06 2060.56 1494.41 2061.05 1493.8 2061.4 1493.22 2061.76 1492.65 2061.94 1492.16 2061.94 1491.76 2061.94 1491.29 2061.78 1490.9 2061.46 1490.6 2061.15 1490.3 2060.57 1490.11 2059.74 1490.01L2060.09 1488.1 2070.82 1488.1 2071.56 1489.95C2070.31 1491.02 2069.11 1492.01 2067.96 1492.93 2066.8 1493.84 2065.68 1494.72 2064.58 1495.56 2063.47 1496.41 2062.37 1497.23 2061.27 1498.05 2060.17 1498.86 2059.04 1499.71 2057.89 1500.58 2058.36 1502.09 2058.85 1503.62 2059.35 1505.18 2059.84 1506.74 2060.34 1508.28 2060.84 1509.81 2061.08 1510.63 2061.3 1511.33 2061.51 1511.91 2061.72 1512.5 2061.94 1512.98 2062.18 1513.34 2062.42 1513.71 2062.67 1513.98 2062.95 1514.16 2063.23 1514.34 2063.57 1514.43 2063.96 1514.43 2064.24 1514.43 2064.53 1514.38 2064.83 1514.28 2065.13 1514.18 2065.46 1514 2065.83 1513.75 2066.19 1513.49 2066.61 1513.13 2067.08 1512.69 2067.54 1512.24 2068.07 1511.68 2068.67 1511.01L2070.7 1512.94C2069.76 1513.89 2068.89 1514.72 2068.09 1515.41 2067.29 1516.11 2066.52 1516.68 2065.8 1517.13 2065.07 1517.57 2064.37 1517.9 2063.7 1518.11 2063.02 1518.32 2062.34 1518.42 2061.64 1518.42 2060.39 1518.42 2059.38 1518.11 2058.62 1517.48 2057.85 1516.86 2057.2 1515.96 2056.67 1514.8 2056.13 1513.64 2055.64 1512.24 2055.19 1510.59 2054.75 1508.94 2054.22 1507.1 2053.63 1505.08 2053.49 1504.6 2053.36 1504.22 2053.23 1503.93 2053.1 1503.64 2052.93 1503.42 2052.74 1503.28 2052.54 1503.13 2052.29 1503.03 2051.99 1502.99 2051.69 1502.95 2051.32 1502.93 2050.86 1502.93L2048.95 1502.93 2045.68 1517.89 2039.96 1517.89 2047.17 1485.9C2047.4 1484.84 2047.57 1484.01 2047.67 1483.41 2047.77 1482.8 2047.82 1482.26 2047.82 1481.79 2047.82 1481.41 2047.76 1481.08 2047.63 1480.8 2047.5 1480.53 2047.28 1480.3 2046.99 1480.13 2046.69 1479.96 2046.29 1479.84 2045.8 1479.76 2045.3 1479.68 2044.68 1479.63 2043.95 1479.61L2044.4 1477.59Z" fill-rule="evenodd"/><text fill="#000000" fill-opacity="0" font-family="Arial,Arial_MSFontService,sans-serif" font-size="41.1929" x="2039.96" y="1513.27">𝑘</text><path d="M2083.78 1491.64 2090.87 1491.64C2091.25 1493.53 2091.44 1495.39 2091.44 1497.23 2091.44 1499.12 2091.11 1500.85 2090.47 1502.42 2089.82 1503.99 2088.78 1505.55 2087.37 1507.1 2085.95 1508.65 2084 1510.36 2081.51 1512.23L2079.32 1509.76C2080.7 1508.46 2081.7 1507.29 2082.32 1506.25 2082.94 1505.21 2083.39 1504.03 2083.66 1502.7 2083.93 1501.38 2084.06 1499.72 2084.06 1497.72 2084.06 1495.67 2083.97 1493.64 2083.78 1491.64Z" fill-rule="evenodd"/><text fill="#000000" fill-opacity="0" font-family="Arial,Arial_MSFontService,sans-serif" font-size="20.5879" x="2079.32" y="1509.65">,</text><path d="M2135.18 1464.81C2132.43 1464.81 2129.95 1465.92 2127.77 1468.15 2125.58 1470.38 2123.86 1473.39 2122.6 1477.17 2121.34 1480.95 2120.71 1484.72 2120.71 1488.48 2120.71 1491.29 2121.1 1493.39 2121.87 1494.78 2122.64 1496.17 2123.93 1496.87 2125.74 1496.87 2126.58 1496.87 2127.43 1496.69 2128.29 1496.32 2129.16 1495.96 2130.06 1495.37 2130.99 1494.56 2131.92 1493.75 2132.84 1492.76 2133.74 1491.6 2134.65 1490.44 2135.48 1489.27 2136.24 1488.09 2136.99 1486.92 2137.7 1485.53 2138.34 1483.92 2138.99 1482.31 2139.55 1480.37 2140.01 1478.1L2140.37 1476.36C2140.78 1474.42 2140.98 1472.58 2140.98 1470.85 2140.98 1468.74 2140.53 1467.21 2139.64 1466.25 2138.75 1465.29 2137.26 1464.81 2135.18 1464.81ZM2152.16 1443.09 2154.55 1443.09 2144.46 1487.95C2143.87 1490.6 2143.57 1492.6 2143.57 1493.95 2143.57 1495.03 2143.75 1495.81 2144.1 1496.3 2144.45 1496.79 2145 1497.03 2145.76 1497.03 2146.57 1497.03 2147.44 1496.7 2148.35 1496.04 2149.27 1495.37 2150.57 1494.11 2152.24 1492.25L2154.55 1494.52C2152.07 1497.14 2149.98 1498.99 2148.27 1500.07 2146.57 1501.15 2144.73 1501.69 2142.76 1501.69 2141.09 1501.69 2139.75 1501.14 2138.75 1500.03 2137.75 1498.92 2137.25 1497.45 2137.25 1495.61 2137.25 1494.13 2137.56 1492.54 2138.18 1490.87L2137.66 1490.71C2135.06 1494.49 2132.6 1497.26 2130.28 1499.02 2127.96 1500.77 2125.5 1501.65 2122.9 1501.65 2119.93 1501.65 2117.63 1500.53 2115.99 1498.29 2114.36 1496.04 2113.54 1492.9 2113.54 1488.84 2113.54 1484.2 2114.45 1479.73 2116.28 1475.45 2118.1 1471.17 2120.61 1467.79 2123.79 1465.32 2126.98 1462.84 2130.54 1461.61 2134.45 1461.61 2136.1 1461.61 2137.62 1461.78 2139.01 1462.12 2140.4 1462.45 2141.83 1463.04 2143.29 1463.88L2145.4 1454.52C2145.61 1453.62 2145.8 1452.64 2145.96 1451.56 2146.13 1450.48 2146.21 1449.53 2146.21 1448.72 2146.21 1447.91 2146.06 1447.3 2145.76 1446.88 2145.46 1446.46 2145.04 1446.15 2144.48 1445.97 2143.93 1445.78 2142.94 1445.64 2141.51 1445.56L2141.99 1443.45Z" fill-rule="evenodd"/><text fill="#000000" fill-opacity="0" font-family="Arial,Arial_MSFontService,sans-serif" font-size="58.6025" x="2113.54" y="1494.36">𝑑</text><path d="M2467.13 1438.93C2475.02 1441.01 2481.08 1445.5 2485.31 1452.4 2489.53 1459.31 2491.65 1467.63 2491.65 1477.39 2491.65 1487.17 2489.54 1495.5 2485.33 1502.37 2481.11 1509.25 2475.04 1513.73 2467.13 1515.81L2466.16 1512.69C2472.4 1510.61 2477.04 1506.5 2480.08 1500.37 2483.12 1494.23 2484.64 1486.44 2484.64 1476.98 2484.64 1467.85 2483.12 1460.27 2480.1 1454.23 2477.07 1448.19 2472.38 1444.13 2466.03 1442.05ZM2191.26 1438.93 2192.36 1442.05C2186.04 1444.13 2181.36 1448.19 2178.32 1454.23 2175.28 1460.27 2173.76 1467.85 2173.76 1476.98 2173.76 1486.44 2175.28 1494.23 2178.32 1500.37 2181.36 1506.5 2186 1510.61 2192.24 1512.69L2191.26 1515.81C2183.35 1513.73 2177.28 1509.25 2173.07 1502.37 2168.85 1495.5 2166.75 1487.17 2166.75 1477.39 2166.75 1467.63 2168.86 1459.31 2173.09 1452.4 2177.32 1445.5 2183.38 1441.01 2191.26 1438.93Z" fill-rule="evenodd"/><path d="M2214.8 1443.09 2217.15 1443.09 2209.21 1478.47 2210.51 1478.47C2212.53 1478.47 2214.81 1477.58 2217.34 1475.81 2219.86 1474.04 2221.88 1472.4 2223.39 1470.89 2224.91 1469.38 2225.66 1467.92 2225.66 1466.51 2225.66 1465.19 2224.75 1464.45 2222.91 1464.28L2223.35 1462.3 2236.48 1462.3 2237.25 1464.28C2235.01 1466.31 2232.63 1468.3 2230.12 1470.24L2220.07 1478.02 2224.04 1492.65C2224.37 1493.9 2224.66 1494.79 2224.91 1495.35 2225.17 1495.9 2225.47 1496.31 2225.81 1496.58 2226.14 1496.85 2226.6 1496.99 2227.16 1496.99 2227.87 1496.99 2228.7 1496.61 2229.68 1495.85 2230.65 1495.1 2231.76 1494 2233 1492.57L2235.31 1494.84C2232.88 1497.41 2230.86 1499.19 2229.27 1500.19 2227.68 1501.19 2226.14 1501.69 2224.65 1501.69 2222.81 1501.69 2221.35 1501.17 2220.27 1500.13 2219.19 1499.09 2218.34 1497.35 2217.72 1494.92L2215.05 1484.39C2214.78 1483.33 2214.51 1482.6 2214.24 1482.2 2213.97 1481.79 2213.65 1481.52 2213.3 1481.39 2212.95 1481.25 2212.33 1481.18 2211.44 1481.18L2208.64 1481.18 2204.43 1501.04 2197.42 1501.04 2207.83 1454.72C2208.18 1453.15 2208.43 1451.93 2208.58 1451.05 2208.73 1450.17 2208.8 1449.4 2208.8 1448.72 2208.8 1447.59 2208.46 1446.79 2207.77 1446.33 2207.08 1445.87 2205.85 1445.61 2204.06 1445.56L2204.55 1443.45Z" fill-rule="evenodd"/><text fill="#000000" fill-opacity="0" font-family="Arial,Arial_MSFontService,sans-serif" font-size="58.6025" x="2197.42" y="1494.36">𝑘</text><path d="M2265.73 1474.62 2315.66 1474.62 2315.66 1480.01 2265.73 1480.01Z" fill-rule="evenodd"/><text fill="#000000" fill-opacity="0" font-family="Arial,Arial_MSFontService,sans-serif" font-size="5.39014" x="2265.73" y="1479.33">−</text><path d="M2366.08 1445.07 2368.31 1445.07C2368.14 1447.67 2368.06 1451.26 2368.06 1455.85L2368.06 1490.46C2368.06 1492.03 2368.15 1493.21 2368.33 1494.01 2368.5 1494.81 2368.81 1495.46 2369.26 1495.96 2369.7 1496.46 2370.35 1496.85 2371.18 1497.13 2372.02 1497.41 2373.07 1497.63 2374.34 1497.78 2375.61 1497.93 2377.29 1498.03 2379.37 1498.08L2379.37 1501.04 2349.42 1501.04 2349.42 1498.08C2352.42 1497.95 2354.56 1497.77 2355.84 1497.54 2357.13 1497.31 2358.11 1496.96 2358.78 1496.5 2359.46 1496.04 2359.95 1495.39 2360.26 1494.56 2360.57 1493.72 2360.73 1492.36 2360.73 1490.46L2360.73 1457.6C2360.73 1456.52 2360.54 1455.73 2360.16 1455.23 2359.78 1454.73 2359.23 1454.48 2358.5 1454.48 2357.63 1454.48 2356.4 1454.92 2354.81 1455.81 2353.22 1456.7 2351.24 1457.93 2348.89 1459.5L2347.11 1456.38Z" fill-rule="evenodd"/><text fill="#000000" fill-opacity="0" font-family="Arial,Arial_MSFontService,sans-serif" font-size="55.9683" x="2347.11" y="1494.05">1</text><path d="M2391.16 1491.64 2398.25 1491.64C2398.63 1493.53 2398.82 1495.39 2398.82 1497.23 2398.82 1499.12 2398.5 1500.85 2397.85 1502.42 2397.2 1503.99 2396.17 1505.55 2394.75 1507.1 2393.33 1508.65 2391.38 1510.36 2388.89 1512.23L2386.7 1509.76C2388.08 1508.46 2389.08 1507.29 2389.7 1506.25 2390.32 1505.21 2390.77 1504.03 2391.04 1502.7 2391.31 1501.38 2391.44 1499.72 2391.44 1497.72 2391.44 1495.67 2391.35 1493.64 2391.16 1491.64Z" fill-rule="evenodd"/><text fill="#000000" fill-opacity="0" font-family="Arial,Arial_MSFontService,sans-serif" font-size="20.5879" x="2386.7" y="1509.65">,</text><path d="M2430.04 1461.65C2431.15 1461.65 2432.09 1461.8 2432.88 1462.09 2433.42 1462.31 2433.96 1462.67 2434.5 1463.17 2435.04 1463.67 2435.52 1464.36 2435.94 1465.26 2436.36 1466.15 2436.72 1467.15 2437.03 1468.26 2437.34 1469.36 2437.69 1470.96 2438.07 1473.04 2438.71 1476.52 2439.34 1480.19 2439.95 1484.04 2440.56 1487.89 2441.08 1491.46 2441.51 1494.76 2444.13 1490.98 2446.35 1487.28 2448.18 1483.66 2450 1480.04 2451.31 1476.89 2452.11 1474.21 2452.91 1471.54 2453.3 1469.36 2453.3 1467.69 2453.3 1466.42 2453.03 1465.55 2452.49 1465.09 2451.95 1464.63 2451.03 1464.36 2449.74 1464.28L2450.14 1462.3 2460.8 1462.3 2461.9 1464.32C2459.84 1469.94 2457.06 1475.96 2453.55 1482.36 2450.09 1488.63 2446.13 1494.87 2441.67 1501.08 2437.4 1507 2433.85 1511.28 2431.01 1513.93 2429.04 1515.74 2427.14 1517.04 2425.3 1517.82 2423.84 1518.41 2422.29 1518.71 2420.64 1518.71 2420.07 1518.71 2419.42 1518.66 2418.67 1518.57 2417.93 1518.48 2417.36 1518.35 2416.95 1518.18L2418.69 1510.32 2421.9 1510.32C2421.9 1512.05 2422.49 1512.92 2423.68 1512.92 2425.25 1512.92 2427.07 1511.94 2429.15 1509.98 2431.23 1508.02 2433.68 1505.07 2436.49 1501.12 2435.7 1496.39 2434.63 1490.69 2433.28 1484.02 2431.85 1476.89 2430.91 1472.47 2430.45 1470.77 2429.88 1468.71 2429.28 1467.4 2428.66 1466.84 2428.29 1466.49 2427.81 1466.31 2427.24 1466.31 2426.38 1466.31 2425.57 1466.66 2424.81 1467.36 2424.06 1468.07 2423.12 1469.28 2422.02 1471.01L2419.38 1469.27C2421.25 1466.49 2422.99 1464.52 2424.61 1463.37 2426.23 1462.22 2428.04 1461.65 2430.04 1461.65Z" fill-rule="evenodd"/><text fill="#000000" fill-opacity="0" font-family="Arial,Arial_MSFontService,sans-serif" font-size="57.0625" x="2416.95" y="1511.58">𝑦</text><path d="M2501.16 1442.32 2502.22 1442.32C2508.57 1442.43 2513.31 1443.88 2516.46 1446.67 2519.61 1449.47 2521.18 1453.68 2521.18 1459.3 2521.18 1461.54 2520.87 1464.09 2520.23 1466.96 2519.6 1469.82 2519.28 1471.74 2519.28 1472.71 2519.28 1474.58 2519.92 1476.1 2521.2 1477.27 2522.49 1478.45 2524.43 1479.08 2527.02 1479.16L2527.02 1482.48C2524.43 1482.56 2522.49 1483.19 2521.2 1484.36 2519.92 1485.54 2519.28 1487.06 2519.28 1488.92 2519.28 1489.9 2519.6 1491.82 2520.23 1494.68 2520.87 1497.54 2521.18 1500.1 2521.18 1502.34 2521.18 1508.15 2519.61 1512.45 2516.46 1515.25 2513.31 1518.04 2508.57 1519.5 2502.22 1519.6L2501.16 1519.6 2501.16 1516.52 2501.77 1516.52C2505.69 1516.52 2508.76 1515.5 2510.97 1513.46 2513.19 1511.42 2514.29 1507.96 2514.29 1503.07 2514.29 1501.18 2514.02 1498.84 2513.48 1496.06 2512.94 1493.27 2512.67 1491.29 2512.67 1490.1 2512.67 1487.8 2513.35 1485.92 2514.7 1484.45 2516.05 1482.97 2517.66 1481.89 2519.52 1481.18L2519.52 1480.45C2517.66 1479.75 2516.05 1478.66 2514.7 1477.19 2513.35 1475.72 2512.67 1473.83 2512.67 1471.54 2512.67 1470.35 2512.94 1468.36 2513.48 1465.58 2514.02 1462.8 2514.29 1460.46 2514.29 1458.57 2514.29 1453.87 2513.19 1450.5 2510.97 1448.46 2508.76 1446.42 2505.69 1445.4 2501.77 1445.4L2501.16 1445.4Z" fill-rule="evenodd"/><text fill="#000000" fill-opacity="0" font-family="Arial,Arial_MSFontService,sans-serif" font-size="77.2856" x="2501.16" y="1509.94">}</text><path d="M750.077 1560.81C747.321 1560.81 744.849 1561.92 742.66 1564.15 740.472 1566.38 738.749 1569.39 737.493 1573.17 736.237 1576.95 735.609 1580.72 735.609 1584.48 735.609 1587.29 735.994 1589.39 736.764 1590.78 737.534 1592.17 738.824 1592.87 740.634 1592.87 741.471 1592.87 742.323 1592.68 743.187 1592.32 744.052 1591.95 744.95 1591.37 745.882 1590.56 746.814 1589.74 747.733 1588.76 748.638 1587.6 749.543 1586.44 750.374 1585.27 751.13 1584.09 751.887 1582.92 752.589 1581.52 753.238 1579.92 753.886 1578.31 754.44 1576.37 754.9 1574.1L755.264 1572.36C755.67 1570.41 755.872 1568.58 755.872 1566.85 755.872 1564.74 755.426 1563.21 754.535 1562.25 753.643 1561.29 752.157 1560.81 750.077 1560.81ZM767.058 1539.09 769.449 1539.09 759.358 1583.95C758.763 1586.6 758.466 1588.6 758.466 1589.95 758.466 1591.03 758.642 1591.81 758.993 1592.3 759.344 1592.78 759.898 1593.03 760.654 1593.03 761.465 1593.03 762.33 1592.7 763.248 1592.03 764.167 1591.37 765.464 1590.11 767.139 1588.25L769.449 1590.51C766.963 1593.14 764.869 1594.99 763.167 1596.07 761.465 1597.15 759.628 1597.69 757.655 1597.69 755.98 1597.69 754.643 1597.13 753.643 1596.03 752.643 1594.92 752.144 1593.45 752.144 1591.61 752.144 1590.12 752.454 1588.54 753.076 1586.87L752.549 1586.71C749.955 1590.49 747.497 1593.26 745.173 1595.01 742.849 1596.77 740.391 1597.65 737.797 1597.65 734.825 1597.65 732.522 1596.53 730.887 1594.28 729.253 1592.04 728.435 1588.89 728.435 1584.84 728.435 1580.19 729.347 1575.73 731.171 1571.45 732.995 1567.16 735.5 1563.79 738.689 1561.31 741.877 1558.84 745.43 1557.61 749.347 1557.61 750.995 1557.61 752.515 1557.78 753.907 1558.11 755.298 1558.45 756.723 1559.04 758.182 1559.88L760.29 1550.51C760.506 1549.62 760.695 1548.64 760.857 1547.56 761.019 1546.48 761.1 1545.53 761.1 1544.72 761.1 1543.91 760.952 1543.29 760.654 1542.87 760.357 1542.46 759.932 1542.15 759.378 1541.96 758.824 1541.77 757.831 1541.64 756.399 1541.56L756.885 1539.45Z" fill-rule="evenodd"/><text fill="#000000" fill-opacity="0" font-family="Arial,Arial_MSFontService,sans-serif" font-size="58.6025" x="728.435" y="1590.36">𝑑</text><path d="M997.004 1534.72 1015.08 1534.72 1015.08 1612 997.004 1612 997.004 1608.88 1008.35 1608.88 1008.35 1537.84 997.004 1537.84ZM783.585 1534.72 801.66 1534.72 801.66 1537.84 790.312 1537.84 790.312 1608.88 801.66 1608.88 801.66 1612 783.585 1612Z" fill-rule="evenodd"/><path d="M824.334 1539.09 826.685 1539.09 818.741 1574.47 820.038 1574.47C822.065 1574.47 824.341 1573.58 826.867 1571.81 829.393 1570.04 831.413 1568.4 832.926 1566.89 834.439 1565.37 835.195 1563.92 835.195 1562.51 835.195 1561.19 834.277 1560.44 832.44 1560.28L832.885 1558.3 846.016 1558.3 846.786 1560.28C844.544 1562.31 842.166 1564.29 839.653 1566.24L829.603 1574.02 833.574 1588.65C833.899 1589.89 834.189 1590.79 834.446 1591.35 834.702 1591.9 835 1592.31 835.337 1592.58 835.675 1592.85 836.128 1592.99 836.695 1592.99 837.397 1592.99 838.235 1592.61 839.208 1591.85 840.18 1591.1 841.288 1590 842.531 1588.57L844.841 1590.84C842.409 1593.41 840.396 1595.19 838.802 1596.19 837.208 1597.19 835.668 1597.69 834.182 1597.69 832.345 1597.69 830.886 1597.17 829.805 1596.13 828.725 1595.09 827.873 1593.35 827.252 1590.92L824.577 1580.38C824.307 1579.33 824.037 1578.6 823.767 1578.19 823.497 1577.79 823.186 1577.52 822.835 1577.38 822.483 1577.25 821.862 1577.18 820.97 1577.18L818.174 1577.18 813.959 1597.04 806.948 1597.04 817.363 1550.72C817.715 1549.15 817.965 1547.93 818.113 1547.05 818.262 1546.17 818.336 1545.39 818.336 1544.72 818.336 1543.58 817.992 1542.79 817.303 1542.33 816.614 1541.87 815.378 1541.61 813.594 1541.56L814.081 1539.45Z" fill-rule="evenodd"/><text fill="#000000" fill-opacity="0" font-family="Arial,Arial_MSFontService,sans-serif" font-size="58.6025" x="806.948" y="1590.36">𝑘</text><path d="M875.258 1570.62 925.188 1570.62 925.188 1576.01 875.258 1576.01Z" fill-rule="evenodd"/><text fill="#000000" fill-opacity="0" font-family="Arial,Arial_MSFontService,sans-serif" font-size="5.39014" x="875.258" y="1575.33">−</text><path d="M975.608 1541.07 977.837 1541.07C977.675 1543.67 977.594 1547.26 977.594 1551.85L977.594 1586.46C977.594 1588.03 977.682 1589.21 977.858 1590.01 978.033 1590.81 978.344 1591.45 978.79 1591.95 979.236 1592.45 979.877 1592.85 980.715 1593.13 981.552 1593.41 982.606 1593.63 983.876 1593.78 985.146 1593.93 986.821 1594.03 988.901 1594.08L988.901 1597.04 958.952 1597.04 958.952 1594.08C961.951 1593.95 964.092 1593.76 965.375 1593.53 966.659 1593.3 967.638 1592.96 968.313 1592.5 968.989 1592.04 969.482 1591.39 969.793 1590.56 970.103 1589.72 970.259 1588.35 970.259 1586.46L970.259 1553.59C970.259 1552.51 970.07 1551.72 969.691 1551.22 969.313 1550.72 968.759 1550.47 968.03 1550.47 967.165 1550.47 965.936 1550.92 964.342 1551.81 962.748 1552.7 960.775 1553.93 958.425 1555.5L956.642 1552.38Z" fill-rule="evenodd"/><text fill="#000000" fill-opacity="0" font-family="Arial,Arial_MSFontService,sans-serif" font-size="55.9683" x="956.642" y="1590.04">1</text><path d="M1033.38 1538.32 1051.45 1538.32 1051.45 1541.44 1040.1 1541.44 1040.1 1612.48 1051.45 1612.48 1051.45 1615.6 1033.38 1615.6Z" fill-rule="evenodd"/><text fill="#000000" fill-opacity="0" font-family="Arial,Arial_MSFontService,sans-serif" font-size="77.2856" x="1033.38" y="1605.94">[</text><path d="M1066.16 1557.65C1067.26 1557.65 1068.21 1557.8 1068.99 1558.09 1069.53 1558.31 1070.07 1558.67 1070.61 1559.17 1071.15 1559.67 1071.63 1560.36 1072.05 1561.25 1072.47 1562.15 1072.84 1563.15 1073.15 1564.25 1073.46 1565.36 1073.8 1566.95 1074.18 1569.04 1074.83 1572.52 1075.46 1576.19 1076.06 1580.04 1076.67 1583.89 1077.19 1587.46 1077.63 1590.76 1080.25 1586.98 1082.47 1583.27 1084.29 1579.65 1086.12 1576.03 1087.43 1572.89 1088.22 1570.21 1089.02 1567.54 1089.42 1565.36 1089.42 1563.69 1089.42 1562.42 1089.15 1561.55 1088.61 1561.09 1088.07 1560.63 1087.15 1560.36 1085.85 1560.28L1086.26 1558.3 1096.92 1558.3 1098.01 1560.32C1095.96 1565.94 1093.17 1571.95 1089.66 1578.36 1086.2 1584.62 1082.25 1590.87 1077.79 1597.08 1073.52 1603 1069.97 1607.28 1067.13 1609.93 1065.16 1611.74 1063.25 1613.03 1061.41 1613.82 1059.96 1614.41 1058.4 1614.71 1056.75 1614.71 1056.19 1614.71 1055.53 1614.66 1054.79 1614.57 1054.04 1614.47 1053.47 1614.34 1053.07 1614.18L1054.81 1606.32 1058.01 1606.32C1058.01 1608.05 1058.6 1608.91 1059.79 1608.91 1061.36 1608.91 1063.18 1607.93 1065.26 1605.98 1067.34 1604.02 1069.79 1601.07 1072.6 1597.12 1071.82 1592.39 1070.75 1586.69 1069.4 1580.02 1067.97 1572.89 1067.02 1568.47 1066.56 1566.77 1065.99 1564.71 1065.4 1563.4 1064.78 1562.83 1064.4 1562.48 1063.93 1562.31 1063.36 1562.31 1062.49 1562.31 1061.68 1562.66 1060.93 1563.36 1060.17 1564.06 1059.24 1565.28 1058.13 1567.01L1055.5 1565.27C1057.36 1562.48 1059.1 1560.52 1060.73 1559.37 1062.35 1558.22 1064.16 1557.65 1066.16 1557.65Z" fill-rule="evenodd"/><text fill="#000000" fill-opacity="0" font-family="Arial,Arial_MSFontService,sans-serif" font-size="57.0625" x="1053.07" y="1607.58">𝑦</text><path d="M1102.35 1538.32 1120.43 1538.32 1120.43 1615.6 1102.35 1615.6 1102.35 1612.48 1113.7 1612.48 1113.7 1541.44 1102.35 1541.44Z" fill-rule="evenodd"/><text fill="#000000" fill-opacity="0" font-family="Arial,Arial_MSFontService,sans-serif" font-size="77.2856" x="1102.35" y="1605.94">]</text><text font-family="DengXian,DengXian_MSFontService,sans-serif" font-weight="400" font-size="83" transform="matrix(1 0 0 1 1129.25 1597)">即将被</text><path d="M1402.65 1560.81C1399.9 1560.81 1397.42 1561.92 1395.24 1564.15 1393.05 1566.38 1391.32 1569.39 1390.07 1573.17 1388.81 1576.95 1388.18 1580.72 1388.18 1584.48 1388.18 1587.29 1388.57 1589.39 1389.34 1590.78 1390.11 1592.17 1391.4 1592.87 1393.21 1592.87 1394.05 1592.87 1394.9 1592.68 1395.76 1592.32 1396.63 1591.95 1397.53 1591.37 1398.46 1590.56 1399.39 1589.74 1400.31 1588.76 1401.21 1587.6 1402.12 1586.44 1402.95 1585.27 1403.71 1584.09 1404.46 1582.92 1405.16 1581.52 1405.81 1579.92 1406.46 1578.31 1407.02 1576.37 1407.47 1574.1L1407.84 1572.36C1408.24 1570.41 1408.45 1568.58 1408.45 1566.85 1408.45 1564.74 1408 1563.21 1407.11 1562.25 1406.22 1561.29 1404.73 1560.81 1402.65 1560.81ZM1419.63 1539.09 1422.02 1539.09 1411.93 1583.95C1411.34 1586.6 1411.04 1588.6 1411.04 1589.95 1411.04 1591.03 1411.22 1591.81 1411.57 1592.3 1411.92 1592.78 1412.47 1593.03 1413.23 1593.03 1414.04 1593.03 1414.9 1592.7 1415.82 1592.03 1416.74 1591.37 1418.04 1590.11 1419.71 1588.25L1422.02 1590.51C1419.54 1593.14 1417.44 1594.99 1415.74 1596.07 1414.04 1597.15 1412.2 1597.69 1410.23 1597.69 1408.56 1597.69 1407.22 1597.13 1406.22 1596.03 1405.22 1594.92 1404.72 1593.45 1404.72 1591.61 1404.72 1590.12 1405.03 1588.54 1405.65 1586.87L1405.12 1586.71C1402.53 1590.49 1400.07 1593.26 1397.75 1595.01 1395.42 1596.77 1392.97 1597.65 1390.37 1597.65 1387.4 1597.65 1385.1 1596.53 1383.46 1594.28 1381.83 1592.04 1381.01 1588.89 1381.01 1584.84 1381.01 1580.19 1381.92 1575.73 1383.75 1571.45 1385.57 1567.16 1388.08 1563.79 1391.26 1561.31 1394.45 1558.84 1398 1557.61 1401.92 1557.61 1403.57 1557.61 1405.09 1557.78 1406.48 1558.11 1407.87 1558.45 1409.3 1559.04 1410.76 1559.88L1412.86 1550.51C1413.08 1549.62 1413.27 1548.64 1413.43 1547.56 1413.59 1546.48 1413.68 1545.53 1413.68 1544.72 1413.68 1543.91 1413.53 1543.29 1413.23 1542.87 1412.93 1542.46 1412.51 1542.15 1411.95 1541.96 1411.4 1541.77 1410.41 1541.64 1408.97 1541.56L1409.46 1539.45Z" fill-rule="evenodd"/><text fill="#000000" fill-opacity="0" font-family="Arial,Arial_MSFontService,sans-serif" font-size="58.6025" x="1381.01" y="1590.36">𝑑</text><path d="M1505.2 1534.72 1523.28 1534.72 1523.28 1612 1505.2 1612 1505.2 1608.88 1516.55 1608.88 1516.55 1537.84 1505.2 1537.84ZM1436.16 1534.72 1454.23 1534.72 1454.23 1537.84 1442.89 1537.84 1442.89 1608.88 1454.23 1608.88 1454.23 1612 1436.16 1612Z" fill-rule="evenodd"/><path d="M1476.91 1539.09 1479.26 1539.09 1471.32 1574.47 1472.61 1574.47C1474.64 1574.47 1476.92 1573.58 1479.44 1571.81 1481.97 1570.04 1483.99 1568.4 1485.5 1566.89 1487.01 1565.37 1487.77 1563.92 1487.77 1562.51 1487.77 1561.19 1486.85 1560.44 1485.01 1560.28L1485.46 1558.3 1498.59 1558.3 1499.36 1560.28C1497.12 1562.31 1494.74 1564.29 1492.23 1566.24L1482.18 1574.02 1486.15 1588.65C1486.47 1589.89 1486.76 1590.79 1487.02 1591.35 1487.28 1591.9 1487.57 1592.31 1487.91 1592.58 1488.25 1592.85 1488.7 1592.99 1489.27 1592.99 1489.97 1592.99 1490.81 1592.61 1491.78 1591.85 1492.76 1591.1 1493.86 1590 1495.11 1588.57L1497.42 1590.84C1494.98 1593.41 1492.97 1595.19 1491.38 1596.19 1489.78 1597.19 1488.24 1597.69 1486.76 1597.69 1484.92 1597.69 1483.46 1597.17 1482.38 1596.13 1481.3 1595.09 1480.45 1593.35 1479.83 1590.92L1477.15 1580.38C1476.88 1579.33 1476.61 1578.6 1476.34 1578.19 1476.07 1577.79 1475.76 1577.52 1475.41 1577.38 1475.06 1577.25 1474.44 1577.18 1473.55 1577.18L1470.75 1577.18 1466.53 1597.04 1459.52 1597.04 1469.94 1550.72C1470.29 1549.15 1470.54 1547.93 1470.69 1547.05 1470.84 1546.17 1470.91 1545.39 1470.91 1544.72 1470.91 1543.58 1470.57 1542.79 1469.88 1542.33 1469.19 1541.87 1467.95 1541.61 1466.17 1541.56L1466.66 1539.45Z" fill-rule="evenodd"/><text fill="#000000" fill-opacity="0" font-family="Arial,Arial_MSFontService,sans-serif" font-size="58.6025" x="1459.52" y="1590.36">𝑘</text><path d="M1610.78 1534.72 1628.86 1534.72 1628.86 1612 1610.78 1612 1610.78 1608.88 1622.13 1608.88 1622.13 1537.84 1610.78 1537.84ZM1541.58 1534.72 1559.65 1534.72 1559.65 1537.84 1548.3 1537.84 1548.3 1608.88 1559.65 1608.88 1559.65 1612 1541.58 1612Z" fill-rule="evenodd"/><path d="M1574.59 1557.65C1575.69 1557.65 1576.64 1557.8 1577.42 1558.09 1577.96 1558.31 1578.5 1558.67 1579.04 1559.17 1579.58 1559.67 1580.06 1560.36 1580.48 1561.25 1580.9 1562.15 1581.27 1563.15 1581.58 1564.25 1581.89 1565.36 1582.23 1566.95 1582.61 1569.04 1583.26 1572.52 1583.89 1576.19 1584.49 1580.04 1585.1 1583.89 1585.62 1587.46 1586.05 1590.76 1588.68 1586.98 1590.9 1583.27 1592.72 1579.65 1594.54 1576.03 1595.86 1572.89 1596.65 1570.21 1597.45 1567.54 1597.85 1565.36 1597.85 1563.69 1597.85 1562.42 1597.58 1561.55 1597.04 1561.09 1596.5 1560.63 1595.58 1560.36 1594.28 1560.28L1594.69 1558.3 1605.35 1558.3 1606.44 1560.32C1604.39 1565.94 1601.6 1571.95 1598.09 1578.36 1594.63 1584.62 1590.67 1590.87 1586.22 1597.08 1581.95 1603 1578.39 1607.28 1575.56 1609.93 1573.59 1611.74 1571.68 1613.03 1569.84 1613.82 1568.38 1614.41 1566.83 1614.71 1565.18 1614.71 1564.62 1614.71 1563.96 1614.66 1563.22 1614.57 1562.47 1614.47 1561.9 1614.34 1561.49 1614.18L1563.24 1606.32 1566.44 1606.32C1566.44 1608.05 1567.03 1608.91 1568.22 1608.91 1569.79 1608.91 1571.61 1607.93 1573.69 1605.98 1575.77 1604.02 1578.22 1601.07 1581.03 1597.12 1580.25 1592.39 1579.18 1586.69 1577.83 1580.02 1576.4 1572.89 1575.45 1568.47 1574.99 1566.77 1574.42 1564.71 1573.83 1563.4 1573.21 1562.83 1572.83 1562.48 1572.36 1562.31 1571.79 1562.31 1570.92 1562.31 1570.11 1562.66 1569.36 1563.36 1568.6 1564.06 1567.67 1565.28 1566.56 1567.01L1563.93 1565.27C1565.79 1562.48 1567.53 1560.52 1569.15 1559.37 1570.78 1558.22 1572.59 1557.65 1574.59 1557.65Z" fill-rule="evenodd"/><text fill="#000000" fill-opacity="0" font-family="Arial,Arial_MSFontService,sans-serif" font-size="57.0625" x="1561.49" y="1607.58">𝑦</text><text font-family="DengXian,DengXian_MSFontService,sans-serif" font-weight="400" font-size="83" transform="matrix(1 0 0 1 1637.91 1597)">覆盖，依赖</text><path d="M2076.31 1560.81C2073.55 1560.81 2071.08 1561.92 2068.89 1564.15 2066.71 1566.38 2064.98 1569.39 2063.73 1573.17 2062.47 1576.95 2061.84 1580.72 2061.84 1584.48 2061.84 1587.29 2062.23 1589.39 2063 1590.78 2063.77 1592.17 2065.06 1592.87 2066.87 1592.87 2067.7 1592.87 2068.56 1592.68 2069.42 1592.32 2070.28 1591.95 2071.18 1591.37 2072.12 1590.56 2073.05 1589.74 2073.97 1588.76 2074.87 1587.6 2075.78 1586.44 2076.61 1585.27 2077.36 1584.09 2078.12 1582.92 2078.82 1581.52 2079.47 1579.92 2080.12 1578.31 2080.67 1576.37 2081.13 1574.1L2081.5 1572.36C2081.9 1570.41 2082.11 1568.58 2082.11 1566.85 2082.11 1564.74 2081.66 1563.21 2080.77 1562.25 2079.88 1561.29 2078.39 1560.81 2076.31 1560.81ZM2093.29 1539.09 2095.68 1539.09 2085.59 1583.95C2085 1586.6 2084.7 1588.6 2084.7 1589.95 2084.7 1591.03 2084.87 1591.81 2085.23 1592.3 2085.58 1592.78 2086.13 1593.03 2086.89 1593.03 2087.7 1593.03 2088.56 1592.7 2089.48 1592.03 2090.4 1591.37 2091.7 1590.11 2093.37 1588.25L2095.68 1590.51C2093.2 1593.14 2091.1 1594.99 2089.4 1596.07 2087.7 1597.15 2085.86 1597.69 2083.89 1597.69 2082.21 1597.69 2080.88 1597.13 2079.88 1596.03 2078.88 1594.92 2078.38 1593.45 2078.38 1591.61 2078.38 1590.12 2078.69 1588.54 2079.31 1586.87L2078.78 1586.71C2076.19 1590.49 2073.73 1593.26 2071.41 1595.01 2069.08 1596.77 2066.62 1597.65 2064.03 1597.65 2061.06 1597.65 2058.75 1596.53 2057.12 1594.28 2055.49 1592.04 2054.67 1588.89 2054.67 1584.84 2054.67 1580.19 2055.58 1575.73 2057.4 1571.45 2059.23 1567.16 2061.73 1563.79 2064.92 1561.31 2068.11 1558.84 2071.66 1557.61 2075.58 1557.61 2077.23 1557.61 2078.75 1557.78 2080.14 1558.11 2081.53 1558.45 2082.96 1559.04 2084.42 1559.88L2086.52 1550.51C2086.74 1549.62 2086.93 1548.64 2087.09 1547.56 2087.25 1546.48 2087.33 1545.53 2087.33 1544.72 2087.33 1543.91 2087.18 1543.29 2086.89 1542.87 2086.59 1542.46 2086.17 1542.15 2085.61 1541.96 2085.06 1541.77 2084.06 1541.64 2082.63 1541.56L2083.12 1539.45Z" fill-rule="evenodd"/><text fill="#000000" fill-opacity="0" font-family="Arial,Arial_MSFontService,sans-serif" font-size="58.6025" x="2054.67" y="1590.36">𝑑</text><path d="M2132.39 1538.48 2133.49 1541.6C2127.16 1543.68 2122.48 1547.74 2119.44 1553.78 2116.4 1559.82 2114.88 1567.4 2114.88 1576.53 2114.88 1585.99 2116.4 1593.78 2119.44 1599.92 2122.48 1606.05 2127.12 1610.16 2133.36 1612.24L2132.39 1615.36C2124.48 1613.28 2118.41 1608.8 2114.19 1601.92 2109.98 1595.05 2107.87 1586.72 2107.87 1576.94 2107.87 1567.18 2109.99 1558.86 2114.22 1551.95 2118.44 1545.05 2124.5 1540.56 2132.39 1538.48Z" fill-rule="evenodd"/><text fill="#000000" fill-opacity="0" font-family="Arial,Arial_MSFontService,sans-serif" font-size="76.8804" x="2107.87" y="1605.75">(</text><path d="M2156.07 1539.09 2158.42 1539.09 2150.47 1574.47 2151.77 1574.47C2153.8 1574.47 2156.07 1573.58 2158.6 1571.81 2161.13 1570.04 2163.15 1568.4 2164.66 1566.89 2166.17 1565.37 2166.93 1563.92 2166.93 1562.51 2166.93 1561.19 2166.01 1560.44 2164.17 1560.28L2164.62 1558.3 2177.75 1558.3 2178.52 1560.28C2176.28 1562.31 2173.9 1564.29 2171.39 1566.24L2161.34 1574.02 2165.31 1588.65C2165.63 1589.89 2165.92 1590.79 2166.18 1591.35 2166.44 1591.9 2166.73 1592.31 2167.07 1592.58 2167.41 1592.85 2167.86 1592.99 2168.43 1592.99 2169.13 1592.99 2169.97 1592.61 2170.94 1591.85 2171.91 1591.1 2173.02 1590 2174.26 1588.57L2176.57 1590.84C2174.14 1593.41 2172.13 1595.19 2170.54 1596.19 2168.94 1597.19 2167.4 1597.69 2165.92 1597.69 2164.08 1597.69 2162.62 1597.17 2161.54 1596.13 2160.46 1595.09 2159.61 1593.35 2158.99 1590.92L2156.31 1580.38C2156.04 1579.33 2155.77 1578.6 2155.5 1578.19 2155.23 1577.79 2154.92 1577.52 2154.57 1577.38 2154.22 1577.25 2153.6 1577.18 2152.7 1577.18L2149.91 1577.18 2145.69 1597.04 2138.68 1597.04 2149.1 1550.72C2149.45 1549.15 2149.7 1547.93 2149.85 1547.05 2150 1546.17 2150.07 1545.39 2150.07 1544.72 2150.07 1543.58 2149.72 1542.79 2149.04 1542.33 2148.35 1541.87 2147.11 1541.61 2145.33 1541.56L2145.81 1539.45Z" fill-rule="evenodd"/><text fill="#000000" fill-opacity="0" font-family="Arial,Arial_MSFontService,sans-serif" font-size="58.6025" x="2138.68" y="1590.36">𝑘</text><path d="M2206.99 1570.62 2256.92 1570.62 2256.92 1576.01 2206.99 1576.01Z" fill-rule="evenodd"/><text fill="#000000" fill-opacity="0" font-family="Arial,Arial_MSFontService,sans-serif" font-size="5.39014" x="2206.99" y="1575.33">−</text><path d="M2307.34 1541.07 2309.57 1541.07C2309.41 1543.67 2309.33 1547.26 2309.33 1551.85L2309.33 1586.46C2309.33 1588.03 2309.42 1589.21 2309.59 1590.01 2309.77 1590.81 2310.08 1591.45 2310.52 1591.95 2310.97 1592.45 2311.61 1592.85 2312.45 1593.13 2313.29 1593.41 2314.34 1593.63 2315.61 1593.78 2316.88 1593.93 2318.55 1594.03 2320.63 1594.08L2320.63 1597.04 2290.68 1597.04 2290.68 1594.08C2293.68 1593.95 2295.82 1593.76 2297.11 1593.53 2298.39 1593.3 2299.37 1592.96 2300.05 1592.5 2300.72 1592.04 2301.22 1591.39 2301.53 1590.56 2301.84 1589.72 2301.99 1588.35 2301.99 1586.46L2301.99 1553.59C2301.99 1552.51 2301.8 1551.72 2301.42 1551.22 2301.05 1550.72 2300.49 1550.47 2299.76 1550.47 2298.9 1550.47 2297.67 1550.92 2296.07 1551.81 2294.48 1552.7 2292.51 1553.93 2290.16 1555.5L2288.37 1552.38Z" fill-rule="evenodd"/><text fill="#000000" fill-opacity="0" font-family="Arial,Arial_MSFontService,sans-serif" font-size="55.9683" x="2288.37" y="1590.04">1</text><path d="M2332.43 1587.64 2339.52 1587.64C2339.9 1589.53 2340.08 1591.39 2340.08 1593.23 2340.08 1595.12 2339.76 1596.85 2339.11 1598.42 2338.46 1599.98 2337.43 1601.54 2336.01 1603.1 2334.59 1604.65 2332.64 1606.36 2330.16 1608.23L2327.97 1605.75C2329.34 1604.46 2330.34 1603.29 2330.97 1602.25 2331.59 1601.21 2332.03 1600.03 2332.3 1598.7 2332.57 1597.38 2332.71 1595.72 2332.71 1593.72 2332.71 1591.66 2332.61 1589.64 2332.43 1587.64Z" fill-rule="evenodd"/><text fill="#000000" fill-opacity="0" font-family="Arial,Arial_MSFontService,sans-serif" font-size="20.5879" x="2327.97" y="1605.65">,</text><path d="M2378.84 1557.93 2381.15 1557.93 2372.72 1597.73C2371.86 1601.84 2370.68 1605.14 2369.2 1607.64 2367.71 1610.14 2365.78 1612.01 2363.4 1613.27 2361.03 1614.53 2358.19 1615.16 2354.89 1615.16 2353.54 1615.16 2352.39 1615.02 2351.45 1614.75L2352.38 1611.18C2352.95 1611.4 2353.97 1611.51 2355.46 1611.51 2356.76 1611.51 2357.86 1611.31 2358.76 1610.92 2359.67 1610.53 2360.51 1609.88 2361.3 1608.97 2362.08 1608.07 2362.8 1606.81 2363.46 1605.19 2364.13 1603.56 2364.74 1601.47 2365.31 1598.9L2371.87 1569.72C2372.49 1566.97 2372.81 1564.94 2372.81 1563.65 2372.81 1562.43 2372.51 1561.61 2371.93 1561.17 2371.35 1560.74 2370.21 1560.5 2368.51 1560.44L2368.96 1558.3ZM2377.75 1542.41 2384.92 1542.41 2383.06 1550.27 2375.89 1550.27Z" fill-rule="evenodd"/><text fill="#000000" fill-opacity="0" font-family="Arial,Arial_MSFontService,sans-serif" font-size="72.7466" x="2351.45" y="1606.06">𝑗</text><path d="M2468.19 1548.16 2468.19 1554.24 2424.18 1573.33 2468.19 1592.42 2468.19 1598.5 2418.1 1576.17 2418.1 1570.49Z" fill-rule="evenodd"/><text fill="#000000" fill-opacity="0" font-family="Arial,Arial_MSFontService,sans-serif" font-size="50.335" x="2418.1" y="1592.21">&lt;</text><path d="M2510.23 1557.65C2511.33 1557.65 2512.28 1557.8 2513.06 1558.09 2513.6 1558.31 2514.14 1558.67 2514.68 1559.17 2515.22 1559.67 2515.7 1560.36 2516.12 1561.25 2516.54 1562.15 2516.91 1563.15 2517.22 1564.25 2517.53 1565.36 2517.87 1566.95 2518.25 1569.04 2518.9 1572.52 2519.53 1576.19 2520.14 1580.04 2520.74 1583.89 2521.26 1587.46 2521.7 1590.76 2524.32 1586.98 2526.54 1583.27 2528.36 1579.65 2530.19 1576.03 2531.5 1572.89 2532.29 1570.21 2533.09 1567.54 2533.49 1565.36 2533.49 1563.69 2533.49 1562.42 2533.22 1561.55 2532.68 1561.09 2532.14 1560.63 2531.22 1560.36 2529.92 1560.28L2530.33 1558.3 2540.99 1558.3 2542.08 1560.32C2540.03 1565.94 2537.24 1571.95 2533.73 1578.36 2530.27 1584.62 2526.32 1590.87 2521.86 1597.08 2517.59 1603 2514.04 1607.28 2511.2 1609.93 2509.23 1611.74 2507.32 1613.03 2505.48 1613.82 2504.03 1614.41 2502.47 1614.71 2500.82 1614.71 2500.26 1614.71 2499.6 1614.66 2498.86 1614.57 2498.12 1614.47 2497.54 1614.34 2497.14 1614.18L2498.88 1606.32 2502.08 1606.32C2502.08 1608.05 2502.68 1608.91 2503.86 1608.91 2505.43 1608.91 2507.25 1607.93 2509.33 1605.98 2511.42 1604.02 2513.86 1601.07 2516.67 1597.12 2515.89 1592.39 2514.82 1586.69 2513.47 1580.02 2512.04 1572.89 2511.09 1568.47 2510.63 1566.77 2510.06 1564.71 2509.47 1563.4 2508.85 1562.83 2508.47 1562.48 2508 1562.31 2507.43 1562.31 2506.57 1562.31 2505.76 1562.66 2505 1563.36 2504.24 1564.06 2503.31 1565.28 2502.2 1567.01L2499.57 1565.27C2501.43 1562.48 2503.17 1560.52 2504.8 1559.37 2506.42 1558.22 2508.23 1557.65 2510.23 1557.65Z" fill-rule="evenodd"/><text fill="#000000" fill-opacity="0" font-family="Arial,Arial_MSFontService,sans-serif" font-size="57.0625" x="2497.14" y="1607.58">𝑦</text><path d="M2547.31 1538.48C2555.2 1540.56 2561.26 1545.05 2565.49 1551.95 2569.72 1558.86 2571.83 1567.18 2571.83 1576.94 2571.83 1586.72 2569.73 1595.05 2565.51 1601.92 2561.3 1608.8 2555.23 1613.28 2547.31 1615.36L2546.34 1612.24C2552.58 1610.16 2557.22 1606.05 2560.26 1599.92 2563.3 1593.78 2564.82 1585.99 2564.82 1576.53 2564.82 1567.4 2563.31 1559.82 2560.28 1553.78 2557.26 1547.74 2552.57 1543.68 2546.22 1541.6Z" fill-rule="evenodd"/><text fill="#000000" fill-opacity="0" font-family="Arial,Arial_MSFontService,sans-serif" font-size="76.8804" x="2546.22" y="1605.75">)</text><text font-family="DengXian,DengXian_MSFontService,sans-serif" font-weight="400" font-size="83" transform="matrix(1 0 0 1 1806.85 2025)">已被</text><path d="M1997.74 1988.48C1994.99 1988.48 1992.52 1989.6 1990.33 1991.83 1988.14 1994.06 1986.42 1997.06 1985.16 2000.84 1983.9 2004.63 1983.28 2008.4 1983.28 2012.15 1983.28 2014.96 1983.66 2017.06 1984.43 2018.45 1985.2 2019.85 1986.49 2020.54 1988.3 2020.54 1989.14 2020.54 1989.99 2020.36 1990.85 2019.99 1991.72 2019.63 1992.62 2019.04 1993.55 2018.23 1994.48 2017.42 1995.4 2016.43 1996.31 2015.27 1997.21 2014.11 1998.04 2012.94 1998.8 2011.77 1999.55 2010.59 2000.26 2009.2 2000.91 2007.59 2001.55 2005.99 2002.11 2004.05 2002.57 2001.78L2002.93 2000.03C2003.34 1998.09 2003.54 1996.25 2003.54 1994.52 2003.54 1992.42 2003.09 1990.88 2002.2 1989.92 2001.31 1988.96 1999.83 1988.48 1997.74 1988.48ZM2014.73 1966.76 2017.12 1966.76 2007.03 2011.63C2006.43 2014.27 2006.13 2016.27 2006.13 2017.62 2006.13 2018.7 2006.31 2019.49 2006.66 2019.97 2007.01 2020.46 2007.57 2020.7 2008.32 2020.7 2009.13 2020.7 2010 2020.37 2010.92 2019.71 2011.83 2019.05 2013.13 2017.79 2014.81 2015.92L2017.12 2018.19C2014.63 2020.81 2012.54 2022.66 2010.83 2023.74 2009.13 2024.82 2007.3 2025.36 2005.32 2025.36 2003.65 2025.36 2002.31 2024.81 2001.31 2023.7 2000.31 2022.59 1999.81 2021.12 1999.81 2019.28 1999.81 2017.8 2000.12 2016.22 2000.74 2014.54L2000.22 2014.38C1997.62 2018.16 1995.16 2020.93 1992.84 2022.69 1990.52 2024.45 1988.06 2025.32 1985.46 2025.32 1982.49 2025.32 1980.19 2024.2 1978.55 2021.96 1976.92 2019.72 1976.1 2016.57 1976.1 2012.52 1976.1 2007.87 1977.01 2003.4 1978.84 1999.12 1980.66 1994.84 1983.17 1991.46 1986.36 1988.99 1989.54 1986.52 1993.1 1985.28 1997.02 1985.28 1998.66 1985.28 2000.18 1985.45 2001.57 1985.79 2002.97 1986.13 2004.39 1986.71 2005.85 1987.55L2007.96 1978.19C2008.17 1977.3 2008.36 1976.31 2008.52 1975.23 2008.69 1974.15 2008.77 1973.21 2008.77 1972.39 2008.77 1971.58 2008.62 1970.97 2008.32 1970.55 2008.03 1970.13 2007.6 1969.83 2007.05 1969.64 2006.49 1969.45 2005.5 1969.31 2004.07 1969.23L2004.55 1967.13Z" fill-rule="evenodd"/><text fill="#000000" fill-opacity="0" font-family="Arial,Arial_MSFontService,sans-serif" font-size="58.6025" x="1976.1" y="2018.04">𝑑</text><path d="M2100.3 1962.39 2118.37 1962.39 2118.37 2039.68 2100.3 2039.68 2100.3 2036.56 2111.64 2036.56 2111.64 1965.51 2100.3 1965.51ZM2031.25 1962.39 2049.33 1962.39 2049.33 1965.51 2037.98 1965.51 2037.98 2036.56 2049.33 2036.56 2049.33 2039.68 2031.25 2039.68Z" fill-rule="evenodd"/><path d="M2072 1966.76 2074.35 1966.76 2066.41 2002.14 2067.71 2002.14C2069.73 2002.14 2072.01 2001.26 2074.53 1999.49 2077.06 1997.72 2079.08 1996.08 2080.59 1994.56 2082.11 1993.05 2082.86 1991.59 2082.86 1990.19 2082.86 1988.86 2081.94 1988.12 2080.11 1987.96L2080.55 1985.97 2093.68 1985.97 2094.45 1987.96C2092.21 1989.98 2089.83 1991.97 2087.32 1993.91L2077.27 2001.7 2081.24 2016.33C2081.57 2017.57 2081.86 2018.47 2082.11 2019.02 2082.37 2019.58 2082.67 2019.99 2083.01 2020.26 2083.34 2020.53 2083.8 2020.66 2084.36 2020.66 2085.07 2020.66 2085.9 2020.28 2086.88 2019.53 2087.85 2018.77 2088.96 2017.68 2090.2 2016.25L2092.51 2018.51C2090.08 2021.08 2088.06 2022.86 2086.47 2023.86 2084.88 2024.86 2083.34 2025.36 2081.85 2025.36 2080.01 2025.36 2078.55 2024.84 2077.47 2023.8 2076.39 2022.76 2075.54 2021.03 2074.92 2018.6L2072.25 2008.06C2071.97 2007.01 2071.7 2006.28 2071.43 2005.87 2071.16 2005.47 2070.85 2005.19 2070.5 2005.06 2070.15 2004.92 2069.53 2004.86 2068.64 2004.86L2065.84 2004.86 2061.63 2024.72 2054.62 2024.72 2065.03 1978.39C2065.38 1976.83 2065.63 1975.6 2065.78 1974.73 2065.93 1973.85 2066 1973.07 2066 1972.39 2066 1971.26 2065.66 1970.46 2064.97 1970 2064.28 1969.54 2063.05 1969.29 2061.26 1969.23L2061.75 1967.13Z" fill-rule="evenodd"/><text fill="#000000" fill-opacity="0" font-family="Arial,Arial_MSFontService,sans-serif" font-size="58.6025" x="2054.62" y="2018.04">𝑘</text><path d="M2136.67 1965.99 2154.74 1965.99 2154.74 1969.11 2143.4 1969.11 2143.4 2040.16 2154.74 2040.16 2154.74 2043.28 2136.67 2043.28Z" fill-rule="evenodd"/><text fill="#000000" fill-opacity="0" font-family="Arial,Arial_MSFontService,sans-serif" font-size="77.2856" x="2136.67" y="2033.62">[</text><path d="M2205.88 2015.31 2214.07 2015.31 2214.07 2024.72 2205.88 2024.72ZM2186.02 2015.31 2194.21 2015.31 2194.21 2024.72 2186.02 2024.72ZM2166.17 2015.31 2174.35 2015.31 2174.35 2024.72 2166.17 2024.72Z" fill-rule="evenodd"/><text fill="#000000" fill-opacity="0" font-family="Arial,Arial_MSFontService,sans-serif" font-size="9.40234" x="2166.17" y="2023.54">…</text><path d="M2233.44 1965.99 2251.52 1965.99 2251.52 2043.28 2233.44 2043.28 2233.44 2040.16 2244.79 2040.16 2244.79 1969.11 2233.44 1969.11Z" fill-rule="evenodd"/><text fill="#000000" fill-opacity="0" font-family="Arial,Arial_MSFontService,sans-serif" font-size="77.2856" x="2233.44" y="2033.62">]</text><text font-family="DengXian,DengXian_MSFontService,sans-serif" font-weight="400" font-size="83" transform="matrix(1 0 0 1 2260.35 2025)">的信息覆盖</text><path d="M413.328 1769.41C411.95 1769.41 410.592 1769.88 409.255 1770.81 407.918 1771.74 406.452 1773.24 404.858 1775.29 403.264 1777.34 402.021 1779.37 401.129 1781.37 400.238 1783.37 399.535 1785.66 399.022 1788.26L398.698 1789.96C398.428 1791.39 398.259 1792.49 398.191 1793.24 398.124 1794 398.09 1794.74 398.09 1795.47 398.09 1797.58 398.542 1799.11 399.447 1800.07 400.353 1801.03 401.913 1801.51 404.128 1801.51 405.506 1801.51 406.776 1801.24 407.938 1800.7 409.1 1800.16 410.201 1799.38 411.241 1798.35 412.281 1797.32 413.22 1796.08 414.058 1794.62 414.895 1793.16 415.645 1791.47 416.307 1789.53 416.969 1787.6 417.469 1785.62 417.806 1783.58 418.144 1781.54 418.313 1779.63 418.313 1777.84 418.313 1775.01 417.914 1772.89 417.117 1771.5 416.32 1770.11 415.057 1769.41 413.328 1769.41ZM361.397 1767.83C358.641 1767.83 356.169 1768.95 353.98 1771.18 351.792 1773.4 350.07 1776.41 348.813 1780.19 347.557 1783.98 346.929 1787.74 346.929 1791.5 346.929 1794.31 347.314 1796.41 348.084 1797.8 348.854 1799.19 350.144 1799.89 351.954 1799.89 352.792 1799.89 353.643 1799.71 354.507 1799.34 355.372 1798.98 356.27 1798.39 357.202 1797.58 358.134 1796.77 359.053 1795.78 359.958 1794.62 360.863 1793.46 361.694 1792.29 362.451 1791.11 363.207 1789.94 363.91 1788.55 364.558 1786.94 365.207 1785.33 365.76 1783.39 366.22 1781.12L366.584 1779.38C366.99 1777.44 367.192 1775.6 367.192 1773.87 367.192 1771.76 366.747 1770.23 365.855 1769.27 364.963 1768.31 363.477 1767.83 361.397 1767.83ZM396.266 1764.63C397.941 1764.63 399.272 1765.18 400.258 1766.29 401.244 1767.4 401.737 1768.87 401.737 1770.71 401.737 1772.22 401.427 1773.82 400.805 1775.49L401.291 1775.65C406.29 1768.33 411.261 1764.67 416.206 1764.67 419.151 1764.67 421.44 1765.79 423.075 1768.03 424.71 1770.28 425.527 1773.44 425.527 1777.52 425.527 1781.98 424.628 1786.36 422.832 1790.67 421.035 1794.98 418.543 1798.4 415.354 1800.92 412.166 1803.45 408.6 1804.71 404.655 1804.71 401.062 1804.71 398.076 1803.93 395.699 1802.36L393.834 1811.24C393.429 1813.16 393.227 1814.74 393.227 1815.98 393.227 1817.17 393.53 1818.01 394.138 1818.51 394.746 1819.01 395.928 1819.34 397.685 1819.5L397.36 1821.49 384.837 1821.49 394.604 1778.49C395.172 1776.01 395.456 1773.97 395.456 1772.37 395.456 1771.29 395.28 1770.51 394.929 1770.02 394.577 1769.53 394.024 1769.29 393.267 1769.29 392.43 1769.29 391.545 1769.64 390.613 1770.32 389.68 1771.01 388.404 1772.26 386.783 1774.07L384.473 1771.8C386.904 1769.26 388.964 1767.43 390.653 1766.31 392.342 1765.19 394.213 1764.63 396.266 1764.63ZM378.378 1746.11 380.769 1746.11 370.678 1790.97C370.083 1793.62 369.786 1795.62 369.786 1796.97 369.786 1798.05 369.962 1798.84 370.313 1799.32 370.664 1799.81 371.218 1800.05 371.975 1800.05 372.785 1800.05 373.65 1799.72 374.568 1799.06 375.487 1798.4 376.784 1797.13 378.459 1795.27L380.769 1797.54C378.283 1800.16 376.189 1802.01 374.487 1803.09 372.785 1804.17 370.948 1804.71 368.976 1804.71 367.3 1804.71 365.963 1804.16 364.963 1803.05 363.964 1801.94 363.464 1800.47 363.464 1798.63 363.464 1797.15 363.775 1795.57 364.396 1793.89L363.869 1793.73C361.275 1797.51 358.817 1800.28 356.493 1802.04 354.17 1803.79 351.711 1804.67 349.117 1804.67 346.145 1804.67 343.842 1803.55 342.207 1801.31 340.573 1799.07 339.755 1795.92 339.755 1791.86 339.755 1787.22 340.667 1782.75 342.491 1778.47 344.315 1774.19 346.821 1770.81 350.009 1768.34 353.197 1765.87 356.75 1764.63 360.667 1764.63 362.316 1764.63 363.835 1764.8 365.227 1765.14 366.618 1765.47 368.043 1766.06 369.502 1766.9L371.61 1757.54C371.826 1756.65 372.015 1755.66 372.177 1754.58 372.339 1753.5 372.42 1752.55 372.42 1751.74 372.42 1750.93 372.272 1750.32 371.975 1749.9 371.677 1749.48 371.252 1749.18 370.698 1748.99 370.144 1748.8 369.151 1748.66 367.719 1748.58L368.206 1746.47Z" fill-rule="evenodd"/><text fill="#000000" fill-opacity="0" font-family="Arial,Arial_MSFontService,sans-serif" font-size="75.3809" x="339.755" y="1812.07">𝑑𝑝</text><path d="M439.134 1745.34 457.209 1745.34 457.209 1748.46 445.862 1748.46 445.862 1819.5 457.209 1819.5 457.209 1822.62 439.134 1822.62Z" fill-rule="evenodd"/><text fill="#000000" fill-opacity="0" font-family="Arial,Arial_MSFontService,sans-serif" font-size="77.2856" x="439.134" y="1812.96">[</text><path d="M643.437 1767.83C640.681 1767.83 638.208 1768.95 636.02 1771.18 633.832 1773.4 632.109 1776.41 630.853 1780.19 629.596 1783.98 628.968 1787.74 628.968 1791.5 628.968 1794.31 629.353 1796.41 630.123 1797.8 630.893 1799.19 632.183 1799.89 633.994 1799.89 634.831 1799.89 635.682 1799.71 636.547 1799.34 637.411 1798.98 638.31 1798.39 639.242 1797.58 640.174 1796.77 641.093 1795.78 641.998 1794.62 642.903 1793.46 643.734 1792.29 644.49 1791.11 645.247 1789.94 645.949 1788.55 646.598 1786.94 647.246 1785.33 647.8 1783.39 648.259 1781.12L648.624 1779.38C649.029 1777.44 649.232 1775.6 649.232 1773.87 649.232 1771.76 648.786 1770.23 647.895 1769.27 647.003 1768.31 645.517 1767.83 643.437 1767.83ZM553.518 1767.83C550.735 1767.83 548.236 1768.95 546.02 1771.2 543.805 1773.44 542.075 1776.44 540.833 1780.21 539.59 1783.98 538.968 1787.74 538.968 1791.5 538.968 1794.31 539.353 1796.41 540.123 1797.8 540.893 1799.19 542.183 1799.89 543.994 1799.89 545.777 1799.89 547.526 1799.12 549.242 1797.58 550.958 1796.04 552.727 1793.84 554.551 1790.99 556.375 1788.14 557.665 1784.85 558.421 1781.12L558.786 1779.38C559.029 1778.27 559.191 1777.32 559.272 1776.5 559.354 1775.69 559.394 1774.82 559.394 1773.87 559.394 1771.79 558.948 1770.26 558.057 1769.29 557.165 1768.32 555.652 1767.83 553.518 1767.83ZM589.548 1764.63C590.385 1764.63 591.122 1764.72 591.757 1764.91 592.391 1765.1 592.952 1765.39 593.438 1765.79 593.925 1766.18 594.357 1766.68 594.735 1767.31 595.114 1767.93 595.478 1768.77 595.83 1769.84 596.181 1770.91 596.512 1772.23 596.823 1773.81 597.133 1775.39 597.41 1777.03 597.653 1778.73L598.059 1778.73C600.652 1775.09 602.618 1772.42 603.955 1770.73 605.293 1769.04 606.421 1767.78 607.339 1766.96 608.258 1766.14 609.143 1765.56 609.994 1765.22 610.845 1764.88 611.973 1764.71 613.378 1764.71 614.648 1764.71 615.688 1764.87 616.499 1765.2L614.877 1772.53 612.041 1772.53C611.878 1771.4 611.406 1770.83 610.622 1770.83 610.379 1770.83 610.122 1770.87 609.852 1770.95 609.582 1771.03 609.251 1771.21 608.859 1771.48 608.467 1771.75 607.893 1772.28 607.137 1773.06 606.38 1773.84 605.529 1774.8 604.583 1775.94 603.638 1777.07 602.665 1778.26 601.666 1779.5L598.91 1782.95C599.396 1785.54 599.855 1787.79 600.288 1789.68 600.72 1791.57 601.105 1793.14 601.443 1794.4 601.78 1795.65 602.078 1796.65 602.334 1797.38 602.591 1798.11 602.868 1798.65 603.165 1799.02 603.462 1799.38 603.766 1799.64 604.077 1799.79 604.388 1799.94 604.746 1800.01 605.151 1800.01 605.88 1800.01 606.59 1799.73 607.279 1799.16 607.968 1798.59 608.96 1797.31 610.257 1795.31L612.892 1797.05C611 1799.86 609.291 1801.84 607.765 1802.99 606.238 1804.14 604.421 1804.71 602.314 1804.71 601.152 1804.71 600.166 1804.5 599.355 1804.08 598.545 1803.66 597.842 1803 597.248 1802.08 596.654 1801.16 596.127 1799.73 595.667 1797.78 594.83 1794.32 594.317 1791.68 594.127 1789.84L593.722 1789.84C590.858 1793.86 588.731 1796.76 587.339 1798.51 585.948 1800.27 584.799 1801.56 583.894 1802.4 582.989 1803.24 582.111 1803.83 581.26 1804.16 580.409 1804.5 579.281 1804.67 577.876 1804.67 576.606 1804.67 575.566 1804.51 574.755 1804.19L576.376 1796.85 579.213 1796.85C579.375 1797.98 579.848 1798.55 580.632 1798.55 581.01 1798.55 581.409 1798.45 581.827 1798.25 582.246 1798.05 582.847 1797.56 583.631 1796.79 584.414 1796.02 585.495 1794.81 586.873 1793.16 588.251 1791.51 590.25 1789.04 592.871 1785.75 592.466 1783.61 592.047 1781.56 591.615 1779.58 591.182 1777.61 590.737 1775.78 590.277 1774.07 589.818 1772.37 589.44 1771.26 589.143 1770.73 588.845 1770.2 588.528 1769.84 588.19 1769.64 587.852 1769.43 587.427 1769.33 586.914 1769.33 586.346 1769.33 585.833 1769.46 585.374 1769.72 584.914 1769.97 584.414 1770.42 583.874 1771.05 583.334 1771.69 582.618 1772.68 581.726 1774.03L579.092 1772.29C580.794 1769.72 582.429 1767.81 583.996 1766.54 585.563 1765.27 587.413 1764.63 589.548 1764.63ZM552.707 1764.63C554.463 1764.63 556.105 1764.83 557.631 1765.22 559.158 1765.61 560.731 1766.31 562.353 1767.31L566.081 1764.63 568.675 1765.28 562.717 1790.97C562.123 1793.54 561.826 1795.54 561.826 1796.97 561.826 1798.05 562.001 1798.84 562.353 1799.32 562.704 1799.81 563.258 1800.05 564.014 1800.05 564.825 1800.05 565.689 1799.72 566.608 1799.06 567.527 1798.4 568.823 1797.13 570.499 1795.27L572.809 1797.54C570.377 1800.13 568.303 1801.98 566.588 1803.07 564.872 1804.16 563.014 1804.71 561.015 1804.71 559.34 1804.71 558.003 1804.16 557.003 1803.05 556.003 1801.94 555.503 1800.47 555.503 1798.63 555.503 1797.15 555.814 1795.57 556.436 1793.89L555.909 1793.73C553.315 1797.51 550.856 1800.28 548.533 1802.04 546.209 1803.79 543.75 1804.67 541.157 1804.67 538.185 1804.67 535.881 1803.55 534.247 1801.31 532.612 1799.07 531.795 1795.92 531.795 1791.86 531.795 1787.22 532.707 1782.75 534.531 1778.47 536.354 1774.19 538.86 1770.81 542.048 1768.34 545.237 1765.87 548.789 1764.63 552.707 1764.63ZM471.306 1764.63C473.008 1764.63 474.352 1765.19 475.338 1766.31 476.324 1767.43 476.817 1768.9 476.817 1770.71 476.817 1772.2 476.507 1773.78 475.885 1775.45L476.372 1775.61C478.857 1771.91 481.329 1769.16 483.788 1767.37 486.247 1765.57 488.732 1764.67 491.245 1764.67 493.839 1764.67 495.811 1765.41 497.162 1766.88 498.513 1768.35 499.188 1770.48 499.188 1773.26L499.188 1773.83C499.188 1774.02 499.175 1774.22 499.148 1774.44 501.472 1771.14 503.788 1768.69 506.098 1767.08 508.408 1765.47 510.806 1764.67 513.292 1764.67 515.778 1764.67 517.696 1765.39 519.047 1766.82 520.398 1768.25 521.073 1770.26 521.073 1772.86 521.073 1774.56 520.681 1776.98 519.898 1780.11L517.264 1790.73C516.534 1793.67 516.169 1795.76 516.169 1796.97 516.169 1798.05 516.345 1798.84 516.696 1799.32 517.048 1799.81 517.601 1800.05 518.358 1800.05 519.168 1800.05 520.033 1799.72 520.952 1799.06 521.87 1798.4 523.167 1797.13 524.842 1795.27L527.152 1797.54C524.829 1800 522.802 1801.81 521.073 1802.97 519.344 1804.13 517.372 1804.71 515.156 1804.71 513.4 1804.71 511.995 1804.08 510.941 1802.83 509.888 1801.57 509.361 1799.97 509.361 1798.02 509.361 1796.27 509.807 1793.69 510.698 1790.28L512.481 1783.27C513.13 1780.73 513.555 1778.86 513.758 1777.64 513.961 1776.42 514.062 1775.44 514.062 1774.68 514.062 1772.82 513.751 1771.47 513.13 1770.65 512.508 1769.82 511.495 1769.41 510.09 1769.41 508.956 1769.41 507.74 1769.84 506.443 1770.69 505.146 1771.54 503.782 1772.86 502.35 1774.66 500.918 1776.46 499.749 1778.23 498.844 1779.97 497.939 1781.71 497.216 1783.84 496.676 1786.35L492.988 1804.06 485.977 1804.06 490.637 1783.48C491.205 1780.96 491.59 1779.11 491.792 1777.9 491.995 1776.7 492.096 1775.67 492.096 1774.8 492.096 1772.86 491.752 1771.47 491.063 1770.65 490.374 1769.82 489.3 1769.41 487.841 1769.41 486.814 1769.41 485.646 1769.84 484.335 1770.69 483.025 1771.54 481.627 1772.9 480.141 1774.78 478.655 1776.66 477.493 1778.46 476.655 1780.19 475.818 1781.92 475.115 1784.03 474.548 1786.52L470.698 1804.06 463.687 1804.06 469.604 1778.37C470.198 1775.78 470.495 1773.78 470.495 1772.37 470.495 1771.29 470.319 1770.51 469.968 1770.02 469.617 1769.53 469.063 1769.29 468.307 1769.29 467.469 1769.29 466.584 1769.64 465.652 1770.32 464.72 1771.01 463.443 1772.26 461.822 1774.07L459.512 1771.8C461.89 1769.32 463.936 1767.5 465.652 1766.35 467.368 1765.2 469.252 1764.63 471.306 1764.63ZM660.417 1746.11 662.809 1746.11 652.717 1790.97C652.123 1793.62 651.826 1795.62 651.826 1796.97 651.826 1798.05 652.001 1798.84 652.353 1799.32 652.704 1799.81 653.258 1800.05 654.014 1800.05 654.825 1800.05 655.689 1799.72 656.608 1799.06 657.526 1798.4 658.823 1797.13 660.499 1795.27L662.809 1797.54C660.323 1800.16 658.229 1802.01 656.527 1803.09 654.825 1804.17 652.987 1804.71 651.015 1804.71 649.34 1804.71 648.003 1804.16 647.003 1803.05 646.003 1801.94 645.503 1800.47 645.503 1798.63 645.503 1797.15 645.814 1795.57 646.436 1793.89L645.909 1793.73C643.315 1797.51 640.856 1800.28 638.533 1802.04 636.209 1803.79 633.75 1804.67 631.157 1804.67 628.185 1804.67 625.881 1803.55 624.247 1801.31 622.612 1799.07 621.795 1795.92 621.795 1791.86 621.795 1787.22 622.707 1782.75 624.531 1778.47 626.354 1774.19 628.86 1770.81 632.048 1768.34 635.236 1765.87 638.789 1764.63 642.707 1764.63 644.355 1764.63 645.875 1764.8 647.266 1765.14 648.658 1765.47 650.083 1766.06 651.542 1766.9L653.649 1757.54C653.866 1756.65 654.055 1755.66 654.217 1754.58 654.379 1753.5 654.46 1752.55 654.46 1751.74 654.46 1750.93 654.311 1750.32 654.014 1749.9 653.717 1749.48 653.291 1749.18 652.738 1748.99 652.184 1748.8 651.191 1748.66 649.759 1748.58L650.245 1746.47Z" fill-rule="evenodd"/><text fill="#000000" fill-opacity="0" font-family="Arial,Arial_MSFontService,sans-serif" font-size="58.6025" x="459.512" y="1797.39">𝑚𝑎𝑥𝑑</text><path d="M669.718 1745.34 687.793 1745.34 687.793 1822.62 669.718 1822.62 669.718 1819.5 681.065 1819.5 681.065 1748.46 669.718 1748.46Z" fill-rule="evenodd"/><text fill="#000000" fill-opacity="0" font-family="Arial,Arial_MSFontService,sans-serif" font-size="77.2856" x="669.718" y="1812.96">]</text><text font-family="DengXian,DengXian_MSFontService,sans-serif" font-weight="400" font-size="83" transform="matrix(1 0 0 1 696.621 1804)">：</text></g></svg>