<?xml version="1.0" encoding="utf-8"?>
<!-- Generator: Adobe Illustrator 25.0.0, SVG Export Plug-In . SVG Version: 6.00 Build 0)  -->
<svg version="1.1" id="图层_1" xmlns="http://www.w3.org/2000/svg" xmlns:xlink="http://www.w3.org/1999/xlink" x="0px" y="0px"
	 viewBox="0 0 996 627.93" style="enable-background:new 0 0 996 627.93;" xml:space="preserve">
<style type="text/css">
	.st0{fill:#FFFFFF;}
	.st1{fill:#B12B1A;}
	.st2{fill:#C3D5EB;}
	.st3{fill:#D9E2F2;}
	.st4{fill:#F2DCD7;}
	.st5{fill:#C0553D;}
	.st6{fill:#EDCDC7;}
	.st7{fill:#CE7762;}
	.st8{fill:#F1D6D0;}
	.st9{fill:#ECD4CF;}
	.st10{fill:#D7907F;}
	.st11{fill:#FFD51E;}
	.st12{fill:#4B82C3;}
	.st13{fill:#EACDC6;}
	.st14{fill:#FFFFFE;}
	.st15{fill:#FFFFFD;}
	.st16{fill:#FDFEFE;}
	.st17{fill:#FBFDFE;}
</style>
<g>
	<g>
		<path class="st0" d="M996,488.58c0,46.45,0,92.9,0,139.35c-319.28,0-638.55,0-957.83,0c-0.21-0.26-0.23-0.53-0.06-0.81
			c0.62-0.88,1.61-0.98,2.55-1.18c1.71-0.38,3.31-1.04,4.81-1.92c6.89-4.08,6.94-13.56,0-17.56c-4.9-2.82-10.18-3.43-15.61-1.73
			c-4.72,1.48-7.69,5.58-7.71,10.39c-0.02,4.98,2.94,9.02,7.78,10.65c1.07,0.36,2.33,0.3,3.1,1.35c0.16,0.29,0.14,0.56-0.07,0.82
			c-10.99,0-21.98,0-32.97,0C0,581.28,0,534.64,0,488c1.06-0.16,1.29,0.69,1.66,1.36c0.73,2.29,1.06,4.7,1.88,6.96
			c5.65,15.46,16.53,24.76,32.88,27.12c5.69,0.82,11.53,0.16,17.3,0.21c3.27,0.03,6.54,0.06,9.81-0.07c0.5,0.06,0.85,0.34,1.11,0.75
			c4.8,11.85,15.05,18.93,27.76,18.97c2.46,0.01,4.04,0.84,5.56,2.8c7.81,10.05,18.28,15.3,30.9,15.59
			c6.14,0.14,12.23-1.45,18.07-3.52c8.97-3.17,17.26-7.65,24.69-13.6c2.22-1.78,4.09-1.39,6.35-0.26
			c13.46,6.78,27.33,12.58,42.1,15.79c18.51,4.02,37.03,4.2,54.8-3.11c22.65-9.33,34.84-26.98,38.43-50.93
			c1.08-7.22,0.74-14.21-2.65-20.83c-2.39-4.67-2.35-4.6,1.28-8.64c6.7-7.46,11.2-15.77,10.68-26.28
			c-0.38-7.71-3.67-14.06-8.17-19.97c-6.05-7.95-14.05-13.64-22.29-19.05c-1.83-1.2-2.29-0.63-2.24,1.32
			c0.05,2.11,0.16,4.24-0.11,6.35c-0.07,0.56-0.18,1.26-0.85,1.36c-0.86,0.13-1.1-0.56-1.24-1.26c0-3.76,0.61-7.56-0.98-11.19
			c-0.16-0.36,0.01-0.74,0.29-1.03c1.19-0.67,1.3-1.79,1.3-2.99c-0.02-23.79,0.26-47.58-0.11-71.36
			c-0.26-17.12-14.28-33.06-31.13-36.34c-3.32-0.65-6.65-0.98-10.04-0.98c-67.91,0.03-135.83,0.02-203.74,0.02
			c-21.2,0-36.1,11.8-40.94,32.41c-0.18,0.75-0.33,1.5-0.67,2.21c-0.38,0.66-0.86,1.15-1.72,0.94C0,220.49,0,110.24,0,0
			c279.37,0,558.73,0,838.1,0c0.19,0.29,0.16,0.56-0.1,0.8c-1.31,0.72-2.78,0.77-4.2,0.97c-18.33,2.61-35.03,9-49.28,21.12
			c-10.87,9.25-18.77,20.58-23.7,33.98c-5.08,13.8-6.66,28.14-5.74,42.66c1.99,31.37,13.11,59.19,33.56,83.2
			c4.76,5.59,10.04,10.64,15.48,15.54c0.76,0.69,1.77,1.25,1.83,2.48c-0.18,0.73-0.75,0.97-1.4,1.11
			c-3.66-0.09-7.26-0.84-10.89-1.23c-5.81-0.63-11.35,0.23-16.72,2.24c-5.51,2.06-9.34,6-11.56,11.46c-2.44,6-0.33,11.91,5.35,15.05
			c4.48,2.47,9.34,3.66,14.38,3.95c11.33,0.65,22.29-1.02,32.76-5.53c0.53-0.23,1.06-0.47,1.63-0.58c1.89-0.38,2.55,0.29,2,2.19
			c-0.48,1.66-1.27,3.23-1.96,4.81c-1.94,4.41-3.78,8.86-5.7,13.28c-1.28,2.95-1.08,3.21,2.22,3.22c5.49,0.02,10.99-0.03,16.48,0.02
			c3.57,0.03,4.18,0.48,4.83,3.99c1.73,9.46,5.3,18.08,11.23,25.69c2.68,3.43,5.9,6.34,9.04,9.33c0.81,0.77,2.25,1.46,1.72,2.71
			c-0.49,1.16-2.01,0.84-3.14,0.89c-0.96,0.05-1.93,0.01-2.89,0.01c-35.08,0-70.16,0-105.24,0c-20.47,0-37.14,15-39.46,35.35
			c-0.35,3.08-0.48,6.14-0.48,9.22c0,47.69-0.07,95.38,0.04,143.07c0.04,15.69,6.79,28.01,20.42,35.88
			c9.44,5.46,19.75,6.94,30.35,3.28c30.06-10.37,59.03-23.11,86.2-39.74c17.99-11.01,34.77-23.59,49.15-39.12
			c11.04-11.93,20.07-25.12,24.74-40.93c4.98-16.86,2.67-32.99-4.83-48.56c-5.44-11.29-12.84-21.25-21.45-30.32
			c-9.18-9.67-19.19-18.39-30.14-26.03c-1.03-0.72-2.88-1.36-2.34-2.85c0.42-1.17,2.21-0.77,3.45-0.83
			c3.64-0.2,7.32,0.44,10.93-0.51c1.63-0.26,3.27-0.2,4.9-0.2c25.88-0.05,51.76,0.1,77.64-0.07c0.92-0.01,1.97-0.27,2.54,0.84
			c0.08,1.07-0.73,1.23-1.49,1.38c-0.95,0.2-1.92,0.14-2.88,0.14c-25.06,0-50.12,0-75.18,0c-1.06,0-2.12,0.04-3.27-0.19
			c9.16,6.53,17.72,13.69,25.59,21.55c9.64,9.62,18.22,20.19,24.41,32.43c11.15,22.05,12.46,44.56,2.81,67.54
			c-5.99,14.26-14.93,26.49-25.57,37.52c-18.58,19.25-40.49,34.07-63.6,47.24c-14.91,8.5-30.3,16.07-46.15,22.68
			c1.34-0.39,2.72-0.23,4.09-0.23c52.24-0.01,104.48-0.01,156.72-0.01c18.49,0,33.39-11.22,38.61-29.04
			c0.4-1.38,0.56-2.84,1.29-4.12C995.39,488.44,995.68,488.39,996,488.58z"/>
		<path class="st1" d="M873.96,291.99c-0.61,0.93-1.57,0.52-2.36,0.53c-3.66,0.05-7.32,0.02-11.18,0.02
			c0.33,1.07,1.23,1.32,1.87,1.76c15.21,10.56,28.91,22.76,40.31,37.41c6.66,8.56,12.16,17.81,15.83,28.06
			c6.3,17.58,5.13,34.78-2.62,51.66c-5.9,12.86-14.4,23.87-24.24,33.91c-15.29,15.6-32.91,28.15-51.67,39.17
			c-26.83,15.75-55.27,27.92-84.75,37.73c-0.64,0.21-1.28,0.46-1.94,0.51c-18.65,1.37-32.78-6.92-40.69-21.01
			c-3.67-6.55-5.07-13.66-5.07-21.1c0.01-16.77,0-33.53,0-50.3c0-31.89,0.01-63.79-0.01-95.68c-0.01-10.28,2.78-19.62,9.47-27.53
			c8.11-9.59,18.51-14.56,31.11-14.59c22.75-0.06,45.49-0.02,68.24-0.02c13.3,0,26.6,0,39.9,0c0.96,0,1.91,0,2.84,0
			c0.35-0.88-0.37-1.06-0.77-1.37c-12.28-9.48-19.15-22.12-21.8-37.22c-0.39-2.2-0.38-2.22-2.7-2.23c-6.36-0.01-12.72,0-19.08,0
			c-0.95,0-1.91,0-3.35,0c3.24-8.3,6.92-16.05,10.23-24.25c-1.08-0.1-1.68,0.4-2.31,0.67c-12.29,5.35-25.07,7.28-38.38,5.47
			c-3.36-0.46-6.59-1.39-9.61-2.95c-7.38-3.82-9.68-10.88-5.93-18.26c2.91-5.72,7.61-9.33,13.7-11.18
			c6.41-1.95,12.93-1.78,19.47-0.87c2,0.28,3.99,0.63,5.99,0.95c0.61,0.16,1.43,0.71,1.24-0.65c-8.59-7.47-16.58-15.52-23.43-24.65
			c-14.07-18.76-22.91-39.7-26.44-62.9c-1.72-11.29-2.25-22.61-0.95-33.95c4.72-41.37,31.18-65.11,61.99-74.48
			c6.92-2.11,14-3.41,21.19-4.16c0.69-0.33,1.42-0.13,2.13-0.19c0.42,0,0.85,0,1.27,0c0.8-0.12,1.66,0.27,2.41-0.3
			c3.47,0,6.94,0,10.41,0c0.77,0.58,1.66,0.18,2.49,0.3c0.74,0,1.47,0,2.21,0c14.87,0.33,28.61,4.83,41.63,11.65
			c16.89,8.86,29.8,21.74,38.11,38.99c5.43,11.27,8.28,23.24,8.25,35.74c-0.1,35.63-11.75,67.19-34.19,94.79
			c-4.06,5-8.38,9.82-13.77,14c5.11-0.25,9.96-0.59,14.74,0.41c5.42,1.13,10.27,3.12,13.47,8.07c5.49,8.5,3.61,26.09-12.41,28.68
			c-8.29,1.34-16.06-0.71-23.9-2.72c-5.58-1.43-10.91-3.6-16.73-5.73c3.81,7.73,7.47,15.02,11.13,22.32
			c2.7,5.38,2.48,5.77-3.43,5.77c-10.31,0.01-20.62-0.01-30.93,0.01c-3.67,0.01-3.86,0.27-2.96,3.82
			c3.54,14.06,11.48,25.06,23.27,33.38C872.28,290.2,873.53,290.67,873.96,291.99z"/>
		<path class="st0" d="M873.96,291.99c-8.92-5.09-15.69-12.32-20.87-21.1c-3.15-5.35-5.29-11.11-6.45-17.22
			c-0.36-1.88-0.32-1.93,1.62-1.96c3.08-0.04,6.17-0.01,9.25-0.01c8.67,0,17.35,0.01,26.02-0.01c0.95,0,1.93,0.15,3.27-0.31
			c-4.67-9.38-9.32-18.7-13.98-28.04c0.77-0.63,1.31-0.05,1.86,0.16c7.63,2.96,15.3,5.78,23.34,7.43
			c5.39,1.11,10.79,1.86,16.34,0.98c9.78-1.56,15.33-8.49,14.84-18.77c-0.48-9.98-6.82-14.88-15.29-16.5
			c-4.77-0.91-9.58-0.88-14.39-0.28c-0.65,0.08-1.32,0.1-1.96,0.14c-0.15-0.69,0.31-0.95,0.66-1.25
			c20.6-18.15,34.16-40.72,41.88-66.91c3.49-11.85,5.96-23.89,6.23-36.32c0.82-37.44-18.72-67.97-53.11-82.88
			c-10.95-4.75-22.39-7.58-34.27-8.67c-0.21-0.1-0.28-0.2-0.22-0.31c0.06-0.12,0.12-0.17,0.19-0.17C904.61,0,950.31,0,996,0
			c0,108.89,0,217.79,0,326.68c-0.28,0.2-0.53,0.18-0.78-0.05c-1.14-2.15-1.21-4.62-2.08-6.85c-5.51-14.15-15.58-22.92-30.57-25.87
			c-1.12-0.22-2.33-0.21-3.01-1.38c-0.1-0.48-0.23-1.06-0.86-0.88c-2.37,0.68-4.78,0.32-7.16,0.32
			C925.68,292,899.82,291.99,873.96,291.99z"/>
		<path class="st1" d="M959.56,292.53c1.97,0.4,3.99,0.67,5.92,1.22c15.94,4.5,25.78,14.9,29.76,30.92c0.16,0.65,0.18,1.33,0.26,2
			c0.42,0.51-0.06,1.28,0.5,1.76c0,52.81,0,105.62,0,158.43c-0.55,0.48-0.08,1.24-0.5,1.76c-2.08,13.17-9.15,22.87-20.66,29.36
			c-5.62,3.17-11.74,4.77-18.24,4.8c-0.87,0-1.73,0.03-2.6,0.03c-52.92,0-105.84,0-158.76,0c-0.96,0-1.92,0-3.13,0
			c0.46-0.93,1.22-1.03,1.84-1.29c27.12-11.49,53.02-25.22,77.09-42.25c13.97-9.88,27.02-20.82,38.24-33.81
			c8.3-9.61,15.3-20.07,20.1-31.87c9.48-23.28,7.72-45.92-4.15-67.89c-7.13-13.2-16.8-24.39-27.71-34.58
			c-6.34-5.93-13.07-11.39-20.03-16.58c-0.67-0.5-1.33-1-1.9-1.99C903.59,292.53,931.58,292.53,959.56,292.53z"/>
		<path class="st2" d="M0,330.73c0.34-0.21,0.69-0.42,1.03-0.63c0.88,0.72,0.8,1.71,0.7,2.66c-0.34,3.08-0.21,6.16-0.21,9.24
			c-0.01,45.85-0.01,91.7,0,137.56c0,2.31-0.06,4.62,0.2,6.93c0.11,0.96,0.19,1.94-0.62,2.7C0.73,488.79,0.36,488.4,0,488
			C0,435.58,0,383.15,0,330.73z"/>
		<path class="st3" d="M38.17,627.33c0,0.2,0.01,0.4,0.01,0.59c-1.74,0-3.47,0-5.21,0c0-0.2,0.01-0.4,0.01-0.6
			C34.71,626.17,36.44,626.17,38.17,627.33z"/>
		<path class="st4" d="M840.35,0.49c-0.76,0-1.52,0-2.27,0c0.01-0.16,0.02-0.32,0.02-0.48c0.77,0,1.54,0,2.31,0
			c0.2,0.13,0.25,0.25,0.17,0.35C840.51,0.44,840.43,0.49,840.35,0.49z"/>
		<path class="st5" d="M843.88,0c-0.63,0.84-1.53,0.54-2.35,0.54c-0.16-0.13-0.21-0.26-0.15-0.37c0.06-0.11,0.12-0.17,0.18-0.17
			C842.34,0,843.11,0,843.88,0z"/>
		<path class="st6" d="M858.92,0c0,0.16,0.01,0.32,0.03,0.49c-0.76,0-1.51,0.01-2.27,0.01c-0.23-0.08-0.32-0.18-0.26-0.3
			c0.06-0.13,0.12-0.2,0.19-0.2C857.38,0,858.15,0,858.92,0z"/>
		<path class="st7" d="M856.61,0c0.01,0.17,0.04,0.33,0.08,0.5c-0.85,0.07-1.72,0.28-2.39-0.5C855.06,0,855.84,0,856.61,0z"/>
		<path class="st8" d="M996,328.42c-0.9-0.38-0.51-1.12-0.5-1.76c0.17,0,0.33,0,0.5,0.02C996,327.26,996,327.84,996,328.42z"/>
		<path class="st9" d="M995.5,488.6c-0.01-0.64-0.4-1.38,0.5-1.76c0,0.58,0,1.16,0,1.73C995.83,488.6,995.67,488.61,995.5,488.6z"/>
		<path class="st10" d="M841.57,0c0.01,0.18,0,0.36-0.04,0.54c-0.39-0.02-0.79-0.04-1.18-0.06c0.03-0.16,0.05-0.32,0.06-0.49
			C840.8,0,841.18,0,841.57,0z"/>
		<path class="st11" d="M497.62,524.39c-34.41,0-68.82,0-103.23,0c-19.81,0-36.34-13.46-40.23-32.81c-0.51-2.54-0.75-5.13-0.74-7.75
			c0.02-49.72-0.01-99.43,0.03-149.15c0.02-20.46,14.94-37.52,35.15-40.24c4.3-0.58,8.66-0.28,13-0.29
			c2.31-0.01,4.63,0.07,6.94-0.02c1.5-0.06,2,0.51,2.07,1.99c0.48,10.28,2.83,20.19,6.48,29.77c6.83,17.95,17.99,32.39,34.81,42.11
			c3.34,1.93,6.79,3.64,10.41,4.98c1.32,0.49,1.94,1.24,2.13,2.7c1.72,13.35,3.53,26.7,5.32,40.05c0.08,0.57,0.24,1.13,0.31,1.7
			c0.11,0.93,0.59,1.35,1.53,1.3c0.58-0.03,1.16,0,1.73,0c18.12,0,36.24,0,54.36,0c0.48,0,0.97-0.03,1.45,0
			c1.2,0.09,1.68-0.46,1.83-1.65c0.73-5.53,1.55-11.05,2.34-16.57c1.18-8.29,2.39-16.57,3.52-24.86c0.19-1.41,1.05-1.89,2.18-2.36
			c6.35-2.66,12.15-6.26,17.52-10.54c15.45-12.29,25.05-28.23,29.39-47.41c1.38-6.11,2.14-12.32,2.37-18.58
			c0.09-2.57,0.1-2.61,2.53-2.6c4.24,0,8.48-0.02,12.72,0.1c19,0.54,35.6,15.66,38.05,34.84c0.26,2.01,0.41,4.02,0.41,6.04
			c-0.01,49.52,0,99.05-0.01,148.57c0,19.53-13.65,36.2-32.78,39.95c-2.64,0.52-5.33,0.76-8.04,0.75
			C566.63,524.38,532.12,524.39,497.62,524.39z"/>
		<path class="st12" d="M1.09,489.19c-0.75-6.04-0.41-12.1-0.41-18.15c-0.03-39.67-0.03-79.35,0-119.02
			c0.01-7.3-0.34-14.62,0.35-21.91c2.89-17.24,12.4-28.85,29.21-34.19c3.41-1.09,6.95-1.57,10.53-1.57
			c69.47-0.01,138.95-0.03,208.42,0.01c19.51,0.01,36.54,14.76,39.52,33.94c0.37,2.39,0.55,4.78,0.56,7.19
			c0.01,23.6,0.01,47.2,0.01,70.8c0,0.48,0,0.96,0,1.44c-1.11,0.38-1.54-0.76-2.37-0.84c-1.74-0.18-2.91-1.43-4.24-2.34
			c-10.71-7.33-21.98-13.59-34.46-17.34c-13.7-4.11-27.44-5.11-41.01,0.62c-5.2,2.2-9.73,5.44-13.8,9.34
			c-2.31,2.21-3.33,2.11-4.42-0.72c-3.86-10.03-12.93-12.98-23.05-10.05c-5.03,1.46-9.74,3.6-14.21,6.32
			c-2.99,1.82-3.36,1.63-5.35-1.16c-7.66-10.72-17.59-17.72-31.13-18.51c-16.55-0.96-31.08,3.62-42.29,16.32
			c-7.59,8.6-8.38,18.46-4.26,28.9c1.74,4.39,1.74,4.53-2.34,7.12c-7.59,4.83-14.78,10.13-20.29,17.39
			c-2.64,3.49-4.77,7.22-5.37,11.67c-1.19,8.72,3.55,14.46,9.87,19.25c4.85,3.68,10.24,6.48,15.9,8.76
			c2.95,1.18,3.08,1.64,1.67,4.53c-3.67,7.53-5.99,15.45-6.45,23.82c-0.19,3.45,0.5,6.89,1.35,10.26c0.23,0.92,0.73,1.8,0.44,2.81
			c-0.49,0.86-1.34,0.62-2.07,0.62c-7.52,0.01-15.07,0.44-22.55-0.09c-16.47-1.17-28.03-9.7-34.86-24.67
			C2.46,496.39,1.61,492.83,1.09,489.19z"/>
		<path class="st11" d="M523.45,348.03c-8.2-3.08-16.37-6.16-25.05-9.43c10.67-4.97,20.86-9.72,31.06-14.47
			c-0.01-0.18-0.02-0.37-0.03-0.55c-13.66-4.16-27.32-8.33-41.16-12.55c1.26-1.8,2.79-2.97,4.14-4.3c3.77-3.72,7.6-7.38,11.33-11.14
			c1.03-1.04,2.09-1.47,3.55-1.47c22.35,0.04,44.7,0.02,67.05,0.03c2.38,0,2.48,0.05,2.29,2.41c-1.03,12.81-4.37,24.98-10.49,36.32
			c-5.73,10.63-13.51,19.39-23.68,25.98c-4.06,2.62-8.32,4.85-12.85,6.52c-1.46,0.54-2.01,1.29-2.21,2.88
			c-1.65,13.26-3.45,26.5-5.15,39.76c-0.18,1.4-0.64,2.03-2.15,2c-4.04-0.08-8.09-0.07-12.14,0c-1.46,0.03-2.19-0.4-2-1.95
			c0.05-0.38,0.01-0.77,0.01-1.15c0-13.48,0.04-26.97-0.04-40.45c-0.01-1.91,0.55-3.2,2.03-4.43c4.88-4.07,9.63-8.29,14.43-12.46
			C522.76,349.27,523.2,349.03,523.45,348.03z"/>
		<path class="st0" d="M63.47,523.87c-2.26-4.32-2.63-9.02-2.44-13.74c0.36-8.61,2.99-16.62,6.79-24.29
			c0.17-0.34,0.34-0.69,0.48-1.05c0.06-0.17,0.04-0.36,0.07-0.68c-4.36-1.91-8.82-3.73-12.95-6.22c-3.72-2.25-7.26-4.72-10.24-7.94
			c-6.04-6.53-7.18-14.12-3.24-22.1c2.87-5.82,7.3-10.36,12.14-14.54c4.17-3.59,8.68-6.72,13.38-9.57c2.17-1.31,2.16-1.34,1.1-3.77
			c-2.93-6.72-4.12-13.61-2.01-20.81c1.98-6.75,6.32-11.83,11.66-16.14c8.14-6.56,17.67-9.56,27.91-10.75
			c7.12-0.83,14.05-0.1,20.72,2.46c8.65,3.32,15.34,9.09,20.41,16.79c1.4,2.12,1.38,2.15,3.64,0.79c4.39-2.63,8.94-4.93,13.86-6.4
			c2.87-0.86,5.79-1.44,8.81-1.38c6.63,0.14,11.63,3.04,14.82,8.88c0.83,1.51,1.41,3.15,2.11,4.75c0.69,0.2,1.02-0.37,1.4-0.75
			c10.62-10.53,23.45-15.01,38.3-14.28c11.06,0.54,21.36,3.82,31.33,8.35c8.54,3.87,16.51,8.73,24.1,14.22
			c0.46,0.33,0.85,0.77,1.27,1.15c2.47,3.44,1.58,7.39,1.67,11.19c0.01,0.5-0.25,0.89-0.67,1.17c-1.45,0.31-2.32-0.72-3.28-1.46
			c-6.4-4.93-13.27-9.13-20.3-13.09c-1.77-1-3.68-1.64-5.52-2.45c-15.4-7.02-31.17-9.99-47.67-4.13
			c-9.91,3.52-17.79,9.83-24.26,18.02c-0.42,0.53-0.76,1.12-1.25,1.59c-0.94,0.88-1.72,0.74-2.26-0.43
			c-0.4-0.88-0.56-1.84-0.82-2.77c-1-3.53-2.07-7.03-4.18-10.1c-3.73-5.42-8.78-7.24-15.08-5.41c-6.48,1.89-11.55,6.06-16.61,10.25
			c-3.31,2.74-3.61,2.68-5.07-1.53c-2.74-7.92-6.92-14.8-14.04-19.6c-5.6-3.78-11.69-4.42-18.24-3.46
			c-8.17,1.2-15.71,3.8-22.32,8.83c-10.12,7.7-12.23,18.79-5.66,29.64c0.75,1.24,1.55,2.44,2.4,3.61c1.2,1.65,0.78,2.76-0.99,3.66
			c-4.2,2.15-8.55,4.03-12.54,6.57c-5.05,3.21-9.93,6.63-13.66,11.44c-5.13,6.62-4.43,12.48,2,17.85
			c7.09,5.93,15.49,9.28,23.97,12.52c3.96,1.51,4.16,1.96,1.83,5.47c-4.45,6.68-8.45,13.57-10.52,21.43
			c-1.5,5.71-2.06,11.37,0.35,16.99c0.19,0.45,0.22,0.93,0.09,1.42c-3.24,2.11-6.62,1.42-10.01,0.5
			C64.11,524.23,63.85,523.98,63.47,523.87z"/>
		<path class="st11" d="M469.22,315.39c11.44,3.72,22.32,7.25,33.78,10.97c-10.41,4.85-20.3,9.46-30.2,14.07
			c0,0.19,0.01,0.37,0.01,0.56c11.25,3.28,22.51,6.55,34.05,9.91c-2.31,2.7-4.76,4.74-7.29,6.57c-2.98,2.15-3.87,4.67-3.81,8.3
			c0.22,13.48,0.09,26.97,0.09,40.46c0,0.67-0.04,1.35,0,2.02c0.08,1.19-0.34,1.74-1.63,1.73c-4.34-0.04-8.67-0.01-13.01,0.03
			c-1.06,0.01-1.53-0.39-1.68-1.47c-0.95-6.95-1.96-13.9-2.94-20.85c-0.85-6-1.75-11.99-2.52-17.99c-0.23-1.82-0.97-2.79-2.74-3.53
			c-8.78-3.68-16.74-8.69-23.72-15.19c-11.99-11.18-19.45-24.95-23.08-40.85c-1.05-4.6-1.83-9.25-1.85-13.99
			c-0.01-2.35-0.02-2.4,2.35-2.39c15.13,0.05,30.25,0.14,45.38,0.19c6.54,0.02,13.09,0,19.78,0.34
			C483.69,301.65,476.36,308.06,469.22,315.39z"/>
		<path class="st12" d="M64.28,524.58c2.78,0.01,5.56,0.01,8.34,0.03c0.92,0.01,1.5-0.25,1.25-1.32c0.83-0.35,1.06,0.29,1.37,0.82
			c1.01,3.02,3.31,4.94,5.84,6.56c4.5,2.89,9.52,4.22,14.85,3.95c3.02-0.15,4.95,0.97,6.8,3.34c5.74,7.36,12.77,12.97,22.51,13.74
			c5.59,0.44,11.14-0.68,16.49-2.2c10.89-3.11,19.92-9.56,28.41-16.78c2-1.7,3.53-2.02,5.88-0.75
			c15.58,8.41,31.74,15.37,49.04,19.45c5.64,1.33,11.35,2.86,17.09,2.75c15.08-0.29,29.14-4.05,40.99-14.06
			c11.13-9.41,18-21.23,20.05-35.68c0.67-4.76,0.77-9.6-0.66-14.33c-0.77-2.53-1.93-4.8-3.72-6.78c-2.2-2.43-2.15-2.85,0.16-5.25
			c1.87-1.95,3.91-3.73,5.66-5.79c9.52-11.17,9.93-23.88,1.17-35.71c-3.7-4.99-8.12-9.25-13.1-12.95c-1.01-0.75-2.02-1.58-3.4-0.8
			c-3.09-0.28-4.99-2.68-7.24-4.3c-6.35-4.57-12.59-9.25-19.85-12.39c-1.71-0.74-4.32-1.38-3.04-4.41c3.8,1.2,7.14,3.33,10.56,5.28
			c5.53,3.14,10.75,6.78,15.82,10.62c0.76,0.58,1.58,1.08,2.37,1.62c0.61,0.74,1.26,1.2,1.31-0.27c0.08-2.31,0.02-4.62,0.03-6.94
			c0-0.93,0-1.86,0-2.69c0.79-0.29,1.19,0.04,1.59,0.28c8.82,5.43,17.13,11.48,23.72,19.6c3.31,4.07,6.03,8.49,7.56,13.54
			c2.93,9.65,1.21,18.65-4.07,27.09c-2.26,3.61-4.94,6.89-8.11,9.74c-0.82,0.74-1.24,1.28-0.42,2.37
			c4.39,5.88,5.41,12.69,5.01,19.75c-0.45,7.94-2.2,15.65-5.45,22.92c-8.11,18.16-21.87,29.94-40.89,35.59
			c-6.59,1.96-13.33,3-20.22,2.92c-3.27-0.03-6.51,0.38-9.79,0.27c-9.71-0.35-19.08-2.44-28.31-5.27
			c-11.45-3.5-22.48-8.06-33.05-13.68c-1.92-1.02-3.05-0.62-4.56,0.58c-9.17,7.27-19.38,12.53-30.73,15.51
			c-7.27,1.91-14.57,2.61-21.96,0.69c-9.3-2.42-16.86-7.46-22.57-15.16c-1.1-1.49-2.16-2.03-4.03-2.01
			c-12.72,0.15-21.79-5.88-27.86-16.81C64.66,526.45,64.05,525.64,64.28,524.58z"/>
		<path class="st12" d="M169.02,597.98c-6.49,0-11.93-1.64-16.75-5.19c-10.63-7.82-10.9-21.61-0.59-29.82
			c9.52-7.59,24.66-7.5,34.12,0.19c10.19,8.28,9.72,22.15-1.03,29.81C179.91,596.44,174.45,598.05,169.02,597.98z"/>
		<path class="st12" d="M120.53,613.6c-6.41,0.07-11.73-1.47-16.25-5.39c-6.79-5.9-7.32-15.73-1.73-22.92
			c8.76-11.25,26.88-11.01,35.41,0.38c6.17,8.25,4.08,19.18-4.72,24.54C129.18,612.68,124.75,613.75,120.53,613.6z"/>
		<path class="st11" d="M503.25,163.34c0,11.94,0,23.88,0,35.82c0,0.67-0.03,1.35,0,2.02c0.04,1.11-0.53,1.55-1.58,1.55
			c-2.41-0.01-4.82,0-7.22,0c-1.03,0-1.64-0.42-1.59-1.55c0.03-0.67,0-1.35,0-2.02c0-23.78,0-47.57,0-71.35c0-0.39-0.01-0.77,0-1.16
			c0.06-2.16,0.06-2.18,2.31-2.21c2.02-0.03,4.05,0.06,6.07-0.03c1.45-0.06,2.09,0.4,2.04,1.95c-0.09,2.69-0.02,5.39-0.02,8.09
			C503.25,144.08,503.25,153.71,503.25,163.34z"/>
		<path class="st11" d="M619.84,172.37c2.01,2.21,3.76,4.25,5.65,6.16c1.08,1.09,0.99,1.75-0.13,2.76
			c-4.37,3.91-8.67,7.91-12.99,11.89c-13.39,12.31-26.77,24.62-40.16,36.93c-1.05,0.97-2.15,1.89-3.31,2.9c-2.08-2.26-4-4.4-6-6.48
			c-0.81-0.84-0.68-1.41,0.12-2.13c2.57-2.32,5.1-4.69,7.65-7.03c15.6-14.31,31.19-28.62,46.79-42.93
			C618.19,173.79,618.93,173.17,619.84,172.37z"/>
		<path class="st11" d="M530.94,208.39c2.01-5.18,3.97-10.29,5.96-15.38c6.88-17.56,13.75-35.13,20.66-52.68
			c1.72-4.36,1.05-3.65,4.94-2.22c1.44,0.53,2.87,1.11,4.29,1.7c1.81,0.75,1.82,0.77,1.08,2.68c-3.64,9.32-7.29,18.65-10.94,27.97
			c-5.16,13.17-10.33,26.34-15.5,39.51c-0.92,2.35-0.96,2.42-3.21,1.49C535.84,210.47,533.32,209.78,530.94,208.39z"/>
		<path class="st11" d="M468.27,206.85c-3.08,1.34-6.06,2.63-9.02,3.92c-1.02-0.59-1.18-1.6-1.54-2.43
			c-9.17-21.18-18.31-42.37-27.46-63.55c-0.23-0.53-0.41-1.08-0.66-1.6c-0.34-0.68-0.08-1.12,0.53-1.38
			c2.56-1.11,5.12-2.21,7.69-3.3c1.16-0.49,1.27,0.56,1.55,1.18c1.33,2.98,2.61,6,3.91,9c7.93,18.36,15.87,36.72,23.8,55.08
			C467.47,204.72,467.82,205.7,468.27,206.85z"/>
		<path class="st11" d="M382.64,175.78c0.77,0.13,1.18,0.7,1.67,1.15c7.41,6.59,14.82,13.19,22.24,19.77
			c9.65,8.57,19.31,17.12,28.96,25.69c0.79,0.7,1.55,1.45,2.35,2.14c0.62,0.53,0.78,1.06,0.2,1.71c-1.79,2.01-3.6,4.02-5.37,6.05
			c-0.95,1.09-1.5,0.13-2.09-0.39c-4.55-4.01-9.1-8.02-13.64-12.06c-13.03-11.58-26.05-23.17-39.07-34.76
			c-0.5-0.45-1.01-0.89-1.49-1.36c-0.4-0.39-0.43-0.81-0.03-1.25c1.87-2.08,3.72-4.16,5.6-6.23
			C382.14,176.02,382.42,175.91,382.64,175.78z"/>
		<path class="st11" d="M588.76,263.31c-0.67,0.17-0.92-0.26-1.13-0.69c-1.21-2.41-2.39-4.83-3.62-7.22
			c-0.43-0.83-0.09-1.24,0.62-1.58c0.52-0.25,1.04-0.51,1.55-0.77c20.04-10.01,40.08-20.02,60.11-30.05c3.2-1.6,2.76-1.44,4.19,1.34
			c0.79,1.54,1.57,3.09,2.32,4.64c0.9,1.85,0.9,1.89-0.87,2.78c-4.03,2.04-8.09,4.03-12.13,6.05
			c-16.34,8.17-32.67,16.35-49.01,24.52C590.11,262.69,589.4,263.01,588.76,263.31z"/>
		<path class="st11" d="M353.82,224.99c0.59,0.29,1.28,0.62,1.97,0.96c15.75,7.87,31.49,15.74,47.24,23.61
			c3.61,1.81,7.24,3.59,10.84,5.42c1.82,0.93,1.83,0.98,0.94,2.82c-0.92,1.91-1.96,3.76-2.81,5.69c-0.64,1.44-1.41,1.5-2.7,0.82
			c-3.06-1.62-6.19-3.12-9.28-4.66c-16.18-8.09-32.35-16.17-48.53-24.26c-0.69-0.34-1.37-0.69-2.05-1.06
			c-0.5-0.27-0.62-0.66-0.35-1.19c1.26-2.49,2.5-4.99,3.74-7.48C353.02,225.3,353.29,225.05,353.82,224.99z"/>
		<path class="st12" d="M76.29,593.67c3.9-0.03,7.66,0.57,11.14,2.46c8.16,4.44,8.67,15.57,0.96,20.76
			c-2.12,1.43-4.46,2.27-6.95,2.62c-5.81,0.82-11.55,0.76-16.79-2.35c-7.76-4.6-7.98-15.48-0.47-20.46
			c2.54-1.69,5.38-2.52,8.38-2.86C73.78,593.71,75.04,593.73,76.29,593.67z"/>
		<path class="st12" d="M38.17,627.33c-1.73,0-3.46,0-5.19,0c-1.38-0.39-2.8-0.67-4.14-1.17c-4.88-1.83-7.58-5.89-7.51-11.15
			c0.07-5.16,2.98-9.31,7.9-10.88c5.66-1.8,11.21-1.37,16.44,1.52c3.75,2.07,5.74,5.37,5.72,9.66c-0.02,4.31-2.23,7.41-5.88,9.59
			C43.23,626.26,40.63,626.57,38.17,627.33z"/>
		<path class="st13" d="M805.71,200.63c0.45,0.13,0.99,0.37,0.88,0.86c-0.13,0.57-0.75,0.32-1.14,0.25
			c-0.34-0.06-0.65-0.3-0.98-0.45C804.91,201.11,805.47,201.17,805.71,200.63z"/>
		<path class="st0" d="M848.73,212.15c2.36,1.06,4.72,2.14,7.1,3.16c1,0.43,1.81,0.96,2.33,2c3.79,7.68,7.62,15.34,11.43,23.01
			c0.08,0.15,0.04,0.36,0.08,0.71c-14.08,0-28.15,0-42.45,0c0.5-1.24,0.91-2.3,1.36-3.34c3.3-7.69,6.67-15.35,9.9-23.07
			c1.53-3.65,2-2.74-1.71-4.91c-11.93-6.99-23.11-14.99-33-24.68c-19.65-19.25-32.03-42.36-36.91-69.47
			c-2.09-11.63-3.02-23.33-1.53-35.07c4.14-32.79,21.73-54.81,53.18-65.4c12.95-4.36,26.32-5.5,39.92-4.2
			c14.79,1.41,28.67,5.64,41.35,13.43c18.41,11.29,30.3,27.29,34.64,48.62c1.98,9.73,2.06,19.54,0.7,29.32
			c-2.34,16.8-7.09,32.91-14.93,48c-11.72,22.56-28.46,40.3-50.89,52.51c-3.56,1.93-7.23,3.64-11.09,4.84
			C854.87,208.64,852,210.64,848.73,212.15z"/>
		<path class="st0" d="M876.02,212.5c4.08-1.58,8.05-2.53,12.02-3.47c6.75-1.6,13.54-2.87,20.53-2.6c2.04,0.08,4.01,0.43,5.92,1.13
			c2.61,0.96,4.1,2.78,4.22,5.6c0.04,0.95-0.02,1.92-0.09,2.87c-0.22,3-1.98,4.67-4.77,5.41c-2.75,0.72-5.52,0.66-8.31,0.3
			c-8.55-1.12-16.61-3.96-24.59-7.03C879.37,214.1,877.69,213.65,876.02,212.5z"/>
		<path class="st0" d="M817.95,216.49c-0.44,1.09-1.25,1.25-1.91,1.57c-11.02,5.18-22.56,6.89-34.6,5.13
			c-2.01-0.29-3.94-0.91-5.7-1.97c-1.97-1.19-2.21-2.03-1.17-4.03c1.45-2.79,3.75-4.55,6.68-5.62c4.58-1.68,9.32-1.49,14-0.97
			C803.03,211.45,810.5,213.65,817.95,216.49z"/>
		<path class="st14" d="M501.04,452.73c-8.96,0-17.91,0.01-26.87,0c-2.75,0-2.85-0.02-2.77-2.6c0.05-1.88-0.88-4.24,0.5-5.51
			c1.24-1.14,3.51-0.36,5.32-0.36c16.47-0.03,32.93-0.02,49.4-0.02c0.67,0,1.35-0.02,2.02,0c2.18,0.07,2.24,0.08,2.22,2.34
			c-0.02,1.91,0.8,4.27-0.34,5.61c-1.2,1.41-3.63,0.49-5.5,0.51c-7.99,0.07-15.98,0.03-23.98,0.03
			C501.04,452.72,501.04,452.72,501.04,452.73z"/>
		<path class="st0" d="M501.08,467.76c-9.05,0-18.1,0.01-27.15,0c-2.52,0-2.61-0.03-2.53-2.5c0.06-1.79-0.85-4.04,0.46-5.24
			c1.15-1.06,3.32-0.34,5.03-0.34c16.95-0.02,33.89-0.02,50.84-0.01c3.44,0,3.18-0.25,3.12,3.08c-0.03,1.6,0.73,3.59-0.46,4.69
			c-1.05,0.97-2.95,0.31-4.47,0.32C517.64,467.78,509.36,467.76,501.08,467.76z"/>
		<path class="st0" d="M500.91,427.88c9.06,0,18.12-0.01,27.18,0.01c2.34,0,2.4,0.04,2.36,2.38c-0.03,1.81,0.77,4.08-0.34,5.32
			c-1.26,1.41-3.63,0.53-5.51,0.53c-16.48,0.05-32.96,0.03-49.44,0.03c-0.77,0-1.54-0.03-2.31,0c-1.11,0.04-1.57-0.47-1.52-1.56
			c0.11-2.1-0.82-4.7,0.38-6.18c1.17-1.43,3.8-0.49,5.79-0.51C485.3,427.84,493.11,427.88,500.91,427.88z"/>
		<path class="st15" d="M500.6,483.23c-2.89,0-5.78-0.04-8.67,0.02c-1.36,0.02-1.92-0.52-1.87-1.88c0.06-1.54,0.05-3.08,0.01-4.62
			c-0.03-1.25,0.55-1.69,1.75-1.68c5.68,0.03,11.37,0.04,17.05,0c1.38-0.01,1.9,0.53,1.83,1.88c-0.08,1.54-0.06,3.08,0,4.62
			c0.05,1.26-0.49,1.7-1.71,1.68C506.19,483.19,503.39,483.23,500.6,483.23z"/>
		<path class="st12" d="M259.16,401.73c-0.2,1.31,0.33,2.3,1.46,2.86c1.45,0.71,2.77,1.8,4.47,1.87c0.87,0.04,1.39,0.42,1.87,1.1
			c0.32,0.45,0.89,1.09,1.29,1.04c1.84-0.2,2.62,1.36,3.89,2.09c4.71,2.72,8.76,6.39,13.33,9.3c1.28,0.81,2.19,2.17,3.7,2.68
			c1.1,1.08,0.91,2.49,0.91,3.81c0.02,19.94,0.15,39.88-0.03,59.81c-0.18,20.55-18.85,39-39.37,39.02
			c-57.13,0.05-114.27,0.02-171.4,0.01c-1.61,0-3.31,0.3-4.69-0.94c-0.02-0.51-0.18-0.93-0.73-1.08c-2.15-3.77-2.38-7.85-1.9-12.02
			c0.87-7.61,3.93-14.43,7.68-20.99c1.81-3.17,3.88-6.17,6.01-9.26c-0.66-0.82-1.52-0.94-2.3-1.22c-6.53-2.34-12.98-4.87-18.93-8.5
			c-3.55-2.16-6.94-4.5-9.54-7.83c-2.99-3.83-3.36-7.81-1.11-12.1c2.29-4.38,5.78-7.67,9.61-10.62c5.44-4.2,11.48-7.4,17.68-10.31
			c1.04-0.49,2.07-0.99,3.38-1.61c-0.77-1.03-1.44-1.92-2.09-2.82c-2.68-3.72-4.68-7.77-5.36-12.33
			c-1.04-6.89,1.28-12.71,6.06-17.61c6.21-6.36,13.96-9.78,22.54-11.5c2.54-0.51,5.13-0.83,7.72-1.04
			c7.29-0.59,13.35,2.24,18.61,7.02c5.05,4.59,8.14,10.42,10.38,16.77c0.41,1.17,0.53,2.45,1.42,3.61c1.68-1.44,3.31-2.91,5.02-4.28
			c3.98-3.21,8.15-6.14,13.02-7.92c7.54-2.75,13.26-0.82,17.64,5.95c1.91,2.95,2.98,6.24,3.89,9.59c0.32,1.18,0.57,2.38,0.94,3.96
			c1.85-2.21,3.42-4.22,5.13-6.1c10.38-11.38,23.18-17.53,38.69-17.81c10.62-0.19,20.55,2.6,30.16,6.8
			C258.55,401.26,258.84,401.52,259.16,401.73z"/>
		<path class="st0" d="M74.6,524.37c1.06,0.05,2.11,0.13,3.17,0.13c57.03,0.01,114.06-0.11,171.09,0.08
			c16.58,0.05,34.76-11.15,39.47-31.52c0.61-2.63,0.96-5.3,0.96-8.01c-0.01-20.42,0.01-40.83,0.01-61.25c0-0.38-0.07-0.76-0.11-1.15
			c0.49-1.9,0.54-1.98,1.79-1.12c7.63,5.25,14.31,11.41,18.64,19.76c4.86,9.39,4.22,18.53-1.42,27.39c-2.4,3.77-5.49,6.94-8.74,9.97
			c-0.69,0.65-1.59,1.11-2.01,2.14c5.27,4.57,6.98,10.59,6.93,17.33c-0.1,13.38-4.85,25.02-13.36,35.17
			c-9.98,11.91-22.91,18.35-38.18,20.77c-10.67,1.69-20.89-0.08-31.09-2.73c-16.31-4.23-31.68-10.83-46.44-18.88
			c-2.24-1.22-2.22-1.2-4.14,0.43c-7.44,6.34-15.37,11.94-24.44,15.73c-4.01,1.67-8.16,2.91-12.57,2.99
			c-0.29,0.01-0.58,0.03-0.86,0.1c-10.16,2.57-18.52-1.04-25.97-7.63c-2.31-2.05-4.44-4.31-6.15-6.88
			c-0.92-1.38-1.98-1.82-3.59-1.75c-5.38,0.24-10.56-0.69-15.36-3.23c-3.04-1.61-5.56-3.8-7.37-6.75
			C74.65,525.17,74.67,524.75,74.6,524.37z"/>
		<path class="st0" d="M168.61,588.58c-4.51-0.24-8.72-1.32-12.08-4.6c-3.86-3.78-3.81-9.03,0.09-12.75
			c6.03-5.75,17.71-5.83,23.84-0.17c4.18,3.85,4.24,9.26,0.08,13.14C177.2,587.31,173.06,588.34,168.61,588.58z"/>
		<path class="st0" d="M119.83,604.19c-2.23-0.05-4.78-0.47-7.15-1.67c-4.85-2.45-5.91-7.68-2.34-11.81
			c2.72-3.14,6.34-4.34,10.35-4.19c3.13,0.11,6.05,1.1,8.4,3.36c4.7,4.53,3.45,10.85-2.65,13.16
			C124.45,603.79,122.37,604.19,119.83,604.19z"/>
		<path class="st16" d="M76.63,610.46c-2.4,0.01-4.39-0.25-6.29-0.99c-1.14-0.45-1.99-1.2-2.06-2.51c-0.08-1.47,0.81-2.35,2.06-2.8
			c3.94-1.41,7.9-1.37,11.84,0.03c1.15,0.41,2.04,1.2,2.11,2.49c0.07,1.44-0.85,2.28-2.09,2.79
			C80.3,610.24,78.29,610.42,76.63,610.46z"/>
		<path class="st17" d="M35.18,617.63c-0.49-0.04-1.46-0.05-2.4-0.2c-1.18-0.19-1.89-0.96-1.93-2.16c-0.04-1.2,0.62-2.09,1.79-2.26
			c2.47-0.37,4.96-0.47,7.38,0.4c0.85,0.3,1.64,0.7,1.68,1.73c0.04,1.19-0.89,1.55-1.81,1.92
			C38.51,617.61,37.08,617.59,35.18,617.63z"/>
	</g>
</g>
</svg>
