<svg width="1456" height="1560" xmlns="http://www.w3.org/2000/svg" xmlns:xlink="http://www.w3.org/1999/xlink" xml:space="preserve" overflow="hidden"><g transform="translate(-2787 -380)"><rect x="2856.5" y="659.5" width="335" height="38.9998" stroke="#FFFFFF" stroke-width="9.16667" stroke-miterlimit="8" fill="#92D050"/><rect x="3191.5" y="659.5" width="751" height="38.9998" stroke="#FFFFFF" stroke-width="9.16667" stroke-miterlimit="8" fill="#00B0F0"/><rect x="3608.5" y="1184.5" width="334" height="38.9999" stroke="#FFFFFF" stroke-width="9.16667" stroke-miterlimit="8" fill="#92D050"/><rect x="2856.5" y="1184.5" width="752" height="38.9999" stroke="#FFFFFF" stroke-width="9.16667" stroke-miterlimit="8" fill="#00B0F0"/><path d="M3021.21 577.378 3023.6 577.378 3017.76 603.396C3017.17 606.044 3016.87 608.044 3016.87 609.395 3016.87 610.475 3017.05 611.259 3017.4 611.745 3017.75 612.231 3018.3 612.475 3019.06 612.475 3019.87 612.475 3020.73 612.144 3021.65 611.482 3022.57 610.82 3023.87 609.557 3025.54 607.692L3027.85 609.962C3025.21 612.745 3023.06 614.636 3021.41 615.636 3019.76 616.635 3017.91 617.135 3015.86 617.135 3014.1 617.135 3012.7 616.494 3011.64 615.21 3010.59 613.927 3010.06 612.285 3010.06 610.286 3010.06 608.233 3010.44 605.612 3011.2 602.424L3014.24 589.171C3014.86 586.47 3015.17 584.443 3015.17 583.092 3015.17 581.876 3014.88 581.052 3014.3 580.62 3013.72 580.188 3012.58 579.945 3010.87 579.891L3011.32 577.743ZM3020.11 561.856 3027.29 561.856 3025.42 569.718 3018.25 569.718Z" fill-rule="evenodd"/><text fill="#000000" fill-opacity="0" font-family="Arial,Arial_MSFontService,sans-serif" font-size="55.2793" x="3010.06" y="610.225">𝑖</text><path d="M3588.54 577.378 3590.85 577.378 3582.42 617.176C3581.55 621.283 3580.38 624.586 3578.89 627.085 3577.4 629.584 3575.47 631.462 3573.09 632.718 3570.72 633.974 3567.88 634.603 3564.58 634.603 3563.23 634.603 3562.08 634.467 3561.14 634.197L3562.07 630.631C3562.64 630.847 3563.67 630.955 3565.15 630.955 3566.45 630.955 3567.55 630.759 3568.45 630.367 3569.36 629.976 3570.2 629.327 3570.99 628.422 3571.77 627.517 3572.49 626.254 3573.16 624.633 3573.82 623.012 3574.43 620.918 3575 618.351L3581.56 589.171C3582.19 586.416 3582.5 584.389 3582.5 583.092 3582.5 581.876 3582.21 581.052 3581.63 580.62 3581.04 580.188 3579.9 579.945 3578.2 579.891L3578.65 577.743ZM3587.44 561.856 3594.61 561.856 3592.75 569.718 3585.58 569.718Z" fill-rule="evenodd"/><text fill="#000000" fill-opacity="0" font-family="Arial,Arial_MSFontService,sans-serif" font-size="72.7466" x="3561.14" y="625.509">𝑗</text><path d="M3236.94 1098.76 3239.25 1098.76 3230.82 1138.56C3229.96 1142.67 3228.78 1145.97 3227.3 1148.47 3225.81 1150.97 3223.88 1152.84 3221.5 1154.1 3219.12 1155.36 3216.29 1155.99 3212.99 1155.99 3211.64 1155.99 3210.49 1155.85 3209.54 1155.58L3210.48 1152.01C3211.04 1152.23 3212.07 1152.34 3213.56 1152.34 3214.85 1152.34 3215.95 1152.14 3216.86 1151.75 3217.76 1151.36 3218.61 1150.71 3219.39 1149.81 3220.18 1148.9 3220.9 1147.64 3221.56 1146.02 3222.22 1144.39 3222.84 1142.3 3223.4 1139.73L3229.97 1110.55C3230.59 1107.8 3230.9 1105.77 3230.9 1104.48 3230.9 1103.26 3230.61 1102.44 3230.03 1102 3229.45 1101.57 3228.31 1101.33 3226.61 1101.27L3227.05 1099.13ZM3235.85 1083.24 3243.02 1083.24 3241.16 1091.1 3233.98 1091.1Z" fill-rule="evenodd"/><text fill="#000000" fill-opacity="0" font-family="Arial,Arial_MSFontService,sans-serif" font-size="72.7466" x="3209.54" y="1146.89">𝑗</text><path d="M3777.23 1098.76 3779.62 1098.76 3773.78 1124.78C3773.19 1127.43 3772.89 1129.43 3772.89 1130.78 3772.89 1131.86 3773.07 1132.64 3773.42 1133.13 3773.77 1133.61 3774.32 1133.86 3775.08 1133.86 3775.89 1133.86 3776.75 1133.53 3777.67 1132.86 3778.59 1132.2 3779.89 1130.94 3781.56 1129.08L3783.87 1131.34C3781.23 1134.13 3779.08 1136.02 3777.43 1137.02 3775.78 1138.02 3773.93 1138.52 3771.88 1138.52 3770.12 1138.52 3768.72 1137.88 3767.66 1136.59 3766.61 1135.31 3766.08 1133.67 3766.08 1131.67 3766.08 1129.62 3766.46 1126.99 3767.22 1123.81L3770.26 1110.55C3770.88 1107.85 3771.19 1105.83 3771.19 1104.48 3771.19 1103.26 3770.9 1102.44 3770.32 1102 3769.74 1101.57 3768.6 1101.33 3766.89 1101.27L3767.34 1099.13ZM3776.13 1083.24 3783.31 1083.24 3781.44 1091.1 3774.27 1091.1Z" fill-rule="evenodd"/><text fill="#000000" fill-opacity="0" font-family="Arial,Arial_MSFontService,sans-serif" font-size="55.2793" x="3766.08" y="1131.61">𝑖</text><path d="M2861.68 434.123C2864.19 434.123 2866.48 434.271 2868.55 434.569 2870.62 434.866 2872.68 435.379 2874.73 436.109L2872.91 444.619 2869.63 444.619C2869.33 442.215 2868.54 440.391 2867.25 439.148 2865.97 437.905 2863.95 437.284 2861.2 437.284 2859.06 437.284 2857.33 437.831 2856.01 438.925 2854.68 440.019 2854.02 441.458 2854.02 443.241 2854.02 444.214 2854.19 445.072 2854.53 445.815 2854.87 446.558 2855.55 447.375 2856.58 448.267 2857.6 449.158 2859.2 450.253 2861.36 451.549 2863.06 452.576 2864.42 453.515 2865.45 454.366 2866.48 455.217 2867.29 456.062 2867.88 456.899 2868.48 457.737 2868.91 458.622 2869.18 459.554 2869.45 460.486 2869.58 461.614 2869.58 462.938 2869.58 465.342 2868.94 467.402 2867.66 469.118 2866.38 470.834 2864.63 472.11 2862.43 472.948 2860.23 473.785 2857.72 474.204 2854.91 474.204 2852.67 474.204 2850.47 474.035 2848.31 473.698 2846.15 473.36 2843.74 472.786 2841.09 471.975L2843.04 463.14 2846.2 463.14C2846.31 465.734 2847.04 467.693 2848.39 469.017 2849.74 470.341 2851.89 471.003 2854.83 471.003 2857.4 471.003 2859.41 470.428 2860.85 469.28 2862.3 468.132 2863.02 466.504 2863.02 464.397 2863.02 463.181 2862.82 462.134 2862.41 461.256 2862.01 460.378 2861.34 459.533 2860.43 458.723 2859.51 457.912 2858.05 456.899 2856.05 455.683 2853.94 454.413 2852.3 453.265 2851.12 452.238 2849.95 451.212 2849.06 450.097 2848.47 448.895 2847.88 447.693 2847.58 446.308 2847.58 444.741 2847.58 442.606 2848.15 440.735 2849.3 439.128 2850.45 437.52 2852.09 436.284 2854.23 435.42 2856.36 434.555 2858.85 434.123 2861.68 434.123Z" fill-rule="evenodd"/><text fill="#000000" fill-opacity="0" font-family="Arial,Arial_MSFontService,sans-serif" font-size="40.0815" x="2841.09" y="469.194">𝑠</text><path d="M2859.5 523.5 2859.5 1282.01" stroke="#C00000" stroke-width="4.58333" stroke-miterlimit="8" stroke-dasharray="18.3333 13.75" fill="none" fill-rule="evenodd"/><path d="M3137.99 819.997C3134.3 819.997 3130.99 821.483 3128.05 824.455 3125.12 827.427 3122.82 831.41 3121.18 836.405 3119.53 841.401 3118.71 846.387 3118.71 851.364 3118.71 855.088 3119.22 857.872 3120.24 859.716 3121.26 861.56 3122.97 862.482 3125.37 862.482 3127.73 862.482 3130.05 861.462 3132.32 859.421 3134.6 857.38 3136.94 854.47 3139.36 850.693 3141.77 846.915 3143.48 842.555 3144.49 837.614L3144.97 835.304C3145.29 833.836 3145.51 832.565 3145.61 831.491 3145.72 830.417 3145.78 829.253 3145.78 828 3145.78 825.243 3145.19 823.219 3144 821.93 3142.82 820.641 3140.82 819.997 3137.99 819.997ZM3049.1 819.997C3045.48 819.997 3042 821.823 3038.65 825.475 3035.3 829.128 3032.73 834.069 3030.94 840.299 3035.99 840.264 3040.32 839.807 3043.94 838.93 3047.56 838.053 3050.33 836.656 3052.26 834.74 3054.2 832.825 3055.16 830.238 3055.16 826.979 3055.16 824.795 3054.65 823.085 3053.63 821.85 3052.61 820.614 3051.1 819.997 3049.1 819.997ZM2984.88 819.997C2981.23 819.997 2977.95 821.474 2975.05 824.428 2972.15 827.382 2969.87 831.366 2968.2 836.379 2966.54 841.392 2965.71 846.387 2965.71 851.364 2965.71 855.088 2966.22 857.872 2967.24 859.716 2968.26 861.56 2969.97 862.482 2972.37 862.482 2973.48 862.482 2974.6 862.24 2975.75 861.757 2976.9 861.274 2978.09 860.495 2979.32 859.421 2980.56 858.346 2981.77 857.039 2982.97 855.5 2984.17 853.96 2985.27 852.411 2986.28 850.854 2987.28 849.296 2988.21 847.452 2989.07 845.321 2989.93 843.191 2990.66 840.622 2991.27 837.614L2991.76 835.304C2992.29 832.726 2992.56 830.291 2992.56 828 2992.56 825.207 2991.97 823.175 2990.79 821.904 2989.61 820.632 2987.64 819.997 2984.88 819.997ZM3136.91 815.754C3139.24 815.754 3141.42 816.013 3143.44 816.532 3145.46 817.052 3147.55 817.974 3149.7 819.299L3154.64 815.754 3158.08 816.613 3150.18 850.666C3149.39 854.067 3149 856.717 3149 858.615 3149 860.047 3149.23 861.086 3149.7 861.73 3150.16 862.375 3150.9 862.697 3151.9 862.697 3152.97 862.697 3154.12 862.258 3155.34 861.381 3156.55 860.504 3158.27 858.83 3160.49 856.359L3163.55 859.367C3160.33 862.804 3157.58 865.248 3155.31 866.698 3153.04 868.149 3150.57 868.874 3147.92 868.874 3145.7 868.874 3143.93 868.14 3142.61 866.672 3141.28 865.203 3140.62 863.252 3140.62 860.817 3140.62 858.848 3141.03 856.753 3141.86 854.533L3141.16 854.318C3137.72 859.331 3134.46 863.001 3131.38 865.329 3128.3 867.656 3125.04 868.82 3121.61 868.82 3117.67 868.82 3114.61 867.334 3112.45 864.362 3110.28 861.39 3109.2 857.218 3109.2 851.847 3109.2 845.688 3110.41 839.771 3112.82 834.096 3115.24 828.42 3118.56 823.945 3122.79 820.668 3127.01 817.392 3131.72 815.754 3136.91 815.754ZM3051.03 815.754C3055.36 815.754 3058.61 816.631 3060.78 818.385 3062.94 820.14 3064.03 822.879 3064.03 826.603 3064.03 832.69 3061.17 837.256 3055.46 840.299 3049.75 843.343 3041.27 844.865 3030.03 844.865 3029.6 847.013 3029.38 849.341 3029.38 851.847 3029.38 855.607 3030.12 858.337 3031.59 860.038 3033.05 861.739 3035.45 862.59 3038.78 862.59 3042.08 862.59 3045.06 861.873 3047.73 860.441 3050.39 859.009 3053.21 856.807 3056.19 853.835L3059.52 857.326C3056.04 861.157 3052.52 864.04 3048.96 865.973 3045.4 867.907 3041.25 868.874 3036.53 868.874 3031.33 868.874 3027.32 867.289 3024.47 864.12 3021.62 860.951 3020.2 856.538 3020.2 850.881 3020.2 847.049 3020.89 842.94 3022.27 838.554 3023.65 834.167 3025.73 830.229 3028.52 826.737 3031.32 823.246 3034.67 820.543 3038.57 818.627 3042.47 816.711 3046.62 815.754 3051.03 815.754ZM3096.22 791.208 3099.39 791.208 3086.18 850.666C3085.39 854.211 3084.99 856.86 3084.99 858.615 3084.99 860.047 3085.23 861.086 3085.69 861.73 3086.16 862.375 3086.89 862.697 3087.9 862.697 3088.97 862.697 3090.12 862.258 3091.33 861.381 3092.55 860.504 3094.27 858.83 3096.49 856.359L3099.55 859.367C3096.08 863.019 3093.24 865.517 3091.04 866.86 3088.84 868.202 3086.37 868.874 3083.65 868.874 3081.32 868.874 3079.46 868.023 3078.07 866.322 3076.67 864.622 3075.97 862.446 3075.97 859.797 3075.97 857.397 3076.47 853.924 3077.48 849.377L3087.09 806.354C3087.52 804.456 3087.82 802.944 3088 801.816 3088.18 800.688 3088.27 799.64 3088.27 798.674 3088.27 797.599 3088.07 796.785 3087.68 796.23 3087.29 795.675 3086.72 795.272 3085.99 795.021 3085.25 794.771 3083.94 794.591 3082.04 794.484L3082.69 791.691ZM3007.39 791.208 3010.55 791.208 2997.18 850.666C2996.39 854.175 2996 856.825 2996 858.615 2996 860.047 2996.23 861.086 2996.7 861.73 2997.16 862.375 2997.9 862.697 2998.9 862.697 2999.97 862.697 3001.12 862.258 3002.34 861.381 3003.55 860.504 3005.27 858.83 3007.49 856.359L3010.55 859.367C3007.26 862.84 3004.49 865.293 3002.23 866.725 2999.97 868.158 2997.54 868.874 2994.92 868.874 2992.7 868.874 2990.93 868.14 2989.61 866.672 2988.28 865.203 2987.62 863.252 2987.62 860.817 2987.62 858.848 2988.03 856.753 2988.86 854.533L2988.16 854.318C2984.72 859.331 2981.46 863.001 2978.38 865.329 2975.3 867.656 2972.04 868.82 2968.61 868.82 2964.67 868.82 2961.61 867.334 2959.45 864.362 2957.28 861.39 2956.2 857.218 2956.2 851.847 2956.2 845.688 2957.41 839.771 2959.82 834.096 2962.24 828.42 2965.56 823.945 2969.79 820.668 2974.01 817.392 2978.72 815.754 2983.91 815.754 2986.1 815.754 2988.11 815.977 2989.96 816.425 2991.8 816.873 2993.69 817.651 2995.62 818.761L2998.42 806.354C2998.7 805.173 2998.95 803.866 2999.17 802.433 2999.38 801.001 2999.49 799.748 2999.49 798.674 2999.49 797.599 2999.29 796.785 2998.9 796.23 2998.51 795.675 2997.94 795.272 2997.21 795.021 2996.47 794.771 2995.16 794.591 2993.26 794.484L2993.9 791.691Z" fill-rule="evenodd"/><text fill="#000000" fill-opacity="0" font-family="Arial,Arial_MSFontService,sans-serif" font-size="77.666" x="2956.2" y="859.165">𝑑𝑒𝑙𝑎</text><path d="M3185.24 815.807C3186.7 815.807 3187.96 816.004 3189 816.398 3189.71 816.685 3190.43 817.159 3191.14 817.821 3191.86 818.484 3192.5 819.406 3193.05 820.588 3193.61 821.769 3194.09 823.094 3194.5 824.562 3194.91 826.03 3195.37 828.143 3195.87 830.9 3196.73 835.519 3197.56 840.38 3198.37 845.483 3199.17 850.585 3199.86 855.321 3200.44 859.689 3203.91 854.676 3206.85 849.771 3209.27 844.972 3211.69 840.174 3213.43 836.003 3214.48 832.458 3215.54 828.913 3216.07 826.03 3216.07 823.81 3216.07 822.127 3215.71 820.981 3214.99 820.373 3214.28 819.764 3213.06 819.406 3211.34 819.299L3211.88 816.667 3226 816.667 3227.45 819.352C3224.73 826.8 3221.04 834.767 3216.39 843.254 3211.81 851.561 3206.56 859.832 3200.65 868.068 3194.99 875.91 3190.28 881.585 3186.53 885.094 3183.91 887.494 3181.39 889.212 3178.95 890.251 3177.02 891.038 3174.96 891.432 3172.78 891.432 3172.02 891.432 3171.15 891.37 3170.17 891.244 3169.19 891.119 3168.42 890.949 3167.89 890.734L3170.2 880.314 3174.44 880.314C3174.44 882.606 3175.23 883.752 3176.8 883.752 3178.88 883.752 3181.3 882.454 3184.05 879.858 3186.81 877.262 3190.05 873.35 3193.78 868.122 3192.74 861.855 3191.32 854.3 3189.53 845.456 3187.64 836.003 3186.38 830.148 3185.77 827.892 3185.02 825.171 3184.23 823.434 3183.41 822.682 3182.91 822.217 3182.28 821.984 3181.53 821.984 3180.38 821.984 3179.31 822.45 3178.31 823.381 3177.3 824.312 3176.07 825.923 3174.6 828.215L3171.11 825.905C3173.58 822.217 3175.89 819.612 3178.04 818.09 3180.19 816.568 3182.59 815.807 3185.24 815.807Z" fill-rule="evenodd"/><text fill="#000000" fill-opacity="0" font-family="Arial,Arial_MSFontService,sans-serif" font-size="75.625" x="3167.89" y="881.979">𝑦</text><path d="M3249.31 840.16 3251.7 840.16C3251.64 841.593 3251.61 842.875 3251.58 844.008 3251.55 845.141 3251.53 846.241 3251.52 847.309 3251.51 848.376 3251.5 849.431 3251.5 850.473L3251.5 880.16C3251.5 880.968 3251.53 881.664 3251.58 882.25 3251.63 882.836 3251.72 883.331 3251.83 883.734 3251.95 884.138 3252.11 884.483 3252.3 884.77 3252.5 885.056 3252.73 885.303 3252.99 885.512 3253.3 885.824 3253.72 886.065 3254.24 886.234 3254.76 886.404 3255.42 886.547 3256.23 886.664 3257.04 886.781 3258.01 886.872 3259.14 886.938 3260.27 887.003 3261.63 887.048 3263.22 887.074L3263.22 890.473 3232.24 890.473 3232.24 887.074C3233.78 887.022 3235.08 886.964 3236.15 886.898 3237.22 886.833 3238.13 886.742 3238.88 886.625 3239.64 886.508 3240.24 886.378 3240.7 886.234 3241.16 886.091 3241.55 885.915 3241.89 885.707 3242.26 885.473 3242.57 885.219 3242.83 884.945 3243.09 884.672 3243.3 884.327 3243.45 883.91 3243.61 883.494 3243.73 882.986 3243.83 882.387 3243.92 881.788 3243.96 881.046 3243.96 880.16L3243.96 852.152C3243.96 851.137 3243.77 850.421 3243.38 850.004 3242.99 849.587 3242.43 849.379 3241.7 849.379 3240.89 849.379 3239.69 849.796 3238.1 850.629 3236.51 851.462 3234.46 852.699 3231.93 854.34 3231.59 853.741 3231.28 853.142 3230.99 852.543 3230.71 851.944 3230.41 851.332 3230.1 850.707 3233.32 848.936 3236.52 847.172 3239.69 845.414 3242.85 843.656 3246.06 841.905 3249.31 840.16Z" fill-rule="evenodd"/><text fill="#000000" fill-opacity="0" font-family="Arial,Arial_MSFontService,sans-serif" font-size="50.3125" x="3230.1" y="884.184">1</text><path d="M3312.46 844.167 3378.64 844.167 3378.64 851.31 3312.46 851.31ZM3312.46 821.877 3378.64 821.877 3378.64 829.02 3312.46 829.02Z" fill-rule="evenodd"/><text fill="#000000" fill-opacity="0" font-family="Arial,Arial_MSFontService,sans-serif" font-size="29.4336" x="3312.46" y="847.631">=</text><path d="M3446.91 815.807C3450.24 815.807 3453.27 816.004 3456.01 816.398 3458.75 816.792 3461.48 817.472 3464.2 818.439L3461.78 829.718 3457.43 829.718C3457.04 826.532 3455.99 824.115 3454.29 822.467 3452.59 820.82 3449.91 819.997 3446.26 819.997 3443.43 819.997 3441.14 820.722 3439.39 822.172 3437.63 823.622 3436.76 825.529 3436.76 827.892 3436.76 829.181 3436.98 830.318 3437.43 831.303 3437.87 832.288 3438.78 833.371 3440.14 834.552 3441.5 835.734 3443.61 837.184 3446.48 838.903 3448.73 840.264 3450.54 841.508 3451.9 842.636 3453.26 843.764 3454.34 844.883 3455.12 845.993 3455.91 847.103 3456.49 848.276 3456.84 849.511 3457.2 850.746 3457.38 852.241 3457.38 853.996 3457.38 857.183 3456.53 859.913 3454.83 862.187 3453.13 864.46 3450.82 866.152 3447.9 867.262 3444.98 868.372 3441.66 868.927 3437.94 868.927 3434.97 868.927 3432.05 868.704 3429.18 868.256 3426.32 867.808 3423.13 867.048 3419.62 865.973L3422.2 854.264 3426.39 854.264C3426.53 857.702 3427.5 860.298 3429.29 862.052 3431.08 863.807 3433.93 864.684 3437.83 864.684 3441.23 864.684 3443.89 863.923 3445.81 862.402 3447.72 860.88 3448.68 858.722 3448.68 855.929 3448.68 854.318 3448.41 852.931 3447.87 851.767 3447.34 850.603 3446.46 849.484 3445.24 848.41 3444.02 847.336 3442.09 845.993 3439.44 844.382 3436.65 842.699 3434.47 841.177 3432.92 839.816 3431.36 838.455 3430.19 836.978 3429.4 835.385 3428.61 833.792 3428.22 831.956 3428.22 829.88 3428.22 827.051 3428.98 824.571 3430.5 822.441 3432.02 820.31 3434.2 818.672 3437.02 817.526 3439.85 816.38 3443.15 815.807 3446.91 815.807Z" fill="#00B0F0" fill-rule="evenodd"/><text fill="#000000" fill-opacity="0" font-family="Arial,Arial_MSFontService,sans-serif" font-size="53.1201" x="3419.62" y="862.287">𝑠</text><path d="M3531.9 802.057 3539.53 802.057 3539.53 832.995 3568.8 832.995 3568.8 840.138 3539.53 840.138 3539.53 871.076 3531.9 871.076 3531.9 840.138 3502.63 840.138 3502.63 832.995 3531.9 832.995Z" fill="#00B0F0" fill-rule="evenodd"/><text fill="#000000" fill-opacity="0" font-family="Arial,Arial_MSFontService,sans-serif" font-size="69.0186" x="3502.63" y="862.449">+</text><path d="M3622 803.4 3629.42 803.4 3626.46 816.667 3642.79 816.667 3641.61 822.091 3625.28 822.091 3620.5 842.931C3619.57 846.978 3618.98 849.887 3618.73 851.659 3618.48 853.432 3618.35 854.855 3618.35 855.929 3618.35 860.37 3620.2 862.59 3623.88 862.59 3625.46 862.59 3627.13 861.99 3628.91 860.79 3630.68 859.591 3632.78 857.541 3635.22 854.64L3638.33 857.863C3635.22 861.623 3632.22 864.398 3629.34 866.188 3626.45 867.979 3623.44 868.874 3620.29 868.874 3612.8 868.874 3609.06 865.096 3609.06 857.541 3609.06 855.142 3609.36 852.617 3609.97 849.967L3616.31 822.091 3607.29 822.091 3608.09 818.385C3610.21 818.35 3611.81 818.188 3612.9 817.902 3613.99 817.616 3614.91 817.222 3615.64 816.72 3616.37 816.219 3617.04 815.503 3617.65 814.572 3618.26 813.641 3618.85 812.45 3619.43 811 3620 809.55 3620.86 807.017 3622 803.4Z" fill="#00B0F0" fill-rule="evenodd"/><text fill="#000000" fill-opacity="0" font-family="Arial,Arial_MSFontService,sans-serif" font-size="65.4736" x="3607.29" y="860.69">𝑡</text><path d="M3661.69 850.981 3663.6 850.981 3657.82 876.996C3657.46 878.533 3657.2 879.757 3657.06 880.668 3656.92 881.579 3656.85 882.4 3656.85 883.129 3656.85 884.119 3657.05 884.835 3657.45 885.277 3657.86 885.72 3658.46 885.941 3659.27 885.941 3659.74 885.941 3660.21 885.85 3660.67 885.668 3661.14 885.486 3661.64 885.199 3662.18 884.809 3662.71 884.418 3663.3 883.917 3663.94 883.305 3664.57 882.693 3665.28 881.957 3666.07 881.098L3668.72 883.676C3667.37 885.056 3666.14 886.221 3665.03 887.172 3663.92 888.122 3662.88 888.897 3661.89 889.496 3660.9 890.095 3659.93 890.525 3658.98 890.785 3658.03 891.046 3657.02 891.176 3655.95 891.176 3654.96 891.176 3654.07 890.994 3653.27 890.629 3652.48 890.264 3651.79 889.763 3651.22 889.125 3650.65 888.487 3650.21 887.725 3649.89 886.84 3649.58 885.954 3649.42 884.978 3649.42 883.91 3649.42 883.051 3649.53 881.983 3649.74 880.707 3649.95 879.431 3650.21 878.044 3650.54 876.547 3650.86 875.05 3651.22 873.481 3651.61 871.84 3652 870.199 3652.39 868.572 3652.76 866.957 3653.14 865.343 3653.48 863.786 3653.78 862.289 3654.08 860.792 3654.29 859.431 3654.42 858.207 3654.48 857.999 3654.5 857.797 3654.5 857.602 3654.5 857.406 3654.5 857.231 3654.5 857.074 3654.45 856.059 3654.09 855.316 3653.43 854.848 3652.76 854.379 3651.59 854.119 3649.89 854.066L3650.36 851.41ZM3659.42 835.238 3667.24 835.238 3665.32 843.637 3657.59 843.637Z" fill="#00B0F0" fill-rule="evenodd"/><text fill="#000000" fill-opacity="0" font-family="Arial,Arial_MSFontService,sans-serif" font-size="55.9375" x="3649.42" y="884.184">𝑖</text><path d="M3740.05 802.057 3747.68 802.057 3747.68 832.995 3776.95 832.995 3776.95 840.138 3747.68 840.138 3747.68 871.076 3740.05 871.076 3740.05 840.138 3710.78 840.138 3710.78 832.995 3740.05 832.995Z" fill="#00B0F0" fill-rule="evenodd"/><text fill="#000000" fill-opacity="0" font-family="Arial,Arial_MSFontService,sans-serif" font-size="69.0186" x="3710.78" y="862.449">+</text><path d="M3830.16 803.4 3837.57 803.4 3834.61 816.667 3850.94 816.667 3849.76 822.091 3833.43 822.091 3828.65 842.931C3827.72 846.978 3827.13 849.887 3826.88 851.659 3826.63 853.432 3826.5 854.855 3826.5 855.929 3826.5 860.37 3828.35 862.59 3832.04 862.59 3833.61 862.59 3835.29 861.99 3837.06 860.79 3838.83 859.591 3840.93 857.541 3843.37 854.64L3846.48 857.863C3843.37 861.623 3840.37 864.398 3837.49 866.188 3834.6 867.979 3831.59 868.874 3828.44 868.874 3820.95 868.874 3817.21 865.096 3817.21 857.541 3817.21 855.142 3817.52 852.617 3818.12 849.967L3824.46 822.091 3815.44 822.091 3816.24 818.385C3818.36 818.35 3819.96 818.188 3821.05 817.902 3822.14 817.616 3823.06 817.222 3823.79 816.72 3824.53 816.219 3825.2 815.503 3825.81 814.572 3826.41 813.641 3827 812.45 3827.58 811 3828.15 809.55 3829.01 807.017 3830.16 803.4Z" fill="#00B0F0" fill-rule="evenodd"/><text fill="#000000" fill-opacity="0" font-family="Arial,Arial_MSFontService,sans-serif" font-size="65.4736" x="3815.44" y="860.69">𝑡</text><path d="M3869.63 850.981 3872.32 850.981 3864.2 889.262C3863.55 892.231 3862.71 894.776 3861.68 896.898 3860.65 899.021 3859.39 900.759 3857.91 902.113 3856.42 903.468 3854.69 904.464 3852.71 905.102 3850.73 905.74 3848.47 906.059 3845.92 906.059 3845.24 906.059 3844.59 906.026 3843.96 905.961 3843.34 905.896 3842.78 905.798 3842.28 905.668L3843.26 901.566C3843.57 901.697 3843.99 901.781 3844.51 901.82 3845.03 901.859 3845.63 901.879 3846.31 901.879 3847.58 901.879 3848.72 901.71 3849.73 901.371 3850.73 901.033 3851.63 900.421 3852.42 899.535 3853.21 898.65 3853.93 897.432 3854.57 895.883 3855.21 894.333 3855.8 892.348 3856.35 889.926 3857.26 885.707 3858.13 881.749 3858.96 878.051 3859.8 874.353 3860.48 871.254 3861.01 868.754 3861.55 866.254 3861.97 864.262 3862.28 862.777 3862.6 861.293 3862.82 860.147 3862.97 859.34 3863.11 858.533 3863.2 857.96 3863.22 857.621 3863.25 857.283 3863.26 857.009 3863.26 856.801 3863.26 855.889 3862.92 855.219 3862.23 854.789 3861.53 854.359 3860.32 854.119 3858.57 854.066L3859.16 851.41ZM3868.18 835.238 3876.03 835.238 3874.12 843.637 3866.27 843.637Z" fill="#00B0F0" fill-rule="evenodd"/><text fill="#000000" fill-opacity="0" font-family="Arial,Arial_MSFontService,sans-serif" font-size="70.8203" x="3842.28" y="897.206">𝑗</text><path d="M3918.89 832.995 3985.06 832.995 3985.06 840.138 3918.89 840.138Z" fill="#00B0F0" fill-rule="evenodd"/><text fill="#000000" fill-opacity="0" font-family="Arial,Arial_MSFontService,sans-serif" font-size="7.14355" x="3918.89" y="839.245">−</text><path d="M4051.58 819.997C4047.93 819.997 4044.65 821.474 4041.75 824.428 4038.85 827.382 4036.57 831.366 4034.91 836.379 4033.24 841.392 4032.41 846.387 4032.41 851.364 4032.41 855.088 4032.92 857.872 4033.94 859.716 4034.96 861.56 4036.67 862.482 4039.07 862.482 4040.18 862.482 4041.31 862.24 4042.45 861.757 4043.6 861.274 4044.79 860.495 4046.02 859.421 4047.26 858.346 4048.48 857.039 4049.68 855.5 4050.88 853.96 4051.98 852.411 4052.98 850.854 4053.98 849.296 4054.91 847.452 4055.77 845.321 4056.63 843.191 4057.37 840.622 4057.97 837.614L4058.46 835.304C4058.99 832.726 4059.26 830.291 4059.26 828 4059.26 825.207 4058.67 823.175 4057.49 821.904 4056.31 820.632 4054.34 819.997 4051.58 819.997ZM4074.09 791.208 4077.26 791.208 4063.88 850.666C4063.09 854.175 4062.7 856.825 4062.7 858.615 4062.7 860.047 4062.93 861.086 4063.4 861.73 4063.86 862.375 4064.6 862.697 4065.6 862.697 4066.68 862.697 4067.82 862.258 4069.04 861.381 4070.26 860.504 4071.97 858.83 4074.19 856.359L4077.26 859.367C4073.96 862.84 4071.19 865.293 4068.93 866.725 4066.68 868.158 4064.24 868.874 4061.63 868.874 4059.41 868.874 4057.63 868.14 4056.31 866.672 4054.98 865.203 4054.32 863.252 4054.32 860.817 4054.32 858.848 4054.73 856.753 4055.56 854.533L4054.86 854.318C4051.42 859.331 4048.16 863.001 4045.08 865.329 4042 867.656 4038.75 868.82 4035.31 868.82 4031.37 868.82 4028.32 867.334 4026.15 864.362 4023.98 861.39 4022.9 857.218 4022.9 851.847 4022.9 845.688 4024.11 839.771 4026.53 834.096 4028.94 828.42 4032.26 823.945 4036.49 820.668 4040.72 817.392 4045.42 815.754 4050.62 815.754 4052.8 815.754 4054.81 815.977 4056.66 816.425 4058.5 816.873 4060.39 817.651 4062.32 818.761L4065.12 806.354C4065.4 805.173 4065.65 803.866 4065.87 802.433 4066.08 801.001 4066.19 799.748 4066.19 798.674 4066.19 797.599 4065.99 796.785 4065.6 796.23 4065.21 795.675 4064.64 795.272 4063.91 795.021 4063.18 794.771 4061.86 794.591 4059.96 794.484L4060.61 791.691Z" fill="#00B0F0" fill-rule="evenodd"/><text fill="#000000" fill-opacity="0" font-family="Arial,Arial_MSFontService,sans-serif" font-size="77.666" x="4022.9" y="859.165">𝑑</text><path d="M4099.39 850.981 4102.08 850.981 4093.96 889.262C4093.31 892.231 4092.47 894.776 4091.44 896.898 4090.41 899.021 4089.16 900.759 4087.67 902.113 4086.19 903.468 4084.46 904.464 4082.48 905.102 4080.5 905.74 4078.23 906.059 4075.68 906.059 4075 906.059 4074.35 906.026 4073.73 905.961 4073.1 905.896 4072.54 905.798 4072.05 905.668L4073.02 901.566C4073.34 901.697 4073.75 901.781 4074.27 901.82 4074.79 901.859 4075.39 901.879 4076.07 901.879 4077.35 901.879 4078.48 901.71 4079.49 901.371 4080.49 901.033 4081.39 900.421 4082.18 899.535 4082.98 898.65 4083.69 897.432 4084.33 895.883 4084.97 894.333 4085.56 892.348 4086.11 889.926 4087.02 885.707 4087.89 881.749 4088.73 878.051 4089.56 874.353 4090.24 871.254 4090.78 868.754 4091.31 866.254 4091.73 864.262 4092.05 862.777 4092.36 861.293 4092.59 860.147 4092.73 859.34 4092.87 858.533 4092.96 857.96 4092.98 857.621 4093.01 857.283 4093.02 857.009 4093.02 856.801 4093.02 855.889 4092.68 855.219 4091.99 854.789 4091.3 854.359 4090.08 854.119 4088.34 854.066L4088.92 851.41ZM4097.94 835.238 4105.8 835.238 4103.88 843.637 4096.03 843.637Z" fill="#00B0F0" fill-rule="evenodd"/><text fill="#000000" fill-opacity="0" font-family="Arial,Arial_MSFontService,sans-serif" font-size="70.8203" x="4072.05" y="897.206">𝑗</text><path d="M3136.56 1342.94C3132.87 1342.94 3129.56 1344.43 3126.63 1347.4 3123.69 1350.37 3121.4 1354.36 3119.75 1359.35 3118.1 1364.35 3117.28 1369.33 3117.28 1374.31 3117.28 1378.03 3117.79 1380.82 3118.81 1382.66 3119.83 1384.51 3121.54 1385.43 3123.94 1385.43 3126.3 1385.43 3128.62 1384.41 3130.9 1382.37 3133.17 1380.32 3135.51 1377.42 3137.93 1373.64 3140.35 1369.86 3142.06 1365.5 3143.06 1360.56L3143.54 1358.25C3143.87 1356.78 3144.08 1355.51 3144.19 1354.44 3144.3 1353.36 3144.35 1352.2 3144.35 1350.94 3144.35 1348.19 3143.76 1346.16 3142.58 1344.88 3141.4 1343.59 3139.39 1342.94 3136.56 1342.94ZM3047.67 1342.94C3044.05 1342.94 3040.57 1344.77 3037.22 1348.42 3033.87 1352.07 3031.31 1357.01 3029.51 1363.24 3034.56 1363.21 3038.9 1362.75 3042.51 1361.87 3046.13 1361 3048.9 1359.6 3050.84 1357.69 3052.77 1355.77 3053.74 1353.18 3053.74 1349.92 3053.74 1347.74 3053.23 1346.03 3052.21 1344.79 3051.19 1343.56 3049.67 1342.94 3047.67 1342.94ZM2983.45 1342.94C2979.8 1342.94 2976.53 1344.42 2973.63 1347.37 2970.72 1350.33 2968.44 1354.31 2966.78 1359.32 2965.11 1364.34 2964.28 1369.33 2964.28 1374.31 2964.28 1378.03 2964.79 1380.82 2965.81 1382.66 2966.83 1384.51 2968.54 1385.43 2970.94 1385.43 2972.05 1385.43 2973.18 1385.19 2974.32 1384.7 2975.47 1384.22 2976.66 1383.44 2977.9 1382.37 2979.13 1381.29 2980.35 1379.98 2981.55 1378.44 2982.75 1376.91 2983.85 1375.36 2984.85 1373.8 2985.85 1372.24 2986.78 1370.4 2987.64 1368.27 2988.5 1366.14 2989.24 1363.57 2989.85 1360.56L2990.33 1358.25C2990.87 1355.67 2991.14 1353.24 2991.14 1350.94 2991.14 1348.15 2990.54 1346.12 2989.36 1344.85 2988.18 1343.58 2986.21 1342.94 2983.45 1342.94ZM3135.49 1338.7C3137.81 1338.7 3139.99 1338.96 3142.01 1339.48 3144.04 1340 3146.12 1340.92 3148.27 1342.24L3153.21 1338.7 3156.65 1339.56 3148.75 1373.61C3147.97 1377.01 3147.57 1379.66 3147.57 1381.56 3147.57 1382.99 3147.81 1384.03 3148.27 1384.68 3148.74 1385.32 3149.47 1385.64 3150.47 1385.64 3151.55 1385.64 3152.69 1385.2 3153.91 1384.33 3155.13 1383.45 3156.85 1381.77 3159.07 1379.3L3162.13 1382.31C3158.91 1385.75 3156.16 1388.19 3153.88 1389.64 3151.61 1391.09 3149.15 1391.82 3146.5 1391.82 3144.28 1391.82 3142.51 1391.08 3141.18 1389.62 3139.86 1388.15 3139.19 1386.2 3139.19 1383.76 3139.19 1381.79 3139.61 1379.7 3140.43 1377.48L3139.73 1377.26C3136.29 1382.28 3133.03 1385.95 3129.96 1388.27 3126.88 1390.6 3123.62 1391.77 3120.18 1391.77 3116.24 1391.77 3113.19 1390.28 3111.02 1387.31 3108.86 1384.33 3107.77 1380.16 3107.77 1374.79 3107.77 1368.63 3108.98 1362.72 3111.4 1357.04 3113.82 1351.37 3117.14 1346.89 3121.36 1343.61 3125.59 1340.34 3130.3 1338.7 3135.49 1338.7ZM3049.6 1338.7C3053.94 1338.7 3057.19 1339.58 3059.35 1341.33 3061.52 1343.08 3062.6 1345.82 3062.6 1349.55 3062.6 1355.64 3059.75 1360.2 3054.03 1363.24 3048.32 1366.29 3039.85 1367.81 3028.6 1367.81 3028.17 1369.96 3027.96 1372.29 3027.96 1374.79 3027.96 1378.55 3028.69 1381.28 3030.16 1382.98 3031.63 1384.68 3034.03 1385.53 3037.36 1385.53 3040.65 1385.53 3043.63 1384.82 3046.3 1383.39 3048.97 1381.95 3051.79 1379.75 3054.76 1376.78L3058.09 1380.27C3054.62 1384.1 3051.1 1386.98 3047.53 1388.92 3043.97 1390.85 3039.83 1391.82 3035.1 1391.82 3029.91 1391.82 3025.89 1390.23 3023.04 1387.07 3020.2 1383.9 3018.77 1379.48 3018.77 1373.83 3018.77 1369.99 3019.46 1365.89 3020.84 1361.5 3022.22 1357.11 3024.3 1353.17 3027.1 1349.68 3029.89 1346.19 3033.24 1343.49 3037.14 1341.57 3041.04 1339.66 3045.2 1338.7 3049.6 1338.7ZM3094.79 1314.15 3097.96 1314.15 3084.75 1373.61C3083.96 1377.16 3083.57 1379.81 3083.57 1381.56 3083.57 1382.99 3083.8 1384.03 3084.27 1384.68 3084.73 1385.32 3085.47 1385.64 3086.47 1385.64 3087.54 1385.64 3088.69 1385.2 3089.91 1384.33 3091.12 1383.45 3092.84 1381.77 3095.06 1379.3L3098.12 1382.31C3094.65 1385.96 3091.81 1388.46 3089.61 1389.8 3087.41 1391.15 3084.95 1391.82 3082.23 1391.82 3079.9 1391.82 3078.04 1390.97 3076.64 1389.27 3075.24 1387.57 3074.55 1385.39 3074.55 1382.74 3074.55 1380.34 3075.05 1376.87 3076.05 1372.32L3085.66 1329.3C3086.09 1327.4 3086.4 1325.89 3086.58 1324.76 3086.76 1323.63 3086.84 1322.59 3086.84 1321.62 3086.84 1320.54 3086.65 1319.73 3086.25 1319.17 3085.86 1318.62 3085.3 1318.22 3084.56 1317.97 3083.83 1317.72 3082.51 1317.54 3080.61 1317.43L3081.26 1314.64ZM3005.96 1314.15 3009.13 1314.15 2995.75 1373.61C2994.97 1377.12 2994.57 1379.77 2994.57 1381.56 2994.57 1382.99 2994.81 1384.03 2995.27 1384.68 2995.74 1385.32 2996.47 1385.64 2997.47 1385.64 2998.55 1385.64 2999.69 1385.2 3000.91 1384.33 3002.13 1383.45 3003.85 1381.77 3006.07 1379.3L3009.13 1382.31C3005.83 1385.79 3003.06 1388.24 3000.8 1389.67 2998.55 1391.1 2996.11 1391.82 2993.5 1391.82 2991.28 1391.82 2989.51 1391.08 2988.18 1389.62 2986.86 1388.15 2986.19 1386.2 2986.19 1383.76 2986.19 1381.79 2986.61 1379.7 2987.43 1377.48L2986.73 1377.26C2983.29 1382.28 2980.03 1385.95 2976.96 1388.27 2973.88 1390.6 2970.62 1391.77 2967.18 1391.77 2963.24 1391.77 2960.19 1390.28 2958.02 1387.31 2955.86 1384.33 2954.77 1380.16 2954.77 1374.79 2954.77 1368.63 2955.98 1362.72 2958.4 1357.04 2960.82 1351.37 2964.14 1346.89 2968.36 1343.61 2972.59 1340.34 2977.3 1338.7 2982.49 1338.7 2984.67 1338.7 2986.69 1338.92 2988.53 1339.37 2990.37 1339.82 2992.26 1340.6 2994.2 1341.71L2996.99 1329.3C2997.28 1328.12 2997.53 1326.81 2997.74 1325.38 2997.96 1323.95 2998.06 1322.69 2998.06 1321.62 2998.06 1320.54 2997.87 1319.73 2997.47 1319.17 2997.08 1318.62 2996.52 1318.22 2995.78 1317.97 2995.05 1317.72 2993.73 1317.54 2991.83 1317.43L2992.48 1314.64Z" fill-rule="evenodd"/><text fill="#000000" fill-opacity="0" font-family="Arial,Arial_MSFontService,sans-serif" font-size="77.666" x="2954.77" y="1382.11">𝑑𝑒𝑙𝑎</text><path d="M3183.81 1338.75C3185.28 1338.75 3186.53 1338.95 3187.57 1339.34 3188.29 1339.63 3189 1340.1 3189.72 1340.77 3190.43 1341.43 3191.07 1342.35 3191.62 1343.53 3192.18 1344.71 3192.66 1346.04 3193.07 1347.51 3193.49 1348.98 3193.94 1351.09 3194.44 1353.85 3195.3 1358.46 3196.14 1363.33 3196.94 1368.43 3197.75 1373.53 3198.44 1378.27 3199.01 1382.63 3202.48 1377.62 3205.43 1372.72 3207.85 1367.92 3210.26 1363.12 3212 1358.95 3213.06 1355.4 3214.11 1351.86 3214.64 1348.98 3214.64 1346.76 3214.64 1345.07 3214.28 1343.93 3213.57 1343.32 3212.85 1342.71 3211.63 1342.35 3209.91 1342.24L3210.45 1339.61 3224.58 1339.61 3226.03 1342.3C3223.31 1349.75 3219.62 1357.71 3214.96 1366.2 3210.38 1374.51 3205.13 1382.78 3199.22 1391.01 3193.57 1398.85 3188.86 1404.53 3185.1 1408.04 3182.48 1410.44 3179.96 1412.16 3177.53 1413.2 3175.59 1413.98 3173.53 1414.38 3171.35 1414.38 3170.6 1414.38 3169.73 1414.31 3168.74 1414.19 3167.76 1414.06 3167 1413.89 3166.46 1413.68L3168.77 1403.26 3173.01 1403.26C3173.01 1405.55 3173.8 1406.7 3175.38 1406.7 3177.45 1406.7 3179.87 1405.4 3182.63 1402.8 3185.39 1400.21 3188.63 1396.29 3192.35 1391.07 3191.31 1384.8 3189.9 1377.25 3188.11 1368.4 3186.21 1358.95 3184.96 1353.09 3184.35 1350.84 3183.59 1348.12 3182.81 1346.38 3181.98 1345.63 3181.48 1345.16 3180.86 1344.93 3180.1 1344.93 3178.96 1344.93 3177.88 1345.39 3176.88 1346.33 3175.88 1347.26 3174.64 1348.87 3173.18 1351.16L3169.68 1348.85C3172.15 1345.16 3174.46 1342.56 3176.61 1341.04 3178.76 1339.51 3181.16 1338.75 3183.81 1338.75Z" fill-rule="evenodd"/><text fill="#000000" fill-opacity="0" font-family="Arial,Arial_MSFontService,sans-serif" font-size="75.625" x="3166.46" y="1404.92">𝑦</text><path d="M3247.38 1362.83C3250.09 1362.83 3252.4 1363.14 3254.32 1363.75 3256.23 1364.36 3257.79 1365.19 3258.99 1366.23 3260.18 1367.27 3261.05 1368.52 3261.58 1369.98 3262.12 1371.44 3262.38 1373.01 3262.38 1374.71 3262.38 1375.72 3262.31 1376.67 3262.17 1377.54 3262.03 1378.41 3261.78 1379.27 3261.43 1380.12 3261.08 1380.96 3260.61 1381.82 3260.04 1382.68 3259.47 1383.53 3258.75 1384.45 3257.89 1385.41 3257.24 1386.24 3256.4 1387.21 3255.35 1388.3 3254.31 1389.39 3253.17 1390.57 3251.94 1391.82 3250.7 1393.07 3249.4 1394.37 3248.05 1395.72 3246.69 1397.08 3245.38 1398.42 3244.1 1399.75 3242.83 1401.07 3241.66 1402.36 3240.59 1403.61 3239.52 1404.86 3238.65 1406.01 3237.97 1407.05L3252.42 1407.05C3253.65 1407.05 3254.62 1407 3255.35 1406.91 3256.08 1406.82 3256.69 1406.62 3257.17 1406.31 3257.65 1406 3258.06 1405.52 3258.4 1404.88 3258.74 1404.24 3259.13 1403.37 3259.57 1402.25L3263.2 1402.25C3263.07 1404.09 3262.95 1405.96 3262.83 1407.83 3262.72 1409.71 3262.59 1411.57 3262.46 1413.42L3229.38 1413.42 3229.38 1411.39C3230 1409.98 3230.73 1408.59 3231.56 1407.23 3232.4 1405.86 3233.33 1404.47 3234.38 1403.07 3235.42 1401.66 3236.6 1400.21 3237.93 1398.71 3239.26 1397.21 3240.73 1395.66 3242.35 1394.04 3244.79 1391.59 3246.79 1389.5 3248.32 1387.77 3249.86 1386.04 3251.07 1384.5 3251.95 1383.14 3252.84 1381.79 3253.45 1380.54 3253.77 1379.39 3254.1 1378.25 3254.26 1377.02 3254.26 1375.72 3254.26 1374.39 3254.07 1373.17 3253.69 1372.05 3253.32 1370.93 3252.78 1369.98 3252.07 1369.2 3251.37 1368.42 3250.48 1367.81 3249.4 1367.36 3248.32 1366.92 3247.07 1366.7 3245.67 1366.7 3243.24 1366.7 3241.21 1367.36 3239.57 1368.67 3237.93 1369.99 3236.66 1371.89 3235.74 1374.39L3230.63 1374.39 3230.63 1366.78C3233.96 1365.4 3237.03 1364.39 3239.83 1363.77 3242.63 1363.14 3245.15 1362.83 3247.38 1362.83Z" fill-rule="evenodd"/><text fill="#000000" fill-opacity="0" font-family="Arial,Arial_MSFontService,sans-serif" font-size="50.5859" x="3229.38" y="1407.09">2</text><path d="M3313.58 1367.11 3379.75 1367.11 3379.75 1374.26 3313.58 1374.26ZM3313.58 1344.82 3379.75 1344.82 3379.75 1351.97 3313.58 1351.97Z" fill-rule="evenodd"/><text fill="#000000" fill-opacity="0" font-family="Arial,Arial_MSFontService,sans-serif" font-size="29.4336" x="3313.58" y="1370.58">=</text><path d="M3448.02 1338.75C3451.35 1338.75 3454.39 1338.95 3457.13 1339.34 3459.87 1339.74 3462.6 1340.42 3465.32 1341.38L3462.9 1352.66 3458.55 1352.66C3458.16 1349.48 3457.11 1347.06 3455.41 1345.41 3453.71 1343.77 3451.03 1342.94 3447.38 1342.94 3444.55 1342.94 3442.26 1343.67 3440.51 1345.12 3438.75 1346.57 3437.87 1348.47 3437.87 1350.84 3437.87 1352.13 3438.1 1353.26 3438.54 1354.25 3438.99 1355.23 3439.9 1356.32 3441.26 1357.5 3442.62 1358.68 3444.73 1360.13 3447.59 1361.85 3449.85 1363.21 3451.66 1364.45 3453.02 1365.58 3454.38 1366.71 3455.45 1367.83 3456.24 1368.94 3457.03 1370.05 3457.6 1371.22 3457.96 1372.46 3458.32 1373.69 3458.5 1375.19 3458.5 1376.94 3458.5 1380.13 3457.65 1382.86 3455.95 1385.13 3454.25 1387.41 3451.94 1389.1 3449.02 1390.21 3446.1 1391.32 3442.78 1391.87 3439.05 1391.87 3436.08 1391.87 3433.16 1391.65 3430.3 1391.2 3427.44 1390.75 3424.25 1389.99 3420.74 1388.92L3423.32 1377.21 3427.51 1377.21C3427.65 1380.65 3428.62 1383.24 3430.41 1385 3432.2 1386.75 3435.04 1387.63 3438.95 1387.63 3442.35 1387.63 3445.01 1386.87 3446.92 1385.35 3448.84 1383.82 3449.8 1381.67 3449.8 1378.87 3449.8 1377.26 3449.53 1375.88 3448.99 1374.71 3448.45 1373.55 3447.58 1372.43 3446.36 1371.35 3445.14 1370.28 3443.21 1368.94 3440.56 1367.33 3437.77 1365.64 3435.59 1364.12 3434.03 1362.76 3432.48 1361.4 3431.3 1359.92 3430.51 1358.33 3429.73 1356.74 3429.33 1354.9 3429.33 1352.82 3429.33 1350 3430.09 1347.52 3431.62 1345.39 3433.14 1343.26 3435.31 1341.62 3438.14 1340.47 3440.97 1339.33 3444.26 1338.75 3448.02 1338.75Z" fill-rule="evenodd"/><text fill="#000000" fill-opacity="0" font-family="Arial,Arial_MSFontService,sans-serif" font-size="53.1201" x="3420.74" y="1385.23">𝑠</text><path d="M3533.02 1325 3540.64 1325 3540.64 1355.94 3569.92 1355.94 3569.92 1363.08 3540.64 1363.08 3540.64 1394.02 3533.02 1394.02 3533.02 1363.08 3503.74 1363.08 3503.74 1355.94 3533.02 1355.94Z" fill-rule="evenodd"/><text fill="#000000" fill-opacity="0" font-family="Arial,Arial_MSFontService,sans-serif" font-size="69.0186" x="3503.74" y="1385.39">+</text><path d="M3623.12 1326.35 3630.53 1326.35 3627.58 1339.61 3643.91 1339.61 3642.73 1345.04 3626.4 1345.04 3621.62 1365.88C3620.69 1369.92 3620.1 1372.83 3619.85 1374.6 3619.59 1376.38 3619.47 1377.8 3619.47 1378.87 3619.47 1383.31 3621.31 1385.53 3625 1385.53 3626.58 1385.53 3628.25 1384.93 3630.02 1383.74 3631.8 1382.54 3633.9 1380.49 3636.33 1377.59L3639.45 1380.81C3636.33 1384.57 3633.34 1387.34 3630.45 1389.13 3627.57 1390.92 3624.55 1391.82 3621.4 1391.82 3613.92 1391.82 3610.18 1388.04 3610.18 1380.49 3610.18 1378.09 3610.48 1375.56 3611.09 1372.91L3617.43 1345.04 3608.4 1345.04 3609.21 1341.33C3611.32 1341.29 3612.93 1341.13 3614.02 1340.85 3615.11 1340.56 3616.02 1340.17 3616.76 1339.67 3617.49 1339.16 3618.16 1338.45 3618.77 1337.52 3619.38 1336.59 3619.97 1335.4 3620.54 1333.95 3621.12 1332.49 3621.98 1329.96 3623.12 1326.35Z" fill-rule="evenodd"/><text fill="#000000" fill-opacity="0" font-family="Arial,Arial_MSFontService,sans-serif" font-size="65.4736" x="3608.4" y="1383.63">𝑡</text><path d="M3662.81 1373.93 3664.72 1373.93 3658.94 1399.94C3658.58 1401.48 3658.32 1402.7 3658.18 1403.61 3658.04 1404.52 3657.96 1405.34 3657.96 1406.07 3657.96 1407.06 3658.17 1407.78 3658.57 1408.22 3658.97 1408.67 3659.58 1408.89 3660.39 1408.89 3660.85 1408.89 3661.32 1408.8 3661.79 1408.61 3662.26 1408.43 3662.76 1408.14 3663.3 1407.75 3663.83 1407.36 3664.42 1406.86 3665.05 1406.25 3665.69 1405.64 3666.4 1404.9 3667.18 1404.04L3669.84 1406.62C3668.49 1408 3667.25 1409.17 3666.15 1410.12 3665.04 1411.07 3663.99 1411.84 3663 1412.44 3662.01 1413.04 3661.04 1413.47 3660.09 1413.73 3659.14 1413.99 3658.13 1414.12 3657.07 1414.12 3656.08 1414.12 3655.18 1413.94 3654.39 1413.57 3653.6 1413.21 3652.91 1412.71 3652.34 1412.07 3651.77 1411.43 3651.32 1410.67 3651.01 1409.78 3650.7 1408.9 3650.54 1407.92 3650.54 1406.86 3650.54 1406 3650.65 1404.93 3650.85 1403.65 3651.06 1402.38 3651.33 1400.99 3651.66 1399.49 3651.98 1397.99 3652.34 1396.43 3652.73 1394.78 3653.12 1393.14 3653.5 1391.52 3653.88 1389.9 3654.26 1388.29 3654.6 1386.73 3654.9 1385.23 3655.2 1383.74 3655.41 1382.38 3655.54 1381.15 3655.59 1380.94 3655.62 1380.74 3655.62 1380.55 3655.62 1380.35 3655.62 1380.18 3655.62 1380.02 3655.57 1379 3655.21 1378.26 3654.55 1377.79 3653.88 1377.32 3652.7 1377.06 3651.01 1377.01L3651.48 1374.36ZM3660.54 1358.18 3668.35 1358.18 3666.44 1366.58 3658.71 1366.58Z" fill-rule="evenodd"/><text fill="#000000" fill-opacity="0" font-family="Arial,Arial_MSFontService,sans-serif" font-size="55.9375" x="3650.54" y="1407.13">𝑖</text><path d="M3741.17 1325 3748.8 1325 3748.8 1355.94 3778.07 1355.94 3778.07 1363.08 3748.8 1363.08 3748.8 1394.02 3741.17 1394.02 3741.17 1363.08 3711.9 1363.08 3711.9 1355.94 3741.17 1355.94Z" fill-rule="evenodd"/><text fill="#000000" fill-opacity="0" font-family="Arial,Arial_MSFontService,sans-serif" font-size="69.0186" x="3711.9" y="1385.39">+</text><path d="M3831.27 1326.35 3838.69 1326.35 3835.73 1339.61 3852.06 1339.61 3850.88 1345.04 3834.55 1345.04 3829.77 1365.88C3828.84 1369.92 3828.25 1372.83 3828 1374.6 3827.75 1376.38 3827.62 1377.8 3827.62 1378.87 3827.62 1383.31 3829.47 1385.53 3833.15 1385.53 3834.73 1385.53 3836.4 1384.93 3838.18 1383.74 3839.95 1382.54 3842.05 1380.49 3844.49 1377.59L3847.6 1380.81C3844.49 1384.57 3841.49 1387.34 3838.61 1389.13 3835.72 1390.92 3832.71 1391.82 3829.55 1391.82 3822.07 1391.82 3818.33 1388.04 3818.33 1380.49 3818.33 1378.09 3818.63 1375.56 3819.24 1372.91L3825.58 1345.04 3816.56 1345.04 3817.36 1341.33C3819.48 1341.29 3821.08 1341.13 3822.17 1340.85 3823.26 1340.56 3824.17 1340.17 3824.91 1339.67 3825.64 1339.16 3826.31 1338.45 3826.92 1337.52 3827.53 1336.59 3828.12 1335.4 3828.7 1333.95 3829.27 1332.49 3830.13 1329.96 3831.27 1326.35Z" fill-rule="evenodd"/><text fill="#000000" fill-opacity="0" font-family="Arial,Arial_MSFontService,sans-serif" font-size="65.4736" x="3816.56" y="1383.63">𝑡</text><path d="M3870.74 1373.93 3873.44 1373.93 3865.32 1412.21C3864.66 1415.18 3863.82 1417.72 3862.8 1419.84 3861.77 1421.97 3860.51 1423.7 3859.03 1425.06 3857.54 1426.41 3855.81 1427.41 3853.83 1428.05 3851.85 1428.68 3849.59 1429 3847.03 1429 3846.36 1429 3845.71 1428.97 3845.08 1428.91 3844.46 1428.84 3843.9 1428.74 3843.4 1428.61L3844.38 1424.51C3844.69 1424.64 3845.11 1424.73 3845.63 1424.77 3846.15 1424.8 3846.75 1424.82 3847.42 1424.82 3848.7 1424.82 3849.84 1424.65 3850.84 1424.32 3851.85 1423.98 3852.74 1423.37 3853.54 1422.48 3854.33 1421.59 3855.05 1420.38 3855.69 1418.83 3856.32 1417.28 3856.92 1415.29 3857.46 1412.87 3858.38 1408.65 3859.25 1404.69 3860.08 1401 3860.91 1397.3 3861.6 1394.2 3862.13 1391.7 3862.67 1389.2 3863.09 1387.21 3863.4 1385.72 3863.71 1384.24 3863.94 1383.09 3864.08 1382.28 3864.23 1381.48 3864.31 1380.9 3864.34 1380.57 3864.36 1380.23 3864.38 1379.95 3864.38 1379.75 3864.38 1378.83 3864.03 1378.16 3863.34 1377.73 3862.65 1377.3 3861.44 1377.06 3859.69 1377.01L3860.28 1374.36ZM3869.3 1358.18 3877.15 1358.18 3875.24 1366.58 3867.39 1366.58Z" fill-rule="evenodd"/><text fill="#000000" fill-opacity="0" font-family="Arial,Arial_MSFontService,sans-serif" font-size="70.8203" x="3843.4" y="1420.15">𝑗</text><path d="M3920 1355.94 3986.17 1355.94 3986.17 1363.08 3920 1363.08Z" fill-rule="evenodd"/><text fill="#000000" fill-opacity="0" font-family="Arial,Arial_MSFontService,sans-serif" font-size="7.14355" x="3920" y="1362.19">−</text><path d="M4052.7 1342.94C4049.05 1342.94 4045.77 1344.42 4042.87 1347.37 4039.97 1350.33 4037.69 1354.31 4036.02 1359.32 4034.36 1364.34 4033.53 1369.33 4033.53 1374.31 4033.53 1378.03 4034.04 1380.82 4035.06 1382.66 4036.08 1384.51 4037.79 1385.43 4040.19 1385.43 4041.3 1385.43 4042.42 1385.19 4043.57 1384.7 4044.72 1384.22 4045.91 1383.44 4047.14 1382.37 4048.38 1381.29 4049.59 1379.98 4050.79 1378.44 4051.99 1376.91 4053.09 1375.36 4054.1 1373.8 4055.1 1372.24 4056.03 1370.4 4056.89 1368.27 4057.75 1366.14 4058.48 1363.57 4059.09 1360.56L4059.58 1358.25C4060.11 1355.67 4060.38 1353.24 4060.38 1350.94 4060.38 1348.15 4059.79 1346.12 4058.61 1344.85 4057.43 1343.58 4055.46 1342.94 4052.7 1342.94ZM4075.21 1314.15 4078.37 1314.15 4065 1373.61C4064.21 1377.12 4063.82 1379.77 4063.82 1381.56 4063.82 1382.99 4064.05 1384.03 4064.52 1384.68 4064.98 1385.32 4065.72 1385.64 4066.72 1385.64 4067.79 1385.64 4068.94 1385.2 4070.16 1384.33 4071.37 1383.45 4073.09 1381.77 4075.31 1379.3L4078.37 1382.31C4075.08 1385.79 4072.3 1388.24 4070.05 1389.67 4067.79 1391.1 4065.36 1391.82 4062.74 1391.82 4060.52 1391.82 4058.75 1391.08 4057.43 1389.62 4056.1 1388.15 4055.44 1386.2 4055.44 1383.76 4055.44 1381.79 4055.85 1379.7 4056.67 1377.48L4055.98 1377.26C4052.54 1382.28 4049.28 1385.95 4046.2 1388.27 4043.12 1390.6 4039.86 1391.77 4036.43 1391.77 4032.49 1391.77 4029.43 1390.28 4027.27 1387.31 4025.1 1384.33 4024.02 1380.16 4024.02 1374.79 4024.02 1368.63 4025.23 1362.72 4027.64 1357.04 4030.06 1351.37 4033.38 1346.89 4037.61 1343.61 4041.83 1340.34 4046.54 1338.7 4051.73 1338.7 4053.92 1338.7 4055.93 1338.92 4057.78 1339.37 4059.62 1339.82 4061.51 1340.6 4063.44 1341.71L4066.24 1329.3C4066.52 1328.12 4066.77 1326.81 4066.99 1325.38 4067.2 1323.95 4067.31 1322.69 4067.31 1321.62 4067.31 1320.54 4067.11 1319.73 4066.72 1319.17 4066.32 1318.62 4065.76 1318.22 4065.03 1317.97 4064.29 1317.72 4062.98 1317.54 4061.08 1317.43L4061.72 1314.64Z" fill-rule="evenodd"/><text fill="#000000" fill-opacity="0" font-family="Arial,Arial_MSFontService,sans-serif" font-size="77.666" x="4024.02" y="1382.11">𝑑</text><path d="M4100.72 1373.93 4102.64 1373.93 4096.86 1399.94C4096.49 1401.48 4096.24 1402.7 4096.09 1403.61 4095.95 1404.52 4095.88 1405.34 4095.88 1406.07 4095.88 1407.06 4096.08 1407.78 4096.48 1408.22 4096.89 1408.67 4097.49 1408.89 4098.3 1408.89 4098.77 1408.89 4099.24 1408.8 4099.71 1408.61 4100.18 1408.43 4100.68 1408.14 4101.21 1407.75 4101.74 1407.36 4102.33 1406.86 4102.97 1406.25 4103.61 1405.64 4104.32 1404.9 4105.1 1404.04L4107.75 1406.62C4106.4 1408 4105.17 1409.17 4104.06 1410.12 4102.96 1411.07 4101.91 1411.84 4100.92 1412.44 4099.93 1413.04 4098.96 1413.47 4098.01 1413.73 4097.06 1413.99 4096.05 1414.12 4094.98 1414.12 4093.99 1414.12 4093.1 1413.94 4092.3 1413.57 4091.51 1413.21 4090.83 1412.71 4090.25 1412.07 4089.68 1411.43 4089.24 1410.67 4088.93 1409.78 4088.61 1408.9 4088.46 1407.92 4088.46 1406.86 4088.46 1406 4088.56 1404.93 4088.77 1403.65 4088.98 1402.38 4089.24 1400.99 4089.57 1399.49 4089.9 1397.99 4090.25 1396.43 4090.64 1394.78 4091.04 1393.14 4091.42 1391.52 4091.8 1389.9 4092.17 1388.29 4092.51 1386.73 4092.81 1385.23 4093.11 1383.74 4093.33 1382.38 4093.46 1381.15 4093.51 1380.94 4093.54 1380.74 4093.54 1380.55 4093.54 1380.35 4093.54 1380.18 4093.54 1380.02 4093.48 1379 4093.12 1378.26 4092.46 1377.79 4091.8 1377.32 4090.62 1377.06 4088.93 1377.01L4089.39 1374.36ZM4098.46 1358.18 4106.27 1358.18 4104.36 1366.58 4096.62 1366.58Z" fill-rule="evenodd"/><text fill="#000000" fill-opacity="0" font-family="Arial,Arial_MSFontService,sans-serif" font-size="55.9375" x="4088.46" y="1407.13">𝑖</text><text font-family="DengXian,DengXian_MSFontService,sans-serif" font-weight="400" font-size="110" transform="matrix(1 0 0 1 2853.61 1844)">故交换后：</text><path d="M3591.04 1796.17C3587.35 1796.17 3584.04 1797.66 3581.1 1800.63 3578.17 1803.6 3575.87 1807.58 3574.23 1812.58 3572.58 1817.57 3571.76 1822.56 3571.76 1827.54 3571.76 1831.26 3572.27 1834.05 3573.29 1835.89 3574.31 1837.73 3576.02 1838.66 3578.42 1838.66 3580.78 1838.66 3583.1 1837.63 3585.37 1835.59 3587.65 1833.55 3589.99 1830.64 3592.41 1826.87 3594.82 1823.09 3596.53 1818.73 3597.54 1813.79L3598.02 1811.48C3598.34 1810.01 3598.56 1808.74 3598.66 1807.66 3598.77 1806.59 3598.83 1805.43 3598.83 1804.17 3598.83 1801.42 3598.24 1799.39 3597.05 1798.1 3595.87 1796.81 3593.87 1796.17 3591.04 1796.17ZM3502.15 1796.17C3498.53 1796.17 3495.05 1798 3491.7 1801.65 3488.35 1805.3 3485.78 1810.24 3483.99 1816.47 3489.04 1816.44 3493.37 1815.98 3496.99 1815.1 3500.61 1814.23 3503.38 1812.83 3505.31 1810.91 3507.25 1809 3508.21 1806.41 3508.21 1803.15 3508.21 1800.97 3507.7 1799.26 3506.68 1798.02 3505.66 1796.79 3504.15 1796.17 3502.15 1796.17ZM3437.93 1796.17C3434.28 1796.17 3431 1797.65 3428.1 1800.6 3425.2 1803.56 3422.92 1807.54 3421.25 1812.55 3419.59 1817.56 3418.76 1822.56 3418.76 1827.54 3418.76 1831.26 3419.27 1834.05 3420.29 1835.89 3421.31 1837.73 3423.02 1838.66 3425.42 1838.66 3426.53 1838.66 3427.65 1838.41 3428.8 1837.93 3429.95 1837.45 3431.14 1836.67 3432.37 1835.59 3433.61 1834.52 3434.82 1833.21 3436.02 1831.67 3437.22 1830.13 3438.32 1828.58 3439.33 1827.03 3440.33 1825.47 3441.26 1823.63 3442.12 1821.49 3442.98 1819.36 3443.71 1816.8 3444.32 1813.79L3444.81 1811.48C3445.34 1808.9 3445.61 1806.46 3445.61 1804.17 3445.61 1801.38 3445.02 1799.35 3443.84 1798.08 3442.66 1796.81 3440.69 1796.17 3437.93 1796.17ZM3589.96 1791.93C3592.29 1791.93 3594.47 1792.19 3596.49 1792.71 3598.51 1793.22 3600.6 1794.15 3602.75 1795.47L3607.69 1791.93 3611.13 1792.79 3603.23 1826.84C3602.44 1830.24 3602.05 1832.89 3602.05 1834.79 3602.05 1836.22 3602.28 1837.26 3602.75 1837.9 3603.21 1838.55 3603.95 1838.87 3604.95 1838.87 3606.02 1838.87 3607.17 1838.43 3608.39 1837.55 3609.6 1836.68 3611.32 1835 3613.54 1832.53L3616.6 1835.54C3613.38 1838.98 3610.63 1841.42 3608.36 1842.87 3606.09 1844.32 3603.62 1845.05 3600.97 1845.05 3598.75 1845.05 3596.98 1844.31 3595.66 1842.84 3594.33 1841.38 3593.67 1839.43 3593.67 1836.99 3593.67 1835.02 3594.08 1832.93 3594.91 1830.71L3594.21 1830.49C3590.77 1835.5 3587.51 1839.17 3584.43 1841.5 3581.35 1843.83 3578.09 1844.99 3574.66 1844.99 3570.72 1844.99 3567.66 1843.51 3565.5 1840.54 3563.33 1837.56 3562.25 1833.39 3562.25 1828.02 3562.25 1821.86 3563.46 1815.94 3565.87 1810.27 3568.29 1804.59 3571.61 1800.12 3575.84 1796.84 3580.06 1793.57 3584.77 1791.93 3589.96 1791.93ZM3504.08 1791.93C3508.41 1791.93 3511.66 1792.8 3513.83 1794.56 3515.99 1796.31 3517.08 1799.05 3517.08 1802.78 3517.08 1808.86 3514.22 1813.43 3508.51 1816.47 3502.8 1819.52 3494.32 1821.04 3483.08 1821.04 3482.65 1823.19 3482.43 1825.51 3482.43 1828.02 3482.43 1831.78 3483.17 1834.51 3484.64 1836.21 3486.1 1837.91 3488.5 1838.76 3491.83 1838.76 3495.13 1838.76 3498.11 1838.05 3500.78 1836.61 3503.44 1835.18 3506.26 1832.98 3509.24 1830.01L3512.57 1833.5C3509.09 1837.33 3505.57 1840.21 3502.01 1842.15 3498.45 1844.08 3494.3 1845.05 3489.58 1845.05 3484.38 1845.05 3480.37 1843.46 3477.52 1840.29 3474.67 1837.12 3473.25 1832.71 3473.25 1827.05 3473.25 1823.22 3473.94 1819.11 3475.32 1814.73 3476.7 1810.34 3478.78 1806.4 3481.57 1802.91 3484.37 1799.42 3487.71 1796.72 3491.62 1794.8 3495.52 1792.88 3499.67 1791.93 3504.08 1791.93ZM3549.27 1767.38 3552.44 1767.38 3539.23 1826.84C3538.44 1830.38 3538.04 1833.03 3538.04 1834.79 3538.04 1836.22 3538.28 1837.26 3538.74 1837.9 3539.21 1838.55 3539.94 1838.87 3540.95 1838.87 3542.02 1838.87 3543.17 1838.43 3544.38 1837.55 3545.6 1836.68 3547.32 1835 3549.54 1832.53L3552.6 1835.54C3549.13 1839.19 3546.29 1841.69 3544.09 1843.03 3541.89 1844.38 3539.42 1845.05 3536.7 1845.05 3534.37 1845.05 3532.51 1844.2 3531.12 1842.5 3529.72 1840.79 3529.02 1838.62 3529.02 1835.97 3529.02 1833.57 3529.52 1830.1 3530.53 1825.55L3540.14 1782.53C3540.57 1780.63 3540.87 1779.12 3541.05 1777.99 3541.23 1776.86 3541.32 1775.81 3541.32 1774.85 3541.32 1773.77 3541.12 1772.96 3540.73 1772.4 3540.34 1771.85 3539.77 1771.45 3539.04 1771.19 3538.3 1770.94 3536.99 1770.76 3535.09 1770.66L3535.74 1767.86ZM3460.44 1767.38 3463.6 1767.38 3450.23 1826.84C3449.44 1830.35 3449.05 1833 3449.05 1834.79 3449.05 1836.22 3449.28 1837.26 3449.75 1837.9 3450.21 1838.55 3450.95 1838.87 3451.95 1838.87 3453.02 1838.87 3454.17 1838.43 3455.39 1837.55 3456.6 1836.68 3458.32 1835 3460.54 1832.53L3463.6 1835.54C3460.31 1839.01 3457.53 1841.47 3455.28 1842.9 3453.02 1844.33 3450.59 1845.05 3447.97 1845.05 3445.75 1845.05 3443.98 1844.31 3442.66 1842.84 3441.33 1841.38 3440.67 1839.43 3440.67 1836.99 3440.67 1835.02 3441.08 1832.93 3441.91 1830.71L3441.21 1830.49C3437.77 1835.5 3434.51 1839.17 3431.43 1841.5 3428.35 1843.83 3425.09 1844.99 3421.66 1844.99 3417.72 1844.99 3414.66 1843.51 3412.5 1840.54 3410.33 1837.56 3409.25 1833.39 3409.25 1828.02 3409.25 1821.86 3410.46 1815.94 3412.87 1810.27 3415.29 1804.59 3418.61 1800.12 3422.84 1796.84 3427.06 1793.57 3431.77 1791.93 3436.96 1791.93 3439.15 1791.93 3441.16 1792.15 3443.01 1792.6 3444.85 1793.05 3446.74 1793.82 3448.67 1794.93L3451.47 1782.53C3451.75 1781.35 3452 1780.04 3452.22 1778.61 3452.43 1777.17 3452.54 1775.92 3452.54 1774.85 3452.54 1773.77 3452.34 1772.96 3451.95 1772.4 3451.56 1771.85 3450.99 1771.45 3450.26 1771.19 3449.52 1770.94 3448.21 1770.76 3446.31 1770.66L3446.95 1767.86Z" fill-rule="evenodd"/><text fill="#000000" fill-opacity="0" font-family="Arial,Arial_MSFontService,sans-serif" font-size="77.666" x="3409.25" y="1835.34">𝑑𝑒𝑙𝑎</text><path d="M3638.29 1791.98C3639.75 1791.98 3641.01 1792.18 3642.05 1792.57 3642.76 1792.86 3643.48 1793.33 3644.19 1793.99 3644.91 1794.66 3645.55 1795.58 3646.1 1796.76 3646.66 1797.94 3647.14 1799.27 3647.55 1800.74 3647.96 1802.2 3648.42 1804.32 3648.92 1807.07 3649.78 1811.69 3650.61 1816.55 3651.42 1821.66 3652.22 1826.76 3652.91 1831.49 3653.49 1835.86 3656.96 1830.85 3659.9 1825.94 3662.32 1821.15 3664.74 1816.35 3666.48 1812.18 3667.53 1808.63 3668.59 1805.09 3669.12 1802.2 3669.12 1799.98 3669.12 1798.3 3668.76 1797.15 3668.04 1796.55 3667.33 1795.94 3666.11 1795.58 3664.39 1795.47L3664.93 1792.84 3679.05 1792.84 3680.5 1795.53C3677.78 1802.97 3674.09 1810.94 3669.44 1819.43 3664.85 1827.73 3659.61 1836.01 3653.7 1844.24 3648.04 1852.08 3643.33 1857.76 3639.57 1861.27 3636.96 1863.67 3634.44 1865.39 3632 1866.42 3630.07 1867.21 3628.01 1867.61 3625.82 1867.61 3625.07 1867.61 3624.2 1867.54 3623.22 1867.42 3622.24 1867.29 3621.47 1867.12 3620.94 1866.91L3623.25 1856.49 3627.49 1856.49C3627.49 1858.78 3628.28 1859.92 3629.85 1859.92 3631.93 1859.92 3634.35 1858.63 3637.1 1856.03 3639.86 1853.43 3643.1 1849.52 3646.83 1844.3 3645.79 1838.03 3644.37 1830.47 3642.58 1821.63 3640.69 1812.18 3639.43 1806.32 3638.82 1804.07 3638.07 1801.34 3637.28 1799.61 3636.46 1798.86 3635.96 1798.39 3635.33 1798.16 3634.58 1798.16 3633.43 1798.16 3632.36 1798.62 3631.36 1799.55 3630.35 1800.48 3629.12 1802.1 3627.65 1804.39L3624.16 1802.08C3626.63 1798.39 3628.94 1795.79 3631.09 1794.26 3633.24 1792.74 3635.64 1791.98 3638.29 1791.98Z" fill-rule="evenodd"/><text fill="#000000" fill-opacity="0" font-family="Arial,Arial_MSFontService,sans-serif" font-size="75.625" x="3620.94" y="1858.15">𝑦</text><path d="M3701.86 1816.06C3704.57 1816.06 3706.88 1816.37 3708.79 1816.98 3710.71 1817.59 3712.26 1818.42 3713.46 1819.46 3714.66 1820.5 3715.53 1821.75 3716.06 1823.21 3716.59 1824.67 3716.86 1826.24 3716.86 1827.94 3716.86 1828.95 3716.79 1829.89 3716.65 1830.77 3716.5 1831.64 3716.26 1832.5 3715.9 1833.35 3715.55 1834.19 3715.09 1835.04 3714.52 1835.9 3713.94 1836.76 3713.23 1837.67 3712.37 1838.64 3711.72 1839.47 3710.87 1840.44 3709.83 1841.53 3708.79 1842.62 3707.65 1843.79 3706.41 1845.04 3705.17 1846.29 3703.88 1847.6 3702.52 1848.95 3701.17 1850.3 3699.86 1851.65 3698.58 1852.97 3697.3 1854.3 3696.13 1855.59 3695.06 1856.84 3694 1858.09 3693.12 1859.24 3692.45 1860.28L3706.9 1860.28C3708.12 1860.28 3709.1 1860.23 3709.83 1860.14 3710.56 1860.05 3711.16 1859.85 3711.65 1859.54 3712.13 1859.22 3712.54 1858.75 3712.88 1858.11 3713.21 1857.47 3713.61 1856.59 3714.05 1855.47L3717.68 1855.47C3717.55 1857.32 3717.43 1859.19 3717.31 1861.06 3717.19 1862.94 3717.07 1864.8 3716.94 1866.65L3683.85 1866.65 3683.85 1864.61C3684.48 1863.21 3685.21 1861.82 3686.04 1860.45 3686.87 1859.09 3687.81 1857.7 3688.85 1856.29 3689.89 1854.89 3691.08 1853.44 3692.41 1851.94 3693.74 1850.44 3695.21 1848.89 3696.82 1847.27 3699.27 1844.82 3701.26 1842.73 3702.8 1841 3704.33 1839.27 3705.55 1837.73 3706.43 1836.37 3707.32 1835.02 3707.92 1833.77 3708.25 1832.62 3708.57 1831.48 3708.74 1830.25 3708.74 1828.95 3708.74 1827.62 3708.55 1826.4 3708.17 1825.28 3707.79 1824.16 3707.25 1823.21 3706.55 1822.43 3705.84 1821.65 3704.95 1821.03 3703.87 1820.59 3702.79 1820.15 3701.55 1819.93 3700.14 1819.93 3697.72 1819.93 3695.69 1820.58 3694.05 1821.9 3692.41 1823.21 3691.13 1825.12 3690.22 1827.62L3685.1 1827.62 3685.1 1820.01C3688.44 1818.63 3691.5 1817.62 3694.3 1817 3697.1 1816.37 3699.62 1816.06 3701.86 1816.06Z" fill-rule="evenodd"/><text fill="#000000" fill-opacity="0" font-family="Arial,Arial_MSFontService,sans-serif" font-size="50.5859" x="3683.85" y="1860.32">2</text><path d="M3768.27 1842.95 3834.44 1842.95 3834.44 1850.1 3768.27 1850.1ZM3834.44 1775.44 3834.44 1783.49 3776.92 1805.03 3834.44 1826.57 3834.44 1834.63 3768.06 1808.79 3768.06 1801.27Z" fill-rule="evenodd"/><text fill="#000000" fill-opacity="0" font-family="Arial,Arial_MSFontService,sans-serif" font-size="74.6582" x="3768.06" y="1840.76">≤</text><path d="M4060.53 1796.17C4056.84 1796.17 4053.53 1797.66 4050.59 1800.63 4047.66 1803.6 4045.37 1807.58 4043.72 1812.58 4042.07 1817.57 4041.25 1822.56 4041.25 1827.54 4041.25 1831.26 4041.76 1834.05 4042.78 1835.89 4043.8 1837.73 4045.51 1838.66 4047.91 1838.66 4050.27 1838.66 4052.59 1837.63 4054.86 1835.59 4057.14 1833.55 4059.48 1830.64 4061.9 1826.87 4064.32 1823.09 4066.03 1818.73 4067.03 1813.79L4067.51 1811.48C4067.84 1810.01 4068.05 1808.74 4068.16 1807.66 4068.27 1806.59 4068.32 1805.43 4068.32 1804.17 4068.32 1801.42 4067.73 1799.39 4066.55 1798.1 4065.37 1796.81 4063.36 1796.17 4060.53 1796.17ZM3971.64 1796.17C3968.02 1796.17 3964.54 1798 3961.19 1801.65 3957.84 1805.3 3955.27 1810.24 3953.48 1816.47 3958.53 1816.44 3962.87 1815.98 3966.48 1815.1 3970.1 1814.23 3972.87 1812.83 3974.81 1810.91 3976.74 1809 3977.71 1806.41 3977.71 1803.15 3977.71 1800.97 3977.2 1799.26 3976.18 1798.02 3975.16 1796.79 3973.64 1796.17 3971.64 1796.17ZM3907.42 1796.17C3903.77 1796.17 3900.5 1797.65 3897.59 1800.6 3894.69 1803.56 3892.41 1807.54 3890.75 1812.55 3889.08 1817.56 3888.25 1822.56 3888.25 1827.54 3888.25 1831.26 3888.76 1834.05 3889.78 1835.89 3890.8 1837.73 3892.51 1838.66 3894.91 1838.66 3896.02 1838.66 3897.15 1838.41 3898.29 1837.93 3899.44 1837.45 3900.63 1836.67 3901.86 1835.59 3903.1 1834.52 3904.32 1833.21 3905.52 1831.67 3906.72 1830.13 3907.82 1828.58 3908.82 1827.03 3909.82 1825.47 3910.75 1823.63 3911.61 1821.49 3912.47 1819.36 3913.21 1816.8 3913.82 1813.79L3914.3 1811.48C3914.84 1808.9 3915.1 1806.46 3915.1 1804.17 3915.1 1801.38 3914.51 1799.35 3913.33 1798.08 3912.15 1796.81 3910.18 1796.17 3907.42 1796.17ZM4059.46 1791.93C4061.78 1791.93 4063.96 1792.19 4065.98 1792.71 4068.01 1793.22 4070.09 1794.15 4072.24 1795.47L4077.18 1791.93 4080.62 1792.79 4072.72 1826.84C4071.94 1830.24 4071.54 1832.89 4071.54 1834.79 4071.54 1836.22 4071.77 1837.26 4072.24 1837.9 4072.71 1838.55 4073.44 1838.87 4074.44 1838.87 4075.52 1838.87 4076.66 1838.43 4077.88 1837.55 4079.1 1836.68 4080.82 1835 4083.04 1832.53L4086.1 1835.54C4082.88 1838.98 4080.13 1841.42 4077.85 1842.87 4075.58 1844.32 4073.12 1845.05 4070.47 1845.05 4068.25 1845.05 4066.48 1844.31 4065.15 1842.84 4063.83 1841.38 4063.16 1839.43 4063.16 1836.99 4063.16 1835.02 4063.58 1832.93 4064.4 1830.71L4063.7 1830.49C4060.26 1835.5 4057 1839.17 4053.93 1841.5 4050.85 1843.83 4047.59 1844.99 4044.15 1844.99 4040.21 1844.99 4037.16 1843.51 4034.99 1840.54 4032.83 1837.56 4031.74 1833.39 4031.74 1828.02 4031.74 1821.86 4032.95 1815.94 4035.37 1810.27 4037.78 1804.59 4041.11 1800.12 4045.33 1796.84 4049.56 1793.57 4054.27 1791.93 4059.46 1791.93ZM3973.57 1791.93C3977.91 1791.93 3981.15 1792.8 3983.32 1794.56 3985.49 1796.31 3986.57 1799.05 3986.57 1802.78 3986.57 1808.86 3983.71 1813.43 3978 1816.47 3972.29 1819.52 3963.81 1821.04 3952.57 1821.04 3952.14 1823.19 3951.93 1825.51 3951.93 1828.02 3951.93 1831.78 3952.66 1834.51 3954.13 1836.21 3955.6 1837.91 3958 1838.76 3961.33 1838.76 3964.62 1838.76 3967.6 1838.05 3970.27 1836.61 3972.94 1835.18 3975.76 1832.98 3978.73 1830.01L3982.06 1833.5C3978.59 1837.33 3975.07 1840.21 3971.5 1842.15 3967.94 1844.08 3963.8 1845.05 3959.07 1845.05 3953.88 1845.05 3949.86 1843.46 3947.01 1840.29 3944.17 1837.12 3942.74 1832.71 3942.74 1827.05 3942.74 1823.22 3943.43 1819.11 3944.81 1814.73 3946.19 1810.34 3948.27 1806.4 3951.07 1802.91 3953.86 1799.42 3957.21 1796.72 3961.11 1794.8 3965.01 1792.88 3969.17 1791.93 3973.57 1791.93ZM4018.76 1767.38 4021.93 1767.38 4008.72 1826.84C4007.93 1830.38 4007.54 1833.03 4007.54 1834.79 4007.54 1836.22 4007.77 1837.26 4008.24 1837.9 4008.7 1838.55 4009.44 1838.87 4010.44 1838.87 4011.51 1838.87 4012.66 1838.43 4013.88 1837.55 4015.09 1836.68 4016.81 1835 4019.03 1832.53L4022.09 1835.54C4018.62 1839.19 4015.78 1841.69 4013.58 1843.03 4011.38 1844.38 4008.92 1845.05 4006.2 1845.05 4003.87 1845.05 4002.01 1844.2 4000.61 1842.5 3999.21 1840.79 3998.51 1838.62 3998.51 1835.97 3998.51 1833.57 3999.02 1830.1 4000.02 1825.55L4009.63 1782.53C4010.06 1780.63 4010.37 1779.12 4010.55 1777.99 4010.73 1776.86 4010.81 1775.81 4010.81 1774.85 4010.81 1773.77 4010.62 1772.96 4010.22 1772.4 4009.83 1771.85 4009.27 1771.45 4008.53 1771.19 4007.8 1770.94 4006.48 1770.76 4004.58 1770.66L4005.23 1767.86ZM3929.93 1767.38 3933.1 1767.38 3919.72 1826.84C3918.94 1830.35 3918.54 1833 3918.54 1834.79 3918.54 1836.22 3918.77 1837.26 3919.24 1837.9 3919.71 1838.55 3920.44 1838.87 3921.44 1838.87 3922.52 1838.87 3923.66 1838.43 3924.88 1837.55 3926.1 1836.68 3927.82 1835 3930.04 1832.53L3933.1 1835.54C3929.8 1839.01 3927.03 1841.47 3924.77 1842.9 3922.52 1844.33 3920.08 1845.05 3917.47 1845.05 3915.25 1845.05 3913.48 1844.31 3912.15 1842.84 3910.83 1841.38 3910.16 1839.43 3910.16 1836.99 3910.16 1835.02 3910.58 1832.93 3911.4 1830.71L3910.7 1830.49C3907.26 1835.5 3904 1839.17 3900.93 1841.5 3897.85 1843.83 3894.59 1844.99 3891.15 1844.99 3887.21 1844.99 3884.16 1843.51 3881.99 1840.54 3879.83 1837.56 3878.74 1833.39 3878.74 1828.02 3878.74 1821.86 3879.95 1815.94 3882.37 1810.27 3884.78 1804.59 3888.11 1800.12 3892.33 1796.84 3896.56 1793.57 3901.27 1791.93 3906.46 1791.93 3908.64 1791.93 3910.66 1792.15 3912.5 1792.6 3914.34 1793.05 3916.23 1793.82 3918.17 1794.93L3920.96 1782.53C3921.25 1781.35 3921.5 1780.04 3921.71 1778.61 3921.93 1777.17 3922.03 1775.92 3922.03 1774.85 3922.03 1773.77 3921.84 1772.96 3921.44 1772.4 3921.05 1771.85 3920.48 1771.45 3919.75 1771.19 3919.02 1770.94 3917.7 1770.76 3915.8 1770.66L3916.45 1767.86Z" fill-rule="evenodd"/><text fill="#000000" fill-opacity="0" font-family="Arial,Arial_MSFontService,sans-serif" font-size="77.666" x="3878.74" y="1835.34">𝑑𝑒𝑙𝑎</text><path d="M4107.78 1791.98C4109.25 1791.98 4110.5 1792.18 4111.54 1792.57 4112.26 1792.86 4112.97 1793.33 4113.69 1793.99 4114.4 1794.66 4115.04 1795.58 4115.59 1796.76 4116.15 1797.94 4116.63 1799.27 4117.04 1800.74 4117.46 1802.2 4117.91 1804.32 4118.41 1807.07 4119.27 1811.69 4120.11 1816.55 4120.91 1821.66 4121.72 1826.76 4122.41 1831.49 4122.98 1835.86 4126.45 1830.85 4129.4 1825.94 4131.81 1821.15 4134.23 1816.35 4135.97 1812.18 4137.02 1808.63 4138.08 1805.09 4138.61 1802.2 4138.61 1799.98 4138.61 1798.3 4138.25 1797.15 4137.54 1796.55 4136.82 1795.94 4135.6 1795.58 4133.88 1795.47L4134.42 1792.84 4148.55 1792.84 4150 1795.53C4147.27 1802.97 4143.59 1810.94 4138.93 1819.43 4134.35 1827.73 4129.1 1836.01 4123.19 1844.24 4117.54 1852.08 4112.83 1857.76 4109.07 1861.27 4106.45 1863.67 4103.93 1865.39 4101.5 1866.42 4099.56 1867.21 4097.5 1867.61 4095.32 1867.61 4094.57 1867.61 4093.7 1867.54 4092.71 1867.42 4091.73 1867.29 4090.97 1867.12 4090.43 1866.91L4092.74 1856.49 4096.98 1856.49C4096.98 1858.78 4097.77 1859.92 4099.35 1859.92 4101.42 1859.92 4103.84 1858.63 4106.6 1856.03 4109.35 1853.43 4112.6 1849.52 4116.32 1844.3 4115.28 1838.03 4113.87 1830.47 4112.08 1821.63 4110.18 1812.18 4108.93 1806.32 4108.32 1804.07 4107.56 1801.34 4106.78 1799.61 4105.95 1798.86 4105.45 1798.39 4104.83 1798.16 4104.07 1798.16 4102.93 1798.16 4101.85 1798.62 4100.85 1799.55 4099.85 1800.48 4098.61 1802.1 4097.15 1804.39L4093.65 1802.08C4096.12 1798.39 4098.43 1795.79 4100.58 1794.26 4102.73 1792.74 4105.13 1791.98 4107.78 1791.98Z" fill-rule="evenodd"/><text fill="#000000" fill-opacity="0" font-family="Arial,Arial_MSFontService,sans-serif" font-size="75.625" x="4090.43" y="1858.15">𝑦</text><path d="M4171.86 1816.33 4174.24 1816.33C4174.19 1817.77 4174.15 1819.05 4174.12 1820.18 4174.1 1821.31 4174.08 1822.41 4174.06 1823.48 4174.05 1824.55 4174.04 1825.6 4174.04 1826.65L4174.04 1856.33C4174.04 1857.14 4174.07 1857.84 4174.12 1858.42 4174.18 1859.01 4174.26 1859.5 4174.38 1859.91 4174.49 1860.31 4174.65 1860.66 4174.85 1860.94 4175.04 1861.23 4175.27 1861.48 4175.53 1861.69 4175.84 1862 4176.26 1862.24 4176.78 1862.41 4177.3 1862.58 4177.96 1862.72 4178.77 1862.84 4179.58 1862.95 4180.55 1863.05 4181.68 1863.11 4182.81 1863.18 4184.18 1863.22 4185.76 1863.25L4185.76 1866.65 4154.79 1866.65 4154.79 1863.25C4156.32 1863.2 4157.63 1863.14 4158.69 1863.07 4159.76 1863.01 4160.67 1862.92 4161.43 1862.8 4162.18 1862.68 4162.79 1862.55 4163.24 1862.41 4163.7 1862.26 4164.1 1862.09 4164.44 1861.88 4164.8 1861.65 4165.11 1861.39 4165.37 1861.12 4165.63 1860.85 4165.84 1860.5 4166 1860.08 4166.15 1859.67 4166.28 1859.16 4166.37 1858.56 4166.46 1857.96 4166.51 1857.22 4166.51 1856.33L4166.51 1828.33C4166.51 1827.31 4166.31 1826.59 4165.92 1826.18 4165.53 1825.76 4164.97 1825.55 4164.24 1825.55 4163.43 1825.55 4162.23 1825.97 4160.65 1826.8 4159.06 1827.64 4157 1828.87 4154.47 1830.51 4154.14 1829.91 4153.82 1829.32 4153.54 1828.72 4153.25 1828.12 4152.95 1827.51 4152.64 1826.88 4155.87 1825.11 4159.06 1823.35 4162.23 1821.59 4165.39 1819.83 4168.6 1818.08 4171.86 1816.33Z" fill-rule="evenodd"/><text fill="#000000" fill-opacity="0" font-family="Arial,Arial_MSFontService,sans-serif" font-size="50.3125" x="4152.64" y="1860.36">1</text></g></svg>