<svg width="1807" height="379" xmlns="http://www.w3.org/2000/svg" xmlns:xlink="http://www.w3.org/1999/xlink" xml:space="preserve" overflow="hidden"><g transform="translate(-347 -1507)"><rect x="641.5" y="1568.5" width="634" height="28.9999" stroke="#2F528F" stroke-width="4.58333" stroke-miterlimit="8" fill="#00B050"/><rect x="1309.5" y="1568.5" width="213" height="28.9999" stroke="#2F528F" stroke-width="4.58333" stroke-miterlimit="8" fill="#00B050"/><rect x="1593.5" y="1568.5" width="206" height="28.9999" stroke="#2F528F" stroke-width="4.58333" stroke-miterlimit="8" fill="#00B050"/><rect x="1130.5" y="1741.5" width="222" height="29.0002" stroke="#2F528F" stroke-width="4.58333" stroke-miterlimit="8" fill="#7F7F7F"/><rect x="1402.5" y="1741.5" width="454" height="29.0002" stroke="#2F528F" stroke-width="4.58333" stroke-miterlimit="8" fill="#7F7F7F"/><rect x="678.5" y="1741.5" width="367" height="29.0002" stroke="#2F528F" stroke-width="4.58333" stroke-miterlimit="8" fill="#0070C0"/><rect x="1827.5" y="1568.5" width="290" height="28.9999" stroke="#2F528F" stroke-width="4.58333" stroke-miterlimit="8" fill="#00B050"/><rect x="1890.5" y="1741.5" width="261" height="29.0002" stroke="#2F528F" stroke-width="4.58333" stroke-miterlimit="8" fill="#7F7F7F"/><text font-family="DengXian,DengXian_MSFontService,sans-serif" font-weight="400" font-size="83" transform="matrix(1 0 0 1 396.937 1610)">已选：</text><text font-family="DengXian,DengXian_MSFontService,sans-serif" font-weight="400" font-size="83" transform="matrix(1 0 0 1 396.937 1783)">未选：</text><path d="M843.43 1787.77C846.078 1787.77 848.361 1787.99 850.28 1788.42L848.699 1795.31 845.133 1795.31C844.754 1793.77 844.261 1792.66 843.653 1791.99 843.045 1791.31 842.147 1790.97 840.958 1790.97 839.418 1790.97 838.115 1791.4 837.047 1792.25 835.98 1793.1 835.068 1794.36 834.312 1796.04 833.555 1797.72 832.853 1799.97 832.204 1802.81L831.191 1807.23 841.607 1807.23 840.715 1811.32 830.259 1811.32 822.721 1846.66C821.478 1852.52 819.573 1856.89 817.007 1859.77 814.44 1862.65 811.211 1864.09 807.321 1864.09 806.186 1864.09 805.294 1864.02 804.646 1863.88L805.335 1860.32C805.605 1860.4 806.24 1860.44 807.24 1860.44 808.455 1860.44 809.496 1860.13 810.36 1859.51 811.225 1858.88 812.029 1857.8 812.772 1856.26 813.515 1854.72 814.197 1852.59 814.818 1849.86L823.532 1811.32 816.682 1811.32 817.29 1808.52C819.101 1808.41 820.404 1808.27 821.201 1808.08 821.998 1807.89 822.62 1807.6 823.065 1807.23 823.511 1806.85 823.89 1806.35 824.2 1805.75 824.511 1805.14 824.909 1804.02 825.396 1802.4 826.828 1797.54 829.036 1793.89 832.022 1791.44 835.008 1789 838.81 1787.77 843.43 1787.77Z" fill-rule="evenodd"/><text fill="#000000" fill-opacity="0" font-family="Arial,Arial_MSFontService,sans-serif" font-size="76.313" x="804.646" y="1854.55">𝑓</text><path d="M855.838 1824.45 857.655 1824.45C857.615 1825.54 857.585 1826.52 857.565 1827.38 857.546 1828.25 857.531 1829.09 857.521 1829.9 857.511 1830.72 857.506 1831.52 857.506 1832.31L857.506 1854.95C857.506 1855.57 857.526 1856.1 857.565 1856.54 857.605 1856.99 857.67 1857.37 857.759 1857.68 857.848 1857.98 857.968 1858.25 858.116 1858.46 858.265 1858.68 858.439 1858.87 858.638 1859.03 858.876 1859.27 859.194 1859.45 859.591 1859.58 859.988 1859.71 860.494 1859.82 861.11 1859.91 861.725 1860 862.465 1860.07 863.329 1860.12 864.193 1860.17 865.23 1860.2 866.441 1860.22L866.441 1862.81 842.822 1862.81 842.822 1860.22C843.993 1860.18 844.986 1860.14 845.8 1860.09 846.614 1860.04 847.309 1859.97 847.885 1859.88 848.461 1859.79 848.923 1859.69 849.27 1859.58 849.618 1859.47 849.921 1859.34 850.179 1859.18 850.457 1859 850.695 1858.81 850.894 1858.6 851.092 1858.39 851.251 1858.13 851.37 1857.81 851.489 1857.49 851.584 1857.1 851.653 1856.65 851.723 1856.19 851.757 1855.63 851.757 1854.95L851.757 1833.59C851.757 1832.82 851.608 1832.27 851.311 1831.96 851.013 1831.64 850.586 1831.48 850.03 1831.48 849.414 1831.48 848.501 1831.8 847.29 1832.43 846.078 1833.07 844.51 1834.01 842.583 1835.26 842.325 1834.81 842.087 1834.35 841.869 1833.89 841.65 1833.44 841.422 1832.97 841.184 1832.49 843.646 1831.14 846.083 1829.8 848.496 1828.46 850.908 1827.12 853.356 1825.78 855.838 1824.45Z" fill-rule="evenodd"/><text fill="#000000" fill-opacity="0" font-family="Arial,Arial_MSFontService,sans-serif" font-size="38.3633" x="841.184" y="1858.02">1</text><path d="M867.287 1631.29 868.19 1706.54 854.44 1706.71 853.538 1631.46ZM839.871 1638.49 860 1597 881.118 1638ZM881.856 1699.5 861.727 1741 840.609 1700Z" fill="#843C0C"/><text font-family="DengXian,DengXian_MSFontService,sans-serif" font-weight="400" font-size="83" transform="matrix(1 0 0 1 890.402 1698)">替换</text></g></svg>