<svg width="1483" height="421" xmlns="http://www.w3.org/2000/svg" xmlns:xlink="http://www.w3.org/1999/xlink" xml:space="preserve" overflow="hidden"><g transform="translate(-2304 -1001)"><path d="M2308.5 1185.5C2308.5 1160.65 2328.65 1140.5 2353.5 1140.5L2785.5 1140.5C2810.35 1140.5 2830.5 1160.65 2830.5 1185.5L2830.5 1365.5C2830.5 1390.35 2810.35 1410.5 2785.5 1410.5L2353.5 1410.5C2328.65 1410.5 2308.5 1390.35 2308.5 1365.5Z" stroke="#2F528F" stroke-width="4.58333" stroke-miterlimit="8" fill="#4472C4" fill-rule="evenodd"/><path d="M2392.67 1263.53 2395.06 1263.53 2389.23 1289.55C2388.63 1292.2 2388.33 1294.2 2388.33 1295.55 2388.33 1296.63 2388.51 1297.41 2388.86 1297.9 2389.21 1298.38 2389.77 1298.63 2390.52 1298.63 2391.33 1298.63 2392.2 1298.3 2393.12 1297.63 2394.04 1296.97 2395.33 1295.71 2397.01 1293.84L2399.32 1296.11C2396.67 1298.9 2394.52 1300.79 2392.87 1301.79 2391.23 1302.79 2389.38 1303.29 2387.32 1303.29 2385.57 1303.29 2384.16 1302.65 2383.11 1301.36 2382.05 1300.08 2381.53 1298.44 2381.53 1296.44 2381.53 1294.38 2381.9 1291.76 2382.66 1288.58L2385.7 1275.32C2386.32 1272.62 2386.63 1270.6 2386.63 1269.24 2386.63 1268.03 2386.34 1267.2 2385.76 1266.77 2385.18 1266.34 2384.04 1266.1 2382.34 1266.04L2382.78 1263.89ZM2391.58 1248.01 2398.75 1248.01 2396.89 1255.87 2389.71 1255.87Z" fill="#FFFFFF" fill-rule="evenodd"/><text fill="#000000" fill-opacity="0" font-family="Arial,Arial_MSFontService,sans-serif" font-size="55.2793" x="2381.53" y="1296.38">𝑖</text><path d="M2420.41 1281.12 2422.23 1281.12C2422.19 1282.21 2422.16 1283.19 2422.14 1284.05 2422.12 1284.92 2422.1 1285.76 2422.09 1286.57 2422.08 1287.38 2422.08 1288.19 2422.08 1288.98L2422.08 1311.62C2422.08 1312.23 2422.1 1312.77 2422.14 1313.21 2422.18 1313.66 2422.24 1314.04 2422.33 1314.34 2422.42 1314.65 2422.54 1314.92 2422.69 1315.13 2422.84 1315.35 2423.01 1315.54 2423.21 1315.7 2423.45 1315.94 2423.77 1316.12 2424.16 1316.25 2424.56 1316.38 2425.07 1316.49 2425.68 1316.58 2426.3 1316.67 2427.04 1316.74 2427.9 1316.79 2428.76 1316.84 2429.8 1316.87 2431.01 1316.89L2431.01 1319.48 2407.39 1319.48 2407.39 1316.89C2408.57 1316.85 2409.56 1316.81 2410.37 1316.76 2411.19 1316.71 2411.88 1316.64 2412.46 1316.55 2413.03 1316.46 2413.49 1316.36 2413.84 1316.25 2414.19 1316.14 2414.49 1316.01 2414.75 1315.85 2415.03 1315.67 2415.27 1315.48 2415.47 1315.27 2415.66 1315.06 2415.82 1314.8 2415.94 1314.48 2416.06 1314.16 2416.16 1313.77 2416.22 1313.32 2416.29 1312.86 2416.33 1312.29 2416.33 1311.62L2416.33 1290.26C2416.33 1289.49 2416.18 1288.94 2415.88 1288.63 2415.58 1288.31 2415.16 1288.15 2414.6 1288.15 2413.99 1288.15 2413.07 1288.47 2411.86 1289.1 2410.65 1289.74 2409.08 1290.68 2407.16 1291.93 2406.9 1291.47 2406.66 1291.02 2406.44 1290.56 2406.22 1290.1 2405.99 1289.64 2405.76 1289.16 2408.22 1287.81 2410.66 1286.47 2413.07 1285.13 2415.48 1283.79 2417.93 1282.45 2420.41 1281.12Z" fill="#FFFFFF" fill-rule="evenodd"/><text fill="#000000" fill-opacity="0" font-family="Arial,Arial_MSFontService,sans-serif" font-size="38.3633" x="2405.76" y="1314.69">1</text><path d="M2444.1 1293.24 2451.19 1293.24C2451.57 1295.13 2451.76 1296.99 2451.76 1298.83 2451.76 1300.72 2451.43 1302.45 2450.78 1304.02 2450.14 1305.58 2449.1 1307.14 2447.68 1308.7 2446.27 1310.25 2444.31 1311.96 2441.83 1313.82L2439.64 1311.35C2441.02 1310.06 2442.02 1308.89 2442.64 1307.85 2443.26 1306.81 2443.71 1305.62 2443.98 1304.3 2444.25 1302.98 2444.38 1301.31 2444.38 1299.32 2444.38 1297.26 2444.29 1295.24 2444.1 1293.24Z" fill="#FFFFFF" fill-rule="evenodd"/><text fill="#000000" fill-opacity="0" font-family="Arial,Arial_MSFontService,sans-serif" font-size="20.5879" x="2439.64" y="1311.25">,</text><path d="M2486.42 1263.53 2488.81 1263.53 2482.98 1289.55C2482.38 1292.2 2482.09 1294.2 2482.09 1295.55 2482.09 1296.63 2482.26 1297.41 2482.61 1297.9 2482.97 1298.38 2483.52 1298.63 2484.28 1298.63 2485.09 1298.63 2485.95 1298.3 2486.87 1297.63 2487.79 1296.97 2489.08 1295.71 2490.76 1293.84L2493.07 1296.11C2490.42 1298.9 2488.27 1300.79 2486.63 1301.79 2484.98 1302.79 2483.13 1303.29 2481.07 1303.29 2479.32 1303.29 2477.91 1302.65 2476.86 1301.36 2475.81 1300.08 2475.28 1298.44 2475.28 1296.44 2475.28 1294.38 2475.66 1291.76 2476.41 1288.58L2479.45 1275.32C2480.07 1272.62 2480.39 1270.6 2480.39 1269.24 2480.39 1268.03 2480.09 1267.2 2479.51 1266.77 2478.93 1266.34 2477.79 1266.1 2476.09 1266.04L2476.53 1263.89ZM2485.33 1248.01 2492.5 1248.01 2490.64 1255.87 2483.47 1255.87Z" fill="#FFFFFF" fill-rule="evenodd"/><text fill="#000000" fill-opacity="0" font-family="Arial,Arial_MSFontService,sans-serif" font-size="55.2793" x="2475.28" y="1296.38">𝑖</text><path d="M2513.74 1280.91C2515.81 1280.91 2517.57 1281.14 2519.03 1281.61 2520.49 1282.08 2521.67 1282.71 2522.59 1283.5 2523.5 1284.3 2524.16 1285.25 2524.57 1286.36 2524.97 1287.47 2525.18 1288.67 2525.18 1289.97 2525.18 1290.74 2525.12 1291.46 2525.01 1292.12 2524.91 1292.79 2524.72 1293.45 2524.45 1294.09 2524.18 1294.74 2523.83 1295.39 2523.39 1296.04 2522.95 1296.7 2522.41 1297.39 2521.75 1298.13 2521.26 1298.76 2520.61 1299.5 2519.82 1300.33 2519.02 1301.16 2518.15 1302.06 2517.21 1303.01 2516.27 1303.96 2515.28 1304.96 2514.25 1305.99 2513.21 1307.02 2512.21 1308.05 2511.24 1309.06 2510.27 1310.07 2509.37 1311.05 2508.56 1312.01 2507.74 1312.96 2507.08 1313.83 2506.56 1314.63L2517.58 1314.63C2518.52 1314.63 2519.26 1314.59 2519.82 1314.52 2520.37 1314.45 2520.83 1314.3 2521.2 1314.06 2521.57 1313.82 2521.88 1313.46 2522.14 1312.97 2522.4 1312.49 2522.7 1311.82 2523.03 1310.96L2525.8 1310.96C2525.7 1312.37 2525.61 1313.79 2525.52 1315.22 2525.43 1316.65 2525.34 1318.07 2525.24 1319.48L2500.01 1319.48 2500.01 1317.93C2500.49 1316.86 2501.04 1315.8 2501.68 1314.76 2502.31 1313.72 2503.03 1312.66 2503.82 1311.59 2504.62 1310.52 2505.52 1309.41 2506.53 1308.27 2507.55 1307.13 2508.67 1305.94 2509.9 1304.71 2511.76 1302.84 2513.28 1301.25 2514.46 1299.93 2515.63 1298.61 2516.55 1297.43 2517.23 1296.4 2517.9 1295.37 2518.36 1294.41 2518.61 1293.54 2518.86 1292.67 2518.98 1291.73 2518.98 1290.74 2518.98 1289.73 2518.84 1288.79 2518.55 1287.94 2518.26 1287.09 2517.85 1286.36 2517.31 1285.77 2516.78 1285.17 2516.1 1284.7 2515.27 1284.37 2514.45 1284.03 2513.5 1283.86 2512.43 1283.86 2510.58 1283.86 2509.03 1284.36 2507.78 1285.36 2506.53 1286.37 2505.56 1287.82 2504.86 1289.73L2500.96 1289.73 2500.96 1283.92C2503.5 1282.87 2505.84 1282.1 2507.98 1281.63 2510.11 1281.15 2512.03 1280.91 2513.74 1280.91Z" fill="#FFFFFF" fill-rule="evenodd"/><text fill="#000000" fill-opacity="0" font-family="Arial,Arial_MSFontService,sans-serif" font-size="38.5718" x="2500.01" y="1314.66">2</text><path d="M2539.75 1293.24 2546.84 1293.24C2547.22 1295.13 2547.41 1296.99 2547.41 1298.83 2547.41 1300.72 2547.09 1302.45 2546.44 1304.02 2545.79 1305.58 2544.76 1307.14 2543.34 1308.7 2541.92 1310.25 2539.97 1311.96 2537.48 1313.82L2535.29 1311.35C2536.67 1310.06 2537.67 1308.89 2538.29 1307.85 2538.91 1306.81 2539.36 1305.62 2539.63 1304.3 2539.9 1302.98 2540.04 1301.31 2540.04 1299.32 2540.04 1297.26 2539.94 1295.24 2539.75 1293.24Z" fill="#FFFFFF" fill-rule="evenodd"/><text fill="#000000" fill-opacity="0" font-family="Arial,Arial_MSFontService,sans-serif" font-size="20.5879" x="2535.29" y="1311.25">,</text><path d="M2615.07 1293.24 2623.25 1293.24 2623.25 1302.64 2615.07 1302.64ZM2595.21 1293.24 2603.4 1293.24 2603.4 1302.64 2595.21 1302.64ZM2575.35 1293.24 2583.54 1293.24 2583.54 1302.64 2575.35 1302.64Z" fill="#FFFFFF" fill-rule="evenodd"/><text fill="#000000" fill-opacity="0" font-family="Arial,Arial_MSFontService,sans-serif" font-size="9.40234" x="2575.35" y="1301.46">…</text><path d="M2646.31 1293.24 2653.41 1293.24C2653.78 1295.13 2653.97 1296.99 2653.97 1298.83 2653.97 1300.72 2653.65 1302.45 2653 1304.02 2652.35 1305.58 2651.32 1307.14 2649.9 1308.7 2648.48 1310.25 2646.53 1311.96 2644.04 1313.82L2641.86 1311.35C2643.23 1310.06 2644.23 1308.89 2644.86 1307.85 2645.48 1306.81 2645.92 1305.62 2646.19 1304.3 2646.46 1302.98 2646.6 1301.31 2646.6 1299.32 2646.6 1297.26 2646.5 1295.24 2646.31 1293.24Z" fill="#FFFFFF" fill-rule="evenodd"/><text fill="#000000" fill-opacity="0" font-family="Arial,Arial_MSFontService,sans-serif" font-size="20.5879" x="2641.86" y="1311.25">,</text><path d="M2688.64 1263.53 2691.03 1263.53 2685.2 1289.55C2684.6 1292.2 2684.3 1294.2 2684.3 1295.55 2684.3 1296.63 2684.48 1297.41 2684.83 1297.9 2685.18 1298.38 2685.74 1298.63 2686.49 1298.63 2687.3 1298.63 2688.17 1298.3 2689.09 1297.63 2690 1296.97 2691.3 1295.71 2692.98 1293.84L2695.29 1296.11C2692.64 1298.9 2690.49 1300.79 2688.84 1301.79 2687.19 1302.79 2685.34 1303.29 2683.29 1303.29 2681.53 1303.29 2680.13 1302.65 2679.08 1301.36 2678.02 1300.08 2677.5 1298.44 2677.5 1296.44 2677.5 1294.38 2677.87 1291.76 2678.63 1288.58L2681.67 1275.32C2682.29 1272.62 2682.6 1270.6 2682.6 1269.24 2682.6 1268.03 2682.31 1267.2 2681.73 1266.77 2681.15 1266.34 2680.01 1266.1 2678.31 1266.04L2678.75 1263.89ZM2687.55 1248.01 2694.72 1248.01 2692.85 1255.87 2685.68 1255.87Z" fill="#FFFFFF" fill-rule="evenodd"/><text fill="#000000" fill-opacity="0" font-family="Arial,Arial_MSFontService,sans-serif" font-size="55.2793" x="2677.5" y="1296.38">𝑖</text><path d="M2714.26 1278.83 2716.4 1278.83 2711.16 1302 2712 1302C2712.75 1302 2713.56 1301.84 2714.44 1301.52 2715.31 1301.2 2716.18 1300.79 2717.04 1300.29 2717.91 1299.78 2718.74 1299.21 2719.53 1298.57 2720.33 1297.94 2721.03 1297.3 2721.63 1296.65 2722.24 1296.01 2722.72 1295.4 2723.08 1294.82 2723.43 1294.24 2723.61 1293.76 2723.61 1293.36 2723.61 1292.88 2723.45 1292.5 2723.14 1292.2 2722.82 1291.9 2722.24 1291.7 2721.41 1291.6L2721.77 1289.7 2732.49 1289.7 2733.23 1291.54C2731.98 1292.62 2730.78 1293.61 2729.63 1294.52 2728.48 1295.44 2727.35 1296.31 2726.25 1297.16 2725.15 1298 2724.04 1298.83 2722.94 1299.65 2721.84 1300.46 2720.71 1301.3 2719.56 1302.18 2720.04 1303.69 2720.52 1305.22 2721.02 1306.78 2721.52 1308.34 2722.01 1309.88 2722.51 1311.41 2722.75 1312.22 2722.97 1312.92 2723.18 1313.51 2723.39 1314.1 2723.61 1314.57 2723.85 1314.94 2724.09 1315.31 2724.35 1315.58 2724.62 1315.76 2724.9 1315.94 2725.24 1316.03 2725.64 1316.03 2725.92 1316.03 2726.2 1315.98 2726.5 1315.88 2726.8 1315.78 2727.13 1315.6 2727.5 1315.34 2727.87 1315.08 2728.28 1314.73 2728.75 1314.29 2729.22 1313.84 2729.75 1313.28 2730.34 1312.6L2732.37 1314.54C2731.44 1315.49 2730.57 1316.32 2729.76 1317.01 2728.96 1317.71 2728.19 1318.28 2727.47 1318.72 2726.74 1319.17 2726.04 1319.5 2725.37 1319.71 2724.69 1319.91 2724.01 1320.02 2723.31 1320.02 2722.06 1320.02 2721.06 1319.71 2720.29 1319.08 2719.53 1318.45 2718.88 1317.56 2718.34 1316.4 2717.8 1315.24 2717.31 1313.83 2716.87 1312.19 2716.42 1310.54 2715.9 1308.7 2715.3 1306.67 2715.16 1306.2 2715.03 1305.82 2714.9 1305.53 2714.77 1305.24 2714.61 1305.02 2714.41 1304.87 2714.21 1304.72 2713.96 1304.63 2713.66 1304.59 2713.37 1304.55 2712.99 1304.53 2712.53 1304.53L2710.63 1304.53 2707.35 1319.48 2701.63 1319.48 2708.84 1287.49C2709.08 1286.44 2709.25 1285.61 2709.34 1285.01 2709.44 1284.4 2709.49 1283.86 2709.49 1283.38 2709.49 1283.01 2709.43 1282.68 2709.3 1282.4 2709.17 1282.12 2708.96 1281.9 2708.66 1281.73 2708.36 1281.56 2707.96 1281.44 2707.47 1281.36 2706.97 1281.28 2706.36 1281.23 2705.62 1281.21L2706.07 1279.18Z" fill="#FFFFFF" fill-rule="evenodd"/><text fill="#000000" fill-opacity="0" font-family="Arial,Arial_MSFontService,sans-serif" font-size="41.1929" x="2701.63" y="1314.87">𝑘</text><path d="M2865.5 1185.5C2865.5 1160.65 2885.65 1140.5 2910.5 1140.5L3343.5 1140.5C3368.35 1140.5 3388.5 1160.65 3388.5 1185.5L3388.5 1365.5C3388.5 1390.35 3368.35 1410.5 3343.5 1410.5L2910.5 1410.5C2885.65 1410.5 2865.5 1390.35 2865.5 1365.5Z" stroke="#2F528F" stroke-width="4.58333" stroke-miterlimit="8" fill="#92D050" fill-rule="evenodd"/><text fill="#FFFFFF" font-family="DengXian,DengXian_MSFontService,sans-serif" font-weight="400" font-size="83" transform="matrix(1 0 0 1 3021.47 1303)">待选集</text><path d="M3297.75 1246.67C3300.23 1246.67 3302.53 1246.84 3304.66 1247.18 3306.78 1247.51 3309.12 1248.09 3311.69 1248.9L3309.42 1259.32 3305.53 1259.32C3305.42 1257.02 3305.07 1255.22 3304.47 1253.9 3303.88 1252.59 3303.03 1251.66 3301.92 1251.09 3300.81 1250.52 3299.34 1250.24 3297.5 1250.24 3295.26 1250.24 3293.29 1250.7 3291.59 1251.61 3289.88 1252.53 3288.59 1253.78 3287.69 1255.36 3286.8 1256.94 3286.36 1258.71 3286.36 1260.65 3286.36 1262.68 3286.89 1264.46 3287.96 1265.98 3289.03 1267.51 3291.07 1269.31 3294.1 1271.39 3296.75 1273.23 3298.77 1274.87 3300.16 1276.32 3301.55 1277.76 3302.57 1279.3 3303.24 1280.92 3303.9 1282.54 3304.23 1284.42 3304.23 1286.55 3304.23 1289.85 3303.44 1292.77 3301.86 1295.32 3300.28 1297.88 3298.05 1299.85 3295.17 1301.24 3292.29 1302.63 3289.02 1303.33 3285.34 1303.33 3282.86 1303.33 3280.18 1303.13 3277.3 1302.72 3274.42 1302.31 3271.85 1301.8 3269.58 1301.18L3272.01 1290.03 3275.9 1290.03C3275.9 1293.33 3276.66 1295.78 3278.19 1297.39 3279.72 1299 3282.07 1299.8 3285.26 1299.8 3288.94 1299.8 3291.83 1298.8 3293.94 1296.8 3296.04 1294.8 3297.1 1292.02 3297.1 1288.45 3297.1 1286.81 3296.81 1285.35 3296.23 1284.1 3295.64 1282.84 3294.77 1281.64 3293.59 1280.49 3292.42 1279.34 3290.72 1278.03 3288.51 1276.54 3286.51 1275.19 3284.84 1273.86 3283.52 1272.55 3282.2 1271.24 3281.14 1269.77 3280.36 1268.15 3279.58 1266.53 3279.18 1264.72 3279.18 1262.72 3279.18 1259.53 3279.95 1256.72 3281.49 1254.29 3283.03 1251.86 3285.21 1249.98 3288.02 1248.66 3290.83 1247.33 3294.07 1246.67 3297.75 1246.67Z" fill="#FFFFFF" fill-rule="evenodd"/><text fill="#000000" fill-opacity="0" font-family="Arial,Arial_MSFontService,sans-serif" font-size="56.6572" x="3269.58" y="1296.25">𝑆</text><path d="M3326.89 1240.86 3334.57 1240.86 3334.57 1243.19 3324.65 1267.04 3321.17 1266Z" fill="#FFFFFF" fill-rule="evenodd"/><text fill="#000000" fill-opacity="0" font-family="Arial,Arial_MSFontService,sans-serif" font-size="26.1812" x="3321.17" y="1263.77">′</text><path d="M3447.5 1182.67C3447.5 1157.72 3467.72 1137.5 3492.67 1137.5L3739.33 1137.5C3764.28 1137.5 3784.5 1157.72 3784.5 1182.67L3784.5 1363.33C3784.5 1388.28 3764.28 1408.5 3739.33 1408.5L3492.67 1408.5C3467.72 1408.5 3447.5 1388.28 3447.5 1363.33Z" stroke="#2F528F" stroke-width="4.58333" stroke-miterlimit="8" fill="#7030A0" fill-rule="evenodd"/><text fill="#FFFFFF" font-family="DengXian,DengXian_MSFontService,sans-serif" font-weight="400" font-size="83" transform="matrix(1 0 0 1 3532.69 1251)">冲突</text><text fill="#FFFFFF" font-family="DengXian,DengXian_MSFontService,sans-serif" font-weight="400" font-size="83" transform="matrix(1 0 0 1 3532.69 1350)">活动</text><path d="M2865.5 1162.83C2865.5 1150.5 2875.5 1140.5 2887.83 1140.5L2977.17 1140.5C2989.5 1140.5 2999.5 1150.5 2999.5 1162.83L2999.5 1386.17C2999.5 1398.5 2989.5 1408.5 2977.17 1408.5L2887.83 1408.5C2875.5 1408.5 2865.5 1398.5 2865.5 1386.17Z" stroke="#2F528F" stroke-width="4.58333" stroke-miterlimit="8" fill="#FFC000" fill-rule="evenodd"/><path d="M2914.88 1274.98 2910.18 1296.46C2911.31 1296.54 2913.04 1296.58 2915.36 1296.58 2918.71 1296.58 2921.37 1295.96 2923.33 1294.72 2925.29 1293.47 2926.74 1291.73 2927.68 1289.49 2928.63 1287.25 2929.1 1284.95 2929.1 1282.6 2929.1 1277.52 2926.23 1274.98 2920.47 1274.98ZM2924.93 1250.74C2923.04 1250.74 2921.44 1250.81 2920.15 1250.95L2915.89 1270.24 2922.21 1270.24C2924.59 1270.24 2926.66 1269.7 2928.43 1268.64 2930.2 1267.57 2931.56 1266.09 2932.51 1264.2 2933.45 1262.31 2933.93 1260.13 2933.93 1257.67 2933.93 1255.35 2933.2 1253.61 2931.74 1252.47 2930.28 1251.32 2928.01 1250.74 2924.93 1250.74ZM2904.54 1246 2927.81 1246C2932.56 1246 2936.27 1246.42 2938.93 1247.26 2941.59 1248.1 2943.52 1249.34 2944.71 1250.99 2945.89 1252.64 2946.49 1254.72 2946.49 1257.23 2946.49 1260.98 2945.46 1264.08 2943.39 1266.51 2941.32 1268.94 2937.99 1271.05 2933.4 1272.83L2933.32 1273.28C2935.86 1274.3 2937.82 1275.74 2939.21 1277.57 2940.61 1279.41 2941.3 1281.53 2941.3 1283.94 2941.3 1287.23 2940.51 1290.11 2938.93 1292.57 2937.35 1295.03 2934.83 1297.1 2931.37 1298.79 2927.91 1300.48 2922.59 1301.32 2915.4 1301.32L2893.4 1301.32 2893.97 1298.65C2895.51 1298.22 2896.64 1297.46 2897.37 1296.38 2898.1 1295.3 2898.79 1293.3 2899.44 1290.38L2906.81 1256.94C2907.16 1255.35 2907.34 1253.77 2907.34 1252.2 2907.34 1251.07 2907.08 1250.24 2906.55 1249.71 2906.02 1249.18 2905.16 1248.84 2903.98 1248.68Z" fill="#0D0D0D" fill-rule="evenodd"/><text fill="#000000" fill-opacity="0" font-family="Arial,Arial_MSFontService,sans-serif" font-size="55.3198" x="2893.4" y="1294.41">𝑩</text><path d="M2308.5 1042.41C2308.5 1022.03 2325.03 1005.5 2345.41 1005.5L2962.59 1005.5C2982.97 1005.5 2999.5 1022.03 2999.5 1042.41L2999.5 1373.59C2999.5 1393.97 2982.97 1410.5 2962.59 1410.5L2345.41 1410.5C2325.03 1410.5 2308.5 1393.97 2308.5 1373.59Z" stroke="#C00000" stroke-width="9.16667" stroke-linecap="round" stroke-linejoin="bevel" stroke-miterlimit="10" fill="none" fill-rule="evenodd"/><path d="M2375.56 1082.88 2370.85 1104.36C2371.99 1104.44 2373.72 1104.48 2376.04 1104.48 2379.39 1104.48 2382.05 1103.86 2384.01 1102.62 2385.96 1101.37 2387.42 1099.63 2388.36 1097.39 2389.31 1095.15 2389.78 1092.85 2389.78 1090.5 2389.78 1085.42 2386.9 1082.88 2381.15 1082.88ZM2385.61 1058.65C2383.72 1058.65 2382.12 1058.71 2380.82 1058.85L2376.57 1078.14 2382.89 1078.14C2385.27 1078.14 2387.34 1077.61 2389.11 1076.54 2390.88 1075.47 2392.24 1073.99 2393.19 1072.1 2394.13 1070.21 2394.6 1068.03 2394.6 1065.58 2394.6 1063.25 2393.87 1061.52 2392.42 1060.37 2390.96 1059.22 2388.69 1058.65 2385.61 1058.65ZM2365.22 1053.9 2388.48 1053.9C2393.24 1053.9 2396.95 1054.32 2399.61 1055.16 2402.27 1056 2404.2 1057.24 2405.38 1058.89 2406.57 1060.54 2407.17 1062.62 2407.17 1065.13 2407.17 1068.89 2406.13 1071.98 2404.07 1074.41 2402 1076.84 2398.67 1078.95 2394.08 1080.73L2394 1081.18C2396.54 1082.21 2398.5 1083.64 2399.89 1085.47 2401.28 1087.31 2401.98 1089.43 2401.98 1091.84 2401.98 1095.13 2401.19 1098.01 2399.61 1100.47 2398.03 1102.93 2395.51 1105 2392.05 1106.69 2388.59 1108.38 2383.27 1109.22 2376.08 1109.22L2354.08 1109.22 2354.64 1106.55C2356.18 1106.12 2357.32 1105.36 2358.05 1104.28 2358.78 1103.2 2359.47 1101.2 2360.12 1098.28L2367.49 1064.85C2367.84 1063.25 2368.02 1061.67 2368.02 1060.1 2368.02 1058.97 2367.75 1058.14 2367.23 1057.61 2366.7 1057.08 2365.84 1056.74 2364.65 1056.58Z" fill="#C00000" fill-rule="evenodd"/><text fill="#000000" fill-opacity="0" font-family="Arial,Arial_MSFontService,sans-serif" font-size="55.3198" x="2354.08" y="1102.31">𝑩</text><path d="M2436.17 1061.48 2442.73 1061.48 2442.73 1083.41C2442.73 1090.49 2444.12 1095.72 2446.89 1099.11 2449.66 1102.5 2453.34 1104.2 2457.93 1104.2 2462.52 1104.2 2466.21 1102.5 2468.99 1099.11 2471.78 1095.72 2473.17 1090.49 2473.17 1083.41L2473.17 1061.48 2479.73 1061.48 2479.73 1084.95C2479.73 1092.84 2477.78 1098.96 2473.86 1103.31 2469.94 1107.66 2464.63 1109.83 2457.93 1109.83 2451.23 1109.83 2445.93 1107.61 2442.02 1103.16 2438.12 1098.72 2436.17 1092.08 2436.17 1083.25Z" fill="#C00000" fill-rule="evenodd"/><text fill="#000000" fill-opacity="0" font-family="Arial,Arial_MSFontService,sans-serif" font-size="48.3491" x="2436.17" y="1103.79">∪</text><path d="M2532.82 1050.5 2533.87 1050.5 2533.87 1053.58 2533.26 1053.58C2529.34 1053.58 2526.28 1054.6 2524.06 1056.64 2521.85 1058.68 2520.74 1062.04 2520.74 1066.71 2520.74 1068.6 2521.01 1070.94 2521.55 1073.72 2522.09 1076.5 2522.36 1078.49 2522.36 1079.68 2522.36 1081.98 2521.68 1083.86 2520.33 1085.33 2518.98 1086.8 2517.37 1087.89 2515.51 1088.59L2515.51 1089.32C2517.37 1090.03 2518.98 1091.11 2520.33 1092.59 2521.68 1094.06 2522.36 1095.94 2522.36 1098.24 2522.36 1099.43 2522.09 1101.42 2521.55 1104.2 2521.01 1106.98 2520.74 1109.32 2520.74 1111.21 2520.74 1116.13 2521.85 1119.6 2524.06 1121.64 2526.28 1123.68 2529.34 1124.7 2533.26 1124.7L2533.87 1124.7 2533.87 1127.78 2532.82 1127.78C2526.47 1127.68 2521.72 1126.22 2518.57 1123.43 2515.42 1120.63 2513.85 1116.32 2513.85 1110.48 2513.85 1108.24 2514.17 1105.68 2514.8 1102.82 2515.44 1099.96 2515.75 1098.04 2515.75 1097.07 2515.75 1095.2 2515.11 1093.68 2513.83 1092.51 2512.54 1091.33 2510.61 1090.7 2508.01 1090.62L2508.01 1087.3C2510.61 1087.22 2512.54 1086.59 2513.83 1085.41 2515.11 1084.24 2515.75 1082.72 2515.75 1080.85 2515.75 1079.88 2515.44 1077.96 2514.8 1075.1 2514.17 1072.24 2513.85 1069.68 2513.85 1067.44 2513.85 1061.85 2515.42 1057.65 2518.57 1054.86 2521.72 1052.06 2526.47 1050.61 2532.82 1050.5Z" fill="#C00000" fill-rule="evenodd"/><text fill="#000000" fill-opacity="0" font-family="Arial,Arial_MSFontService,sans-serif" font-size="77.2856" x="2508.01" y="1118.12">{</text><path d="M2553.06 1070.11 2555.46 1070.11 2549.62 1096.13C2549.03 1098.78 2548.73 1100.78 2548.73 1102.13 2548.73 1103.21 2548.9 1104 2549.25 1104.48 2549.61 1104.97 2550.16 1105.21 2550.92 1105.21 2551.73 1105.21 2552.59 1104.88 2553.51 1104.22 2554.43 1103.56 2555.73 1102.29 2557.4 1100.43L2559.71 1102.7C2557.06 1105.48 2554.92 1107.37 2553.27 1108.37 2551.62 1109.37 2549.77 1109.87 2547.71 1109.87 2545.96 1109.87 2544.55 1109.23 2543.5 1107.95 2542.45 1106.66 2541.92 1105.02 2541.92 1103.02 2541.92 1100.97 2542.3 1098.35 2543.05 1095.16L2546.09 1081.91C2546.72 1079.21 2547.03 1077.18 2547.03 1075.83 2547.03 1074.61 2546.74 1073.79 2546.15 1073.36 2545.57 1072.92 2544.43 1072.68 2542.73 1072.63L2543.18 1070.48ZM2551.97 1054.59 2559.14 1054.59 2557.28 1062.45 2550.11 1062.45Z" fill="#C00000" fill-rule="evenodd"/><text fill="#000000" fill-opacity="0" font-family="Arial,Arial_MSFontService,sans-serif" font-size="55.2793" x="2541.92" y="1102.96">𝑖</text><path d="M2580.8 1087.7 2582.62 1087.7C2582.58 1088.8 2582.55 1089.77 2582.53 1090.64 2582.51 1091.5 2582.5 1092.34 2582.49 1093.15 2582.48 1093.97 2582.47 1094.77 2582.47 1095.57L2582.47 1118.2C2582.47 1118.82 2582.49 1119.35 2582.53 1119.8 2582.57 1120.24 2582.63 1120.62 2582.72 1120.93 2582.81 1121.24 2582.93 1121.5 2583.08 1121.72 2583.23 1121.94 2583.4 1122.13 2583.6 1122.28 2583.84 1122.52 2584.16 1122.71 2584.56 1122.84 2584.95 1122.96 2585.46 1123.07 2586.07 1123.16 2586.69 1123.25 2587.43 1123.32 2588.29 1123.37 2589.16 1123.42 2590.2 1123.46 2591.41 1123.48L2591.41 1126.07 2567.79 1126.07 2567.79 1123.48C2568.96 1123.44 2569.95 1123.39 2570.77 1123.34 2571.58 1123.29 2572.27 1123.22 2572.85 1123.13 2573.43 1123.04 2573.89 1122.94 2574.24 1122.84 2574.58 1122.73 2574.89 1122.59 2575.14 1122.43 2575.42 1122.25 2575.66 1122.06 2575.86 1121.85 2576.06 1121.64 2576.22 1121.38 2576.33 1121.06 2576.45 1120.75 2576.55 1120.36 2576.62 1119.9 2576.69 1119.44 2576.72 1118.88 2576.72 1118.2L2576.72 1096.85C2576.72 1096.07 2576.57 1095.53 2576.28 1095.21 2575.98 1094.89 2575.55 1094.73 2574.99 1094.73 2574.38 1094.73 2573.47 1095.05 2572.25 1095.69 2571.04 1096.32 2569.47 1097.26 2567.55 1098.52 2567.29 1098.06 2567.05 1097.6 2566.83 1097.15 2566.61 1096.69 2566.39 1096.22 2566.15 1095.75 2568.61 1094.4 2571.05 1093.05 2573.46 1091.71 2575.87 1090.37 2578.32 1089.03 2580.8 1087.7Z" fill="#C00000" fill-rule="evenodd"/><text fill="#000000" fill-opacity="0" font-family="Arial,Arial_MSFontService,sans-serif" font-size="38.3633" x="2566.15" y="1121.27">1</text><path d="M2604.49 1099.82 2611.58 1099.82C2611.96 1101.71 2612.15 1103.58 2612.15 1105.41 2612.15 1107.3 2611.83 1109.03 2611.18 1110.6 2610.53 1112.17 2609.5 1113.73 2608.08 1115.28 2606.66 1116.84 2604.71 1118.54 2602.22 1120.41L2600.03 1117.94C2601.41 1116.64 2602.41 1115.47 2603.03 1114.43 2603.65 1113.39 2604.1 1112.21 2604.37 1110.88 2604.64 1109.56 2604.77 1107.9 2604.77 1105.9 2604.77 1103.85 2604.68 1101.82 2604.49 1099.82Z" fill="#C00000" fill-rule="evenodd"/><text fill="#000000" fill-opacity="0" font-family="Arial,Arial_MSFontService,sans-serif" font-size="20.5879" x="2600.03" y="1117.84">,</text><path d="M2646.82 1070.11 2649.21 1070.11 2643.37 1096.13C2642.78 1098.78 2642.48 1100.78 2642.48 1102.13 2642.48 1103.21 2642.66 1104 2643.01 1104.48 2643.36 1104.97 2643.91 1105.21 2644.67 1105.21 2645.48 1105.21 2646.34 1104.88 2647.26 1104.22 2648.18 1103.56 2649.48 1102.29 2651.15 1100.43L2653.46 1102.7C2650.82 1105.48 2648.67 1107.37 2647.02 1108.37 2645.37 1109.37 2643.52 1109.87 2641.47 1109.87 2639.71 1109.87 2638.31 1109.23 2637.25 1107.95 2636.2 1106.66 2635.67 1105.02 2635.67 1103.02 2635.67 1100.97 2636.05 1098.35 2636.81 1095.16L2639.85 1081.91C2640.47 1079.21 2640.78 1077.18 2640.78 1075.83 2640.78 1074.61 2640.49 1073.79 2639.91 1073.36 2639.33 1072.92 2638.18 1072.68 2636.48 1072.63L2636.93 1070.48ZM2645.72 1054.59 2652.9 1054.59 2651.03 1062.45 2643.86 1062.45Z" fill="#C00000" fill-rule="evenodd"/><text fill="#000000" fill-opacity="0" font-family="Arial,Arial_MSFontService,sans-serif" font-size="55.2793" x="2635.67" y="1102.96">𝑖</text><path d="M2674.13 1087.5C2676.2 1087.5 2677.96 1087.73 2679.42 1088.2 2680.88 1088.66 2682.07 1089.29 2682.98 1090.09 2683.89 1090.88 2684.55 1091.83 2684.96 1092.95 2685.37 1094.06 2685.57 1095.26 2685.57 1096.55 2685.57 1097.32 2685.52 1098.04 2685.41 1098.71 2685.3 1099.37 2685.11 1100.03 2684.84 1100.68 2684.57 1101.32 2684.22 1101.97 2683.78 1102.63 2683.35 1103.28 2682.8 1103.98 2682.15 1104.71 2681.65 1105.35 2681 1106.08 2680.21 1106.92 2679.42 1107.75 2678.55 1108.64 2677.6 1109.6 2676.66 1110.55 2675.67 1111.54 2674.64 1112.57 2673.61 1113.61 2672.6 1114.63 2671.63 1115.64 2670.66 1116.65 2669.77 1117.64 2668.95 1118.59 2668.14 1119.54 2667.47 1120.42 2666.96 1121.21L2677.98 1121.21C2678.91 1121.21 2679.65 1121.18 2680.21 1121.11 2680.77 1121.04 2681.23 1120.88 2681.59 1120.65 2681.96 1120.41 2682.27 1120.05 2682.53 1119.56 2682.79 1119.07 2683.09 1118.4 2683.43 1117.55L2686.2 1117.55C2686.1 1118.96 2686 1120.38 2685.91 1121.81 2685.82 1123.24 2685.73 1124.66 2685.63 1126.07L2660.4 1126.07 2660.4 1124.52C2660.88 1123.45 2661.44 1122.39 2662.07 1121.35 2662.71 1120.3 2663.42 1119.25 2664.22 1118.17 2665.01 1117.1 2665.91 1115.99 2666.93 1114.85 2667.94 1113.71 2669.06 1112.52 2670.29 1111.29 2672.16 1109.43 2673.68 1107.83 2674.85 1106.51 2676.02 1105.19 2676.94 1104.02 2677.62 1102.98 2678.29 1101.95 2678.76 1101 2679 1100.12 2679.25 1099.25 2679.38 1098.32 2679.38 1097.32 2679.38 1096.31 2679.23 1095.38 2678.94 1094.52 2678.66 1093.67 2678.24 1092.95 2677.71 1092.35 2677.17 1091.75 2676.49 1091.29 2675.67 1090.95 2674.84 1090.61 2673.9 1090.44 2672.82 1090.44 2670.98 1090.44 2669.43 1090.95 2668.18 1091.95 2666.93 1092.95 2665.95 1094.41 2665.26 1096.31L2661.36 1096.31 2661.36 1090.5C2663.9 1089.45 2666.24 1088.69 2668.37 1088.21 2670.5 1087.73 2672.43 1087.5 2674.13 1087.5Z" fill="#C00000" fill-rule="evenodd"/><text fill="#000000" fill-opacity="0" font-family="Arial,Arial_MSFontService,sans-serif" font-size="38.5718" x="2660.4" y="1121.25">2</text><path d="M2700.15 1099.82 2707.24 1099.82C2707.62 1101.71 2707.8 1103.58 2707.8 1105.41 2707.8 1107.3 2707.48 1109.03 2706.83 1110.6 2706.18 1112.17 2705.15 1113.73 2703.73 1115.28 2702.31 1116.84 2700.36 1118.54 2697.88 1120.41L2695.69 1117.94C2697.06 1116.64 2698.06 1115.47 2698.69 1114.43 2699.31 1113.39 2699.75 1112.21 2700.02 1110.88 2700.29 1109.56 2700.43 1107.9 2700.43 1105.9 2700.43 1103.85 2700.33 1101.82 2700.15 1099.82Z" fill="#C00000" fill-rule="evenodd"/><text fill="#000000" fill-opacity="0" font-family="Arial,Arial_MSFontService,sans-serif" font-size="20.5879" x="2695.69" y="1117.84">,</text><path d="M2775.46 1099.82 2783.65 1099.82 2783.65 1109.22 2775.46 1109.22ZM2755.6 1099.82 2763.79 1099.82 2763.79 1109.22 2755.6 1109.22ZM2735.74 1099.82 2743.93 1099.82 2743.93 1109.22 2735.74 1109.22Z" fill="#C00000" fill-rule="evenodd"/><text fill="#000000" fill-opacity="0" font-family="Arial,Arial_MSFontService,sans-serif" font-size="9.40234" x="2735.74" y="1108.05">…</text><path d="M2806.71 1099.82 2813.8 1099.82C2814.18 1101.71 2814.37 1103.58 2814.37 1105.41 2814.37 1107.3 2814.04 1109.03 2813.39 1110.6 2812.75 1112.17 2811.71 1113.73 2810.29 1115.28 2808.88 1116.84 2806.92 1118.54 2804.44 1120.41L2802.25 1117.94C2803.63 1116.64 2804.63 1115.47 2805.25 1114.43 2805.87 1113.39 2806.32 1112.21 2806.59 1110.88 2806.86 1109.56 2806.99 1107.9 2806.99 1105.9 2806.99 1103.85 2806.9 1101.82 2806.71 1099.82Z" fill="#C00000" fill-rule="evenodd"/><text fill="#000000" fill-opacity="0" font-family="Arial,Arial_MSFontService,sans-serif" font-size="20.5879" x="2802.25" y="1117.84">,</text><path d="M2849.03 1070.11 2851.42 1070.11 2845.59 1096.13C2844.99 1098.78 2844.7 1100.78 2844.7 1102.13 2844.7 1103.21 2844.87 1104 2845.22 1104.48 2845.57 1104.97 2846.13 1105.21 2846.89 1105.21 2847.7 1105.21 2848.56 1104.88 2849.48 1104.22 2850.4 1103.56 2851.69 1102.29 2853.37 1100.43L2855.68 1102.7C2853.03 1105.48 2850.88 1107.37 2849.24 1108.37 2847.59 1109.37 2845.74 1109.87 2843.68 1109.87 2841.93 1109.87 2840.52 1109.23 2839.47 1107.95 2838.42 1106.66 2837.89 1105.02 2837.89 1103.02 2837.89 1100.97 2838.27 1098.35 2839.02 1095.16L2842.06 1081.91C2842.68 1079.21 2842.99 1077.18 2842.99 1075.83 2842.99 1074.61 2842.7 1073.79 2842.12 1073.36 2841.54 1072.92 2840.4 1072.68 2838.7 1072.63L2839.14 1070.48ZM2847.94 1054.59 2855.11 1054.59 2853.25 1062.45 2846.07 1062.45Z" fill="#C00000" fill-rule="evenodd"/><text fill="#000000" fill-opacity="0" font-family="Arial,Arial_MSFontService,sans-serif" font-size="55.2793" x="2837.89" y="1102.96">𝑖</text><path d="M2874.65 1085.41 2876.8 1085.41 2871.55 1108.58 2872.39 1108.58C2873.14 1108.58 2873.96 1108.42 2874.83 1108.11 2875.71 1107.79 2876.57 1107.38 2877.44 1106.87 2878.3 1106.36 2879.13 1105.79 2879.92 1105.16 2880.72 1104.52 2881.42 1103.88 2882.02 1103.24 2882.63 1102.59 2883.11 1101.98 2883.47 1101.4 2883.83 1100.83 2884.01 1100.34 2884.01 1099.95 2884.01 1099.47 2883.85 1099.08 2883.53 1098.78 2883.21 1098.49 2882.64 1098.29 2881.8 1098.19L2882.16 1096.28 2892.88 1096.28 2893.63 1098.13C2892.37 1099.2 2891.17 1100.19 2890.02 1101.11 2888.87 1102.02 2887.74 1102.9 2886.64 1103.74 2885.54 1104.59 2884.44 1105.42 2883.33 1106.23 2882.23 1107.04 2881.11 1107.89 2879.95 1108.76 2880.43 1110.27 2880.92 1111.8 2881.41 1113.36 2881.91 1114.92 2882.41 1116.47 2882.9 1118 2883.14 1118.81 2883.36 1119.51 2883.57 1120.1 2883.78 1120.68 2884.01 1121.16 2884.24 1121.52 2884.48 1121.89 2884.74 1122.17 2885.02 1122.34 2885.3 1122.52 2885.63 1122.61 2886.03 1122.61 2886.31 1122.61 2886.6 1122.56 2886.89 1122.46 2887.19 1122.36 2887.52 1122.19 2887.89 1121.93 2888.26 1121.67 2888.68 1121.32 2889.14 1120.87 2889.61 1120.42 2890.14 1119.86 2890.74 1119.19L2892.76 1121.12C2891.83 1122.08 2890.96 1122.9 2890.16 1123.59 2889.35 1124.29 2888.59 1124.86 2887.86 1125.31 2887.14 1125.75 2886.44 1126.08 2885.76 1126.29 2885.09 1126.5 2884.4 1126.6 2883.71 1126.6 2882.46 1126.6 2881.45 1126.29 2880.68 1125.66 2879.92 1125.04 2879.27 1124.15 2878.73 1122.98 2878.2 1121.82 2877.71 1120.42 2877.26 1118.77 2876.81 1117.12 2876.29 1115.28 2875.7 1113.26 2875.56 1112.78 2875.42 1112.4 2875.29 1112.11 2875.16 1111.82 2875 1111.61 2874.8 1111.46 2874.6 1111.31 2874.35 1111.21 2874.06 1111.17 2873.76 1111.13 2873.38 1111.11 2872.93 1111.11L2871.02 1111.11 2867.74 1126.07 2862.02 1126.07 2869.23 1094.08C2869.47 1093.03 2869.64 1092.2 2869.74 1091.59 2869.84 1090.99 2869.89 1090.44 2869.89 1089.97 2869.89 1089.59 2869.82 1089.26 2869.69 1088.98 2869.56 1088.71 2869.35 1088.48 2869.05 1088.31 2868.76 1088.15 2868.36 1088.02 2867.86 1087.94 2867.37 1087.86 2866.75 1087.81 2866.01 1087.79L2866.46 1085.77Z" fill="#C00000" fill-rule="evenodd"/><text fill="#000000" fill-opacity="0" font-family="Arial,Arial_MSFontService,sans-serif" font-size="41.1929" x="2862.02" y="1121.45">𝑘</text><path d="M2902.85 1050.5 2903.9 1050.5C2910.25 1050.61 2915 1052.06 2918.15 1054.86 2921.29 1057.65 2922.87 1061.86 2922.87 1067.48 2922.87 1069.72 2922.55 1072.28 2921.91 1075.14 2921.28 1078 2920.96 1079.92 2920.96 1080.89 2920.96 1082.76 2921.6 1084.28 2922.89 1085.45 2924.17 1086.63 2926.11 1087.26 2928.7 1087.34L2928.7 1090.66C2926.11 1090.74 2924.17 1091.37 2922.89 1092.55 2921.6 1093.72 2920.96 1095.24 2920.96 1097.11 2920.96 1098.08 2921.28 1100 2921.91 1102.86 2922.55 1105.72 2922.87 1108.28 2922.87 1110.52 2922.87 1116.33 2921.29 1120.63 2918.15 1123.43 2915 1126.22 2910.25 1127.68 2903.9 1127.78L2902.85 1127.78 2902.85 1124.7 2903.45 1124.7C2907.37 1124.7 2910.44 1123.68 2912.65 1121.64 2914.87 1119.6 2915.98 1116.14 2915.98 1111.25 2915.98 1109.36 2915.71 1107.02 2915.17 1104.24 2914.63 1101.46 2914.36 1099.47 2914.36 1098.28 2914.36 1095.98 2915.03 1094.1 2916.38 1092.63 2917.73 1091.15 2919.34 1090.07 2921.2 1089.36L2921.2 1088.64C2919.34 1087.93 2917.73 1086.85 2916.38 1085.37 2915.03 1083.9 2914.36 1082.02 2914.36 1079.72 2914.36 1078.53 2914.63 1076.54 2915.17 1073.76 2915.71 1070.98 2915.98 1068.64 2915.98 1066.75 2915.98 1062.05 2914.87 1058.68 2912.65 1056.64 2910.44 1054.6 2907.37 1053.58 2903.45 1053.58L2902.85 1053.58Z" fill="#C00000" fill-rule="evenodd"/><text fill="#000000" fill-opacity="0" font-family="Arial,Arial_MSFontService,sans-serif" font-size="77.2856" x="2902.85" y="1118.12">}</text></g></svg>