<?xml version="1.0" encoding="utf-8" standalone="no"?>
<!DOCTYPE svg PUBLIC "-//W3C//DTD SVG 1.1//EN"
  "http://www.w3.org/Graphics/SVG/1.1/DTD/svg11.dtd">
<svg xmlns:xlink="http://www.w3.org/1999/xlink" width="533.6875pt" height="560.46875pt" viewBox="0 0 533.6875 560.46875" xmlns="http://www.w3.org/2000/svg" version="1.1">
 <metadata>
  <rdf:RDF xmlns:dc="http://purl.org/dc/elements/1.1/" xmlns:cc="http://creativecommons.org/ns#" xmlns:rdf="http://www.w3.org/1999/02/22-rdf-syntax-ns#">
   <cc:Work>
    <dc:type rdf:resource="http://purl.org/dc/dcmitype/StillImage"/>
    <dc:date>2025-06-25T12:47:23.082621</dc:date>
    <dc:format>image/svg+xml</dc:format>
    <dc:creator>
     <cc:Agent>
      <dc:title>Matplotlib v3.10.1, https://matplotlib.org/</dc:title>
     </cc:Agent>
    </dc:creator>
   </cc:Work>
  </rdf:RDF>
 </metadata>
 <defs>
  <style type="text/css">*{stroke-linejoin: round; stroke-linecap: butt}</style>
 </defs>
 <g id="figure_1">
  <g id="patch_1">
   <path d="M 0 560.46875 
L 533.6875 560.46875 
L 533.6875 0 
L 0 0 
z
" style="fill: #ffffff"/>
  </g>
  <g id="axes_1">
   <g id="patch_2">
    <path d="M 21.2 534.89375 
L 526.4875 534.89375 
L 526.4875 29.60625 
L 21.2 29.60625 
z
" style="fill: #ffffff"/>
   </g>
   <g id="patch_3">
    <path d="M 98.936538 457.157212 
L 98.936538 223.947596 
L 409.882692 379.420673 
z
" clip-path="url(#p6be7b4416a)" style="fill: #ffff00; opacity: 0.7; stroke: #ffff00; stroke-linejoin: miter"/>
   </g>
   <g id="patch_4">
    <path d="M 98.936538 457.157212 
L 409.882692 379.420673 
L 409.882692 223.947596 
L 98.936538 223.947596 
z
" clip-path="url(#p6be7b4416a)" style="fill: url(#h8310def60f); opacity: 0.5; stroke: #0000ff; stroke-linejoin: miter"/>
   </g>
   <g id="matplotlib.axis_1">
    <g id="xtick_1">
     <g id="line2d_1">
      <path d="M 21.2 534.89375 
L 21.2 29.60625 
" clip-path="url(#p6be7b4416a)" style="fill: none; stroke: #b0b0b0; stroke-opacity: 0.3; stroke-width: 0.8; stroke-linecap: square"/>
     </g>
     <g id="line2d_2">
      <defs>
       <path id="m1980e3458b" d="M 0 0 
L 0 3.5 
" style="stroke: #000000; stroke-width: 0.8"/>
      </defs>
      <g>
       <use xlink:href="#m1980e3458b" x="21.2" y="534.89375" style="stroke: #000000; stroke-width: 0.8"/>
      </g>
     </g>
     <g id="text_1">
      <!-- 0 -->
      <g transform="translate(17.7 551.51875) scale(0.14 -0.14)">
       <defs>
        <path id="SimHei-30" d="M 225 2537 
Q 250 3200 412 3587 
Q 575 3975 875 4225 
Q 1175 4475 1612 4475 
Q 2050 4475 2375 4112 
Q 2700 3750 2800 3200 
Q 2900 2650 2862 1937 
Q 2825 1225 2612 775 
Q 2400 325 1975 150 
Q 1550 -25 1125 187 
Q 700 400 525 750 
Q 350 1100 275 1487 
Q 200 1875 225 2537 
z
M 750 2687 
Q 675 2000 800 1462 
Q 925 925 1212 700 
Q 1500 475 1800 612 
Q 2100 750 2237 1162 
Q 2375 1575 2375 2062 
Q 2375 2550 2337 2950 
Q 2300 3350 2112 3675 
Q 1925 4000 1612 4012 
Q 1300 4025 1062 3700 
Q 825 3375 750 2687 
z
" transform="scale(0.015625)"/>
       </defs>
       <use xlink:href="#SimHei-30"/>
      </g>
     </g>
    </g>
    <g id="xtick_2">
     <g id="line2d_3">
      <path d="M 98.936538 534.89375 
L 98.936538 29.60625 
" clip-path="url(#p6be7b4416a)" style="fill: none; stroke: #b0b0b0; stroke-opacity: 0.3; stroke-width: 0.8; stroke-linecap: square"/>
     </g>
     <g id="line2d_4">
      <g>
       <use xlink:href="#m1980e3458b" x="98.936538" y="534.89375" style="stroke: #000000; stroke-width: 0.8"/>
      </g>
     </g>
     <g id="text_2">
      <!-- 1 -->
      <g transform="translate(95.436538 551.51875) scale(0.14 -0.14)">
       <defs>
        <path id="SimHei-31" d="M 1400 3600 
Q 1075 3275 575 2975 
L 575 3450 
Q 1200 3875 1600 4450 
L 1900 4450 
L 1900 150 
L 1400 150 
L 1400 3600 
z
" transform="scale(0.015625)"/>
       </defs>
       <use xlink:href="#SimHei-31"/>
      </g>
     </g>
    </g>
    <g id="xtick_3">
     <g id="line2d_5">
      <path d="M 176.673077 534.89375 
L 176.673077 29.60625 
" clip-path="url(#p6be7b4416a)" style="fill: none; stroke: #b0b0b0; stroke-opacity: 0.3; stroke-width: 0.8; stroke-linecap: square"/>
     </g>
     <g id="line2d_6">
      <g>
       <use xlink:href="#m1980e3458b" x="176.673077" y="534.89375" style="stroke: #000000; stroke-width: 0.8"/>
      </g>
     </g>
     <g id="text_3">
      <!-- 2 -->
      <g transform="translate(173.173077 551.51875) scale(0.14 -0.14)">
       <defs>
        <path id="SimHei-32" d="M 300 250 
Q 325 625 650 925 
Q 975 1225 1475 1862 
Q 1975 2500 2125 2850 
Q 2275 3200 2237 3450 
Q 2200 3700 2000 3862 
Q 1800 4025 1537 4000 
Q 1275 3975 1037 3800 
Q 800 3625 675 3275 
L 200 3350 
Q 400 3925 712 4187 
Q 1025 4450 1450 4475 
Q 1700 4500 1900 4462 
Q 2100 4425 2312 4287 
Q 2525 4150 2662 3875 
Q 2800 3600 2762 3212 
Q 2725 2825 2375 2287 
Q 2025 1750 1025 600 
L 2825 600 
L 2825 150 
L 300 150 
L 300 250 
z
" transform="scale(0.015625)"/>
       </defs>
       <use xlink:href="#SimHei-32"/>
      </g>
     </g>
    </g>
    <g id="xtick_4">
     <g id="line2d_7">
      <path d="M 254.409615 534.89375 
L 254.409615 29.60625 
" clip-path="url(#p6be7b4416a)" style="fill: none; stroke: #b0b0b0; stroke-opacity: 0.3; stroke-width: 0.8; stroke-linecap: square"/>
     </g>
     <g id="line2d_8">
      <g>
       <use xlink:href="#m1980e3458b" x="254.409615" y="534.89375" style="stroke: #000000; stroke-width: 0.8"/>
      </g>
     </g>
     <g id="text_4">
      <!-- 3 -->
      <g transform="translate(250.909615 551.51875) scale(0.14 -0.14)">
       <defs>
        <path id="SimHei-33" d="M 250 1225 
L 700 1300 
Q 800 975 1025 762 
Q 1250 550 1587 562 
Q 1925 575 2125 837 
Q 2325 1100 2300 1437 
Q 2275 1775 2037 1962 
Q 1800 2150 1275 2225 
L 1275 2550 
Q 1800 2600 2037 2825 
Q 2275 3050 2250 3412 
Q 2225 3775 1925 3937 
Q 1625 4100 1287 3975 
Q 950 3850 750 3275 
L 300 3350 
Q 450 3800 712 4100 
Q 975 4400 1425 4450 
Q 1875 4500 2212 4337 
Q 2550 4175 2687 3837 
Q 2825 3500 2725 3100 
Q 2625 2700 2150 2400 
Q 2500 2250 2687 1950 
Q 2875 1650 2812 1162 
Q 2750 675 2375 375 
Q 2000 75 1525 87 
Q 1050 100 700 387 
Q 350 675 250 1225 
z
" transform="scale(0.015625)"/>
       </defs>
       <use xlink:href="#SimHei-33"/>
      </g>
     </g>
    </g>
    <g id="xtick_5">
     <g id="line2d_9">
      <path d="M 332.146154 534.89375 
L 332.146154 29.60625 
" clip-path="url(#p6be7b4416a)" style="fill: none; stroke: #b0b0b0; stroke-opacity: 0.3; stroke-width: 0.8; stroke-linecap: square"/>
     </g>
     <g id="line2d_10">
      <g>
       <use xlink:href="#m1980e3458b" x="332.146154" y="534.89375" style="stroke: #000000; stroke-width: 0.8"/>
      </g>
     </g>
     <g id="text_5">
      <!-- 4 -->
      <g transform="translate(328.646154 551.51875) scale(0.14 -0.14)">
       <defs>
        <path id="SimHei-34" d="M 2000 1100 
L 75 1100 
L 75 1525 
L 2100 4450 
L 2475 4450 
L 2475 1525 
L 3075 1525 
L 3075 1100 
L 2475 1100 
L 2475 150 
L 2000 150 
L 2000 1100 
z
M 2000 1525 
L 2000 3500 
L 600 1525 
L 2000 1525 
z
" transform="scale(0.015625)"/>
       </defs>
       <use xlink:href="#SimHei-34"/>
      </g>
     </g>
    </g>
    <g id="xtick_6">
     <g id="line2d_11">
      <path d="M 409.882692 534.89375 
L 409.882692 29.60625 
" clip-path="url(#p6be7b4416a)" style="fill: none; stroke: #b0b0b0; stroke-opacity: 0.3; stroke-width: 0.8; stroke-linecap: square"/>
     </g>
     <g id="line2d_12">
      <g>
       <use xlink:href="#m1980e3458b" x="409.882692" y="534.89375" style="stroke: #000000; stroke-width: 0.8"/>
      </g>
     </g>
     <g id="text_6">
      <!-- 5 -->
      <g transform="translate(406.382692 551.51875) scale(0.14 -0.14)">
       <defs>
        <path id="SimHei-35" d="M 550 1325 
Q 725 650 1150 575 
Q 1575 500 1837 662 
Q 2100 825 2212 1087 
Q 2325 1350 2312 1675 
Q 2300 2000 2137 2225 
Q 1975 2450 1725 2525 
Q 1475 2600 1162 2525 
Q 850 2450 650 2175 
L 225 2225 
Q 275 2375 700 4375 
L 2675 4375 
L 2675 3925 
L 1075 3925 
Q 950 3250 825 2850 
Q 1200 3025 1525 3012 
Q 1850 3000 2150 2862 
Q 2450 2725 2587 2487 
Q 2725 2250 2787 2012 
Q 2850 1775 2837 1500 
Q 2825 1225 2725 937 
Q 2625 650 2425 462 
Q 2225 275 1937 162 
Q 1650 50 1275 75 
Q 900 100 562 350 
Q 225 600 100 1200 
L 550 1325 
z
" transform="scale(0.015625)"/>
       </defs>
       <use xlink:href="#SimHei-35"/>
      </g>
     </g>
    </g>
    <g id="xtick_7">
     <g id="line2d_13">
      <path d="M 487.619231 534.89375 
L 487.619231 29.60625 
" clip-path="url(#p6be7b4416a)" style="fill: none; stroke: #b0b0b0; stroke-opacity: 0.3; stroke-width: 0.8; stroke-linecap: square"/>
     </g>
     <g id="line2d_14">
      <g>
       <use xlink:href="#m1980e3458b" x="487.619231" y="534.89375" style="stroke: #000000; stroke-width: 0.8"/>
      </g>
     </g>
     <g id="text_7">
      <!-- 6 -->
      <g transform="translate(484.119231 551.51875) scale(0.14 -0.14)">
       <defs>
        <path id="SimHei-36" d="M 250 1612 
Q 275 1975 387 2225 
Q 500 2475 725 2850 
L 1750 4450 
L 2325 4450 
L 1275 2800 
Q 1950 2975 2350 2750 
Q 2750 2525 2887 2237 
Q 3025 1950 3037 1612 
Q 3050 1275 2937 950 
Q 2825 625 2537 362 
Q 2250 100 1737 75 
Q 1225 50 862 262 
Q 500 475 362 862 
Q 225 1250 250 1612 
z
M 1025 787 
Q 1250 550 1625 525 
Q 2000 500 2250 775 
Q 2500 1050 2500 1575 
Q 2500 2100 2187 2300 
Q 1875 2500 1487 2450 
Q 1100 2400 925 2075 
Q 750 1750 775 1387 
Q 800 1025 1025 787 
z
" transform="scale(0.015625)"/>
       </defs>
       <use xlink:href="#SimHei-36"/>
      </g>
     </g>
    </g>
   </g>
   <g id="matplotlib.axis_2">
    <g id="ytick_1">
     <g id="line2d_15">
      <path d="M 21.2 534.89375 
L 526.4875 534.89375 
" clip-path="url(#p6be7b4416a)" style="fill: none; stroke: #b0b0b0; stroke-opacity: 0.3; stroke-width: 0.8; stroke-linecap: square"/>
     </g>
     <g id="line2d_16">
      <defs>
       <path id="mb9c090b124" d="M 0 0 
L -3.5 0 
" style="stroke: #000000; stroke-width: 0.8"/>
      </defs>
      <g>
       <use xlink:href="#mb9c090b124" x="21.2" y="534.89375" style="stroke: #000000; stroke-width: 0.8"/>
      </g>
     </g>
     <g id="text_8">
      <!-- 0 -->
      <g transform="translate(7.2 539.70625) scale(0.14 -0.14)">
       <use xlink:href="#SimHei-30"/>
      </g>
     </g>
    </g>
    <g id="ytick_2">
     <g id="line2d_17">
      <path d="M 21.2 457.157212 
L 526.4875 457.157212 
" clip-path="url(#p6be7b4416a)" style="fill: none; stroke: #b0b0b0; stroke-opacity: 0.3; stroke-width: 0.8; stroke-linecap: square"/>
     </g>
     <g id="line2d_18">
      <g>
       <use xlink:href="#mb9c090b124" x="21.2" y="457.157212" style="stroke: #000000; stroke-width: 0.8"/>
      </g>
     </g>
     <g id="text_9">
      <!-- 1 -->
      <g transform="translate(7.2 461.969712) scale(0.14 -0.14)">
       <use xlink:href="#SimHei-31"/>
      </g>
     </g>
    </g>
    <g id="ytick_3">
     <g id="line2d_19">
      <path d="M 21.2 379.420673 
L 526.4875 379.420673 
" clip-path="url(#p6be7b4416a)" style="fill: none; stroke: #b0b0b0; stroke-opacity: 0.3; stroke-width: 0.8; stroke-linecap: square"/>
     </g>
     <g id="line2d_20">
      <g>
       <use xlink:href="#mb9c090b124" x="21.2" y="379.420673" style="stroke: #000000; stroke-width: 0.8"/>
      </g>
     </g>
     <g id="text_10">
      <!-- 2 -->
      <g transform="translate(7.2 384.233173) scale(0.14 -0.14)">
       <use xlink:href="#SimHei-32"/>
      </g>
     </g>
    </g>
    <g id="ytick_4">
     <g id="line2d_21">
      <path d="M 21.2 301.684135 
L 526.4875 301.684135 
" clip-path="url(#p6be7b4416a)" style="fill: none; stroke: #b0b0b0; stroke-opacity: 0.3; stroke-width: 0.8; stroke-linecap: square"/>
     </g>
     <g id="line2d_22">
      <g>
       <use xlink:href="#mb9c090b124" x="21.2" y="301.684135" style="stroke: #000000; stroke-width: 0.8"/>
      </g>
     </g>
     <g id="text_11">
      <!-- 3 -->
      <g transform="translate(7.2 306.496635) scale(0.14 -0.14)">
       <use xlink:href="#SimHei-33"/>
      </g>
     </g>
    </g>
    <g id="ytick_5">
     <g id="line2d_23">
      <path d="M 21.2 223.947596 
L 526.4875 223.947596 
" clip-path="url(#p6be7b4416a)" style="fill: none; stroke: #b0b0b0; stroke-opacity: 0.3; stroke-width: 0.8; stroke-linecap: square"/>
     </g>
     <g id="line2d_24">
      <g>
       <use xlink:href="#mb9c090b124" x="21.2" y="223.947596" style="stroke: #000000; stroke-width: 0.8"/>
      </g>
     </g>
     <g id="text_12">
      <!-- 4 -->
      <g transform="translate(7.2 228.760096) scale(0.14 -0.14)">
       <use xlink:href="#SimHei-34"/>
      </g>
     </g>
    </g>
    <g id="ytick_6">
     <g id="line2d_25">
      <path d="M 21.2 146.211058 
L 526.4875 146.211058 
" clip-path="url(#p6be7b4416a)" style="fill: none; stroke: #b0b0b0; stroke-opacity: 0.3; stroke-width: 0.8; stroke-linecap: square"/>
     </g>
     <g id="line2d_26">
      <g>
       <use xlink:href="#mb9c090b124" x="21.2" y="146.211058" style="stroke: #000000; stroke-width: 0.8"/>
      </g>
     </g>
     <g id="text_13">
      <!-- 5 -->
      <g transform="translate(7.2 151.023558) scale(0.14 -0.14)">
       <use xlink:href="#SimHei-35"/>
      </g>
     </g>
    </g>
    <g id="ytick_7">
     <g id="line2d_27">
      <path d="M 21.2 68.474519 
L 526.4875 68.474519 
" clip-path="url(#p6be7b4416a)" style="fill: none; stroke: #b0b0b0; stroke-opacity: 0.3; stroke-width: 0.8; stroke-linecap: square"/>
     </g>
     <g id="line2d_28">
      <g>
       <use xlink:href="#mb9c090b124" x="21.2" y="68.474519" style="stroke: #000000; stroke-width: 0.8"/>
      </g>
     </g>
     <g id="text_14">
      <!-- 6 -->
      <g transform="translate(7.2 73.287019) scale(0.14 -0.14)">
       <use xlink:href="#SimHei-36"/>
      </g>
     </g>
    </g>
   </g>
   <g id="line2d_29">
    <path d="M 98.936538 457.157212 
L 409.882692 223.947596 
" clip-path="url(#p6be7b4416a)" style="fill: none; stroke: #0000ff; stroke-width: 2; stroke-linecap: square"/>
   </g>
   <g id="line2d_30">
    <path d="M 98.936538 223.947596 
L 409.882692 379.420673 
" clip-path="url(#p6be7b4416a)" style="fill: none; stroke: #008000; stroke-width: 2; stroke-linecap: square"/>
   </g>
   <g id="line2d_31">
    <defs>
     <path id="m5c07217d66" d="M 0 4 
C 1.060812 4 2.078319 3.578535 2.828427 2.828427 
C 3.578535 2.078319 4 1.060812 4 0 
C 4 -1.060812 3.578535 -2.078319 2.828427 -2.828427 
C 2.078319 -3.578535 1.060812 -4 0 -4 
C -1.060812 -4 -2.078319 -3.578535 -2.828427 -2.828427 
C -3.578535 -2.078319 -4 -1.060812 -4 0 
C -4 1.060812 -3.578535 2.078319 -2.828427 2.828427 
C -2.078319 3.578535 -1.060812 4 0 4 
z
" style="stroke: #0000ff"/>
    </defs>
    <g clip-path="url(#p6be7b4416a)">
     <use xlink:href="#m5c07217d66" x="98.936538" y="457.157212" style="fill: #0000ff; stroke: #0000ff"/>
    </g>
   </g>
   <g id="line2d_32">
    <g clip-path="url(#p6be7b4416a)">
     <use xlink:href="#m5c07217d66" x="409.882692" y="223.947596" style="fill: #0000ff; stroke: #0000ff"/>
    </g>
   </g>
   <g id="line2d_33">
    <defs>
     <path id="mb323819de4" d="M 0 4 
C 1.060812 4 2.078319 3.578535 2.828427 2.828427 
C 3.578535 2.078319 4 1.060812 4 0 
C 4 -1.060812 3.578535 -2.078319 2.828427 -2.828427 
C 2.078319 -3.578535 1.060812 -4 0 -4 
C -1.060812 -4 -2.078319 -3.578535 -2.828427 -2.828427 
C -3.578535 -2.078319 -4 -1.060812 -4 0 
C -4 1.060812 -3.578535 2.078319 -2.828427 2.828427 
C -2.078319 3.578535 -1.060812 4 0 4 
z
" style="stroke: #008000"/>
    </defs>
    <g clip-path="url(#p6be7b4416a)">
     <use xlink:href="#mb323819de4" x="98.936538" y="223.947596" style="fill: #008000; stroke: #008000"/>
    </g>
   </g>
   <g id="line2d_34">
    <g clip-path="url(#p6be7b4416a)">
     <use xlink:href="#mb323819de4" x="409.882692" y="379.420673" style="fill: #008000; stroke: #008000"/>
    </g>
   </g>
   <g id="line2d_35">
    <defs>
     <path id="mbc8c266b7c" d="M 0 5 
C 1.326016 5 2.597899 4.473168 3.535534 3.535534 
C 4.473168 2.597899 5 1.326016 5 0 
C 5 -1.326016 4.473168 -2.597899 3.535534 -3.535534 
C 2.597899 -4.473168 1.326016 -5 0 -5 
C -1.326016 -5 -2.597899 -4.473168 -3.535534 -3.535534 
C -4.473168 -2.597899 -5 -1.326016 -5 0 
C -5 1.326016 -4.473168 2.597899 -3.535534 3.535534 
C -2.597899 4.473168 -1.326016 5 0 5 
z
" style="stroke: #000000"/>
    </defs>
    <g clip-path="url(#p6be7b4416a)">
     <use xlink:href="#mbc8c266b7c" x="285.504231" y="317.231442" style="stroke: #000000"/>
    </g>
   </g>
   <g id="patch_5">
    <path d="M 21.2 534.89375 
L 21.2 29.60625 
" style="fill: none; stroke: #000000; stroke-width: 0.8; stroke-linejoin: miter; stroke-linecap: square"/>
   </g>
   <g id="patch_6">
    <path d="M 526.4875 534.89375 
L 526.4875 29.60625 
" style="fill: none; stroke: #000000; stroke-width: 0.8; stroke-linejoin: miter; stroke-linecap: square"/>
   </g>
   <g id="patch_7">
    <path d="M 21.2 534.89375 
L 526.4875 534.89375 
" style="fill: none; stroke: #000000; stroke-width: 0.8; stroke-linejoin: miter; stroke-linecap: square"/>
   </g>
   <g id="patch_8">
    <path d="M 21.2 29.60625 
L 526.4875 29.60625 
" style="fill: none; stroke: #000000; stroke-width: 0.8; stroke-linejoin: miter; stroke-linecap: square"/>
   </g>
   <g id="text_15">
    <!-- A -->
    <g style="fill: #0000ff" transform="translate(75.615577 480.478173) scale(0.16 -0.16)">
     <defs>
      <path id="SimHei-41" d="M 3075 125 
L 2475 125 
L 2125 1450 
L 1025 1450 
L 675 125 
L 75 125 
L 1325 4450 
L 1825 4450 
L 3075 125 
z
M 2000 1925 
L 1600 3450 
L 1550 3450 
L 1150 1925 
L 2000 1925 
z
" transform="scale(0.015625)"/>
     </defs>
     <use xlink:href="#SimHei-41"/>
    </g>
   </g>
   <g id="text_16">
    <!-- B -->
    <g style="fill: #0000ff" transform="translate(425.43 247.268558) scale(0.16 -0.16)">
     <defs>
      <path id="SimHei-42" d="M 2950 1400 
Q 2950 675 2550 400 
Q 2150 125 1525 125 
L 275 125 
L 275 4400 
L 1575 4400 
Q 2200 4400 2512 4075 
Q 2825 3750 2825 3300 
Q 2825 2850 2612 2637 
Q 2400 2425 2175 2350 
Q 2475 2275 2712 2037 
Q 2950 1800 2950 1400 
z
M 2250 3300 
Q 2250 3625 2062 3775 
Q 1875 3925 1600 3925 
L 850 3925 
L 850 2600 
L 1575 2600 
Q 1850 2600 2050 2762 
Q 2250 2925 2250 3300 
z
M 2350 1400 
Q 2350 1800 2087 1962 
Q 1825 2125 1500 2125 
L 850 2125 
L 850 600 
L 1425 600 
Q 1875 600 2112 775 
Q 2350 950 2350 1400 
z
" transform="scale(0.015625)"/>
     </defs>
     <use xlink:href="#SimHei-42"/>
    </g>
   </g>
   <g id="text_17">
    <!-- C -->
    <g style="fill: #008000" transform="translate(75.615577 247.268558) scale(0.16 -0.16)">
     <defs>
      <path id="SimHei-43" d="M 2975 1825 
Q 2950 875 2575 475 
Q 2200 75 1675 75 
Q 1075 75 650 562 
Q 225 1050 225 2125 
Q 225 3300 637 3875 
Q 1050 4450 1700 4450 
Q 2250 4450 2612 4037 
Q 2975 3625 2950 2875 
L 2400 2875 
Q 2400 3425 2225 3700 
Q 2050 3975 1700 3975 
Q 1300 3975 1062 3562 
Q 825 3150 825 2175 
Q 825 1275 1062 912 
Q 1300 550 1675 550 
Q 1950 550 2175 812 
Q 2400 1075 2400 1825 
L 2975 1825 
z
" transform="scale(0.015625)"/>
     </defs>
     <use xlink:href="#SimHei-43"/>
    </g>
   </g>
   <g id="text_18">
    <!-- D -->
    <g style="fill: #008000" transform="translate(425.43 402.741635) scale(0.16 -0.16)">
     <defs>
      <path id="SimHei-44" d="M 2925 2250 
Q 2925 1100 2437 612 
Q 1950 125 1125 125 
L 275 125 
L 275 4400 
L 1125 4400 
Q 2050 4400 2487 3900 
Q 2925 3400 2925 2250 
z
M 2325 2250 
Q 2325 3175 2025 3550 
Q 1725 3925 1125 3925 
L 850 3925 
L 850 600 
L 1125 600 
Q 1725 600 2025 962 
Q 2325 1325 2325 2250 
z
" transform="scale(0.015625)"/>
     </defs>
     <use xlink:href="#SimHei-44"/>
    </g>
   </g>
   <g id="text_19">
    <!-- P -->
    <g style="fill: #ff0000" transform="translate(301.051538 309.457788) scale(0.18 -0.18)">
     <defs>
      <path id="SimHei-50" d="M 2950 3100 
Q 2950 2500 2600 2150 
Q 2250 1800 1625 1800 
L 900 1800 
L 900 125 
L 325 125 
L 325 4400 
L 1625 4400 
Q 2250 4400 2600 4050 
Q 2950 3700 2950 3100 
z
M 2375 3100 
Q 2375 3575 2150 3750 
Q 1925 3925 1475 3925 
L 900 3925 
L 900 2275 
L 1475 2275 
Q 1925 2275 2150 2450 
Q 2375 2625 2375 3100 
z
" transform="scale(0.015625)"/>
     </defs>
     <use xlink:href="#SimHei-50"/>
    </g>
   </g>
   <g id="patch_9">
    <path d="M 100.537862 455.956219 
Q 254.411379 340.551081 406.496041 226.487585 
" style="fill: none; stroke: #0000ff; stroke-width: 2; stroke-linecap: round"/>
    <path d="M 400.336041 227.607585 
L 406.496041 226.487585 
L 403.696041 232.087585 
" style="fill: none; stroke: #0000ff; stroke-width: 2; stroke-linecap: round"/>
   </g>
   <g id="patch_10">
    <path d="M 100.727648 224.843151 
Q 254.410057 301.684355 406.092465 377.525559 
" style="fill: none; stroke: #008000; stroke-width: 2; stroke-linecap: round"/>
    <path d="M 402.335871 372.516767 
L 406.092465 377.525559 
L 399.831475 377.525559 
" style="fill: none; stroke: #008000; stroke-width: 2; stroke-linecap: round"/>
   </g>
   <g id="text_20">
    <!-- $t = \frac{(A-C) \times (D-C)}{(B-A) \times (D-C)}$ -->
    <g transform="translate(60.068269 84.021827) scale(0.16 -0.16)">
     <defs>
      <path id="DejaVuSans-Oblique-74" d="M 2706 3500 
L 2619 3053 
L 1472 3053 
L 1100 1153 
Q 1081 1047 1072 975 
Q 1063 903 1063 863 
Q 1063 663 1183 572 
Q 1303 481 1569 481 
L 2150 481 
L 2053 0 
L 1503 0 
Q 991 0 739 200 
Q 488 400 488 806 
Q 488 878 497 964 
Q 506 1050 525 1153 
L 897 3053 
L 409 3053 
L 500 3500 
L 978 3500 
L 1172 4494 
L 1747 4494 
L 1556 3500 
L 2706 3500 
z
" transform="scale(0.015625)"/>
      <path id="DejaVuSans-3d" d="M 678 2906 
L 4684 2906 
L 4684 2381 
L 678 2381 
L 678 2906 
z
M 678 1631 
L 4684 1631 
L 4684 1100 
L 678 1100 
L 678 1631 
z
" transform="scale(0.015625)"/>
      <path id="DejaVuSans-28" d="M 1984 4856 
Q 1566 4138 1362 3434 
Q 1159 2731 1159 2009 
Q 1159 1288 1364 580 
Q 1569 -128 1984 -844 
L 1484 -844 
Q 1016 -109 783 600 
Q 550 1309 550 2009 
Q 550 2706 781 3412 
Q 1013 4119 1484 4856 
L 1984 4856 
z
" transform="scale(0.015625)"/>
      <path id="DejaVuSans-Oblique-41" d="M 2356 4666 
L 3072 4666 
L 3938 0 
L 3278 0 
L 3084 1197 
L 984 1197 
L 325 0 
L -341 0 
L 2356 4666 
z
M 2584 4044 
L 1275 1722 
L 2988 1722 
L 2584 4044 
z
" transform="scale(0.015625)"/>
      <path id="DejaVuSans-2212" d="M 678 2272 
L 4684 2272 
L 4684 1741 
L 678 1741 
L 678 2272 
z
" transform="scale(0.015625)"/>
      <path id="DejaVuSans-Oblique-43" d="M 4447 4306 
L 4319 3641 
Q 4019 3944 3683 4091 
Q 3347 4238 2956 4238 
Q 2422 4238 2017 3981 
Q 1613 3725 1319 3200 
Q 1131 2863 1032 2486 
Q 934 2109 934 1728 
Q 934 1091 1264 756 
Q 1594 422 2222 422 
Q 2656 422 3056 561 
Q 3456 700 3834 978 
L 3688 231 
Q 3316 72 2936 -9 
Q 2556 -91 2175 -91 
Q 1278 -91 773 396 
Q 269 884 269 1753 
Q 269 2309 461 2846 
Q 653 3384 1013 3828 
Q 1394 4300 1883 4525 
Q 2372 4750 3022 4750 
Q 3422 4750 3780 4639 
Q 4138 4528 4447 4306 
z
" transform="scale(0.015625)"/>
      <path id="DejaVuSans-29" d="M 513 4856 
L 1013 4856 
Q 1481 4119 1714 3412 
Q 1947 2706 1947 2009 
Q 1947 1309 1714 600 
Q 1481 -109 1013 -844 
L 513 -844 
Q 928 -128 1133 580 
Q 1338 1288 1338 2009 
Q 1338 2731 1133 3434 
Q 928 4138 513 4856 
z
" transform="scale(0.015625)"/>
      <path id="DejaVuSans-d7" d="M 4488 3438 
L 3059 2003 
L 4488 575 
L 4116 197 
L 2681 1631 
L 1247 197 
L 878 575 
L 2303 2003 
L 878 3438 
L 1247 3816 
L 2681 2381 
L 4116 3816 
L 4488 3438 
z
" transform="scale(0.015625)"/>
      <path id="DejaVuSans-Oblique-44" d="M 1081 4666 
L 2438 4666 
Q 3519 4666 4070 4208 
Q 4622 3750 4622 2847 
Q 4622 2250 4412 1698 
Q 4203 1147 3834 769 
Q 3463 381 2891 190 
Q 2319 0 1538 0 
L 172 0 
L 1081 4666 
z
M 1613 4147 
L 909 519 
L 1734 519 
Q 2794 519 3375 1128 
Q 3956 1738 3956 2847 
Q 3956 3519 3581 3833 
Q 3206 4147 2406 4147 
L 1613 4147 
z
" transform="scale(0.015625)"/>
      <path id="DejaVuSans-Oblique-42" d="M 1081 4666 
L 2694 4666 
Q 3350 4666 3675 4422 
Q 4000 4178 4000 3688 
Q 4000 3238 3720 2911 
Q 3441 2584 2988 2516 
Q 3375 2428 3569 2181 
Q 3763 1934 3763 1522 
Q 3763 819 3242 409 
Q 2722 0 1819 0 
L 172 0 
L 1081 4666 
z
M 1234 2228 
L 903 519 
L 1919 519 
Q 2491 519 2800 781 
Q 3109 1044 3109 1522 
Q 3109 1891 2904 2059 
Q 2700 2228 2247 2228 
L 1234 2228 
z
M 1606 4147 
L 1331 2741 
L 2272 2741 
Q 2775 2741 3058 2959 
Q 3341 3178 3341 3566 
Q 3341 3869 3150 4008 
Q 2959 4147 2541 4147 
L 1606 4147 
z
" transform="scale(0.015625)"/>
     </defs>
     <use xlink:href="#DejaVuSans-Oblique-74" transform="translate(0 0.859375)"/>
     <use xlink:href="#DejaVuSans-3d" transform="translate(58.691406 0.859375)"/>
     <use xlink:href="#DejaVuSans-28" transform="translate(161.962891 53.8875) scale(0.7)"/>
     <use xlink:href="#DejaVuSans-Oblique-41" transform="translate(189.272461 53.8875) scale(0.7)"/>
     <use xlink:href="#DejaVuSans-2212" transform="translate(250.795898 53.8875) scale(0.7)"/>
     <use xlink:href="#DejaVuSans-Oblique-43" transform="translate(323.085938 53.8875) scale(0.7)"/>
     <use xlink:href="#DejaVuSans-29" transform="translate(371.962891 53.8875) scale(0.7)"/>
     <use xlink:href="#DejaVuSans-d7" transform="translate(412.910156 53.8875) scale(0.7)"/>
     <use xlink:href="#DejaVuSans-28" transform="translate(485.200195 53.8875) scale(0.7)"/>
     <use xlink:href="#DejaVuSans-Oblique-44" transform="translate(512.509766 53.8875) scale(0.7)"/>
     <use xlink:href="#DejaVuSans-2212" transform="translate(580.048828 53.8875) scale(0.7)"/>
     <use xlink:href="#DejaVuSans-Oblique-43" transform="translate(652.338867 53.8875) scale(0.7)"/>
     <use xlink:href="#DejaVuSans-29" transform="translate(701.21582 53.8875) scale(0.7)"/>
     <use xlink:href="#DejaVuSans-28" transform="translate(161.962891 -39.70625) scale(0.7)"/>
     <use xlink:href="#DejaVuSans-Oblique-42" transform="translate(189.272461 -39.70625) scale(0.7)"/>
     <use xlink:href="#DejaVuSans-2212" transform="translate(250.932617 -39.70625) scale(0.7)"/>
     <use xlink:href="#DejaVuSans-Oblique-41" transform="translate(323.222656 -39.70625) scale(0.7)"/>
     <use xlink:href="#DejaVuSans-29" transform="translate(371.108398 -39.70625) scale(0.7)"/>
     <use xlink:href="#DejaVuSans-d7" transform="translate(412.055664 -39.70625) scale(0.7)"/>
     <use xlink:href="#DejaVuSans-28" transform="translate(484.345703 -39.70625) scale(0.7)"/>
     <use xlink:href="#DejaVuSans-Oblique-44" transform="translate(511.655273 -39.70625) scale(0.7)"/>
     <use xlink:href="#DejaVuSans-2212" transform="translate(579.194336 -39.70625) scale(0.7)"/>
     <use xlink:href="#DejaVuSans-Oblique-43" transform="translate(651.484375 -39.70625) scale(0.7)"/>
     <use xlink:href="#DejaVuSans-29" transform="translate(700.361328 -39.70625) scale(0.7)"/>
     <path d="M 161.962891 19.65625 
L 161.962891 25.90625 
L 728.525391 25.90625 
L 728.525391 19.65625 
L 161.962891 19.65625 
z
"/>
    </g>
   </g>
   <g id="text_21">
    <!-- 分子面积的一半，三角形ACD -->
    <g style="fill: #ffa500" transform="translate(60.068269 115.116442) scale(0.14 -0.14)">
     <defs>
      <path id="SimHei-5206" d="M 1000 -650 
Q 825 -375 575 -225 
Q 975 -75 1300 137 
Q 1625 350 1875 662 
Q 2125 975 2250 1350 
Q 2375 1725 2425 2275 
Q 1850 2275 1500 2250 
L 1500 2775 
Q 1900 2750 2525 2750 
L 5025 2750 
Q 4975 2375 4950 2100 
L 4750 250 
Q 4700 -200 4350 -350 
Q 4000 -500 3575 -525 
Q 3550 -275 3325 50 
Q 3850 25 4037 87 
Q 4225 150 4275 525 
L 4450 2275 
L 2950 2275 
Q 2875 1625 2737 1187 
Q 2600 750 2350 425 
Q 2100 100 1750 -175 
Q 1400 -450 1000 -650 
z
M 3950 5175 
Q 4125 4650 4662 3975 
Q 5200 3300 6175 2800 
Q 5975 2625 5775 2275 
Q 5325 2600 4987 2887 
Q 4650 3175 4425 3425 
Q 4200 3675 3925 4137 
Q 3650 4600 3475 5000 
Q 3750 5075 3950 5175 
z
M 2700 4825 
Q 2475 4425 2325 4125 
Q 2175 3825 2025 3587 
Q 1875 3350 1575 2950 
Q 1275 2550 850 2125 
Q 625 2350 400 2475 
Q 900 2925 1187 3300 
Q 1475 3675 1737 4112 
Q 2000 4550 2200 5075 
Q 2400 4925 2700 4825 
z
" transform="scale(0.015625)"/>
      <path id="SimHei-5b50" d="M 2075 25 
Q 2650 0 2800 62 
Q 2950 125 2950 375 
L 2950 2200 
L 1175 2200 
Q 825 2200 350 2175 
L 350 2625 
Q 825 2600 1175 2600 
L 2950 2600 
Q 2950 3000 2925 3500 
Q 3275 3650 3637 3875 
Q 4000 4100 4475 4400 
L 1925 4400 
Q 1400 4400 1000 4375 
L 1000 4825 
Q 1525 4800 1875 4800 
L 5400 4800 
L 5400 4350 
Q 5025 4200 4575 3950 
Q 4125 3700 3450 3250 
L 3450 2600 
L 5125 2600 
Q 5550 2600 6075 2650 
L 6075 2200 
Q 5550 2225 5125 2200 
L 3450 2200 
L 3450 200 
Q 3450 -300 3162 -400 
Q 2875 -500 2300 -550 
Q 2250 -275 2075 25 
z
" transform="scale(0.015625)"/>
      <path id="SimHei-9762" d="M 5275 4850 
Q 5650 4850 5950 4875 
L 5950 4400 
Q 5600 4425 5275 4425 
L 3275 4425 
Q 3175 4200 2950 3575 
L 5525 3575 
Q 5500 3100 5500 2600 
L 5500 450 
Q 5500 -100 5525 -525 
L 5025 -525 
L 5025 -175 
L 1350 -175 
L 1350 -525 
L 850 -525 
Q 875 -200 875 425 
L 875 2650 
Q 875 3125 850 3575 
L 2475 3575 
Q 2700 4150 2750 4425 
L 1175 4425 
Q 800 4425 425 4400 
L 425 4875 
Q 825 4850 1175 4850 
L 5275 4850 
z
M 2200 225 
L 2200 3175 
L 1350 3175 
L 1350 225 
L 2200 225 
z
M 5025 225 
L 5025 3175 
L 4175 3175 
L 4175 225 
L 5025 225 
z
M 3750 225 
L 3750 1050 
L 2625 1050 
L 2625 225 
L 3750 225 
z
M 3750 2475 
L 3750 3175 
L 2625 3175 
L 2625 2475 
L 3750 2475 
z
M 3750 1425 
L 3750 2100 
L 2625 2100 
L 2625 1425 
L 3750 1425 
z
" transform="scale(0.015625)"/>
      <path id="SimHei-79ef" d="M 5675 4700 
Q 5650 4275 5650 3575 
L 5650 2750 
Q 5650 2225 5675 1750 
L 3100 1750 
Q 3125 2225 3125 2750 
L 3125 3600 
Q 3125 4275 3100 4700 
L 5675 4700 
z
M 2850 4625 
Q 2600 4575 2400 4525 
Q 2200 4475 1925 4425 
L 1925 3275 
Q 2525 3275 2875 3300 
L 2875 2825 
Q 2525 2850 1925 2850 
L 1925 2075 
Q 2125 2225 2250 2350 
Q 2650 1775 2875 1450 
Q 2750 1375 2450 1150 
Q 2250 1575 1925 2000 
L 1925 300 
Q 1925 -75 1950 -675 
L 1425 -675 
Q 1475 -75 1475 300 
L 1475 1925 
Q 1275 1475 1125 1225 
Q 975 975 650 525 
Q 450 700 200 825 
Q 575 1200 900 1750 
Q 1225 2300 1375 2850 
Q 1025 2850 300 2825 
L 300 3300 
Q 1025 3275 1475 3275 
L 1475 4325 
Q 975 4250 525 4175 
Q 450 4400 350 4625 
Q 675 4600 1462 4750 
Q 2250 4900 2550 5075 
Q 2725 4775 2850 4625 
z
M 5175 2175 
L 5175 4300 
L 3575 4300 
L 3575 2175 
L 5175 2175 
z
M 4025 1075 
Q 3875 850 3512 350 
Q 3150 -150 2700 -650 
Q 2525 -475 2300 -300 
Q 2625 -50 2950 375 
Q 3275 800 3575 1400 
Q 3825 1200 4025 1075 
z
M 5050 1325 
Q 5275 1025 5587 625 
Q 5900 225 6200 -225 
Q 5900 -400 5725 -550 
Q 5550 -225 5200 287 
Q 4850 800 4650 1025 
Q 4850 1150 5050 1325 
z
" transform="scale(0.015625)"/>
      <path id="SimHei-7684" d="M 2100 4975 
Q 1975 4750 1750 3950 
L 2875 3950 
Q 2850 3525 2850 2875 
L 2850 675 
Q 2850 300 2875 -400 
L 2375 -400 
L 2375 100 
L 1100 100 
L 1100 -450 
L 600 -450 
Q 625 350 625 550 
L 625 2850 
Q 625 3525 600 3950 
L 1325 3950 
Q 1450 4525 1525 5150 
Q 1875 5025 2100 4975 
z
M 5825 3075 
Q 5800 1550 5700 175 
Q 5650 -275 5225 -425 
Q 4800 -575 4275 -625 
Q 4250 -350 4050 -50 
Q 4550 -75 4837 -25 
Q 5125 25 5200 200 
Q 5275 375 5312 1225 
Q 5350 2075 5375 3600 
L 3925 3600 
Q 3725 3125 3350 2475 
Q 3175 2650 2925 2750 
Q 3150 3050 3350 3475 
Q 3550 3900 3700 4400 
Q 3850 4900 3875 5175 
Q 4225 5025 4475 4950 
Q 4350 4750 4262 4512 
Q 4175 4275 4075 4050 
L 5850 4050 
Q 5825 3525 5825 3075 
z
M 2375 525 
L 2375 1850 
L 1100 1850 
L 1100 525 
L 2375 525 
z
M 2375 2275 
L 2375 3525 
L 1100 3525 
L 1100 2275 
L 2375 2275 
z
M 4350 2050 
Q 4500 1750 4700 1275 
Q 4525 1200 4225 1025 
Q 4050 1500 3900 1837 
Q 3750 2175 3600 2400 
Q 3775 2500 4050 2650 
L 4350 2050 
z
" transform="scale(0.015625)"/>
      <path id="SimHei-4e00" d="M 4875 2675 
Q 5525 2675 6050 2700 
L 6050 2050 
Q 5525 2075 4900 2075 
L 1600 2075 
Q 950 2075 350 2050 
L 350 2700 
Q 950 2675 1600 2675 
L 4875 2675 
z
" transform="scale(0.015625)"/>
      <path id="SimHei-534a" d="M 2900 2925 
L 2900 4500 
Q 2900 4800 2875 5100 
L 3450 5100 
Q 3425 4850 3425 4400 
L 3425 2925 
L 4625 2925 
Q 5125 2925 5625 2950 
L 5625 2475 
Q 5125 2500 4525 2500 
L 3425 2500 
L 3425 1575 
L 5025 1575 
Q 5575 1575 6050 1600 
L 6050 1125 
Q 5575 1150 5050 1150 
L 3425 1150 
L 3425 200 
Q 3425 -125 3450 -575 
L 2850 -575 
Q 2900 -100 2900 200 
L 2900 1150 
L 1300 1150 
Q 775 1150 250 1125 
L 250 1600 
Q 775 1575 1575 1575 
L 2900 1575 
L 2900 2500 
L 1775 2500 
Q 1250 2500 675 2475 
L 675 2950 
Q 1225 2925 1650 2925 
L 2900 2925 
z
M 1300 4825 
Q 1825 4200 2225 3675 
Q 2025 3550 1725 3325 
Q 1350 3925 825 4475 
Q 1075 4600 1300 4825 
z
M 4125 3575 
Q 4575 4100 4925 4800 
Q 5175 4600 5475 4475 
Q 5400 4400 5100 3975 
Q 4800 3550 4600 3275 
Q 4400 3450 4125 3575 
z
" transform="scale(0.015625)"/>
      <path id="SimHei-ff0c" d="M 875 950 
L 1775 950 
L 1775 -50 
Q 1700 -675 1150 -975 
L 900 -750 
Q 1350 -500 1350 0 
L 875 0 
L 875 950 
z
" transform="scale(0.015625)"/>
      <path id="SimHei-4e09" d="M 6000 -200 
Q 5550 -175 5200 -175 
L 1300 -175 
Q 900 -175 375 -200 
L 375 350 
Q 850 325 1300 325 
L 5200 325 
Q 5575 325 6000 375 
L 6000 -200 
z
M 900 4600 
Q 1400 4575 1825 4575 
L 4600 4575 
Q 5075 4575 5475 4600 
L 5475 4075 
Q 5100 4100 4600 4100 
L 1800 4100 
Q 1375 4100 900 4075 
L 900 4600 
z
M 2075 2100 
Q 1700 2100 1275 2075 
L 1275 2625 
Q 1675 2600 2075 2600 
L 4225 2600 
Q 4600 2600 5050 2625 
L 5050 2075 
Q 4550 2100 4225 2100 
L 2075 2100 
z
" transform="scale(0.015625)"/>
      <path id="SimHei-89d2" d="M 3125 900 
L 1625 900 
Q 1475 125 875 -625 
Q 650 -400 400 -300 
Q 775 50 975 475 
Q 1175 900 1250 1575 
Q 1325 2250 1300 3325 
Q 1100 3125 825 2925 
Q 700 3125 425 3325 
Q 650 3425 1075 3737 
Q 1500 4050 1850 4512 
Q 2200 4975 2350 5275 
Q 2550 5125 2825 5000 
Q 2700 4875 2425 4525 
L 4825 4525 
Q 4700 4375 4050 3475 
L 5600 3475 
Q 5575 2925 5575 2500 
L 5575 25 
Q 5575 -350 5325 -450 
Q 5075 -550 4575 -600 
Q 4500 -325 4325 -50 
Q 4825 -50 4975 0 
Q 5125 50 5100 325 
L 5100 900 
L 3600 900 
L 3600 400 
Q 3600 25 3625 -500 
L 3075 -500 
Q 3125 0 3125 500 
L 3125 900 
z
M 3525 3475 
L 3975 4125 
L 2150 4125 
Q 1825 3775 1475 3475 
L 3525 3475 
z
M 5100 1300 
L 5100 2000 
L 3600 2000 
L 3600 1300 
L 5100 1300 
z
M 5100 2400 
L 5100 3050 
L 3600 3050 
L 3600 2400 
L 5100 2400 
z
M 3125 1300 
L 3125 2000 
L 1750 2000 
Q 1750 1625 1700 1300 
L 3125 1300 
z
M 3125 2400 
L 3125 3050 
L 1775 3050 
L 1775 2400 
L 3125 2400 
z
" transform="scale(0.015625)"/>
      <path id="SimHei-5f62" d="M 2750 4850 
Q 3350 4850 3675 4875 
L 3675 4425 
Q 3400 4450 2950 4450 
L 2950 2700 
Q 3475 2700 3725 2725 
L 3725 2250 
Q 3500 2275 2950 2275 
L 2950 500 
Q 2950 -50 2975 -350 
L 2475 -350 
Q 2500 0 2500 475 
L 2500 2275 
L 1650 2275 
Q 1600 1075 1325 437 
Q 1050 -200 825 -500 
Q 550 -300 300 -250 
Q 700 150 937 762 
Q 1175 1375 1200 2275 
Q 775 2275 425 2250 
L 425 2725 
Q 775 2700 1225 2700 
L 1225 4450 
Q 800 4450 600 4425 
L 600 4875 
Q 800 4850 1375 4850 
L 2750 4850 
z
M 6100 1275 
Q 5850 1050 5150 462 
Q 4450 -125 3800 -525 
Q 3650 -300 3400 -100 
Q 4050 175 4725 750 
Q 5400 1325 5625 1650 
Q 5800 1450 6100 1275 
z
M 2500 2700 
L 2500 4450 
L 1675 4450 
L 1675 2700 
L 2500 2700 
z
M 5875 2975 
Q 5650 2825 5187 2300 
Q 4725 1775 3900 1175 
Q 3750 1375 3475 1550 
Q 4175 1950 4625 2412 
Q 5075 2875 5375 3325 
Q 5700 3050 5875 2975 
z
M 5675 4800 
Q 5425 4575 5062 4087 
Q 4700 3600 4075 2975 
Q 3850 3150 3625 3275 
Q 4175 3750 4475 4125 
Q 4775 4500 5125 5100 
Q 5250 5025 5675 4800 
z
" transform="scale(0.015625)"/>
     </defs>
     <use xlink:href="#SimHei-5206"/>
     <use xlink:href="#SimHei-5b50" transform="translate(100 0)"/>
     <use xlink:href="#SimHei-9762" transform="translate(200 0)"/>
     <use xlink:href="#SimHei-79ef" transform="translate(300 0)"/>
     <use xlink:href="#SimHei-7684" transform="translate(400 0)"/>
     <use xlink:href="#SimHei-4e00" transform="translate(500 0)"/>
     <use xlink:href="#SimHei-534a" transform="translate(600 0)"/>
     <use xlink:href="#SimHei-ff0c" transform="translate(700 0)"/>
     <use xlink:href="#SimHei-4e09" transform="translate(800 0)"/>
     <use xlink:href="#SimHei-89d2" transform="translate(900 0)"/>
     <use xlink:href="#SimHei-5f62" transform="translate(1000 0)"/>
     <use xlink:href="#SimHei-41" transform="translate(1100 0)"/>
     <use xlink:href="#SimHei-43" transform="translate(1150 0)"/>
     <use xlink:href="#SimHei-44" transform="translate(1200 0)"/>
    </g>
   </g>
   <g id="text_22">
    <!-- 分母面积的一半，四边形ADBC -->
    <g style="fill: #0000ff" transform="translate(60.068269 146.211058) scale(0.14 -0.14)">
     <defs>
      <path id="SimHei-6bcd" d="M 3475 -75 
Q 4200 -75 4350 25 
Q 4500 125 4525 525 
L 1000 525 
Q 1150 2050 1175 2500 
Q 700 2500 325 2475 
L 325 2925 
Q 750 2900 1225 2900 
Q 1325 4450 1350 4925 
L 5275 4925 
Q 5250 4625 5225 4050 
L 5175 2900 
Q 5525 2900 6100 2925 
L 6100 2475 
Q 5525 2500 5150 2500 
L 5050 900 
Q 5600 900 5875 925 
L 5875 500 
Q 5600 525 5025 525 
Q 4975 125 4887 -112 
Q 4800 -350 4562 -437 
Q 4325 -525 3675 -600 
Q 3675 -350 3475 -75 
z
M 4675 2900 
L 4750 4550 
L 1825 4550 
L 1725 2900 
L 4675 2900 
z
M 4550 900 
L 4650 2500 
L 1675 2500 
L 1550 900 
L 4550 900 
z
M 3775 1375 
Q 3550 1200 3400 1025 
Q 3000 1575 2475 2025 
Q 2650 2150 2825 2350 
Q 3325 1875 3775 1375 
z
M 3350 3050 
Q 3100 3450 2475 4075 
Q 2625 4200 2825 4375 
Q 3400 3800 3750 3350 
Q 3575 3275 3350 3050 
z
" transform="scale(0.015625)"/>
      <path id="SimHei-56db" d="M 5750 4750 
Q 5725 4125 5725 3425 
L 5725 950 
Q 5725 300 5750 -450 
L 5225 -450 
L 5225 25 
L 1150 25 
L 1150 -500 
L 625 -500 
Q 650 300 650 1000 
L 650 3425 
Q 650 4050 625 4750 
L 5750 4750 
z
M 5225 450 
L 5225 4350 
L 3975 4350 
L 3975 2225 
Q 3975 1950 4225 1950 
Q 4475 1950 5025 1975 
Q 4900 1700 4875 1500 
Q 4225 1500 3887 1512 
Q 3550 1525 3500 1975 
L 3500 4350 
L 2850 4350 
Q 2850 3050 2562 2412 
Q 2275 1775 1700 1200 
Q 1575 1375 1275 1525 
Q 1650 1800 1900 2175 
Q 2150 2550 2262 3000 
Q 2375 3450 2375 4350 
L 1150 4350 
L 1150 450 
L 5225 450 
z
" transform="scale(0.015625)"/>
      <path id="SimHei-8fb9" d="M 3450 3950 
Q 3450 4750 3425 5250 
Q 3800 5175 4050 5175 
Q 3975 4825 3950 3950 
L 5725 3950 
Q 5650 3525 5625 3100 
L 5500 1150 
Q 5475 725 5062 612 
Q 4650 500 4300 400 
Q 4275 725 4050 1050 
Q 4650 1075 4837 1137 
Q 5025 1200 5050 1450 
L 5175 3500 
L 3925 3500 
Q 3825 2500 3525 1837 
Q 3225 1175 2625 500 
Q 2400 725 2075 900 
Q 2625 1275 2987 1937 
Q 3350 2600 3425 3500 
Q 2825 3500 2275 3450 
L 2275 3975 
Q 2725 3950 3450 3950 
z
M 1625 2900 
Q 1600 2475 1600 2125 
L 1600 675 
Q 2225 50 3775 0 
Q 5325 -50 6200 50 
Q 5950 -150 5925 -550 
Q 5125 -550 4350 -525 
Q 3575 -500 2925 -387 
Q 2275 -275 1850 75 
Q 1425 425 1187 175 
Q 950 -75 725 -550 
Q 500 -325 225 -150 
Q 875 350 1100 625 
L 1100 2450 
Q 650 2450 225 2425 
L 225 2925 
Q 725 2900 1150 2900 
L 1625 2900 
z
M 1150 5075 
Q 1600 4200 1700 3900 
Q 1450 3825 1175 3675 
Q 1150 3925 650 4875 
Q 925 4975 1150 5075 
z
" transform="scale(0.015625)"/>
     </defs>
     <use xlink:href="#SimHei-5206"/>
     <use xlink:href="#SimHei-6bcd" transform="translate(100 0)"/>
     <use xlink:href="#SimHei-9762" transform="translate(200 0)"/>
     <use xlink:href="#SimHei-79ef" transform="translate(300 0)"/>
     <use xlink:href="#SimHei-7684" transform="translate(400 0)"/>
     <use xlink:href="#SimHei-4e00" transform="translate(500 0)"/>
     <use xlink:href="#SimHei-534a" transform="translate(600 0)"/>
     <use xlink:href="#SimHei-ff0c" transform="translate(700 0)"/>
     <use xlink:href="#SimHei-56db" transform="translate(800 0)"/>
     <use xlink:href="#SimHei-8fb9" transform="translate(900 0)"/>
     <use xlink:href="#SimHei-5f62" transform="translate(1000 0)"/>
     <use xlink:href="#SimHei-41" transform="translate(1100 0)"/>
     <use xlink:href="#SimHei-44" transform="translate(1150 0)"/>
     <use xlink:href="#SimHei-42" transform="translate(1200 0)"/>
     <use xlink:href="#SimHei-43" transform="translate(1250 0)"/>
    </g>
   </g>
   <g id="text_23">
    <!-- 交点P在AB上的比例t = 面积比 -->
    <g style="fill: #ff0000" transform="translate(60.068269 177.305673) scale(0.14 -0.14)">
     <defs>
      <path id="SimHei-4ea4" d="M 2325 2600 
Q 2775 1575 3200 1150 
Q 3875 1825 4225 2725 
Q 4425 2575 4725 2400 
Q 4125 1450 3550 825 
Q 4400 175 6000 25 
Q 5750 -325 5700 -550 
Q 4100 -250 3150 525 
Q 2075 -275 650 -600 
Q 575 -300 375 -50 
Q 1900 125 2775 850 
Q 2200 1525 1850 2350 
Q 2150 2475 2325 2600 
z
M 1250 3725 
Q 875 3725 525 3700 
L 525 4200 
L 1225 4150 
L 5125 4150 
Q 5525 4175 5950 4200 
L 5950 3675 
Q 5525 3700 5125 3725 
L 1250 3725 
z
M 2525 3300 
Q 2175 2975 1025 2000 
Q 825 2250 550 2400 
Q 1025 2650 1412 3025 
Q 1800 3400 2000 3675 
Q 2250 3500 2525 3300 
z
M 4325 3675 
Q 4450 3575 4900 3237 
Q 5350 2900 5775 2600 
Q 5500 2400 5300 2175 
Q 5075 2475 3900 3300 
Q 4100 3500 4325 3675 
z
M 3250 5300 
Q 3500 4725 3625 4375 
Q 3275 4275 3025 4200 
Q 2875 4625 2650 5125 
Q 2950 5225 3250 5300 
z
" transform="scale(0.015625)"/>
      <path id="SimHei-70b9" d="M 3325 5200 
Q 3300 4925 3300 4375 
L 4900 4375 
Q 5275 4375 5725 4400 
L 5725 3925 
Q 5300 3950 4900 3950 
L 3300 3950 
L 3300 3225 
L 5225 3225 
Q 5200 2700 5200 2150 
Q 5200 1625 5225 1175 
L 1175 1175 
Q 1200 1625 1200 2175 
Q 1200 2725 1175 3225 
L 2775 3225 
L 2775 4500 
Q 2775 4900 2750 5200 
L 3325 5200 
z
M 4700 1600 
L 4700 2800 
L 1725 2800 
L 1725 1600 
L 4700 1600 
z
M 1500 750 
Q 1025 -250 825 -625 
Q 625 -475 325 -375 
Q 650 50 950 925 
Q 1200 800 1500 750 
z
M 5325 850 
Q 5775 150 6075 -350 
Q 5925 -425 5575 -625 
Q 5375 -150 4900 575 
Q 5150 700 5325 850 
z
M 3975 -575 
Q 3775 -100 3400 575 
Q 3575 675 3825 825 
Q 4350 -75 4450 -325 
Q 4200 -450 3975 -575 
z
M 2375 -575 
Q 2350 -300 1975 550 
Q 2200 625 2425 775 
Q 2800 -75 2900 -350 
Q 2625 -450 2375 -575 
z
" transform="scale(0.015625)"/>
      <path id="SimHei-5728" d="M 2425 4200 
Q 2525 4525 2600 4762 
Q 2675 5000 2700 5250 
Q 3050 5175 3325 5100 
Q 3200 4850 3150 4712 
Q 3100 4575 2975 4200 
L 5000 4200 
Q 5525 4200 5950 4225 
L 5950 3750 
Q 5525 3775 5000 3775 
L 2825 3775 
Q 2675 3425 2437 3000 
Q 2200 2575 1825 2075 
L 1825 325 
Q 1825 -175 1850 -650 
L 1325 -650 
Q 1350 -175 1350 325 
L 1350 1625 
Q 950 1250 625 1000 
Q 450 1225 200 1375 
Q 500 1550 800 1800 
Q 1100 2050 1350 2375 
Q 1350 2600 1325 2825 
L 1725 2825 
Q 1900 3025 2037 3275 
Q 2175 3525 2275 3775 
L 1675 3775 
Q 1075 3775 625 3750 
L 625 4225 
Q 1100 4200 1675 4200 
L 2425 4200 
z
M 3700 2250 
L 3700 2600 
Q 3700 3100 3675 3400 
L 4225 3400 
Q 4200 3100 4200 2600 
L 4200 2250 
L 4775 2250 
Q 5225 2250 5600 2275 
L 5600 1800 
Q 5225 1825 4775 1825 
L 4200 1825 
L 4200 150 
L 5150 150 
Q 5625 150 6000 175 
L 6000 -275 
Q 5625 -250 5150 -250 
L 3125 -250 
Q 2475 -250 2100 -275 
L 2100 175 
Q 2475 150 3125 150 
L 3700 150 
L 3700 1825 
L 3225 1825 
Q 2775 1825 2350 1800 
L 2350 2275 
Q 2775 2250 3225 2250 
L 3700 2250 
z
" transform="scale(0.015625)"/>
      <path id="SimHei-4e0a" d="M 3250 5075 
Q 3225 4650 3225 4275 
L 3225 3225 
L 4650 3225 
Q 5150 3225 5600 3250 
L 5600 2700 
Q 5100 2725 4600 2725 
L 3225 2725 
L 3225 200 
L 5200 200 
Q 5575 200 6075 225 
L 6075 -300 
Q 5600 -275 5200 -275 
L 1250 -275 
Q 850 -275 350 -300 
L 350 225 
Q 825 200 1250 200 
L 2700 200 
L 2700 4250 
Q 2700 4625 2675 5075 
L 3250 5075 
z
" transform="scale(0.015625)"/>
      <path id="SimHei-6bd4" d="M 3775 5100 
Q 3750 4575 3750 4100 
L 3750 3050 
Q 4925 3600 5475 4175 
Q 5675 3900 5900 3675 
Q 5600 3500 5037 3187 
Q 4475 2875 3750 2550 
L 3750 450 
Q 3750 100 4050 100 
L 5000 100 
Q 5175 100 5262 250 
Q 5350 400 5450 900 
Q 5650 775 6025 675 
Q 5850 0 5650 -175 
Q 5450 -350 5225 -350 
L 3900 -350 
Q 3250 -350 3250 275 
L 3250 4000 
Q 3250 4550 3225 5100 
L 3775 5100 
z
M 1275 4975 
Q 1250 4575 1250 4000 
L 1250 3150 
L 1850 3150 
Q 2325 3150 2875 3175 
L 2875 2650 
Q 2325 2675 1850 2675 
L 1250 2675 
L 1250 475 
Q 1650 650 1962 812 
Q 2275 975 2850 1275 
Q 2900 950 2950 750 
Q 2375 475 1762 175 
Q 1150 -125 925 -325 
Q 750 -100 575 200 
Q 700 300 750 600 
L 750 3950 
Q 750 4550 725 4975 
L 1275 4975 
z
" transform="scale(0.015625)"/>
      <path id="SimHei-4f8b" d="M 3450 4725 
Q 3825 4725 4100 4750 
L 4100 4300 
Q 3825 4325 3500 4325 
L 3150 4325 
Q 3125 4025 3025 3350 
L 4050 3350 
Q 4000 2050 3612 1050 
Q 3225 50 2300 -600 
Q 2200 -400 1900 -150 
Q 2750 250 3200 1325 
Q 2975 1525 2550 1800 
Q 2700 2000 2825 2175 
Q 3200 1875 3350 1775 
Q 3500 2250 3575 2950 
L 2925 2950 
Q 2800 2425 2225 1575 
Q 2025 1775 1775 1925 
Q 2125 2275 2375 2837 
Q 2625 3400 2675 4325 
Q 2300 4325 2150 4300 
L 2150 4750 
Q 2400 4725 2800 4725 
L 3450 4725 
z
M 2050 4975 
Q 1875 4775 1550 3850 
L 1550 475 
Q 1550 -25 1575 -600 
L 1075 -600 
Q 1100 -75 1100 425 
L 1100 3000 
Q 950 2700 650 2250 
Q 550 2375 200 2625 
Q 525 2925 937 3762 
Q 1350 4600 1450 5200 
Q 1650 5075 2050 4975 
z
M 5950 5075 
Q 5900 4775 5900 4300 
L 5900 250 
Q 5900 -275 5700 -400 
Q 5500 -525 4850 -575 
Q 4825 -300 4650 50 
Q 5175 0 5300 25 
Q 5425 50 5450 300 
L 5450 4275 
Q 5450 4750 5400 5075 
L 5950 5075 
z
M 4925 4225 
Q 4875 3875 4875 3250 
L 4875 1800 
Q 4875 1200 4900 925 
L 4375 925 
Q 4425 1200 4425 1775 
L 4425 3275 
Q 4400 3850 4375 4225 
L 4925 4225 
z
" transform="scale(0.015625)"/>
      <path id="SimHei-74" d="M 2750 200 
Q 2625 150 2462 112 
Q 2300 75 2025 75 
Q 1575 75 1300 325 
Q 1025 575 1025 1025 
L 1025 2525 
L 175 2525 
L 175 2925 
L 1025 2925 
L 1025 3900 
L 1525 3900 
L 1525 2925 
L 2550 2925 
L 2550 2525 
L 1525 2525 
L 1525 1000 
Q 1525 800 1625 662 
Q 1725 525 2000 525 
Q 2275 525 2450 575 
Q 2625 625 2750 700 
L 2750 200 
z
" transform="scale(0.015625)"/>
      <path id="SimHei-20" transform="scale(0.015625)"/>
      <path id="SimHei-3d" d="M 2975 2900 
L 125 2900 
L 125 3300 
L 2975 3300 
L 2975 2900 
z
M 2975 1375 
L 125 1375 
L 125 1775 
L 2975 1775 
L 2975 1375 
z
" transform="scale(0.015625)"/>
     </defs>
     <use xlink:href="#SimHei-4ea4"/>
     <use xlink:href="#SimHei-70b9" transform="translate(100 0)"/>
     <use xlink:href="#SimHei-50" transform="translate(200 0)"/>
     <use xlink:href="#SimHei-5728" transform="translate(250 0)"/>
     <use xlink:href="#SimHei-41" transform="translate(350 0)"/>
     <use xlink:href="#SimHei-42" transform="translate(400 0)"/>
     <use xlink:href="#SimHei-4e0a" transform="translate(450 0)"/>
     <use xlink:href="#SimHei-7684" transform="translate(550 0)"/>
     <use xlink:href="#SimHei-6bd4" transform="translate(650 0)"/>
     <use xlink:href="#SimHei-4f8b" transform="translate(750 0)"/>
     <use xlink:href="#SimHei-74" transform="translate(850 0)"/>
     <use xlink:href="#SimHei-20" transform="translate(900 0)"/>
     <use xlink:href="#SimHei-3d" transform="translate(950 0)"/>
     <use xlink:href="#SimHei-20" transform="translate(1000 0)"/>
     <use xlink:href="#SimHei-9762" transform="translate(1050 0)"/>
     <use xlink:href="#SimHei-79ef" transform="translate(1150 0)"/>
     <use xlink:href="#SimHei-6bd4" transform="translate(1250 0)"/>
    </g>
   </g>
   <g id="text_24">
    <!-- 两直线交点的面积比较法 -->
    <g transform="translate(163.84375 23.60625) scale(0.2 -0.2)">
     <defs>
      <path id="SimHei-4e24" d="M 1700 825 
Q 1575 975 1325 1175 
Q 2025 1850 2250 3075 
L 1175 3075 
L 1175 -500 
L 675 -500 
Q 700 175 700 675 
L 700 2650 
Q 700 2975 675 3500 
L 2300 3500 
Q 2325 3925 2350 4475 
L 1125 4475 
Q 825 4475 525 4450 
L 525 4900 
Q 825 4875 1100 4875 
L 5250 4875 
Q 5500 4875 5975 4900 
L 5975 4450 
Q 5625 4475 5275 4475 
L 4300 4475 
Q 4300 4100 4250 3500 
L 5750 3500 
Q 5725 3050 5725 2725 
L 5725 250 
Q 5725 -175 5462 -300 
Q 5200 -425 4475 -500 
Q 4400 -150 4225 75 
Q 4975 50 5112 125 
Q 5250 200 5250 500 
L 5250 3075 
L 4200 3075 
Q 4150 2650 4050 2275 
Q 4750 1725 5125 1400 
Q 4900 1200 4750 1000 
Q 4500 1325 3950 1800 
Q 3625 1000 3250 475 
Q 3000 650 2775 725 
Q 3075 1050 3350 1637 
Q 3625 2225 3725 3075 
L 2725 3075 
Q 2650 2700 2575 2425 
Q 3075 2000 3275 1750 
Q 3100 1600 2900 1400 
Q 2625 1800 2425 2000 
Q 2150 1350 1700 825 
z
M 3775 3500 
Q 3800 4100 3800 4475 
L 2825 4475 
Q 2825 4100 2775 3500 
L 3775 3500 
z
" transform="scale(0.015625)"/>
      <path id="SimHei-76f4" d="M 3550 5025 
Q 3475 4875 3400 4525 
L 4825 4525 
Q 5225 4525 5775 4550 
L 5775 4100 
Q 5250 4125 4825 4125 
L 3350 4125 
Q 3300 3775 3275 3525 
L 5100 3525 
Q 5075 3075 5075 2525 
L 5075 100 
L 5300 100 
Q 5650 100 6100 125 
L 6100 -350 
Q 5675 -325 5300 -325 
L 1225 -325 
Q 800 -325 325 -350 
L 325 125 
Q 825 100 1225 100 
L 1375 100 
L 1375 2525 
Q 1375 3175 1350 3525 
L 2775 3525 
Q 2825 3825 2850 4125 
L 1550 4125 
Q 1075 4125 600 4100 
L 600 4550 
Q 1075 4525 1525 4525 
L 2875 4525 
Q 2900 4800 2875 5075 
Q 3275 5025 3550 5025 
z
M 4600 975 
L 4600 1450 
L 1850 1450 
L 1850 975 
L 4600 975 
z
M 4600 100 
L 4600 575 
L 1850 575 
L 1850 100 
L 4600 100 
z
M 4600 2650 
L 4600 3125 
L 1850 3125 
L 1850 2650 
L 4600 2650 
z
M 4600 1825 
L 4600 2275 
L 1850 2275 
L 1850 1825 
L 4600 1825 
z
" transform="scale(0.015625)"/>
      <path id="SimHei-7ebf" d="M 3450 4300 
Q 3450 4675 3375 5125 
Q 3700 5100 4050 5050 
Q 3975 4900 3950 4562 
Q 3925 4225 3950 3600 
L 4800 3750 
Q 5225 3850 5650 3975 
L 5750 3500 
Q 5325 3450 4875 3375 
L 3975 3200 
Q 3975 2800 4025 2500 
L 5000 2675 
Q 5500 2775 5950 2925 
L 6025 2450 
Q 5575 2375 5075 2275 
L 4100 2100 
Q 4150 1600 4350 1175 
Q 4575 1350 4787 1575 
Q 5000 1800 5175 2075 
Q 5550 1775 5750 1675 
Q 5425 1525 5237 1337 
Q 5050 1150 4625 750 
Q 4925 250 5162 112 
Q 5400 -25 5500 100 
Q 5600 225 5675 625 
Q 5900 450 6200 350 
Q 5775 -750 5275 -537 
Q 4775 -325 4225 450 
Q 3875 175 3537 -62 
Q 3200 -300 2700 -550 
Q 2575 -300 2325 -100 
Q 2825 75 3175 275 
Q 3525 475 3975 850 
Q 3750 1350 3650 2025 
Q 2900 1900 2600 1800 
L 2525 2275 
Q 2825 2275 3550 2425 
Q 3500 2825 3500 3100 
Q 2825 2950 2575 2875 
L 2475 3350 
Q 2725 3350 3450 3500 
L 3450 4300 
z
M 1950 4875 
Q 1700 4650 1462 4237 
Q 1225 3825 825 3225 
Q 1425 3250 1650 3250 
Q 1875 3625 2050 4075 
Q 2300 3900 2600 3800 
Q 2350 3550 2087 3125 
Q 1825 2700 1175 1675 
Q 1850 1725 2375 1775 
Q 2300 1525 2300 1350 
Q 2125 1350 1525 1287 
Q 925 1225 550 1125 
Q 525 1375 400 1650 
Q 700 1725 950 2050 
Q 1200 2375 1475 2875 
Q 650 2825 425 2675 
Q 350 2950 200 3225 
Q 525 3450 825 3962 
Q 1125 4475 1375 5150 
Q 1625 4975 1950 4875 
z
M 2575 875 
Q 2550 600 2575 450 
Q 1950 325 1450 200 
Q 950 75 525 -75 
Q 450 200 250 475 
Q 950 550 1325 612 
Q 1700 675 2575 875 
z
M 4850 4025 
Q 4675 4300 4375 4675 
L 4775 4875 
Q 4875 4750 5275 4275 
Q 5025 4175 4850 4025 
z
" transform="scale(0.015625)"/>
      <path id="SimHei-8f83" d="M 2950 1425 
Q 2925 1225 2925 1000 
Q 2725 975 2025 850 
Q 2025 225 2050 -625 
L 1525 -625 
Q 1550 225 1550 750 
Q 875 600 425 450 
Q 350 750 200 1000 
Q 625 1050 1550 1175 
L 1550 2100 
Q 1250 2100 937 2087 
Q 625 2075 425 2000 
L 275 2450 
Q 500 2675 662 3075 
Q 825 3475 950 3950 
Q 775 3950 350 3925 
L 350 4400 
Q 725 4350 1050 4350 
Q 1225 4800 1275 5250 
Q 1550 5150 1850 5075 
Q 1725 4775 1575 4350 
Q 2200 4350 2650 4375 
L 2650 3925 
Q 2200 3950 1450 3950 
Q 1300 3475 900 2500 
L 1550 2500 
Q 1550 3100 1525 3400 
L 2050 3400 
Q 2025 3050 2025 2500 
L 2675 2500 
L 2675 2100 
L 2025 2100 
L 2025 1250 
Q 2700 1375 2950 1425 
z
M 5450 2325 
Q 5300 1925 5100 1437 
Q 4900 950 4675 575 
Q 4900 375 5300 225 
Q 5700 75 6200 -25 
Q 6000 -275 5950 -575 
Q 5300 -375 4925 -162 
Q 4550 50 4325 250 
Q 4025 -25 3687 -212 
Q 3350 -400 2825 -625 
Q 2725 -375 2450 -125 
Q 3025 0 3425 212 
Q 3825 425 4025 625 
Q 3800 1000 3650 1425 
L 3350 2275 
Q 3550 2375 3850 2475 
Q 4000 1875 4100 1600 
Q 4200 1325 4350 1025 
Q 4525 1275 4650 1662 
Q 4775 2050 4850 2525 
Q 5125 2425 5450 2325 
z
M 5175 4400 
Q 5725 4425 6025 4425 
L 6025 3975 
Q 5725 4000 5200 4000 
L 3800 4000 
Q 3250 4000 2925 3975 
L 2925 4425 
Q 3350 4400 3800 4400 
L 5175 4400 
z
M 4150 3425 
Q 3875 3100 3175 2275 
Q 3025 2475 2775 2625 
Q 3425 3300 3675 3750 
Q 3875 3600 4150 3425 
z
M 5200 3750 
Q 5450 3500 6125 2750 
Q 5825 2550 5650 2400 
Q 5425 2775 4775 3425 
Q 4975 3600 5200 3750 
z
M 4275 5300 
Q 4625 4925 4775 4675 
Q 4525 4550 4300 4425 
Q 4225 4625 3850 5050 
Q 4075 5175 4275 5300 
z
" transform="scale(0.015625)"/>
      <path id="SimHei-6cd5" d="M 6075 -300 
Q 5850 -425 5625 -625 
Q 5450 -300 5325 -125 
Q 4525 -175 3587 -262 
Q 2650 -350 2325 -450 
Q 2250 -150 2125 75 
Q 2450 175 2825 725 
Q 3200 1275 3500 2100 
L 2800 2100 
Q 2350 2100 1950 2075 
L 1950 2525 
Q 2350 2500 2825 2500 
L 3725 2500 
L 3725 3600 
L 3150 3600 
Q 2675 3600 2325 3575 
L 2325 4025 
Q 2725 4000 3125 4000 
L 3725 4000 
Q 3725 4700 3700 5150 
L 4250 5150 
Q 4225 4775 4225 4000 
L 4975 4000 
Q 5350 4000 5750 4025 
L 5750 3575 
Q 5350 3600 5025 3600 
L 4225 3600 
L 4225 2500 
L 5125 2500 
Q 5575 2500 6025 2525 
L 6025 2075 
Q 5575 2100 5125 2100 
L 3850 2100 
L 4100 1950 
Q 3950 1775 3625 1200 
Q 3300 625 2900 100 
Q 4000 150 5075 225 
Q 4775 675 4450 1025 
Q 4650 1175 4825 1350 
Q 5275 800 6075 -300 
z
M 300 -250 
Q 650 100 1012 625 
Q 1375 1150 1725 1725 
Q 1850 1500 2075 1375 
Q 1850 1075 1500 487 
Q 1150 -100 850 -625 
Q 650 -425 300 -250 
z
M 675 3425 
Q 1200 3100 1800 2650 
Q 1575 2500 1400 2250 
Q 925 2675 350 3050 
Q 525 3200 675 3425 
z
M 1050 4900 
Q 1550 4575 2100 4125 
Q 1900 3975 1725 3725 
Q 1250 4175 725 4525 
Q 900 4700 1050 4900 
z
" transform="scale(0.015625)"/>
     </defs>
     <use xlink:href="#SimHei-4e24"/>
     <use xlink:href="#SimHei-76f4" transform="translate(100 0)"/>
     <use xlink:href="#SimHei-7ebf" transform="translate(200 0)"/>
     <use xlink:href="#SimHei-4ea4" transform="translate(300 0)"/>
     <use xlink:href="#SimHei-70b9" transform="translate(400 0)"/>
     <use xlink:href="#SimHei-7684" transform="translate(500 0)"/>
     <use xlink:href="#SimHei-9762" transform="translate(600 0)"/>
     <use xlink:href="#SimHei-79ef" transform="translate(700 0)"/>
     <use xlink:href="#SimHei-6bd4" transform="translate(800 0)"/>
     <use xlink:href="#SimHei-8f83" transform="translate(900 0)"/>
     <use xlink:href="#SimHei-6cd5" transform="translate(1000 0)"/>
    </g>
   </g>
   <g id="legend_1">
    <g id="patch_11">
     <path d="M 415.8875 140.173437 
L 516.6875 140.173437 
Q 519.4875 140.173437 519.4875 137.373437 
L 519.4875 39.40625 
Q 519.4875 36.60625 516.6875 36.60625 
L 415.8875 36.60625 
Q 413.0875 36.60625 413.0875 39.40625 
L 413.0875 137.373437 
Q 413.0875 140.173437 415.8875 140.173437 
z
" style="fill: #ffffff; opacity: 0.8; stroke: #cccccc; stroke-linejoin: miter"/>
    </g>
    <g id="line2d_36">
     <path d="M 418.6875 48.4625 
L 432.6875 48.4625 
L 446.6875 48.4625 
" style="fill: none; stroke: #0000ff; stroke-width: 2; stroke-linecap: square"/>
    </g>
    <g id="text_25">
     <!-- 直线AB -->
     <g transform="translate(457.8875 53.3625) scale(0.14 -0.14)">
      <use xlink:href="#SimHei-76f4"/>
      <use xlink:href="#SimHei-7ebf" transform="translate(100 0)"/>
      <use xlink:href="#SimHei-41" transform="translate(200 0)"/>
      <use xlink:href="#SimHei-42" transform="translate(250 0)"/>
     </g>
    </g>
    <g id="line2d_37">
     <path d="M 418.6875 68.36875 
L 432.6875 68.36875 
L 446.6875 68.36875 
" style="fill: none; stroke: #008000; stroke-width: 2; stroke-linecap: square"/>
    </g>
    <g id="text_26">
     <!-- 直线CD -->
     <g transform="translate(457.8875 73.26875) scale(0.14 -0.14)">
      <use xlink:href="#SimHei-76f4"/>
      <use xlink:href="#SimHei-7ebf" transform="translate(100 0)"/>
      <use xlink:href="#SimHei-43" transform="translate(200 0)"/>
      <use xlink:href="#SimHei-44" transform="translate(250 0)"/>
     </g>
    </g>
    <g id="line2d_38">
     <g>
      <use xlink:href="#mbc8c266b7c" x="432.6875" y="88.329687" style="stroke: #000000"/>
     </g>
    </g>
    <g id="text_27">
     <!-- 交点P -->
     <g transform="translate(457.8875 93.229687) scale(0.14 -0.14)">
      <use xlink:href="#SimHei-4ea4"/>
      <use xlink:href="#SimHei-70b9" transform="translate(100 0)"/>
      <use xlink:href="#SimHei-50" transform="translate(200 0)"/>
     </g>
    </g>
    <g id="patch_12">
     <path d="M 418.6875 113.026562 
L 446.6875 113.026562 
L 446.6875 103.226562 
L 418.6875 103.226562 
z
" style="fill: #ffff00; opacity: 0.7; stroke: #ffff00; stroke-linejoin: miter"/>
    </g>
    <g id="text_28">
     <!-- 分子面积 -->
     <g transform="translate(457.8875 113.026562) scale(0.14 -0.14)">
      <use xlink:href="#SimHei-5206"/>
      <use xlink:href="#SimHei-5b50" transform="translate(100 0)"/>
      <use xlink:href="#SimHei-9762" transform="translate(200 0)"/>
      <use xlink:href="#SimHei-79ef" transform="translate(300 0)"/>
     </g>
    </g>
    <g id="patch_13">
     <path d="M 418.6875 132.823437 
L 446.6875 132.823437 
L 446.6875 123.023437 
L 418.6875 123.023437 
z
" style="fill: url(#h8310def60f); opacity: 0.5; stroke: #0000ff; stroke-linejoin: miter"/>
    </g>
    <g id="text_29">
     <!-- 分母面积 -->
     <g transform="translate(457.8875 132.823437) scale(0.14 -0.14)">
      <use xlink:href="#SimHei-5206"/>
      <use xlink:href="#SimHei-6bcd" transform="translate(100 0)"/>
      <use xlink:href="#SimHei-9762" transform="translate(200 0)"/>
      <use xlink:href="#SimHei-79ef" transform="translate(300 0)"/>
     </g>
    </g>
   </g>
  </g>
 </g>
 <defs>
  <clipPath id="p6be7b4416a">
   <rect x="21.2" y="29.60625" width="505.2875" height="505.2875"/>
  </clipPath>
 </defs>
 <defs>
  <pattern id="h8310def60f" patternUnits="userSpaceOnUse" x="0" y="0" width="72" height="72">
   <rect x="0" y="0" width="73" height="73" fill="#ffffff"/>
   <path d="M -36 36 
L 36 -36 
M -32 40 
L 40 -32 
M -28 44 
L 44 -28 
M -24 48 
L 48 -24 
M -20 52 
L 52 -20 
M -16 56 
L 56 -16 
M -12 60 
L 60 -12 
M -8 64 
L 64 -8 
M -4 68 
L 68 -4 
M 0 72 
L 72 0 
M 4 76 
L 76 4 
M 8 80 
L 80 8 
M 12 84 
L 84 12 
M 16 88 
L 88 16 
M 20 92 
L 92 20 
M 24 96 
L 96 24 
M 28 100 
L 100 28 
M 32 104 
L 104 32 
M 36 108 
L 108 36 
" style="fill: #0000ff; stroke: #0000ff; stroke-width: 1.0; stroke-linecap: butt; stroke-linejoin: miter; stroke-opacity: 0.5"/>
  </pattern>
 </defs>
</svg>
