<?xml version="1.0" encoding="utf-8" standalone="no"?>
<!DOCTYPE svg PUBLIC "-//W3C//DTD SVG 1.1//EN"
  "http://www.w3.org/Graphics/SVG/1.1/DTD/svg11.dtd">
<svg xmlns:xlink="http://www.w3.org/1999/xlink" width="360pt" height="360pt" viewBox="0 0 360 360" xmlns="http://www.w3.org/2000/svg" version="1.1">
 <metadata>
  <rdf:RDF xmlns:dc="http://purl.org/dc/elements/1.1/" xmlns:cc="http://creativecommons.org/ns#" xmlns:rdf="http://www.w3.org/1999/02/22-rdf-syntax-ns#">
   <cc:Work>
    <dc:type rdf:resource="http://purl.org/dc/dcmitype/StillImage"/>
    <dc:date>2025-06-25T12:47:22.653822</dc:date>
    <dc:format>image/svg+xml</dc:format>
    <dc:creator>
     <cc:Agent>
      <dc:title>Matplotlib v3.10.1, https://matplotlib.org/</dc:title>
     </cc:Agent>
    </dc:creator>
   </cc:Work>
  </rdf:RDF>
 </metadata>
 <defs>
  <style type="text/css">*{stroke-linejoin: round; stroke-linecap: butt}</style>
 </defs>
 <g id="figure_1">
  <g id="patch_1">
   <path d="M 0 360 
L 360 360 
L 360 0 
L 0 0 
z
" style="fill: #ffffff"/>
  </g>
  <g id="axes_1">
   <g id="patch_2">
    <path d="M 39.75625 327.08 
L 330.84375 327.08 
L 330.84375 35.9925 
L 39.75625 35.9925 
z
" style="fill: #ffffff"/>
   </g>
   <g id="patch_3">
    <path d="M 214.40875 210.645 
C 214.40875 200.426455 211.718356 190.385769 206.609084 181.53625 
C 201.499811 172.686731 194.149519 165.336439 185.3 160.227166 
" clip-path="url(#p9bebe5ada2)" style="fill: none; stroke: #800080; stroke-width: 2; stroke-linejoin: miter"/>
   </g>
   <g id="matplotlib.axis_1">
    <g id="xtick_1">
     <g id="line2d_1">
      <defs>
       <path id="md3c6fa7b77" d="M 0 0 
L 0 3.5 
" style="stroke: #000000; stroke-width: 0.8"/>
      </defs>
      <g>
       <use xlink:href="#md3c6fa7b77" x="39.75625" y="327.08" style="stroke: #000000; stroke-width: 0.8"/>
      </g>
     </g>
     <g id="text_1">
      <!-- 1 -->
      <g transform="translate(36.25625 343.705) scale(0.14 -0.14)">
       <defs>
        <path id="SimHei-31" d="M 1400 3600 
Q 1075 3275 575 2975 
L 575 3450 
Q 1200 3875 1600 4450 
L 1900 4450 
L 1900 150 
L 1400 150 
L 1400 3600 
z
" transform="scale(0.015625)"/>
       </defs>
       <use xlink:href="#SimHei-31"/>
      </g>
     </g>
    </g>
    <g id="xtick_2">
     <g id="line2d_2">
      <g>
       <use xlink:href="#md3c6fa7b77" x="97.97375" y="327.08" style="stroke: #000000; stroke-width: 0.8"/>
      </g>
     </g>
     <g id="text_2">
      <!-- 2 -->
      <g transform="translate(94.47375 343.705) scale(0.14 -0.14)">
       <defs>
        <path id="SimHei-32" d="M 300 250 
Q 325 625 650 925 
Q 975 1225 1475 1862 
Q 1975 2500 2125 2850 
Q 2275 3200 2237 3450 
Q 2200 3700 2000 3862 
Q 1800 4025 1537 4000 
Q 1275 3975 1037 3800 
Q 800 3625 675 3275 
L 200 3350 
Q 400 3925 712 4187 
Q 1025 4450 1450 4475 
Q 1700 4500 1900 4462 
Q 2100 4425 2312 4287 
Q 2525 4150 2662 3875 
Q 2800 3600 2762 3212 
Q 2725 2825 2375 2287 
Q 2025 1750 1025 600 
L 2825 600 
L 2825 150 
L 300 150 
L 300 250 
z
" transform="scale(0.015625)"/>
       </defs>
       <use xlink:href="#SimHei-32"/>
      </g>
     </g>
    </g>
    <g id="xtick_3">
     <g id="line2d_3">
      <g>
       <use xlink:href="#md3c6fa7b77" x="156.19125" y="327.08" style="stroke: #000000; stroke-width: 0.8"/>
      </g>
     </g>
     <g id="text_3">
      <!-- 3 -->
      <g transform="translate(152.69125 343.705) scale(0.14 -0.14)">
       <defs>
        <path id="SimHei-33" d="M 250 1225 
L 700 1300 
Q 800 975 1025 762 
Q 1250 550 1587 562 
Q 1925 575 2125 837 
Q 2325 1100 2300 1437 
Q 2275 1775 2037 1962 
Q 1800 2150 1275 2225 
L 1275 2550 
Q 1800 2600 2037 2825 
Q 2275 3050 2250 3412 
Q 2225 3775 1925 3937 
Q 1625 4100 1287 3975 
Q 950 3850 750 3275 
L 300 3350 
Q 450 3800 712 4100 
Q 975 4400 1425 4450 
Q 1875 4500 2212 4337 
Q 2550 4175 2687 3837 
Q 2825 3500 2725 3100 
Q 2625 2700 2150 2400 
Q 2500 2250 2687 1950 
Q 2875 1650 2812 1162 
Q 2750 675 2375 375 
Q 2000 75 1525 87 
Q 1050 100 700 387 
Q 350 675 250 1225 
z
" transform="scale(0.015625)"/>
       </defs>
       <use xlink:href="#SimHei-33"/>
      </g>
     </g>
    </g>
    <g id="xtick_4">
     <g id="line2d_4">
      <g>
       <use xlink:href="#md3c6fa7b77" x="214.40875" y="327.08" style="stroke: #000000; stroke-width: 0.8"/>
      </g>
     </g>
     <g id="text_4">
      <!-- 4 -->
      <g transform="translate(210.90875 343.705) scale(0.14 -0.14)">
       <defs>
        <path id="SimHei-34" d="M 2000 1100 
L 75 1100 
L 75 1525 
L 2100 4450 
L 2475 4450 
L 2475 1525 
L 3075 1525 
L 3075 1100 
L 2475 1100 
L 2475 150 
L 2000 150 
L 2000 1100 
z
M 2000 1525 
L 2000 3500 
L 600 1525 
L 2000 1525 
z
" transform="scale(0.015625)"/>
       </defs>
       <use xlink:href="#SimHei-34"/>
      </g>
     </g>
    </g>
    <g id="xtick_5">
     <g id="line2d_5">
      <g>
       <use xlink:href="#md3c6fa7b77" x="272.62625" y="327.08" style="stroke: #000000; stroke-width: 0.8"/>
      </g>
     </g>
     <g id="text_5">
      <!-- 5 -->
      <g transform="translate(269.12625 343.705) scale(0.14 -0.14)">
       <defs>
        <path id="SimHei-35" d="M 550 1325 
Q 725 650 1150 575 
Q 1575 500 1837 662 
Q 2100 825 2212 1087 
Q 2325 1350 2312 1675 
Q 2300 2000 2137 2225 
Q 1975 2450 1725 2525 
Q 1475 2600 1162 2525 
Q 850 2450 650 2175 
L 225 2225 
Q 275 2375 700 4375 
L 2675 4375 
L 2675 3925 
L 1075 3925 
Q 950 3250 825 2850 
Q 1200 3025 1525 3012 
Q 1850 3000 2150 2862 
Q 2450 2725 2587 2487 
Q 2725 2250 2787 2012 
Q 2850 1775 2837 1500 
Q 2825 1225 2725 937 
Q 2625 650 2425 462 
Q 2225 275 1937 162 
Q 1650 50 1275 75 
Q 900 100 562 350 
Q 225 600 100 1200 
L 550 1325 
z
" transform="scale(0.015625)"/>
       </defs>
       <use xlink:href="#SimHei-35"/>
      </g>
     </g>
    </g>
    <g id="xtick_6">
     <g id="line2d_6">
      <g>
       <use xlink:href="#md3c6fa7b77" x="330.84375" y="327.08" style="stroke: #000000; stroke-width: 0.8"/>
      </g>
     </g>
     <g id="text_6">
      <!-- 6 -->
      <g transform="translate(327.34375 343.705) scale(0.14 -0.14)">
       <defs>
        <path id="SimHei-36" d="M 250 1612 
Q 275 1975 387 2225 
Q 500 2475 725 2850 
L 1750 4450 
L 2325 4450 
L 1275 2800 
Q 1950 2975 2350 2750 
Q 2750 2525 2887 2237 
Q 3025 1950 3037 1612 
Q 3050 1275 2937 950 
Q 2825 625 2537 362 
Q 2250 100 1737 75 
Q 1225 50 862 262 
Q 500 475 362 862 
Q 225 1250 250 1612 
z
M 1025 787 
Q 1250 550 1625 525 
Q 2000 500 2250 775 
Q 2500 1050 2500 1575 
Q 2500 2100 2187 2300 
Q 1875 2500 1487 2450 
Q 1100 2400 925 2075 
Q 750 1750 775 1387 
Q 800 1025 1025 787 
z
" transform="scale(0.015625)"/>
       </defs>
       <use xlink:href="#SimHei-36"/>
      </g>
     </g>
    </g>
   </g>
   <g id="matplotlib.axis_2">
    <g id="ytick_1">
     <g id="line2d_7">
      <defs>
       <path id="m8809e969eb" d="M 0 0 
L -3.5 0 
" style="stroke: #000000; stroke-width: 0.8"/>
      </defs>
      <g>
       <use xlink:href="#m8809e969eb" x="39.75625" y="327.08" style="stroke: #000000; stroke-width: 0.8"/>
      </g>
     </g>
     <g id="text_7">
      <!-- 1 -->
      <g transform="translate(25.75625 331.8925) scale(0.14 -0.14)">
       <use xlink:href="#SimHei-31"/>
      </g>
     </g>
    </g>
    <g id="ytick_2">
     <g id="line2d_8">
      <g>
       <use xlink:href="#m8809e969eb" x="39.75625" y="268.8625" style="stroke: #000000; stroke-width: 0.8"/>
      </g>
     </g>
     <g id="text_8">
      <!-- 2 -->
      <g transform="translate(25.75625 273.675) scale(0.14 -0.14)">
       <use xlink:href="#SimHei-32"/>
      </g>
     </g>
    </g>
    <g id="ytick_3">
     <g id="line2d_9">
      <g>
       <use xlink:href="#m8809e969eb" x="39.75625" y="210.645" style="stroke: #000000; stroke-width: 0.8"/>
      </g>
     </g>
     <g id="text_9">
      <!-- 3 -->
      <g transform="translate(25.75625 215.4575) scale(0.14 -0.14)">
       <use xlink:href="#SimHei-33"/>
      </g>
     </g>
    </g>
    <g id="ytick_4">
     <g id="line2d_10">
      <g>
       <use xlink:href="#m8809e969eb" x="39.75625" y="152.4275" style="stroke: #000000; stroke-width: 0.8"/>
      </g>
     </g>
     <g id="text_10">
      <!-- 4 -->
      <g transform="translate(25.75625 157.24) scale(0.14 -0.14)">
       <use xlink:href="#SimHei-34"/>
      </g>
     </g>
    </g>
    <g id="ytick_5">
     <g id="line2d_11">
      <g>
       <use xlink:href="#m8809e969eb" x="39.75625" y="94.21" style="stroke: #000000; stroke-width: 0.8"/>
      </g>
     </g>
     <g id="text_11">
      <!-- 5 -->
      <g transform="translate(25.75625 99.0225) scale(0.14 -0.14)">
       <use xlink:href="#SimHei-35"/>
      </g>
     </g>
    </g>
    <g id="ytick_6">
     <g id="line2d_12">
      <g>
       <use xlink:href="#m8809e969eb" x="39.75625" y="35.9925" style="stroke: #000000; stroke-width: 0.8"/>
      </g>
     </g>
     <g id="text_12">
      <!-- 6 -->
      <g transform="translate(25.75625 40.805) scale(0.14 -0.14)">
       <use xlink:href="#SimHei-36"/>
      </g>
     </g>
    </g>
   </g>
   <g id="line2d_13">
    <path d="M 156.19125 210.645 
L 272.62625 210.645 
" clip-path="url(#p9bebe5ada2)" style="fill: none; stroke: #0000ff; stroke-width: 1.5; stroke-linecap: square"/>
   </g>
   <g id="line2d_14">
    <path d="M 156.19125 210.645 
L 214.40875 109.809332 
" clip-path="url(#p9bebe5ada2)" style="fill: none; stroke: #008000; stroke-width: 1.5; stroke-linecap: square"/>
   </g>
   <g id="line2d_15">
    <defs>
     <path id="m9bd6f0af86" d="M 0 3 
C 0.795609 3 1.55874 2.683901 2.12132 2.12132 
C 2.683901 1.55874 3 0.795609 3 0 
C 3 -0.795609 2.683901 -1.55874 2.12132 -2.12132 
C 1.55874 -2.683901 0.795609 -3 0 -3 
C -0.795609 -3 -1.55874 -2.683901 -2.12132 -2.12132 
C -2.683901 -1.55874 -3 -0.795609 -3 0 
C -3 0.795609 -2.683901 1.55874 -2.12132 2.12132 
C -1.55874 2.683901 -0.795609 3 0 3 
z
" style="stroke: #000000"/>
    </defs>
    <g clip-path="url(#p9bebe5ada2)">
     <use xlink:href="#m9bd6f0af86" x="156.19125" y="210.645" style="stroke: #000000"/>
    </g>
   </g>
   <g id="line2d_16">
    <defs>
     <path id="mdc2451fa38" d="M 0 3 
C 0.795609 3 1.55874 2.683901 2.12132 2.12132 
C 2.683901 1.55874 3 0.795609 3 0 
C 3 -0.795609 2.683901 -1.55874 2.12132 -2.12132 
C 1.55874 -2.683901 0.795609 -3 0 -3 
C -0.795609 -3 -1.55874 -2.683901 -2.12132 -2.12132 
C -2.683901 -1.55874 -3 -0.795609 -3 0 
C -3 0.795609 -2.683901 1.55874 -2.12132 2.12132 
C -1.55874 2.683901 -0.795609 3 0 3 
z
" style="stroke: #ff0000"/>
    </defs>
    <g clip-path="url(#p9bebe5ada2)">
     <use xlink:href="#mdc2451fa38" x="272.62625" y="210.645" style="fill: #ff0000; stroke: #ff0000"/>
    </g>
   </g>
   <g id="line2d_17">
    <defs>
     <path id="me65fc6289e" d="M 0 3 
C 0.795609 3 1.55874 2.683901 2.12132 2.12132 
C 2.683901 1.55874 3 0.795609 3 0 
C 3 -0.795609 2.683901 -1.55874 2.12132 -2.12132 
C 1.55874 -2.683901 0.795609 -3 0 -3 
C -0.795609 -3 -1.55874 -2.683901 -2.12132 -2.12132 
C -2.683901 -1.55874 -3 -0.795609 -3 0 
C -3 0.795609 -2.683901 1.55874 -2.12132 2.12132 
C -1.55874 2.683901 -0.795609 3 0 3 
z
" style="stroke: #bf00bf"/>
    </defs>
    <g clip-path="url(#p9bebe5ada2)">
     <use xlink:href="#me65fc6289e" x="214.40875" y="109.809332" style="fill: #bf00bf; stroke: #bf00bf"/>
    </g>
   </g>
   <g id="patch_4">
    <path d="M 39.75625 327.08 
L 39.75625 35.9925 
" style="fill: none; stroke: #000000; stroke-width: 0.8; stroke-linejoin: miter; stroke-linecap: square"/>
   </g>
   <g id="patch_5">
    <path d="M 330.84375 327.08 
L 330.84375 35.9925 
" style="fill: none; stroke: #000000; stroke-width: 0.8; stroke-linejoin: miter; stroke-linecap: square"/>
   </g>
   <g id="patch_6">
    <path d="M 39.75625 327.08 
L 330.84375 327.08 
" style="fill: none; stroke: #000000; stroke-width: 0.8; stroke-linejoin: miter; stroke-linecap: square"/>
   </g>
   <g id="patch_7">
    <path d="M 39.75625 35.9925 
L 330.84375 35.9925 
" style="fill: none; stroke: #000000; stroke-width: 0.8; stroke-linejoin: miter; stroke-linecap: square"/>
   </g>
   <g id="patch_8">
    <path d="M 157.191508 208.912502 
Q 185.299862 160.227405 212.290183 113.478799 
" style="fill: none; stroke: #008000; stroke-width: 2; stroke-linecap: round"/>
    <path d="M 207.065311 116.928541 
L 212.290183 113.478799 
L 211.915054 119.728541 
" style="fill: none; stroke: #008000; stroke-width: 2; stroke-linecap: round"/>
   </g>
   <g id="patch_9">
    <path d="M 158.191766 210.645 
Q 214.408475 210.645 268.389115 210.645 
" style="fill: none; stroke: #0000ff; stroke-width: 2; stroke-linecap: round"/>
    <path d="M 262.789115 207.845 
L 268.389115 210.645 
L 262.789115 213.445 
" style="fill: none; stroke: #0000ff; stroke-width: 2; stroke-linecap: round"/>
   </g>
   <g id="text_13">
    <!-- $\theta$ -->
    <g style="fill: #800080" transform="translate(220.2305 193.17975) scale(0.16 -0.16)">
     <defs>
      <path id="DejaVuSans-Oblique-3b8" d="M 2913 2219 
L 925 2219 
Q 791 1284 928 888 
Q 1100 400 1566 400 
Q 2034 400 2391 891 
Q 2703 1322 2913 2219 
z
M 3009 2750 
Q 3094 3638 2984 3950 
Q 2813 4444 2353 4444 
Q 1875 4444 1525 3956 
Q 1250 3563 1034 2750 
L 3009 2750 
z
M 2444 4913 
Q 3194 4913 3494 4250 
Q 3794 3591 3566 2422 
Q 3341 1256 2781 594 
Q 2225 -72 1475 -72 
Q 722 -72 425 594 
Q 128 1256 353 2422 
Q 581 3591 1134 4250 
Q 1691 4913 2444 4913 
z
" transform="scale(0.015625)"/>
     </defs>
     <use xlink:href="#DejaVuSans-Oblique-3b8" transform="translate(0 0.234375)"/>
    </g>
   </g>
   <g id="text_14">
    <!-- O -->
    <g transform="translate(152.19125 228.11025) scale(0.16 -0.16)">
     <defs>
      <path id="SimHei-4f" d="M 2950 2275 
Q 2950 1100 2587 587 
Q 2225 75 1575 75 
Q 925 75 550 587 
Q 175 1100 175 2275 
Q 175 3450 550 3950 
Q 925 4450 1575 4450 
Q 2225 4450 2587 3950 
Q 2950 3450 2950 2275 
z
M 2350 2275 
Q 2350 3325 2125 3650 
Q 1900 3975 1575 3975 
Q 1250 3975 1012 3650 
Q 775 3325 775 2275 
Q 775 1225 1012 887 
Q 1250 550 1575 550 
Q 1900 550 2125 887 
Q 2350 1225 2350 2275 
z
" transform="scale(0.015625)"/>
     </defs>
     <use xlink:href="#SimHei-4f"/>
    </g>
   </g>
   <g id="text_15">
    <!-- P -->
    <g style="fill: #ff0000" transform="translate(284.26975 210.645) scale(0.16 -0.16)">
     <defs>
      <path id="SimHei-50" d="M 2950 3100 
Q 2950 2500 2600 2150 
Q 2250 1800 1625 1800 
L 900 1800 
L 900 125 
L 325 125 
L 325 4400 
L 1625 4400 
Q 2250 4400 2600 4050 
Q 2950 3700 2950 3100 
z
M 2375 3100 
Q 2375 3575 2150 3750 
Q 1925 3925 1475 3925 
L 900 3925 
L 900 2275 
L 1475 2275 
Q 1925 2275 2150 2450 
Q 2375 2625 2375 3100 
z
" transform="scale(0.015625)"/>
     </defs>
     <use xlink:href="#SimHei-50"/>
    </g>
   </g>
   <g id="text_16">
    <!-- Q -->
    <g style="fill: #ff00ff" transform="translate(226.05225 109.809332) scale(0.16 -0.16)">
     <defs>
      <path id="SimHei-51" d="M 2950 2275 
Q 2950 1675 2862 1262 
Q 2775 850 2575 600 
L 2775 225 
L 2375 -200 
L 2150 225 
Q 2050 150 1900 112 
Q 1750 75 1575 75 
Q 925 75 550 587 
Q 175 1100 175 2275 
Q 175 3450 550 3950 
Q 925 4450 1575 4450 
Q 2225 4450 2587 3950 
Q 2950 3450 2950 2275 
z
M 2350 2275 
Q 2350 3325 2125 3650 
Q 1900 3975 1575 3975 
Q 1250 3975 1012 3650 
Q 775 3325 775 2275 
Q 775 1225 1012 887 
Q 1250 550 1575 550 
Q 1700 550 1800 587 
Q 1900 625 1950 675 
L 1550 1450 
L 1900 1875 
L 2250 1200 
Q 2300 1450 2325 1650 
Q 2350 1850 2350 2275 
z
" transform="scale(0.015625)"/>
     </defs>
     <use xlink:href="#SimHei-51"/>
    </g>
   </g>
   <g id="text_17">
    <!-- 点绕点逆时针旋转 -->
    <g transform="translate(113.3 29.9925) scale(0.18 -0.18)">
     <defs>
      <path id="SimHei-70b9" d="M 3325 5200 
Q 3300 4925 3300 4375 
L 4900 4375 
Q 5275 4375 5725 4400 
L 5725 3925 
Q 5300 3950 4900 3950 
L 3300 3950 
L 3300 3225 
L 5225 3225 
Q 5200 2700 5200 2150 
Q 5200 1625 5225 1175 
L 1175 1175 
Q 1200 1625 1200 2175 
Q 1200 2725 1175 3225 
L 2775 3225 
L 2775 4500 
Q 2775 4900 2750 5200 
L 3325 5200 
z
M 4700 1600 
L 4700 2800 
L 1725 2800 
L 1725 1600 
L 4700 1600 
z
M 1500 750 
Q 1025 -250 825 -625 
Q 625 -475 325 -375 
Q 650 50 950 925 
Q 1200 800 1500 750 
z
M 5325 850 
Q 5775 150 6075 -350 
Q 5925 -425 5575 -625 
Q 5375 -150 4900 575 
Q 5150 700 5325 850 
z
M 3975 -575 
Q 3775 -100 3400 575 
Q 3575 675 3825 825 
Q 4350 -75 4450 -325 
Q 4200 -450 3975 -575 
z
M 2375 -575 
Q 2350 -300 1975 550 
Q 2200 625 2425 775 
Q 2800 -75 2900 -350 
Q 2625 -450 2375 -575 
z
" transform="scale(0.015625)"/>
      <path id="SimHei-7ed5" d="M 2300 2675 
Q 2900 2725 3850 3125 
Q 3575 3525 3475 3975 
Q 2925 3850 2600 3700 
L 2325 4125 
Q 2800 4200 3375 4325 
Q 3275 4725 3200 5175 
Q 3450 5175 3725 5200 
Q 3650 4975 3800 4425 
Q 4950 4675 5550 4900 
L 5600 4475 
Q 4475 4225 3900 4050 
Q 3975 3700 4200 3350 
Q 4950 3725 5225 4050 
Q 5350 3850 5600 3650 
Q 5375 3550 5100 3400 
Q 4825 3250 4425 3025 
Q 5200 2250 5362 2537 
Q 5525 2825 5525 3025 
Q 5725 2900 6025 2800 
Q 5700 2075 5425 2012 
Q 5150 1950 4787 2162 
Q 4425 2375 4050 2825 
Q 3300 2450 2650 2250 
Q 2550 2475 2300 2675 
z
M 4775 250 
Q 4750 -125 5075 -75 
L 5450 -75 
Q 5625 -75 5650 575 
Q 5875 425 6200 375 
Q 6050 -200 5912 -325 
Q 5775 -450 5550 -450 
L 4850 -450 
Q 4375 -475 4350 75 
L 4350 1475 
L 3675 1475 
Q 3675 625 3300 150 
Q 2925 -325 2250 -650 
Q 2175 -425 1875 -200 
Q 2625 50 2925 450 
Q 3225 850 3225 1475 
Q 2775 1475 2425 1450 
L 2425 1875 
Q 2925 1850 3325 1850 
L 5125 1850 
Q 5425 1850 5900 1875 
L 5900 1450 
Q 5425 1475 4775 1475 
L 4775 250 
z
M 200 3175 
Q 500 3325 825 3912 
Q 1150 4500 1325 5125 
Q 1550 4975 1875 4850 
Q 1675 4700 1425 4237 
Q 1175 3775 775 3175 
Q 1025 3175 1675 3200 
Q 1825 3450 1900 3775 
Q 2150 3625 2450 3550 
Q 2250 3375 1987 2912 
Q 1725 2450 1125 1625 
Q 1500 1675 2225 1750 
Q 2150 1550 2125 1350 
Q 1175 1275 650 1150 
Q 600 1375 450 1600 
Q 725 1700 975 2037 
Q 1225 2375 1475 2875 
Q 1175 2850 912 2825 
Q 650 2800 400 2725 
Q 325 2975 200 3175 
z
M 300 375 
Q 775 400 1262 487 
Q 1750 575 2350 725 
Q 2325 525 2325 325 
Q 1925 250 1425 137 
Q 925 25 525 -150 
Q 425 150 300 375 
z
" transform="scale(0.015625)"/>
      <path id="SimHei-9006" d="M 6000 -525 
Q 4950 -550 4237 -525 
Q 3525 -500 3050 -450 
Q 2575 -400 2287 -300 
Q 2000 -200 1687 -25 
Q 1375 150 1162 -50 
Q 950 -250 725 -525 
Q 550 -325 275 -150 
Q 850 225 1150 450 
L 1150 2575 
Q 825 2575 425 2550 
L 425 3000 
Q 825 2975 1125 2975 
L 1625 2975 
Q 1600 2475 1600 1875 
L 1600 525 
Q 1975 150 2725 25 
Q 2600 300 2375 500 
Q 2950 650 3262 925 
Q 3575 1200 3650 1525 
L 2350 1525 
Q 2375 1850 2375 2275 
Q 2375 2725 2350 3025 
L 2850 3025 
Q 2825 2650 2825 1925 
L 3700 1925 
Q 3725 2250 3775 3600 
L 3050 3600 
Q 2475 3600 2100 3575 
L 2100 4025 
Q 2325 4000 3050 3975 
L 4275 3975 
Q 4625 4850 4725 5250 
Q 4975 5125 5300 5000 
Q 5150 4900 4725 3975 
L 5300 3975 
Q 5825 4000 6025 4000 
L 6025 3600 
L 4225 3600 
Q 4200 2400 4175 1925 
L 5175 1925 
Q 5175 2650 5150 3000 
L 5625 3000 
Q 5600 2675 5600 2100 
Q 5600 1525 5625 1175 
L 5175 1175 
L 5175 1525 
L 4125 1525 
Q 4000 1025 3687 687 
Q 3375 350 2875 25 
Q 3175 -50 3700 -50 
Q 5225 -100 6200 50 
Q 6025 -225 6000 -525 
z
M 1200 4975 
Q 1550 4125 1675 3850 
Q 1400 3775 1175 3675 
Q 1100 3900 775 4775 
Q 950 4875 1200 4975 
z
M 3075 5200 
Q 3475 4525 3550 4375 
Q 3325 4275 3150 4125 
Q 3000 4400 2675 4925 
Q 2850 5075 3075 5200 
z
" transform="scale(0.015625)"/>
      <path id="SimHei-65f6" d="M 2525 4575 
Q 2500 3675 2500 2400 
Q 2500 1125 2525 400 
L 2000 400 
L 2000 875 
L 1000 875 
L 1000 50 
L 475 50 
Q 500 1200 500 2350 
Q 500 3525 475 4575 
L 2525 4575 
z
M 4875 3825 
Q 4875 4575 4850 5225 
L 5400 5225 
Q 5375 4575 5375 3825 
Q 5750 3825 6175 3850 
L 6175 3375 
Q 5750 3400 5375 3400 
L 5375 50 
Q 5375 -325 5075 -425 
Q 4775 -525 4300 -575 
Q 4300 -275 4025 0 
Q 4500 -50 4687 -25 
Q 4875 0 4875 300 
L 4875 3400 
Q 3625 3400 2775 3375 
L 2775 3850 
Q 3575 3825 4875 3825 
z
M 2000 1300 
L 2000 2550 
L 1000 2550 
L 1000 1300 
L 2000 1300 
z
M 2000 2975 
L 2000 4150 
L 1000 4150 
L 1000 2975 
L 2000 2975 
z
M 3550 2725 
Q 3875 2200 4175 1600 
Q 3925 1525 3650 1375 
Q 3450 1975 3075 2500 
Q 3300 2600 3550 2725 
z
" transform="scale(0.015625)"/>
      <path id="SimHei-9488" d="M 1250 -100 
Q 1425 200 1425 550 
L 1425 1600 
L 1075 1600 
Q 850 1600 475 1575 
L 475 2050 
Q 850 2025 1050 2025 
L 1425 2025 
L 1425 2725 
Q 1250 2725 850 2700 
L 850 3125 
L 575 2775 
Q 425 2950 200 3050 
Q 850 3850 1100 4375 
Q 1350 4900 1450 5200 
Q 1625 5075 1950 4975 
Q 1825 4850 1575 4400 
L 2150 4400 
Q 2550 4400 2925 4425 
L 2925 3950 
Q 2550 3975 2150 3975 
L 1375 3975 
Q 1200 3650 850 3175 
Q 1225 3150 1575 3150 
L 1975 3150 
Q 2300 3150 2675 3175 
L 2675 2700 
Q 2200 2725 1875 2725 
L 1875 2025 
L 2275 2025 
Q 2550 2025 2875 2050 
L 2875 1575 
Q 2475 1600 2300 1600 
L 1875 1600 
L 1875 350 
Q 2625 875 2900 1100 
Q 2950 875 3025 600 
Q 2750 400 2350 125 
Q 1950 -150 1600 -525 
Q 1400 -300 1250 -100 
z
M 4225 3150 
L 4225 4375 
Q 4225 4575 4200 5050 
L 4725 5050 
Q 4700 4725 4700 4375 
L 4700 3150 
L 5425 3150 
Q 5725 3150 6075 3175 
L 6075 2700 
Q 5700 2725 5450 2725 
L 4700 2725 
L 4700 275 
Q 4700 100 4725 -525 
L 4200 -525 
Q 4225 -100 4225 250 
L 4225 2725 
L 3525 2725 
Q 3375 2725 2900 2700 
L 2900 3175 
Q 3200 3150 3450 3150 
L 4225 3150 
z
" transform="scale(0.015625)"/>
      <path id="SimHei-65cb" d="M 4225 5050 
Q 4025 4900 3850 4400 
L 5450 4400 
Q 5850 4400 6175 4425 
L 6175 4000 
Q 5875 4025 5450 4025 
L 3700 4025 
Q 3525 3675 3375 3425 
Q 3800 3400 4175 3400 
L 6125 3400 
Q 5825 2650 5750 2325 
Q 5525 2400 5275 2450 
L 5475 3000 
L 4675 3000 
L 4675 1825 
Q 5350 1825 5825 1850 
L 5825 1400 
Q 5375 1425 4675 1425 
L 4675 100 
Q 5300 -25 6150 25 
Q 6025 -200 5925 -550 
Q 5325 -525 4775 -412 
Q 4225 -300 3887 12 
Q 3550 325 3375 625 
Q 3100 -150 2675 -675 
Q 2450 -500 2175 -400 
Q 2500 -100 2700 250 
Q 2900 600 3000 987 
Q 3100 1375 3125 2350 
Q 3375 2300 3675 2275 
Q 3425 1375 3650 937 
Q 3875 500 4225 275 
L 4225 3000 
Q 3800 3000 3350 2975 
L 3350 3350 
Q 3175 2975 3000 2750 
Q 2825 2925 2575 3050 
Q 2925 3550 3175 4075 
Q 3425 4600 3600 5300 
Q 3875 5150 4225 5050 
z
M 2825 3675 
Q 2275 3700 1525 3700 
L 1500 2775 
L 2550 2775 
Q 2500 2325 2500 1925 
L 2425 550 
Q 2325 150 2112 25 
Q 1900 -100 1525 -200 
Q 1475 100 1300 375 
Q 1575 375 1787 412 
Q 2000 450 2025 1225 
L 2075 2400 
L 1475 2400 
Q 1375 1475 1275 1112 
Q 1175 750 1037 412 
Q 900 75 675 -325 
Q 425 -175 200 -75 
Q 475 325 662 787 
Q 850 1250 937 1762 
Q 1025 2275 1050 3700 
Q 700 3700 400 3675 
L 400 4100 
Q 825 4075 1525 4075 
Q 2225 4075 2825 4100 
L 2825 3675 
z
M 1875 5250 
Q 2075 4775 2200 4425 
Q 1925 4375 1700 4250 
Q 1550 4825 1425 5100 
Q 1625 5175 1875 5250 
z
" transform="scale(0.015625)"/>
      <path id="SimHei-8f6c" d="M 4975 -675 
Q 4550 -325 4000 37 
Q 3450 400 3025 575 
Q 3175 750 3300 950 
Q 3575 800 4100 500 
Q 4600 1100 5000 1600 
L 3225 1600 
L 3525 2650 
L 3400 2650 
Q 3100 2650 2725 2625 
L 2725 3075 
Q 3050 3050 3350 3050 
L 3625 3050 
L 3800 3825 
L 3575 3825 
Q 3125 3825 2900 3800 
L 2900 4250 
Q 3275 4200 3500 4200 
L 3850 4200 
Q 3950 4775 3975 5175 
L 4575 5075 
Q 4450 4875 4412 4700 
Q 4375 4525 4300 4200 
L 5200 4200 
Q 5525 4200 5825 4225 
L 5825 3800 
Q 5400 3825 5125 3825 
L 4250 3825 
L 4075 3050 
L 5125 3050 
Q 5525 3050 6025 3075 
L 6025 2625 
Q 5550 2650 5075 2650 
L 3975 2650 
L 3800 1950 
L 5700 1950 
L 5700 1550 
Q 5525 1450 5237 1150 
Q 4950 850 4500 250 
Q 4925 -25 5275 -275 
L 4975 -675 
z
M 2025 1300 
Q 2350 1350 2725 1400 
L 2725 975 
Q 2500 950 2025 875 
Q 2025 -125 2050 -575 
L 1550 -575 
Q 1575 200 1575 775 
Q 575 625 300 550 
Q 250 825 200 1075 
Q 550 1100 1575 1200 
L 1575 2050 
Q 775 2050 425 1950 
L 250 2450 
Q 475 2625 662 3025 
Q 850 3425 975 3850 
Q 725 3850 275 3825 
L 275 4275 
Q 675 4250 1075 4250 
Q 1250 4775 1300 5175 
Q 1725 5050 1875 5000 
Q 1725 4750 1525 4250 
L 2600 4250 
L 2600 3825 
Q 2200 3850 1925 3850 
L 1425 3850 
Q 1300 3475 850 2450 
L 1575 2450 
Q 1575 3000 1550 3350 
L 2050 3350 
Q 2025 3050 2025 2450 
Q 2350 2450 2650 2475 
L 2650 2025 
Q 2375 2050 2025 2050 
L 2025 1300 
z
" transform="scale(0.015625)"/>
     </defs>
     <use xlink:href="#SimHei-70b9"/>
     <use xlink:href="#SimHei-7ed5" transform="translate(100 0)"/>
     <use xlink:href="#SimHei-70b9" transform="translate(200 0)"/>
     <use xlink:href="#SimHei-9006" transform="translate(300 0)"/>
     <use xlink:href="#SimHei-65f6" transform="translate(400 0)"/>
     <use xlink:href="#SimHei-9488" transform="translate(500 0)"/>
     <use xlink:href="#SimHei-65cb" transform="translate(600 0)"/>
     <use xlink:href="#SimHei-8f6c" transform="translate(700 0)"/>
    </g>
   </g>
   <g id="legend_1">
    <g id="patch_10">
     <path d="M 49.55625 144.065938 
L 136.35625 144.065938 
Q 139.15625 144.065938 139.15625 141.265938 
L 139.15625 45.7925 
Q 139.15625 42.9925 136.35625 42.9925 
L 49.55625 42.9925 
Q 46.75625 42.9925 46.75625 45.7925 
L 46.75625 141.265938 
Q 46.75625 144.065938 49.55625 144.065938 
z
" style="fill: #ffffff; opacity: 0.8; stroke: #cccccc; stroke-linejoin: miter"/>
    </g>
    <g id="line2d_18">
     <path d="M 52.35625 54.84875 
L 66.35625 54.84875 
L 80.35625 54.84875 
" style="fill: none; stroke: #0000ff; stroke-width: 1.5; stroke-linecap: square"/>
    </g>
    <g id="text_18">
     <!-- 原始 -->
     <g transform="translate(91.55625 59.74875) scale(0.14 -0.14)">
      <defs>
       <path id="SimHei-539f" d="M 3850 4275 
Q 3675 4025 3600 3700 
L 5450 3700 
Q 5425 3475 5425 3000 
L 5425 2225 
Q 5425 1825 5450 1475 
L 4050 1475 
L 4050 -50 
Q 4050 -400 3825 -487 
Q 3600 -575 3100 -625 
Q 3050 -325 2925 -50 
Q 3400 -75 3475 -37 
Q 3550 0 3550 175 
L 3550 1475 
L 2125 1475 
Q 2150 1775 2150 2200 
L 2150 3025 
Q 2150 3425 2125 3700 
L 3150 3700 
Q 3300 4250 3300 4425 
L 3850 4275 
z
M 275 -325 
Q 725 275 875 1037 
Q 1025 1800 1025 2300 
L 1025 4125 
Q 1025 4650 1000 4900 
L 5025 4900 
Q 5575 4900 5800 4925 
L 5800 4475 
Q 5600 4500 5025 4500 
L 1525 4500 
L 1525 2375 
Q 1500 1650 1412 1112 
Q 1325 575 1137 125 
Q 950 -325 800 -575 
Q 550 -400 275 -325 
z
M 4925 2775 
L 4925 3325 
L 2625 3325 
L 2625 2775 
L 4925 2775 
z
M 4925 1875 
L 4925 2400 
L 2625 2400 
L 2625 1875 
L 4925 1875 
z
M 1475 -50 
Q 1800 150 2087 450 
Q 2375 750 2575 1100 
Q 2800 875 2975 750 
Q 2300 -50 1825 -400 
Q 1675 -225 1475 -50 
z
M 4825 1075 
Q 5700 300 5925 25 
Q 5750 -125 5575 -325 
Q 5250 75 4500 725 
Q 4675 925 4825 1075 
z
" transform="scale(0.015625)"/>
       <path id="SimHei-59cb" d="M 1750 5075 
Q 1650 4900 1587 4587 
Q 1525 4275 1475 3875 
L 2550 3875 
Q 2400 2150 1950 1100 
Q 2275 850 2725 425 
Q 2550 275 2375 50 
Q 2000 500 1750 675 
Q 1525 275 1250 -62 
Q 975 -400 700 -675 
Q 600 -525 250 -350 
Q 575 -125 862 200 
Q 1150 525 1375 975 
Q 800 1400 500 1550 
Q 875 2925 950 3425 
Q 650 3425 325 3400 
L 325 3900 
Q 675 3875 1025 3875 
Q 1175 4825 1175 5225 
Q 1550 5125 1750 5075 
z
M 5725 2050 
Q 5700 1650 5700 650 
Q 5700 -325 5725 -650 
L 5200 -650 
L 5200 -100 
L 3450 -100 
L 3450 -675 
L 2950 -675 
Q 2975 -300 2975 675 
Q 2975 1650 2950 2050 
L 5725 2050 
z
M 4400 4950 
Q 3750 3875 3250 3150 
Q 3875 3150 4250 3175 
Q 4625 3200 5200 3225 
Q 4875 3675 4625 3900 
Q 4825 4000 5025 4225 
Q 5750 3300 6125 2850 
Q 6000 2775 5725 2550 
Q 5575 2775 5450 2875 
Q 4575 2825 3937 2762 
Q 3300 2700 2825 2575 
Q 2775 2800 2600 3100 
Q 2875 3225 3237 3850 
Q 3600 4475 3825 5200 
Q 4025 5050 4400 4950 
z
M 5200 325 
L 5200 1600 
L 3450 1600 
L 3450 325 
L 5200 325 
z
M 1025 1775 
Q 1300 1550 1575 1400 
Q 1725 1725 1875 2337 
Q 2025 2950 2050 3425 
L 1400 3425 
Q 1300 2950 1025 1775 
z
" transform="scale(0.015625)"/>
      </defs>
      <use xlink:href="#SimHei-539f"/>
      <use xlink:href="#SimHei-59cb" transform="translate(100 0)"/>
     </g>
    </g>
    <g id="line2d_19">
     <path d="M 52.35625 74.919063 
L 66.35625 74.919063 
L 80.35625 74.919063 
" style="fill: none; stroke: #008000; stroke-width: 1.5; stroke-linecap: square"/>
    </g>
    <g id="text_19">
     <!-- 旋转后 -->
     <g transform="translate(91.55625 79.819063) scale(0.14 -0.14)">
      <defs>
       <path id="SimHei-540e" d="M 5475 2150 
Q 5450 1750 5450 775 
Q 5450 -175 5500 -550 
L 4975 -550 
L 4975 -25 
L 2525 -25 
L 2525 -600 
L 2025 -600 
Q 2050 -175 2050 775 
Q 2050 1750 2025 2150 
L 5475 2150 
z
M 5175 5075 
Q 5300 4800 5525 4525 
Q 4950 4475 3750 4337 
Q 2550 4200 1575 4175 
L 1575 3375 
L 5200 3375 
Q 5550 3375 5975 3400 
L 5975 2900 
Q 5575 2925 5200 2925 
L 1575 2925 
Q 1550 2425 1487 1875 
Q 1425 1325 1250 712 
Q 1075 100 800 -325 
Q 650 -200 225 -50 
Q 625 325 825 1062 
Q 1025 1800 1050 2825 
Q 1075 3850 1075 4575 
Q 2300 4600 3625 4775 
Q 4950 4950 5175 5075 
z
M 4975 375 
L 4975 1725 
L 2525 1725 
L 2525 375 
L 4975 375 
z
" transform="scale(0.015625)"/>
      </defs>
      <use xlink:href="#SimHei-65cb"/>
      <use xlink:href="#SimHei-8f6c" transform="translate(100 0)"/>
      <use xlink:href="#SimHei-540e" transform="translate(200 0)"/>
     </g>
    </g>
    <g id="line2d_20">
     <g>
      <use xlink:href="#m9bd6f0af86" x="66.35625" y="94.715938" style="stroke: #000000"/>
     </g>
    </g>
    <g id="text_20">
     <!-- 中心O -->
     <g transform="translate(91.55625 99.615938) scale(0.14 -0.14)">
      <defs>
       <path id="SimHei-4e2d" d="M 3475 5200 
Q 3450 4500 3450 3875 
L 5625 3875 
Q 5600 3375 5600 2500 
Q 5600 1650 5625 1225 
L 5075 1225 
L 5075 1600 
L 3450 1600 
L 3450 525 
Q 3450 225 3475 -600 
L 2875 -600 
Q 2925 -150 2925 450 
L 2925 1600 
L 1300 1600 
L 1300 1225 
L 750 1225 
Q 775 1600 775 2500 
Q 775 3425 750 3875 
L 2925 3875 
Q 2925 4550 2900 5200 
L 3475 5200 
z
M 5075 2000 
L 5075 3475 
L 3450 3475 
L 3450 2000 
L 5075 2000 
z
M 2925 2000 
L 2925 3475 
L 1300 3475 
L 1300 2000 
L 2925 2000 
z
" transform="scale(0.015625)"/>
       <path id="SimHei-5fc3" d="M 2700 3425 
Q 2675 3125 2675 2525 
L 2675 375 
Q 2675 75 2975 75 
L 4150 75 
Q 4425 50 4512 212 
Q 4600 375 4650 950 
Q 4900 750 5225 675 
Q 5050 -125 4875 -287 
Q 4700 -450 4450 -425 
L 2625 -425 
Q 2175 -425 2125 125 
L 2125 2500 
Q 2125 3000 2100 3425 
L 2700 3425 
z
M 1475 3075 
Q 1400 2925 1275 2287 
Q 1150 1650 925 750 
Q 625 850 325 900 
Q 675 1900 850 3200 
Q 1075 3150 1475 3075 
z
M 5075 3300 
Q 5650 2500 6175 1700 
Q 5900 1575 5650 1350 
Q 5125 2350 4625 3000 
Q 4850 3125 5075 3300 
z
M 3050 5250 
Q 3325 4775 3925 3925 
Q 3625 3775 3375 3600 
Q 2975 4425 2600 4950 
Q 2825 5075 3050 5250 
z
" transform="scale(0.015625)"/>
      </defs>
      <use xlink:href="#SimHei-4e2d"/>
      <use xlink:href="#SimHei-5fc3" transform="translate(100 0)"/>
      <use xlink:href="#SimHei-4f" transform="translate(200 0)"/>
     </g>
    </g>
    <g id="line2d_21">
     <g>
      <use xlink:href="#mdc2451fa38" x="66.35625" y="113.265938" style="fill: #ff0000; stroke: #ff0000"/>
     </g>
    </g>
    <g id="text_21">
     <!-- P -->
     <g transform="translate(91.55625 118.165938) scale(0.14 -0.14)">
      <use xlink:href="#SimHei-50"/>
     </g>
    </g>
    <g id="line2d_22">
     <g>
      <use xlink:href="#me65fc6289e" x="66.35625" y="131.815938" style="fill: #bf00bf; stroke: #bf00bf"/>
     </g>
    </g>
    <g id="text_22">
     <!-- Q -->
     <g transform="translate(91.55625 136.715938) scale(0.14 -0.14)">
      <use xlink:href="#SimHei-51"/>
     </g>
    </g>
   </g>
  </g>
 </g>
 <defs>
  <clipPath id="p9bebe5ada2">
   <rect x="39.75625" y="35.9925" width="291.0875" height="291.0875"/>
  </clipPath>
 </defs>
</svg>
