<?xml version="1.0" encoding="utf-8" standalone="no"?>
<!DOCTYPE svg PUBLIC "-//W3C//DTD SVG 1.1//EN"
  "http://www.w3.org/Graphics/SVG/1.1/DTD/svg11.dtd">
<svg xmlns:xlink="http://www.w3.org/1999/xlink" width="632.926667pt" height="568.56125pt" viewBox="0 0 632.926667 568.56125" xmlns="http://www.w3.org/2000/svg" version="1.1">
 <metadata>
  <rdf:RDF xmlns:dc="http://purl.org/dc/elements/1.1/" xmlns:cc="http://creativecommons.org/ns#" xmlns:rdf="http://www.w3.org/1999/02/22-rdf-syntax-ns#">
   <cc:Work>
    <dc:type rdf:resource="http://purl.org/dc/dcmitype/StillImage"/>
    <dc:date>2025-06-25T17:32:53.980985</dc:date>
    <dc:format>image/svg+xml</dc:format>
    <dc:creator>
     <cc:Agent>
      <dc:title>Matplotlib v3.10.1, https://matplotlib.org/</dc:title>
     </cc:Agent>
    </dc:creator>
   </cc:Work>
  </rdf:RDF>
 </metadata>
 <defs>
  <style type="text/css">*{stroke-linejoin: round; stroke-linecap: butt}</style>
 </defs>
 <g id="figure_1">
  <g id="patch_1">
   <path d="M 0 568.56125 
L 632.926667 568.56125 
L 632.926667 0 
L 0 0 
z
" style="fill: #ffffff"/>
  </g>
  <g id="axes_1">
   <g id="patch_2">
    <path d="M 33.98125 531.455 
L 623.226667 531.455 
L 623.226667 26.3875 
L 33.98125 26.3875 
z
" style="fill: #ffffff"/>
   </g>
   <g id="patch_3">
    <path d="M 118.159167 447.277083 
L 539.04875 447.277083 
L 539.04875 110.565417 
L 454.870833 110.565417 
L 370.692917 363.099167 
L 286.515 110.565417 
L 202.337083 110.565417 
L 118.159167 278.92125 
z
" clip-path="url(#pa73b180f2a)" style="fill: #add8e6; opacity: 0.6; stroke: #0000ff; stroke-width: 2; stroke-linejoin: miter"/>
   </g>
   <g id="patch_4">
    <path d="M 690.569 236.832292 
L 665.315625 245.250083 
L 665.315625 236.874381 
L 244.426042 236.874381 
L 244.426042 236.790203 
L 665.315625 236.790203 
L 665.315625 228.4145 
z
" clip-path="url(#pa73b180f2a)" style="fill: #ff0000; opacity: 0.8; stroke: #ff0000; stroke-width: 3; stroke-linejoin: miter"/>
   </g>
   <g id="matplotlib.axis_1">
    <g id="xtick_1">
     <g id="line2d_1">
      <path d="M 33.98125 531.455 
L 33.98125 26.3875 
" clip-path="url(#pa73b180f2a)" style="fill: none; stroke: #b0b0b0; stroke-opacity: 0.3; stroke-width: 0.8; stroke-linecap: square"/>
     </g>
     <g id="line2d_2">
      <defs>
       <path id="mb943c8814c" d="M 0 0 
L 0 3.5 
" style="stroke: #000000; stroke-width: 0.8"/>
      </defs>
      <g>
       <use xlink:href="#mb943c8814c" x="33.98125" y="531.455" style="stroke: #000000; stroke-width: 0.8"/>
      </g>
     </g>
     <g id="text_1">
      <!-- 0 -->
      <g transform="translate(31.48125 545.33) scale(0.1 -0.1)">
       <defs>
        <path id="SimHei-30" d="M 225 2537 
Q 250 3200 412 3587 
Q 575 3975 875 4225 
Q 1175 4475 1612 4475 
Q 2050 4475 2375 4112 
Q 2700 3750 2800 3200 
Q 2900 2650 2862 1937 
Q 2825 1225 2612 775 
Q 2400 325 1975 150 
Q 1550 -25 1125 187 
Q 700 400 525 750 
Q 350 1100 275 1487 
Q 200 1875 225 2537 
z
M 750 2687 
Q 675 2000 800 1462 
Q 925 925 1212 700 
Q 1500 475 1800 612 
Q 2100 750 2237 1162 
Q 2375 1575 2375 2062 
Q 2375 2550 2337 2950 
Q 2300 3350 2112 3675 
Q 1925 4000 1612 4012 
Q 1300 4025 1062 3700 
Q 825 3375 750 2687 
z
" transform="scale(0.015625)"/>
       </defs>
       <use xlink:href="#SimHei-30"/>
      </g>
     </g>
    </g>
    <g id="xtick_2">
     <g id="line2d_3">
      <path d="M 118.159167 531.455 
L 118.159167 26.3875 
" clip-path="url(#pa73b180f2a)" style="fill: none; stroke: #b0b0b0; stroke-opacity: 0.3; stroke-width: 0.8; stroke-linecap: square"/>
     </g>
     <g id="line2d_4">
      <g>
       <use xlink:href="#mb943c8814c" x="118.159167" y="531.455" style="stroke: #000000; stroke-width: 0.8"/>
      </g>
     </g>
     <g id="text_2">
      <!-- 1 -->
      <g transform="translate(115.659167 545.33) scale(0.1 -0.1)">
       <defs>
        <path id="SimHei-31" d="M 1400 3600 
Q 1075 3275 575 2975 
L 575 3450 
Q 1200 3875 1600 4450 
L 1900 4450 
L 1900 150 
L 1400 150 
L 1400 3600 
z
" transform="scale(0.015625)"/>
       </defs>
       <use xlink:href="#SimHei-31"/>
      </g>
     </g>
    </g>
    <g id="xtick_3">
     <g id="line2d_5">
      <path d="M 202.337083 531.455 
L 202.337083 26.3875 
" clip-path="url(#pa73b180f2a)" style="fill: none; stroke: #b0b0b0; stroke-opacity: 0.3; stroke-width: 0.8; stroke-linecap: square"/>
     </g>
     <g id="line2d_6">
      <g>
       <use xlink:href="#mb943c8814c" x="202.337083" y="531.455" style="stroke: #000000; stroke-width: 0.8"/>
      </g>
     </g>
     <g id="text_3">
      <!-- 2 -->
      <g transform="translate(199.837083 545.33) scale(0.1 -0.1)">
       <defs>
        <path id="SimHei-32" d="M 300 250 
Q 325 625 650 925 
Q 975 1225 1475 1862 
Q 1975 2500 2125 2850 
Q 2275 3200 2237 3450 
Q 2200 3700 2000 3862 
Q 1800 4025 1537 4000 
Q 1275 3975 1037 3800 
Q 800 3625 675 3275 
L 200 3350 
Q 400 3925 712 4187 
Q 1025 4450 1450 4475 
Q 1700 4500 1900 4462 
Q 2100 4425 2312 4287 
Q 2525 4150 2662 3875 
Q 2800 3600 2762 3212 
Q 2725 2825 2375 2287 
Q 2025 1750 1025 600 
L 2825 600 
L 2825 150 
L 300 150 
L 300 250 
z
" transform="scale(0.015625)"/>
       </defs>
       <use xlink:href="#SimHei-32"/>
      </g>
     </g>
    </g>
    <g id="xtick_4">
     <g id="line2d_7">
      <path d="M 286.515 531.455 
L 286.515 26.3875 
" clip-path="url(#pa73b180f2a)" style="fill: none; stroke: #b0b0b0; stroke-opacity: 0.3; stroke-width: 0.8; stroke-linecap: square"/>
     </g>
     <g id="line2d_8">
      <g>
       <use xlink:href="#mb943c8814c" x="286.515" y="531.455" style="stroke: #000000; stroke-width: 0.8"/>
      </g>
     </g>
     <g id="text_4">
      <!-- 3 -->
      <g transform="translate(284.015 545.33) scale(0.1 -0.1)">
       <defs>
        <path id="SimHei-33" d="M 250 1225 
L 700 1300 
Q 800 975 1025 762 
Q 1250 550 1587 562 
Q 1925 575 2125 837 
Q 2325 1100 2300 1437 
Q 2275 1775 2037 1962 
Q 1800 2150 1275 2225 
L 1275 2550 
Q 1800 2600 2037 2825 
Q 2275 3050 2250 3412 
Q 2225 3775 1925 3937 
Q 1625 4100 1287 3975 
Q 950 3850 750 3275 
L 300 3350 
Q 450 3800 712 4100 
Q 975 4400 1425 4450 
Q 1875 4500 2212 4337 
Q 2550 4175 2687 3837 
Q 2825 3500 2725 3100 
Q 2625 2700 2150 2400 
Q 2500 2250 2687 1950 
Q 2875 1650 2812 1162 
Q 2750 675 2375 375 
Q 2000 75 1525 87 
Q 1050 100 700 387 
Q 350 675 250 1225 
z
" transform="scale(0.015625)"/>
       </defs>
       <use xlink:href="#SimHei-33"/>
      </g>
     </g>
    </g>
    <g id="xtick_5">
     <g id="line2d_9">
      <path d="M 370.692917 531.455 
L 370.692917 26.3875 
" clip-path="url(#pa73b180f2a)" style="fill: none; stroke: #b0b0b0; stroke-opacity: 0.3; stroke-width: 0.8; stroke-linecap: square"/>
     </g>
     <g id="line2d_10">
      <g>
       <use xlink:href="#mb943c8814c" x="370.692917" y="531.455" style="stroke: #000000; stroke-width: 0.8"/>
      </g>
     </g>
     <g id="text_5">
      <!-- 4 -->
      <g transform="translate(368.192917 545.33) scale(0.1 -0.1)">
       <defs>
        <path id="SimHei-34" d="M 2000 1100 
L 75 1100 
L 75 1525 
L 2100 4450 
L 2475 4450 
L 2475 1525 
L 3075 1525 
L 3075 1100 
L 2475 1100 
L 2475 150 
L 2000 150 
L 2000 1100 
z
M 2000 1525 
L 2000 3500 
L 600 1525 
L 2000 1525 
z
" transform="scale(0.015625)"/>
       </defs>
       <use xlink:href="#SimHei-34"/>
      </g>
     </g>
    </g>
    <g id="xtick_6">
     <g id="line2d_11">
      <path d="M 454.870833 531.455 
L 454.870833 26.3875 
" clip-path="url(#pa73b180f2a)" style="fill: none; stroke: #b0b0b0; stroke-opacity: 0.3; stroke-width: 0.8; stroke-linecap: square"/>
     </g>
     <g id="line2d_12">
      <g>
       <use xlink:href="#mb943c8814c" x="454.870833" y="531.455" style="stroke: #000000; stroke-width: 0.8"/>
      </g>
     </g>
     <g id="text_6">
      <!-- 5 -->
      <g transform="translate(452.370833 545.33) scale(0.1 -0.1)">
       <defs>
        <path id="SimHei-35" d="M 550 1325 
Q 725 650 1150 575 
Q 1575 500 1837 662 
Q 2100 825 2212 1087 
Q 2325 1350 2312 1675 
Q 2300 2000 2137 2225 
Q 1975 2450 1725 2525 
Q 1475 2600 1162 2525 
Q 850 2450 650 2175 
L 225 2225 
Q 275 2375 700 4375 
L 2675 4375 
L 2675 3925 
L 1075 3925 
Q 950 3250 825 2850 
Q 1200 3025 1525 3012 
Q 1850 3000 2150 2862 
Q 2450 2725 2587 2487 
Q 2725 2250 2787 2012 
Q 2850 1775 2837 1500 
Q 2825 1225 2725 937 
Q 2625 650 2425 462 
Q 2225 275 1937 162 
Q 1650 50 1275 75 
Q 900 100 562 350 
Q 225 600 100 1200 
L 550 1325 
z
" transform="scale(0.015625)"/>
       </defs>
       <use xlink:href="#SimHei-35"/>
      </g>
     </g>
    </g>
    <g id="xtick_7">
     <g id="line2d_13">
      <path d="M 539.04875 531.455 
L 539.04875 26.3875 
" clip-path="url(#pa73b180f2a)" style="fill: none; stroke: #b0b0b0; stroke-opacity: 0.3; stroke-width: 0.8; stroke-linecap: square"/>
     </g>
     <g id="line2d_14">
      <g>
       <use xlink:href="#mb943c8814c" x="539.04875" y="531.455" style="stroke: #000000; stroke-width: 0.8"/>
      </g>
     </g>
     <g id="text_7">
      <!-- 6 -->
      <g transform="translate(536.54875 545.33) scale(0.1 -0.1)">
       <defs>
        <path id="SimHei-36" d="M 250 1612 
Q 275 1975 387 2225 
Q 500 2475 725 2850 
L 1750 4450 
L 2325 4450 
L 1275 2800 
Q 1950 2975 2350 2750 
Q 2750 2525 2887 2237 
Q 3025 1950 3037 1612 
Q 3050 1275 2937 950 
Q 2825 625 2537 362 
Q 2250 100 1737 75 
Q 1225 50 862 262 
Q 500 475 362 862 
Q 225 1250 250 1612 
z
M 1025 787 
Q 1250 550 1625 525 
Q 2000 500 2250 775 
Q 2500 1050 2500 1575 
Q 2500 2100 2187 2300 
Q 1875 2500 1487 2450 
Q 1100 2400 925 2075 
Q 750 1750 775 1387 
Q 800 1025 1025 787 
z
" transform="scale(0.015625)"/>
       </defs>
       <use xlink:href="#SimHei-36"/>
      </g>
     </g>
    </g>
    <g id="xtick_8">
     <g id="line2d_15">
      <path d="M 623.226667 531.455 
L 623.226667 26.3875 
" clip-path="url(#pa73b180f2a)" style="fill: none; stroke: #b0b0b0; stroke-opacity: 0.3; stroke-width: 0.8; stroke-linecap: square"/>
     </g>
     <g id="line2d_16">
      <g>
       <use xlink:href="#mb943c8814c" x="623.226667" y="531.455" style="stroke: #000000; stroke-width: 0.8"/>
      </g>
     </g>
     <g id="text_8">
      <!-- 7 -->
      <g transform="translate(620.726667 545.33) scale(0.1 -0.1)">
       <defs>
        <path id="SimHei-37" d="M 850 150 
Q 1300 2050 2425 3925 
L 275 3925 
L 275 4375 
L 2950 4375 
L 2950 3950 
Q 1775 2050 1400 150 
L 850 150 
z
" transform="scale(0.015625)"/>
       </defs>
       <use xlink:href="#SimHei-37"/>
      </g>
     </g>
    </g>
    <g id="text_9">
     <!-- X坐标 -->
     <g transform="translate(313.603958 559.86125) scale(0.12 -0.12)">
      <defs>
       <path id="SimHei-58" d="M 3000 125 
L 2400 125 
L 1550 1875 
L 700 125 
L 100 125 
L 1275 2375 
L 225 4400 
L 825 4400 
L 1550 2850 
L 2275 4400 
L 2875 4400 
L 1825 2375 
L 3000 125 
z
" transform="scale(0.015625)"/>
       <path id="SimHei-5750" d="M 3450 5100 
Q 3425 4675 3425 4150 
L 3425 1500 
L 4550 1500 
Q 4975 1500 5450 1525 
L 5450 1075 
Q 5000 1100 4500 1100 
L 3425 1100 
L 3425 50 
L 5075 50 
Q 5500 50 5975 75 
L 5975 -375 
Q 5525 -350 5075 -350 
L 1475 -350 
Q 925 -350 400 -375 
L 400 75 
Q 925 50 1475 50 
L 2925 50 
L 2925 1100 
L 2050 1100 
Q 1450 1100 950 1075 
L 950 1525 
Q 1450 1500 2050 1500 
L 2925 1500 
L 2925 4150 
Q 2925 4675 2900 5100 
L 3450 5100 
z
M 5200 4450 
Q 5050 4250 4825 3600 
Q 5200 3300 5975 2500 
Q 5775 2400 5575 2150 
Q 5075 2800 4650 3150 
Q 4375 2500 3975 1925 
Q 3725 2125 3525 2200 
Q 3875 2575 4212 3362 
Q 4550 4150 4600 4650 
Q 4900 4525 5200 4450 
z
M 350 2150 
Q 600 2375 950 3087 
Q 1300 3800 1450 4575 
Q 1625 4475 2050 4400 
Q 1950 4275 1862 4050 
Q 1775 3825 1700 3575 
Q 2400 2950 2700 2475 
Q 2425 2325 2250 2150 
Q 2025 2550 1887 2725 
Q 1750 2900 1500 3125 
Q 1250 2525 800 1875 
Q 575 2050 350 2150 
z
" transform="scale(0.015625)"/>
       <path id="SimHei-6807" d="M 1275 4400 
Q 1275 4800 1250 5175 
L 1750 5175 
Q 1725 4825 1725 4400 
L 1725 3800 
Q 2125 3800 2575 3825 
L 2575 3350 
Q 2125 3375 1725 3375 
L 1725 2525 
Q 1900 2650 2075 2800 
Q 2400 2275 2650 1775 
Q 2375 1650 2175 1500 
Q 2025 2000 1725 2425 
L 1725 475 
Q 1725 -50 1750 -575 
L 1250 -575 
Q 1275 -25 1275 475 
L 1275 2100 
Q 1025 1400 500 750 
Q 350 950 125 1125 
Q 550 1550 812 2187 
Q 1075 2825 1150 3375 
Q 675 3375 325 3325 
L 325 3825 
Q 800 3800 1275 3800 
L 1275 4400 
z
M 5175 3125 
Q 5675 3125 6050 3150 
L 6050 2675 
Q 5675 2700 5275 2700 
L 4500 2700 
L 4500 175 
Q 4500 -225 4275 -350 
Q 4050 -475 3475 -550 
Q 3425 -250 3275 25 
Q 3775 25 3900 62 
Q 4025 100 4025 350 
L 4025 2700 
L 3400 2700 
Q 2775 2700 2500 2650 
L 2500 3150 
Q 2825 3125 3400 3125 
L 5175 3125 
z
M 4900 4775 
Q 5425 4775 5750 4800 
L 5750 4300 
Q 5275 4350 4750 4350 
L 3525 4350 
Q 3125 4350 2750 4300 
L 2750 4800 
Q 3100 4775 3525 4775 
L 4900 4775 
z
M 5275 2025 
Q 5825 1175 6200 500 
Q 5925 375 5650 200 
Q 5375 925 4825 1725 
Q 5075 1850 5275 2025 
z
M 3600 1775 
Q 3500 1625 3225 975 
Q 2950 325 2800 50 
Q 2575 175 2300 275 
Q 2625 775 2787 1187 
Q 2950 1600 3050 2000 
Q 3325 1875 3600 1775 
z
" transform="scale(0.015625)"/>
      </defs>
      <use xlink:href="#SimHei-58"/>
      <use xlink:href="#SimHei-5750" transform="translate(50 0)"/>
      <use xlink:href="#SimHei-6807" transform="translate(150 0)"/>
     </g>
    </g>
   </g>
   <g id="matplotlib.axis_2">
    <g id="ytick_1">
     <g id="line2d_17">
      <path d="M 33.98125 531.455 
L 623.226667 531.455 
" clip-path="url(#pa73b180f2a)" style="fill: none; stroke: #b0b0b0; stroke-opacity: 0.3; stroke-width: 0.8; stroke-linecap: square"/>
     </g>
     <g id="line2d_18">
      <defs>
       <path id="m8f33b67356" d="M 0 0 
L -3.5 0 
" style="stroke: #000000; stroke-width: 0.8"/>
      </defs>
      <g>
       <use xlink:href="#m8f33b67356" x="33.98125" y="531.455" style="stroke: #000000; stroke-width: 0.8"/>
      </g>
     </g>
     <g id="text_10">
      <!-- 0 -->
      <g transform="translate(21.98125 534.8925) scale(0.1 -0.1)">
       <use xlink:href="#SimHei-30"/>
      </g>
     </g>
    </g>
    <g id="ytick_2">
     <g id="line2d_19">
      <path d="M 33.98125 447.277083 
L 623.226667 447.277083 
" clip-path="url(#pa73b180f2a)" style="fill: none; stroke: #b0b0b0; stroke-opacity: 0.3; stroke-width: 0.8; stroke-linecap: square"/>
     </g>
     <g id="line2d_20">
      <g>
       <use xlink:href="#m8f33b67356" x="33.98125" y="447.277083" style="stroke: #000000; stroke-width: 0.8"/>
      </g>
     </g>
     <g id="text_11">
      <!-- 1 -->
      <g transform="translate(21.98125 450.714583) scale(0.1 -0.1)">
       <use xlink:href="#SimHei-31"/>
      </g>
     </g>
    </g>
    <g id="ytick_3">
     <g id="line2d_21">
      <path d="M 33.98125 363.099167 
L 623.226667 363.099167 
" clip-path="url(#pa73b180f2a)" style="fill: none; stroke: #b0b0b0; stroke-opacity: 0.3; stroke-width: 0.8; stroke-linecap: square"/>
     </g>
     <g id="line2d_22">
      <g>
       <use xlink:href="#m8f33b67356" x="33.98125" y="363.099167" style="stroke: #000000; stroke-width: 0.8"/>
      </g>
     </g>
     <g id="text_12">
      <!-- 2 -->
      <g transform="translate(21.98125 366.536667) scale(0.1 -0.1)">
       <use xlink:href="#SimHei-32"/>
      </g>
     </g>
    </g>
    <g id="ytick_4">
     <g id="line2d_23">
      <path d="M 33.98125 278.92125 
L 623.226667 278.92125 
" clip-path="url(#pa73b180f2a)" style="fill: none; stroke: #b0b0b0; stroke-opacity: 0.3; stroke-width: 0.8; stroke-linecap: square"/>
     </g>
     <g id="line2d_24">
      <g>
       <use xlink:href="#m8f33b67356" x="33.98125" y="278.92125" style="stroke: #000000; stroke-width: 0.8"/>
      </g>
     </g>
     <g id="text_13">
      <!-- 3 -->
      <g transform="translate(21.98125 282.35875) scale(0.1 -0.1)">
       <use xlink:href="#SimHei-33"/>
      </g>
     </g>
    </g>
    <g id="ytick_5">
     <g id="line2d_25">
      <path d="M 33.98125 194.743333 
L 623.226667 194.743333 
" clip-path="url(#pa73b180f2a)" style="fill: none; stroke: #b0b0b0; stroke-opacity: 0.3; stroke-width: 0.8; stroke-linecap: square"/>
     </g>
     <g id="line2d_26">
      <g>
       <use xlink:href="#m8f33b67356" x="33.98125" y="194.743333" style="stroke: #000000; stroke-width: 0.8"/>
      </g>
     </g>
     <g id="text_14">
      <!-- 4 -->
      <g transform="translate(21.98125 198.180833) scale(0.1 -0.1)">
       <use xlink:href="#SimHei-34"/>
      </g>
     </g>
    </g>
    <g id="ytick_6">
     <g id="line2d_27">
      <path d="M 33.98125 110.565417 
L 623.226667 110.565417 
" clip-path="url(#pa73b180f2a)" style="fill: none; stroke: #b0b0b0; stroke-opacity: 0.3; stroke-width: 0.8; stroke-linecap: square"/>
     </g>
     <g id="line2d_28">
      <g>
       <use xlink:href="#m8f33b67356" x="33.98125" y="110.565417" style="stroke: #000000; stroke-width: 0.8"/>
      </g>
     </g>
     <g id="text_15">
      <!-- 5 -->
      <g transform="translate(21.98125 114.002917) scale(0.1 -0.1)">
       <use xlink:href="#SimHei-35"/>
      </g>
     </g>
    </g>
    <g id="ytick_7">
     <g id="line2d_29">
      <path d="M 33.98125 26.3875 
L 623.226667 26.3875 
" clip-path="url(#pa73b180f2a)" style="fill: none; stroke: #b0b0b0; stroke-opacity: 0.3; stroke-width: 0.8; stroke-linecap: square"/>
     </g>
     <g id="line2d_30">
      <g>
       <use xlink:href="#m8f33b67356" x="33.98125" y="26.3875" style="stroke: #000000; stroke-width: 0.8"/>
      </g>
     </g>
     <g id="text_16">
      <!-- 6 -->
      <g transform="translate(21.98125 29.825) scale(0.1 -0.1)">
       <use xlink:href="#SimHei-36"/>
      </g>
     </g>
    </g>
    <g id="text_17">
     <!-- Y坐标 -->
     <g transform="translate(16.48125 293.92125) rotate(-90) scale(0.12 -0.12)">
      <defs>
       <path id="SimHei-59" d="M 3025 4400 
L 1850 2050 
L 1850 125 
L 1275 125 
L 1275 2050 
L 100 4400 
L 675 4400 
L 1550 2575 
L 1575 2575 
L 2450 4400 
L 3025 4400 
z
" transform="scale(0.015625)"/>
      </defs>
      <use xlink:href="#SimHei-59"/>
      <use xlink:href="#SimHei-5750" transform="translate(50 0)"/>
      <use xlink:href="#SimHei-6807" transform="translate(150 0)"/>
     </g>
    </g>
   </g>
   <g id="line2d_31">
    <defs>
     <path id="mf7ddacd076" d="M 0 3 
C 0.795609 3 1.55874 2.683901 2.12132 2.12132 
C 2.683901 1.55874 3 0.795609 3 0 
C 3 -0.795609 2.683901 -1.55874 2.12132 -2.12132 
C 1.55874 -2.683901 0.795609 -3 0 -3 
C -0.795609 -3 -1.55874 -2.683901 -2.12132 -2.12132 
C -2.683901 -1.55874 -3 -0.795609 -3 0 
C -3 0.795609 -2.683901 1.55874 -2.12132 2.12132 
C -1.55874 2.683901 -0.795609 3 0 3 
z
" style="stroke: #000000"/>
    </defs>
    <g clip-path="url(#pa73b180f2a)">
     <use xlink:href="#mf7ddacd076" x="118.159167" y="447.277083" style="stroke: #000000"/>
     <use xlink:href="#mf7ddacd076" x="539.04875" y="447.277083" style="stroke: #000000"/>
     <use xlink:href="#mf7ddacd076" x="539.04875" y="110.565417" style="stroke: #000000"/>
     <use xlink:href="#mf7ddacd076" x="454.870833" y="110.565417" style="stroke: #000000"/>
     <use xlink:href="#mf7ddacd076" x="370.692917" y="363.099167" style="stroke: #000000"/>
     <use xlink:href="#mf7ddacd076" x="286.515" y="110.565417" style="stroke: #000000"/>
     <use xlink:href="#mf7ddacd076" x="202.337083" y="110.565417" style="stroke: #000000"/>
     <use xlink:href="#mf7ddacd076" x="118.159167" y="278.92125" style="stroke: #000000"/>
    </g>
   </g>
   <g id="line2d_32">
    <defs>
     <path id="mcd165ee4b5" d="M 0 6 
C 1.591219 6 3.117479 5.367802 4.242641 4.242641 
C 5.367802 3.117479 6 1.591219 6 0 
C 6 -1.591219 5.367802 -3.117479 4.242641 -4.242641 
C 3.117479 -5.367802 1.591219 -6 0 -6 
C -1.591219 -6 -3.117479 -5.367802 -4.242641 -4.242641 
C -5.367802 -3.117479 -6 -1.591219 -6 0 
C -6 1.591219 -5.367802 3.117479 -4.242641 4.242641 
C -3.117479 5.367802 -1.591219 6 0 6 
z
" style="stroke: #ff0000"/>
    </defs>
    <g clip-path="url(#pa73b180f2a)">
     <use xlink:href="#mcd165ee4b5" x="244.426042" y="236.832292" style="fill: #ff0000; stroke: #ff0000"/>
    </g>
   </g>
   <g id="line2d_33">
    <defs>
     <path id="mf37d074bab" d="M 0 4 
C 1.060812 4 2.078319 3.578535 2.828427 2.828427 
C 3.578535 2.078319 4 1.060812 4 0 
C 4 -1.060812 3.578535 -2.078319 2.828427 -2.828427 
C 2.078319 -3.578535 1.060812 -4 0 -4 
C -1.060812 -4 -2.078319 -3.578535 -2.828427 -2.828427 
C -3.578535 -2.078319 -4 -1.060812 -4 0 
C -4 1.060812 -3.578535 2.078319 -2.828427 2.828427 
C -2.078319 3.578535 -1.060812 4 0 4 
z
" style="stroke: #008000"/>
    </defs>
    <g clip-path="url(#pa73b180f2a)">
     <use xlink:href="#mf37d074bab" x="328.603958" y="236.832292" style="fill: #008000; stroke: #008000"/>
    </g>
   </g>
   <g id="line2d_34">
    <g clip-path="url(#pa73b180f2a)">
     <use xlink:href="#mf37d074bab" x="412.781875" y="236.832292" style="fill: #008000; stroke: #008000"/>
    </g>
   </g>
   <g id="line2d_35">
    <g clip-path="url(#pa73b180f2a)">
     <use xlink:href="#mf37d074bab" x="539.04875" y="236.832292" style="fill: #008000; stroke: #008000"/>
    </g>
   </g>
   <g id="line2d_36">
    <path d="M 118.159167 447.277083 
L 539.04875 447.277083 
" clip-path="url(#pa73b180f2a)" style="fill: none; stroke: #008000; stroke-opacity: 0.8; stroke-width: 2; stroke-linecap: square"/>
   </g>
   <g id="line2d_37">
    <path d="M 539.04875 447.277083 
L 539.04875 110.565417 
" clip-path="url(#pa73b180f2a)" style="fill: none; stroke: #ff0000; stroke-opacity: 0.8; stroke-width: 4; stroke-linecap: square"/>
   </g>
   <g id="line2d_38">
    <path d="M 539.04875 110.565417 
L 454.870833 110.565417 
" clip-path="url(#pa73b180f2a)" style="fill: none; stroke: #800080; stroke-opacity: 0.8; stroke-width: 2; stroke-linecap: square"/>
   </g>
   <g id="line2d_39">
    <path d="M 454.870833 110.565417 
L 370.692917 363.099167 
" clip-path="url(#pa73b180f2a)" style="fill: none; stroke: #ff0000; stroke-opacity: 0.8; stroke-width: 4; stroke-linecap: square"/>
   </g>
   <g id="line2d_40">
    <path d="M 370.692917 363.099167 
L 286.515 110.565417 
" clip-path="url(#pa73b180f2a)" style="fill: none; stroke: #ff0000; stroke-opacity: 0.8; stroke-width: 4; stroke-linecap: square"/>
   </g>
   <g id="line2d_41">
    <path d="M 286.515 110.565417 
L 202.337083 110.565417 
" clip-path="url(#pa73b180f2a)" style="fill: none; stroke: #00ffff; stroke-opacity: 0.8; stroke-width: 2; stroke-linecap: square"/>
   </g>
   <g id="line2d_42">
    <path d="M 202.337083 110.565417 
L 118.159167 278.92125 
" clip-path="url(#pa73b180f2a)" style="fill: none; stroke: #ff00ff; stroke-opacity: 0.8; stroke-width: 2; stroke-linecap: square"/>
   </g>
   <g id="line2d_43">
    <path d="M 118.159167 278.92125 
L 118.159167 447.277083 
" clip-path="url(#pa73b180f2a)" style="fill: none; stroke: #808080; stroke-opacity: 0.8; stroke-width: 2; stroke-linecap: square"/>
   </g>
   <g id="patch_5">
    <path d="M 33.98125 531.455 
L 33.98125 26.3875 
" style="fill: none; stroke: #000000; stroke-width: 0.8; stroke-linejoin: miter; stroke-linecap: square"/>
   </g>
   <g id="patch_6">
    <path d="M 623.226667 531.455 
L 623.226667 26.3875 
" style="fill: none; stroke: #000000; stroke-width: 0.8; stroke-linejoin: miter; stroke-linecap: square"/>
   </g>
   <g id="patch_7">
    <path d="M 33.98125 531.455 
L 623.226667 531.455 
" style="fill: none; stroke: #000000; stroke-width: 0.8; stroke-linejoin: miter; stroke-linecap: square"/>
   </g>
   <g id="patch_8">
    <path d="M 33.98125 26.3875 
L 623.226667 26.3875 
" style="fill: none; stroke: #000000; stroke-width: 0.8; stroke-linejoin: miter; stroke-linecap: square"/>
   </g>
   <g id="text_18">
    <!-- V1 -->
    <g transform="translate(121.159167 444.277083) scale(0.1 -0.1)">
     <defs>
      <path id="SimHei-56" d="M 3050 4400 
L 1800 75 
L 1300 75 
L 50 4400 
L 650 4400 
L 1525 1125 
L 1575 1125 
L 2450 4400 
L 3050 4400 
z
" transform="scale(0.015625)"/>
     </defs>
     <use xlink:href="#SimHei-56"/>
     <use xlink:href="#SimHei-31" transform="translate(50 0)"/>
    </g>
   </g>
   <g id="text_19">
    <!-- V2 -->
    <g transform="translate(542.04875 444.277083) scale(0.1 -0.1)">
     <use xlink:href="#SimHei-56"/>
     <use xlink:href="#SimHei-32" transform="translate(50 0)"/>
    </g>
   </g>
   <g id="text_20">
    <!-- V3 -->
    <g transform="translate(542.04875 107.565417) scale(0.1 -0.1)">
     <use xlink:href="#SimHei-56"/>
     <use xlink:href="#SimHei-33" transform="translate(50 0)"/>
    </g>
   </g>
   <g id="text_21">
    <!-- V4 -->
    <g transform="translate(457.870833 107.565417) scale(0.1 -0.1)">
     <use xlink:href="#SimHei-56"/>
     <use xlink:href="#SimHei-34" transform="translate(50 0)"/>
    </g>
   </g>
   <g id="text_22">
    <!-- V5 -->
    <g transform="translate(373.692917 360.099167) scale(0.1 -0.1)">
     <use xlink:href="#SimHei-56"/>
     <use xlink:href="#SimHei-35" transform="translate(50 0)"/>
    </g>
   </g>
   <g id="text_23">
    <!-- V6 -->
    <g transform="translate(289.515 107.565417) scale(0.1 -0.1)">
     <use xlink:href="#SimHei-56"/>
     <use xlink:href="#SimHei-36" transform="translate(50 0)"/>
    </g>
   </g>
   <g id="text_24">
    <!-- V7 -->
    <g transform="translate(205.337083 107.565417) scale(0.1 -0.1)">
     <use xlink:href="#SimHei-56"/>
     <use xlink:href="#SimHei-37" transform="translate(50 0)"/>
    </g>
   </g>
   <g id="text_25">
    <!-- V8 -->
    <g transform="translate(121.159167 275.92125) scale(0.1 -0.1)">
     <defs>
      <path id="SimHei-38" d="M 175 1375 
Q 175 1675 325 1962 
Q 475 2250 825 2425 
Q 525 2600 425 2812 
Q 325 3025 312 3300 
Q 300 3575 387 3775 
Q 475 3975 650 4150 
Q 825 4325 1037 4387 
Q 1250 4450 1500 4450 
Q 1750 4450 1950 4400 
Q 2150 4350 2375 4187 
Q 2600 4025 2700 3725 
Q 2800 3425 2687 3025 
Q 2575 2625 2100 2400 
Q 2525 2275 2700 2012 
Q 2875 1750 2875 1375 
Q 2875 1000 2762 775 
Q 2650 550 2512 400 
Q 2375 250 2137 162 
Q 1900 75 1537 75 
Q 1175 75 912 162 
Q 650 250 475 425 
Q 300 600 237 837 
Q 175 1075 175 1375 
z
M 687 1400 
Q 675 1100 787 875 
Q 900 650 1200 587 
Q 1500 525 1825 600 
Q 2150 675 2275 950 
Q 2400 1225 2362 1500 
Q 2325 1775 2050 1962 
Q 1775 2150 1450 2125 
Q 1125 2100 912 1900 
Q 700 1700 687 1400 
z
M 775 3350 
Q 775 3100 950 2875 
Q 1125 2650 1500 2650 
Q 1875 2650 2062 2875 
Q 2250 3100 2237 3412 
Q 2225 3725 2012 3875 
Q 1800 4025 1437 4000 
Q 1075 3975 925 3787 
Q 775 3600 775 3350 
z
" transform="scale(0.015625)"/>
     </defs>
     <use xlink:href="#SimHei-56"/>
     <use xlink:href="#SimHei-38" transform="translate(50 0)"/>
    </g>
   </g>
   <g id="text_26">
    <g id="patch_9">
     <path d="M 454.870833 216.678917 
L 502.870833 216.678917 
Q 506.470833 216.678917 506.470833 213.078917 
L 506.470833 188.919542 
Q 506.470833 185.319542 502.870833 185.319542 
L 454.870833 185.319542 
Q 451.270833 185.319542 451.270833 188.919542 
L 451.270833 213.078917 
Q 451.270833 216.678917 454.870833 216.678917 
z
" style="fill: #ffff00; opacity: 0.7; stroke: #000000; stroke-linejoin: miter"/>
    </g>
    <!-- 水平射线 -->
    <g style="fill: #ff0000" transform="translate(454.870833 198.716417) scale(0.12 -0.12)">
     <defs>
      <path id="SimHei-6c34" d="M 3450 5175 
Q 3450 4800 3437 4500 
Q 3425 4200 3487 3762 
Q 3550 3325 3950 2725 
Q 4975 3575 5175 4050 
Q 5450 3800 5675 3575 
Q 5350 3350 5037 3075 
Q 4725 2800 4175 2325 
Q 4375 1900 4900 1375 
Q 5425 850 6175 625 
Q 5750 425 5675 125 
Q 4725 700 4212 1400 
Q 3700 2100 3425 2800 
L 3425 25 
Q 3450 -325 3162 -475 
Q 2875 -625 2400 -675 
Q 2375 -400 2175 -75 
Q 2575 -150 2750 -100 
Q 2925 -50 2925 225 
L 2925 4175 
Q 2925 4800 2875 5175 
L 3450 5175 
z
M 2550 3575 
Q 2425 2900 2237 2362 
Q 2050 1825 1737 1300 
Q 1425 775 750 100 
Q 575 325 225 450 
Q 925 950 1337 1600 
Q 1750 2250 1950 3125 
L 1275 3125 
Q 900 3125 425 3075 
L 425 3600 
Q 875 3575 1250 3575 
L 2550 3575 
z
" transform="scale(0.015625)"/>
      <path id="SimHei-5e73" d="M 4525 4825 
Q 4900 4825 5450 4850 
L 5450 4375 
Q 4925 4400 4525 4400 
L 3475 4400 
L 3475 2025 
L 5000 2025 
Q 5550 2025 6025 2050 
L 6025 1575 
Q 5550 1600 5000 1600 
L 3475 1600 
L 3475 450 
Q 3475 -100 3500 -600 
L 2925 -600 
Q 2950 -100 2950 450 
L 2950 1600 
L 1125 1600 
Q 775 1600 375 1575 
L 375 2050 
Q 775 2025 1175 2025 
L 2950 2025 
L 2950 4400 
L 1775 4400 
Q 1400 4400 875 4375 
L 875 4850 
Q 1400 4825 1750 4825 
L 4525 4825 
z
M 3925 2600 
Q 4500 3300 4900 4125 
Q 5150 3950 5400 3825 
Q 4775 2850 4350 2300 
Q 4150 2475 3925 2600 
z
M 1975 2350 
Q 1600 3100 1050 3725 
Q 1250 3875 1450 4050 
Q 2075 3300 2450 2725 
Q 2150 2500 1975 2350 
z
" transform="scale(0.015625)"/>
      <path id="SimHei-5c04" d="M 2150 5125 
Q 2000 4975 1825 4500 
L 3225 4500 
Q 3200 4075 3200 3650 
L 3200 -50 
Q 3200 -350 2987 -462 
Q 2775 -575 2250 -650 
Q 2225 -375 2075 -75 
Q 2475 -125 2612 -75 
Q 2750 -25 2750 225 
L 2750 1275 
L 2475 1275 
Q 2275 725 1725 250 
Q 1175 -225 625 -500 
Q 450 -275 225 -75 
Q 775 75 1250 450 
Q 1725 825 1975 1275 
L 825 1275 
Q 650 1275 275 1250 
L 275 1725 
Q 625 1700 800 1700 
L 800 3675 
Q 800 4075 775 4500 
L 1400 4500 
Q 1500 4900 1525 5275 
L 2150 5125 
z
M 4875 4500 
Q 4875 4825 4825 5200 
L 5350 5200 
Q 5325 4825 5325 4500 
L 5325 3550 
Q 5750 3550 6150 3575 
L 6150 3125 
Q 5750 3150 5325 3150 
L 5325 75 
Q 5300 -300 5012 -437 
Q 4725 -575 4325 -650 
Q 4325 -350 4075 -25 
Q 4475 -75 4675 -25 
Q 4875 25 4875 250 
L 4875 3150 
Q 3900 3150 3375 3125 
L 3375 3575 
Q 4000 3550 4875 3550 
L 4875 4500 
z
M 2750 3550 
L 2750 4100 
L 1250 4100 
L 1250 3550 
L 2750 3550 
z
M 2750 2625 
L 2750 3150 
L 1250 3150 
L 1250 2625 
L 2750 2625 
z
M 2750 1700 
L 2750 2225 
L 1250 2225 
L 1250 1700 
L 2750 1700 
z
M 4000 2600 
Q 4275 1775 4350 1525 
Q 4100 1475 3875 1350 
Q 3800 1850 3525 2450 
Q 3750 2550 4000 2600 
z
" transform="scale(0.015625)"/>
      <path id="SimHei-7ebf" d="M 3450 4300 
Q 3450 4675 3375 5125 
Q 3700 5100 4050 5050 
Q 3975 4900 3950 4562 
Q 3925 4225 3950 3600 
L 4800 3750 
Q 5225 3850 5650 3975 
L 5750 3500 
Q 5325 3450 4875 3375 
L 3975 3200 
Q 3975 2800 4025 2500 
L 5000 2675 
Q 5500 2775 5950 2925 
L 6025 2450 
Q 5575 2375 5075 2275 
L 4100 2100 
Q 4150 1600 4350 1175 
Q 4575 1350 4787 1575 
Q 5000 1800 5175 2075 
Q 5550 1775 5750 1675 
Q 5425 1525 5237 1337 
Q 5050 1150 4625 750 
Q 4925 250 5162 112 
Q 5400 -25 5500 100 
Q 5600 225 5675 625 
Q 5900 450 6200 350 
Q 5775 -750 5275 -537 
Q 4775 -325 4225 450 
Q 3875 175 3537 -62 
Q 3200 -300 2700 -550 
Q 2575 -300 2325 -100 
Q 2825 75 3175 275 
Q 3525 475 3975 850 
Q 3750 1350 3650 2025 
Q 2900 1900 2600 1800 
L 2525 2275 
Q 2825 2275 3550 2425 
Q 3500 2825 3500 3100 
Q 2825 2950 2575 2875 
L 2475 3350 
Q 2725 3350 3450 3500 
L 3450 4300 
z
M 1950 4875 
Q 1700 4650 1462 4237 
Q 1225 3825 825 3225 
Q 1425 3250 1650 3250 
Q 1875 3625 2050 4075 
Q 2300 3900 2600 3800 
Q 2350 3550 2087 3125 
Q 1825 2700 1175 1675 
Q 1850 1725 2375 1775 
Q 2300 1525 2300 1350 
Q 2125 1350 1525 1287 
Q 925 1225 550 1125 
Q 525 1375 400 1650 
Q 700 1725 950 2050 
Q 1200 2375 1475 2875 
Q 650 2825 425 2675 
Q 350 2950 200 3225 
Q 525 3450 825 3962 
Q 1125 4475 1375 5150 
Q 1625 4975 1950 4875 
z
M 2575 875 
Q 2550 600 2575 450 
Q 1950 325 1450 200 
Q 950 75 525 -75 
Q 450 200 250 475 
Q 950 550 1325 612 
Q 1700 675 2575 875 
z
M 4850 4025 
Q 4675 4300 4375 4675 
L 4775 4875 
Q 4875 4750 5275 4275 
Q 5025 4175 4850 4025 
z
" transform="scale(0.015625)"/>
     </defs>
     <use xlink:href="#SimHei-6c34"/>
     <use xlink:href="#SimHei-5e73" transform="translate(100 0)"/>
     <use xlink:href="#SimHei-5c04" transform="translate(200 0)"/>
     <use xlink:href="#SimHei-7ebf" transform="translate(300 0)"/>
    </g>
    <!-- (向右) -->
    <g style="fill: #ff0000" transform="translate(454.870833 211.578917) scale(0.12 -0.12)">
     <defs>
      <path id="SimHei-28" d="M 2975 -200 
L 2700 -475 
Q 2075 125 1762 775 
Q 1450 1425 1450 2250 
Q 1450 3075 1762 3725 
Q 2075 4375 2700 5000 
L 2975 4725 
Q 2400 4175 2112 3587 
Q 1825 3000 1825 2250 
Q 1825 1500 2112 912 
Q 2400 325 2975 -200 
z
" transform="scale(0.015625)"/>
      <path id="SimHei-5411" d="M 2025 4150 
Q 2125 4400 2187 4637 
Q 2250 4875 2300 5175 
Q 2750 5025 2925 5000 
Q 2650 4400 2550 4150 
L 5850 4150 
Q 5825 3700 5825 3275 
L 5825 225 
Q 5825 -325 5487 -412 
Q 5150 -500 4700 -525 
Q 4625 -175 4450 50 
Q 5075 25 5212 50 
Q 5350 75 5325 325 
L 5325 3700 
L 1250 3700 
L 1250 -500 
L 725 -500 
Q 725 150 750 550 
L 750 3250 
Q 725 3700 725 4150 
L 2025 4150 
z
M 4450 2825 
Q 4425 2500 4425 2175 
L 4425 1600 
Q 4425 1275 4450 900 
L 2025 900 
Q 2050 1250 2050 1600 
L 2050 2225 
Q 2050 2525 2025 2825 
L 4450 2825 
z
M 3900 1300 
L 3900 2425 
L 2550 2425 
L 2550 1300 
L 3900 1300 
z
" transform="scale(0.015625)"/>
      <path id="SimHei-53f3" d="M 3425 5025 
Q 3300 4775 3250 4550 
Q 3200 4325 3100 4000 
L 4950 4000 
Q 5350 4000 5950 4025 
L 5950 3525 
Q 5500 3550 4925 3550 
L 2950 3550 
Q 2750 2950 2375 2325 
L 5325 2325 
Q 5300 1900 5300 1425 
L 5300 250 
Q 5300 -150 5325 -675 
L 4775 -675 
L 4775 -225 
L 2225 -225 
L 2225 -675 
L 1700 -675 
Q 1725 -225 1725 175 
L 1725 1400 
Q 1475 1100 1237 862 
Q 1000 625 700 375 
Q 425 650 200 775 
Q 500 950 800 1225 
Q 1100 1500 1425 1862 
Q 1750 2225 1987 2650 
Q 2225 3075 2400 3550 
L 1475 3550 
Q 900 3550 400 3525 
L 400 4025 
Q 900 4000 1500 4000 
L 2525 4000 
Q 2750 4700 2800 5175 
Q 3125 5075 3425 5025 
z
M 4775 225 
L 4775 1875 
L 2225 1875 
L 2225 225 
L 4775 225 
z
" transform="scale(0.015625)"/>
      <path id="SimHei-29" d="M 1675 2250 
Q 1675 1425 1362 775 
Q 1050 125 425 -475 
L 150 -200 
Q 725 325 1012 912 
Q 1300 1500 1300 2250 
Q 1300 3000 1012 3587 
Q 725 4175 150 4725 
L 425 5000 
Q 1050 4375 1362 3725 
Q 1675 3075 1675 2250 
z
" transform="scale(0.015625)"/>
     </defs>
     <use xlink:href="#SimHei-28"/>
     <use xlink:href="#SimHei-5411" transform="translate(50 0)"/>
     <use xlink:href="#SimHei-53f3" transform="translate(150 0)"/>
     <use xlink:href="#SimHei-29" transform="translate(250 0)"/>
    </g>
   </g>
   <g id="text_27">
    <!-- 交点1 -->
    <g transform="translate(333.603958 231.832292) scale(0.1 -0.1)">
     <defs>
      <path id="SimHei-4ea4" d="M 2325 2600 
Q 2775 1575 3200 1150 
Q 3875 1825 4225 2725 
Q 4425 2575 4725 2400 
Q 4125 1450 3550 825 
Q 4400 175 6000 25 
Q 5750 -325 5700 -550 
Q 4100 -250 3150 525 
Q 2075 -275 650 -600 
Q 575 -300 375 -50 
Q 1900 125 2775 850 
Q 2200 1525 1850 2350 
Q 2150 2475 2325 2600 
z
M 1250 3725 
Q 875 3725 525 3700 
L 525 4200 
L 1225 4150 
L 5125 4150 
Q 5525 4175 5950 4200 
L 5950 3675 
Q 5525 3700 5125 3725 
L 1250 3725 
z
M 2525 3300 
Q 2175 2975 1025 2000 
Q 825 2250 550 2400 
Q 1025 2650 1412 3025 
Q 1800 3400 2000 3675 
Q 2250 3500 2525 3300 
z
M 4325 3675 
Q 4450 3575 4900 3237 
Q 5350 2900 5775 2600 
Q 5500 2400 5300 2175 
Q 5075 2475 3900 3300 
Q 4100 3500 4325 3675 
z
M 3250 5300 
Q 3500 4725 3625 4375 
Q 3275 4275 3025 4200 
Q 2875 4625 2650 5125 
Q 2950 5225 3250 5300 
z
" transform="scale(0.015625)"/>
      <path id="SimHei-70b9" d="M 3325 5200 
Q 3300 4925 3300 4375 
L 4900 4375 
Q 5275 4375 5725 4400 
L 5725 3925 
Q 5300 3950 4900 3950 
L 3300 3950 
L 3300 3225 
L 5225 3225 
Q 5200 2700 5200 2150 
Q 5200 1625 5225 1175 
L 1175 1175 
Q 1200 1625 1200 2175 
Q 1200 2725 1175 3225 
L 2775 3225 
L 2775 4500 
Q 2775 4900 2750 5200 
L 3325 5200 
z
M 4700 1600 
L 4700 2800 
L 1725 2800 
L 1725 1600 
L 4700 1600 
z
M 1500 750 
Q 1025 -250 825 -625 
Q 625 -475 325 -375 
Q 650 50 950 925 
Q 1200 800 1500 750 
z
M 5325 850 
Q 5775 150 6075 -350 
Q 5925 -425 5575 -625 
Q 5375 -150 4900 575 
Q 5150 700 5325 850 
z
M 3975 -575 
Q 3775 -100 3400 575 
Q 3575 675 3825 825 
Q 4350 -75 4450 -325 
Q 4200 -450 3975 -575 
z
M 2375 -575 
Q 2350 -300 1975 550 
Q 2200 625 2425 775 
Q 2800 -75 2900 -350 
Q 2625 -450 2375 -575 
z
" transform="scale(0.015625)"/>
     </defs>
     <use xlink:href="#SimHei-4ea4"/>
     <use xlink:href="#SimHei-70b9" transform="translate(100 0)"/>
     <use xlink:href="#SimHei-31" transform="translate(200 0)"/>
    </g>
   </g>
   <g id="text_28">
    <!-- 交点2 -->
    <g transform="translate(417.781875 231.832292) scale(0.1 -0.1)">
     <use xlink:href="#SimHei-4ea4"/>
     <use xlink:href="#SimHei-70b9" transform="translate(100 0)"/>
     <use xlink:href="#SimHei-32" transform="translate(200 0)"/>
    </g>
   </g>
   <g id="text_29">
    <!-- 交点3 -->
    <g transform="translate(544.04875 231.832292) scale(0.1 -0.1)">
     <use xlink:href="#SimHei-4ea4"/>
     <use xlink:href="#SimHei-70b9" transform="translate(100 0)"/>
     <use xlink:href="#SimHei-33" transform="translate(200 0)"/>
    </g>
   </g>
   <g id="text_30">
    <!-- 边1 -->
    <g style="opacity: 0.7" transform="translate(333.603958 432.545833) scale(0.09 -0.09)">
     <defs>
      <path id="SimHei-8fb9" d="M 3450 3950 
Q 3450 4750 3425 5250 
Q 3800 5175 4050 5175 
Q 3975 4825 3950 3950 
L 5725 3950 
Q 5650 3525 5625 3100 
L 5500 1150 
Q 5475 725 5062 612 
Q 4650 500 4300 400 
Q 4275 725 4050 1050 
Q 4650 1075 4837 1137 
Q 5025 1200 5050 1450 
L 5175 3500 
L 3925 3500 
Q 3825 2500 3525 1837 
Q 3225 1175 2625 500 
Q 2400 725 2075 900 
Q 2625 1275 2987 1937 
Q 3350 2600 3425 3500 
Q 2825 3500 2275 3450 
L 2275 3975 
Q 2725 3950 3450 3950 
z
M 1625 2900 
Q 1600 2475 1600 2125 
L 1600 675 
Q 2225 50 3775 0 
Q 5325 -50 6200 50 
Q 5950 -150 5925 -550 
Q 5125 -550 4350 -525 
Q 3575 -500 2925 -387 
Q 2275 -275 1850 75 
Q 1425 425 1187 175 
Q 950 -75 725 -550 
Q 500 -325 225 -150 
Q 875 350 1100 625 
L 1100 2450 
Q 650 2450 225 2425 
L 225 2925 
Q 725 2900 1150 2900 
L 1625 2900 
z
M 1150 5075 
Q 1600 4200 1700 3900 
Q 1450 3825 1175 3675 
Q 1150 3925 650 4875 
Q 925 4975 1150 5075 
z
" transform="scale(0.015625)"/>
     </defs>
     <use xlink:href="#SimHei-8fb9"/>
     <use xlink:href="#SimHei-31" transform="translate(100 0)"/>
    </g>
    <!-- 无贡献 -->
    <g style="opacity: 0.7" transform="translate(333.603958 442.277083) scale(0.09 -0.09)">
     <defs>
      <path id="SimHei-65e0" d="M 4350 4725 
Q 4875 4725 5300 4750 
L 5300 4275 
Q 4925 4300 4350 4300 
L 3175 4300 
Q 3175 3475 3125 2800 
L 5050 2800 
Q 5500 2800 5875 2825 
L 5875 2350 
Q 5500 2375 5075 2375 
L 3950 2375 
L 3950 425 
Q 3950 100 4325 100 
L 5175 100 
Q 5450 100 5475 850 
Q 5725 700 6025 625 
Q 5900 -350 5450 -350 
L 4075 -350 
Q 3500 -325 3500 300 
L 3500 2375 
L 3075 2375 
Q 2875 1425 2587 937 
Q 2300 450 1925 112 
Q 1550 -225 800 -650 
Q 675 -375 375 -225 
Q 975 50 1350 337 
Q 1725 625 2062 1050 
Q 2400 1475 2600 2375 
L 1500 2375 
Q 875 2375 600 2350 
L 600 2825 
Q 875 2800 1500 2800 
L 2650 2800 
Q 2675 3550 2675 4300 
L 2000 4300 
Q 1500 4300 1075 4275 
L 1075 4750 
Q 1500 4725 2000 4725 
L 4350 4725 
z
" transform="scale(0.015625)"/>
      <path id="SimHei-8d21" d="M 4425 4925 
Q 4875 4925 5350 4950 
L 5350 4475 
Q 4900 4500 4500 4500 
L 3425 4500 
L 3425 3600 
L 5075 3600 
Q 5550 3600 6025 3625 
L 6025 3175 
Q 5625 3200 5075 3200 
L 1400 3200 
Q 900 3200 400 3175 
L 400 3625 
Q 925 3600 1275 3600 
L 2925 3600 
L 2925 4500 
L 2025 4500 
Q 1675 4500 1100 4475 
L 1100 4950 
Q 1625 4925 2025 4925 
L 4425 4925 
z
M 5125 2750 
Q 5100 2225 5100 1725 
Q 5100 1225 5125 625 
L 4625 625 
L 4625 2325 
L 1750 2325 
L 1750 575 
L 1250 575 
Q 1275 1200 1275 1675 
Q 1275 2175 1250 2750 
L 5125 2750 
z
M 3525 1900 
Q 3425 1575 3275 1037 
Q 3125 500 2762 162 
Q 2400 -175 1750 -387 
Q 1100 -600 625 -675 
Q 550 -400 350 -175 
Q 1000 -100 1475 25 
Q 1950 150 2275 387 
Q 2600 625 2762 1025 
Q 2925 1425 2925 1975 
Q 3225 1925 3525 1900 
z
M 5575 -675 
Q 5125 -400 4562 -100 
Q 4000 200 3450 450 
Q 3550 575 3650 875 
Q 4325 550 4712 375 
Q 5100 200 5875 -200 
Q 5725 -400 5575 -675 
z
" transform="scale(0.015625)"/>
      <path id="SimHei-732e" d="M 1825 4300 
Q 1825 4775 1800 5175 
L 2300 5175 
Q 2275 4750 2275 4300 
L 2875 4300 
Q 3275 4300 3675 4325 
L 3675 3900 
Q 3275 3925 2900 3925 
L 2275 3925 
L 2275 3325 
L 3575 3325 
Q 3550 2950 3550 2575 
L 3550 200 
Q 3550 -225 3312 -325 
Q 3075 -425 2725 -475 
Q 2700 -200 2525 50 
Q 3000 0 3075 100 
Q 3150 200 3150 575 
L 3150 2975 
L 950 2975 
L 950 -475 
L 525 -475 
Q 550 -25 550 550 
L 550 2550 
Q 550 2950 525 3325 
L 1825 3325 
L 1825 3925 
L 1200 3925 
Q 750 3925 250 3900 
L 250 4325 
Q 750 4300 1200 4300 
L 1825 4300 
z
M 4475 3325 
Q 4475 4600 4400 5225 
Q 4725 5175 4925 5175 
Q 4900 4875 4900 3325 
L 5425 3325 
Q 5725 3325 6050 3350 
L 6050 2925 
Q 5725 2950 5425 2950 
L 5025 2950 
Q 5050 2175 5325 1237 
Q 5600 300 6200 -225 
Q 5900 -350 5725 -600 
Q 5225 25 5025 712 
Q 4825 1400 4775 2000 
Q 4600 875 4375 325 
Q 4150 -225 3925 -650 
Q 3725 -475 3425 -425 
Q 3750 -75 4037 787 
Q 4325 1650 4450 2950 
Q 4100 2950 3725 2925 
L 3725 3350 
Q 4175 3325 4475 3325 
z
M 2250 1225 
Q 2625 1225 2950 1250 
L 2950 825 
Q 2625 850 2250 850 
L 2250 -200 
L 1800 -200 
L 1800 850 
Q 1350 850 1100 825 
L 1100 1250 
Q 1375 1225 1800 1225 
L 1800 1650 
Q 1375 1650 1075 1625 
L 1075 2025 
Q 1325 2000 1775 2000 
L 2125 2000 
Q 2300 2600 2325 2825 
Q 2500 2750 2775 2675 
Q 2650 2550 2500 2000 
Q 2700 2000 2950 2025 
L 2950 1625 
Q 2600 1650 2250 1650 
L 2250 1225 
z
M 5525 4775 
Q 5625 4625 5925 3950 
Q 5625 3850 5500 3750 
Q 5275 4350 5125 4575 
Q 5325 4650 5525 4775 
z
M 1725 2800 
Q 1800 2525 1900 2150 
Q 1650 2100 1525 2025 
Q 1450 2425 1350 2675 
Q 1550 2775 1725 2800 
z
" transform="scale(0.015625)"/>
     </defs>
     <use xlink:href="#SimHei-65e0"/>
     <use xlink:href="#SimHei-8d21" transform="translate(100 0)"/>
     <use xlink:href="#SimHei-732e" transform="translate(200 0)"/>
    </g>
   </g>
   <g id="text_31">
    <g id="patch_10">
     <path d="M 544.04875 276.84625 
L 571.04875 276.84625 
Q 572.84875 276.84625 572.84875 275.04625 
L 572.84875 258.255625 
Q 572.84875 256.455625 571.04875 256.455625 
L 544.04875 256.455625 
Q 542.24875 256.455625 542.24875 258.255625 
L 542.24875 275.04625 
Q 542.24875 276.84625 544.04875 276.84625 
z
" style="fill: #ffff00; opacity: 0.7; stroke: #000000; stroke-linejoin: miter"/>
    </g>
    <!-- 边2 -->
    <g transform="translate(544.04875 265.286875) scale(0.09 -0.09)">
     <use xlink:href="#SimHei-8fb9"/>
     <use xlink:href="#SimHei-32" transform="translate(100 0)"/>
    </g>
    <!-- flag++ -->
    <g transform="translate(544.04875 273.92125) scale(0.09 -0.09)">
     <defs>
      <path id="SimHei-66" d="M 2850 3825 
Q 2725 3900 2550 3950 
Q 2375 4000 2100 4000 
Q 1825 4000 1725 3862 
Q 1625 3725 1625 3525 
L 1625 2925 
L 2650 2925 
L 2650 2525 
L 1625 2525 
L 1625 125 
L 1125 125 
L 1125 2525 
L 275 2525 
L 275 2925 
L 1125 2925 
L 1125 3500 
Q 1125 3950 1400 4200 
Q 1675 4450 2125 4450 
Q 2400 4450 2562 4412 
Q 2725 4375 2850 4325 
L 2850 3825 
z
" transform="scale(0.015625)"/>
      <path id="SimHei-6c" d="M 1825 125 
L 1325 125 
L 1325 4400 
L 1825 4400 
L 1825 125 
z
" transform="scale(0.015625)"/>
      <path id="SimHei-61" d="M 2875 125 
L 2275 125 
Q 2225 175 2200 262 
Q 2175 350 2175 475 
Q 2000 275 1750 175 
Q 1500 75 1225 75 
Q 825 75 550 275 
Q 275 475 275 850 
Q 275 1225 525 1450 
Q 775 1675 1300 1750 
Q 1650 1800 1912 1875 
Q 2175 1950 2175 2075 
Q 2175 2225 2062 2375 
Q 1950 2525 1575 2525 
Q 1275 2525 1137 2412 
Q 1000 2300 950 2100 
L 400 2100 
Q 450 2500 762 2737 
Q 1075 2975 1575 2975 
Q 2125 2975 2400 2725 
Q 2675 2475 2675 2025 
L 2675 650 
Q 2675 500 2725 375 
Q 2775 250 2875 125 
z
M 2175 1050 
L 2175 1550 
Q 2025 1500 1887 1462 
Q 1750 1425 1425 1375 
Q 1050 1325 937 1200 
Q 825 1075 825 900 
Q 825 750 937 637 
Q 1050 525 1275 525 
Q 1500 525 1762 650 
Q 2025 775 2175 1050 
z
" transform="scale(0.015625)"/>
      <path id="SimHei-67" d="M 2975 2500 
Q 2800 2550 2637 2562 
Q 2475 2575 2300 2525 
Q 2375 2450 2425 2337 
Q 2475 2225 2475 2000 
Q 2475 1575 2187 1300 
Q 1900 1025 1475 1025 
Q 1375 1025 1212 1062 
Q 1050 1100 950 1150 
Q 875 1100 850 1050 
Q 825 1000 825 925 
Q 825 800 1000 737 
Q 1175 675 1625 675 
Q 2350 675 2612 475 
Q 2875 275 2875 -25 
Q 2875 -425 2487 -612 
Q 2100 -800 1575 -800 
Q 900 -800 575 -625 
Q 250 -450 250 -150 
Q 250 0 375 150 
Q 500 300 700 400 
Q 550 475 462 587 
Q 375 700 375 875 
Q 375 1025 487 1137 
Q 600 1250 750 1325 
Q 625 1450 550 1625 
Q 475 1800 475 2000 
Q 475 2425 762 2700 
Q 1050 2975 1475 2975 
Q 1700 2975 1862 2912 
Q 2025 2850 2150 2725 
Q 2350 2875 2550 2937 
Q 2750 3000 2975 2975 
L 2975 2500 
z
M 1975 2000 
Q 1975 2250 1850 2400 
Q 1725 2550 1475 2550 
Q 1225 2550 1100 2400 
Q 975 2250 975 2000 
Q 975 1750 1100 1600 
Q 1225 1450 1475 1450 
Q 1725 1450 1850 1600 
Q 1975 1750 1975 2000 
z
M 2400 -75 
Q 2400 25 2287 125 
Q 2175 225 1725 225 
Q 1625 225 1450 237 
Q 1275 250 1050 275 
Q 850 200 775 100 
Q 700 0 700 -100 
Q 700 -250 900 -350 
Q 1100 -450 1600 -450 
Q 2025 -450 2212 -337 
Q 2400 -225 2400 -75 
z
" transform="scale(0.015625)"/>
      <path id="SimHei-2b" d="M 3000 2125 
L 1775 2125 
L 1775 900 
L 1350 900 
L 1350 2125 
L 125 2125 
L 125 2525 
L 1350 2525 
L 1350 3750 
L 1775 3750 
L 1775 2525 
L 3000 2525 
L 3000 2125 
z
" transform="scale(0.015625)"/>
     </defs>
     <use xlink:href="#SimHei-66"/>
     <use xlink:href="#SimHei-6c" transform="translate(50 0)"/>
     <use xlink:href="#SimHei-61" transform="translate(100 0)"/>
     <use xlink:href="#SimHei-67" transform="translate(150 0)"/>
     <use xlink:href="#SimHei-2b" transform="translate(200 0)"/>
     <use xlink:href="#SimHei-2b" transform="translate(250 0)"/>
    </g>
   </g>
   <g id="text_32">
    <!-- 边3 -->
    <g style="opacity: 0.7" transform="translate(501.959792 95.834167) scale(0.09 -0.09)">
     <use xlink:href="#SimHei-8fb9"/>
     <use xlink:href="#SimHei-33" transform="translate(100 0)"/>
    </g>
    <!-- 无贡献 -->
    <g style="opacity: 0.7" transform="translate(501.959792 105.565417) scale(0.09 -0.09)">
     <use xlink:href="#SimHei-65e0"/>
     <use xlink:href="#SimHei-8d21" transform="translate(100 0)"/>
     <use xlink:href="#SimHei-732e" transform="translate(200 0)"/>
    </g>
   </g>
   <g id="text_33">
    <g id="patch_11">
     <path d="M 417.781875 234.757292 
L 444.781875 234.757292 
Q 446.581875 234.757292 446.581875 232.957292 
L 446.581875 216.166667 
Q 446.581875 214.366667 444.781875 214.366667 
L 417.781875 214.366667 
Q 415.981875 214.366667 415.981875 216.166667 
L 415.981875 232.957292 
Q 415.981875 234.757292 417.781875 234.757292 
z
" style="fill: #ffff00; opacity: 0.7; stroke: #000000; stroke-linejoin: miter"/>
    </g>
    <!-- 边4 -->
    <g transform="translate(417.781875 223.197917) scale(0.09 -0.09)">
     <use xlink:href="#SimHei-8fb9"/>
     <use xlink:href="#SimHei-34" transform="translate(100 0)"/>
    </g>
    <!-- flag- - -->
    <g transform="translate(417.781875 231.832292) scale(0.09 -0.09)">
     <defs>
      <path id="SimHei-2d" d="M 2975 2125 
L 125 2125 
L 125 2525 
L 2975 2525 
L 2975 2125 
z
" transform="scale(0.015625)"/>
     </defs>
     <use xlink:href="#SimHei-66"/>
     <use xlink:href="#SimHei-6c" transform="translate(50 0)"/>
     <use xlink:href="#SimHei-61" transform="translate(100 0)"/>
     <use xlink:href="#SimHei-67" transform="translate(150 0)"/>
     <use xlink:href="#SimHei-2d" transform="translate(200 0)"/>
     <use xlink:href="#SimHei-2d" transform="translate(250 0)"/>
    </g>
   </g>
   <g id="text_34">
    <g id="patch_12">
     <path d="M 333.603958 234.757292 
L 360.603958 234.757292 
Q 362.403958 234.757292 362.403958 232.957292 
L 362.403958 216.166667 
Q 362.403958 214.366667 360.603958 214.366667 
L 333.603958 214.366667 
Q 331.803958 214.366667 331.803958 216.166667 
L 331.803958 232.957292 
Q 331.803958 234.757292 333.603958 234.757292 
z
" style="fill: #ffff00; opacity: 0.7; stroke: #000000; stroke-linejoin: miter"/>
    </g>
    <!-- 边5 -->
    <g transform="translate(333.603958 223.197917) scale(0.09 -0.09)">
     <use xlink:href="#SimHei-8fb9"/>
     <use xlink:href="#SimHei-35" transform="translate(100 0)"/>
    </g>
    <!-- flag++ -->
    <g transform="translate(333.603958 231.832292) scale(0.09 -0.09)">
     <use xlink:href="#SimHei-66"/>
     <use xlink:href="#SimHei-6c" transform="translate(50 0)"/>
     <use xlink:href="#SimHei-61" transform="translate(100 0)"/>
     <use xlink:href="#SimHei-67" transform="translate(150 0)"/>
     <use xlink:href="#SimHei-2b" transform="translate(200 0)"/>
     <use xlink:href="#SimHei-2b" transform="translate(250 0)"/>
    </g>
   </g>
   <g id="text_35">
    <!-- 边6 -->
    <g style="opacity: 0.7" transform="translate(249.426042 95.834167) scale(0.09 -0.09)">
     <use xlink:href="#SimHei-8fb9"/>
     <use xlink:href="#SimHei-36" transform="translate(100 0)"/>
    </g>
    <!-- 无贡献 -->
    <g style="opacity: 0.7" transform="translate(249.426042 105.565417) scale(0.09 -0.09)">
     <use xlink:href="#SimHei-65e0"/>
     <use xlink:href="#SimHei-8d21" transform="translate(100 0)"/>
     <use xlink:href="#SimHei-732e" transform="translate(200 0)"/>
    </g>
   </g>
   <g id="text_36">
    <!-- 边7 -->
    <g style="opacity: 0.7" transform="translate(165.248125 180.012083) scale(0.09 -0.09)">
     <use xlink:href="#SimHei-8fb9"/>
     <use xlink:href="#SimHei-37" transform="translate(100 0)"/>
    </g>
    <!-- 无贡献 -->
    <g style="opacity: 0.7" transform="translate(165.248125 189.743333) scale(0.09 -0.09)">
     <use xlink:href="#SimHei-65e0"/>
     <use xlink:href="#SimHei-8d21" transform="translate(100 0)"/>
     <use xlink:href="#SimHei-732e" transform="translate(200 0)"/>
    </g>
   </g>
   <g id="text_37">
    <!-- 边8 -->
    <g style="opacity: 0.7" transform="translate(123.159167 348.367917) scale(0.09 -0.09)">
     <use xlink:href="#SimHei-8fb9"/>
     <use xlink:href="#SimHei-38" transform="translate(100 0)"/>
    </g>
    <!-- 无贡献 -->
    <g style="opacity: 0.7" transform="translate(123.159167 358.099167) scale(0.09 -0.09)">
     <use xlink:href="#SimHei-65e0"/>
     <use xlink:href="#SimHei-8d21" transform="translate(100 0)"/>
     <use xlink:href="#SimHei-732e" transform="translate(200 0)"/>
    </g>
   </g>
   <g id="text_38">
    <g id="patch_13">
     <path d="M 45.766158 113.506037 
L 282.266158 113.506037 
Q 287.766158 113.506037 287.766158 108.006037 
L 287.766158 36.789631 
Q 287.766158 31.289631 282.266158 31.289631 
L 45.766158 31.289631 
Q 40.266158 31.289631 40.266158 36.789631 
L 40.266158 108.006037 
Q 40.266158 113.506037 45.766158 113.506037 
z
" style="fill: #ffffe0; opacity: 0.8; stroke: #000000; stroke-linejoin: miter"/>
    </g>
    <!-- 射线法原理： -->
    <g transform="translate(45.766158 45.469319) scale(0.11 -0.11)">
     <defs>
      <path id="SimHei-6cd5" d="M 6075 -300 
Q 5850 -425 5625 -625 
Q 5450 -300 5325 -125 
Q 4525 -175 3587 -262 
Q 2650 -350 2325 -450 
Q 2250 -150 2125 75 
Q 2450 175 2825 725 
Q 3200 1275 3500 2100 
L 2800 2100 
Q 2350 2100 1950 2075 
L 1950 2525 
Q 2350 2500 2825 2500 
L 3725 2500 
L 3725 3600 
L 3150 3600 
Q 2675 3600 2325 3575 
L 2325 4025 
Q 2725 4000 3125 4000 
L 3725 4000 
Q 3725 4700 3700 5150 
L 4250 5150 
Q 4225 4775 4225 4000 
L 4975 4000 
Q 5350 4000 5750 4025 
L 5750 3575 
Q 5350 3600 5025 3600 
L 4225 3600 
L 4225 2500 
L 5125 2500 
Q 5575 2500 6025 2525 
L 6025 2075 
Q 5575 2100 5125 2100 
L 3850 2100 
L 4100 1950 
Q 3950 1775 3625 1200 
Q 3300 625 2900 100 
Q 4000 150 5075 225 
Q 4775 675 4450 1025 
Q 4650 1175 4825 1350 
Q 5275 800 6075 -300 
z
M 300 -250 
Q 650 100 1012 625 
Q 1375 1150 1725 1725 
Q 1850 1500 2075 1375 
Q 1850 1075 1500 487 
Q 1150 -100 850 -625 
Q 650 -425 300 -250 
z
M 675 3425 
Q 1200 3100 1800 2650 
Q 1575 2500 1400 2250 
Q 925 2675 350 3050 
Q 525 3200 675 3425 
z
M 1050 4900 
Q 1550 4575 2100 4125 
Q 1900 3975 1725 3725 
Q 1250 4175 725 4525 
Q 900 4700 1050 4900 
z
" transform="scale(0.015625)"/>
      <path id="SimHei-539f" d="M 3850 4275 
Q 3675 4025 3600 3700 
L 5450 3700 
Q 5425 3475 5425 3000 
L 5425 2225 
Q 5425 1825 5450 1475 
L 4050 1475 
L 4050 -50 
Q 4050 -400 3825 -487 
Q 3600 -575 3100 -625 
Q 3050 -325 2925 -50 
Q 3400 -75 3475 -37 
Q 3550 0 3550 175 
L 3550 1475 
L 2125 1475 
Q 2150 1775 2150 2200 
L 2150 3025 
Q 2150 3425 2125 3700 
L 3150 3700 
Q 3300 4250 3300 4425 
L 3850 4275 
z
M 275 -325 
Q 725 275 875 1037 
Q 1025 1800 1025 2300 
L 1025 4125 
Q 1025 4650 1000 4900 
L 5025 4900 
Q 5575 4900 5800 4925 
L 5800 4475 
Q 5600 4500 5025 4500 
L 1525 4500 
L 1525 2375 
Q 1500 1650 1412 1112 
Q 1325 575 1137 125 
Q 950 -325 800 -575 
Q 550 -400 275 -325 
z
M 4925 2775 
L 4925 3325 
L 2625 3325 
L 2625 2775 
L 4925 2775 
z
M 4925 1875 
L 4925 2400 
L 2625 2400 
L 2625 1875 
L 4925 1875 
z
M 1475 -50 
Q 1800 150 2087 450 
Q 2375 750 2575 1100 
Q 2800 875 2975 750 
Q 2300 -50 1825 -400 
Q 1675 -225 1475 -50 
z
M 4825 1075 
Q 5700 300 5925 25 
Q 5750 -125 5575 -325 
Q 5250 75 4500 725 
Q 4675 925 4825 1075 
z
" transform="scale(0.015625)"/>
      <path id="SimHei-7406" d="M 5825 4850 
Q 5800 4525 5800 3425 
Q 5800 2350 5825 1875 
L 4450 1875 
L 4450 1125 
L 5200 1125 
Q 5650 1125 5900 1150 
L 5900 700 
Q 5625 725 5200 725 
L 4450 725 
L 4450 -125 
L 5350 -125 
Q 5825 -125 6150 -100 
L 6150 -550 
Q 5825 -525 5375 -525 
L 2950 -525 
Q 2550 -525 2250 -550 
L 2250 -100 
Q 2575 -125 2950 -125 
L 3975 -125 
L 3975 725 
L 3150 725 
Q 2825 725 2575 700 
L 2575 1150 
Q 2825 1125 3150 1125 
L 3975 1125 
L 3975 1875 
L 2625 1875 
Q 2650 2250 2650 3400 
Q 2650 4550 2625 4850 
L 5825 4850 
z
M 1750 4525 
Q 2025 4525 2350 4550 
L 2350 4075 
Q 2000 4100 1750 4100 
L 1525 4100 
L 1525 2750 
Q 1875 2750 2225 2775 
L 2225 2300 
Q 1875 2325 1525 2325 
L 1525 725 
Q 2000 900 2325 1050 
Q 2375 800 2425 625 
Q 1950 475 1362 237 
Q 775 0 450 -200 
Q 350 50 225 325 
Q 550 375 1075 600 
L 1075 2325 
Q 625 2325 300 2300 
L 300 2775 
Q 650 2750 1075 2750 
L 1075 4100 
L 775 4100 
Q 550 4100 225 4075 
L 225 4550 
Q 550 4525 775 4525 
L 1750 4525 
z
M 5325 2275 
L 5325 3175 
L 4450 3175 
L 4450 2275 
L 5325 2275 
z
M 5325 3550 
L 5325 4450 
L 4450 4450 
L 4450 3550 
L 5325 3550 
z
M 3975 2275 
L 3975 3175 
L 3125 3175 
L 3125 2275 
L 3975 2275 
z
M 3975 3550 
L 3975 4450 
L 3125 4450 
L 3125 3550 
L 3975 3550 
z
" transform="scale(0.015625)"/>
      <path id="SimHei-ff1a" d="M 1200 2425 
L 2025 2425 
L 2025 1600 
L 1200 1600 
L 1200 2425 
z
M 1200 825 
L 2025 825 
L 2025 0 
L 1200 0 
L 1200 825 
z
" transform="scale(0.015625)"/>
     </defs>
     <use xlink:href="#SimHei-5c04"/>
     <use xlink:href="#SimHei-7ebf" transform="translate(100 0)"/>
     <use xlink:href="#SimHei-6cd5" transform="translate(200 0)"/>
     <use xlink:href="#SimHei-539f" transform="translate(300 0)"/>
     <use xlink:href="#SimHei-7406" transform="translate(400 0)"/>
     <use xlink:href="#SimHei-ff1a" transform="translate(500 0)"/>
    </g>
    <!-- • 从测试点P向右发射水平射线 -->
    <g transform="translate(45.766158 57.620881) scale(0.11 -0.11)">
     <defs>
      <path id="SimHei-2022" d="M 5600 -325 
L 700 -325 
L 700 4825 
L 5600 4825 
L 5600 -325 
z
M 5400 4650 
L 875 4650 
L 875 -150 
L 5400 -150 
L 5400 4650 
z
" transform="scale(0.015625)"/>
      <path id="SimHei-20" transform="scale(0.015625)"/>
      <path id="SimHei-4ece" d="M 4400 5000 
Q 4350 4725 4337 4400 
Q 4325 4075 4362 3225 
Q 4400 2375 4900 1412 
Q 5400 450 6100 -50 
Q 5825 -300 5675 -525 
Q 4550 500 4125 2150 
Q 3775 550 2500 -625 
Q 2325 -425 2075 -275 
Q 2850 325 3250 1125 
Q 3650 1925 3750 2687 
Q 3850 3450 3800 5075 
Q 4100 5025 4400 5000 
z
M 2175 4900 
Q 2125 4575 2075 2600 
Q 2950 1700 3225 1350 
Q 2975 1200 2800 950 
Q 2625 1300 1975 2050 
Q 1750 900 650 -325 
Q 600 -200 250 25 
Q 1050 825 1337 1600 
Q 1625 2375 1625 3525 
Q 1625 4675 1600 4975 
Q 1925 4900 2175 4900 
z
" transform="scale(0.015625)"/>
      <path id="SimHei-6d4b" d="M 4025 4725 
Q 4000 4475 4000 4000 
L 4000 2225 
Q 4000 1775 4025 1350 
L 3550 1350 
L 3550 4325 
L 2350 4325 
L 2350 1325 
L 1900 1325 
Q 1925 1775 1925 2225 
L 1925 4000 
Q 1925 4200 1900 4725 
L 4025 4725 
z
M 5900 5075 
Q 5875 4800 5875 4375 
L 5875 0 
Q 5875 -325 5650 -425 
Q 5425 -525 4975 -600 
Q 4925 -325 4775 -50 
Q 5125 -50 5262 -25 
Q 5400 0 5400 250 
L 5400 4375 
Q 5400 4775 5375 5075 
L 5900 5075 
z
M 3275 3725 
Q 3225 3400 3200 2325 
Q 3175 1250 2837 550 
Q 2500 -150 2075 -600 
Q 1850 -400 1600 -325 
Q 2200 250 2475 962 
Q 2750 1675 2762 2475 
Q 2775 3275 2725 3800 
Q 3000 3750 3275 3725 
z
M 4950 4275 
Q 4925 4000 4925 3575 
L 4925 1825 
Q 4925 1300 4950 850 
L 4450 850 
Q 4475 1150 4475 1825 
L 4475 3575 
Q 4475 4000 4450 4275 
L 4950 4275 
z
M 1700 1675 
Q 1375 1075 1112 487 
Q 850 -100 725 -400 
Q 500 -200 200 -25 
Q 475 300 762 850 
Q 1050 1400 1250 2000 
Q 1475 1825 1700 1675 
z
M 3400 1050 
Q 3800 650 4300 -125 
Q 4100 -225 3875 -450 
Q 3475 275 3025 750 
Q 3225 875 3400 1050 
z
M 600 3525 
Q 1125 3125 1500 2775 
Q 1300 2575 1150 2375 
Q 825 2775 300 3150 
Q 450 3300 600 3525 
z
M 1350 4000 
Q 950 4375 475 4675 
Q 625 4850 775 5050 
Q 1300 4700 1675 4375 
Q 1500 4250 1350 4000 
z
" transform="scale(0.015625)"/>
      <path id="SimHei-8bd5" d="M 3950 3825 
Q 3925 4325 3925 4550 
Q 3925 4800 3900 5225 
Q 4200 5150 4450 5125 
Q 4425 4825 4425 4600 
L 4425 3825 
L 5150 3825 
Q 5500 3825 5875 3850 
L 5875 3400 
Q 5525 3425 5125 3425 
L 4450 3425 
Q 4500 2750 4587 2212 
Q 4675 1675 4837 1112 
Q 5000 550 5212 225 
Q 5425 -100 5500 200 
Q 5575 500 5600 900 
Q 5800 625 6100 525 
Q 5975 -275 5750 -487 
Q 5525 -700 5250 -537 
Q 4975 -375 4737 62 
Q 4500 500 4337 1075 
Q 4175 1650 4100 2262 
Q 4025 2875 3975 3425 
L 2800 3425 
Q 2300 3425 1875 3400 
L 1875 3850 
Q 2275 3825 2775 3825 
L 3950 3825 
z
M 1500 3175 
Q 1475 2675 1475 2175 
L 1475 625 
Q 1825 950 2125 1225 
Q 2225 1000 2375 800 
Q 1900 425 1125 -350 
Q 1000 -125 825 50 
Q 1025 175 1025 525 
L 1025 2725 
Q 625 2725 300 2700 
L 300 3200 
Q 625 3175 825 3175 
L 1500 3175 
z
M 3775 2175 
Q 3500 2200 3250 2200 
L 3250 575 
Q 3575 675 3900 800 
Q 3900 525 3950 325 
Q 3575 250 3150 125 
Q 2725 0 2275 -175 
Q 2200 100 2025 300 
Q 2425 350 2800 475 
L 2800 2200 
Q 2525 2200 2225 2175 
L 2225 2650 
Q 2600 2625 3000 2625 
Q 3425 2625 3775 2650 
L 3775 2175 
z
M 925 4975 
Q 1275 4650 1700 4100 
Q 1525 3925 1325 3775 
Q 1175 4050 575 4650 
Q 775 4825 925 4975 
z
M 5150 5150 
Q 5325 5000 5850 4375 
Q 5575 4200 5425 4050 
Q 5125 4525 4775 4875 
Q 4925 4975 5150 5150 
z
" transform="scale(0.015625)"/>
      <path id="SimHei-50" d="M 2950 3100 
Q 2950 2500 2600 2150 
Q 2250 1800 1625 1800 
L 900 1800 
L 900 125 
L 325 125 
L 325 4400 
L 1625 4400 
Q 2250 4400 2600 4050 
Q 2950 3700 2950 3100 
z
M 2375 3100 
Q 2375 3575 2150 3750 
Q 1925 3925 1475 3925 
L 900 3925 
L 900 2275 
L 1475 2275 
Q 1925 2275 2150 2450 
Q 2375 2625 2375 3100 
z
" transform="scale(0.015625)"/>
      <path id="SimHei-53d1" d="M 3475 4925 
Q 3350 4650 3275 4362 
Q 3200 4075 3075 3575 
L 5075 3575 
Q 5325 3575 5825 3600 
L 5825 3125 
Q 5325 3150 5075 3150 
L 2975 3150 
Q 2825 2775 2650 2400 
L 5300 2400 
Q 4825 1250 3975 475 
Q 4650 0 5950 -150 
Q 5775 -350 5650 -650 
Q 5150 -550 4625 -362 
Q 4100 -175 3600 175 
Q 3200 -75 2625 -312 
Q 2050 -550 1450 -700 
Q 1400 -450 1200 -225 
Q 1750 -150 2300 37 
Q 2850 225 3275 500 
Q 2850 925 2325 1725 
Q 2050 1275 1625 850 
Q 1200 425 700 75 
Q 600 250 300 450 
Q 675 650 1037 975 
Q 1400 1300 1800 1837 
Q 2200 2375 2475 3150 
Q 1825 3150 1475 3125 
Q 1125 3100 950 3025 
Q 875 3250 750 3500 
Q 1000 3550 1112 3875 
Q 1225 4200 1350 4875 
Q 1550 4775 1900 4675 
Q 1775 4425 1675 4162 
Q 1575 3900 1450 3575 
L 2600 3575 
Q 2800 4375 2900 5100 
Q 3175 4950 3475 4925 
z
M 2675 2000 
Q 3025 1375 3650 750 
Q 4200 1200 4625 2000 
L 2675 2000 
z
M 4400 5075 
Q 4825 4600 5250 4100 
Q 5075 4000 4825 3775 
Q 4425 4350 4050 4750 
Q 4225 4875 4400 5075 
z
" transform="scale(0.015625)"/>
     </defs>
     <use xlink:href="#SimHei-2022"/>
     <use xlink:href="#SimHei-20" transform="translate(100 0)"/>
     <use xlink:href="#SimHei-4ece" transform="translate(150 0)"/>
     <use xlink:href="#SimHei-6d4b" transform="translate(250 0)"/>
     <use xlink:href="#SimHei-8bd5" transform="translate(350 0)"/>
     <use xlink:href="#SimHei-70b9" transform="translate(450 0)"/>
     <use xlink:href="#SimHei-50" transform="translate(550 0)"/>
     <use xlink:href="#SimHei-5411" transform="translate(600 0)"/>
     <use xlink:href="#SimHei-53f3" transform="translate(700 0)"/>
     <use xlink:href="#SimHei-53d1" transform="translate(800 0)"/>
     <use xlink:href="#SimHei-5c04" transform="translate(900 0)"/>
     <use xlink:href="#SimHei-6c34" transform="translate(1000 0)"/>
     <use xlink:href="#SimHei-5e73" transform="translate(1100 0)"/>
     <use xlink:href="#SimHei-5c04" transform="translate(1200 0)"/>
     <use xlink:href="#SimHei-7ebf" transform="translate(1300 0)"/>
    </g>
    <!-- • 统计射线与多边形边界的交点数 -->
    <g transform="translate(45.766158 69.824006) scale(0.11 -0.11)">
     <defs>
      <path id="SimHei-7edf" d="M 5150 4300 
Q 5525 4300 5950 4325 
L 5950 3875 
Q 5550 3900 5175 3900 
L 3775 3900 
Q 3975 3750 4250 3600 
Q 4050 3450 3837 3162 
Q 3625 2875 3225 2375 
Q 3800 2375 5025 2500 
Q 4925 2625 4625 2975 
Q 4850 3100 5025 3250 
Q 5450 2800 5950 2100 
Q 5700 1950 5525 1775 
Q 5375 1975 5275 2125 
Q 4925 2100 4825 2075 
L 4825 200 
Q 4825 -100 5075 -100 
L 5325 -100 
Q 5550 -100 5625 575 
Q 5850 400 6150 325 
Q 5925 -525 5525 -525 
L 4850 -525 
Q 4350 -525 4350 0 
L 4350 2025 
Q 4000 2000 3875 1975 
Q 3900 1050 3637 462 
Q 3375 -125 2625 -700 
Q 2500 -500 2175 -375 
Q 2575 -125 2850 175 
Q 3125 475 3275 850 
Q 3425 1225 3400 1925 
Q 3025 1900 2725 1825 
Q 2650 2200 2525 2475 
Q 2825 2500 3187 2975 
Q 3550 3450 3675 3900 
L 3275 3900 
Q 2950 3900 2475 3875 
L 2475 4325 
Q 2875 4300 3250 4300 
L 5150 4300 
z
M 1875 4825 
Q 1700 4600 1500 4250 
Q 1300 3900 900 3250 
Q 1375 3275 1650 3275 
Q 1850 3625 1975 3975 
Q 2250 3800 2550 3675 
Q 2375 3500 2075 3037 
Q 1775 2575 1225 1725 
Q 1950 1800 2500 1900 
Q 2375 1600 2375 1425 
Q 2150 1400 1587 1325 
Q 1025 1250 600 1125 
Q 525 1375 425 1625 
Q 700 1700 950 2075 
Q 1200 2450 1450 2900 
Q 1225 2875 925 2837 
Q 625 2800 425 2750 
Q 325 3000 200 3225 
Q 500 3300 862 4025 
Q 1225 4750 1275 5075 
Q 1575 4925 1875 4825 
z
M 2550 825 
Q 2525 575 2550 350 
Q 1975 200 1412 37 
Q 850 -125 550 -250 
Q 450 0 275 275 
Q 900 375 1450 500 
Q 2000 625 2550 825 
z
M 4100 5275 
Q 4375 4825 4500 4575 
Q 4325 4500 4025 4350 
Q 3825 4825 3650 5075 
Q 3950 5175 4100 5275 
z
" transform="scale(0.015625)"/>
      <path id="SimHei-8ba1" d="M 3925 3100 
L 3925 4350 
Q 3925 4850 3900 5125 
L 4425 5125 
Q 4400 4800 4400 4550 
L 4400 3100 
L 5425 3100 
Q 5725 3100 6075 3125 
L 6075 2650 
Q 5700 2675 5450 2675 
L 4400 2675 
L 4400 175 
Q 4400 -125 4425 -550 
L 3900 -550 
Q 3925 -125 3925 150 
L 3925 2675 
L 2950 2675 
Q 2575 2675 2200 2650 
L 2200 3125 
Q 2575 3100 2900 3100 
L 3925 3100 
z
M 1775 3150 
Q 1750 2675 1750 2150 
L 1750 625 
Q 2175 1050 2425 1400 
Q 2575 1200 2775 1000 
L 2075 300 
Q 1750 -25 1450 -350 
Q 1275 -125 1125 50 
Q 1300 250 1275 650 
L 1275 2725 
Q 600 2725 275 2700 
L 275 3175 
Q 675 3150 825 3150 
L 1775 3150 
z
M 1150 5050 
Q 1475 4725 2175 4000 
Q 1950 3800 1750 3625 
Q 1425 4100 775 4750 
Q 950 4875 1150 5050 
z
" transform="scale(0.015625)"/>
      <path id="SimHei-4e0e" d="M 5350 100 
Q 5275 -300 4925 -425 
Q 4575 -550 3900 -600 
Q 3875 -375 3650 -25 
Q 4375 -50 4575 0 
Q 4775 50 4837 225 
Q 4900 400 5100 2350 
L 1125 2350 
Q 1450 4350 1475 5200 
Q 1800 5150 2075 5125 
Q 1975 4825 1900 4275 
L 4900 4275 
Q 5400 4275 5800 4300 
L 5800 3825 
Q 5400 3850 4950 3850 
L 1850 3850 
L 1700 2750 
L 5675 2750 
Q 5625 2450 5575 2050 
L 5350 100 
z
M 3675 1350 
Q 4125 1350 4500 1375 
L 4500 875 
Q 4125 900 3850 900 
L 1450 900 
Q 1000 900 500 875 
L 500 1375 
Q 1000 1350 1450 1350 
L 3675 1350 
z
" transform="scale(0.015625)"/>
      <path id="SimHei-591a" d="M 3800 2950 
Q 4000 2750 4275 2650 
Q 4050 2450 3850 2275 
L 5925 2275 
Q 5625 1525 5137 975 
Q 4650 425 4050 125 
Q 3450 -175 2725 -375 
Q 2000 -575 950 -675 
Q 850 -400 650 -150 
Q 1275 -175 2137 -25 
Q 3000 125 3700 450 
Q 3250 900 2950 1175 
Q 3150 1325 3300 1500 
Q 3650 1150 4100 675 
Q 4425 875 4712 1187 
Q 5000 1500 5200 1900 
L 3475 1900 
Q 3225 1700 2775 1412 
Q 2325 1125 1525 775 
Q 1400 1025 1200 1175 
Q 2025 1425 2762 1950 
Q 3500 2475 3800 2950 
z
M 900 1850 
Q 800 2100 575 2325 
Q 1050 2350 1725 2525 
Q 2400 2700 2775 2900 
Q 2475 3300 2100 3600 
Q 2300 3750 2425 3925 
Q 2900 3475 3200 3125 
Q 3575 3350 3875 3612 
Q 4175 3875 4400 4175 
L 2250 4175 
Q 1725 3725 1025 3275 
Q 875 3500 650 3625 
Q 1325 3925 1875 4400 
Q 2425 4875 2600 5225 
Q 2800 5075 3025 4925 
Q 2900 4825 2625 4550 
L 5225 4550 
Q 4500 3500 3800 3025 
Q 3100 2550 2437 2312 
Q 1775 2075 900 1850 
z
" transform="scale(0.015625)"/>
      <path id="SimHei-5f62" d="M 2750 4850 
Q 3350 4850 3675 4875 
L 3675 4425 
Q 3400 4450 2950 4450 
L 2950 2700 
Q 3475 2700 3725 2725 
L 3725 2250 
Q 3500 2275 2950 2275 
L 2950 500 
Q 2950 -50 2975 -350 
L 2475 -350 
Q 2500 0 2500 475 
L 2500 2275 
L 1650 2275 
Q 1600 1075 1325 437 
Q 1050 -200 825 -500 
Q 550 -300 300 -250 
Q 700 150 937 762 
Q 1175 1375 1200 2275 
Q 775 2275 425 2250 
L 425 2725 
Q 775 2700 1225 2700 
L 1225 4450 
Q 800 4450 600 4425 
L 600 4875 
Q 800 4850 1375 4850 
L 2750 4850 
z
M 6100 1275 
Q 5850 1050 5150 462 
Q 4450 -125 3800 -525 
Q 3650 -300 3400 -100 
Q 4050 175 4725 750 
Q 5400 1325 5625 1650 
Q 5800 1450 6100 1275 
z
M 2500 2700 
L 2500 4450 
L 1675 4450 
L 1675 2700 
L 2500 2700 
z
M 5875 2975 
Q 5650 2825 5187 2300 
Q 4725 1775 3900 1175 
Q 3750 1375 3475 1550 
Q 4175 1950 4625 2412 
Q 5075 2875 5375 3325 
Q 5700 3050 5875 2975 
z
M 5675 4800 
Q 5425 4575 5062 4087 
Q 4700 3600 4075 2975 
Q 3850 3150 3625 3275 
Q 4175 3750 4475 4125 
Q 4775 4500 5125 5100 
Q 5250 5025 5675 4800 
z
" transform="scale(0.015625)"/>
      <path id="SimHei-754c" d="M 5400 5075 
Q 5375 4800 5375 4225 
L 5375 3675 
Q 5375 3350 5400 2875 
L 975 2875 
Q 1000 3350 1000 3700 
L 1000 4225 
Q 1000 4700 975 5075 
L 5400 5075 
z
M 3400 2450 
Q 3875 2100 4700 1787 
Q 5525 1475 6150 1425 
Q 5925 1200 5800 925 
Q 5175 1075 4575 1325 
Q 4550 1175 4550 925 
L 4550 150 
Q 4550 -225 4575 -600 
L 4025 -600 
Q 4050 -250 4050 150 
L 4050 825 
Q 4050 1150 4025 1450 
L 4325 1450 
Q 3775 1650 3100 2200 
Q 2700 1900 2075 1587 
Q 1450 1275 625 1000 
Q 525 1225 300 1425 
Q 675 1500 1300 1725 
Q 1925 1950 2387 2262 
Q 2850 2575 3000 2800 
Q 3250 2675 3525 2550 
L 3400 2450 
z
M 2400 1375 
Q 2350 1200 2337 1000 
Q 2325 800 2262 525 
Q 2200 250 2000 -37 
Q 1800 -325 1325 -700 
Q 1150 -475 950 -350 
Q 1350 -100 1562 137 
Q 1775 375 1825 600 
Q 1875 825 1887 987 
Q 1900 1150 1900 1450 
Q 2225 1400 2400 1375 
z
M 4875 3225 
L 4875 3800 
L 3400 3800 
L 3400 3225 
L 4875 3225 
z
M 4875 4150 
L 4875 4725 
L 3400 4725 
L 3400 4150 
L 4875 4150 
z
M 2925 4150 
L 2925 4725 
L 1500 4725 
L 1500 4150 
L 2925 4150 
z
M 2925 3225 
L 2925 3800 
L 1500 3800 
L 1500 3225 
L 2925 3225 
z
" transform="scale(0.015625)"/>
      <path id="SimHei-7684" d="M 2100 4975 
Q 1975 4750 1750 3950 
L 2875 3950 
Q 2850 3525 2850 2875 
L 2850 675 
Q 2850 300 2875 -400 
L 2375 -400 
L 2375 100 
L 1100 100 
L 1100 -450 
L 600 -450 
Q 625 350 625 550 
L 625 2850 
Q 625 3525 600 3950 
L 1325 3950 
Q 1450 4525 1525 5150 
Q 1875 5025 2100 4975 
z
M 5825 3075 
Q 5800 1550 5700 175 
Q 5650 -275 5225 -425 
Q 4800 -575 4275 -625 
Q 4250 -350 4050 -50 
Q 4550 -75 4837 -25 
Q 5125 25 5200 200 
Q 5275 375 5312 1225 
Q 5350 2075 5375 3600 
L 3925 3600 
Q 3725 3125 3350 2475 
Q 3175 2650 2925 2750 
Q 3150 3050 3350 3475 
Q 3550 3900 3700 4400 
Q 3850 4900 3875 5175 
Q 4225 5025 4475 4950 
Q 4350 4750 4262 4512 
Q 4175 4275 4075 4050 
L 5850 4050 
Q 5825 3525 5825 3075 
z
M 2375 525 
L 2375 1850 
L 1100 1850 
L 1100 525 
L 2375 525 
z
M 2375 2275 
L 2375 3525 
L 1100 3525 
L 1100 2275 
L 2375 2275 
z
M 4350 2050 
Q 4500 1750 4700 1275 
Q 4525 1200 4225 1025 
Q 4050 1500 3900 1837 
Q 3750 2175 3600 2400 
Q 3775 2500 4050 2650 
L 4350 2050 
z
" transform="scale(0.015625)"/>
      <path id="SimHei-6570" d="M 4525 4925 
Q 4475 4800 4400 4587 
Q 4325 4375 4175 3825 
L 5325 3825 
Q 5575 3825 5925 3850 
L 5925 3400 
Q 5650 3425 5500 3425 
Q 5500 3025 5362 2162 
Q 5225 1300 4875 675 
Q 5125 375 5437 137 
Q 5750 -100 6025 -200 
Q 5725 -425 5625 -625 
Q 5325 -450 5075 -225 
Q 4825 0 4575 325 
Q 4300 25 3987 -187 
Q 3675 -400 3200 -650 
Q 3075 -425 2850 -300 
Q 3225 -150 3650 125 
Q 4075 400 4300 675 
Q 4125 1025 3962 1425 
Q 3800 1825 3675 2475 
Q 3600 2275 3425 1950 
Q 3250 2050 3000 2150 
Q 3400 2850 3650 3675 
Q 3900 4500 3975 5100 
Q 4275 4975 4525 4925 
z
M 2100 2250 
Q 2000 2150 1875 1925 
L 3250 1925 
Q 3100 1300 2725 675 
Q 3125 525 3350 400 
Q 3225 225 3125 25 
Q 2900 175 2450 325 
Q 1950 -225 725 -650 
Q 600 -375 400 -275 
Q 1575 0 2000 475 
Q 1300 650 850 775 
Q 1000 1000 1250 1525 
Q 1000 1525 425 1500 
L 425 1950 
Q 900 1925 1400 1925 
Q 1500 2150 1550 2425 
Q 1825 2325 2100 2250 
z
M 1775 3950 
Q 1775 4550 1750 5100 
L 2250 5100 
Q 2225 4575 2225 3950 
Q 3075 3950 3425 3975 
L 3425 3525 
Q 3075 3550 2225 3550 
Q 2225 2825 2250 2425 
L 1750 2425 
Q 1775 2775 1775 3300 
Q 1650 3100 1300 2787 
Q 950 2475 650 2300 
Q 525 2525 275 2625 
Q 500 2700 875 2975 
Q 1250 3250 1450 3550 
Q 950 3550 500 3525 
L 500 3975 
Q 925 3950 1775 3950 
z
M 3975 3175 
Q 4200 1700 4600 1125 
Q 4850 1700 4937 2287 
Q 5025 2875 5050 3425 
L 4075 3425 
L 3975 3175 
z
M 1450 1000 
Q 1750 925 2275 800 
Q 2475 1050 2650 1525 
L 1725 1525 
Q 1600 1275 1450 1000 
z
M 3325 4825 
Q 3200 4625 3125 4450 
Q 3050 4275 2925 4025 
Q 2725 4125 2525 4175 
Q 2725 4500 2900 5000 
Q 3150 4875 3325 4825 
z
M 2575 3375 
Q 2900 3050 3200 2725 
Q 3050 2600 2875 2425 
Q 2525 2850 2300 3100 
Q 2450 3225 2575 3375 
z
M 925 5000 
Q 1275 4650 1500 4300 
L 1125 4075 
Q 950 4425 600 4725 
Q 825 4875 925 5000 
z
" transform="scale(0.015625)"/>
     </defs>
     <use xlink:href="#SimHei-2022"/>
     <use xlink:href="#SimHei-20" transform="translate(100 0)"/>
     <use xlink:href="#SimHei-7edf" transform="translate(150 0)"/>
     <use xlink:href="#SimHei-8ba1" transform="translate(250 0)"/>
     <use xlink:href="#SimHei-5c04" transform="translate(350 0)"/>
     <use xlink:href="#SimHei-7ebf" transform="translate(450 0)"/>
     <use xlink:href="#SimHei-4e0e" transform="translate(550 0)"/>
     <use xlink:href="#SimHei-591a" transform="translate(650 0)"/>
     <use xlink:href="#SimHei-8fb9" transform="translate(750 0)"/>
     <use xlink:href="#SimHei-5f62" transform="translate(850 0)"/>
     <use xlink:href="#SimHei-8fb9" transform="translate(950 0)"/>
     <use xlink:href="#SimHei-754c" transform="translate(1050 0)"/>
     <use xlink:href="#SimHei-7684" transform="translate(1150 0)"/>
     <use xlink:href="#SimHei-4ea4" transform="translate(1250 0)"/>
     <use xlink:href="#SimHei-70b9" transform="translate(1350 0)"/>
     <use xlink:href="#SimHei-6570" transform="translate(1450 0)"/>
    </g>
    <!-- • 改进算法：只有从下向上穿过的边才贡献flag -->
    <g transform="translate(45.766158 82.130256) scale(0.11 -0.11)">
     <defs>
      <path id="SimHei-6539" d="M 4600 900 
Q 4850 575 5337 250 
Q 5825 -75 6175 -200 
Q 6000 -325 5775 -675 
Q 5450 -475 5087 -200 
Q 4725 75 4275 525 
Q 3850 125 3387 -150 
Q 2925 -425 2350 -675 
Q 2250 -450 2000 -225 
Q 2525 -75 3087 225 
Q 3650 525 4025 950 
Q 3825 1250 3600 1675 
Q 3375 2100 3175 2500 
L 3050 2325 
Q 2800 2500 2650 2600 
Q 2900 2900 3237 3562 
Q 3575 4225 3800 5125 
Q 4100 4975 4350 4950 
Q 4200 4700 4075 4387 
Q 3950 4075 3825 3775 
L 5075 3775 
Q 5600 3775 5950 3800 
L 5950 3350 
Q 5700 3375 5300 3375 
Q 5150 1850 4600 900 
z
M 2600 4500 
Q 2575 3925 2575 3350 
Q 2575 2775 2600 2275 
L 1125 2275 
L 1125 325 
Q 2050 825 2500 1175 
Q 2550 875 2650 700 
Q 2175 425 1725 150 
Q 1275 -125 800 -450 
Q 650 -225 450 -25 
Q 675 175 650 500 
L 650 1875 
Q 650 2225 625 2675 
L 2125 2675 
L 2125 4100 
L 1300 4100 
Q 875 4100 425 4075 
L 425 4525 
Q 875 4500 1300 4500 
L 2600 4500 
z
M 3200 2575 
Q 3425 2650 3575 2750 
Q 3750 2325 3950 1937 
Q 4150 1550 4325 1300 
Q 4725 2050 4825 3375 
L 3675 3375 
Q 3450 2975 3200 2575 
z
" transform="scale(0.015625)"/>
      <path id="SimHei-8fdb" d="M 4400 4100 
Q 4400 4600 4375 5200 
L 4900 5200 
Q 4875 4900 4875 4100 
Q 5400 4100 5900 4125 
L 5900 3650 
Q 5400 3675 4875 3675 
L 4875 2575 
Q 5475 2575 6025 2600 
L 6025 2125 
Q 5475 2150 4875 2150 
L 4875 1125 
Q 4875 700 4900 250 
L 4375 250 
Q 4375 700 4400 1125 
L 4400 2150 
L 3450 2150 
Q 3350 1475 3162 1050 
Q 2975 625 2600 200 
Q 2350 400 2125 525 
Q 2600 950 2750 1312 
Q 2900 1675 2975 2150 
Q 2400 2150 1975 2125 
L 1975 2600 
Q 2425 2575 3025 2575 
Q 3075 3150 3075 3675 
Q 2575 3675 2100 3625 
L 2100 4125 
Q 2575 4100 3100 4100 
Q 3100 4675 3075 5200 
Q 3325 5175 3600 5150 
Q 3575 4825 3550 4100 
L 4400 4100 
z
M 1600 3125 
Q 1550 2575 1550 2200 
L 1550 625 
Q 2275 125 3100 37 
Q 3925 -50 4712 -25 
Q 5500 0 6125 100 
Q 6000 -200 5975 -525 
Q 4775 -525 4012 -500 
Q 3250 -475 2612 -312 
Q 1975 -150 1650 37 
Q 1325 225 1087 37 
Q 850 -150 575 -450 
Q 425 -225 200 -50 
Q 800 400 1075 575 
L 1075 2700 
Q 800 2700 375 2650 
L 375 3150 
Q 875 3125 1125 3125 
L 1600 3125 
z
M 4400 2575 
L 4400 3675 
L 3550 3675 
Q 3525 3150 3475 2575 
L 4400 2575 
z
M 1200 5050 
Q 1600 4250 1700 3925 
Q 1425 3875 1200 3725 
Q 1125 4175 700 4850 
L 1200 5050 
z
" transform="scale(0.015625)"/>
      <path id="SimHei-7b97" d="M 5175 3650 
Q 5150 3200 5150 2500 
Q 5150 1800 5175 1325 
L 4575 1325 
L 4575 875 
L 5250 875 
Q 5650 875 6150 900 
L 6150 475 
Q 5650 500 5250 500 
L 4575 500 
Q 4575 -75 4600 -625 
L 4050 -625 
Q 4075 -75 4075 500 
L 2650 500 
Q 2475 100 2125 -175 
Q 1775 -450 1075 -675 
Q 925 -425 700 -250 
Q 1250 -150 1600 37 
Q 1950 225 2125 500 
L 1225 500 
Q 800 500 300 475 
L 300 900 
Q 825 875 1225 875 
L 2200 875 
Q 2250 1075 2250 1325 
L 1250 1325 
Q 1275 1775 1275 2475 
Q 1275 3200 1250 3650 
L 5175 3650 
z
M 1825 5100 
Q 1625 4900 1475 4725 
L 2425 4725 
Q 2750 4725 3175 4750 
L 3175 4325 
Q 2750 4350 2200 4350 
Q 2250 4175 2350 3875 
Q 2075 3850 1825 3750 
Q 1750 4075 1675 4350 
L 1200 4350 
Q 1075 4125 775 3775 
Q 525 3925 250 4000 
Q 500 4225 762 4537 
Q 1025 4850 1275 5300 
Q 1500 5175 1825 5100 
z
M 4525 5100 
Q 4325 4950 4175 4725 
L 5225 4725 
Q 5500 4725 5950 4750 
L 5950 4325 
Q 5550 4350 4975 4350 
L 5175 3950 
Q 4925 3925 4650 3825 
Q 4575 4100 4500 4350 
L 3900 4350 
Q 3700 4025 3525 3775 
Q 3250 3950 3025 4000 
Q 3325 4300 3550 4612 
Q 3775 4925 3900 5275 
Q 4175 5175 4525 5100 
z
M 4650 1675 
L 4650 2000 
L 1775 2000 
L 1775 1675 
L 4650 1675 
z
M 4650 2350 
L 4650 2650 
L 1775 2650 
L 1775 2350 
L 4650 2350 
z
M 4650 3000 
L 4650 3300 
L 1775 3300 
L 1775 3000 
L 4650 3000 
z
M 4075 875 
L 4075 1325 
L 2725 1325 
Q 2725 1075 2700 875 
L 4075 875 
z
" transform="scale(0.015625)"/>
      <path id="SimHei-53ea" d="M 5150 4800 
Q 5125 4375 5125 3400 
Q 5125 2450 5150 1875 
L 1225 1875 
Q 1250 2325 1250 3300 
Q 1250 4275 1225 4800 
L 5150 4800 
z
M 4600 2325 
L 4600 4375 
L 1775 4375 
L 1775 2325 
L 4600 2325 
z
M 4175 1575 
Q 5400 300 5925 -200 
Q 5850 -250 5425 -600 
Q 4975 0 3750 1225 
Q 3975 1375 4175 1575 
z
M 2575 1200 
Q 2250 850 1775 337 
Q 1300 -175 800 -675 
Q 625 -500 375 -275 
Q 825 50 1300 562 
Q 1775 1075 2125 1600 
Q 2425 1375 2575 1200 
z
" transform="scale(0.015625)"/>
      <path id="SimHei-6709" d="M 275 1625 
Q 850 1975 1400 2537 
Q 1950 3100 2400 3925 
L 1500 3925 
Q 1150 3925 625 3900 
L 625 4375 
Q 1275 4350 1600 4350 
L 2550 4350 
Q 2750 4950 2775 5225 
Q 3150 5125 3375 5075 
Q 3300 5000 3125 4350 
L 5150 4350 
Q 5575 4350 6025 4375 
L 6025 3900 
Q 5575 3925 5225 3925 
L 2975 3925 
Q 2800 3600 2600 3275 
L 5475 3275 
Q 5450 2650 5450 2150 
L 5450 125 
Q 5450 -225 5250 -387 
Q 5050 -550 4400 -600 
Q 4375 -325 4225 0 
Q 4600 -50 4775 -25 
Q 4950 0 4950 250 
L 4950 750 
L 2350 750 
L 2350 -575 
L 1800 -575 
Q 1825 50 1825 500 
L 1825 2275 
Q 1300 1675 725 1225 
Q 625 1400 275 1625 
z
M 4950 2175 
L 4950 2875 
L 2350 2875 
L 2350 2175 
L 4950 2175 
z
M 4950 1150 
L 4950 1775 
L 2350 1775 
L 2350 1150 
L 4950 1150 
z
" transform="scale(0.015625)"/>
      <path id="SimHei-4e0b" d="M 5000 4700 
Q 5475 4700 5975 4725 
L 5975 4200 
Q 5425 4225 5000 4225 
L 3275 4225 
L 3275 375 
Q 3275 50 3300 -450 
L 2725 -450 
Q 2750 0 2750 375 
L 2750 4225 
L 1375 4225 
Q 875 4225 400 4200 
L 400 4725 
Q 875 4700 1375 4700 
L 5000 4700 
z
M 5650 1400 
Q 5400 1225 5200 1000 
Q 4800 1525 3650 2575 
L 4025 2950 
Q 4700 2400 5650 1400 
z
" transform="scale(0.015625)"/>
      <path id="SimHei-4e0a" d="M 3250 5075 
Q 3225 4650 3225 4275 
L 3225 3225 
L 4650 3225 
Q 5150 3225 5600 3250 
L 5600 2700 
Q 5100 2725 4600 2725 
L 3225 2725 
L 3225 200 
L 5200 200 
Q 5575 200 6075 225 
L 6075 -300 
Q 5600 -275 5200 -275 
L 1250 -275 
Q 850 -275 350 -300 
L 350 225 
Q 825 200 1250 200 
L 2700 200 
L 2700 4250 
Q 2700 4625 2675 5075 
L 3250 5075 
z
" transform="scale(0.015625)"/>
      <path id="SimHei-7a7f" d="M 4825 2900 
Q 5100 2900 5600 2925 
L 5600 2475 
Q 5100 2500 4825 2500 
L 4525 2500 
L 4525 1700 
L 5100 1700 
Q 5525 1700 6000 1725 
L 6000 1275 
Q 5425 1300 5100 1300 
L 4525 1300 
L 4525 0 
Q 4525 -425 4212 -500 
Q 3900 -575 3425 -625 
Q 3375 -325 3200 0 
Q 3725 -25 3875 0 
Q 4025 25 4025 400 
L 4025 1300 
L 3850 1300 
Q 3525 975 3225 737 
Q 2925 500 2562 300 
Q 2200 100 1775 -62 
Q 1350 -225 725 -425 
Q 575 -200 350 50 
Q 825 100 1262 237 
Q 1700 375 2050 537 
Q 2400 700 2687 887 
Q 2975 1075 3200 1300 
Q 2525 1300 2025 1287 
Q 1525 1275 1150 1200 
Q 1050 1450 950 1675 
Q 1200 1775 1337 2025 
Q 1475 2275 1575 2500 
Q 1250 2500 825 2475 
L 825 2925 
Q 1225 2900 1550 2900 
L 4825 2900 
z
M 3325 5275 
Q 3425 5000 3575 4550 
L 5950 4550 
Q 5925 4300 5925 4025 
Q 5925 3775 5950 3475 
L 5450 3475 
L 5450 4150 
L 1125 4150 
L 1125 3500 
L 600 3500 
Q 625 3800 625 4050 
Q 625 4325 600 4550 
L 3000 4550 
Q 2950 4775 2800 5100 
Q 3050 5150 3325 5275 
z
M 4025 1700 
L 4025 2500 
L 2125 2500 
Q 1825 1950 1650 1700 
L 4025 1700 
z
M 4000 4050 
Q 4325 3900 4650 3762 
Q 4975 3625 5375 3450 
Q 5225 3250 5050 3000 
Q 4800 3150 4475 3325 
Q 4150 3500 3700 3700 
Q 3875 3875 4000 4050 
z
M 2875 3625 
Q 2675 3575 2287 3387 
Q 1900 3200 1475 2975 
Q 1300 3225 1175 3400 
Q 1675 3550 1950 3700 
Q 2225 3850 2475 4050 
Q 2625 3875 2875 3625 
z
" transform="scale(0.015625)"/>
      <path id="SimHei-8fc7" d="M 250 -200 
Q 1025 475 1275 650 
L 1275 2475 
Q 675 2475 400 2450 
L 400 2950 
Q 625 2900 1325 2900 
L 1800 2900 
Q 1775 2525 1775 2150 
L 1775 600 
Q 2500 -25 3912 -37 
Q 5325 -50 6150 75 
Q 6000 -175 5925 -550 
L 4425 -550 
Q 3800 -550 3275 -512 
Q 2750 -475 2387 -300 
Q 2025 -125 1750 75 
Q 1475 275 1237 37 
Q 1000 -200 700 -625 
Q 550 -375 250 -200 
z
M 3625 850 
Q 4200 825 4350 875 
Q 4500 925 4500 1300 
L 4500 3575 
L 2875 3575 
Q 2600 3575 2275 3550 
L 2275 4025 
Q 2600 4000 3075 4000 
L 4500 4000 
Q 4500 4650 4450 5125 
L 5025 5125 
Q 5000 4800 5000 4000 
Q 5525 4000 5950 4025 
L 5950 3550 
Q 5550 3575 5000 3575 
L 5000 1100 
Q 5000 525 4662 412 
Q 4325 300 3825 275 
Q 3775 550 3625 850 
z
M 3125 1600 
Q 2900 2275 2575 2850 
Q 2800 2950 3050 3125 
Q 3500 2225 3625 1875 
Q 3450 1775 3125 1600 
z
M 1150 4975 
Q 1400 4675 1925 3875 
Q 1675 3725 1450 3550 
Q 950 4400 700 4625 
Q 925 4750 1150 4975 
z
" transform="scale(0.015625)"/>
      <path id="SimHei-624d" d="M 3725 3750 
Q 3725 4500 3700 5175 
L 4250 5175 
Q 4225 4475 4225 3750 
Q 5150 3750 6000 3775 
L 6000 3275 
Q 5075 3300 4225 3300 
L 4225 125 
Q 4225 -225 3987 -350 
Q 3750 -475 3025 -575 
Q 2975 -350 2775 0 
Q 3400 0 3562 62 
Q 3725 125 3725 475 
L 3725 2650 
Q 3250 1975 2475 1300 
Q 1700 625 875 150 
Q 700 425 475 600 
Q 1275 875 2137 1625 
Q 3000 2375 3600 3300 
L 1675 3300 
Q 1050 3300 575 3275 
L 575 3775 
Q 1025 3750 1675 3750 
L 3725 3750 
z
" transform="scale(0.015625)"/>
     </defs>
     <use xlink:href="#SimHei-2022"/>
     <use xlink:href="#SimHei-20" transform="translate(100 0)"/>
     <use xlink:href="#SimHei-6539" transform="translate(150 0)"/>
     <use xlink:href="#SimHei-8fdb" transform="translate(250 0)"/>
     <use xlink:href="#SimHei-7b97" transform="translate(350 0)"/>
     <use xlink:href="#SimHei-6cd5" transform="translate(450 0)"/>
     <use xlink:href="#SimHei-ff1a" transform="translate(550 0)"/>
     <use xlink:href="#SimHei-53ea" transform="translate(650 0)"/>
     <use xlink:href="#SimHei-6709" transform="translate(750 0)"/>
     <use xlink:href="#SimHei-4ece" transform="translate(850 0)"/>
     <use xlink:href="#SimHei-4e0b" transform="translate(950 0)"/>
     <use xlink:href="#SimHei-5411" transform="translate(1050 0)"/>
     <use xlink:href="#SimHei-4e0a" transform="translate(1150 0)"/>
     <use xlink:href="#SimHei-7a7f" transform="translate(1250 0)"/>
     <use xlink:href="#SimHei-8fc7" transform="translate(1350 0)"/>
     <use xlink:href="#SimHei-7684" transform="translate(1450 0)"/>
     <use xlink:href="#SimHei-8fb9" transform="translate(1550 0)"/>
     <use xlink:href="#SimHei-624d" transform="translate(1650 0)"/>
     <use xlink:href="#SimHei-8d21" transform="translate(1750 0)"/>
     <use xlink:href="#SimHei-732e" transform="translate(1850 0)"/>
     <use xlink:href="#SimHei-66" transform="translate(1950 0)"/>
     <use xlink:href="#SimHei-6c" transform="translate(2000 0)"/>
     <use xlink:href="#SimHei-61" transform="translate(2050 0)"/>
     <use xlink:href="#SimHei-67" transform="translate(2100 0)"/>
    </g>
    <!-- • 交点数量：3 (奇数) -->
    <g transform="translate(45.766158 94.127131) scale(0.11 -0.11)">
     <defs>
      <path id="SimHei-91cf" d="M 5250 2500 
Q 5225 2200 5225 1700 
Q 5225 1225 5250 950 
L 3425 950 
L 3425 625 
L 4575 625 
Q 5000 625 5375 650 
L 5375 275 
Q 5025 300 4575 300 
L 3425 300 
L 3425 -75 
L 5125 -75 
Q 5525 -75 5925 -50 
L 5925 -425 
Q 5525 -400 5125 -400 
L 1275 -400 
Q 900 -400 475 -425 
L 475 -50 
Q 925 -50 1275 -75 
L 2975 -75 
L 2975 300 
L 1725 300 
Q 1350 300 975 250 
L 975 650 
Q 1375 625 1725 625 
L 2975 625 
L 2975 950 
L 1150 950 
Q 1175 1375 1175 1775 
Q 1175 2175 1150 2500 
L 5250 2500 
z
M 5200 4950 
Q 5175 4575 5175 4250 
Q 5175 3925 5200 3400 
L 1200 3400 
Q 1225 3925 1225 4250 
Q 1225 4575 1200 4950 
L 5200 4950 
z
M 4900 3100 
Q 5500 3125 6000 3150 
L 6000 2750 
Q 5500 2775 4925 2775 
L 1650 2775 
Q 975 2775 325 2750 
L 325 3150 
Q 975 3125 1650 3100 
L 4900 3100 
z
M 4725 3700 
L 4725 4025 
L 1675 4025 
L 1675 3700 
L 4725 3700 
z
M 4725 4350 
L 4725 4650 
L 1675 4650 
L 1675 4350 
L 4725 4350 
z
M 4750 1875 
L 4750 2175 
L 3425 2175 
L 3425 1875 
L 4750 1875 
z
M 2975 1875 
L 2975 2175 
L 1650 2175 
L 1650 1875 
L 2975 1875 
z
M 2975 1275 
L 2975 1550 
L 1650 1550 
L 1650 1275 
L 2975 1275 
z
M 4750 1275 
L 4750 1550 
L 3425 1550 
L 3425 1275 
L 4750 1275 
z
" transform="scale(0.015625)"/>
      <path id="SimHei-5947" d="M 675 3350 
Q 1575 3450 2100 3662 
Q 2625 3875 2750 4200 
L 1600 4200 
Q 1100 4200 600 4175 
L 600 4625 
Q 1100 4600 1600 4600 
L 2850 4600 
Q 2900 4975 2875 5250 
Q 3225 5175 3500 5175 
Q 3400 4925 3350 4600 
L 4825 4600 
Q 5300 4600 5850 4625 
L 5850 4175 
Q 5325 4200 4850 4200 
L 3300 4200 
Q 3250 4100 3225 4000 
Q 4725 3675 5525 3375 
Q 5300 3150 5200 2900 
Q 4750 3200 3025 3650 
Q 2650 3350 2187 3175 
Q 1725 3000 975 2800 
Q 875 3150 675 3350 
z
M 3850 1900 
Q 3825 1475 3825 925 
Q 3825 400 3850 -75 
L 3325 -75 
L 3325 300 
L 1750 300 
L 1750 -175 
L 1225 -175 
Q 1275 350 1275 925 
Q 1275 1525 1225 1900 
L 3850 1900 
z
M 5300 2750 
Q 5850 2750 6175 2800 
L 6175 2325 
Q 5975 2350 5200 2350 
L 5200 50 
Q 5200 -300 4975 -425 
Q 4750 -550 4275 -600 
Q 4250 -325 4075 0 
Q 4550 -75 4625 0 
Q 4700 75 4700 225 
L 4700 2350 
L 1200 2350 
Q 725 2350 250 2325 
L 250 2775 
Q 725 2750 1200 2750 
L 5300 2750 
z
M 3325 700 
L 3325 1500 
L 1750 1500 
L 1750 700 
L 3325 700 
z
" transform="scale(0.015625)"/>
     </defs>
     <use xlink:href="#SimHei-2022"/>
     <use xlink:href="#SimHei-20" transform="translate(100 0)"/>
     <use xlink:href="#SimHei-4ea4" transform="translate(150 0)"/>
     <use xlink:href="#SimHei-70b9" transform="translate(250 0)"/>
     <use xlink:href="#SimHei-6570" transform="translate(350 0)"/>
     <use xlink:href="#SimHei-91cf" transform="translate(450 0)"/>
     <use xlink:href="#SimHei-ff1a" transform="translate(550 0)"/>
     <use xlink:href="#SimHei-33" transform="translate(650 0)"/>
     <use xlink:href="#SimHei-20" transform="translate(700 0)"/>
     <use xlink:href="#SimHei-28" transform="translate(750 0)"/>
     <use xlink:href="#SimHei-5947" transform="translate(800 0)"/>
     <use xlink:href="#SimHei-6570" transform="translate(900 0)"/>
     <use xlink:href="#SimHei-29" transform="translate(1000 0)"/>
    </g>
    <!-- • 最终flag：1 (≠0，点在多边形内) -->
    <g transform="translate(45.766158 106.330256) scale(0.11 -0.11)">
     <defs>
      <path id="SimHei-6700" d="M 475 275 
Q 675 300 1100 350 
L 1100 2450 
Q 775 2450 425 2425 
L 425 2850 
Q 775 2825 1125 2825 
L 5025 2825 
Q 5475 2825 5900 2850 
L 5900 2425 
Q 5475 2450 5025 2450 
L 3050 2450 
L 3050 675 
L 3400 775 
Q 3400 550 3425 400 
Q 3225 350 3050 325 
Q 3050 -125 3075 -550 
L 2600 -550 
Q 2625 -125 2625 250 
Q 2350 200 1812 87 
Q 1275 -25 650 -175 
Q 575 100 475 275 
z
M 5100 4925 
Q 5075 4600 5075 4325 
L 5075 3875 
Q 5075 3600 5100 3250 
L 1275 3250 
Q 1300 3600 1300 3875 
L 1300 4325 
Q 1300 4600 1275 4925 
L 5100 4925 
z
M 3300 2050 
Q 3750 2025 4125 2025 
L 5375 2025 
Q 5100 975 4725 400 
Q 5350 0 5925 -100 
Q 5700 -275 5650 -500 
Q 5025 -300 4475 150 
Q 4150 -200 3600 -575 
Q 3500 -425 3250 -275 
Q 3775 -100 4150 350 
Q 3725 775 3500 1675 
L 3300 1675 
L 3300 2050 
z
M 4600 4250 
L 4600 4600 
L 1750 4600 
L 1750 4250 
L 4600 4250 
z
M 4600 3575 
L 4600 3900 
L 1750 3900 
L 1750 3575 
L 4600 3575 
z
M 3900 1675 
Q 4000 1075 4400 625 
Q 4700 1050 4850 1675 
L 3900 1675 
z
M 2625 1250 
L 2625 1675 
L 1525 1675 
L 1525 1250 
L 2625 1250 
z
M 2625 575 
L 2625 925 
L 1525 925 
L 1525 425 
L 2625 575 
z
M 2625 2025 
L 2625 2450 
L 1525 2450 
L 1525 2025 
L 2625 2025 
z
" transform="scale(0.015625)"/>
      <path id="SimHei-7ec8" d="M 4075 4950 
Q 3950 4800 3750 4400 
L 5600 4400 
Q 5375 3825 5162 3450 
Q 4950 3075 4575 2625 
Q 4900 2350 5350 2100 
Q 5800 1850 6075 1775 
Q 5850 1575 5725 1325 
Q 4950 1700 4250 2325 
Q 4000 2100 3587 1837 
Q 3175 1575 2675 1300 
Q 2575 1550 2325 1725 
Q 2850 1900 3300 2162 
Q 3750 2425 3950 2625 
Q 3575 3100 3350 3625 
Q 3050 3100 2800 2750 
Q 2550 2950 2375 3025 
Q 2650 3325 2862 3662 
Q 3075 4000 3250 4375 
Q 3425 4750 3550 5200 
Q 3850 5025 4075 4950 
z
M 2225 1200 
Q 2075 1175 1587 1125 
Q 1100 1075 550 950 
Q 475 1175 350 1475 
Q 600 1550 862 1900 
Q 1125 2250 1375 2700 
Q 1225 2700 950 2650 
Q 675 2600 475 2500 
Q 375 2800 225 3025 
Q 550 3275 825 3875 
Q 1100 4475 1275 5075 
Q 1575 4900 1800 4825 
Q 1650 4600 1400 4125 
Q 1150 3650 825 3025 
Q 1000 3025 1600 3075 
Q 1900 3550 2075 3975 
Q 2400 3750 2575 3675 
Q 2325 3350 1962 2800 
Q 1600 2250 1075 1525 
Q 1300 1525 2200 1650 
Q 2200 1400 2225 1200 
z
M 3250 725 
Q 4900 150 5425 -125 
Q 5325 -325 5200 -625 
Q 4525 -225 4050 -62 
Q 3575 100 3025 250 
Q 3175 500 3250 725 
z
M 2350 100 
Q 1900 25 1387 -87 
Q 875 -200 475 -375 
Q 425 -125 275 175 
Q 1025 250 2375 575 
Q 2350 350 2350 100 
z
M 3725 1750 
Q 4175 1575 4550 1437 
Q 4925 1300 5275 1150 
Q 5150 975 5050 700 
Q 4750 850 4400 987 
Q 4050 1125 3525 1275 
Q 3675 1500 3725 1750 
z
M 4275 2950 
Q 4675 3375 4925 4000 
L 3650 4000 
Q 3925 3325 4275 2950 
z
" transform="scale(0.015625)"/>
      <path id="SimHei-2260" d="M 3575 4375 
L 3975 4275 
L 3650 3225 
L 5325 3225 
L 5325 2775 
L 3525 2775 
L 3250 1900 
L 5325 1900 
L 5325 1450 
L 3100 1450 
L 2750 300 
L 2350 400 
L 2675 1450 
L 975 1450 
L 975 1900 
L 2800 1900 
L 3075 2775 
L 975 2775 
L 975 3225 
L 3225 3225 
L 3575 4375 
z
" transform="scale(0.015625)"/>
      <path id="SimHei-ff0c" d="M 875 950 
L 1775 950 
L 1775 -50 
Q 1700 -675 1150 -975 
L 900 -750 
Q 1350 -500 1350 0 
L 875 0 
L 875 950 
z
" transform="scale(0.015625)"/>
      <path id="SimHei-5728" d="M 2425 4200 
Q 2525 4525 2600 4762 
Q 2675 5000 2700 5250 
Q 3050 5175 3325 5100 
Q 3200 4850 3150 4712 
Q 3100 4575 2975 4200 
L 5000 4200 
Q 5525 4200 5950 4225 
L 5950 3750 
Q 5525 3775 5000 3775 
L 2825 3775 
Q 2675 3425 2437 3000 
Q 2200 2575 1825 2075 
L 1825 325 
Q 1825 -175 1850 -650 
L 1325 -650 
Q 1350 -175 1350 325 
L 1350 1625 
Q 950 1250 625 1000 
Q 450 1225 200 1375 
Q 500 1550 800 1800 
Q 1100 2050 1350 2375 
Q 1350 2600 1325 2825 
L 1725 2825 
Q 1900 3025 2037 3275 
Q 2175 3525 2275 3775 
L 1675 3775 
Q 1075 3775 625 3750 
L 625 4225 
Q 1100 4200 1675 4200 
L 2425 4200 
z
M 3700 2250 
L 3700 2600 
Q 3700 3100 3675 3400 
L 4225 3400 
Q 4200 3100 4200 2600 
L 4200 2250 
L 4775 2250 
Q 5225 2250 5600 2275 
L 5600 1800 
Q 5225 1825 4775 1825 
L 4200 1825 
L 4200 150 
L 5150 150 
Q 5625 150 6000 175 
L 6000 -275 
Q 5625 -250 5150 -250 
L 3125 -250 
Q 2475 -250 2100 -275 
L 2100 175 
Q 2475 150 3125 150 
L 3700 150 
L 3700 1825 
L 3225 1825 
Q 2775 1825 2350 1800 
L 2350 2275 
Q 2775 2250 3225 2250 
L 3700 2250 
z
" transform="scale(0.015625)"/>
      <path id="SimHei-5185" d="M 1425 1300 
Q 2175 1825 2537 2375 
Q 2900 2925 2925 3750 
L 1225 3750 
L 1225 -500 
L 650 -500 
Q 700 0 700 350 
L 700 3125 
Q 700 3625 675 4175 
L 2950 4175 
Q 2950 4850 2925 5175 
Q 3325 5150 3550 5150 
Q 3425 4825 3425 4175 
L 5775 4175 
Q 5725 3650 5725 3125 
L 5725 75 
Q 5725 -300 5425 -387 
Q 5125 -475 4600 -550 
Q 4525 -300 4250 0 
Q 4850 0 5025 37 
Q 5200 75 5200 275 
L 5200 3750 
L 3400 3750 
Q 3400 3300 3325 2875 
Q 3550 2700 4125 2262 
Q 4700 1825 4950 1575 
Q 4675 1350 4525 1175 
Q 4100 1675 3175 2425 
Q 2725 1650 2000 975 
Q 1700 1225 1425 1300 
z
" transform="scale(0.015625)"/>
     </defs>
     <use xlink:href="#SimHei-2022"/>
     <use xlink:href="#SimHei-20" transform="translate(100 0)"/>
     <use xlink:href="#SimHei-6700" transform="translate(150 0)"/>
     <use xlink:href="#SimHei-7ec8" transform="translate(250 0)"/>
     <use xlink:href="#SimHei-66" transform="translate(350 0)"/>
     <use xlink:href="#SimHei-6c" transform="translate(400 0)"/>
     <use xlink:href="#SimHei-61" transform="translate(450 0)"/>
     <use xlink:href="#SimHei-67" transform="translate(500 0)"/>
     <use xlink:href="#SimHei-ff1a" transform="translate(550 0)"/>
     <use xlink:href="#SimHei-31" transform="translate(650 0)"/>
     <use xlink:href="#SimHei-20" transform="translate(700 0)"/>
     <use xlink:href="#SimHei-28" transform="translate(750 0)"/>
     <use xlink:href="#SimHei-2260" transform="translate(800 0)"/>
     <use xlink:href="#SimHei-30" transform="translate(900 0)"/>
     <use xlink:href="#SimHei-ff0c" transform="translate(950 0)"/>
     <use xlink:href="#SimHei-70b9" transform="translate(1050 0)"/>
     <use xlink:href="#SimHei-5728" transform="translate(1150 0)"/>
     <use xlink:href="#SimHei-591a" transform="translate(1250 0)"/>
     <use xlink:href="#SimHei-8fb9" transform="translate(1350 0)"/>
     <use xlink:href="#SimHei-5f62" transform="translate(1450 0)"/>
     <use xlink:href="#SimHei-5185" transform="translate(1550 0)"/>
     <use xlink:href="#SimHei-29" transform="translate(1650 0)"/>
    </g>
   </g>
   <g id="text_39">
    <!-- 点在多边形内外判断 - 射线法 (最终flag=1) -->
    <g transform="translate(168.603958 20.3875) scale(0.16 -0.16)">
     <defs>
      <path id="SimHei-5916" d="M 2150 4875 
Q 2000 4650 1912 4425 
Q 1825 4200 1725 3975 
L 3275 3975 
Q 3150 3075 2937 2450 
Q 2725 1825 2412 1350 
Q 2100 875 1675 437 
Q 1250 0 650 -375 
Q 475 -100 200 0 
Q 775 250 1275 712 
Q 1775 1175 2000 1600 
Q 1675 1950 1150 2325 
Q 1325 2475 1475 2675 
Q 1975 2275 2250 2050 
Q 2425 2400 2525 2775 
Q 2625 3150 2700 3550 
L 1575 3550 
Q 1425 3225 1187 2825 
Q 950 2425 575 2025 
Q 450 2200 200 2375 
Q 625 2775 862 3187 
Q 1100 3600 1250 4025 
Q 1400 4450 1550 5075 
Q 1825 4950 2150 4875 
z
M 4225 5125 
Q 4200 4725 4200 4325 
L 4200 475 
Q 4200 0 4225 -500 
L 3675 -500 
Q 3700 0 3700 475 
L 3700 4325 
Q 3700 4725 3675 5125 
L 4225 5125 
z
M 4675 3450 
Q 4900 3200 5337 2687 
Q 5775 2175 6075 1725 
Q 5825 1575 5650 1400 
Q 5425 1800 5025 2300 
Q 4625 2800 4300 3150 
Q 4450 3300 4675 3450 
z
" transform="scale(0.015625)"/>
      <path id="SimHei-5224" d="M 225 -225 
Q 900 50 1262 475 
Q 1625 900 1700 1575 
Q 700 1575 250 1550 
L 250 2000 
Q 700 1975 1750 1975 
L 1750 2850 
Q 975 2850 500 2825 
L 500 3275 
Q 975 3250 1750 3250 
Q 1750 4600 1700 5100 
L 2275 5100 
Q 2225 4825 2225 4325 
L 2225 3250 
Q 2925 3250 3325 3275 
L 3325 2825 
Q 2925 2850 2225 2850 
L 2225 1975 
Q 3125 1975 3550 2000 
L 3550 1550 
Q 3150 1575 2200 1575 
Q 2100 750 1662 225 
Q 1225 -300 700 -600 
Q 550 -375 225 -225 
z
M 4500 25 
Q 5050 -25 5175 0 
Q 5300 25 5300 200 
L 5300 4300 
Q 5300 4825 5275 5125 
L 5800 5125 
Q 5775 4800 5775 4300 
L 5775 50 
Q 5775 -325 5550 -425 
Q 5325 -525 4750 -575 
Q 4700 -200 4500 25 
z
M 4025 850 
Q 4050 1225 4050 1675 
L 4050 3575 
Q 4050 4050 4025 4350 
L 4550 4350 
Q 4525 3925 4525 3500 
L 4525 1675 
Q 4525 1225 4550 850 
L 4025 850 
z
M 825 3575 
Q 625 4175 400 4475 
Q 625 4525 850 4675 
Q 1075 4350 1325 3775 
Q 1100 3700 825 3575 
z
M 3575 4475 
Q 3375 4250 3262 4037 
Q 3150 3825 3050 3600 
Q 2800 3725 2600 3800 
Q 2750 4000 2887 4237 
Q 3025 4475 3100 4700 
Q 3275 4575 3575 4475 
z
" transform="scale(0.015625)"/>
      <path id="SimHei-65ad" d="M 3800 4600 
Q 4400 4600 4925 4687 
Q 5450 4775 5700 4900 
Q 5775 4700 6000 4375 
Q 5750 4375 5337 4337 
Q 4925 4300 4275 4250 
L 4275 3050 
L 5575 3050 
Q 5775 3050 6075 3075 
L 6075 2625 
Q 5750 2650 5500 2650 
L 5500 225 
Q 5500 -200 5550 -550 
L 5025 -550 
Q 5075 -125 5075 300 
L 5075 2650 
L 4275 2650 
Q 4275 2000 4225 1475 
Q 4175 950 4075 537 
Q 3975 125 3475 -600 
Q 3275 -450 3050 -350 
Q 3500 200 3650 725 
Q 3800 1250 3825 1800 
Q 3850 2350 3850 3250 
Q 3850 4150 3800 4600 
z
M 2600 5150 
Q 2575 4875 2575 4400 
L 2575 3225 
Q 3050 3225 3450 3250 
L 3450 2800 
Q 3075 2850 2575 2850 
L 2575 1450 
Q 2575 1000 2600 675 
L 2100 675 
Q 2125 1400 2125 2225 
Q 1850 1525 1450 1000 
Q 1250 1175 1075 1300 
Q 1700 2075 1925 2850 
Q 1700 2850 1225 2825 
L 1225 3250 
Q 1575 3225 2125 3225 
L 2125 4375 
Q 2125 4875 2100 5150 
L 2600 5150 
z
M 1000 475 
L 2550 475 
Q 2950 475 3300 500 
L 3300 50 
Q 2950 75 2325 75 
L 500 75 
Q 525 450 525 950 
L 525 3850 
Q 525 4300 500 4650 
L 1025 4650 
Q 1000 4300 1000 3950 
L 1000 475 
z
M 2975 2550 
Q 3275 2025 3625 1525 
L 3225 1225 
Q 3000 1725 2625 2325 
Q 2750 2425 2975 2550 
z
M 3625 4550 
Q 3450 4350 3350 4087 
Q 3250 3825 3125 3550 
Q 2925 3650 2700 3725 
Q 3000 4225 3125 4775 
Q 3375 4650 3625 4550 
z
M 1200 4675 
Q 1450 4700 1675 4725 
Q 1800 3950 1850 3675 
Q 1675 3650 1400 3600 
Q 1375 3875 1200 4675 
z
" transform="scale(0.015625)"/>
      <path id="SimHei-3d" d="M 2975 2900 
L 125 2900 
L 125 3300 
L 2975 3300 
L 2975 2900 
z
M 2975 1375 
L 125 1375 
L 125 1775 
L 2975 1775 
L 2975 1375 
z
" transform="scale(0.015625)"/>
     </defs>
     <use xlink:href="#SimHei-70b9"/>
     <use xlink:href="#SimHei-5728" transform="translate(100 0)"/>
     <use xlink:href="#SimHei-591a" transform="translate(200 0)"/>
     <use xlink:href="#SimHei-8fb9" transform="translate(300 0)"/>
     <use xlink:href="#SimHei-5f62" transform="translate(400 0)"/>
     <use xlink:href="#SimHei-5185" transform="translate(500 0)"/>
     <use xlink:href="#SimHei-5916" transform="translate(600 0)"/>
     <use xlink:href="#SimHei-5224" transform="translate(700 0)"/>
     <use xlink:href="#SimHei-65ad" transform="translate(800 0)"/>
     <use xlink:href="#SimHei-20" transform="translate(900 0)"/>
     <use xlink:href="#SimHei-2d" transform="translate(950 0)"/>
     <use xlink:href="#SimHei-20" transform="translate(1000 0)"/>
     <use xlink:href="#SimHei-5c04" transform="translate(1050 0)"/>
     <use xlink:href="#SimHei-7ebf" transform="translate(1150 0)"/>
     <use xlink:href="#SimHei-6cd5" transform="translate(1250 0)"/>
     <use xlink:href="#SimHei-20" transform="translate(1350 0)"/>
     <use xlink:href="#SimHei-28" transform="translate(1400 0)"/>
     <use xlink:href="#SimHei-6700" transform="translate(1450 0)"/>
     <use xlink:href="#SimHei-7ec8" transform="translate(1550 0)"/>
     <use xlink:href="#SimHei-66" transform="translate(1650 0)"/>
     <use xlink:href="#SimHei-6c" transform="translate(1700 0)"/>
     <use xlink:href="#SimHei-61" transform="translate(1750 0)"/>
     <use xlink:href="#SimHei-67" transform="translate(1800 0)"/>
     <use xlink:href="#SimHei-3d" transform="translate(1850 0)"/>
     <use xlink:href="#SimHei-31" transform="translate(1900 0)"/>
     <use xlink:href="#SimHei-29" transform="translate(1950 0)"/>
    </g>
   </g>
   <g id="legend_1">
    <g id="patch_14">
     <path d="M 549.226667 48.645312 
L 616.226667 48.645312 
Q 618.226667 48.645312 618.226667 46.645312 
L 618.226667 33.3875 
Q 618.226667 31.3875 616.226667 31.3875 
L 549.226667 31.3875 
Q 547.226667 31.3875 547.226667 33.3875 
L 547.226667 46.645312 
Q 547.226667 48.645312 549.226667 48.645312 
z
" style="fill: #ffffff; opacity: 0.8; stroke: #cccccc; stroke-linejoin: miter"/>
    </g>
    <g id="line2d_44">
     <g>
      <use xlink:href="#mcd165ee4b5" x="561.226667" y="39.895312" style="fill: #ff0000; stroke: #ff0000"/>
     </g>
    </g>
    <g id="text_40">
     <!-- 测试点P -->
     <g transform="translate(579.226667 43.395312) scale(0.1 -0.1)">
      <use xlink:href="#SimHei-6d4b"/>
      <use xlink:href="#SimHei-8bd5" transform="translate(100 0)"/>
      <use xlink:href="#SimHei-70b9" transform="translate(200 0)"/>
      <use xlink:href="#SimHei-50" transform="translate(300 0)"/>
     </g>
    </g>
   </g>
  </g>
 </g>
 <defs>
  <clipPath id="pa73b180f2a">
   <rect x="33.98125" y="26.3875" width="589.245417" height="505.0675"/>
  </clipPath>
 </defs>
</svg>
