<?xml version="1.0" encoding="utf-8" standalone="no"?>
<!DOCTYPE svg PUBLIC "-//W3C//DTD SVG 1.1//EN"
  "http://www.w3.org/Graphics/SVG/1.1/DTD/svg11.dtd">
<svg xmlns:xlink="http://www.w3.org/1999/xlink" width="1080.729614pt" height="568.65875pt" viewBox="0 0 1080.729614 568.65875" xmlns="http://www.w3.org/2000/svg" version="1.1">
 <metadata>
  <rdf:RDF xmlns:dc="http://purl.org/dc/elements/1.1/" xmlns:cc="http://creativecommons.org/ns#" xmlns:rdf="http://www.w3.org/1999/02/22-rdf-syntax-ns#">
   <cc:Work>
    <dc:type rdf:resource="http://purl.org/dc/dcmitype/StillImage"/>
    <dc:date>2025-06-25T17:03:08.187608</dc:date>
    <dc:format>image/svg+xml</dc:format>
    <dc:creator>
     <cc:Agent>
      <dc:title>Matplotlib v3.10.1, https://matplotlib.org/</dc:title>
     </cc:Agent>
    </dc:creator>
   </cc:Work>
  </rdf:RDF>
 </metadata>
 <defs>
  <style type="text/css">*{stroke-linejoin: round; stroke-linecap: butt}</style>
 </defs>
 <g id="figure_1">
  <g id="patch_1">
   <path d="M 0 568.65875 
L 1080.729614 568.65875 
L 1080.729614 0 
L 0 0 
z
" style="fill: #ffffff"/>
  </g>
  <g id="axes_1">
   <g id="patch_2">
    <path d="M 38.98125 531.5525 
L 544.52125 531.5525 
L 544.52125 26.0125 
L 38.98125 26.0125 
z
" style="fill: #ffffff"/>
   </g>
   <g id="patch_3">
    <path d="M 183.42125 387.1125 
L 327.86125 423.2225 
L 400.08125 314.8925 
L 363.97125 170.4525 
L 255.64125 98.2325 
L 147.31125 242.6725 
z
" clip-path="url(#pa9ca288952)" style="fill: #add8e6; opacity: 0.6; stroke: #0000ff; stroke-width: 2; stroke-linejoin: miter"/>
   </g>
   <g id="patch_4">
    <path d="M 291.75125 387.1125 
C 320.480702 387.1125 348.037337 375.698168 368.352128 355.383378 
C 388.666918 335.068587 400.08125 307.511952 400.08125 278.7825 
C 400.08125 250.053048 388.666918 222.496413 368.352128 202.181622 
C 348.037337 181.866832 320.480702 170.4525 291.75125 170.4525 
C 263.021798 170.4525 235.465163 181.866832 215.150372 202.181622 
C 194.835582 222.496413 183.42125 250.053048 183.42125 278.7825 
C 183.42125 307.511952 194.835582 335.068587 215.150372 355.383378 
C 235.465163 375.698168 263.021798 387.1125 291.75125 387.1125 
L 291.75125 387.1125 
z
" clip-path="url(#pa9ca288952)" style="fill: none; stroke-dasharray: 7.4,3.2; stroke-dashoffset: 0; stroke: #ff0000; stroke-width: 2; stroke-linejoin: miter"/>
   </g>
   <g id="matplotlib.axis_1">
    <g id="xtick_1">
     <g id="line2d_1">
      <path d="M 38.98125 531.5525 
L 38.98125 26.0125 
" clip-path="url(#pa9ca288952)" style="fill: none; stroke: #b0b0b0; stroke-opacity: 0.3; stroke-width: 0.8; stroke-linecap: square"/>
     </g>
     <g id="line2d_2">
      <defs>
       <path id="mb3d8ec338c" d="M 0 0 
L 0 3.5 
" style="stroke: #000000; stroke-width: 0.8"/>
      </defs>
      <g>
       <use xlink:href="#mb3d8ec338c" x="38.98125" y="531.5525" style="stroke: #000000; stroke-width: 0.8"/>
      </g>
     </g>
     <g id="text_1">
      <!-- -1 -->
      <g transform="translate(33.98125 545.4275) scale(0.1 -0.1)">
       <defs>
        <path id="SimHei-2d" d="M 2975 2125 
L 125 2125 
L 125 2525 
L 2975 2525 
L 2975 2125 
z
" transform="scale(0.015625)"/>
        <path id="SimHei-31" d="M 1400 3600 
Q 1075 3275 575 2975 
L 575 3450 
Q 1200 3875 1600 4450 
L 1900 4450 
L 1900 150 
L 1400 150 
L 1400 3600 
z
" transform="scale(0.015625)"/>
       </defs>
       <use xlink:href="#SimHei-2d"/>
       <use xlink:href="#SimHei-31" transform="translate(50 0)"/>
      </g>
     </g>
    </g>
    <g id="xtick_2">
     <g id="line2d_3">
      <path d="M 111.20125 531.5525 
L 111.20125 26.0125 
" clip-path="url(#pa9ca288952)" style="fill: none; stroke: #b0b0b0; stroke-opacity: 0.3; stroke-width: 0.8; stroke-linecap: square"/>
     </g>
     <g id="line2d_4">
      <g>
       <use xlink:href="#mb3d8ec338c" x="111.20125" y="531.5525" style="stroke: #000000; stroke-width: 0.8"/>
      </g>
     </g>
     <g id="text_2">
      <!-- 0 -->
      <g transform="translate(108.70125 545.4275) scale(0.1 -0.1)">
       <defs>
        <path id="SimHei-30" d="M 225 2537 
Q 250 3200 412 3587 
Q 575 3975 875 4225 
Q 1175 4475 1612 4475 
Q 2050 4475 2375 4112 
Q 2700 3750 2800 3200 
Q 2900 2650 2862 1937 
Q 2825 1225 2612 775 
Q 2400 325 1975 150 
Q 1550 -25 1125 187 
Q 700 400 525 750 
Q 350 1100 275 1487 
Q 200 1875 225 2537 
z
M 750 2687 
Q 675 2000 800 1462 
Q 925 925 1212 700 
Q 1500 475 1800 612 
Q 2100 750 2237 1162 
Q 2375 1575 2375 2062 
Q 2375 2550 2337 2950 
Q 2300 3350 2112 3675 
Q 1925 4000 1612 4012 
Q 1300 4025 1062 3700 
Q 825 3375 750 2687 
z
" transform="scale(0.015625)"/>
       </defs>
       <use xlink:href="#SimHei-30"/>
      </g>
     </g>
    </g>
    <g id="xtick_3">
     <g id="line2d_5">
      <path d="M 183.42125 531.5525 
L 183.42125 26.0125 
" clip-path="url(#pa9ca288952)" style="fill: none; stroke: #b0b0b0; stroke-opacity: 0.3; stroke-width: 0.8; stroke-linecap: square"/>
     </g>
     <g id="line2d_6">
      <g>
       <use xlink:href="#mb3d8ec338c" x="183.42125" y="531.5525" style="stroke: #000000; stroke-width: 0.8"/>
      </g>
     </g>
     <g id="text_3">
      <!-- 1 -->
      <g transform="translate(180.92125 545.4275) scale(0.1 -0.1)">
       <use xlink:href="#SimHei-31"/>
      </g>
     </g>
    </g>
    <g id="xtick_4">
     <g id="line2d_7">
      <path d="M 255.64125 531.5525 
L 255.64125 26.0125 
" clip-path="url(#pa9ca288952)" style="fill: none; stroke: #b0b0b0; stroke-opacity: 0.3; stroke-width: 0.8; stroke-linecap: square"/>
     </g>
     <g id="line2d_8">
      <g>
       <use xlink:href="#mb3d8ec338c" x="255.64125" y="531.5525" style="stroke: #000000; stroke-width: 0.8"/>
      </g>
     </g>
     <g id="text_4">
      <!-- 2 -->
      <g transform="translate(253.14125 545.4275) scale(0.1 -0.1)">
       <defs>
        <path id="SimHei-32" d="M 300 250 
Q 325 625 650 925 
Q 975 1225 1475 1862 
Q 1975 2500 2125 2850 
Q 2275 3200 2237 3450 
Q 2200 3700 2000 3862 
Q 1800 4025 1537 4000 
Q 1275 3975 1037 3800 
Q 800 3625 675 3275 
L 200 3350 
Q 400 3925 712 4187 
Q 1025 4450 1450 4475 
Q 1700 4500 1900 4462 
Q 2100 4425 2312 4287 
Q 2525 4150 2662 3875 
Q 2800 3600 2762 3212 
Q 2725 2825 2375 2287 
Q 2025 1750 1025 600 
L 2825 600 
L 2825 150 
L 300 150 
L 300 250 
z
" transform="scale(0.015625)"/>
       </defs>
       <use xlink:href="#SimHei-32"/>
      </g>
     </g>
    </g>
    <g id="xtick_5">
     <g id="line2d_9">
      <path d="M 327.86125 531.5525 
L 327.86125 26.0125 
" clip-path="url(#pa9ca288952)" style="fill: none; stroke: #b0b0b0; stroke-opacity: 0.3; stroke-width: 0.8; stroke-linecap: square"/>
     </g>
     <g id="line2d_10">
      <g>
       <use xlink:href="#mb3d8ec338c" x="327.86125" y="531.5525" style="stroke: #000000; stroke-width: 0.8"/>
      </g>
     </g>
     <g id="text_5">
      <!-- 3 -->
      <g transform="translate(325.36125 545.4275) scale(0.1 -0.1)">
       <defs>
        <path id="SimHei-33" d="M 250 1225 
L 700 1300 
Q 800 975 1025 762 
Q 1250 550 1587 562 
Q 1925 575 2125 837 
Q 2325 1100 2300 1437 
Q 2275 1775 2037 1962 
Q 1800 2150 1275 2225 
L 1275 2550 
Q 1800 2600 2037 2825 
Q 2275 3050 2250 3412 
Q 2225 3775 1925 3937 
Q 1625 4100 1287 3975 
Q 950 3850 750 3275 
L 300 3350 
Q 450 3800 712 4100 
Q 975 4400 1425 4450 
Q 1875 4500 2212 4337 
Q 2550 4175 2687 3837 
Q 2825 3500 2725 3100 
Q 2625 2700 2150 2400 
Q 2500 2250 2687 1950 
Q 2875 1650 2812 1162 
Q 2750 675 2375 375 
Q 2000 75 1525 87 
Q 1050 100 700 387 
Q 350 675 250 1225 
z
" transform="scale(0.015625)"/>
       </defs>
       <use xlink:href="#SimHei-33"/>
      </g>
     </g>
    </g>
    <g id="xtick_6">
     <g id="line2d_11">
      <path d="M 400.08125 531.5525 
L 400.08125 26.0125 
" clip-path="url(#pa9ca288952)" style="fill: none; stroke: #b0b0b0; stroke-opacity: 0.3; stroke-width: 0.8; stroke-linecap: square"/>
     </g>
     <g id="line2d_12">
      <g>
       <use xlink:href="#mb3d8ec338c" x="400.08125" y="531.5525" style="stroke: #000000; stroke-width: 0.8"/>
      </g>
     </g>
     <g id="text_6">
      <!-- 4 -->
      <g transform="translate(397.58125 545.4275) scale(0.1 -0.1)">
       <defs>
        <path id="SimHei-34" d="M 2000 1100 
L 75 1100 
L 75 1525 
L 2100 4450 
L 2475 4450 
L 2475 1525 
L 3075 1525 
L 3075 1100 
L 2475 1100 
L 2475 150 
L 2000 150 
L 2000 1100 
z
M 2000 1525 
L 2000 3500 
L 600 1525 
L 2000 1525 
z
" transform="scale(0.015625)"/>
       </defs>
       <use xlink:href="#SimHei-34"/>
      </g>
     </g>
    </g>
    <g id="xtick_7">
     <g id="line2d_13">
      <path d="M 472.30125 531.5525 
L 472.30125 26.0125 
" clip-path="url(#pa9ca288952)" style="fill: none; stroke: #b0b0b0; stroke-opacity: 0.3; stroke-width: 0.8; stroke-linecap: square"/>
     </g>
     <g id="line2d_14">
      <g>
       <use xlink:href="#mb3d8ec338c" x="472.30125" y="531.5525" style="stroke: #000000; stroke-width: 0.8"/>
      </g>
     </g>
     <g id="text_7">
      <!-- 5 -->
      <g transform="translate(469.80125 545.4275) scale(0.1 -0.1)">
       <defs>
        <path id="SimHei-35" d="M 550 1325 
Q 725 650 1150 575 
Q 1575 500 1837 662 
Q 2100 825 2212 1087 
Q 2325 1350 2312 1675 
Q 2300 2000 2137 2225 
Q 1975 2450 1725 2525 
Q 1475 2600 1162 2525 
Q 850 2450 650 2175 
L 225 2225 
Q 275 2375 700 4375 
L 2675 4375 
L 2675 3925 
L 1075 3925 
Q 950 3250 825 2850 
Q 1200 3025 1525 3012 
Q 1850 3000 2150 2862 
Q 2450 2725 2587 2487 
Q 2725 2250 2787 2012 
Q 2850 1775 2837 1500 
Q 2825 1225 2725 937 
Q 2625 650 2425 462 
Q 2225 275 1937 162 
Q 1650 50 1275 75 
Q 900 100 562 350 
Q 225 600 100 1200 
L 550 1325 
z
" transform="scale(0.015625)"/>
       </defs>
       <use xlink:href="#SimHei-35"/>
      </g>
     </g>
    </g>
    <g id="xtick_8">
     <g id="line2d_15">
      <path d="M 544.52125 531.5525 
L 544.52125 26.0125 
" clip-path="url(#pa9ca288952)" style="fill: none; stroke: #b0b0b0; stroke-opacity: 0.3; stroke-width: 0.8; stroke-linecap: square"/>
     </g>
     <g id="line2d_16">
      <g>
       <use xlink:href="#mb3d8ec338c" x="544.52125" y="531.5525" style="stroke: #000000; stroke-width: 0.8"/>
      </g>
     </g>
     <g id="text_8">
      <!-- 6 -->
      <g transform="translate(542.02125 545.4275) scale(0.1 -0.1)">
       <defs>
        <path id="SimHei-36" d="M 250 1612 
Q 275 1975 387 2225 
Q 500 2475 725 2850 
L 1750 4450 
L 2325 4450 
L 1275 2800 
Q 1950 2975 2350 2750 
Q 2750 2525 2887 2237 
Q 3025 1950 3037 1612 
Q 3050 1275 2937 950 
Q 2825 625 2537 362 
Q 2250 100 1737 75 
Q 1225 50 862 262 
Q 500 475 362 862 
Q 225 1250 250 1612 
z
M 1025 787 
Q 1250 550 1625 525 
Q 2000 500 2250 775 
Q 2500 1050 2500 1575 
Q 2500 2100 2187 2300 
Q 1875 2500 1487 2450 
Q 1100 2400 925 2075 
Q 750 1750 775 1387 
Q 800 1025 1025 787 
z
" transform="scale(0.015625)"/>
       </defs>
       <use xlink:href="#SimHei-36"/>
      </g>
     </g>
    </g>
    <g id="text_9">
     <!-- X坐标 -->
     <g transform="translate(276.75125 559.95875) scale(0.12 -0.12)">
      <defs>
       <path id="SimHei-58" d="M 3000 125 
L 2400 125 
L 1550 1875 
L 700 125 
L 100 125 
L 1275 2375 
L 225 4400 
L 825 4400 
L 1550 2850 
L 2275 4400 
L 2875 4400 
L 1825 2375 
L 3000 125 
z
" transform="scale(0.015625)"/>
       <path id="SimHei-5750" d="M 3450 5100 
Q 3425 4675 3425 4150 
L 3425 1500 
L 4550 1500 
Q 4975 1500 5450 1525 
L 5450 1075 
Q 5000 1100 4500 1100 
L 3425 1100 
L 3425 50 
L 5075 50 
Q 5500 50 5975 75 
L 5975 -375 
Q 5525 -350 5075 -350 
L 1475 -350 
Q 925 -350 400 -375 
L 400 75 
Q 925 50 1475 50 
L 2925 50 
L 2925 1100 
L 2050 1100 
Q 1450 1100 950 1075 
L 950 1525 
Q 1450 1500 2050 1500 
L 2925 1500 
L 2925 4150 
Q 2925 4675 2900 5100 
L 3450 5100 
z
M 5200 4450 
Q 5050 4250 4825 3600 
Q 5200 3300 5975 2500 
Q 5775 2400 5575 2150 
Q 5075 2800 4650 3150 
Q 4375 2500 3975 1925 
Q 3725 2125 3525 2200 
Q 3875 2575 4212 3362 
Q 4550 4150 4600 4650 
Q 4900 4525 5200 4450 
z
M 350 2150 
Q 600 2375 950 3087 
Q 1300 3800 1450 4575 
Q 1625 4475 2050 4400 
Q 1950 4275 1862 4050 
Q 1775 3825 1700 3575 
Q 2400 2950 2700 2475 
Q 2425 2325 2250 2150 
Q 2025 2550 1887 2725 
Q 1750 2900 1500 3125 
Q 1250 2525 800 1875 
Q 575 2050 350 2150 
z
" transform="scale(0.015625)"/>
       <path id="SimHei-6807" d="M 1275 4400 
Q 1275 4800 1250 5175 
L 1750 5175 
Q 1725 4825 1725 4400 
L 1725 3800 
Q 2125 3800 2575 3825 
L 2575 3350 
Q 2125 3375 1725 3375 
L 1725 2525 
Q 1900 2650 2075 2800 
Q 2400 2275 2650 1775 
Q 2375 1650 2175 1500 
Q 2025 2000 1725 2425 
L 1725 475 
Q 1725 -50 1750 -575 
L 1250 -575 
Q 1275 -25 1275 475 
L 1275 2100 
Q 1025 1400 500 750 
Q 350 950 125 1125 
Q 550 1550 812 2187 
Q 1075 2825 1150 3375 
Q 675 3375 325 3325 
L 325 3825 
Q 800 3800 1275 3800 
L 1275 4400 
z
M 5175 3125 
Q 5675 3125 6050 3150 
L 6050 2675 
Q 5675 2700 5275 2700 
L 4500 2700 
L 4500 175 
Q 4500 -225 4275 -350 
Q 4050 -475 3475 -550 
Q 3425 -250 3275 25 
Q 3775 25 3900 62 
Q 4025 100 4025 350 
L 4025 2700 
L 3400 2700 
Q 2775 2700 2500 2650 
L 2500 3150 
Q 2825 3125 3400 3125 
L 5175 3125 
z
M 4900 4775 
Q 5425 4775 5750 4800 
L 5750 4300 
Q 5275 4350 4750 4350 
L 3525 4350 
Q 3125 4350 2750 4300 
L 2750 4800 
Q 3100 4775 3525 4775 
L 4900 4775 
z
M 5275 2025 
Q 5825 1175 6200 500 
Q 5925 375 5650 200 
Q 5375 925 4825 1725 
Q 5075 1850 5275 2025 
z
M 3600 1775 
Q 3500 1625 3225 975 
Q 2950 325 2800 50 
Q 2575 175 2300 275 
Q 2625 775 2787 1187 
Q 2950 1600 3050 2000 
Q 3325 1875 3600 1775 
z
" transform="scale(0.015625)"/>
      </defs>
      <use xlink:href="#SimHei-58"/>
      <use xlink:href="#SimHei-5750" transform="translate(50 0)"/>
      <use xlink:href="#SimHei-6807" transform="translate(150 0)"/>
     </g>
    </g>
   </g>
   <g id="matplotlib.axis_2">
    <g id="ytick_1">
     <g id="line2d_17">
      <path d="M 38.98125 531.5525 
L 544.52125 531.5525 
" clip-path="url(#pa9ca288952)" style="fill: none; stroke: #b0b0b0; stroke-opacity: 0.3; stroke-width: 0.8; stroke-linecap: square"/>
     </g>
     <g id="line2d_18">
      <defs>
       <path id="mcbcb4719d7" d="M 0 0 
L -3.5 0 
" style="stroke: #000000; stroke-width: 0.8"/>
      </defs>
      <g>
       <use xlink:href="#mcbcb4719d7" x="38.98125" y="531.5525" style="stroke: #000000; stroke-width: 0.8"/>
      </g>
     </g>
     <g id="text_10">
      <!-- -1 -->
      <g transform="translate(21.98125 534.99) scale(0.1 -0.1)">
       <use xlink:href="#SimHei-2d"/>
       <use xlink:href="#SimHei-31" transform="translate(50 0)"/>
      </g>
     </g>
    </g>
    <g id="ytick_2">
     <g id="line2d_19">
      <path d="M 38.98125 459.3325 
L 544.52125 459.3325 
" clip-path="url(#pa9ca288952)" style="fill: none; stroke: #b0b0b0; stroke-opacity: 0.3; stroke-width: 0.8; stroke-linecap: square"/>
     </g>
     <g id="line2d_20">
      <g>
       <use xlink:href="#mcbcb4719d7" x="38.98125" y="459.3325" style="stroke: #000000; stroke-width: 0.8"/>
      </g>
     </g>
     <g id="text_11">
      <!-- 0 -->
      <g transform="translate(26.98125 462.77) scale(0.1 -0.1)">
       <use xlink:href="#SimHei-30"/>
      </g>
     </g>
    </g>
    <g id="ytick_3">
     <g id="line2d_21">
      <path d="M 38.98125 387.1125 
L 544.52125 387.1125 
" clip-path="url(#pa9ca288952)" style="fill: none; stroke: #b0b0b0; stroke-opacity: 0.3; stroke-width: 0.8; stroke-linecap: square"/>
     </g>
     <g id="line2d_22">
      <g>
       <use xlink:href="#mcbcb4719d7" x="38.98125" y="387.1125" style="stroke: #000000; stroke-width: 0.8"/>
      </g>
     </g>
     <g id="text_12">
      <!-- 1 -->
      <g transform="translate(26.98125 390.55) scale(0.1 -0.1)">
       <use xlink:href="#SimHei-31"/>
      </g>
     </g>
    </g>
    <g id="ytick_4">
     <g id="line2d_23">
      <path d="M 38.98125 314.8925 
L 544.52125 314.8925 
" clip-path="url(#pa9ca288952)" style="fill: none; stroke: #b0b0b0; stroke-opacity: 0.3; stroke-width: 0.8; stroke-linecap: square"/>
     </g>
     <g id="line2d_24">
      <g>
       <use xlink:href="#mcbcb4719d7" x="38.98125" y="314.8925" style="stroke: #000000; stroke-width: 0.8"/>
      </g>
     </g>
     <g id="text_13">
      <!-- 2 -->
      <g transform="translate(26.98125 318.33) scale(0.1 -0.1)">
       <use xlink:href="#SimHei-32"/>
      </g>
     </g>
    </g>
    <g id="ytick_5">
     <g id="line2d_25">
      <path d="M 38.98125 242.6725 
L 544.52125 242.6725 
" clip-path="url(#pa9ca288952)" style="fill: none; stroke: #b0b0b0; stroke-opacity: 0.3; stroke-width: 0.8; stroke-linecap: square"/>
     </g>
     <g id="line2d_26">
      <g>
       <use xlink:href="#mcbcb4719d7" x="38.98125" y="242.6725" style="stroke: #000000; stroke-width: 0.8"/>
      </g>
     </g>
     <g id="text_14">
      <!-- 3 -->
      <g transform="translate(26.98125 246.11) scale(0.1 -0.1)">
       <use xlink:href="#SimHei-33"/>
      </g>
     </g>
    </g>
    <g id="ytick_6">
     <g id="line2d_27">
      <path d="M 38.98125 170.4525 
L 544.52125 170.4525 
" clip-path="url(#pa9ca288952)" style="fill: none; stroke: #b0b0b0; stroke-opacity: 0.3; stroke-width: 0.8; stroke-linecap: square"/>
     </g>
     <g id="line2d_28">
      <g>
       <use xlink:href="#mcbcb4719d7" x="38.98125" y="170.4525" style="stroke: #000000; stroke-width: 0.8"/>
      </g>
     </g>
     <g id="text_15">
      <!-- 4 -->
      <g transform="translate(26.98125 173.89) scale(0.1 -0.1)">
       <use xlink:href="#SimHei-34"/>
      </g>
     </g>
    </g>
    <g id="ytick_7">
     <g id="line2d_29">
      <path d="M 38.98125 98.2325 
L 544.52125 98.2325 
" clip-path="url(#pa9ca288952)" style="fill: none; stroke: #b0b0b0; stroke-opacity: 0.3; stroke-width: 0.8; stroke-linecap: square"/>
     </g>
     <g id="line2d_30">
      <g>
       <use xlink:href="#mcbcb4719d7" x="38.98125" y="98.2325" style="stroke: #000000; stroke-width: 0.8"/>
      </g>
     </g>
     <g id="text_16">
      <!-- 5 -->
      <g transform="translate(26.98125 101.67) scale(0.1 -0.1)">
       <use xlink:href="#SimHei-35"/>
      </g>
     </g>
    </g>
    <g id="ytick_8">
     <g id="line2d_31">
      <path d="M 38.98125 26.0125 
L 544.52125 26.0125 
" clip-path="url(#pa9ca288952)" style="fill: none; stroke: #b0b0b0; stroke-opacity: 0.3; stroke-width: 0.8; stroke-linecap: square"/>
     </g>
     <g id="line2d_32">
      <g>
       <use xlink:href="#mcbcb4719d7" x="38.98125" y="26.0125" style="stroke: #000000; stroke-width: 0.8"/>
      </g>
     </g>
     <g id="text_17">
      <!-- 6 -->
      <g transform="translate(26.98125 29.45) scale(0.1 -0.1)">
       <use xlink:href="#SimHei-36"/>
      </g>
     </g>
    </g>
    <g id="text_18">
     <!-- Y坐标 -->
     <g transform="translate(16.48125 293.7825) rotate(-90) scale(0.12 -0.12)">
      <defs>
       <path id="SimHei-59" d="M 3025 4400 
L 1850 2050 
L 1850 125 
L 1275 125 
L 1275 2050 
L 100 4400 
L 675 4400 
L 1550 2575 
L 1575 2575 
L 2450 4400 
L 3025 4400 
z
" transform="scale(0.015625)"/>
      </defs>
      <use xlink:href="#SimHei-59"/>
      <use xlink:href="#SimHei-5750" transform="translate(50 0)"/>
      <use xlink:href="#SimHei-6807" transform="translate(150 0)"/>
     </g>
    </g>
   </g>
   <g id="line2d_33">
    <defs>
     <path id="m6f1eeaada4" d="M 0 4 
C 1.060812 4 2.078319 3.578535 2.828427 2.828427 
C 3.578535 2.078319 4 1.060812 4 0 
C 4 -1.060812 3.578535 -2.078319 2.828427 -2.828427 
C 2.078319 -3.578535 1.060812 -4 0 -4 
C -1.060812 -4 -2.078319 -3.578535 -2.828427 -2.828427 
C -3.578535 -2.078319 -4 -1.060812 -4 0 
C -4 1.060812 -3.578535 2.078319 -2.828427 2.828427 
C -2.078319 3.578535 -1.060812 4 0 4 
z
" style="stroke: #ff0000"/>
    </defs>
    <g clip-path="url(#pa9ca288952)">
     <use xlink:href="#m6f1eeaada4" x="291.75125" y="278.7825" style="fill: #ff0000; stroke: #ff0000"/>
    </g>
   </g>
   <g id="line2d_34">
    <defs>
     <path id="m0cbe31745c" d="M 0 4 
C 1.060812 4 2.078319 3.578535 2.828427 2.828427 
C 3.578535 2.078319 4 1.060812 4 0 
C 4 -1.060812 3.578535 -2.078319 2.828427 -2.828427 
C 2.078319 -3.578535 1.060812 -4 0 -4 
C -1.060812 -4 -2.078319 -3.578535 -2.828427 -2.828427 
C -3.578535 -2.078319 -4 -1.060812 -4 0 
C -4 1.060812 -3.578535 2.078319 -2.828427 2.828427 
C -2.078319 3.578535 -1.060812 4 0 4 
z
" style="stroke: #008000"/>
    </defs>
    <g clip-path="url(#pa9ca288952)">
     <use xlink:href="#m0cbe31745c" x="255.64125" y="314.8925" style="fill: #008000; stroke: #008000"/>
    </g>
   </g>
   <g id="line2d_35">
    <defs>
     <path id="m59919abb17" d="M 0 4 
C 1.060812 4 2.078319 3.578535 2.828427 2.828427 
C 3.578535 2.078319 4 1.060812 4 0 
C 4 -1.060812 3.578535 -2.078319 2.828427 -2.828427 
C 2.078319 -3.578535 1.060812 -4 0 -4 
C -1.060812 -4 -2.078319 -3.578535 -2.828427 -2.828427 
C -3.578535 -2.078319 -4 -1.060812 -4 0 
C -4 1.060812 -3.578535 2.078319 -2.828427 2.828427 
C -2.078319 3.578535 -1.060812 4 0 4 
z
" style="stroke: #ffa500"/>
    </defs>
    <g clip-path="url(#pa9ca288952)">
     <use xlink:href="#m59919abb17" x="363.97125" y="278.7825" style="fill: #ffa500; stroke: #ffa500"/>
    </g>
   </g>
   <g id="line2d_36">
    <defs>
     <path id="mdba2829350" d="M 0 4 
C 1.060812 4 2.078319 3.578535 2.828427 2.828427 
C 3.578535 2.078319 4 1.060812 4 0 
C 4 -1.060812 3.578535 -2.078319 2.828427 -2.828427 
C 2.078319 -3.578535 1.060812 -4 0 -4 
C -1.060812 -4 -2.078319 -3.578535 -2.828427 -2.828427 
C -3.578535 -2.078319 -4 -1.060812 -4 0 
C -4 1.060812 -3.578535 2.078319 -2.828427 2.828427 
C -2.078319 3.578535 -1.060812 4 0 4 
z
" style="stroke: #800080"/>
    </defs>
    <g clip-path="url(#pa9ca288952)">
     <use xlink:href="#mdba2829350" x="219.53125" y="351.0025" style="fill: #800080; stroke: #800080"/>
    </g>
   </g>
   <g id="line2d_37">
    <defs>
     <path id="m50b78fcfa6" d="M 0 4 
C 1.060812 4 2.078319 3.578535 2.828427 2.828427 
C 3.578535 2.078319 4 1.060812 4 0 
C 4 -1.060812 3.578535 -2.078319 2.828427 -2.828427 
C 2.078319 -3.578535 1.060812 -4 0 -4 
C -1.060812 -4 -2.078319 -3.578535 -2.828427 -2.828427 
C -3.578535 -2.078319 -4 -1.060812 -4 0 
C -4 1.060812 -3.578535 2.078319 -2.828427 2.828427 
C -2.078319 3.578535 -1.060812 4 0 4 
z
" style="stroke: #a52a2a"/>
    </defs>
    <g clip-path="url(#pa9ca288952)">
     <use xlink:href="#m50b78fcfa6" x="436.19125" y="206.5625" style="fill: #a52a2a; stroke: #a52a2a"/>
    </g>
   </g>
   <g id="line2d_38">
    <defs>
     <path id="mbab3f8ac60" d="M 0 3 
C 0.795609 3 1.55874 2.683901 2.12132 2.12132 
C 2.683901 1.55874 3 0.795609 3 0 
C 3 -0.795609 2.683901 -1.55874 2.12132 -2.12132 
C 1.55874 -2.683901 0.795609 -3 0 -3 
C -0.795609 -3 -1.55874 -2.683901 -2.12132 -2.12132 
C -2.683901 -1.55874 -3 -0.795609 -3 0 
C -3 0.795609 -2.683901 1.55874 -2.12132 2.12132 
C -1.55874 2.683901 -0.795609 3 0 3 
z
" style="stroke: #000000"/>
    </defs>
    <g clip-path="url(#pa9ca288952)">
     <use xlink:href="#mbab3f8ac60" x="183.42125" y="387.1125" style="stroke: #000000"/>
    </g>
   </g>
   <g id="line2d_39">
    <g clip-path="url(#pa9ca288952)">
     <use xlink:href="#mbab3f8ac60" x="327.86125" y="423.2225" style="stroke: #000000"/>
    </g>
   </g>
   <g id="line2d_40">
    <g clip-path="url(#pa9ca288952)">
     <use xlink:href="#mbab3f8ac60" x="400.08125" y="314.8925" style="stroke: #000000"/>
    </g>
   </g>
   <g id="line2d_41">
    <g clip-path="url(#pa9ca288952)">
     <use xlink:href="#mbab3f8ac60" x="363.97125" y="170.4525" style="stroke: #000000"/>
    </g>
   </g>
   <g id="line2d_42">
    <g clip-path="url(#pa9ca288952)">
     <use xlink:href="#mbab3f8ac60" x="255.64125" y="98.2325" style="stroke: #000000"/>
    </g>
   </g>
   <g id="line2d_43">
    <g clip-path="url(#pa9ca288952)">
     <use xlink:href="#mbab3f8ac60" x="147.31125" y="242.6725" style="stroke: #000000"/>
    </g>
   </g>
   <g id="line2d_44">
    <path d="M 400.08125 314.8925 
L 363.97125 170.4525 
" clip-path="url(#pa9ca288952)" style="fill: none; stroke: #ff0000; stroke-width: 3; stroke-linecap: square"/>
   </g>
   <g id="patch_5">
    <path d="M 38.98125 531.5525 
L 38.98125 26.0125 
" style="fill: none; stroke: #000000; stroke-width: 0.8; stroke-linejoin: miter; stroke-linecap: square"/>
   </g>
   <g id="patch_6">
    <path d="M 544.52125 531.5525 
L 544.52125 26.0125 
" style="fill: none; stroke: #000000; stroke-width: 0.8; stroke-linejoin: miter; stroke-linecap: square"/>
   </g>
   <g id="patch_7">
    <path d="M 38.98125 531.5525 
L 544.52125 531.5525 
" style="fill: none; stroke: #000000; stroke-width: 0.8; stroke-linejoin: miter; stroke-linecap: square"/>
   </g>
   <g id="patch_8">
    <path d="M 38.98125 26.0125 
L 544.52125 26.0125 
" style="fill: none; stroke: #000000; stroke-width: 0.8; stroke-linejoin: miter; stroke-linecap: square"/>
   </g>
   <g id="text_19">
    <!-- P1 -->
    <g transform="translate(260.64125 309.8925) scale(0.12 -0.12)">
     <defs>
      <path id="SimHei-50" d="M 2950 3100 
Q 2950 2500 2600 2150 
Q 2250 1800 1625 1800 
L 900 1800 
L 900 125 
L 325 125 
L 325 4400 
L 1625 4400 
Q 2250 4400 2600 4050 
Q 2950 3700 2950 3100 
z
M 2375 3100 
Q 2375 3575 2150 3750 
Q 1925 3925 1475 3925 
L 900 3925 
L 900 2275 
L 1475 2275 
Q 1925 2275 2150 2450 
Q 2375 2625 2375 3100 
z
" transform="scale(0.015625)"/>
     </defs>
     <use xlink:href="#SimHei-50"/>
     <use xlink:href="#SimHei-31" transform="translate(50 0)"/>
    </g>
   </g>
   <g id="text_20">
    <!-- P2 -->
    <g transform="translate(368.97125 273.7825) scale(0.12 -0.12)">
     <use xlink:href="#SimHei-50"/>
     <use xlink:href="#SimHei-32" transform="translate(50 0)"/>
    </g>
   </g>
   <g id="text_21">
    <!-- P3 -->
    <g transform="translate(224.53125 346.0025) scale(0.12 -0.12)">
     <use xlink:href="#SimHei-50"/>
     <use xlink:href="#SimHei-33" transform="translate(50 0)"/>
    </g>
   </g>
   <g id="text_22">
    <!-- P4 -->
    <g transform="translate(441.19125 201.5625) scale(0.12 -0.12)">
     <use xlink:href="#SimHei-50"/>
     <use xlink:href="#SimHei-34" transform="translate(50 0)"/>
    </g>
   </g>
   <g id="text_23">
    <!-- V1 -->
    <g transform="translate(186.42125 384.1125) scale(0.1 -0.1)">
     <defs>
      <path id="SimHei-56" d="M 3050 4400 
L 1800 75 
L 1300 75 
L 50 4400 
L 650 4400 
L 1525 1125 
L 1575 1125 
L 2450 4400 
L 3050 4400 
z
" transform="scale(0.015625)"/>
     </defs>
     <use xlink:href="#SimHei-56"/>
     <use xlink:href="#SimHei-31" transform="translate(50 0)"/>
    </g>
   </g>
   <g id="text_24">
    <!-- V2 -->
    <g transform="translate(330.86125 420.2225) scale(0.1 -0.1)">
     <use xlink:href="#SimHei-56"/>
     <use xlink:href="#SimHei-32" transform="translate(50 0)"/>
    </g>
   </g>
   <g id="text_25">
    <!-- V3 -->
    <g transform="translate(403.08125 311.8925) scale(0.1 -0.1)">
     <use xlink:href="#SimHei-56"/>
     <use xlink:href="#SimHei-33" transform="translate(50 0)"/>
    </g>
   </g>
   <g id="text_26">
    <!-- V4 -->
    <g transform="translate(366.97125 167.4525) scale(0.1 -0.1)">
     <use xlink:href="#SimHei-56"/>
     <use xlink:href="#SimHei-34" transform="translate(50 0)"/>
    </g>
   </g>
   <g id="text_27">
    <!-- V5 -->
    <g transform="translate(258.64125 95.2325) scale(0.1 -0.1)">
     <use xlink:href="#SimHei-56"/>
     <use xlink:href="#SimHei-35" transform="translate(50 0)"/>
    </g>
   </g>
   <g id="text_28">
    <!-- V6 -->
    <g transform="translate(150.31125 239.6725) scale(0.1 -0.1)">
     <use xlink:href="#SimHei-56"/>
     <use xlink:href="#SimHei-36" transform="translate(50 0)"/>
    </g>
   </g>
   <g id="text_29">
    <g id="patch_9">
     <path d="M 387.02625 241.9225 
L 497.02625 241.9225 
Q 500.02625 241.9225 500.02625 238.9225 
L 500.02625 229.664687 
Q 500.02625 226.664687 497.02625 226.664687 
L 387.02625 226.664687 
Q 384.02625 226.664687 384.02625 229.664687 
L 384.02625 238.9225 
Q 384.02625 241.9225 387.02625 241.9225 
z
" style="fill: #ffff00; opacity: 0.7; stroke: #000000; stroke-linejoin: miter"/>
    </g>
    <!-- 距离: 1.33 &lt; 半径: 1.5 -->
    <g style="fill: #ff0000" transform="translate(387.02625 237.6725) scale(0.1 -0.1)">
     <defs>
      <path id="SimHei-8ddd" d="M 3550 1275 
L 3550 25 
L 5250 25 
Q 5750 25 6125 50 
L 6125 -425 
Q 5750 -400 5275 -400 
L 3075 -400 
Q 3100 -75 3100 575 
L 3100 4075 
Q 3100 4575 3075 4950 
L 5200 4950 
Q 5550 4950 6000 4975 
L 6000 4525 
Q 5550 4550 5225 4550 
L 3550 4550 
L 3550 3325 
L 5650 3325 
Q 5625 3050 5625 2300 
Q 5625 1575 5650 1275 
L 3550 1275 
z
M 2650 4950 
Q 2625 4400 2625 3900 
Q 2625 3400 2650 3050 
L 2000 3050 
L 2000 2175 
Q 2375 2175 2875 2200 
L 2875 1725 
Q 2375 1750 2000 1750 
L 2000 525 
Q 2625 625 2875 700 
L 2875 250 
Q 1375 -50 1062 -150 
Q 750 -250 425 -375 
Q 350 -75 250 150 
L 625 225 
L 625 1775 
Q 625 2050 600 2325 
L 1100 2325 
Q 1075 2050 1075 1775 
L 1075 300 
L 1575 425 
L 1575 3050 
L 700 3050 
Q 725 3425 725 3900 
Q 725 4400 700 4950 
L 2650 4950 
z
M 5150 1700 
L 5150 2925 
L 3550 2925 
L 3550 1700 
L 5150 1700 
z
M 2200 3425 
L 2200 4575 
L 1150 4575 
L 1150 3425 
L 2200 3425 
z
" transform="scale(0.015625)"/>
      <path id="SimHei-79bb" d="M 3000 2275 
Q 3150 2175 3425 2050 
Q 3275 1900 3150 1725 
L 5825 1725 
L 5825 0 
Q 5825 -475 5612 -537 
Q 5400 -600 4850 -650 
Q 4775 -350 4650 -100 
Q 5225 -125 5300 -87 
Q 5375 -50 5375 175 
L 5375 1350 
L 2950 1350 
Q 2825 1150 2675 962 
Q 2525 775 2350 525 
Q 2650 525 4075 675 
Q 3975 800 3850 950 
Q 3975 1075 4200 1225 
Q 4350 1075 4537 825 
Q 4725 575 4900 300 
Q 4650 200 4475 50 
Q 4350 200 4275 350 
Q 3175 225 2700 150 
Q 2225 75 1850 -25 
Q 1800 275 1675 600 
Q 1875 700 2075 900 
Q 2275 1100 2450 1350 
L 1125 1350 
L 1125 -625 
L 650 -625 
Q 675 -225 675 225 
L 675 1000 
Q 675 1450 650 1725 
L 2625 1725 
Q 2800 2000 2925 2275 
L 1025 2275 
Q 1050 2525 1050 2725 
L 1050 3325 
Q 1050 3550 1025 3800 
L 1525 3800 
Q 1500 3525 1500 3275 
L 1500 2650 
L 5050 2650 
L 5050 3325 
Q 5050 3575 5025 3775 
L 5525 3775 
Q 5500 3575 5500 3325 
L 5500 2750 
Q 5500 2550 5525 2275 
L 3000 2275 
z
M 3300 5275 
Q 3400 5000 3525 4650 
L 4950 4650 
Q 5375 4650 5950 4675 
L 5950 4275 
Q 5375 4300 4775 4300 
L 1525 4300 
Q 1050 4300 475 4275 
L 475 4675 
Q 1025 4650 1050 4650 
L 2975 4650 
Q 2900 4900 2750 5150 
Q 3025 5200 3300 5275 
z
M 2175 4125 
Q 2450 4050 2750 3937 
Q 3050 3825 3350 3725 
Q 3850 4025 4125 4250 
Q 4375 4100 4650 3925 
Q 4200 3800 3825 3550 
Q 4250 3350 4800 3100 
Q 4625 2950 4375 2775 
Q 4025 3000 3787 3112 
Q 3550 3225 3325 3300 
Q 3125 3175 2825 3050 
Q 2525 2925 2150 2775 
Q 2000 2975 1800 3125 
Q 2175 3200 2412 3287 
Q 2650 3375 2950 3475 
Q 2625 3575 2425 3637 
Q 2225 3700 1850 3775 
Q 2050 3950 2175 4125 
z
" transform="scale(0.015625)"/>
      <path id="SimHei-3a" d="M 1825 2425 
L 1250 2425 
L 1250 2975 
L 1825 2975 
L 1825 2425 
z
M 1825 125 
L 1250 125 
L 1250 675 
L 1825 675 
L 1825 125 
z
" transform="scale(0.015625)"/>
      <path id="SimHei-20" transform="scale(0.015625)"/>
      <path id="SimHei-2e" d="M 1075 125 
L 500 125 
L 500 675 
L 1075 675 
L 1075 125 
z
" transform="scale(0.015625)"/>
      <path id="SimHei-3c" d="M 2950 250 
L 2725 -25 
L 200 2250 
L 2700 4550 
L 2950 4300 
L 700 2250 
L 2950 250 
z
" transform="scale(0.015625)"/>
      <path id="SimHei-534a" d="M 2900 2925 
L 2900 4500 
Q 2900 4800 2875 5100 
L 3450 5100 
Q 3425 4850 3425 4400 
L 3425 2925 
L 4625 2925 
Q 5125 2925 5625 2950 
L 5625 2475 
Q 5125 2500 4525 2500 
L 3425 2500 
L 3425 1575 
L 5025 1575 
Q 5575 1575 6050 1600 
L 6050 1125 
Q 5575 1150 5050 1150 
L 3425 1150 
L 3425 200 
Q 3425 -125 3450 -575 
L 2850 -575 
Q 2900 -100 2900 200 
L 2900 1150 
L 1300 1150 
Q 775 1150 250 1125 
L 250 1600 
Q 775 1575 1575 1575 
L 2900 1575 
L 2900 2500 
L 1775 2500 
Q 1250 2500 675 2475 
L 675 2950 
Q 1225 2925 1650 2925 
L 2900 2925 
z
M 1300 4825 
Q 1825 4200 2225 3675 
Q 2025 3550 1725 3325 
Q 1350 3925 825 4475 
Q 1075 4600 1300 4825 
z
M 4125 3575 
Q 4575 4100 4925 4800 
Q 5175 4600 5475 4475 
Q 5400 4400 5100 3975 
Q 4800 3550 4600 3275 
Q 4400 3450 4125 3575 
z
" transform="scale(0.015625)"/>
      <path id="SimHei-5f84" d="M 4700 1875 
Q 5325 1875 5675 1900 
L 5675 1425 
Q 5350 1450 4725 1450 
L 4350 1450 
L 4350 100 
L 5375 100 
L 6075 150 
L 6075 -350 
Q 5725 -325 5375 -325 
L 2900 -325 
Q 2450 -325 2075 -350 
L 2075 125 
Q 2450 100 2900 100 
L 3875 100 
L 3875 1450 
L 3550 1450 
Q 3100 1450 2575 1425 
L 2575 1900 
Q 3100 1875 3550 1875 
L 4700 1875 
z
M 5625 4700 
Q 5400 4325 5162 4037 
Q 4925 3750 4625 3425 
Q 5475 2950 6050 2550 
Q 5825 2350 5675 2175 
Q 4825 2850 4300 3150 
Q 3900 2850 3550 2650 
Q 3200 2450 2525 2100 
Q 2450 2275 2175 2525 
Q 2775 2700 3537 3162 
Q 4300 3625 4775 4300 
L 3475 4300 
Q 3025 4300 2625 4275 
L 2625 4725 
Q 3000 4700 3450 4700 
L 5625 4700 
z
M 2550 3600 
Q 2300 3375 1725 2625 
L 1725 575 
Q 1725 50 1750 -600 
L 1250 -600 
Q 1275 50 1275 600 
L 1275 2150 
Q 925 1825 600 1550 
Q 450 1725 275 1900 
Q 850 2275 1337 2837 
Q 1825 3400 2100 3950 
Q 2300 3775 2550 3600 
z
M 2275 4850 
Q 2100 4650 1637 4150 
Q 1175 3650 750 3275 
Q 600 3450 375 3625 
Q 825 3925 1212 4337 
Q 1600 4750 1850 5175 
Q 2050 5000 2275 4850 
z
" transform="scale(0.015625)"/>
     </defs>
     <use xlink:href="#SimHei-8ddd"/>
     <use xlink:href="#SimHei-79bb" transform="translate(100 0)"/>
     <use xlink:href="#SimHei-3a" transform="translate(200 0)"/>
     <use xlink:href="#SimHei-20" transform="translate(250 0)"/>
     <use xlink:href="#SimHei-31" transform="translate(300 0)"/>
     <use xlink:href="#SimHei-2e" transform="translate(350 0)"/>
     <use xlink:href="#SimHei-33" transform="translate(400 0)"/>
     <use xlink:href="#SimHei-33" transform="translate(450 0)"/>
     <use xlink:href="#SimHei-20" transform="translate(500 0)"/>
     <use xlink:href="#SimHei-3c" transform="translate(550 0)"/>
     <use xlink:href="#SimHei-20" transform="translate(600 0)"/>
     <use xlink:href="#SimHei-534a" transform="translate(650 0)"/>
     <use xlink:href="#SimHei-5f84" transform="translate(750 0)"/>
     <use xlink:href="#SimHei-3a" transform="translate(850 0)"/>
     <use xlink:href="#SimHei-20" transform="translate(900 0)"/>
     <use xlink:href="#SimHei-31" transform="translate(950 0)"/>
     <use xlink:href="#SimHei-2e" transform="translate(1000 0)"/>
     <use xlink:href="#SimHei-35" transform="translate(1050 0)"/>
    </g>
   </g>
   <g id="text_30">
    <!-- 多边形与圆的位置关系示意图 -->
    <g transform="translate(187.75125 20.0125) scale(0.16 -0.16)">
     <defs>
      <path id="SimHei-591a" d="M 3800 2950 
Q 4000 2750 4275 2650 
Q 4050 2450 3850 2275 
L 5925 2275 
Q 5625 1525 5137 975 
Q 4650 425 4050 125 
Q 3450 -175 2725 -375 
Q 2000 -575 950 -675 
Q 850 -400 650 -150 
Q 1275 -175 2137 -25 
Q 3000 125 3700 450 
Q 3250 900 2950 1175 
Q 3150 1325 3300 1500 
Q 3650 1150 4100 675 
Q 4425 875 4712 1187 
Q 5000 1500 5200 1900 
L 3475 1900 
Q 3225 1700 2775 1412 
Q 2325 1125 1525 775 
Q 1400 1025 1200 1175 
Q 2025 1425 2762 1950 
Q 3500 2475 3800 2950 
z
M 900 1850 
Q 800 2100 575 2325 
Q 1050 2350 1725 2525 
Q 2400 2700 2775 2900 
Q 2475 3300 2100 3600 
Q 2300 3750 2425 3925 
Q 2900 3475 3200 3125 
Q 3575 3350 3875 3612 
Q 4175 3875 4400 4175 
L 2250 4175 
Q 1725 3725 1025 3275 
Q 875 3500 650 3625 
Q 1325 3925 1875 4400 
Q 2425 4875 2600 5225 
Q 2800 5075 3025 4925 
Q 2900 4825 2625 4550 
L 5225 4550 
Q 4500 3500 3800 3025 
Q 3100 2550 2437 2312 
Q 1775 2075 900 1850 
z
" transform="scale(0.015625)"/>
      <path id="SimHei-8fb9" d="M 3450 3950 
Q 3450 4750 3425 5250 
Q 3800 5175 4050 5175 
Q 3975 4825 3950 3950 
L 5725 3950 
Q 5650 3525 5625 3100 
L 5500 1150 
Q 5475 725 5062 612 
Q 4650 500 4300 400 
Q 4275 725 4050 1050 
Q 4650 1075 4837 1137 
Q 5025 1200 5050 1450 
L 5175 3500 
L 3925 3500 
Q 3825 2500 3525 1837 
Q 3225 1175 2625 500 
Q 2400 725 2075 900 
Q 2625 1275 2987 1937 
Q 3350 2600 3425 3500 
Q 2825 3500 2275 3450 
L 2275 3975 
Q 2725 3950 3450 3950 
z
M 1625 2900 
Q 1600 2475 1600 2125 
L 1600 675 
Q 2225 50 3775 0 
Q 5325 -50 6200 50 
Q 5950 -150 5925 -550 
Q 5125 -550 4350 -525 
Q 3575 -500 2925 -387 
Q 2275 -275 1850 75 
Q 1425 425 1187 175 
Q 950 -75 725 -550 
Q 500 -325 225 -150 
Q 875 350 1100 625 
L 1100 2450 
Q 650 2450 225 2425 
L 225 2925 
Q 725 2900 1150 2900 
L 1625 2900 
z
M 1150 5075 
Q 1600 4200 1700 3900 
Q 1450 3825 1175 3675 
Q 1150 3925 650 4875 
Q 925 4975 1150 5075 
z
" transform="scale(0.015625)"/>
      <path id="SimHei-5f62" d="M 2750 4850 
Q 3350 4850 3675 4875 
L 3675 4425 
Q 3400 4450 2950 4450 
L 2950 2700 
Q 3475 2700 3725 2725 
L 3725 2250 
Q 3500 2275 2950 2275 
L 2950 500 
Q 2950 -50 2975 -350 
L 2475 -350 
Q 2500 0 2500 475 
L 2500 2275 
L 1650 2275 
Q 1600 1075 1325 437 
Q 1050 -200 825 -500 
Q 550 -300 300 -250 
Q 700 150 937 762 
Q 1175 1375 1200 2275 
Q 775 2275 425 2250 
L 425 2725 
Q 775 2700 1225 2700 
L 1225 4450 
Q 800 4450 600 4425 
L 600 4875 
Q 800 4850 1375 4850 
L 2750 4850 
z
M 6100 1275 
Q 5850 1050 5150 462 
Q 4450 -125 3800 -525 
Q 3650 -300 3400 -100 
Q 4050 175 4725 750 
Q 5400 1325 5625 1650 
Q 5800 1450 6100 1275 
z
M 2500 2700 
L 2500 4450 
L 1675 4450 
L 1675 2700 
L 2500 2700 
z
M 5875 2975 
Q 5650 2825 5187 2300 
Q 4725 1775 3900 1175 
Q 3750 1375 3475 1550 
Q 4175 1950 4625 2412 
Q 5075 2875 5375 3325 
Q 5700 3050 5875 2975 
z
M 5675 4800 
Q 5425 4575 5062 4087 
Q 4700 3600 4075 2975 
Q 3850 3150 3625 3275 
Q 4175 3750 4475 4125 
Q 4775 4500 5125 5100 
Q 5250 5025 5675 4800 
z
" transform="scale(0.015625)"/>
      <path id="SimHei-4e0e" d="M 5350 100 
Q 5275 -300 4925 -425 
Q 4575 -550 3900 -600 
Q 3875 -375 3650 -25 
Q 4375 -50 4575 0 
Q 4775 50 4837 225 
Q 4900 400 5100 2350 
L 1125 2350 
Q 1450 4350 1475 5200 
Q 1800 5150 2075 5125 
Q 1975 4825 1900 4275 
L 4900 4275 
Q 5400 4275 5800 4300 
L 5800 3825 
Q 5400 3850 4950 3850 
L 1850 3850 
L 1700 2750 
L 5675 2750 
Q 5625 2450 5575 2050 
L 5350 100 
z
M 3675 1350 
Q 4125 1350 4500 1375 
L 4500 875 
Q 4125 900 3850 900 
L 1450 900 
Q 1000 900 500 875 
L 500 1375 
Q 1000 1350 1450 1350 
L 3675 1350 
z
" transform="scale(0.015625)"/>
      <path id="SimHei-5706" d="M 5775 4975 
Q 5750 4350 5750 3600 
L 5750 925 
Q 5750 125 5775 -625 
L 5300 -625 
L 5300 -375 
L 1100 -375 
L 1100 -650 
L 625 -650 
Q 650 125 650 950 
L 650 3600 
Q 650 4350 625 4975 
L 5775 4975 
z
M 5300 25 
L 5300 4600 
L 1100 4600 
L 1100 25 
L 5300 25 
z
M 4375 4200 
Q 4350 3925 4350 3625 
Q 4350 3350 4375 3050 
L 2025 3050 
Q 2050 3375 2050 3650 
Q 2050 3925 2025 4200 
L 4375 4200 
z
M 4575 2650 
Q 4550 2300 4550 2150 
L 4550 1800 
Q 4550 1675 4575 1275 
L 4100 1275 
L 4100 2275 
L 2300 2275 
L 2300 1175 
L 1825 1175 
Q 1850 1525 1850 1625 
L 1850 2150 
Q 1850 2300 1825 2650 
L 4575 2650 
z
M 3475 1975 
Q 3350 1250 3037 800 
Q 2725 350 1650 125 
Q 1625 350 1450 600 
Q 2350 650 2662 1062 
Q 2975 1475 3000 2075 
Q 3225 2000 3475 1975 
z
M 3625 1325 
Q 4050 1075 4875 575 
Q 4725 375 4600 150 
Q 4300 400 3400 950 
Q 3500 1100 3625 1325 
z
M 3925 3425 
L 3925 3825 
L 2475 3825 
L 2475 3425 
L 3925 3425 
z
" transform="scale(0.015625)"/>
      <path id="SimHei-7684" d="M 2100 4975 
Q 1975 4750 1750 3950 
L 2875 3950 
Q 2850 3525 2850 2875 
L 2850 675 
Q 2850 300 2875 -400 
L 2375 -400 
L 2375 100 
L 1100 100 
L 1100 -450 
L 600 -450 
Q 625 350 625 550 
L 625 2850 
Q 625 3525 600 3950 
L 1325 3950 
Q 1450 4525 1525 5150 
Q 1875 5025 2100 4975 
z
M 5825 3075 
Q 5800 1550 5700 175 
Q 5650 -275 5225 -425 
Q 4800 -575 4275 -625 
Q 4250 -350 4050 -50 
Q 4550 -75 4837 -25 
Q 5125 25 5200 200 
Q 5275 375 5312 1225 
Q 5350 2075 5375 3600 
L 3925 3600 
Q 3725 3125 3350 2475 
Q 3175 2650 2925 2750 
Q 3150 3050 3350 3475 
Q 3550 3900 3700 4400 
Q 3850 4900 3875 5175 
Q 4225 5025 4475 4950 
Q 4350 4750 4262 4512 
Q 4175 4275 4075 4050 
L 5850 4050 
Q 5825 3525 5825 3075 
z
M 2375 525 
L 2375 1850 
L 1100 1850 
L 1100 525 
L 2375 525 
z
M 2375 2275 
L 2375 3525 
L 1100 3525 
L 1100 2275 
L 2375 2275 
z
M 4350 2050 
Q 4500 1750 4700 1275 
Q 4525 1200 4225 1025 
Q 4050 1500 3900 1837 
Q 3750 2175 3600 2400 
Q 3775 2500 4050 2650 
L 4350 2050 
z
" transform="scale(0.015625)"/>
      <path id="SimHei-4f4d" d="M 2125 4925 
Q 1950 4750 1625 3750 
L 1625 575 
Q 1625 -225 1650 -650 
L 1100 -650 
Q 1150 -200 1150 550 
L 1150 2950 
Q 775 2275 550 1950 
Q 375 2275 200 2425 
Q 525 2775 912 3575 
Q 1300 4375 1500 5200 
Q 1825 5000 2125 4925 
z
M 5375 3025 
Q 5275 2875 5100 2250 
Q 4925 1625 4600 300 
L 5450 300 
Q 5925 300 6100 325 
L 6100 -175 
Q 5875 -150 5450 -150 
L 2900 -150 
Q 2275 -150 2050 -175 
L 2050 325 
Q 2275 300 2850 300 
L 4075 300 
Q 4400 1400 4700 3175 
Q 5100 3075 5375 3025 
z
M 5250 4025 
Q 5700 4025 5925 4050 
L 5925 3575 
Q 5700 3600 5225 3600 
L 3000 3600 
Q 2650 3600 2275 3575 
L 2275 4050 
Q 2675 4025 3000 4025 
L 5250 4025 
z
M 3050 3050 
Q 3500 1775 3750 725 
Q 3450 625 3250 550 
Q 3125 1125 2962 1675 
Q 2800 2225 2550 2875 
Q 2800 2925 3050 3050 
z
M 3875 5200 
Q 4175 4675 4400 4300 
Q 4200 4250 3875 4075 
Q 3700 4525 3400 4950 
Q 3650 5050 3875 5200 
z
" transform="scale(0.015625)"/>
      <path id="SimHei-7f6e" d="M 3600 3650 
Q 3525 3475 3475 3325 
L 4750 3325 
Q 5100 3325 5675 3350 
L 5675 2925 
Q 5125 2950 4750 2950 
L 3400 2950 
L 3350 2600 
L 5000 2600 
Q 4975 1975 4975 1550 
L 4975 -50 
Q 5575 -50 6025 -25 
L 6025 -400 
Q 5475 -375 5000 -375 
L 1400 -375 
Q 900 -375 400 -400 
L 400 -25 
Q 925 -50 1450 -50 
L 1450 1550 
Q 1450 1975 1425 2600 
L 2875 2600 
L 2925 2950 
L 1600 2950 
Q 1150 2950 650 2925 
L 650 3350 
Q 1150 3325 1600 3325 
L 2975 3325 
Q 3000 3525 3000 3700 
Q 3250 3650 3600 3650 
z
M 5575 4950 
Q 5550 4600 5550 4300 
Q 5550 4000 5575 3775 
L 900 3775 
Q 925 4075 925 4325 
Q 925 4600 900 4950 
L 5575 4950 
z
M 4575 1900 
L 4575 2250 
L 1850 2250 
L 1850 1900 
L 4575 1900 
z
M 4575 1250 
L 4575 1575 
L 1850 1575 
L 1850 1250 
L 4575 1250 
z
M 4575 -50 
L 4575 275 
L 1850 275 
L 1850 -50 
L 4575 -50 
z
M 4575 625 
L 4575 875 
L 1850 875 
L 1850 625 
L 4575 625 
z
M 3700 4100 
L 3700 4625 
L 2700 4625 
L 2700 4100 
L 3700 4100 
z
M 5075 4100 
L 5075 4625 
L 4100 4625 
L 4100 4100 
L 5075 4100 
z
M 2350 4100 
L 2350 4625 
L 1400 4625 
L 1400 4100 
L 2350 4100 
z
" transform="scale(0.015625)"/>
      <path id="SimHei-5173" d="M 4675 4850 
Q 4525 4675 4362 4375 
Q 4200 4075 4075 3825 
L 4625 3825 
Q 5150 3825 5550 3850 
L 5550 3375 
Q 5225 3400 4700 3400 
L 3400 3400 
L 3400 2150 
L 4975 2150 
Q 5475 2150 5875 2175 
L 5875 1700 
Q 5475 1725 5025 1725 
L 3500 1725 
Q 4250 450 6000 75 
Q 5775 -175 5600 -525 
Q 4025 0 3225 1300 
Q 2800 200 875 -600 
Q 775 -350 500 -150 
Q 2425 375 2875 1725 
L 1550 1725 
Q 975 1725 600 1700 
L 600 2150 
Q 875 2125 1450 2125 
L 2925 2125 
L 2925 3400 
L 1750 3400 
Q 1275 3400 900 3375 
L 900 3850 
Q 1275 3825 1775 3825 
L 3575 3825 
Q 3925 4625 4075 5150 
Q 4325 5000 4675 4850 
z
M 2125 5125 
Q 2450 4725 2800 4175 
Q 2500 4025 2325 3875 
Q 2025 4450 1725 4825 
Q 1950 4975 2125 5125 
z
" transform="scale(0.015625)"/>
      <path id="SimHei-7cfb" d="M 5300 5200 
Q 5450 4950 5725 4675 
Q 4975 4650 4437 4587 
Q 3900 4525 3125 4450 
Q 3250 4325 3475 4225 
Q 3150 4025 2837 3762 
Q 2525 3500 2225 3275 
L 3475 3275 
Q 4100 3700 4525 4050 
Q 4775 3850 5125 3700 
Q 4775 3550 4450 3375 
Q 4125 3200 3387 2737 
Q 2650 2275 2125 1975 
Q 3600 2050 4875 2100 
Q 4750 2225 4225 2625 
Q 4475 2725 4650 2875 
Q 4950 2650 5337 2312 
Q 5725 1975 6075 1650 
Q 5775 1475 5600 1325 
Q 5400 1575 5225 1725 
Q 4550 1700 3625 1650 
L 3625 150 
Q 3625 -325 3387 -412 
Q 3150 -500 2525 -600 
Q 2475 -300 2300 -25 
Q 2875 -25 3012 12 
Q 3150 50 3150 300 
L 3150 1650 
Q 1625 1625 1075 1525 
Q 1000 1775 900 2050 
Q 1450 2100 1875 2300 
Q 2300 2500 2900 2900 
Q 2325 2900 2037 2875 
Q 1750 2850 1400 2800 
Q 1325 3075 1250 3325 
Q 1675 3325 2100 3662 
Q 2525 4000 2750 4400 
Q 1350 4350 925 4300 
Q 850 4550 750 4750 
Q 2150 4750 3250 4850 
Q 4350 4950 5300 5200 
z
M 4625 1250 
Q 4925 1025 5325 737 
Q 5725 450 6000 175 
Q 5800 0 5600 -225 
Q 5275 125 4925 400 
Q 4575 675 4275 875 
Q 4500 1050 4625 1250 
z
M 2200 875 
Q 1900 725 1537 375 
Q 1175 25 800 -300 
Q 575 -75 375 25 
Q 1075 450 1675 1225 
Q 1900 1050 2200 875 
z
" transform="scale(0.015625)"/>
      <path id="SimHei-793a" d="M 5175 3050 
Q 5500 3050 5975 3075 
L 5975 2575 
Q 5500 2625 5150 2625 
L 3500 2625 
L 3500 -75 
Q 3500 -350 3212 -487 
Q 2925 -625 2425 -675 
Q 2400 -425 2175 -100 
Q 2625 -125 2825 -87 
Q 3025 -50 3025 175 
L 3025 2625 
L 1400 2625 
Q 900 2625 500 2600 
L 500 3075 
Q 925 3050 1400 3050 
L 5175 3050 
z
M 4425 4775 
Q 4775 4775 5225 4800 
L 5225 4325 
Q 4775 4350 4425 4350 
L 2125 4350 
Q 1600 4350 1200 4325 
L 1200 4800 
Q 1600 4775 2125 4775 
L 4425 4775 
z
M 2225 1825 
Q 1950 1400 1650 900 
Q 1350 400 975 -125 
Q 775 75 500 150 
Q 900 600 1200 1087 
Q 1500 1575 1725 2075 
Q 1975 1925 2225 1825 
z
M 4500 2025 
Q 5450 925 5925 275 
Q 5650 125 5475 -25 
Q 5100 550 4125 1750 
Q 4325 1850 4500 2025 
z
" transform="scale(0.015625)"/>
      <path id="SimHei-610f" d="M 5175 2900 
Q 5150 2425 5150 1975 
Q 5150 1550 5175 1050 
L 1200 1050 
Q 1225 1550 1225 2000 
Q 1225 2450 1200 2900 
L 5175 2900 
z
M 1575 4250 
Q 1125 4250 625 4225 
L 625 4650 
Q 1150 4625 1575 4625 
L 3075 4625 
Q 3050 4825 2900 5150 
Q 3175 5175 3475 5250 
Q 3575 4800 3625 4625 
L 4775 4625 
Q 5275 4625 5650 4650 
L 5650 4225 
Q 5225 4250 4775 4250 
L 2275 4250 
Q 2450 4000 2575 3775 
L 2225 3625 
L 3800 3625 
Q 3900 3750 4025 4200 
Q 4325 4125 4575 4050 
Q 4400 3825 4300 3625 
L 5050 3625 
Q 5600 3625 6075 3650 
L 6075 3225 
Q 5600 3250 5050 3250 
L 1300 3250 
Q 775 3250 325 3225 
L 325 3650 
Q 800 3625 1300 3625 
L 2125 3625 
Q 2050 3825 1875 4050 
Q 2025 4125 2225 4250 
L 1575 4250 
z
M 2325 725 
Q 2300 450 2300 275 
Q 2300 125 2312 0 
Q 2325 -125 2550 -125 
L 4025 -125 
Q 4175 -75 4275 450 
Q 4475 275 4825 175 
Q 4650 -300 4525 -400 
Q 4400 -500 4100 -500 
L 2275 -500 
Q 1850 -475 1825 -287 
Q 1800 -100 1800 150 
Q 1800 400 1750 725 
L 2325 725 
z
M 4650 2150 
L 4650 2550 
L 1725 2550 
L 1725 2150 
L 4650 2150 
z
M 4650 1425 
L 4650 1775 
L 1725 1775 
L 1725 1425 
L 4650 1425 
z
M 5400 850 
Q 5875 225 6125 -75 
Q 5900 -250 5725 -375 
Q 5550 -100 5000 575 
Q 5150 700 5400 850 
z
M 1275 575 
Q 1050 100 800 -550 
Q 500 -425 300 -375 
Q 600 25 800 725 
Q 1025 625 1275 575 
z
M 3325 975 
Q 3600 600 3775 350 
Q 3550 200 3325 75 
Q 3250 300 2900 700 
Q 3050 825 3325 975 
z
" transform="scale(0.015625)"/>
      <path id="SimHei-56fe" d="M 5800 4975 
Q 5775 4350 5775 3600 
L 5775 925 
Q 5775 150 5800 -600 
L 5300 -600 
L 5300 -275 
L 1125 -275 
L 1125 -650 
L 625 -650 
Q 650 125 650 950 
L 650 3600 
Q 650 4325 625 4975 
L 5800 4975 
z
M 5300 150 
L 5300 4575 
L 1125 4575 
L 1125 150 
L 5300 150 
z
M 3225 4250 
Q 3075 4100 2950 3925 
L 4625 3925 
Q 4525 3700 4300 3375 
Q 4075 3050 3600 2600 
Q 4350 2225 5075 2150 
Q 4900 1925 4775 1675 
Q 3850 1950 3225 2350 
Q 2500 1875 1675 1650 
Q 1600 1875 1400 2075 
Q 2200 2200 2875 2600 
Q 2525 2925 2375 3150 
Q 2150 2900 1900 2650 
Q 1725 2850 1525 2950 
Q 1950 3300 2250 3737 
Q 2550 4175 2675 4475 
Q 2925 4350 3225 4250 
z
M 2450 1275 
Q 3550 950 4100 725 
Q 3975 525 3850 300 
Q 2825 725 2275 850 
Q 2375 1050 2450 1275 
z
M 2925 2050 
Q 3775 1700 4075 1600 
Q 3950 1400 3850 1150 
Q 3000 1550 2700 1650 
Q 2825 1825 2925 2050 
z
M 2625 3450 
Q 3000 3025 3275 2850 
Q 3600 3100 3875 3525 
L 2675 3525 
L 2625 3450 
z
" transform="scale(0.015625)"/>
     </defs>
     <use xlink:href="#SimHei-591a"/>
     <use xlink:href="#SimHei-8fb9" transform="translate(100 0)"/>
     <use xlink:href="#SimHei-5f62" transform="translate(200 0)"/>
     <use xlink:href="#SimHei-4e0e" transform="translate(300 0)"/>
     <use xlink:href="#SimHei-5706" transform="translate(400 0)"/>
     <use xlink:href="#SimHei-7684" transform="translate(500 0)"/>
     <use xlink:href="#SimHei-4f4d" transform="translate(600 0)"/>
     <use xlink:href="#SimHei-7f6e" transform="translate(700 0)"/>
     <use xlink:href="#SimHei-5173" transform="translate(800 0)"/>
     <use xlink:href="#SimHei-7cfb" transform="translate(900 0)"/>
     <use xlink:href="#SimHei-793a" transform="translate(1000 0)"/>
     <use xlink:href="#SimHei-610f" transform="translate(1100 0)"/>
     <use xlink:href="#SimHei-56fe" transform="translate(1200 0)"/>
    </g>
   </g>
   <g id="legend_1">
    <g id="patch_10">
     <path d="M 440.52125 119.559375 
L 537.52125 119.559375 
Q 539.52125 119.559375 539.52125 117.559375 
L 539.52125 33.0125 
Q 539.52125 31.0125 537.52125 31.0125 
L 440.52125 31.0125 
Q 438.52125 31.0125 438.52125 33.0125 
L 438.52125 117.559375 
Q 438.52125 119.559375 440.52125 119.559375 
z
" style="fill: #ffffff; opacity: 0.8; stroke: #cccccc; stroke-linejoin: miter"/>
    </g>
    <g id="line2d_45">
     <g>
      <use xlink:href="#m6f1eeaada4" x="452.52125" y="39.48125" style="fill: #ff0000; stroke: #ff0000"/>
     </g>
    </g>
    <g id="text_31">
     <!-- 圆心 -->
     <g transform="translate(470.52125 42.98125) scale(0.1 -0.1)">
      <defs>
       <path id="SimHei-5fc3" d="M 2700 3425 
Q 2675 3125 2675 2525 
L 2675 375 
Q 2675 75 2975 75 
L 4150 75 
Q 4425 50 4512 212 
Q 4600 375 4650 950 
Q 4900 750 5225 675 
Q 5050 -125 4875 -287 
Q 4700 -450 4450 -425 
L 2625 -425 
Q 2175 -425 2125 125 
L 2125 2500 
Q 2125 3000 2100 3425 
L 2700 3425 
z
M 1475 3075 
Q 1400 2925 1275 2287 
Q 1150 1650 925 750 
Q 625 850 325 900 
Q 675 1900 850 3200 
Q 1075 3150 1475 3075 
z
M 5075 3300 
Q 5650 2500 6175 1700 
Q 5900 1575 5650 1350 
Q 5125 2350 4625 3000 
Q 4850 3125 5075 3300 
z
M 3050 5250 
Q 3325 4775 3925 3925 
Q 3625 3775 3375 3600 
Q 2975 4425 2600 4950 
Q 2825 5075 3050 5250 
z
" transform="scale(0.015625)"/>
      </defs>
      <use xlink:href="#SimHei-5706"/>
      <use xlink:href="#SimHei-5fc3" transform="translate(100 0)"/>
     </g>
    </g>
    <g id="line2d_46">
     <g>
      <use xlink:href="#m0cbe31745c" x="452.52125" y="53.739062" style="fill: #008000; stroke: #008000"/>
     </g>
    </g>
    <g id="text_32">
     <!-- 圆内+多边形内 -->
     <g transform="translate(470.52125 57.239062) scale(0.1 -0.1)">
      <defs>
       <path id="SimHei-5185" d="M 1425 1300 
Q 2175 1825 2537 2375 
Q 2900 2925 2925 3750 
L 1225 3750 
L 1225 -500 
L 650 -500 
Q 700 0 700 350 
L 700 3125 
Q 700 3625 675 4175 
L 2950 4175 
Q 2950 4850 2925 5175 
Q 3325 5150 3550 5150 
Q 3425 4825 3425 4175 
L 5775 4175 
Q 5725 3650 5725 3125 
L 5725 75 
Q 5725 -300 5425 -387 
Q 5125 -475 4600 -550 
Q 4525 -300 4250 0 
Q 4850 0 5025 37 
Q 5200 75 5200 275 
L 5200 3750 
L 3400 3750 
Q 3400 3300 3325 2875 
Q 3550 2700 4125 2262 
Q 4700 1825 4950 1575 
Q 4675 1350 4525 1175 
Q 4100 1675 3175 2425 
Q 2725 1650 2000 975 
Q 1700 1225 1425 1300 
z
" transform="scale(0.015625)"/>
       <path id="SimHei-2b" d="M 3000 2125 
L 1775 2125 
L 1775 900 
L 1350 900 
L 1350 2125 
L 125 2125 
L 125 2525 
L 1350 2525 
L 1350 3750 
L 1775 3750 
L 1775 2525 
L 3000 2525 
L 3000 2125 
z
" transform="scale(0.015625)"/>
      </defs>
      <use xlink:href="#SimHei-5706"/>
      <use xlink:href="#SimHei-5185" transform="translate(100 0)"/>
      <use xlink:href="#SimHei-2b" transform="translate(200 0)"/>
      <use xlink:href="#SimHei-591a" transform="translate(250 0)"/>
      <use xlink:href="#SimHei-8fb9" transform="translate(350 0)"/>
      <use xlink:href="#SimHei-5f62" transform="translate(450 0)"/>
      <use xlink:href="#SimHei-5185" transform="translate(550 0)"/>
     </g>
    </g>
    <g id="line2d_47">
     <g>
      <use xlink:href="#m59919abb17" x="452.52125" y="67.996875" style="fill: #ffa500; stroke: #ffa500"/>
     </g>
    </g>
    <g id="text_33">
     <!-- 圆内+多边形外 -->
     <g transform="translate(470.52125 71.496875) scale(0.1 -0.1)">
      <defs>
       <path id="SimHei-5916" d="M 2150 4875 
Q 2000 4650 1912 4425 
Q 1825 4200 1725 3975 
L 3275 3975 
Q 3150 3075 2937 2450 
Q 2725 1825 2412 1350 
Q 2100 875 1675 437 
Q 1250 0 650 -375 
Q 475 -100 200 0 
Q 775 250 1275 712 
Q 1775 1175 2000 1600 
Q 1675 1950 1150 2325 
Q 1325 2475 1475 2675 
Q 1975 2275 2250 2050 
Q 2425 2400 2525 2775 
Q 2625 3150 2700 3550 
L 1575 3550 
Q 1425 3225 1187 2825 
Q 950 2425 575 2025 
Q 450 2200 200 2375 
Q 625 2775 862 3187 
Q 1100 3600 1250 4025 
Q 1400 4450 1550 5075 
Q 1825 4950 2150 4875 
z
M 4225 5125 
Q 4200 4725 4200 4325 
L 4200 475 
Q 4200 0 4225 -500 
L 3675 -500 
Q 3700 0 3700 475 
L 3700 4325 
Q 3700 4725 3675 5125 
L 4225 5125 
z
M 4675 3450 
Q 4900 3200 5337 2687 
Q 5775 2175 6075 1725 
Q 5825 1575 5650 1400 
Q 5425 1800 5025 2300 
Q 4625 2800 4300 3150 
Q 4450 3300 4675 3450 
z
" transform="scale(0.015625)"/>
      </defs>
      <use xlink:href="#SimHei-5706"/>
      <use xlink:href="#SimHei-5185" transform="translate(100 0)"/>
      <use xlink:href="#SimHei-2b" transform="translate(200 0)"/>
      <use xlink:href="#SimHei-591a" transform="translate(250 0)"/>
      <use xlink:href="#SimHei-8fb9" transform="translate(350 0)"/>
      <use xlink:href="#SimHei-5f62" transform="translate(450 0)"/>
      <use xlink:href="#SimHei-5916" transform="translate(550 0)"/>
     </g>
    </g>
    <g id="line2d_48">
     <g>
      <use xlink:href="#mdba2829350" x="452.52125" y="82.254687" style="fill: #800080; stroke: #800080"/>
     </g>
    </g>
    <g id="text_34">
     <!-- 圆外+多边形内 -->
     <g transform="translate(470.52125 85.754687) scale(0.1 -0.1)">
      <use xlink:href="#SimHei-5706"/>
      <use xlink:href="#SimHei-5916" transform="translate(100 0)"/>
      <use xlink:href="#SimHei-2b" transform="translate(200 0)"/>
      <use xlink:href="#SimHei-591a" transform="translate(250 0)"/>
      <use xlink:href="#SimHei-8fb9" transform="translate(350 0)"/>
      <use xlink:href="#SimHei-5f62" transform="translate(450 0)"/>
      <use xlink:href="#SimHei-5185" transform="translate(550 0)"/>
     </g>
    </g>
    <g id="line2d_49">
     <g>
      <use xlink:href="#m50b78fcfa6" x="452.52125" y="96.5125" style="fill: #a52a2a; stroke: #a52a2a"/>
     </g>
    </g>
    <g id="text_35">
     <!-- 圆外+多边形外 -->
     <g transform="translate(470.52125 100.0125) scale(0.1 -0.1)">
      <use xlink:href="#SimHei-5706"/>
      <use xlink:href="#SimHei-5916" transform="translate(100 0)"/>
      <use xlink:href="#SimHei-2b" transform="translate(200 0)"/>
      <use xlink:href="#SimHei-591a" transform="translate(250 0)"/>
      <use xlink:href="#SimHei-8fb9" transform="translate(350 0)"/>
      <use xlink:href="#SimHei-5f62" transform="translate(450 0)"/>
      <use xlink:href="#SimHei-5916" transform="translate(550 0)"/>
     </g>
    </g>
    <g id="line2d_50">
     <path d="M 442.52125 110.809375 
L 452.52125 110.809375 
L 462.52125 110.809375 
" style="fill: none; stroke: #ff0000; stroke-width: 3; stroke-linecap: square"/>
    </g>
    <g id="text_36">
     <!-- 与圆相交的边 -->
     <g transform="translate(470.52125 114.309375) scale(0.1 -0.1)">
      <defs>
       <path id="SimHei-76f8" d="M 5900 4825 
Q 5875 4225 5875 3575 
L 5875 750 
Q 5875 75 5900 -575 
L 5400 -575 
L 5400 -100 
L 3525 -100 
L 3525 -625 
L 3025 -625 
Q 3050 125 3050 675 
L 3050 3600 
Q 3050 4250 3025 4825 
L 5900 4825 
z
M 1400 3825 
Q 1400 4850 1375 5200 
L 1925 5200 
Q 1900 4825 1900 3825 
Q 2500 3825 2825 3850 
L 2825 3375 
Q 2525 3400 1900 3400 
L 1900 2450 
Q 2025 2575 2175 2750 
Q 2625 2275 2950 1825 
Q 2800 1725 2575 1500 
Q 2300 1975 1900 2375 
L 1900 475 
Q 1900 50 1925 -625 
L 1375 -625 
Q 1400 50 1400 450 
L 1400 2150 
Q 1075 1225 650 675 
Q 475 950 300 1100 
Q 475 1250 800 1887 
Q 1125 2525 1300 3400 
Q 750 3400 400 3375 
L 400 3850 
Q 850 3825 1400 3825 
z
M 5400 325 
L 5400 1475 
L 3525 1475 
L 3525 325 
L 5400 325 
z
M 5400 3300 
L 5400 4400 
L 3525 4400 
L 3525 3300 
L 5400 3300 
z
M 5400 1900 
L 5400 2900 
L 3525 2900 
L 3525 1900 
L 5400 1900 
z
" transform="scale(0.015625)"/>
       <path id="SimHei-4ea4" d="M 2325 2600 
Q 2775 1575 3200 1150 
Q 3875 1825 4225 2725 
Q 4425 2575 4725 2400 
Q 4125 1450 3550 825 
Q 4400 175 6000 25 
Q 5750 -325 5700 -550 
Q 4100 -250 3150 525 
Q 2075 -275 650 -600 
Q 575 -300 375 -50 
Q 1900 125 2775 850 
Q 2200 1525 1850 2350 
Q 2150 2475 2325 2600 
z
M 1250 3725 
Q 875 3725 525 3700 
L 525 4200 
L 1225 4150 
L 5125 4150 
Q 5525 4175 5950 4200 
L 5950 3675 
Q 5525 3700 5125 3725 
L 1250 3725 
z
M 2525 3300 
Q 2175 2975 1025 2000 
Q 825 2250 550 2400 
Q 1025 2650 1412 3025 
Q 1800 3400 2000 3675 
Q 2250 3500 2525 3300 
z
M 4325 3675 
Q 4450 3575 4900 3237 
Q 5350 2900 5775 2600 
Q 5500 2400 5300 2175 
Q 5075 2475 3900 3300 
Q 4100 3500 4325 3675 
z
M 3250 5300 
Q 3500 4725 3625 4375 
Q 3275 4275 3025 4200 
Q 2875 4625 2650 5125 
Q 2950 5225 3250 5300 
z
" transform="scale(0.015625)"/>
      </defs>
      <use xlink:href="#SimHei-4e0e"/>
      <use xlink:href="#SimHei-5706" transform="translate(100 0)"/>
      <use xlink:href="#SimHei-76f8" transform="translate(200 0)"/>
      <use xlink:href="#SimHei-4ea4" transform="translate(300 0)"/>
      <use xlink:href="#SimHei-7684" transform="translate(400 0)"/>
      <use xlink:href="#SimHei-8fb9" transform="translate(500 0)"/>
     </g>
    </g>
   </g>
  </g>
  <g id="axes_2">
   <g id="text_37">
    <!-- 多边形与圆的位置关系： -->
    <g transform="translate(644.569723 51.2895) scale(0.14 -0.14)">
     <defs>
      <path id="SimHei-ff1a" d="M 1200 2425 
L 2025 2425 
L 2025 1600 
L 1200 1600 
L 1200 2425 
z
M 1200 825 
L 2025 825 
L 2025 0 
L 1200 0 
L 1200 825 
z
" transform="scale(0.015625)"/>
     </defs>
     <use xlink:href="#SimHei-591a"/>
     <use xlink:href="#SimHei-8fb9" transform="translate(100 0)"/>
     <use xlink:href="#SimHei-5f62" transform="translate(200 0)"/>
     <use xlink:href="#SimHei-4e0e" transform="translate(300 0)"/>
     <use xlink:href="#SimHei-5706" transform="translate(400 0)"/>
     <use xlink:href="#SimHei-7684" transform="translate(500 0)"/>
     <use xlink:href="#SimHei-4f4d" transform="translate(600 0)"/>
     <use xlink:href="#SimHei-7f6e" transform="translate(700 0)"/>
     <use xlink:href="#SimHei-5173" transform="translate(800 0)"/>
     <use xlink:href="#SimHei-7cfb" transform="translate(900 0)"/>
     <use xlink:href="#SimHei-ff1a" transform="translate(1000 0)"/>
    </g>
   </g>
   <g id="text_38">
    <!-- 绿色点：在圆内且在多边形内 -->
    <g style="fill: #008000" transform="translate(644.569723 101.8435) scale(0.12 -0.12)">
     <defs>
      <path id="SimHei-7eff" d="M 3750 3525 
Q 3300 3525 2900 3500 
L 2900 3950 
Q 3275 3900 3725 3900 
L 5050 3900 
L 5100 4500 
L 3525 4500 
Q 3075 4500 2700 4475 
L 2700 4900 
Q 3075 4875 3525 4875 
L 5600 4875 
Q 5500 4050 5425 2925 
Q 5700 2925 6075 2950 
L 6075 2500 
Q 5675 2525 5275 2525 
L 4425 2525 
L 4425 2075 
Q 4600 1700 4775 1500 
Q 4925 1600 5112 1775 
Q 5300 1950 5550 2175 
Q 5700 1975 5900 1725 
Q 5775 1700 5525 1562 
Q 5275 1425 4975 1200 
Q 5175 925 5437 675 
Q 5700 425 6150 300 
Q 5900 -25 5825 -275 
Q 5225 125 4975 462 
Q 4725 800 4425 1325 
L 4425 -75 
Q 4425 -475 4162 -562 
Q 3900 -650 3625 -700 
Q 3550 -400 3425 -150 
Q 3850 -150 3912 -62 
Q 3975 25 3975 225 
L 3975 1050 
Q 3675 750 3350 462 
Q 3025 175 2625 -100 
Q 2450 225 2300 400 
Q 2750 575 3137 875 
Q 3525 1175 3975 1575 
L 3975 2525 
L 3250 2525 
Q 2850 2525 2375 2500 
L 2375 2950 
Q 2875 2925 3250 2925 
L 4975 2925 
L 5025 3525 
L 3750 3525 
z
M 1800 4825 
Q 1625 4600 1400 4137 
Q 1175 3675 850 3150 
L 1675 3150 
Q 1950 3700 2050 4075 
Q 2275 3825 2550 3675 
Q 2375 3550 2137 3137 
Q 1900 2725 1175 1600 
Q 1650 1650 2350 1775 
Q 2325 1500 2300 1325 
Q 1875 1275 1475 1225 
Q 1075 1175 600 1075 
Q 550 1300 450 1525 
Q 700 1625 950 1975 
Q 1200 2325 1475 2775 
Q 1125 2750 900 2725 
Q 675 2700 450 2625 
Q 375 2875 275 3100 
Q 550 3300 825 3912 
Q 1100 4525 1250 5150 
Q 1525 4950 1800 4825 
z
M 2250 725 
Q 2250 475 2275 325 
Q 1975 250 1487 112 
Q 1000 -25 575 -200 
Q 500 50 375 300 
Q 925 375 1325 475 
Q 1725 575 2250 725 
z
M 3050 2175 
Q 3150 2025 3525 1450 
Q 3300 1325 3125 1175 
Q 2950 1525 2650 1900 
Q 2850 2050 3050 2175 
z
" transform="scale(0.015625)"/>
      <path id="SimHei-8272" d="M 2925 4975 
Q 2725 4875 2425 4450 
L 4750 4450 
Q 4625 4325 4375 3962 
Q 4125 3600 3900 3250 
L 5300 3250 
Q 5250 2950 5250 2250 
Q 5250 1575 5300 1175 
L 4775 1175 
L 4775 1525 
L 1750 1525 
L 1750 400 
Q 1775 50 2150 0 
L 4850 0 
Q 5375 -50 5425 550 
Q 5650 400 5925 350 
Q 5700 -450 4875 -425 
L 1975 -425 
Q 1275 -450 1250 250 
L 1250 3125 
Q 1025 2950 775 2750 
Q 600 2975 325 3125 
Q 725 3375 1075 3625 
Q 1425 3875 1787 4362 
Q 2150 4850 2250 5200 
L 2925 4975 
z
M 3325 3250 
Q 3750 3800 3850 4050 
L 2150 4050 
Q 1800 3625 1400 3250 
L 3325 3250 
z
M 3025 1900 
L 3025 2850 
L 1750 2850 
L 1750 1900 
L 3025 1900 
z
M 4775 1900 
L 4775 2850 
L 3500 2850 
L 3500 1900 
L 4775 1900 
z
" transform="scale(0.015625)"/>
      <path id="SimHei-70b9" d="M 3325 5200 
Q 3300 4925 3300 4375 
L 4900 4375 
Q 5275 4375 5725 4400 
L 5725 3925 
Q 5300 3950 4900 3950 
L 3300 3950 
L 3300 3225 
L 5225 3225 
Q 5200 2700 5200 2150 
Q 5200 1625 5225 1175 
L 1175 1175 
Q 1200 1625 1200 2175 
Q 1200 2725 1175 3225 
L 2775 3225 
L 2775 4500 
Q 2775 4900 2750 5200 
L 3325 5200 
z
M 4700 1600 
L 4700 2800 
L 1725 2800 
L 1725 1600 
L 4700 1600 
z
M 1500 750 
Q 1025 -250 825 -625 
Q 625 -475 325 -375 
Q 650 50 950 925 
Q 1200 800 1500 750 
z
M 5325 850 
Q 5775 150 6075 -350 
Q 5925 -425 5575 -625 
Q 5375 -150 4900 575 
Q 5150 700 5325 850 
z
M 3975 -575 
Q 3775 -100 3400 575 
Q 3575 675 3825 825 
Q 4350 -75 4450 -325 
Q 4200 -450 3975 -575 
z
M 2375 -575 
Q 2350 -300 1975 550 
Q 2200 625 2425 775 
Q 2800 -75 2900 -350 
Q 2625 -450 2375 -575 
z
" transform="scale(0.015625)"/>
      <path id="SimHei-5728" d="M 2425 4200 
Q 2525 4525 2600 4762 
Q 2675 5000 2700 5250 
Q 3050 5175 3325 5100 
Q 3200 4850 3150 4712 
Q 3100 4575 2975 4200 
L 5000 4200 
Q 5525 4200 5950 4225 
L 5950 3750 
Q 5525 3775 5000 3775 
L 2825 3775 
Q 2675 3425 2437 3000 
Q 2200 2575 1825 2075 
L 1825 325 
Q 1825 -175 1850 -650 
L 1325 -650 
Q 1350 -175 1350 325 
L 1350 1625 
Q 950 1250 625 1000 
Q 450 1225 200 1375 
Q 500 1550 800 1800 
Q 1100 2050 1350 2375 
Q 1350 2600 1325 2825 
L 1725 2825 
Q 1900 3025 2037 3275 
Q 2175 3525 2275 3775 
L 1675 3775 
Q 1075 3775 625 3750 
L 625 4225 
Q 1100 4200 1675 4200 
L 2425 4200 
z
M 3700 2250 
L 3700 2600 
Q 3700 3100 3675 3400 
L 4225 3400 
Q 4200 3100 4200 2600 
L 4200 2250 
L 4775 2250 
Q 5225 2250 5600 2275 
L 5600 1800 
Q 5225 1825 4775 1825 
L 4200 1825 
L 4200 150 
L 5150 150 
Q 5625 150 6000 175 
L 6000 -275 
Q 5625 -250 5150 -250 
L 3125 -250 
Q 2475 -250 2100 -275 
L 2100 175 
Q 2475 150 3125 150 
L 3700 150 
L 3700 1825 
L 3225 1825 
Q 2775 1825 2350 1800 
L 2350 2275 
Q 2775 2250 3225 2250 
L 3700 2250 
z
" transform="scale(0.015625)"/>
      <path id="SimHei-4e14" d="M 350 125 
Q 750 100 1575 100 
L 1575 3700 
Q 1575 4225 1550 4825 
L 4875 4825 
Q 4850 4275 4850 3825 
L 4850 100 
Q 5650 100 6075 150 
L 6075 -350 
Q 5625 -325 5225 -325 
L 1225 -325 
Q 750 -325 350 -350 
L 350 125 
z
M 4350 100 
L 4350 1375 
L 2075 1375 
L 2075 100 
L 4350 100 
z
M 4350 1800 
L 4350 2900 
L 2075 2900 
L 2075 1800 
L 4350 1800 
z
M 4350 3325 
L 4350 4425 
L 2075 4425 
L 2075 3325 
L 4350 3325 
z
" transform="scale(0.015625)"/>
     </defs>
     <use xlink:href="#SimHei-7eff"/>
     <use xlink:href="#SimHei-8272" transform="translate(100 0)"/>
     <use xlink:href="#SimHei-70b9" transform="translate(200 0)"/>
     <use xlink:href="#SimHei-ff1a" transform="translate(300 0)"/>
     <use xlink:href="#SimHei-5728" transform="translate(400 0)"/>
     <use xlink:href="#SimHei-5706" transform="translate(500 0)"/>
     <use xlink:href="#SimHei-5185" transform="translate(600 0)"/>
     <use xlink:href="#SimHei-4e14" transform="translate(700 0)"/>
     <use xlink:href="#SimHei-5728" transform="translate(800 0)"/>
     <use xlink:href="#SimHei-591a" transform="translate(900 0)"/>
     <use xlink:href="#SimHei-8fb9" transform="translate(1000 0)"/>
     <use xlink:href="#SimHei-5f62" transform="translate(1100 0)"/>
     <use xlink:href="#SimHei-5185" transform="translate(1200 0)"/>
    </g>
   </g>
   <g id="text_39">
    <!-- 橙色点：在圆内但在多边形外 -->
    <g style="fill: #ffa500" transform="translate(644.569723 152.3975) scale(0.12 -0.12)">
     <defs>
      <path id="SimHei-6a59" d="M 5325 825 
Q 5025 375 4850 -75 
L 5175 -75 
Q 5600 -75 6025 -25 
L 6025 -500 
Q 5525 -475 5175 -475 
L 3025 -475 
Q 2525 -475 2125 -500 
L 2125 -25 
Q 2550 -75 3025 -75 
L 3250 -75 
Q 3100 375 2825 825 
Q 3000 900 3175 1025 
L 2650 1025 
Q 2675 1425 2675 1775 
Q 2675 2125 2650 2450 
L 5475 2450 
Q 5450 2025 5450 1775 
Q 5450 1525 5475 1025 
L 4875 1025 
Q 5000 925 5325 825 
z
M 3900 4900 
Q 3800 4475 3675 4125 
Q 3550 3775 3325 3400 
L 4625 3400 
Q 4375 3875 4275 4175 
Q 4175 4475 4075 5000 
Q 4250 5025 4500 5075 
Q 4550 4700 4625 4525 
Q 5000 4825 5225 5175 
Q 5425 5000 5650 4800 
Q 5400 4675 5225 4525 
Q 5050 4375 4750 4150 
Q 4875 3825 5025 3650 
Q 5400 3925 5675 4300 
Q 5850 4075 6025 3900 
Q 5825 3775 5650 3625 
Q 5475 3475 5275 3325 
Q 5525 3050 6150 2825 
Q 5900 2575 5800 2375 
Q 5025 2850 4750 3250 
L 4750 2975 
L 3325 2975 
L 3325 3275 
Q 3100 3050 2912 2825 
Q 2725 2600 2300 2250 
Q 2150 2450 1950 2625 
Q 2400 2925 2700 3325 
Q 2450 3650 2200 3850 
Q 2350 3975 2500 4150 
L 2975 3675 
Q 3250 4075 3350 4500 
L 3100 4500 
Q 2775 4500 2325 4475 
L 2325 4925 
Q 2750 4900 3125 4900 
L 3900 4900 
z
M 1050 4400 
Q 1050 4775 1025 5175 
L 1525 5175 
Q 1475 4775 1475 4400 
L 1475 3950 
Q 1750 3950 2125 3975 
L 2125 3525 
Q 1750 3575 1475 3575 
L 1475 2375 
Q 1650 2475 1800 2625 
Q 2075 2225 2325 1850 
Q 2100 1725 1925 1575 
Q 1700 2000 1475 2250 
L 1475 325 
Q 1475 -100 1500 -625 
L 1025 -625 
Q 1050 -100 1050 325 
L 1050 2250 
Q 875 1650 525 1025 
Q 350 1275 175 1425 
Q 500 1875 700 2412 
Q 900 2950 1000 3575 
Q 625 3575 275 3525 
L 275 3975 
Q 725 3950 1050 3950 
L 1050 4400 
z
M 3300 1025 
Q 3575 550 3750 125 
Q 3550 25 3375 -75 
L 4375 -75 
Q 4625 425 4750 1025 
L 3300 1025 
z
M 4975 1450 
L 4975 2075 
L 3125 2075 
L 3125 1450 
L 4975 1450 
z
" transform="scale(0.015625)"/>
      <path id="SimHei-4f46" d="M 2575 3675 
Q 2575 4050 2550 4650 
L 5625 4650 
Q 5600 4250 5600 3725 
L 5600 1825 
Q 5600 1425 5625 1050 
L 2550 1050 
Q 2575 1400 2575 1725 
L 2575 3675 
z
M 575 2225 
Q 350 2525 200 2675 
Q 725 3350 1037 4075 
Q 1350 4800 1425 5275 
Q 1800 5125 2075 5050 
Q 1875 4850 1600 3925 
L 1600 600 
Q 1600 -175 1625 -600 
L 1075 -600 
Q 1100 -200 1100 575 
L 1100 3125 
Q 700 2425 575 2225 
z
M 5075 1450 
L 5075 2675 
L 3075 2675 
L 3075 1450 
L 5075 1450 
z
M 5075 3075 
L 5075 4250 
L 3075 4250 
L 3075 3075 
L 5075 3075 
z
M 5200 175 
Q 5425 175 6125 200 
L 6125 -300 
Q 5375 -275 5150 -275 
L 2900 -275 
Q 2600 -275 1950 -300 
L 1950 200 
Q 2675 175 2875 175 
L 5200 175 
z
" transform="scale(0.015625)"/>
     </defs>
     <use xlink:href="#SimHei-6a59"/>
     <use xlink:href="#SimHei-8272" transform="translate(100 0)"/>
     <use xlink:href="#SimHei-70b9" transform="translate(200 0)"/>
     <use xlink:href="#SimHei-ff1a" transform="translate(300 0)"/>
     <use xlink:href="#SimHei-5728" transform="translate(400 0)"/>
     <use xlink:href="#SimHei-5706" transform="translate(500 0)"/>
     <use xlink:href="#SimHei-5185" transform="translate(600 0)"/>
     <use xlink:href="#SimHei-4f46" transform="translate(700 0)"/>
     <use xlink:href="#SimHei-5728" transform="translate(800 0)"/>
     <use xlink:href="#SimHei-591a" transform="translate(900 0)"/>
     <use xlink:href="#SimHei-8fb9" transform="translate(1000 0)"/>
     <use xlink:href="#SimHei-5f62" transform="translate(1100 0)"/>
     <use xlink:href="#SimHei-5916" transform="translate(1200 0)"/>
    </g>
   </g>
   <g id="text_40">
    <!-- 紫色点：在圆外但在多边形内 -->
    <g style="fill: #800080" transform="translate(644.569723 202.9515) scale(0.12 -0.12)">
     <defs>
      <path id="SimHei-7d2b" d="M 5800 925 
Q 5625 800 5375 600 
Q 5225 825 5025 1000 
Q 4300 975 3550 925 
L 3550 100 
Q 3550 -300 3300 -400 
Q 3050 -500 2525 -575 
Q 2475 -250 2325 0 
Q 2700 -25 2887 0 
Q 3075 25 3075 300 
L 3075 875 
Q 2525 850 2037 812 
Q 1550 775 1100 700 
Q 1025 950 900 1175 
Q 1300 1200 1725 1337 
Q 2150 1475 2875 1875 
Q 2500 1875 2150 1837 
Q 1800 1800 1325 1700 
Q 1250 1975 1175 2200 
Q 1550 2250 1837 2375 
Q 2125 2500 2650 3050 
Q 2900 2850 3100 2750 
Q 2850 2625 2225 2200 
L 3475 2250 
Q 3850 2475 4200 2775 
Q 4425 2575 4700 2375 
Q 4400 2300 3775 1987 
Q 3150 1675 2400 1225 
Q 3925 1300 4775 1325 
Q 4575 1550 4425 1700 
Q 4575 1775 4775 1975 
Q 5325 1450 5800 925 
z
M 1375 4675 
Q 1350 4350 1350 4150 
L 1350 3325 
Q 1525 3325 1900 3350 
L 1900 4600 
Q 1900 4825 1875 5150 
L 2400 5150 
Q 2350 4875 2350 4650 
L 2350 4450 
Q 2750 4450 3225 4475 
L 3225 4025 
Q 2750 4050 2350 4050 
L 2350 3400 
Q 2700 3425 3175 3475 
Q 3150 3325 3150 3125 
Q 1400 2950 1075 2875 
Q 750 2800 600 2775 
Q 475 3025 400 3275 
Q 575 3300 875 3300 
L 875 4125 
Q 875 4300 850 4675 
L 1375 4675 
z
M 4000 5150 
Q 3975 4900 3975 4725 
L 3975 4275 
Q 4775 4525 5275 4925 
Q 5500 4675 5750 4475 
Q 5475 4425 5025 4250 
Q 4575 4075 4000 3900 
L 4000 3575 
Q 4000 3300 4350 3300 
L 5125 3300 
Q 5375 3300 5437 3425 
Q 5500 3550 5550 3850 
Q 5800 3675 6075 3600 
Q 5875 3075 5762 3000 
Q 5650 2925 5375 2925 
L 4075 2925 
Q 3525 2925 3525 3425 
L 3525 4675 
Q 3525 4850 3500 5150 
L 4000 5150 
z
M 5700 -550 
Q 4875 -50 4100 325 
Q 4250 500 4400 725 
L 6050 -175 
Q 5850 -325 5700 -550 
z
M 325 -175 
Q 1300 175 1975 675 
Q 2150 450 2325 300 
Q 2075 175 1662 -50 
Q 1250 -275 600 -550 
Q 500 -375 325 -175 
z
" transform="scale(0.015625)"/>
     </defs>
     <use xlink:href="#SimHei-7d2b"/>
     <use xlink:href="#SimHei-8272" transform="translate(100 0)"/>
     <use xlink:href="#SimHei-70b9" transform="translate(200 0)"/>
     <use xlink:href="#SimHei-ff1a" transform="translate(300 0)"/>
     <use xlink:href="#SimHei-5728" transform="translate(400 0)"/>
     <use xlink:href="#SimHei-5706" transform="translate(500 0)"/>
     <use xlink:href="#SimHei-5916" transform="translate(600 0)"/>
     <use xlink:href="#SimHei-4f46" transform="translate(700 0)"/>
     <use xlink:href="#SimHei-5728" transform="translate(800 0)"/>
     <use xlink:href="#SimHei-591a" transform="translate(900 0)"/>
     <use xlink:href="#SimHei-8fb9" transform="translate(1000 0)"/>
     <use xlink:href="#SimHei-5f62" transform="translate(1100 0)"/>
     <use xlink:href="#SimHei-5185" transform="translate(1200 0)"/>
    </g>
   </g>
   <g id="text_41">
    <!-- 棕色点：在圆外且在多边形外 -->
    <g style="fill: #a52a2a" transform="translate(644.569723 253.5055) scale(0.12 -0.12)">
     <defs>
      <path id="SimHei-68d5" d="M 2350 1650 
Q 2100 2075 1750 2500 
L 1750 500 
Q 1750 0 1775 -525 
L 1275 -525 
Q 1300 0 1300 500 
L 1300 2350 
Q 1150 1925 975 1612 
Q 800 1300 525 900 
Q 400 1175 200 1375 
Q 300 1475 437 1662 
Q 575 1850 712 2087 
Q 850 2325 975 2650 
Q 1100 2975 1200 3425 
L 925 3425 
Q 750 3425 300 3400 
L 300 3850 
Q 750 3825 950 3825 
L 1300 3825 
L 1300 4450 
Q 1300 4825 1275 5150 
L 1775 5150 
Q 1750 4850 1750 4450 
L 1750 3825 
L 2000 3825 
Q 2150 3825 2375 3850 
L 2375 3400 
Q 2100 3425 1975 3425 
L 1750 3425 
L 1750 2550 
Q 1925 2650 2050 2800 
Q 2500 2300 2750 1950 
Q 2575 1825 2350 1650 
z
M 3400 -50 
Q 3900 -50 4012 -12 
Q 4125 25 4100 275 
L 4100 1725 
L 3575 1725 
Q 3200 1725 2825 1700 
L 2825 2150 
Q 3125 2125 3575 2125 
L 5225 2125 
Q 5600 2125 6000 2150 
L 6000 1700 
Q 5600 1725 5200 1725 
L 4575 1725 
L 4575 175 
Q 4600 -275 4350 -400 
Q 4100 -525 3600 -550 
Q 3625 -275 3400 -50 
z
M 4425 5200 
Q 4550 4625 4625 4400 
L 6025 4400 
Q 6000 4175 6000 3925 
Q 6000 3700 6025 3450 
L 5500 3450 
L 5500 4000 
L 3175 4000 
L 3175 3450 
L 2700 3450 
Q 2725 3675 2725 3925 
Q 2725 4175 2700 4400 
L 4050 4400 
Q 4025 4575 3850 5050 
Q 4150 5125 4425 5200 
z
M 4700 3225 
Q 5050 3225 5375 3250 
L 5375 2800 
Q 5000 2825 4700 2825 
L 3875 2825 
Q 3500 2825 3150 2800 
L 3150 3250 
Q 3500 3225 3850 3225 
L 4700 3225 
z
M 3600 950 
Q 3400 725 3137 400 
Q 2875 75 2525 -275 
Q 2375 -50 2150 75 
Q 2450 300 2700 587 
Q 2950 875 3175 1250 
Q 3350 1075 3600 950 
z
M 5125 1225 
Q 5975 475 6175 225 
Q 5950 50 5825 -125 
Q 5550 125 5312 375 
Q 5075 625 4800 850 
Q 4975 975 5125 1225 
z
" transform="scale(0.015625)"/>
     </defs>
     <use xlink:href="#SimHei-68d5"/>
     <use xlink:href="#SimHei-8272" transform="translate(100 0)"/>
     <use xlink:href="#SimHei-70b9" transform="translate(200 0)"/>
     <use xlink:href="#SimHei-ff1a" transform="translate(300 0)"/>
     <use xlink:href="#SimHei-5728" transform="translate(400 0)"/>
     <use xlink:href="#SimHei-5706" transform="translate(500 0)"/>
     <use xlink:href="#SimHei-5916" transform="translate(600 0)"/>
     <use xlink:href="#SimHei-4e14" transform="translate(700 0)"/>
     <use xlink:href="#SimHei-5728" transform="translate(800 0)"/>
     <use xlink:href="#SimHei-591a" transform="translate(900 0)"/>
     <use xlink:href="#SimHei-8fb9" transform="translate(1000 0)"/>
     <use xlink:href="#SimHei-5f62" transform="translate(1100 0)"/>
     <use xlink:href="#SimHei-5916" transform="translate(1200 0)"/>
    </g>
   </g>
   <g id="text_42">
    <!-- 红色边：与圆相交的边 -->
    <g style="fill: #ff0000" transform="translate(644.569723 304.0595) scale(0.12 -0.12)">
     <defs>
      <path id="SimHei-7ea2" d="M 4975 4375 
Q 5400 4375 5850 4400 
L 5850 3950 
Q 5400 3975 4975 3975 
L 4600 3975 
L 4600 175 
L 5125 175 
Q 5550 175 6025 200 
L 6025 -275 
Q 5550 -250 5125 -250 
L 3600 -250 
Q 3225 -250 2750 -275 
L 2750 200 
Q 3225 175 3625 175 
L 4125 175 
L 4125 3975 
L 3850 3975 
Q 3375 3975 2950 3950 
L 2950 4400 
Q 3400 4375 3800 4375 
L 4975 4375 
z
M 2775 1775 
Q 2725 1525 2725 1350 
Q 1475 1175 1200 1112 
Q 925 1050 675 975 
Q 575 1250 475 1425 
Q 775 1550 1062 1887 
Q 1350 2225 1700 2750 
Q 1450 2725 1125 2700 
Q 800 2675 475 2575 
Q 375 2825 275 3050 
Q 500 3075 900 3737 
Q 1300 4400 1525 5100 
Q 1825 4925 2050 4850 
Q 1850 4600 1625 4187 
Q 1400 3775 925 3075 
Q 1525 3100 1950 3125 
Q 2275 3700 2375 3975 
Q 2550 3825 2850 3650 
Q 2700 3475 2412 3037 
Q 2125 2600 1300 1550 
Q 2025 1650 2775 1775 
z
M 2825 750 
Q 2825 550 2850 300 
Q 1500 -50 1187 -162 
Q 875 -275 625 -375 
Q 525 -50 400 175 
Q 825 250 1337 362 
Q 1850 475 2825 750 
z
" transform="scale(0.015625)"/>
     </defs>
     <use xlink:href="#SimHei-7ea2"/>
     <use xlink:href="#SimHei-8272" transform="translate(100 0)"/>
     <use xlink:href="#SimHei-8fb9" transform="translate(200 0)"/>
     <use xlink:href="#SimHei-ff1a" transform="translate(300 0)"/>
     <use xlink:href="#SimHei-4e0e" transform="translate(400 0)"/>
     <use xlink:href="#SimHei-5706" transform="translate(500 0)"/>
     <use xlink:href="#SimHei-76f8" transform="translate(600 0)"/>
     <use xlink:href="#SimHei-4ea4" transform="translate(700 0)"/>
     <use xlink:href="#SimHei-7684" transform="translate(800 0)"/>
     <use xlink:href="#SimHei-8fb9" transform="translate(900 0)"/>
    </g>
   </g>
   <g id="text_43">
    <!-- 绿色边：不与圆相交的边 -->
    <g style="fill: #008000" transform="translate(644.569723 354.6135) scale(0.12 -0.12)">
     <defs>
      <path id="SimHei-4e0d" d="M 5975 4450 
Q 5525 4475 5200 4475 
L 3725 4475 
Q 3550 4125 3300 3700 
L 3300 575 
Q 3300 75 3325 -550 
L 2775 -550 
Q 2800 50 2800 575 
L 2800 3025 
Q 2025 1950 700 1050 
Q 500 1350 325 1475 
Q 825 1700 1650 2437 
Q 2475 3175 3175 4475 
L 1525 4475 
Q 1050 4475 525 4450 
L 525 4950 
Q 1275 4925 1675 4925 
L 5175 4925 
Q 5500 4925 5975 4950 
L 5975 4450 
z
M 5450 1125 
Q 4975 1725 3750 2975 
Q 3950 3150 4075 3325 
Q 4675 2775 5100 2362 
Q 5525 1950 5900 1550 
Q 5650 1350 5450 1125 
z
" transform="scale(0.015625)"/>
     </defs>
     <use xlink:href="#SimHei-7eff"/>
     <use xlink:href="#SimHei-8272" transform="translate(100 0)"/>
     <use xlink:href="#SimHei-8fb9" transform="translate(200 0)"/>
     <use xlink:href="#SimHei-ff1a" transform="translate(300 0)"/>
     <use xlink:href="#SimHei-4e0d" transform="translate(400 0)"/>
     <use xlink:href="#SimHei-4e0e" transform="translate(500 0)"/>
     <use xlink:href="#SimHei-5706" transform="translate(600 0)"/>
     <use xlink:href="#SimHei-76f8" transform="translate(700 0)"/>
     <use xlink:href="#SimHei-4ea4" transform="translate(800 0)"/>
     <use xlink:href="#SimHei-7684" transform="translate(900 0)"/>
     <use xlink:href="#SimHei-8fb9" transform="translate(1000 0)"/>
    </g>
   </g>
   <g id="text_44">
    <!-- 判断方法： -->
    <g transform="translate(644.569723 405.1675) scale(0.14 -0.14)">
     <defs>
      <path id="SimHei-5224" d="M 225 -225 
Q 900 50 1262 475 
Q 1625 900 1700 1575 
Q 700 1575 250 1550 
L 250 2000 
Q 700 1975 1750 1975 
L 1750 2850 
Q 975 2850 500 2825 
L 500 3275 
Q 975 3250 1750 3250 
Q 1750 4600 1700 5100 
L 2275 5100 
Q 2225 4825 2225 4325 
L 2225 3250 
Q 2925 3250 3325 3275 
L 3325 2825 
Q 2925 2850 2225 2850 
L 2225 1975 
Q 3125 1975 3550 2000 
L 3550 1550 
Q 3150 1575 2200 1575 
Q 2100 750 1662 225 
Q 1225 -300 700 -600 
Q 550 -375 225 -225 
z
M 4500 25 
Q 5050 -25 5175 0 
Q 5300 25 5300 200 
L 5300 4300 
Q 5300 4825 5275 5125 
L 5800 5125 
Q 5775 4800 5775 4300 
L 5775 50 
Q 5775 -325 5550 -425 
Q 5325 -525 4750 -575 
Q 4700 -200 4500 25 
z
M 4025 850 
Q 4050 1225 4050 1675 
L 4050 3575 
Q 4050 4050 4025 4350 
L 4550 4350 
Q 4525 3925 4525 3500 
L 4525 1675 
Q 4525 1225 4550 850 
L 4025 850 
z
M 825 3575 
Q 625 4175 400 4475 
Q 625 4525 850 4675 
Q 1075 4350 1325 3775 
Q 1100 3700 825 3575 
z
M 3575 4475 
Q 3375 4250 3262 4037 
Q 3150 3825 3050 3600 
Q 2800 3725 2600 3800 
Q 2750 4000 2887 4237 
Q 3025 4475 3100 4700 
Q 3275 4575 3575 4475 
z
" transform="scale(0.015625)"/>
      <path id="SimHei-65ad" d="M 3800 4600 
Q 4400 4600 4925 4687 
Q 5450 4775 5700 4900 
Q 5775 4700 6000 4375 
Q 5750 4375 5337 4337 
Q 4925 4300 4275 4250 
L 4275 3050 
L 5575 3050 
Q 5775 3050 6075 3075 
L 6075 2625 
Q 5750 2650 5500 2650 
L 5500 225 
Q 5500 -200 5550 -550 
L 5025 -550 
Q 5075 -125 5075 300 
L 5075 2650 
L 4275 2650 
Q 4275 2000 4225 1475 
Q 4175 950 4075 537 
Q 3975 125 3475 -600 
Q 3275 -450 3050 -350 
Q 3500 200 3650 725 
Q 3800 1250 3825 1800 
Q 3850 2350 3850 3250 
Q 3850 4150 3800 4600 
z
M 2600 5150 
Q 2575 4875 2575 4400 
L 2575 3225 
Q 3050 3225 3450 3250 
L 3450 2800 
Q 3075 2850 2575 2850 
L 2575 1450 
Q 2575 1000 2600 675 
L 2100 675 
Q 2125 1400 2125 2225 
Q 1850 1525 1450 1000 
Q 1250 1175 1075 1300 
Q 1700 2075 1925 2850 
Q 1700 2850 1225 2825 
L 1225 3250 
Q 1575 3225 2125 3225 
L 2125 4375 
Q 2125 4875 2100 5150 
L 2600 5150 
z
M 1000 475 
L 2550 475 
Q 2950 475 3300 500 
L 3300 50 
Q 2950 75 2325 75 
L 500 75 
Q 525 450 525 950 
L 525 3850 
Q 525 4300 500 4650 
L 1025 4650 
Q 1000 4300 1000 3950 
L 1000 475 
z
M 2975 2550 
Q 3275 2025 3625 1525 
L 3225 1225 
Q 3000 1725 2625 2325 
Q 2750 2425 2975 2550 
z
M 3625 4550 
Q 3450 4350 3350 4087 
Q 3250 3825 3125 3550 
Q 2925 3650 2700 3725 
Q 3000 4225 3125 4775 
Q 3375 4650 3625 4550 
z
M 1200 4675 
Q 1450 4700 1675 4725 
Q 1800 3950 1850 3675 
Q 1675 3650 1400 3600 
Q 1375 3875 1200 4675 
z
" transform="scale(0.015625)"/>
      <path id="SimHei-65b9" d="M 425 3975 
Q 825 3950 1300 3950 
L 5025 3950 
Q 5625 3950 6000 3975 
L 6000 3475 
Q 5675 3500 5100 3500 
L 2525 3500 
Q 2525 3225 2500 2500 
L 5300 2500 
Q 5250 2175 5200 1550 
L 5050 175 
Q 5000 -275 4625 -412 
Q 4250 -550 3525 -625 
Q 3500 -300 3325 -50 
Q 3900 -75 4200 0 
Q 4500 75 4575 425 
L 4725 2050 
L 2475 2050 
Q 2375 1350 2162 875 
Q 1950 400 1575 0 
Q 1200 -400 825 -700 
Q 725 -550 375 -350 
Q 700 -175 1062 200 
Q 1425 575 1662 1050 
Q 1900 1525 1962 2100 
Q 2025 2675 2025 3500 
L 1325 3500 
Q 775 3500 425 3475 
L 425 3975 
z
M 3075 4075 
Q 2850 4575 2575 5000 
Q 2800 5125 3025 5275 
Q 3300 4850 3575 4350 
Q 3325 4250 3075 4075 
z
" transform="scale(0.015625)"/>
      <path id="SimHei-6cd5" d="M 6075 -300 
Q 5850 -425 5625 -625 
Q 5450 -300 5325 -125 
Q 4525 -175 3587 -262 
Q 2650 -350 2325 -450 
Q 2250 -150 2125 75 
Q 2450 175 2825 725 
Q 3200 1275 3500 2100 
L 2800 2100 
Q 2350 2100 1950 2075 
L 1950 2525 
Q 2350 2500 2825 2500 
L 3725 2500 
L 3725 3600 
L 3150 3600 
Q 2675 3600 2325 3575 
L 2325 4025 
Q 2725 4000 3125 4000 
L 3725 4000 
Q 3725 4700 3700 5150 
L 4250 5150 
Q 4225 4775 4225 4000 
L 4975 4000 
Q 5350 4000 5750 4025 
L 5750 3575 
Q 5350 3600 5025 3600 
L 4225 3600 
L 4225 2500 
L 5125 2500 
Q 5575 2500 6025 2525 
L 6025 2075 
Q 5575 2100 5125 2100 
L 3850 2100 
L 4100 1950 
Q 3950 1775 3625 1200 
Q 3300 625 2900 100 
Q 4000 150 5075 225 
Q 4775 675 4450 1025 
Q 4650 1175 4825 1350 
Q 5275 800 6075 -300 
z
M 300 -250 
Q 650 100 1012 625 
Q 1375 1150 1725 1725 
Q 1850 1500 2075 1375 
Q 1850 1075 1500 487 
Q 1150 -100 850 -625 
Q 650 -425 300 -250 
z
M 675 3425 
Q 1200 3100 1800 2650 
Q 1575 2500 1400 2250 
Q 925 2675 350 3050 
Q 525 3200 675 3425 
z
M 1050 4900 
Q 1550 4575 2100 4125 
Q 1900 3975 1725 3725 
Q 1250 4175 725 4525 
Q 900 4700 1050 4900 
z
" transform="scale(0.015625)"/>
     </defs>
     <use xlink:href="#SimHei-5224"/>
     <use xlink:href="#SimHei-65ad" transform="translate(100 0)"/>
     <use xlink:href="#SimHei-65b9" transform="translate(200 0)"/>
     <use xlink:href="#SimHei-6cd5" transform="translate(300 0)"/>
     <use xlink:href="#SimHei-ff1a" transform="translate(400 0)"/>
    </g>
   </g>
   <g id="text_45">
    <!-- 1. 点在圆内：距离 &lt; 半径 -->
    <g transform="translate(644.569723 455.7215) scale(0.11 -0.11)">
     <use xlink:href="#SimHei-31"/>
     <use xlink:href="#SimHei-2e" transform="translate(50 0)"/>
     <use xlink:href="#SimHei-20" transform="translate(100 0)"/>
     <use xlink:href="#SimHei-70b9" transform="translate(150 0)"/>
     <use xlink:href="#SimHei-5728" transform="translate(250 0)"/>
     <use xlink:href="#SimHei-5706" transform="translate(350 0)"/>
     <use xlink:href="#SimHei-5185" transform="translate(450 0)"/>
     <use xlink:href="#SimHei-ff1a" transform="translate(550 0)"/>
     <use xlink:href="#SimHei-8ddd" transform="translate(650 0)"/>
     <use xlink:href="#SimHei-79bb" transform="translate(750 0)"/>
     <use xlink:href="#SimHei-20" transform="translate(850 0)"/>
     <use xlink:href="#SimHei-3c" transform="translate(900 0)"/>
     <use xlink:href="#SimHei-20" transform="translate(950 0)"/>
     <use xlink:href="#SimHei-534a" transform="translate(1000 0)"/>
     <use xlink:href="#SimHei-5f84" transform="translate(1100 0)"/>
    </g>
   </g>
   <g id="text_46">
    <!-- 2. 线段与圆相交：线段到圆心距离 ≤ 半径 -->
    <g transform="translate(644.569723 480.9985) scale(0.11 -0.11)">
     <defs>
      <path id="SimHei-7ebf" d="M 3450 4300 
Q 3450 4675 3375 5125 
Q 3700 5100 4050 5050 
Q 3975 4900 3950 4562 
Q 3925 4225 3950 3600 
L 4800 3750 
Q 5225 3850 5650 3975 
L 5750 3500 
Q 5325 3450 4875 3375 
L 3975 3200 
Q 3975 2800 4025 2500 
L 5000 2675 
Q 5500 2775 5950 2925 
L 6025 2450 
Q 5575 2375 5075 2275 
L 4100 2100 
Q 4150 1600 4350 1175 
Q 4575 1350 4787 1575 
Q 5000 1800 5175 2075 
Q 5550 1775 5750 1675 
Q 5425 1525 5237 1337 
Q 5050 1150 4625 750 
Q 4925 250 5162 112 
Q 5400 -25 5500 100 
Q 5600 225 5675 625 
Q 5900 450 6200 350 
Q 5775 -750 5275 -537 
Q 4775 -325 4225 450 
Q 3875 175 3537 -62 
Q 3200 -300 2700 -550 
Q 2575 -300 2325 -100 
Q 2825 75 3175 275 
Q 3525 475 3975 850 
Q 3750 1350 3650 2025 
Q 2900 1900 2600 1800 
L 2525 2275 
Q 2825 2275 3550 2425 
Q 3500 2825 3500 3100 
Q 2825 2950 2575 2875 
L 2475 3350 
Q 2725 3350 3450 3500 
L 3450 4300 
z
M 1950 4875 
Q 1700 4650 1462 4237 
Q 1225 3825 825 3225 
Q 1425 3250 1650 3250 
Q 1875 3625 2050 4075 
Q 2300 3900 2600 3800 
Q 2350 3550 2087 3125 
Q 1825 2700 1175 1675 
Q 1850 1725 2375 1775 
Q 2300 1525 2300 1350 
Q 2125 1350 1525 1287 
Q 925 1225 550 1125 
Q 525 1375 400 1650 
Q 700 1725 950 2050 
Q 1200 2375 1475 2875 
Q 650 2825 425 2675 
Q 350 2950 200 3225 
Q 525 3450 825 3962 
Q 1125 4475 1375 5150 
Q 1625 4975 1950 4875 
z
M 2575 875 
Q 2550 600 2575 450 
Q 1950 325 1450 200 
Q 950 75 525 -75 
Q 450 200 250 475 
Q 950 550 1325 612 
Q 1700 675 2575 875 
z
M 4850 4025 
Q 4675 4300 4375 4675 
L 4775 4875 
Q 4875 4750 5275 4275 
Q 5025 4175 4850 4025 
z
" transform="scale(0.015625)"/>
      <path id="SimHei-6bb5" d="M 5500 2475 
Q 5350 1775 5100 1237 
Q 4850 700 4600 400 
Q 4825 225 5250 87 
Q 5675 -50 6125 -125 
Q 5950 -275 5825 -650 
Q 5150 -450 4825 -287 
Q 4500 -125 4225 75 
Q 3825 -175 3450 -337 
Q 3075 -500 2625 -650 
Q 2525 -400 2325 -225 
Q 2675 -150 3100 0 
Q 3525 150 3925 425 
Q 3725 675 3525 1150 
Q 3325 1600 3225 2075 
Q 3050 2075 2900 2075 
L 2900 2500 
Q 3375 2475 3800 2475 
L 5500 2475 
z
M 2650 4625 
Q 2300 4550 1887 4475 
Q 1475 4400 1300 4375 
L 1300 3550 
Q 2050 3550 2525 3600 
L 2525 3125 
Q 2050 3150 1300 3150 
L 1300 2350 
Q 2050 2350 2525 2375 
L 2525 1900 
Q 2050 1925 1300 1925 
L 1300 975 
Q 1950 1075 2625 1250 
Q 2600 1000 2600 775 
Q 1900 675 1300 525 
L 1300 100 
Q 1300 -200 1325 -625 
L 800 -625 
Q 825 -200 825 100 
L 825 425 
Q 575 375 350 300 
Q 300 650 250 825 
Q 500 850 825 900 
L 825 3800 
Q 825 4225 800 4725 
Q 1100 4725 1575 4825 
Q 2050 4925 2375 5125 
Q 2475 4850 2650 4625 
z
M 5100 4975 
Q 5075 4600 5075 4275 
L 5075 3650 
Q 5075 3425 5237 3387 
Q 5400 3350 5975 3400 
Q 5875 3225 5850 2950 
L 5075 2950 
Q 4650 2950 4625 3375 
L 4625 4575 
L 3775 4575 
Q 3775 3925 3675 3525 
Q 3575 3125 3200 2725 
Q 3025 2900 2800 3050 
Q 3275 3400 3300 3937 
Q 3325 4475 3300 4975 
L 5100 4975 
z
M 3675 2100 
Q 3775 1675 3962 1287 
Q 4150 900 4275 775 
Q 4450 950 4625 1312 
Q 4800 1675 4900 2100 
L 3800 2100 
L 3675 2100 
z
" transform="scale(0.015625)"/>
      <path id="SimHei-5230" d="M 3675 150 
Q 2275 -50 1537 -175 
Q 800 -300 500 -400 
Q 425 -75 325 225 
Q 775 250 1062 275 
Q 1350 300 1750 350 
L 1750 1325 
L 1400 1325 
Q 900 1325 550 1275 
L 550 1750 
Q 975 1725 1325 1725 
L 1750 1725 
L 1750 2550 
Q 1250 2525 1037 2500 
Q 825 2475 575 2425 
Q 525 2750 425 3000 
Q 825 3100 1137 3500 
Q 1450 3900 1625 4400 
L 1250 4400 
Q 825 4400 450 4375 
L 450 4850 
Q 850 4825 1225 4825 
L 2825 4825 
Q 3275 4825 3625 4850 
L 3625 4375 
Q 3250 4400 2825 4400 
L 1800 4400 
L 2250 4100 
Q 2000 3900 1775 3600 
Q 1550 3300 1250 2950 
Q 2150 3000 2925 3050 
Q 2725 3375 2475 3700 
Q 2725 3825 2925 3975 
Q 3175 3625 3400 3300 
Q 3625 2975 3825 2700 
Q 3600 2525 3325 2375 
Q 3225 2550 3150 2675 
Q 2625 2600 2275 2575 
L 2275 1725 
L 2750 1725 
Q 3175 1725 3475 1750 
L 3475 1275 
Q 3150 1325 2775 1325 
L 2275 1325 
L 2275 400 
Q 2975 500 3750 625 
Q 3700 375 3675 150 
z
M 5875 5175 
Q 5825 4800 5825 4325 
L 5825 225 
Q 5825 -350 5612 -450 
Q 5400 -550 4700 -675 
Q 4625 -350 4475 -75 
Q 5000 -75 5162 -37 
Q 5325 0 5325 375 
L 5325 4325 
Q 5325 4875 5300 5175 
L 5875 5175 
z
M 4600 4375 
Q 4550 4050 4550 3475 
L 4550 1600 
Q 4550 1075 4575 725 
L 4050 725 
Q 4075 1075 4075 1600 
L 4075 3575 
Q 4075 4075 4050 4375 
L 4600 4375 
z
" transform="scale(0.015625)"/>
      <path id="SimHei-2264" d="M 5675 275 
L 5600 -75 
L 700 1575 
L 775 1900 
L 5675 275 
z
M 5675 4375 
L 1525 2975 
L 5675 1625 
L 5600 1250 
L 700 2925 
L 700 3050 
L 5575 4700 
L 5675 4375 
z
" transform="scale(0.015625)"/>
     </defs>
     <use xlink:href="#SimHei-32"/>
     <use xlink:href="#SimHei-2e" transform="translate(50 0)"/>
     <use xlink:href="#SimHei-20" transform="translate(100 0)"/>
     <use xlink:href="#SimHei-7ebf" transform="translate(150 0)"/>
     <use xlink:href="#SimHei-6bb5" transform="translate(250 0)"/>
     <use xlink:href="#SimHei-4e0e" transform="translate(350 0)"/>
     <use xlink:href="#SimHei-5706" transform="translate(450 0)"/>
     <use xlink:href="#SimHei-76f8" transform="translate(550 0)"/>
     <use xlink:href="#SimHei-4ea4" transform="translate(650 0)"/>
     <use xlink:href="#SimHei-ff1a" transform="translate(750 0)"/>
     <use xlink:href="#SimHei-7ebf" transform="translate(850 0)"/>
     <use xlink:href="#SimHei-6bb5" transform="translate(950 0)"/>
     <use xlink:href="#SimHei-5230" transform="translate(1050 0)"/>
     <use xlink:href="#SimHei-5706" transform="translate(1150 0)"/>
     <use xlink:href="#SimHei-5fc3" transform="translate(1250 0)"/>
     <use xlink:href="#SimHei-8ddd" transform="translate(1350 0)"/>
     <use xlink:href="#SimHei-79bb" transform="translate(1450 0)"/>
     <use xlink:href="#SimHei-20" transform="translate(1550 0)"/>
     <use xlink:href="#SimHei-2264" transform="translate(1600 0)"/>
     <use xlink:href="#SimHei-20" transform="translate(1700 0)"/>
     <use xlink:href="#SimHei-534a" transform="translate(1750 0)"/>
     <use xlink:href="#SimHei-5f84" transform="translate(1850 0)"/>
    </g>
   </g>
   <g id="text_47">
    <!-- 3. 多边形与圆相交：有边相交或有顶点在圆内 -->
    <g transform="translate(644.569723 506.2755) scale(0.11 -0.11)">
     <defs>
      <path id="SimHei-6709" d="M 275 1625 
Q 850 1975 1400 2537 
Q 1950 3100 2400 3925 
L 1500 3925 
Q 1150 3925 625 3900 
L 625 4375 
Q 1275 4350 1600 4350 
L 2550 4350 
Q 2750 4950 2775 5225 
Q 3150 5125 3375 5075 
Q 3300 5000 3125 4350 
L 5150 4350 
Q 5575 4350 6025 4375 
L 6025 3900 
Q 5575 3925 5225 3925 
L 2975 3925 
Q 2800 3600 2600 3275 
L 5475 3275 
Q 5450 2650 5450 2150 
L 5450 125 
Q 5450 -225 5250 -387 
Q 5050 -550 4400 -600 
Q 4375 -325 4225 0 
Q 4600 -50 4775 -25 
Q 4950 0 4950 250 
L 4950 750 
L 2350 750 
L 2350 -575 
L 1800 -575 
Q 1825 50 1825 500 
L 1825 2275 
Q 1300 1675 725 1225 
Q 625 1400 275 1625 
z
M 4950 2175 
L 4950 2875 
L 2350 2875 
L 2350 2175 
L 4950 2175 
z
M 4950 1150 
L 4950 1775 
L 2350 1775 
L 2350 1150 
L 4950 1150 
z
" transform="scale(0.015625)"/>
      <path id="SimHei-6216" d="M 3425 4100 
Q 3425 4800 3400 5225 
Q 3725 5175 3950 5175 
Q 3900 4800 3900 4100 
L 4825 4100 
Q 5200 4100 5825 4125 
L 5825 3675 
Q 5200 3700 4825 3700 
L 3925 3700 
Q 3950 3150 4050 2450 
Q 4150 1750 4325 1375 
Q 4875 2275 5100 3075 
Q 5350 2875 5600 2775 
Q 5400 2425 5150 1937 
Q 4900 1450 4525 875 
Q 4900 200 5112 25 
Q 5325 -150 5437 87 
Q 5550 325 5600 650 
Q 5875 400 6100 350 
Q 5775 -675 5287 -625 
Q 4800 -575 4200 500 
Q 3575 -175 2675 -650 
Q 2525 -425 2325 -275 
Q 2925 0 3362 350 
Q 3800 700 3975 925 
Q 3850 1175 3675 1925 
Q 3500 2675 3450 3700 
L 1300 3700 
Q 850 3700 425 3675 
L 425 4125 
Q 850 4100 1275 4100 
L 3425 4100 
z
M 2850 3100 
Q 2825 2775 2825 2225 
Q 2825 1700 2850 1275 
L 825 1275 
Q 850 1775 850 2275 
Q 850 2775 825 3100 
L 2850 3100 
z
M 3200 1000 
Q 3150 800 3150 525 
Q 2300 350 1850 237 
Q 1400 125 600 -125 
Q 525 100 375 400 
Q 650 425 1375 575 
Q 2100 725 3200 1000 
z
M 2375 1675 
L 2375 2700 
L 1300 2700 
L 1300 1675 
L 2375 1675 
z
M 4625 5200 
Q 5200 4650 5325 4475 
Q 5175 4350 4975 4150 
Q 4800 4425 4300 4875 
Q 4500 5050 4625 5200 
z
" transform="scale(0.015625)"/>
      <path id="SimHei-9876" d="M 3675 3675 
Q 3725 4100 3750 4500 
L 3275 4500 
Q 2975 4500 2450 4475 
L 2450 4900 
Q 2950 4875 3275 4875 
L 5100 4875 
Q 5525 4875 5950 4900 
L 5950 4475 
Q 5525 4500 5100 4500 
L 4275 4500 
Q 4200 4100 4150 3675 
L 5625 3675 
Q 5600 3300 5600 2250 
Q 5600 1200 5625 775 
L 5125 775 
L 5125 3300 
L 3100 3300 
L 3100 725 
L 2625 725 
Q 2650 1150 2650 2200 
Q 2650 3275 2625 3675 
L 3675 3675 
z
M 300 4700 
Q 600 4675 900 4675 
L 1625 4675 
Q 1925 4675 2250 4700 
L 2250 4275 
Q 1850 4300 1600 4300 
L 1600 525 
Q 1600 25 1287 -75 
Q 975 -175 550 -275 
Q 500 50 350 325 
Q 725 325 925 350 
Q 1125 375 1125 700 
L 1125 4300 
Q 625 4300 300 4275 
L 300 4700 
z
M 2325 -650 
Q 2225 -375 1975 -125 
Q 2675 25 3087 275 
Q 3500 525 3625 887 
Q 3750 1250 3787 1762 
Q 3825 2275 3800 2825 
Q 4100 2775 4375 2750 
Q 4300 2475 4275 1987 
Q 4250 1500 4150 962 
Q 4050 425 3575 25 
Q 3100 -375 2325 -650 
z
M 4675 825 
Q 4900 650 5300 350 
Q 5700 50 6075 -250 
Q 5825 -475 5650 -700 
Q 5225 -250 4925 -12 
Q 4625 225 4275 450 
Q 4525 650 4675 825 
z
" transform="scale(0.015625)"/>
     </defs>
     <use xlink:href="#SimHei-33"/>
     <use xlink:href="#SimHei-2e" transform="translate(50 0)"/>
     <use xlink:href="#SimHei-20" transform="translate(100 0)"/>
     <use xlink:href="#SimHei-591a" transform="translate(150 0)"/>
     <use xlink:href="#SimHei-8fb9" transform="translate(250 0)"/>
     <use xlink:href="#SimHei-5f62" transform="translate(350 0)"/>
     <use xlink:href="#SimHei-4e0e" transform="translate(450 0)"/>
     <use xlink:href="#SimHei-5706" transform="translate(550 0)"/>
     <use xlink:href="#SimHei-76f8" transform="translate(650 0)"/>
     <use xlink:href="#SimHei-4ea4" transform="translate(750 0)"/>
     <use xlink:href="#SimHei-ff1a" transform="translate(850 0)"/>
     <use xlink:href="#SimHei-6709" transform="translate(950 0)"/>
     <use xlink:href="#SimHei-8fb9" transform="translate(1050 0)"/>
     <use xlink:href="#SimHei-76f8" transform="translate(1150 0)"/>
     <use xlink:href="#SimHei-4ea4" transform="translate(1250 0)"/>
     <use xlink:href="#SimHei-6216" transform="translate(1350 0)"/>
     <use xlink:href="#SimHei-6709" transform="translate(1450 0)"/>
     <use xlink:href="#SimHei-9876" transform="translate(1550 0)"/>
     <use xlink:href="#SimHei-70b9" transform="translate(1650 0)"/>
     <use xlink:href="#SimHei-5728" transform="translate(1750 0)"/>
     <use xlink:href="#SimHei-5706" transform="translate(1850 0)"/>
     <use xlink:href="#SimHei-5185" transform="translate(1950 0)"/>
    </g>
   </g>
  </g>
 </g>
 <defs>
  <clipPath id="pa9ca288952">
   <rect x="38.98125" y="26.0125" width="505.54" height="505.54"/>
  </clipPath>
 </defs>
</svg>
